<?xml version="1.0" standalone="no"?>
<!DOCTYPE svg PUBLIC "-//W3C//DTD SVG 1.1//EN" "http://www.w3.org/Graphics/SVG/1.1/DTD/svg11.dtd" >
<svg xmlns="http://www.w3.org/2000/svg" xmlns:xlink="http://www.w3.org/1999/xlink" version="1.1">
<metadata></metadata>
<defs>
<font id="danielregular" horiz-adv-x="3135" >
<font-face units-per-em="2048" ascent="1290" descent="-758" />
<missing-glyph horiz-adv-x="1351" />
<glyph horiz-adv-x="0" />
<glyph horiz-adv-x="682" />
<glyph unicode="&#x9;" horiz-adv-x="909" />
<glyph unicode="&#xd;" horiz-adv-x="909" />
<glyph unicode=" "  horiz-adv-x="1351" />
<glyph unicode="&#x09;" horiz-adv-x="1351" />
<glyph unicode="&#xa0;" horiz-adv-x="1351" />
<glyph unicode="!" horiz-adv-x="1116" d="M299 155q124 151 173 151q22 0 151 -74q-5 -23 -24.5 -107.5t-31.5 -142.5q-158 43 -191 54q-22 17 -77 119zM450 981q0 66 155 527q3 8 3 135q0 43 36 130q50 107 53 126l77 419q47 268 166 816q48 162 55 187q30 21 96 74q108 -45 108 -114q0 -6 -10.5 -53.5 t-39.5 -179t-55 -247.5q-47 -233 -169 -771q-50 -98 -122 -300l-146 -1023q-6 -28 -56 -28q-27 0 -55.5 32t-52.5 92q-43 105 -43 178z" />
<glyph unicode="&#x22;" horiz-adv-x="946" d="M119 2632q0 54 36 196q40 176 45 221q-28 47 -60 92q6 12 89 106q66 78 102 78q9 0 31 -8h29q52 -58 52 -140q0 -250 -45 -475q-43 -151 -78 -288h-154q-47 132 -47 218zM671 2417q0 33 44 303q28 165 104 569q7 14 95 102q103 -102 103 -210q0 -49 -43 -303 q-66 -368 -123 -570l-73 -53q-107 79 -107 162z" />
<glyph unicode="#" horiz-adv-x="3103" d="M32 707q72 78 164 78q24 0 247 -47q219 -45 272 -45q30 0 41 4q48 68 99 243q56 195 56 273q0 42 -17 61.5t-53 19.5q-17 0 -95.5 -10.5t-101.5 -10.5q-309 0 -405 95q0 40 38 88q37 49 70 49q8 0 26 -2.5t49 -6.5t60 -7q111 -11 141 -11q264 0 324 18q106 43 174 252 q118 397 143 471q54 6 97 44q84 -74 84 -146q0 -22 -91 -267q-94 -235 -94 -268q0 -14 15 -36t44 -45l701 4q75 0 207 380q83 245 154 468q26 79 134 306h81q28 -35 28 -116q0 -121 -32 -221q-30 -30 -77 -117q-14 -36 -85 -302q-59 -238 -59 -296q0 -41 24.5 -61t77.5 -20 q35 0 162 22q114 25 162 25q70 0 222 -14q178 -11 225 -11q4 -36 -26 -95q-31 -48 -73 -60q-84 -27 -425 -32q-304 -6 -427 -74q-158 -92 -158 -524q273 7 380 7q15 0 46 -0.5t88.5 -2.5t104.5 -4q50 -1 106 -3t86 -3t44 -1q-12 -41 -67 -85q-54 -48 -88 -48q-18 0 -67 11 q-10 2 -22 5t-19 4.5t-13 3t-9 1.5q-153 0 -369 -43q-277 -55 -309 -137q-93 -227 -169 -405q-58 -132 -125.5 -212t-139.5 -105q-37 16 -57 34t-20 33q0 29 271 662q-22 56 -144 56q-441 0 -644 -99q-55 -28 -88 -178q-49 -191 -52 -209q-98 56 -177 50q0 128 43 306 q-87 94 -401 137q-258 32 -292 169zM1028 785q0 -46 30 -70h465q309 0 383 129q64 257 114 420q-229 0 -409 12q-11 0 -44.5 4.5t-58.5 6.5q-90 7 -100 7q-144 0 -240 -59q-140 -275 -140 -450z" />
<glyph unicode="$" horiz-adv-x="2196" d="M59 911q0 113 128 113q-18 0 53 -13q153 -28 637 -104q361 528 361 616q0 48 -81 84q-29 13 -122 49q-132 84 -272 229q-173 186 -173 293q0 35 58 101q56 61 97 61q88 0 409 -11q326 -11 416 -11q45 0 66 22q7 10 155 270l337 590h77q50 -50 50 -84l-367 -787 q17 -50 213 -77q181 -22 181 -162q0 6 -3 -5q-6 -15 -27 -87q-349 92 -468 92q-36 0 -141 -169q-102 -161 -102 -215q0 -34 151 -158q181 -148 277 -261q155 -185 155 -365q0 -67 -45 -107q-47 -47 -173 -100q-123 -58 -196 -58h-662q-117 -157 -236 -410 q-129 -287 -200 -423q-56 0 -92 36q-41 41 -41 88q0 102 111 358l166 362l-63 47q-437 90 -605 108q-25 95 -29 88zM918 2083q17 -52 166 -162q147 -110 203 -110q83 0 184 272q-17 10 -159 10q-15 0 -79.5 -1.5t-114.5 -1.5q-177 -7 -200 -7zM1147 922q0 -56 28 -56h468 q47 0 159 70q121 67 133 104q-144 196 -306 321q-15 6 -40 18t-61.5 30t-67.5 33q-41 -24 -177 -247q-136 -225 -136 -273z" />
<glyph unicode="%" horiz-adv-x="3254" d="M7 22q0 106 398 450q35 29 124 104.5t188.5 159t200.5 168.5q30 26 229 162q736 499 1337 914q-27 22 -67 22q-317 0 -507.5 -18.5t-266.5 -59.5q-40 -19 -268 -140q-100 -36 -295 -36q-216 0 -355 144q0 13 -1.5 38t-1.5 36q0 496 464 496q341 0 454 -102 q20 -64 119 -196q142 0 615 41l281 29q223 0 223 -162q0 -87 -84 -155q-179 -142 -339 -257q-211 -119 -693 -429q-374 -241 -579 -394q-542 -392 -807 -704q-29 -41 -14 -92q-5 -3 -15.5 -13t-32 -30.5t-40.5 -38.5q-62 -62 -90 -62q-60 0 -117 40q-60 36 -60 85z M1073 2201q3 -2 110 -52q78 -32 111 -32q37 0 148 54q-85 84 -148 84q-22 0 -111 -28q-84 -26 -110 -26zM1721 180v326q0 40 101 102q18 10 38.5 22t48.5 29t44 27q57 44 189 126q403 169 490 169q215 0 406 -67q254 -94 254 -266q0 -279 -351 -448q-275 -141 -596 -141 q-14 0 -52 11t-52 11q-20 0 -47 -22q-34 -27 -45 -27q-35 0 -203 67q-62 21 -115.5 40.5t-80.5 29.5t-29 11zM1931 391q159 -126 359 -126q247 0 471 73q284 102 346 288q-164 126 -317 126q-592 0 -859 -361z" />
<glyph unicode="&#x26;" horiz-adv-x="2368" d="M140 482q0 224 155 414q65 81 328 303q268 225 335 313q-40 178 -40 356q0 390 155 686q65 127 338 313q276 182 407 182q450 0 450 -407q0 -284 -171 -534q-106 -151 -398 -409q-27 -23 -139.5 -118t-195.5 -166q-2 -1 -63 -7q-48 0 -48 -40v-67l320 -594 q-2 0 -3.5 -1.5t-3.5 -1.5q0 -9 12 -13t33 -2q28 0 306 218l338 265h81v-106q0 -65 -257 -274q-169 -144 -236.5 -203t-80.5 -76q48 -93 229 -178v-103q-29 -29 -115 -29t-188 81q-109 81 -115 81q19 0 -31 -30q-76 -48 -318 -169q-397 -195 -572 -195q-257 0 -384.5 127.5 t-127.5 383.5zM373 468q0 -265 302 -265q57 0 211 44q138 39 212 77q219 126 340 263q-68 59 -182 363q-94 249 -201 249q-143 0 -411 -292q-271 -296 -271 -439zM1109 1879q0 -97 56 -239h77q290 172 527 432q296 317 296 583q0 162 -177 162q-338 0 -565 -306 q-214 -286 -214 -632z" />
<glyph unicode="'" horiz-adv-x="471" d="M203 1879v148q0 5 2 19t6.5 41t9.5 56.5t13.5 79.5t15.5 95l16.5 88t27 147.5t30.5 169.5q17 85 77 126q9 -5 25 -16t37.5 -25.5t42.5 -28.5v-29q0 -209 -31 -478q-21 -194 -59 -293.5t-88 -99.5h-125z" />
<glyph unicode="(" horiz-adv-x="1602" d="M32 549q0 19 20 108l18 92q133 1023 897 2079q202 282 599 567h101q54 -33 54 -70q0 -33 -268 -317l-328 -346q-17 -18 -34 -38.5t-29.5 -37t-27.5 -38.5t-23.5 -34.5t-22 -36t-18.5 -31.5t-18.5 -32.5t-15.5 -28.5q-42 -140 -128 -302q-108 -204 -150.5 -283t-106 -201 t-93 -182.5t-46.5 -100.5q-151 -393 -151 -848q0 -808 326 -1199q-11 -56 -56 -106q-213 124 -327.5 317t-133.5 457q-38 502 -38 612z" />
<glyph unicode=")" horiz-adv-x="1256" d="M-162 -1010q161 185 225 299q12 24 302 493q179 283 251 524q192 695 192 1024q0 751 -192 1399q-104 241 -200 511v148h122q56 0 88 -96q5 -15 22 -61.5t27 -78.5q18 -33 103 -191q105 -205 185 -621q77 -432 77 -902q0 -606 -322 -1332q-5 -12 -15.5 -35.5t-31.5 -64.5 t-42.5 -83.5t-58.5 -114.5t-69 -134t-85 -164t-95 -183t-111 -214t-122 -234q-36 3 -250 3v108z" />
<glyph unicode="*" horiz-adv-x="1359" d="M70 2248q0 49 187 247q186 196 186 273q0 25 -115 103l-141 101v124q52 52 83 52q42 0 391 -232q55 95 99 229q52 160 81 235h77q70 -31 70 -180q0 -70 43 -97q251 186 315 186q42 0 114 -78v-81q-11 -2 -30.5 -12t-57.5 -32.5t-72.5 -44t-100.5 -62.5q-31 -29 -249 -211 q32 -26 102 -83.5t151.5 -125.5t160.5 -136q-26 -51 -56 -78t-55 -27q-46 0 -177 67q-137 70 -147 70q-99 0 -99 -126q0 -33 11 -95q-39 -93 -107 -222q-91 51 -108 193q-6 33 -25 229q-5 10 -11 10q-10 -5 -19 -14q-22 11 -44 11q-43 0 -80 -29.5t-74 -89.5 q-38 -61 -108 -184q-46 -30 -65 -30q-38 0 -81 48q-49 49 -49 92z" />
<glyph unicode="+" horiz-adv-x="1746" d="M63 873q38 117 144 133q11 4 209 4q183 0 263 129q25 41 88 324q43 190 196 211q7 -20 25 -52q22 -49 22 -74q0 -41 -43 -173q-49 -132 -49 -173q0 -126 162 -126q16 0 70 11t70 11q64 0 170 -11l169 -21q38 -22 101 -144q-135 -103 -270 -103q-36 0 -162 11 q-108 14 -159 14q-201 0 -218 -183q-16 -276 -126 -391h-127q0 13 0.5 38t2.5 72.5t4 87.5q1 27 2 57t2 50t1.5 39t1 32.5t0.5 21.5q0 98 -11 176q-191 -48 -295 -48q-128 0 -243 77z" />
<glyph unicode="," horiz-adv-x="865" d="M-232 -497q13 9 39 25q100 63 145.5 92t94.5 62.5t72 52.5q171 138 216 328q14 135 41 310h74q64 0 97 -70t33 -208q0 -211 -108 -342q-118 -106 -339 -284q-75 -17 -210 -99h-130q-13 36 -25 133z" />
<glyph unicode="-" horiz-adv-x="1555" d="M106 756q0 98 105 121q220 37 471 37q141 0 211 8q20 0 110 32q107 31 122 31q54 0 103 -96q48 -89 48 -147q0 -105 -93 -105q-25 0 -162 24q-127 21 -162 21q-241 0 -395 -25q-21 -4 -52.5 -10.5t-54 -10.5t-40.5 -6q-50 -10 -74 -18q-13 0 -13 -2q-1 -2 6 -2 q-31 0 -81 56q-49 61 -49 92z" />
<glyph unicode="." horiz-adv-x="880" d="M140 67q10 69 67 203q29 41 113 95q89 54 123 54q64 0 110 -68q55 -70 55 -133q0 -53 -106 -137q-112 -85 -171 -85q-53 0 -191 71z" />
<glyph unicode="/" horiz-adv-x="2516" d="M36 -299q0 25 45 112q52 95 56 128q180 152 360 442q50 79 299 494q28 71 151 298q4 8 326 407q223 278 228 427q149 117 364 417q188 261 302 479q-20 21 -70 15q13 25 166 162q82 77 354 298q78 -32 78 -129q0 -127 -486 -733q-6 -7 -35.5 -41.5t-59.5 -73t-60 -81.5 q-22 -33 -58 -90.5t-79.5 -125.5t-84.5 -130q-177 -207 -401 -513q-61 -76 -833 -1344q-143 -237 -270 -436q-46 -74 -141 -74q-58 0 -124 29q-4 9 -14 24q-13 19 -13 39z" />
<glyph unicode="0" d="M232 999q0 233 25 306q6 16 42 88q-22 89 -22 180q0 541 630 952q197 134 564 251q362 108 594 108q197 0 489 -126q185 -79 232 -204q119 -288 119 -914q0 -199 -27 -299q-136 -496 -736 -947q-533 -401 -1006 -401q-334 0 -612 291q-292 303 -292 715zM405 1080 q0 -423 252 -664q252 -236 581 -236q100 0 387 108q291 109 377 173q417 323 572 583q47 90 110 239q86 200 81 243l-22 656q-5 129 -144 284q-156 173 -228 200q-149 54 -337 54q-526 0 -947 -286q-175 -120 -254 -182q-160 -128 -214 -243h70q324 334 598 372 q-57 -72 -428 -428q-307 -301 -405 -556q-49 -143 -49 -317z" />
<glyph unicode="1" d="M1256 144l468 2279h105q50 -93 50 -196q0 -144 -39 -332q-11 -55 -73.5 -345t-110.5 -529q-70 -357 -142 -605t-150 -398q-21 7 -73 59q-40 46 -35 67z" />
<glyph unicode="2" d="M320 151v33q-5 89 35 140q47 71 297 266q348 268 783 641q100 89 244 228t400 391q408 408 531 686q-79 85 -173 85q-356 0 -1033 -306q-512 -229 -475 -229h-92q-56 39 -56 81q0 43 44.5 82.5t132.5 72.5q2 1 93 32t155 60q875 392 1274 392q145 0 243 -77 q98 -86 98 -204q0 -181 -211 -408q-41 -43 -335 -344q-646 -678 -1586 -1460q-10 -70 85 -92q154 -40 299 -30l1076 70q74 4 490 -36l34 25l25 -147q-43 -2 -227 -11t-333 -15q-158 -4 -597 -45l-306 -28q-19 0 -81 10q-55 15 -81 15q-23 0 -63 -25q-43 -22 -67 -22 q-122 0 -327 54q-209 55 -296 115z" />
<glyph unicode="3" d="M77 7q132 121 355 211q322 123 799 243q572 150 799 236q436 156 756 397q-37 100 -291 162q-212 56 -814 126q-444 45 -527 45q-16 0 -42 -12q-27 -11 -39 -11q-221 0 -510 122v103q65 56 101 67q45 8 96 25q180 39 298 74q254 75 641 273q483 241 483 366 q0 106 -173 106q-636 0 -1294 -173q-28 -6 -195 -74q-142 -56 -178 -56q-103 0 -103 103q0 144 816 277q681 106 1024 106q92 0 229 -88q151 -96 151 -176q0 -62 -54.5 -134.5t-169 -157t-282.5 -173.5q-224 -119 -673 -358q49 -43 468 -81q2 0 23 -4t68.5 -11t102.5 -14 q21 -3 97.5 -10t134.5 -15q886 -110 886 -421q0 -73 -185 -207q-161 -110 -261 -155q-529 -250 -1667 -522q-328 -81 -792 -295z" />
<glyph unicode="4" d="M376 1559q0 96 99 248q137 201 151 240q34 81 126 320q52 129 90.5 197t57.5 68q-11 0 6 -7q23 -8 71 -19q0 -16 15 -59q11 -49 11 -67q0 -108 -141 -419q-154 -336 -183 -436q264 -129 442 -129h600q190 0 263 52q104 72 136 310q10 65 96 259q21 47 81 190t99 233 q94 207 259 390h77q33 -21 33 -81q0 -20 -49 -81q-57 -67 -81 -126q-34 -73 -106 -306q-68 -221 -122 -345q-34 -45 -81 -137q-44 -148 -44 -306q0 -38 8 -110q-22 -18 -78 -74q-69 -202 -77 -228q-207 -602 -207 -875q0 -26 -11 -121q-14 -84 -14 -118q-19 -8 -126 -29 q-56 50 -56 254q0 35 12 133q1 10 18 133q18 182 114 486q63 181 63 211v109q-45 45 -114 45q-4 0 -147 -23q-182 -29 -432 -29q-255 0 -423 34q-165 39 -429 150q-7 21 -7 63z" />
<glyph unicode="5" d="M320 -32q39 97 144 145q109 38 422 137q1675 541 1675 774q0 156 -478 376q-339 160 -756 222q-242 41 -441 81q-22 5 -67 56q-28 34 -122 28q-29 29 -29 92q0 96 173 461q163 350 250 443q416 -47 826 -47q90 0 148 7q3 0 13 4t31.5 12.5t43.5 16.5q69 30 102 30h492 q10 -42 21 -133q-494 -144 -725 -144q-95 0 -347 25q-293 24 -346 24q-189 0 -274 -256q-4 -13 -41.5 -138.5t-67.5 -221.5l61 -52q280 -62 668 -159q445 -110 759 -291q362 -218 362 -490q0 -62 -200 -232q-197 -160 -268 -193q-277 -113 -509 -198q-16 -5 -81 -25 t-161.5 -50.5t-200.5 -64.5q-54 -17 -212.5 -71.5t-255.5 -86.5q-389 -134 -423 -134q-49 0 -186 53z" />
<glyph unicode="6" d="M218 837q0 44 25 117q29 91 34 115q29 171 78 321q248 738 1301 1416q128 88 317 128q7 2 44 6.5t123 15.5t175 23l52 -56q-5 -42 -52 -77q-400 -67 -891 -472q-435 -358 -693 -756q-73 -113 -200 -412l-5 -10t-9.5 -18.5t-15 -28.5t-19.5 -37q-36 -59 -36 -88v-275 l40 -42q27 0 45 42q20 94 110 162q119 87 435 183q467 148 992 148q426 0 640.5 -115.5t214.5 -345.5q0 -260 -326 -444.5t-979 -295.5q-275 -48 -387 -48q-196 0 -428 52q-185 41 -391 313q-194 270 -194 479zM563 513q239 -333 728 -333q274 0 837 167q161 50 383 177 q272 160 272 268q0 129 -292 207q-237 59 -401 59q-398 0 -859 -126q-614 -161 -668 -419z" />
<glyph unicode="7" d="M482 2340v130q132 81 834 108q258 4 830 50l383 34q30 2 53.5 -10t39.5 -35.5t24.5 -58.5t8.5 -81q0 -263 -425 -830q-579 -776 -795 -1105q-20 -29 -117 -176t-179 -267q-41 -75 -140 -121q-35 26 -95 26q-4 3 -18 25q-13 19 -13 41q0 58 256 409q91 124 316 439 q279 393 512 711q322 441 466 742q-39 63 -144 63q-9 0 -44 -3.5t-107 -10.5t-144 -13q-364 -40 -587 -40q-40 0 -81 4q-15 1 -30 2.5t-24 2.5t-16.5 1.5t-10.5 0.5q-31 0 -49 -4q-43 -38 -92 -38h-309z" />
<glyph unicode="8" d="M383 2146q0 122 74 228q50 58 169 173l134 -77q-34 -71 -126 -184q-67 -77 -67 -155q0 -166 211 -288q173 -102 320 -102h126q31 30 140 46q37 11 110 56q91 60 112 67q98 19 162 36q3 2 95 93q36 42 119 107q54 62 54 154q0 82 -95 162q-94 73 -177 89q-108 17 -147 30 q-15 7 -31 7q-44 0 -139 29q-88 34 -133 34q-110 6 -281 -59q-37 -15 -113 -38q-35 -15 -104 -59q10 54 0 185q-3 22 23.5 47t80.5 49q138 70 328 70q29 0 183 -11q184 -7 259 -7q35 0 51 -27q11 -17 147 -65q144 -49 186 -85q47 -31 99 -126t52 -147q0 -326 -171 -454 q-154 -143 -212 -194q62 -27 154 -27l17 -3l115 -15q191 -27 403 -193q243 -200 243 -437q0 -263 -306 -492q-19 -22 -119 -102q-80 -65 -236 -110q-112 -53 -486 -185q-137 -62 -243 -85q-233 -50 -401 -7q-213 54 -311 158q-96 112 -96 306q0 163 52 317l67 176 q21 21 63 108q56 103 117 173q6 7 17 19.5t19 21.5t17.5 20t19.5 20.5t19 17.5q19 24 66 42q18 4 60 52l-416 138q-274 145 -274 503zM734 580q0 -123 85 -197q49 -42 113 -52q104 -18 126 -21q136 -26 225 -26q235 0 483 132q92 49 274.5 151t274.5 151q70 39 162 126 q108 103 108 155q0 259 -351 387q-49 19 -94.5 36.5t-66 25t-23.5 8.5q-84 22 -203 22q-268 0 -697 -155q-48 -16 -129 -137q-16 -21 -58 -57q-28 -17 -70 -89q-5 -15 -45 -66q-31 -45 -52 -101q-15 -35 -33 -113q-29 -130 -29 -180z" />
<glyph unicode="9" d="M608 -56v159q312 258 656 554q378 330 572 655q-23 45 -70 45q-18 0 -29 -16q-10 -14 -31 -14q-464 0 -763 252q-100 84 -140 142q-54 73 -54 302q0 412 453 661q365 200 760 200q296 0 416 -87q151 -118 151 -457q0 -943 -1463 -2185q-287 -243 -310 -243h-119z M932 2034q0 -224 270 -367q220 -115 434 -115q51 0 130 27q95 38 126 43q44 5 147 56q115 77 198 288q81 198 81 419q0 191 -106 243q-65 34 -250 34q-288 0 -621 -151q-409 -188 -409 -477z" />
<glyph unicode=":" horiz-adv-x="802" d="M184 299q0 42 7 75t21.5 58t37 41.5t52 24.5t67.5 8q11 0 74 -13q48 -11 70 -11q0 -15 11 -77q14 -55 14 -77q0 -67 -63 -162q-62 -96 -117 -96q-38 0 -155 49q0 3 -0.5 11.5t-1.5 18t-2.5 26t-2.5 32.5q-12 85 -12 92zM218 1066q0 91 74 165q79 74 162 74q62 0 133 -45 q65 -41 65 -99q0 -63 -15 -77q-44 -64 -63 -110q-5 0 -13 -2.5t-25.5 -8t-29.5 -9.5q-62 -22 -70 -22h-3h-2h-2h-2h-2h-2h-2h-2h-2h-2h-3h-2h-2h-2h-2h-2h-2h-2h-2h-3h-2h-2h-2h-2h-2h-2h-2h-3h-2h-2h-2h-2h-2h-2h-2h-3h-2h-2h-2h-2h-2h-3h-2h-2h-2h-2h-2h-3h-2h-2h-9 q-7 16 -66 67q-36 31 -36 67z" />
<glyph unicode=";" horiz-adv-x="838" d="M-148 -502q445 278 524 594q0 20 7 232q0 27 14 41t39 11h144q41 -26 46 -88q4 -37 -3 -162q-22 -209 -103 -337q-31 -55 -92 -102q-5 -4 -17.5 -13l-25 -18t-30.5 -23.5t-35 -30.5q-8 -6 -136 -111q-67 -11 -209 -99h-105q-1 10 -7.5 44.5t-10.5 61.5zM302 1044 q0 79 74 142q80 63 166 63q176 0 176 -228q0 -180 -279 -180q-137 0 -137 203z" />
<glyph unicode="&#x3c;" horiz-adv-x="1513" d="M95 1136q0 80 358.5 425t1062.5 939q28 -11 66 -74q40 -57 40 -90q0 -3 -65.5 -64.5t-208.5 -190t-338 -301.5q-612 -547 -612 -623q0 -52 122 -180l166 -169q154 -209 435 -558q48 -31 155 -117v-126q-90 -52 -174 -52q-102 0 -254 225q-19 28 -86 131t-118 179 q-99 148 -352 379q-8 8 -55 53.5t-86 83.5q-56 56 -56 130z" />
<glyph unicode="=" horiz-adv-x="2066" d="M52 1283q43 152 148 152q23 0 272 -17l678 -54q250 -18 335 -18q16 0 70 32.5t81 32.5q28 0 112 -43q28 -14 56 -28.5t42 -22t19 -8.5q15 -30 56 -89q-28 -84 -310 -84q-131 0 -590 11q-98 2 -206.5 5t-172 4.5t-121.5 3t-89 1.5q-126 0 -329 52zM77 490v199 q147 78 332 78q65 0 464 -18q514 -28 787 -60q238 -33 352 -136v-107q-10 -7 -43 -32t-56 -41l-52 39q-75 14 -666 52q-30 2 -78.5 8t-149.5 19.5t-168 21.5q-226 36 -394 36q-258 0 -328 -59z" />
<glyph unicode="&#x3e;" horiz-adv-x="1551" d="M11 49q0 83 56 147q8 8 73 69.5t207.5 195.5t300.5 281q246 227 370.5 352t124.5 144q0 31 -180 222l-221 225q-179 240 -292 383l-214 218q-177 176 -177 202q0 39 44 77q53 41 93 41q101 0 232 -158q14 -17 76.5 -98.5t111.5 -140.5q194 -243 309 -359q5 -4 321 -309 q86 -83 149 -147.5t92 -99t29 -41.5q0 -70 -222 -240q-55 -41 -161 -120t-130 -97q-16 -17 -62 -66.5t-94.5 -102t-129.5 -138t-164 -172.5q-54 -62 -261 -281q-35 -34 -35 -113l-32 21h-184q-30 26 -30 105z" />
<glyph unicode="?" horiz-adv-x="2646" d="M176 2596q0 143 555 338q435 155 704 200q132 24 522 99q284 56 302 56q580 0 580 -472q0 -322 -236 -580q-203 -214 -535 -376q-39 -19 -141.5 -67.5t-215 -103t-226.5 -111.5q-268 -129 -356 -229q-37 -86 -63 -137q-218 -429 -366 -583q-106 75 -106 162q0 66 43 236 q48 187 78 245q74 156 277 316q35 30 408 191q1206 522 1206 1037q0 243 -288 243q-427 0 -1054 -155q-689 -168 -958 -398h-103q-27 116 -27 89zM225 22q0 61 40 118q42 67 86 67q14 0 81 -23q62 -22 81 -22q64 0 232 67q54 -68 54 -180q-111 -66 -475 -189q-99 88 -99 162 z" />
<glyph unicode="@" horiz-adv-x="3173" d="M106 781q0 252 126 429q98 129 342 295q87 69 259 173q493 190 789 190q19 0 196 -18q61 -8 126 -14.5t68 -6.5q321 -6 643 -204q367 -219 367 -520q0 -221 -264 -416q-235 -166 -479 -203q3 -14 3 -36q0 -167 -235 -239q-6 -1 -54 -9.5t-135.5 -22.5t-187.5 -28 q-9 -1 -35.5 -7.5l-79.5 -19.5t-102 -25q-144 -32 -204 -32h-144q-400 0 -669 151q-330 187 -330 563zM335 796q0 -260 365 -377q240 -77 576 -77q3 0 177 34q44 8 145.5 28t181 34.5t155.5 25.5q-87 113 -191 292q-394 -158 -632 -158q-249 0 -372.5 77.5t-123.5 235.5 q0 169 159.5 278.5t477.5 156.5q4 0 31.5 5t94.5 18t133 24q192 38 236 38q36 0 198 -31q141 -26 182 -46q10 -6 84 -74v-16q0 -73 -81 -261.5t-81 -199.5q0 8 4 -4q4 -13 21 -84q84 -23 84 -25q0 -1 -3 -1q49 0 285 99q238 98 299 141q73 46 73 165q0 223 -351 373 q-296 126 -549 126q-278 0 -822 -104q-127 -23 -310 -135q-182 -112 -295 -225q-151 -163 -151 -333zM869 907q78 -77 162 -77q235 0 548 99q76 21 172 84q117 79 134 134q-95 19 -116 21q-97 7 -261 7l-126 -21q-189 -31 -288 -67q-173 -63 -225 -180z" />
<glyph unicode="A" horiz-adv-x="2790" d="M155 -74q0 60 9.5 123.5t22.5 116t39.5 119t46 110.5t57 114.5t58 106.5t62.5 109q28 64 62 152t66 176.5t64.5 178t68 179.5t67.5 159q389 852 752 1465v-56q91 38 130 214q39 159 120 159q4 3 18 3q17 0 32 -9.5t27.5 -28.5t21.5 -46q12 -24 52 -211 q191 -822 344 -1611q20 -113 106 -560q33 -67 99 -232q25 -72 85 -347q32 -133 47.5 -222.5t15.5 -128.5q0 -64 -40 -94.5t-122 -30.5q-70 0 -85 8q-604 615 -1175 615q-130 0 -531 -99q-120 -32 -221 -218q-33 -65 -126 -302q-39 -31 -117 -67q-56 56 -56 155zM686 700 q0 -30 7.5 -44t21.5 -12l505 24q33 2 65 2q258 0 495 -99q183 -73 499 -297v106q0 61 -105 615l-172 936q-88 451 -261 908q-229 -245 -620 -1161q-3 -10 -44 -105t-74 -176q-68 -98 -78 -114q-25 -40 -133 -295q-106 -243 -106 -288z" />
<glyph unicode="B" horiz-adv-x="3159" d="M88 2410q0 114 306 263q150 70 882 356q94 53 254 101q339 103 560 103q284 0 498 -110q276 -132 276 -387q0 -305 -416 -675q-247 -219 -675 -495q-235 -155 -436 -310q22 -21 274 -21q1485 0 1485 -454q0 -241 -560 -516q-96 -47 -232 -125q-63 -43 -225 -95 q-23 -8 -58 -20t-87.5 -29.5t-93.5 -31.5l-557 -266q-237 -79 -561 -204q-332 -127 -457 -356q-68 31 -100 65t-32 75q0 302 715 546q23 8 59 20t95.5 32t106.5 36q121 81 547 236q404 146 616 246q348 165 563 358q18 45 29 81q-122 86 -247 125q-33 8 -272 34 q-644 66 -871 66q-16 0 -59 -10q-51 -13 -54 -13q-287 0 -531 97v74q0 38 32 70l2 1l2 1l2 1l2 1l2 1l2 2l2 1l2 1l2 1l2 1l2 1l2 1l2 1l2 1l2 1l2 1l2 1l2 1l2 1l2 1l2 1l2 1l2 2l2 1l2 1l2 1l2 1l2 1l2 1l2 1l2 1l2 1l2 1l2 1l2 1l2 1l2 1l2 1l2 2l2 1l2 1l2 1l2 1l2 1 l2 1l2 1l2 1l2 1l2 1l2 1l2 1l2 1l2 1l2 2l2 1l2 1l2 1l2 1l2 1l2 1l2 1l2 1l2 1l2 1l2 1l2 1l2 2l2 1l2 1l2 1l2 1l2 1l2 1l2 1l2 1l2 1l2 1l2 1l2 1l2 2l2 1l2 1l2 1l2 1l2 1l2 1l2 1l2 1l2 1l2 1l2 1l2 1l2 2l2 1l2 1l2 1l2 1l2 1l2 1l2 1l2 1l2 1l2 1l2 2l2 1l2 1l2 1 l2 1l2 1l2 1l2 1l2 1l2 1l2 1l2 2l2 1l2 1l2 1l2 1l2 1l2 1l2 1l2 1l2 1l2 1l2 2l2 1l2 1l2 1l2 1l2 1l2 1l2 1l2 1l2 1l2 2l2 1l2 1l2 1l2 1l2 1l2 1l2 1l2 1l2 1l2 2l2 1l2 1l2 1l2 1l2 1l2 1l2 1l2 1l2 1l2 2l2 1l2 1l2 1l2 1l2 1l2 1l2 1l2 1l2 2l2 1l2 1l2 1l2 1l2 1 l2 1l2 1l2 1l2 2l2 1l2 1l2 1l2 1l2 1l2 1l2 1l2 2l2 1l2 1l2 1l2 1l2 1l2 1l2 1l2 1l2 2l2 1l2 1l2 1l2 1l2 1l2 1l2 1l2 2l2 1l2 1l2 1l2 1l2 1l2 1l2 1l2 2l2 1l2 1l2 1l2 1l2 1l2 1l2 2l2 1l2 1l2 1l2 1l2 1l2 1l2 1l2 2l2 1l2 1l2 1l2 1l2 1l2 1l2 2l2 1l2 1l2 1l2 1 l2 1l2 1l2 2l2 1l2 1l2 1l2 1l2 1l2 1l2 2l2 1l2 1l2 1l2 1l2 1l2 1l2 2l2 1l2 1l2 1l2 1l2 1l2 1l2 2l2 1l2 1l2 1l2 1l2 1l2 2l2 1l2 1l2 1l2 1l2 1l2 1l2 2l2 1l2 1l2 1l2 1l2 1l2 2l2 1l2 1l2 1l2 1l2 1l2 2l2 1l2 1l2 1l2 1l2 1l2 2l2 1l2 1l2 1l2 1l2 1l2 2l2 1l2 1 l2 1l2 1l2 1l2 2l2 1l2 1l2 1l2 1l2 2l2 1l2 1l2 1l2 1l2 1l2 2l2 1l2 1l2 1l2 1l2 2l2 1l2 1l2 1l2 1l2 1l2 2l2 1l2 1l2 1l2 1l2 2l2 1l2 1l2 1l2 1l2 2l2 1l2 1l2 1l2 1l2 1l2 2l2 1l2 1l2 1l2 1l2 2l2 1l2 1l2 1l2 1l2 2l2 1l2 1l2 1l2 2l2 1l2 1l2 1l2 1l2 2l2 1l2 1 l2 1l2 1l2 2l2 1l2 1l2 1l2 1l2 2l2 1l2 1l2 1l2 2l2 1l2 1l2 1l2 1l2 2l2 1l2 1l2 1l2 1l2 2l2 1l2 1l2 1l2 2l2 1l2 1l2 1l2 2l2 1l2 1l2 1l2 1l2 2l2 1l2 1l2 1l2 2l2 1l2 1l2 1l2 2l2 1l2 1l2 1l2 2l2 1l2 1l2 1l2 2l2 1l2 1l2 1l2 1l2 2l2 1l2 1l2 1l2 2l2 1l2 1l2 2 l2 1l2 1l2 1l2 2l2 1l2 1l2 1l2 2l2 1l2 1l2 1l2 2q925 584 925 926q0 174 -221 263q-157 61 -369 61q-48 0 -218 -43q-170 -49 -222 -49q-19 0 -35.5 11t-34.5 11q-32 0 -43 -11q-4 -5 -9 -12.5t-7 -10t-4 -2.5q-27 -14 -268 -74q-524 -130 -718 -390q-49 -82 -49 -377 q0 -73 15 -246q2 -50 6 -109t6 -91t2 -50q0 -494 119 -1133q0 -12 47 -162q4 -16 11.5 -40t11 -36.5t7.5 -27t5.5 -23t1.5 -13.5q0 -40 -45 -85q-47 -41 -84 -41q-88 0 -110 144q-2 11 -5 36.5t-8.5 75.5t-11.5 99q-55 272 -78 446q-32 195 -59 1449q-6 25 -27 61 q-16 -21 -70 -21q-53 0 -78 25t-25 77z" />
<glyph unicode="C" horiz-adv-x="3445" d="M137 1327q0 505 497 910q306 250 945 542q64 30 136 64.5l120 57.5t98 46.5t83 38.5q246 110 468 110q36 0 101 -7q-5 -59 -49 -103q-490 -198 -538 -214q-227 -79 -277 -95q-36 -44 -88 -96l-350 -178q-665 -341 -840 -781q-18 -36 -60 -187q-36 -137 -36 -162 q0 -332 276 -612q235 -241 545 -337q192 -63 619 -63q81 0 476 45l900 92l27 -133q-120 -49 -330 -99q-19 -4 -57.5 -16t-59.5 -17l-351 -101q-52 -15 -446 -43q-375 -18 -497 -18q-288 0 -405 65q-641 358 -830 779q-77 177 -77 512z" />
<glyph unicode="D" horiz-adv-x="3391" d="M-277 2624q0 120 164 213t489 156q469 96 877 96q1200 0 1928 -542q108 -85 225 -272q133 -206 133 -322q0 -256 -173 -434q-131 -136 -362 -281q-284 -168 -394 -235q-224 -147 -439 -258q-5 -2 -612 -329q-60 -29 -243 -132q-27 -27 -70 -81q-206 -42 -675 -399h-99 q-56 50 -56 129q0 56 102.5 140t304.5 192q295 147 527 270q25 12 130.5 74t193.5 109q675 366 1294 731q133 85 240 232q124 161 124 299q0 28 -99 191q-210 358 -918 558q-557 155 -1109 155q-4 0 -48.5 -3t-151 -9t-221.5 -12q-40 -257 -114 -898q-45 -397 -45 -454v-631 q0 -40 38 -62q11 -83 11 -174l-4 -159q-14 -28 -66 -28q-103 0 -151 309q-38 240 -38 394q0 206 66 827q73 677 123 752v58q-15 19 -34 19q-152 0 -391 -73q-306 -90 -306 -189q0 -37 56 -71v-84q-207 98 -207 228z" />
<glyph unicode="E" horiz-adv-x="2910" d="M137 328q0 63 47 383q27 208 108 734q-60 47 -60 144v58q4 32 4 63q66 20 115.5 165t75.5 361.5t34 486.5q-25 12 -48 8.5t-56 -9.5t-64 -11q-12 -2 -25 -2q-22 0 -48 5q-42 8 -80 33v155q42 69 152 81q158 10 180 18q23 7 81 70q63 63 95 63q14 0 90 -31q65 -29 95 -29 q14 2 95.5 10.5t185.5 18.5t220 20q209 22 851 70q60 12 137 40q28 8 61 18.5t47.5 15t21.5 4.5q15 0 113 -13q94 -11 108 -11q99 -7 419 -7l27 -74q-74 -26 -189 -110q-36 4 -120 4q-311 0 -1008 -112l-416 -64q-28 0 -133 10q-46 6 -79 8q-8 0 -16 1l-50 -3 q-33 -4 -57 -10t-73 -17t-92 -20q-37 -7 -50.5 -10t-39.5 -9.5t-36 -11t-24.5 -12.5t-22 -17t-13.5 -21q-48 -100 -88 -423q-32 -232 -32 -400q0 -22 39 -124q330 51 447 51h1035v-159q-100 -11 -272 -11q-126 0 -263 4q-133 4 -257 4q-169 0 -416 -103q-7 -1 -27.5 -5.5 t-45.5 -10.5t-67.5 -15t-84.5 -18q-147 -27 -193 -117q-84 -747 -84 -1047q64 -82 129 -92l288 -63q109 0 313 18q402 34 906 34q88 0 207 -7l88 -4q59 -15 59 -55v-92q-110 -49 -415 -49q-59 0 -148 -32q-88 -34 -97 -34q-42 0 -155 14q-12 2 -31 4.5t-29.5 4t-25 3.5 t-23.5 3t-19 1.5t-17 0.5t-13 -1h-29q-127 -11 -475 -59q-207 -25 -247 -25q-102 0 -302 124q-218 139 -218 236z" />
<glyph unicode="F" horiz-adv-x="2871" d="M95 1235q0 27 11 59q16 16 33 33.5t23 23.5t7 6q34 29 108 51q54 99 96 347q73 415 91 486q85 290 225 425q51 -25 152 -126q-150 -307 -197 -648q-18 -140 -50 -310l63 -41l1823 372q1 0 59 -35t100 -60v-85q-95 -48 -465 -81q6 -19 -7 -30t-43 -11q-25 0 -63 14 q-49 11 -67 11q-126 0 -151 4h33q115 0 115 -11q-16 -8 -67 -18q-33 -8 -207 -29q-36 -4 -169 -63q-20 -8 -48 -19.5t-41.5 -17t-29 -11.5t-24 -8.5t-12.5 -2.5q-28 -6 -74.5 -15.5t-93.5 -18t-125 -23.5t-146 -28q-127 -31 -320 -140q-45 -25 -92 -155q-16 -41 -31.5 -71 t-28 -45t-21.5 -17q7 -29 7 -99q0 -61 -32 -288q-38 -222 -38 -286q0 -153 59 -249q-99 -99 -273 -99q-51 41 -51 115q0 54 22 209l63 502q29 242 29 251v106q-36 18 -96 38q-56 27 -56 88zM119 2635q0 138 194 200q262 77 668 207q82 25 342 36q307 11 380 25q84 40 207 78 q136 17 285 17q30 0 60 -1q141 -3 227 -3t117 3q45 39 78 39q20 0 55 -25q38 -21 58 -21q14 0 63 10q43 11 63 11q96 0 122 -88l40 -133q-192 -78 -239 -78q-16 0 -78 22q-67 27 -74 27q-49 0 -192 11q-149 11 -191 11q-19 0 -439 -53q-557 -73 -830 -117 q-148 -23 -310 -108q-6 -2 -33 -16.5t-48 -22.5q-42 0 -117 -15q-12 -4 -136 -90q-94 -66 -137 -66q-40 0 -88 48q-47 47 -47 92z" />
<glyph unicode="G" horiz-adv-x="3954" d="M110 947v41v3v3v2v3v3v3v3v3v4v9q0 143 70 281l137 265q3 10 3 45q0 41 -14 70q21 20 164.5 166.5t260 253.5t250.5 213l412 314q279 214 436 239q44 44 92 77q10 6 91 38q90 54 193 106q357 175 778 175q55 0 140 -74q81 -70 81 -126q0 -55 -22 -80.5t-70 -25.5 q-30 0 -74 29q-48 32 -59 32q-49 16 -155 16q-43 0 -92 -3q-29 0 -59 -3t-31 -3q-152 0 -795 -378q-583 -342 -778 -516q-274 -261 -390 -391q-20 -19 -42 -137q-115 -44 -191 -189q-13 -103 -14 -113q-30 -53 -56 -119q-7 -29 -7 -183q0 -27 -3.5 -56t-3.5 -54 q0 -92 113 -222q98 -114 193 -165q384 -218 486 -218q2 0 84 7q68 11 81 11q39 0 166 -32q134 -35 162 -35q47 0 160 15q122 11 159 11q233 0 685 100q205 84 328 125q18 6 209.5 68.5t335.5 112.5q192 71 288 155t96 177q0 295 -1140 295q-362 0 -509 -78 q-46 -25 -117 -158h-77q-78 53 -78 106q0 -1 2 2t6 12.5t9 22.5t13 34t17 43t22 54t27 64q114 67 361 67q175 0 362 7q281 11 364 11q17 0 63 -25q48 -22 77 -22q15 0 52.5 11t53.5 11q95 0 303 -78q213 -79 281 -133q70 -65 70 -257q0 -331 -844 -630q-79 -23 -236 -85 q-76 -76 -218 -97q-822 -151 -1242 -151q-65 0 -281 27q-221 21 -282 21q-12 0 -101 49q-77 47 -114 54q-156 103 -516 418q-51 64 -117 282q-9 54 -9 67z" />
<glyph unicode="H" horiz-adv-x="2934" d="M162 126q45 287 45 851q0 7 5 31.5t16.5 81t21.5 112.5q137 647 225 926q136 278 162 334h108q22 -86 27 -86h1q1 1 1 5q0 -22 -74 -183q-74 -169 -88 -218q-122 -462 -122 -626q0 -90 63 -90q76 0 250 34q155 32 259 39q330 20 556 20q58 0 258 -11q56 -1 114 -3.5 t92 -4t49 -1.5q19 0 42.5 2.5t61.5 7t62 7.5q31 2 71.5 6t62.5 6t35 2q56 33 88 320q47 366 101 549q99 319 306 436h103q21 -93 27 -93l1 1q0 -18 -99 -122q-101 -107 -106 -130q-89 -227 -167 -740q-74 -503 -74 -766q0 -57 -40 -108q0 -79 -52 -465q-18 -165 -18 -187 t60 -218q-53 -15 -134 -29q-95 196 -95 283q0 68 29 373q18 167 66 752h-295q-48 0 -243 -38q-222 -36 -250 -36q-4 0 -41.5 2t-70.5 2h-113q-183 0 -266 -11q-40 -5 -152 -45q-94 -32 -151 -32q-55 0 -95 28q-49 -32 -148 -54l-151 -37q-67 -54 -67 -191q0 -6 1.5 -20 t4 -37.5t3.5 -47.5q2 -22 4 -47t3 -39t1 -20q0 -138 -116 -479h-55q-26 -3 -47 -3q-20 0 -56 7z" />
<glyph unicode="I" horiz-adv-x="655" d="M119 549q0 74 47 495q68 609 144 995q89 434 232 733h81q56 -45 56 -117q-7 -26 -22 -93t-45.5 -201t-58.5 -257q-252 -1112 -252 -1943q0 -50 1 -98q-26 -4 -59 -31q-124 146 -124 517z" />
<glyph unicode="J" horiz-adv-x="3294" d="M99 738v106q51 5 104 52q375 -255 902 -457q581 -221 974 -221q383 0 545 162q166 166 204 578q29 342 29 689q0 102 -11 439q-11 343 -11 436q0 65 59 129q39 0 65.5 -21.5t37.5 -60.5q0 -13 22 -283q55 -703 55 -841q0 -874 -268 -1220q-63 -84 -351 -158 q-252 -63 -398 -63q-315 0 -1022 266q-698 258 -936 468z" />
<glyph unicode="K" horiz-adv-x="3078" d="M67 77q0 24 55 476q44 341 139 943q3 24 74 576q49 337 137 560q55 -11 83 -49t28 -99v-36l-284 -2430q-27 -32 -103 -32q-129 0 -129 91zM464 1003q0 25 472 432q514 438 542 471q29 46 92 124q11 11 109.5 100.5t185.5 169.5q199 185 369 321q216 179 401 266 q21 -21 56 -27v-131q-137 -80 -284 -196q-247 -200 -637 -573.5t-996 -982.5q353 -251 974 -372q71 -12 785 -196q23 -8 72 -19.5t121 -29t141 -36.5q17 -4 200 -140q-38 -85 -102 -85q-32 0 -148 49q-28 10 -59.5 22t-49 18.5t-32.5 12t-21 6.5q-103 30 -302 47 q-207 18 -306 38q-198 49 -706 165q-174 35 -500 211q-377 200 -377 335z" />
<glyph unicode="L" horiz-adv-x="2719" d="M95 239q182 579 274 947q311 1259 475 1741l78 34q56 -109 56 -135q0 -3 -1 -5l-601 -2385q22 -155 342 -155q77 0 322 25q222 25 314 25l138 -7q51 0 256 11q227 7 257 7q250 0 852 -117l21 -112q-5 -1 -23 -1q-79 0 -403 21q-87 6 -173.5 13.5t-121 10.5t-37.5 1 l-1202 -84h-56q-360 0 -497 29q-98 16 -270 136z" />
<glyph unicode="M" horiz-adv-x="4201" d="M4 -18v155l1854 2606h84q52 -86 52 -140q0 -24 -48 -229q-26 -110 -88 -417q-32 -165 -103 -848q-41 -417 -41 -438q16 -32 37 -108q175 131 357 366q178 233 318 405q343 423 936 1069q486 519 1032 995q108 -69 108 -172q0 -53 -524 -1439q-74 -191 -196 -622 q-126 -461 -132 -623q-75 -126 -163 -450q-110 43 -110 137q0 339 538 1994q23 78 173 535v81q-381 -233 -630 -576q-101 -145 -299 -360q-278 -303 -317 -351q-173 -200 -493 -609q-81 -104 -157 -199t-115 -143.5t-47 -58.5q-248 -281 -378 -281h-147v410q1 13 5 44.5 t9 72t11.5 92.5t16 122t19.5 145l122 946l-32 42l-1564 -2176z" />
<glyph unicode="N" horiz-adv-x="3384" d="M335 288q-6 22 281 999q86 293 327 1120l88 -4q288 -333 753 -1253q265 -524 446 -752q16 5 45 -18q418 576 767 2050q59 252 113 508q8 39 45 203q13 44 74 81q95 -51 114 -106q6 -22 6 -60q0 -191 -158 -797q-137 -534 -253 -887q-93 -293 -314 -785 q-167 -392 -410 -558q-45 25 -88 56q-2 3 -57 107t-183 348.5t-275 525.5q-322 602 -608 946l-558 -1902q-36 30 -110 30z" />
<glyph unicode="O" horiz-adv-x="4050" d="M133 722q0 264 191 569q177 280 398 446q109 90 299 293q179 196 313 278q138 87 594 196q430 95 626 95q492 0 915 -182q549 -230 549 -648q0 -70 -71 -273q-61 -172 -109 -272q-215 -430 -690 -749q-270 -185 -862 -365q-574 -180 -911 -180h-246q-316 0 -643 239 q-353 259 -353 553zM320 796q0 -188 274 -423q269 -225 479 -225q3 0 7.5 0.5t13 2.5t15.5 4q8 0 15.5 1t12.5 1.5t6 0.5q20 0 74 -21q69 -18 77 -18q34 0 324 36q261 34 425 63q5 2 43 20t73 32t75 25q561 167 974 468q518 379 633 841q34 143 40 143l1 -1l1 -2 q0 144 -87 236q-390 401 -840 401q-3 0 -8.5 -0.5t-12 -1.5t-17.5 -2.5t-20 -2.5q-19 0 -39 -2l-20 -1q-18 0 -67 21.5t-63 21.5t-113 -18q-21 -3 -48 -7t-41.5 -6t-22.5 -2q-197 0 -634 -102q-148 -35 -221 -56q-137 -48 -176 -119l-38 -117q-55 -38 -127.5 -89t-109.5 -77 t-77.5 -54.5t-61 -43.5t-29.5 -24q-204 -177 -288 -394q0 -3 -2 -22.5t-7 -64.5t-9 -93q-11 -112 -88 -144q-70 97 -96 214q-200 -332 -200 -399z" />
<glyph unicode="P" horiz-adv-x="3114" d="M144 2581q0 116 236 279q201 139 354 182q1004 313 1514 313q474 0 760 -248q281 -243 281 -666q0 -14 -45 -141q-45 -124 -54 -144q-49 -77 -125.5 -149.5t-188.5 -143t-252 -130.5q-199 -89 -586 -248t-445 -184q-228 -58 -439 -129q-196 -74 -497 -265 q-31 -243 -45 -432q-30 -372 -63 -655q-55 -74 -140 -74q16 0 -6 7q-19 5 -75 18v123q0 156 30 349q23 69 33 92q28 74 28 104q0 104 -36 209q-22 -75 -91 -95q-78 48 -78 162q0 11 133 196q137 187 159 261q19 57 61 336q61 373 119 616q104 417 254 538l104 -77v-81 q-96 -74 -133 -267q-20 -94 -60 -306q-4 -30 -73 -235q-4 -11 -11 -32q-14 -43 -20.5 -63.5t-14.5 -46.5t-11 -40t-3 -22v-228q15 -15 31 -15q89 0 243 63q190 70 246 88q821 213 1284 492q403 244 482 324q99 99 99 268q0 299 -264 499q-242 183 -553 183q-260 0 -572 -59 q-405 -71 -796 -213q-283 -104 -439.5 -218.5t-183.5 -234.5l-48 -34q-103 86 -103 174z" />
<glyph unicode="Q" horiz-adv-x="4179" d="M77 1172q0 602 416 664q340 412 1026 619q558 162 1210 162q186 0 552 -126q205 -74 309 -150t104 -150q0 -13 37 -56q28 -36 40 -60q14 -33 49 -196q28 -137 28 -198q0 -228 -190 -560q-169 -301 -362 -484q49 -95 408 -306q390 -220 492 -338q-20 -20 -27 -56 q-13 0 -78 -14q-16 -3 -37.5 -7t-33.5 -6t-20 -2q-10 0 -414 227q-47 27 -72 41q-473 267 -499 267q-15 0 -437 -182q-609 -257 -971 -257q-522 0 -999 316q-531 354 -531 852zM239 1238q0 -24 53 -183q106 -312 482 -553q373 -245 727 -245h279q145 0 380 90q38 13 90 32.5 t142.5 54.5t143.5 56q81 27 151 52q43 36 53 102l-119 87q-88 67 -88 95q0 60 36 124h86q14 0 187 -91.5t196 -91.5q97 0 202 93.5t225 282.5q225 365 225 560q0 301 -218 502q-203 187 -520 187h-40q-33 0 -162 34q-129 29 -151 29q-325 0 -686 -77q-568 -124 -925 -351 q-342 -216 -464 -549q-16 -47 -27 -180q-6 -131 -11 -148q-15 -60 -54 -60q-6 0 -13 1q-102 92 -102 232q0 31 3 63q4 29 4 59q0 26 -4 36q0 -19 -39 -124q-42 -103 -42 -119z" />
<glyph unicode="R" horiz-adv-x="3040" d="M184 416q0 51 66 477q104 657 169 947q31 153 141 500q46 52 88 155l112 -25v-103q0 -39 -81 -295q-85 -290 -96 -351q-107 -606 -129 -1363q-21 -101 -49 -329q-4 -5 -169 -99q-52 357 -52 486zM369 2500q0 192 299 357q189 105 479 203q383 133 597 133q445 0 652 -151 q54 -32 158 -236q105 -198 105 -263q0 -315 -355 -707q-268 -298 -623 -538q-23 -17 -254 -148q-5 -3 -71 -16t-144 -28t-155.5 -37t-102.5 -41q11 -31 89.5 -59t166.5 -45t196 -36.5t146 -28.5q27 -7 138.5 -34t194.5 -47q359 -95 1373 -416q-50 -108 -139 -108 q-70 0 -325 66q-75 19 -170 43.5t-154 39.5t-122.5 31t-109.5 27t-82 18q-264 53 -671 151q-6 1 -98 14t-181.5 28t-191 44t-148.5 62q-209 147 -209 217q0 138 146 204q18 7 82.5 22t147.5 34t172 41.5t173.5 51t133.5 56.5q231 135 560 475q354 376 354 605 q0 340 -266 446q-138 53 -553 53q-165 0 -295 -35q-34 -8 -72.5 -18.5t-90 -25t-73.5 -20.5q-161 -41 -460 -267q-75 -101 -191 -236q-56 51 -56 119z" />
<glyph unicode="S" horiz-adv-x="2863" d="M203 2275q0 124 81 177q10 9 202 63q1063 313 1604 313h63q331 0 457 -148q-19 -23 -25 -56q-324 45 -355 45q-183 0 -678 -91q-477 -95 -848 -197q-166 -42 -268 -122q106 -182 401 -324q4 -2 61 -26.5t176.5 -76t255.5 -108.5l369 -102q1235 -342 1235 -645 q0 -92 -176 -217q-146 -102 -270 -144q-152 -47 -1154 -269q-806 -184 -1042 -383q-38 5 -85 47v111q206 158 401 225q216 80 648 180l657 155q113 29 314 88q194 64 298 123q19 9 107 102q-53 97 -188 166q-118 53 -243 88q-30 10 -178.5 53t-271.5 80 q-775 239 -1161.5 461t-386.5 432z" />
<glyph unicode="T" horiz-adv-x="4060" d="M56 2315v108l95 61q277 47 605 77q715 74 841 85q581 59 1171 59h602q45 0 302 24q238 21 302 21q230 0 380 -73v-85l-1906 -97q-387 -22 -425 -155q-39 -165 -77 -401q-71 -418 -121 -891q-21 -189 -59 -632q-19 -168 -36 -272q-6 -22 -112 -122h-133q32 130 70 583 q29 344 108 896q36 352 135 925q-28 0 -89.5 2t-97.5 2q-134 0 -289 -13t-275.5 -29.5t-274.5 -35t-266 -26.5q-44 -8 -175 -44q-132 -41 -176 -41q-48 0 -99 74z" />
<glyph unicode="U" horiz-adv-x="3754" d="M95 1393q0 257 105 549q127 349 306 436q82 39 128 39q30 0 30 -57q0 5 -17 -27t-54 -105.5t-88 -178.5t-125 -258q-74 -150 -74 -419q0 -393 302 -760q314 -394 693 -394h99q393 0 859 225q458 223 734 507q193 199 324 461q17 32 33.5 64.5t37.5 78t31 67t37.5 84 t33.5 75.5q74 241 74 495q0 224 -110 261q-3 11 -3 38q0 131 84 131q16 0 38 -10q155 -55 155 -443q0 -117 -155 -663q-81 -276 -241 -513q-311 -451 -891 -770q-591 -324 -1107 -324q-206 0 -483 155q-252 142 -401 313q-35 42 -130 211q-26 22 -81 91q0 5 -28 99 q-116 368 -116 542z" />
<glyph unicode="V" horiz-adv-x="3306" d="M140 1962q0 28 15 88q11 68 11 81q14 4 133 25q37 -111 243 -748q114 -256 169 -391q10 -25 36.5 -93.5t61 -155t71.5 -178.5q73 -121 108 -174q101 -155 124 -155q121 0 728 889q472 691 1643 2185q59 -36 59 -91q0 -36 -186 -321.5t-569.5 -836.5t-943.5 -1334 q-153 -219 -291 -394q-222 -277 -328 -344q-38 -28 -243 -28q-226 366 -418 748q-30 63 -235 627q-188 527 -188 601z" />
<glyph unicode="W" horiz-adv-x="4971" d="M77 2367q6 18 56 166q193 -164 364 -774q1 -4 31 -96.5t52 -170.5q6 -94 36 -246q6 -15 24 -53.5t37 -81.5t38 -87q9 -33 37 -146t51 -196q68 -263 140 -263q102 0 623 886q473 810 601 1087q3 -2 13.5 -11t17 -14.5t17.5 -14t23 -16t25 -14.5q132 -225 252 -725 q17 -67 42 -176t60 -259.5t67 -281.5q102 -406 236 -684q28 0 91 74q29 32 87.5 100.5t91.5 104.5q133 140 271 321q256 334 1836 2374l33 -103q-41 -40 -58 -162q-338 -419 -929 -1290q-624 -910 -941 -1287q-115 -145 -367 -423q-36 -42 -126 -42q-2 0 -19 2t-30 2h-47 q-160 329 -329 1010q-160 685 -313 1018q-84 -109 -722 -1132q-2 -8 -3.5 -19.5t-5 -30t-5.5 -34.5q-35 -97 -218 -332q-98 -126 -165 -192.5t-94 -66.5l-62 -9q-17 -3 -60 -8h-1l-1 -1h-1h-1h-1h-1h-1h-1l-1 -1h-1h-1h-1h-1h-1h-1h-1l-1 -1h-1h-1h-1h-1h-1h-1h-1l-1 -1h-1 h-1h-1h-1h-1h-1h-1v-1h-1h-1h-1h-1h-1h-1h-1l-1 -1h-1h-1h-1h-1h-1h-1l-1 -1h-1h-1h-1h-1h-1h-1h-1l-1 -1h-1h-1h-1z" />
<glyph unicode="X" horiz-adv-x="2930" d="M110 151q0 33 23 56q36 36 36 43q2 4 29 56t49 95q77 152 196 310q35 49 353 351q284 274 284 328q0 47 -155 180q-20 18 -49.5 43t-77 64t-80.5 67q-99 115 -349 331l-112 71q-77 48 -77 88q0 84 126 151q130 -83 310 -194q3 -4 147 -148q172 -166 291 -273.5 t193.5 -162.5t102.5 -55q31 0 85 27q35 35 275 198q485 337 795.5 507.5t435.5 170.5q74 0 200 -81q-29 -29 -29 -81q-41 7 -93 7q-59 0 -92 -14q-290 -138 -736 -421q-492 -314 -668 -511q253 -297 736 -794q35 -37 347 -349q26 0 53 -15t64 -45v-95q-72 -78 -145 -78 q-106 0 -171 81q-30 34 -135 158.5t-182 214.5q-24 27 -627 596q-140 129 -172 129q-72 0 -166 -88q-11 -11 -144 -137q-195 -136 -428 -478q-234 -335 -387 -429q-56 45 -56 126z" />
<glyph unicode="Y" horiz-adv-x="2413" d="M203 2655q0 263 103 360q38 -23 74 -54v-108q0 -740 309 -740q345 0 918 349q94 59 381.5 241t488.5 308h81q23 -114 29 -114q1 0 1 1q0 -64 -235 -252q-126 -99 -303 -239q-27 -22 -178 -173l-409 -582q-306 -431 -655 -1085q-74 -140 -97 -220q-27 -113 -74 -259 q-36 -131 -144 -221h-120q-53 46 -53 126q0 66 260 587q144 280 441 784q160 267 457 774q-29 -4 -67.5 -14.5t-92 -29t-109.5 -40t-136 -52.5q-252 -99 -405 -99q-251 0 -373 264q-92 200 -92 488z" />
<glyph unicode="Z" horiz-adv-x="3922" d="M88 184q0 99 145.5 270.5t437.5 422.5q25 21 1077 853q116 91 210 169.5t163 142t116 113.5t69.5 85.5t22.5 56.5q0 129 -419 129q-146 0 -263 -12q-92 -24 -184 -40q-107 -3 -460 -38q-89 -22 -177 -46q-116 -38 -174 -38t-103 56q37 82 169 144q27 6 148 32 q654 137 981 137h11q703 0 703 -240q0 -121 -158 -309q-265 -317 -693 -668q-87 -71 -269.5 -219t-287 -232t-190.5 -150q-35 -27 -134.5 -101.5t-160.5 -121.5q-174 -131 -259 -263v-63q139 -85 361 -85q31 0 306 27l594 58q595 56 1449 56q924 0 1088 -204q-260 0 -879 27 l-430 15l-2128 -184q-90 -9 -106 -9q-222 0 -410 81q-84 40 -125 76t-41 72z" />
<glyph unicode="[" horiz-adv-x="1738" d="M162 -914l137 1980q56 817 56 961l-4 369q0 361 -23 516q-4 8 -4 29q0 43 27 159q25 141 25 144l43 45q238 0 609 39q75 -5 236 24q25 6 52 10q82 14 228 4q152 -6 225 14q45 -39 45 -126q0 -56 -51.5 -86.5t-155.5 -30.5q-183 0 -309 -18q-78 -32 -229 -37 q-150 -6 -236 -11q-32 -2 -83 -7.5t-71 -7.5q-67 -10 -67 -95q0 -4 2 -75.5t2 -138.5l3 -214q0 -321 -36 -668q-38 -411 -38 -465q0 -467 -55 -1204q-34 -295 -54 -466q-24 -199 -24 -205q0 -85 41.5 -129t120.5 -44q35 0 97 11q16 1 35.5 2.5t30.5 2t19 2.5q95 4 211 4 q11 0 73 21q63 25 89 25q19 0 88 -18q75 -18 95 -18q16 0 38 11q19 15 40 15q50 0 347 -85q12 -6 53 -30t71 -40q-41 -67 -65.5 -97.5t-40.5 -30.5q-25 0 -73.5 11t-74.5 11q-15 0 -34 -26q-20 -27 -36 -27q-1 0 -95 35q-89 28 -108 28q-12 0 16 -5l29 -5q54 -5 51 -7 q0 -1 -3 -1q-62 0 -221 26q-68 10 -101 10q-18 -3 -54 -18q-48 -21 -133 -21h-180q-148 -18 -576 -52z" />
<glyph unicode="\" horiz-adv-x="1783" d="M103 3262l30 104h85q248 -424 520 -1161q293 -820 596 -1505q11 -24 105 -233t176.5 -395t171.5 -392v-126q-248 80 -334 284q-16 50 -67 204.5t-85 259.5q-151 335 -253 584q-37 85 -74 205l-5 20t-8.5 32t-10.5 36q-36 46 -120 182q0 8 -74 180q-221 559 -653 1721z " />
<glyph unicode="]" horiz-adv-x="1882" d="M-119 -781q6 5 32.5 28.5t45.5 37.5l24 0.5t70.5 1t108.5 1t154.5 1t192.5 0.5q17 0 54 -11q38 -16 53 -16q91 0 306 38q237 48 253 117q52 255 85 569q9 80 27.5 236t37.5 313.5t46.5 396.5t52.5 472q2 22 6 93t11.5 155.5t18.5 172.5q4 49 15.5 141t28 227.5 t30.5 265.5q25 237 25 302q0 220 -88 274q-126 84 -454 84q-70 0 -148 -7q-30 -1 -63.5 -3.5t-54 -4t-29.5 -1.5q-19 0 -60 2.5t-112 6.5t-138 7q-16 1 -47 4q-64 4 -94.5 6t-70 4.5t-61.5 3t-36 0.5q-6 21 -26 134q6 3 19.5 11t37 22t46.5 28q85 7 203 30q129 26 204 26 q32 0 120 -26q103 -23 123 -23q25 0 151 23q108 26 151 26q36 0 258 -44q230 -44 273 -59q35 -10 124 -115v-792q0 -48 -63 -373q-29 -136 -46 -426q-20 -304 -42 -432q-3 -20 -16.5 -90t-29 -153t-31.5 -173q-8 -198 -18 -299q-56 -816 -141 -1273q-306 -129 -482 -129 q-3 0 -12.5 0.5t-26.5 1.5t-37.5 2.5t-52 3.5t-64.5 4q-170 11 -268 11q-317 0 -376 -30q-62 -33 -70 -33q12 0 -46 12q-22 4 -53 10q-31 70 -31 176v31z" />
<glyph unicode="^" horiz-adv-x="1672" d="M22 2374q0 66 34 106q39 47 313 296q413 372 605 608q35 5 124 -49q77 -44 115 -95q5 -7 25.5 -35.5t45.5 -62t53 -68.5q21 -25 50.5 -58t80.5 -89t84 -92q181 -209 181 -232q0 -42 -66 -103q-60 -59 -108 -59q-20 0 -276 288q-63 72 -114 128t-85.5 91t-55 53t-25.5 18 q-60 0 -342 -283q-30 -30 -85.5 -87t-126.5 -130t-139 -141q-83 -83 -254 -126q-34 34 -34 122z" />
<glyph unicode="_" horiz-adv-x="5455" d="M70 -355q0 62 56 137q349 60 626 60q17 0 71 -11t70 -11q23 0 88 18q18 4 50 4l1608 84l2394 -63q5 0 14.5 4t33.5 15.5t40 18.5q78 32 95 32q72 0 134 -77q77 -99 109 -110v-84q-4 0 -9 -1t-10.5 -2.5t-13.5 -4.5t-14.5 -5.5t-17.5 -7.5t-19 -8.5t-22 -9.5t-23 -10 q-14 -6 -34.5 -15.5t-30.5 -14t-21.5 -10t-17.5 -7.5t-10 -2t-10.5 2t-17 6t-20.5 7.5t-27.5 10.5t-30.5 12q-93 40 -126 47q-101 18 -232 23l-1537 54q-39 0 -46.5 1t-61 -0.5t-74.5 -2.5t-88.5 -3.5t-103 -4.5t-117.5 -5.5t-132 -5.5q-454 -25 -626 -25q-20 0 -71 25 q-62 21 -77 21q-28 0 -112 -32q-79 -36 -109 -36h-2.5t-8.5 -0.5t-14.5 -1t-22 -1.5t-27.5 -2t-34 -2.5t-39.5 -2.5t-46.5 -3t-52 -3q-126 -6 -386.5 -20t-369.5 -20l-70 -56q-29 0 -123 -14q-23 -3 -56 -7t-51 -5.5t-29 -1.5q-195 0 -195 127z" />
<glyph unicode="`" horiz-adv-x="1207" d="M63 3299q0 56 11 67t70 11q93 0 292 -115q498 -292 840 -522q4 -4 9.5 -12t8.5 -12q0 -20 -38 -57q-64 -60 -127 -60q-34 0 -148 56l-155 77q-152 75 -336 216q-198 152 -350 197q-77 98 -77 154z" />
<glyph unicode="a" horiz-adv-x="1897" d="M88 254q0 201 436 464q407 252 626 252q89 0 162 -101v-77q-35 -50 -81 -50q-20 0 -63 21q-48 22 -66 22q-70 0 -328 -148q-202 -110 -328 -205q-80 -70 -108 -162q69 -63 152 -63q71 0 432 151q365 151 471 151q118 0 169 -59q22 -33 90 -162q68 -120 143 -200v-81 q-34 -56 -78 -56q-51 0 -198 175q-136 176 -218 176q-3 0 -18.5 -5t-53.5 -20t-74 -29t-112.5 -44t-135.5 -53q-382 -151 -509 -151q-89 0 -198 88q-112 90 -112 166z" />
<glyph unicode="b" horiz-adv-x="2705" d="M122 52q49 116 125 144q113 37 417 58q404 33 718 70q86 10 216 52t333 121q206 83 306 155q93 67 93 124q0 5 -1 9q-11 100 -257 173q-218 55 -369 55h-22l-1206 -228q-9 -1 -20 -1q-70 0 -234 53v490q0 280 29 649l78 1039q10 173 66 288h103q58 -85 58 -208 q0 -20 -2 -42l-128 -1910q0 -36 39 -81q40 -45 78 -45q9 0 44 4.5t120.5 16t162.5 20.5l679 89q248 32 277 32q250 0 457 -95q258 -121 258 -335q0 -137 -303 -313q-226 -140 -442 -204q-196 -64 -490 -95q-168 -18 -502 -60q-27 0 -276 -48q-189 -33 -266 -33 q-41 0 -139 56z" />
<glyph unicode="c" horiz-adv-x="1956" d="M74 439q0 214 309 384q452 239 564 239l228 -22q-27 0 -32 -41q-2 -18 -3.5 -34t-2.5 -23.5t-1 -9.5q-159 -48 -457 -194q-351 -185 -351 -277q0 -173 439 -222q72 -8 95 -8q9 0 11 1l907 137l31 -31v-84q-102 -60 -218 -88q-225 -43 -513 -89q-227 -32 -265 -32 q-233 0 -453 92q-288 111 -288 302z" />
<glyph unicode="d" horiz-adv-x="2439" d="M95 295q0 159 101 222q7 4 220 102q423 193 727 258q105 21 257 93q179 82 252 99l206 40q105 23 181 104q-52 685 -52 1573q0 156 5.5 262.5t16.5 170t26 93t37 36.5q4 -2 12 -5q26 -11 37.5 -17.5t29 -22t25.5 -36t15 -56t10 -84.5q0 3 -1 3q-2 0 -2 -68v-346l3 -1208 q0 -212 33 -439q-257 -108 -745 -266q-457 -148 -582 -191q-434 -160 -513 -261q0 -50 42 -74q95 -52 387 -52q112 0 475 81q464 97 911 218q-22 -117 -96 -155q-89 -46 -558 -182q-482 -146 -570 -146q-18 0 -166 -12q-132 -11 -171 -11q-154 0 -331 70q-222 84 -222 207z " />
<glyph unicode="e" horiz-adv-x="1812" d="M88 583q0 271 232 420q208 126 483 126q242 0 389 -108q142 -105 142 -287q0 -100 -342 -221q-143 -49 -217 -73q-73 -25 -165 -48q-78 -20 -118 -20q-7 0 -13 1q0 -7 -7 -10.5t-20 -9.5t-24 -15q18 -31 247 -88q21 -5 43.5 -9t41.5 -7t42 -4.5t38 -2.5t37 -1.5 t31.5 -0.5h28h21.5h572l166 -27l48 -7q66 -34 103 -96q-67 -77 -177 -77h-635q-219 0 -493 63q-180 45 -280 99.5t-122 121.5q-52 144 -52 281zM317 641q0 -27 9.5 -56t24.5 -40h113q37 0 122.5 21.5t209.5 67.5q81 31 152.5 72.5t103 66t50.5 42.5q-103 103 -321 103 q-157 0 -291 -63q-173 -80 -173 -214z" />
<glyph unicode="f" horiz-adv-x="2737" d="M36 598v10q0 79 74 110q212 101 833 155q34 28 56 56q-25 201 -25 417q0 699 306 1165q353 531 1020 531q310 0 591 -130q356 -163 356 -424q0 5 -3 -5q-4 -13 -22 -87q-323 439 -907 439q-207 0 -423 -95q-233 -96 -351 -249q-126 -178 -243 -504q-130 -361 -130 -538 q0 -37 24 -236q8 -57 14 -108t10 -86.5t4 -41.5q80 -63 121 -63q17 0 86 18q75 18 78 18q132 17 603 17q311 0 587 -17q-13 0 -78 -50l7 -52l-671 -36q-402 -21 -626 -168q54 -190 232 -500v-103q-19 -30 -67 -30q-73 0 -250 324q-90 165 -150.5 245.5t-96.5 80.5 q-112 0 -298 -42q-64 -12 -240 -77q-168 -67 -203 -67q-101 0 -218 123z" />
<glyph unicode="g" horiz-adv-x="1710" d="M-911 -1224q0 247 528 499q344 168 844 306q326 84 900 154l39 22q4 11 4 36q0 32 -36 274q-5 69 -85 261q-83 214 -122 214q9 0 -8 -9q-44 -21 -195 -72q-220 -81 -342 -81q-147 0 -254 52q-141 63 -141 191q0 45 15 115q14 84 14 95l74 89q61 31 256 102q187 70 257 70 h517l25 -109l-78 -67h-102q-632 0 -790 -247q91 -108 239 -108q63 0 333 141q249 128 247 137q98 0 176 -215q229 -601 229 -1017q0 -375 -184 -745q-208 -417 -569 -633q-210 -119 -810 -119q-75 0 -288 41q-184 37 -291 78q-156 67 -233 144q-70 70 -113 187 q-56 131 -56 214zM-689 -1294q0 -128 138 -226.5t411 -164.5q186 -39 351 -39q307 0 493 84q42 37 115 88q66 38 128 85q202 163 347 493q133 297 133 542q0 72 -30 115h-78q-49 -28 -151 -115q-141 -19 -288 -50q-782 -177 -1316 -461q-253 -141 -253 -351z" />
<glyph unicode="h" horiz-adv-x="2048" d="M99 313l140 1545q100 1054 303 1515q14 -3 133 -25q-45 -159 -137 -738q-77 -468 -102 -742q-62 -718 -74 -891q-34 -407 -34 -450v-25q0 -48 14 -63q22 -14 77 -14q21 0 90 18q52 18 62 18q393 55 561 81q341 45 342 45t18 1.5t34 1.5h47q58 0 90 -10q163 -67 205 -285 q17 -83 17 -365q0 -105 61 -159v-81l-54 -52q-229 95 -229 306q0 49 3.5 101t3.5 95q0 240 -262 240h-51q-201 0 -705 -126q-236 -58 -265 -58q-122 0 -288 117z" />
<glyph unicode="i" horiz-adv-x="761" d="M281 187q0 338 43 520t126 204q63 -28 63 -92q0 25 -4 25q1 -18 1 -46q0 -121 -24 -429q-3 -41 -8 -104.5t-7.5 -97t-4.5 -72t-2 -63.5q-92 -50 -154 -50q-29 95 -29 205zM331 1717q55 130 119 130q65 0 207 -99v-7q0 -76 -148 -175q-51 19 -178 151z" />
<glyph unicode="j" horiz-adv-x="876" d="M-648 -1463q303 -258 398 -258q224 0 380 17.5t247.5 53.5t119.5 91q56 120 56 398v113l-96 1755q0 79 33 155q12 35 28 58.5t33.5 35t35.5 11.5q99 0 120 -440q0 -15 0.5 -46t1.5 -78t1.5 -101.5t2 -134.5t2.5 -160q32 -157 41 -232l25 -1087q2 -42 2 -80 q0 -234 -58 -341q-52 -98 -390 -152q-255 -39 -454 -39q-228 0 -383 133q-146 126 -146 315v13zM387 1751q0 66 133 134q151 -43 151 -108q0 -79 -140 -198q-73 34 -108.5 76t-35.5 96z" />
<glyph unicode="k" horiz-adv-x="2062" d="M122 137q-1 6 -1 15q0 83 48 446l70 507q70 482 96 992q1 21 45 878q5 122 21 251q6 55 85 109q84 -27 101 -135q0 -69 -20 -495q-11 -261 -110 -1378q1 -43 1 -102q0 -104 -4 -258q0 -22 -42 -252q-33 -165 -33 -212q0 -6 1 -10l21 -198q68 -8 68 -10q0 -1 -5 -1 q170 73 310 117q388 130 679 263q188 92 320 151l77 8q63 -28 74 -197q-63 -42 -299 -136q-218 -91 -271 -173q118 -236 426 -285q1 -7 1 -14q0 -59 -85 -124q-94 -69 -155 -74h-6q-57 0 -189 106l-192 151q-9 11 -159 184q-18 -7 -408 -162q-180 -66 -274 -92 q-14 -3 -39 -3q-135 0 -152 133z" />
<glyph unicode="l" horiz-adv-x="838" d="M254 416q-1 6 -1 36q0 83 8 347q7 244 31 709q3 86 39 522q34 368 34 521q0 506 71 720l25 3q24 2 42 -5t30 -23t20 -42q16 -39 37 -126l-104 -2275q-8 -8 -8 -43.5t8 -98.5q8 -78 94 -643q0 -12 -60 -36q-10 -1 -19 -1q-93 0 -153 98q-66 108 -94 337z" />
<glyph unicode="m" horiz-adv-x="3092" d="M113 281q0 223 20 356t56 190.5t95 72.5q48 -24 58 -70q0 -52 -22 -369l-10 -96q5 4 11 8t11.5 7t13 7t12.5 7q62 50 409 362q284 257 443 257q55 0 92.5 -43t57 -130t19.5 -217q0 -31 -7 -103q-2 -24 -4 -50.5t-3 -40.5t-1 -20q20 -4 38 -7.5t26.5 -5.5t9.5 -2 q34 10 171.5 89.5t437.5 258.5q51 45 144 102q335 148 464 148q169 0 169 -335q0 -81 -11 -340q-12 -309 -12 -339q-54 -5 -103 -48q-133 106 -133 324q0 38 16 171q11 132 11 169q0 107 -38 169h-59q-43 0 -190.5 -78.5t-419.5 -245.5l-528 -329q-75 0 -214 101v36 q0 48 14 151q15 108 15 155q0 115 -47 185h-63q-83 0 -788 -646h-42q-54 -18 -92 -18q-27 83 -27 207zM342 830q2 -4 5 -15q-5 6 -5 15z" />
<glyph unicode="n" horiz-adv-x="2016" d="M126 187q0 681 169 724q49 -25 60 -67q0 -7 1 -20q0 -91 -25 -455l-3 -27q63 64 133 119q231 207 552 419q416 263 605 263q55 0 99 -56q49 -62 49 -113q0 -59 -36 -432q-50 -483 -78 -708q-5 -30 -59 -30q-34 0 -64 45t-51 133q-33 132 -33 239q0 58 44 285 q48 227 48 279q0 108 -59 108q-71 0 -313 -130q-213 -111 -306 -180q-160 -119 -413 -399q-45 -59 -147 -166q-42 -47 -169 -47v121v7q-4 25 -4 88zM355 844q3 -7 3 -18q0 4 -1.5 9.5t-1.5 8.5z" />
<glyph unicode="o" horiz-adv-x="2322" d="M110 450q0 94 111 194q89 63 292 267q126 152 475 254q289 84 546 84q67 0 207 -63q127 -57 183 -113q51 -51 115 -200q58 -133 58 -216q0 -199 -77 -329q-78 -127 -528 -247q-395 -106 -606 -106q-245 0 -485 117q-291 142 -291 358zM342 425q0 -96 232 -175 q197 -66 322 -66q204 0 522 73q308 68 436 207q59 60 59 207q0 133 -158 254q-147 115 -292 115q-27 0 -419 -77q-151 -32 -277 -119q-142 -103 -235.5 -182t-141.5 -139t-48 -98z" />
<glyph unicode="p" horiz-adv-x="2030" d="M0 -1552q0 501 355 1692q40 156 135 324q29 57 171 126q26 -18 40 -43t14 -50q0 -28 -67 -169q-81 -154 -88 -191q-293 -963 -331 -1789q-105 -24 -105 -25t2 -1q-40 0 -85 45q-41 48 -41 81zM67 799q0 108 59 182q74 85 479 173q353 81 527 81q384 0 575.5 -106 t191.5 -321q0 -180 -351 -425q-259 -177 -517 -288q-196 -84 -257 -84h-74l-52 56q40 100 97 140q35 14 100 41.5t95 39.5q723 281 723 545q0 45 -31 77.5t-94 54t-155.5 31.5t-217.5 10q-267 0 -490 -39q-335 -53 -425 -171q-17 -75 -77 -265q-106 166 -106 268z" />
<glyph unicode="q" horiz-adv-x="2107" d="M36 274q0 56 56 165q14 32 134.5 127.5t232.5 175t135 91.5q48 30 145.5 57t263.5 60q301 53 432 53q148 0 232 -74q-9 -42 -27 -151q-52 -29 -148 -29q-14 0 -113 36q-100 34 -119 34q-21 0 -85.5 -12.5t-151 -34.5t-187.5 -60t-175 -82q-25 -14 -72 -40.5t-76.5 -44 t-70 -42.5t-64.5 -46t-47 -45t-31.5 -48t-4.5 -47q14 -85 144 -85q22 0 47 4h52q7 0 303 52l622 113q231 45 254 45q130 0 130 -199q0 -136 -92 -357q-14 -39 -60 -160.5t-77 -204.5q-138 -377 -144 -429q-8 -44 -15 -94.5t-15 -114t-13 -97.5l-112 -718l-39 -52h-126 q-29 19 -29 77q0 441 158 1014q8 67 152 538q7 39 88 241q66 181 66 220q0 81 -70 81q-51 0 -516 -99q-275 -63 -648 -63q-103 0 -207 77q-112 85 -112 168z" />
<glyph unicode="r" horiz-adv-x="1735" d="M144 126q0 5 7 103q7 48 7 109q0 120 71 333q9 30 30.5 93t32.5 98q43 85 133 151q190 126 677 126q494 0 579 -129v-78l-56 -52q-184 60 -293 60h-16q-169 -8 -195 -8h-147q-19 0 -67 -18q-27 -10 -59 -21q-84 -6 -229 -42q-58 -25 -98.5 -61t-67 -85t-41.5 -100.5 t-29 -125.5q-19 -99 -19 -188q0 -22 1 -44q15 -183 15 -233q-25 -7 -184 -25q-52 107 -52 137z" />
<glyph unicode="s" horiz-adv-x="1495" d="M103 1024q0 196 390 196q138 0 384 -34q262 -36 358 -92l-29 -109q-50 4 -142 17.5t-165 21.5t-159 14q-34 2 -68 3q-52 1 -100 -5q-80 -8 -147 -33q-4 -4 -19.5 -16t-25.5 -20l597 -204q162 -53 245 -141.5t83 -185.5q0 -156 -99 -204q-93 -44 -362 -126 q-296 -88 -362 -88q-18 0 -28 11q-13 12 -29 12q-36 0 -151 -115q-38 26 -58 50.5t-20 41.5q0 200 603 320q14 4 61.5 14t79.5 17q27 16 88 77q-56 99 -180 141q-2 1 -160 59.5t-272 102.5q-313 126 -313 275z" />
<glyph unicode="t" horiz-adv-x="1843" d="M7 999q0 111 394 166q474 60 580 115q55 33 117 711q31 323 133 858q4 13 13 59.5t16 77.5q13 26 130 78l28 -218q-11 -33 -32 -191l-77 -461l-9 -47t-14 -87.5t-6 -90.5l-31 -642l727 7v-117q-403 0 -707 -137q-75 -33 -90 -92q-1 -9 -4.5 -53.5t-10 -113t-14.5 -142.5 q-11 -125 -11 -170q0 -29 11 -118q1 -17 2 -34.5t2 -29.5t2 -22.5t1 -18v-12.5q0 -147 -70 -238q-7 0 -77 31q-74 185 -74 423q0 70 18 235q20 132 20 238q0 54 -38 81q-32 -13 -229 -34l-205 -33q-9 -1 -46.5 -3.5t-64.5 -6.5q-13 0 -89 -56q-19 -15 -19 -63q0 -10 1 -22 h-77q-25 0 -115 74q-24 22 -37.5 35.5t-25.5 26.5t-17 21.5t-5 15.5z" />
<glyph unicode="u" horiz-adv-x="2034" d="M92 563q0 164 70 355q33 7 59 29q12 -8 92 -78q-18 -159 -18 -246q0 -218 72 -328.5t213 -110.5q273 0 655 343q9 8 35.5 31.5t83 76t109.5 102t159.5 149t188.5 176.5h29q27 0 43 -12.5t16 -36.5q0 -74 -277 -376q-227 -252 -358 -353q-105 -81 -254 -185 q-74 -59 -247 -113q-176 -56 -270 -56q-186 0 -302 232q-99 193 -99 401z" />
<glyph unicode="v" horiz-adv-x="1783" d="M-11 950v152q95 21 95 28q0 2 -7 2q62 0 274 -417q216 -416 282.5 -416t406.5 324q172 167 288 274t146 131q247 171 472 309h119l25 -25v-110q-162 -75 -324 -171q-15 -7 -250 -243q-798 -813 -985 -813q-40 0 -155 187q-110 181 -126 236q-57 168 -102 288 q-52 146 -159 264z" />
<glyph unicode="w" horiz-adv-x="3069" d="M77 940q0 89 110 151q119 -149 214 -360q122 -266 179 -380h88q34 61 169 202q19 31 137 199q111 155 180 155q71 0 119 -77q24 -37 103.5 -166t139.5 -221q198 -303 286 -303q91 0 509 395q420 390 490 390h101v-84q-192 -154 -373 -351q-187 -202 -326.5 -332 t-246 -199t-176.5 -69q-50 0 -105.5 29.5t-117.5 92.5t-126 157q-94 141 -281 414q-79 -16 -284 -291q-197 -263 -357 -263l-52 30q-71 133 -210 450q-170 386 -170 431z" />
<glyph unicode="x" horiz-adv-x="2178" d="M106 -236q0 133 148 321q80 97 480 457q-86 97 -252 173q-256 112 -275 126q-31 74 -31 102q0 119 105 119q18 0 331 -176q319 -175 338 -175q28 0 384 166q363 163 450 163q81 0 218 -104v-77q-6 -6 -191 -22q-73 -12 -418 -106q-103 -27 -221 -189q176 -219 601 -486 q52 -33 95 -61t71 -46.5t44 -30t19 -13.5q0 -141 -170 -141q-42 0 -161.5 74t-306.5 218q-380 286 -424 286q-275 0 -598 -526q-27 -43 -32 -111q-5 -73 -15 -114q-15 -80 -126 -126q-9 56 -36 152q-27 94 -27 147z" />
<glyph unicode="y" horiz-adv-x="1773" d="M119 855q0 48 50 151h105q132 -560 374 -560q197 0 491 211q107 78 321 236q113 -37 113 -162q0 -26 -21 -105q-15 -52 -26 -95q1 -11 1 -27q0 -40 -8 -113q-83 -196 -236 -641q-44 -50 -189 -358q4 6 1 -2t-21 -58l-79 -221q-25 -71 -154 -384q-4 -24 -10 -56t-14 -73.5 t-14 -75.5q-35 -106 -47 -137q-38 -104 -38 -133q0 -11 7 -25q-25 -49 -127 -151h-78q-56 103 -56 147q0 179 240 785q64 174 228 556q91 176 148 299q28 96 70 189q34 48 119 290q-6 6 -6 19q0 17 10 48q5 18 1.5 29.5t-14.5 11.5q-2 0 -6.5 -1t-11.5 -3.5t-14.5 -5 t-19.5 -7t-23 -9t-28.5 -11.5t-31.5 -12.5t-37 -15t-40 -16.5q-189 -81 -215 -81q-44 0 -181 -23q-124 -26 -166 -26q-142 0 -265 240q-102 200 -102 376z" />
<glyph unicode="z" horiz-adv-x="2453" d="M148 74v151l534 409q293 222 483 464q-27 81 -92 81l-33 -4q-57 0 -322 -70q-264 -65 -327 -65q-38 0 -152 51q0 23 -3 48q0 13 -2 27.5t-2 16.5q0 36 11 63l1073 185q126 -32 126 -196q0 -215 -373 -560q-26 -26 -549 -479q27 -38 99 -38h49l191 20q167 15 390 33 q68 5 713 66q10 0 77 22q62 21 89 21q128 0 239 -95q-2 -1 -78 -31.5t-140 -49.5q-93 -35 -331 -52l-340 -33q-3 -1 -33 -13.5t-61.5 -23t-67.5 -18.5q-283 -74 -637 -74q-111 0 -281 38q-210 43 -250 106z" />
<glyph unicode="{" horiz-adv-x="1524" d="M158 1186v24q0 36 119 81q236 77 384 235q142 153 142 346q0 49 -4 70l-142 864q1 9 5.5 43.5t9.5 81t10 95.5q12 92 25 119q21 58 74 88q25 12 182 52q176 50 191 50q155 24 225 24q6 0 19.5 -2.5t41.5 -8t52 -9.5q103 -23 105 -25q8 -16 18 -56l21 -25l-7 -11l-22 -18 l-495 18q-128 0 -190 -85q-4 -7 -12 -24.5t-18.5 -39.5t-27.5 -58.5t-34 -73.5q1 -9 5.5 -50.5t8.5 -73.5q29 29 29 67v10l-40 -129q10 -62 74 -339q4 -10 17 -44.5t26 -71.5t24 -76q57 -288 57 -409q0 -26 -21 -158q-22 -134 -33 -144q-18 -41 -104 -115q-79 -61 -121 -103 q100 -167 173 -236q45 -36 52 -41q29 -29 29 -99q0 -247 -59 -384q-32 -146 -74 -302q-12 -29 -53 -125t-71 -167q-70 -153 -70 -302q0 -226 151 -317q33 -16 180 -43q140 -31 207 -31q30 0 62.5 4t66.5 4q15 0 33 -4q27 -22 81 -43l3 -27q-16 -28 -21 -58q-5 -2 -12 -5 t-15.5 -7.5t-17.5 -9l-22 -11l-25 -12.5q-80 -36 -178 -36q-134 0 -447 103q-33 40 -61 56q-147 91 -189 144q-74 78 -74 225q0 94 42 313q35 150 162 408l7 33q7 27 16 56t19.5 59.5t19 55t21 59t19.5 54.5q41 124 56 250q-93 204 -273 225q-36 0 -125 11l-55 -7 q6 -43 41 -106l-81 113q-36 18 -74 31q-25 38 -38 50z" />
<glyph unicode="|" horiz-adv-x="684" d="M257 -277l17 2433q0 35 1.5 101t4 138.5t6 187.5t6.5 223q0 166 3 321q6 91 43 239l9 -4q36 -45 69 -77q70 -153 70 -320l-32 -3278q-6 -166 -29 -247h-9q-33 11 -51 11q-24 15 -77 56h-4q-27 200 -27 216z" />
<glyph unicode="}" horiz-adv-x="1450" d="M-56 3197l27 29q15 50 18 55q4 4 99 26q105 18 115 18q84 0 225 -18q5 -2 21 -6.5t37 -11t58 -17t75 -21.5q177 -51 184 -54q66 -32 83 -108q27 -122 32 -211q11 -78 11 -106l-144 -862q-7 -51 -7 -74q0 -191 147 -344q146 -162 380 -239q61 -23 90 -41t29 -37v-25 l-5 -7.5t-6.5 -9.5t-7 -10.5t-7.5 -12t-8 -12.5q-57 -19 -74 -29l-4 -7q-3 -4 -7 -7q-18 -31 -25 -31t-7 24v18l-56 7q-20 -2 -43 -5t-36.5 -5t-26.5 -3.5t-20 -1.5q-172 -16 -272 -221q17 -142 58 -250q9 -29 31.5 -96t40.5 -121.5t32 -104.5q131 -267 158 -409 q44 -194 44 -310q0 -140 -74 -225q-42 -47 -139 -109q-89 -62 -115 -89q-324 -104 -446 -104q-82 0 -177 38q-65 28 -88 47q-18 45 -22 52l4 25q49 22 81 49q14 3 29 3q34 0 66 -3q15 -2 30.5 -4t23.5 -3t13 -1q43 0 202 29q158 35 181 49q152 91 152 317q0 147 -71 306 l-122 288q-63 234 -74 298q-63 139 -63 387q0 60 31 96q4 3 15.5 11t21 15t15.5 13q74 69 173 242q-28 28 -123 106q-77 66 -102 106q-13 38 -31 148q-5 31 -12 72.5t-10 59.5t-3 26q0 95 63 410q40 134 67 188q53 235 70 343l-42 128v-11q0 -36 35 -70l10 126 q-22 47 -43 93t-32.5 71.5t-15.5 33.5q-18 28 -46.5 47t-65.5 27.5t-81 6.5l-490 -14l-27 20z" />
<glyph unicode="~" horiz-adv-x="2997" d="M49 2662q0 184 334 441q326 252 521 252q284 0 489 -158q45 -45 175 -170.5t209 -202.5q49 -43 180 -88q165 -52 234 -52q138 0 522 243l376 243q-6 0 2 -2q7 -2 46 -9l74 -14v-130q-240 -173 -336 -250q-245 -194 -342 -250q-190 -108 -405 -108q-75 0 -317 108 q-250 111 -277 154q-153 252 -218 303q-107 84 -369 84q-194 0 -376 -129q-105 -71 -251 -232q-124 -130 -169 -130q-102 0 -102 97z" />
<glyph unicode="&#xa1;" horiz-adv-x="921" d="M106 -56q0 155 94 671t286 1435q84 384 203 519q130 -64 130 -152q0 -21 -77 -349q-79 -331 -317 -1699q-48 -272 -133 -837q-32 -8 -53 -29q-99 38 -99 114q0 18 11 66q11 54 11 70v11q-56 98 -56 180zM664 3200q0 42 40 107q44 55 84 55q67 0 137 -55q63 -55 63 -123 q0 -70 -99 -169h-70q-45 0 -97 70q-58 63 -58 115z" />
<glyph unicode="&#xa2;" horiz-adv-x="1794" d="M144 1301q0 87 191 288q185 196 281 233q59 26 214 46q142 18 201 38q85 31 245 475q148 425 290 425q104 0 104 -119q0 -28 -48 -77q-16 -18 -30.5 -36t-22 -28.5t-10.5 -12.5q-114 -217 -135 -416q-87 -87 -87 -200q0 -95 112 -144q145 -61 151 -67v-147 q-113 -5 -351 -11q-97 -114 -201 -508q119 -66 264 -66q132 0 281 70l99 -97v-81q-553 -145 -553 -148q-9 0 -41 16q-22 11 -40 11q-118 0 -144 -63q-138 -272 -154 -707q-6 -69 -71 -133q-106 49 -106 264q0 54 40 263q52 245 56 283q-148 88 -409 306q-5 4 -11.5 17 t-15.5 39.5t-17.5 55.5t-22.5 77q-5 28 -34 73q-25 46 -25 81zM446 1231q0 2 1 -0.5t3.5 -12t5.5 -21.5t8 -33t11 -43q12 -6 137 -86q98 -61 133 -61q24 0 229 574l-151 31q-10 -7 -53.5 -35t-85.5 -56.5t-86 -60.5q-152 -98 -152 -196z" />
<glyph unicode="&#xa3;" horiz-adv-x="3177" d="M77 608q0 94 107 243q43 61 255 170q18 9 79.5 44t107.5 60q103 58 204 58h63h84h148q60 0 155 -36q26 -11 52 -21t38.5 -14.5t15.5 -6.5l133 502q-24 36 -74 36h-262l-261 4q-24 92 -25 92t-1 -2q0 63 78 124q86 60 155 60q28 0 144 -22q110 -27 142 -27q113 0 140 108 q19 135 42 275q17 129 99 443q3 43 41 166q43 72 173 133q131 56 246 56q58 0 324 -123q47 -20 126 -187q71 -148 71 -221q0 -49 -38 -112q-34 -50 -81 -50q-90 0 -106 131q-10 82 -21 134.5t-17 61.5q-27 43 -162 81q-122 33 -187 33q-165 0 -243 -371q-49 -243 -49 -517 q75 -24 232 -41q160 -10 240 -32q181 -41 450 -180q-5 -29 -22 -105q-55 -14 -133 -14q-67 0 -335 56q-269 50 -337 50q-52 0 -81 -4q-27 -43 -88 -338q-63 -275 -63 -369q0 -53 60 -133q15 -25 44.5 -64.5t80.5 -106.5t92 -123q117 -153 229 -225q125 -77 313 -77 q345 0 630 162q0 -1 1.5 -4l4 -8t6 -11t7.5 -15l8 -18q25 -45 25 -70q0 -136 -336 -236q-267 -77 -461 -77q-196 0 -335 106q-63 42 -243 259q-158 183 -254 258q-34 -25 -147 -177q-107 -143 -155 -185q-313 -240 -506 -240q-240 0 -426 168q-189 159 -189 378q0 27 -4 56 q0 14 -2 33t-2 22zM292 531q0 -114 113 -211q110 -88 232 -88q94 0 112 4q115 27 320 221q222 205 222 317q0 59 -108 122q-94 51 -162 51q-325 0 -564 -202q-165 -144 -165 -214z" />
<glyph unicode="&#xa5;" horiz-adv-x="2395" d="M95 657v110q96 55 299 106q218 56 313 56q18 0 45 -11q33 -11 47 -11q42 0 141 40q102 33 126 63l-812 1413q32 128 129 128q30 0 83.5 -56t128.5 -162.5t179 -271.5q325 -529 443 -598q145 145 489 549q31 36 151 182.5t211 253.5q276 331 376 331q27 0 125 -102 l-697 -798q-138 -155 -243.5 -284.5t-173 -226t-102 -163.5t-34.5 -103q0 -79 18 -103q22 -22 98 -22q113 0 235 4h236q246 0 384 -11l-8 -59q-104 -99 -232 -99q-12 0 -41 14q-22 11 -40 11q-10 0 -221 -34q15 3 -51 6l-185 6q-232 6 -259 -241q20 -36 81 -36q21 0 59 15 q17 8 36 14.5t20 6.5q258 29 686 24l155 -4v-148q-63 14 -99 18q-34 0 -94 -28q-14 -6 -70 -35q-176 0 -412 -36q-121 -17 -218 -41q-125 -28 -166 -128q-33 -182 -36 -185q-40 -107 -140 -148q-81 70 -81 159q0 1 7 66q1 13 3 27.5t3 22.5t1 13q0 85 -151 85 q-53 0 -218 -33q-26 -5 -62 -12t-55.5 -10.5t-41.5 -7.5t-35.5 -5.5t-23.5 -1.5h-235q-19 105 -25 98q-1 -1 -1 -7q0 69 94.5 114.5t278.5 64.5q133 11 235.5 23t150 19.5t55.5 11.5q18 18 67 171q-29 39 -92 39q-199 0 -358 -32q-59 -15 -170 -52q-110 -33 -169 -33 q-63 0 -137 74z" />
<glyph unicode="&#xa6;" horiz-adv-x="1377" d="M49 -1305q0 35 50 184l67 199q0 56 18 197l174 689q94 376 286 641q63 -123 53 -155l-461 -1928q-54 27 -162 22q-25 50 -25 151zM742 1327q0 292 176 851q23 72 69.5 214t102 314.5t109.5 339.5q47 145 135 320l48 32q44 -37 92 -43v-162q0 -42 -113 -340l-137 -380 q-28 -75 -53 -151t-49.5 -164.5t-37 -136t-38.5 -154t-33 -130.5q-13 -51 -48.5 -199.5t-57.5 -236.5q-47 -33 -88 -70q-77 48 -77 96z" />
<glyph unicode="&#xa7;" horiz-adv-x="1893" d="M110 1730q0 72 90 257l92 180l-32 68q-17 38 -28 62q-56 142 -56 239q0 422 233 587q74 55 252 144q178 92 208 92q95 0 249 -38q105 -30 246 -117q71 -39 71 -130q0 -30 -35 -70q-30 -36 -54 -36q5 0 -19 20t-99 79q-127 96 -258 96q-94 0 -126 -18q-18 -9 -165 -92 q-63 -21 -148 -74q-173 -145 -173 -436q0 -58 54 -169q43 -81 120.5 -134.5t185.5 -72.5q239 -33 348 -54q168 -32 345 -147q74 -43 204 -245q109 -182 109 -240q0 -13 -32 -161.5t-32 -162.5q0 -10 95 -133q104 -125 124 -183q42 -91 42 -261q0 -146 -71 -252 q-37 -45 -63 -63q-57 -28 -324 -170q-211 -113 -235 -113h-425q-104 0 -324 121q-89 48 -268 144v154q7 4 18 11q14 7 36 7q24 0 136 -81q103 -72 179 -109q167 -67 316 -67q40 0 299 38q85 10 258 117q31 16 95 47.5t95 47.5q81 47 81 175q0 105 -64 221q-76 144 -207 195 q-39 5 -116 10q-25 19 -61 42q-269 -6 -833 221q-75 26 -211 184q-122 133 -122 270zM292 1703q0 -55 140 -169q112 -97 158 -110q150 -58 296 -101q305 -85 475 -85q46 0 99 67q56 75 56 130q0 88 -92 225q-96 139 -189 176q-100 38 -232 81q-13 2 -170.5 30t-269.5 47 q-35 26 -77 26q-34 0 -66 -33t-65 -102q-63 -118 -63 -182z" />
<glyph unicode="&#xa8;" horiz-adv-x="1454" d="M236 2817l66 113l134 89l190 7q58 -49 73 -118t-13 -140q-13 -33 -29.5 -52t-51.5 -47q-3 -2 -16.5 -16t-17.5 -17.5t-15.5 -13t-19 -13t-19 -8t-24.5 -5.5q-22 -4 -55.5 7t-54.5 11q-35 5 -70 0q-20 0 -33.5 9t-29.5 28q-17 22 -11 58zM1021 2835q3 31 23 50t59 37.5 t58 33.5q12 8 40.5 29t40.5 29t34.5 22.5t46.5 27.5l193 -81q4 -24 25 -92q2 -9 7 -22.5t7 -22.5h4q-13 -36 -27 -61.5t-32.5 -47t-46.5 -46.5q-58 -45 -99.5 -64t-97.5 -17q-53 5 -89.5 21.5t-72.5 52.5l-46 59q-27 43 -27 92z" />
<glyph unicode="&#xa9;" horiz-adv-x="2550" d="M59 1213q0 18 18 60q17 48 22 54q0 77 7 151q21 266 144 484q270 475 767 571q165 32 454 32q-4 0 64.5 -18.5t229.5 -60t370 -94.5q401 -313 401 -1006q0 -481 -419 -785q-388 -281 -879 -281q-245 0 -538 119q-324 128 -450 310q-30 45 -110 232q-81 178 -81 232z M362 1316q0 -151 70 -310q79 -196 191 -239q434 -166 605 -166q100 0 379 63q264 60 366 103q104 56 218 257q113 201 113 330q0 299 -56 464q-8 30 -30.5 65.5t-51.5 70t-73 80.5q-131 137 -217 137q-18 0 -62 -11q-48 -11 -66 -11q-56 0 -263 60q-216 54 -257 54 q-33 0 -78 -18q-54 -22 -63 -22q-172 -26 -257 -70q-210 -108 -340 -342q-128 -234 -128 -495zM707 1235q0 313 101 425q256 282 538 282q143 0 236 -66q99 -67 99 -166q0 -50 -59 -92q-2 0 -13.5 5t-40 15.5t-60.5 21.5q-89 28 -118 28q-87 0 -261 -118 q-166 -117 -166 -195q0 -143 101.5 -215.5t299.5 -72.5q99 0 233 96q149 112 210 133q81 -26 81 -114q0 -141 -210 -273q-188 -121 -332 -121q-99 0 -396 78l-138 176q-105 137 -105 173z" />
<glyph unicode="&#xaa;" horiz-adv-x="1467" d="M95 2646q0 219 627 686q149 45 228 45q103 0 242 -96q154 -100 154 -192q0 -32 -20 -62t-62 -66l-128 103q-70 59 -151 59q-282 0 -499 -317v-16q-4 -7 -4 -18q0 -22 42 -22q25 0 275 107q246 104 277 104q105 0 285 -277q127 -190 212 -384v-77q-88 -20 -88 -24 q0 -1 7 -1q-22 15 -324 257q-42 180 -162 180q-49 0 -345.5 -91.5t-347.5 -91.5q-48 0 -133 73q-85 75 -85 121z" />
<glyph unicode="&#xab;" horiz-adv-x="2093" d="M99 925q0 124 207 285q100 79 306 239q170 190 446 461q128 -65 128 -151q0 -49 -92.5 -159.5t-274.5 -276.5q-369 -342 -369 -387q0 -70 335 -427q336 -358 336 -414v-99q-44 -55 -108 -55q-53 0 -228 169q-129 134 -205 228q-159 217 -447 470q-34 66 -34 117z M819 1006q0 93 117 189q31 26 94.5 77.5t94.5 77.5q152 166 581 560q130 -102 130 -151q0 -45 -335 -359q-164 -154 -250 -249t-86 -120q0 -59 270 -286q88 -75 334 -281q18 -13 39.5 -32.5t61.5 -61t62 -64.5l88 -92v-108q-22 -6 -222 -74q0 4 -88 108q-52 71 -103 71 q-23 0 -45 -11v11q0 38 -81 124q-38 39 -117 122q-7 10 -41.5 42t-104.5 94t-160 138q-239 212 -239 275z" />
<glyph unicode="&#xac;" horiz-adv-x="3909" d="M25 799q0 49 60 108q62 56 115 56l3434 162q77 5 144 -49q67 -48 67 -113q0 -38 -70 -196q-75 -173 -89 -214l-99 -346q-85 -209 -252 -214q0 5 -10 43q-15 34 -15 59q0 103 123 492q4 13 39 131v133q-31 42 -56 42q-5 0 -77 -7q-13 -3 -27.5 -5.5t-22 -4t-13.5 -2.5 t-9 -1q-11 0 -94 20q-73 21 -95 21q-53 0 -295 -25q-378 -43 -686 -66l-1910 -141q-52 0 -106 33q-56 39 -56 84z" />
<glyph unicode="&#xad;" horiz-adv-x="1555" d="M106 756q0 98 105 121q220 37 471 37q141 0 211 8q20 0 110 32q107 31 122 31q54 0 103 -96q48 -89 48 -147q0 -105 -93 -105q-25 0 -162 24q-127 21 -162 21q-241 0 -395 -25q-21 -4 -52.5 -10.5t-54 -10.5t-40.5 -6q-50 -10 -74 -18q-13 0 -13 -2q-1 -2 6 -2 q-31 0 -81 56q-49 61 -49 92z" />
<glyph unicode="&#xae;" horiz-adv-x="2804" d="M95 1094q0 35 15 105q12 97 12 106q0 43 -3 92q-1 16 -3 32.5t-3 26.5t-2 19t-1 14q0 118 111 347q84 193 180 324q192 250 465 373q70 28 369 59q67 7 183 36q132 31 179 31q325 0 597 -218q274 -219 416 -587q99 -241 99 -446q0 -254 -81 -522q-89 -305 -232 -470 q-95 -106 -321 -195q-215 -84 -397 -84q-52 0 -321 -24q-254 -21 -326 -21q-32 0 -81 21q-72 35 -84 38q-77 16 -254 88q-227 125 -369 366q-148 236 -148 489zM351 1073q0 -76 92 -254q79 -155 140 -232q67 -83 283 -137q9 -1 23.5 -6t28 -10t40.5 -15.5l45 -17.5 q117 -36 133 -36q34 0 218 33q301 49 518 95q-91 46 -419 189q-275 126 -402 229v-155q0 -158 -126 -158q-53 0 -110 39q-7 112 -7 693q0 153 -9 207q-6 35 -43 88q-38 54 -38 81q0 128 330 260q279 113 444 113q169 0 309.5 -140.5t140.5 -313.5q0 -162 -250 -423 q-107 -89 -232 -225q352 -141 704 -358q291 226 291 718q0 197 -99 454q-98 277 -228 391q-260 221 -472 221q-39 0 -97 -47q-20 -13 -43 -30t-33.5 -24t-15.5 -9q-224 -74 -391 -74q-18 0 -45 33q-32 38 -46 38q-67 0 -225 -148q-129 -117 -197 -207q-92 -122 -162 -412 q-50 -232 -50 -450zM999 1660q0 -220 52 -690q162 218 283 268q5 0 14 2t25.5 6t30.5 7q108 108 189 196q117 133 117 225q0 54 -85 113q-80 60 -154 60q-79 0 -251 -70q-184 -76 -221 -117z" />
<glyph unicode="&#xaf;" horiz-adv-x="1731" d="M99 3123q0 31 52 77q52 42 96 54q21 2 57 5t72.5 6.5t95.5 9t111 10.5l335 32q50 0 362 -18q275 -21 356 -21q90 0 137 -108q32 -68 81 -166q-47 -23 -103 -48q-60 -29 -104.5 -29t-154.5 18l-437 70q-148 23 -193 23q-44 0 -291 -45q-32 -6 -84 -15.5t-75.5 -14 t-53.5 -9.5t-46.5 -7t-27.5 -2q-71 0 -129 52q-56 56 -56 126z" />
<glyph unicode="&#xb0;" horiz-adv-x="1292" d="M110 2698q0 125 144 348q139 215 259 268q137 56 353 56q170 0 329 -81q55 -28 117 -144q60 -117 60 -193q0 -31 -15 -95q-11 -73 -11 -96q0 -61 40 -95q-297 -292 -590 -292q-190 0 -423 133q-15 8 -22 8h-31q-63 0 -81 -24q-129 152 -129 207zM506 2813q0 -86 131 -140 q96 -41 204 -41q85 0 187 81q104 87 104 158q0 90 -84 158q-91 63 -197 63q-61 0 -203 -109q-35 -28 -62.5 -53t-44.5 -46.5t-26 -39t-9 -31.5z" />
<glyph unicode="&#xb1;" horiz-adv-x="1908" d="M56 211q0 7 95 124h627q6 0 21.5 3.5l46.5 10.5t61 13q241 57 362 57h135q74 -3 144 -3q129 0 207 16q32 -32 32 -81q0 -81 -77 -148q-46 -3 -275 -34q-641 -84 -720 -95q-99 -15 -290 -15q-167 0 -229 11q-140 27 -140 141zM331 1179q26 71 101 167q193 7 504 36 q2 6 37 86.5t62 138.5q66 151 148 162q32 -142 27 -372q47 -27 275 -74q192 -44 232 -117q-53 -104 -124 -104q-24 0 -119 10q-104 13 -113 13q-188 0 -225 -126q-6 -84 -27 -254q-8 -74 -51.5 -124.5t-117.5 -75.5q-36 52 -36 166q0 56 3 112q2 21 3.5 46t2.5 38.5t1 21.5 q0 101 -34 129q-52 47 -293 47q-177 0 -256 74z" />
<glyph unicode="&#xb2;" horiz-adv-x="1470" d="M25 1825v25q0 92 31 123q71 82 306 254q235 174 331 257q38 37 161 147.5t208 189.5q222 206 310 372q-27 18 -56 18q-158 0 -542 -147q-381 -145 -357 -151q1 -1 2 -1h-68q-17 16 -30 31.5t-19.5 27t-6.5 19.5q0 41 57 80t175 82q68 25 395 155q218 84 419 84 q117 0 177.5 -49t60.5 -145q0 -123 -130 -252q-15 -18 -44.5 -46t-75 -71t-83.5 -81q-379 -379 -926 -823q84 -23 186 -18l648 36q61 5 270 -18l54 52l38 -189q-8 0 -52 -2t-135 -5.5t-190 -6.5q-133 -7 -273 -25q-204 -18 -261 -18q-27 0 -52 7q-9 1 -17.5 2.5t-13.5 2.5 t-9.5 1.5t-6.5 0.5q-49 -27 -74 -27q-241 0 -407 108z" />
<glyph unicode="&#xb3;" horiz-adv-x="1668" d="M103 2743v81q12 13 40.5 36.5t36.5 30.5q36 16 668 151q606 135 678 135q85 0 129 -44t44 -129q0 -125 -268 -324q-39 -27 -383 -250q-46 -25 -112 -97q124 -51 299 -70q263 -32 295 -40q84 -24 126.5 -76t42.5 -127q0 -35 -7 -63q-83 -178 -261 -251q-173 -67 -340 -133 q-31 -18 -78 -43t-119 -62.5t-127 -67.5q-48 -12 -187 -54q-111 -38 -161 -111h-149v200l567 221q299 110 517 328q-92 91 -488 91q-325 0 -483 89v104q513 319 926 603v16q1 11 -4.5 19t-19.5 12.5t-36 4.5l-205 -32q-151 -24 -499 -119q-196 -59 -225 -59h-183z" />
<glyph unicode="&#xb4;" horiz-adv-x="1422" d="M56 2540q0 87 99 133q44 23 95.5 48t111.5 54t95 46q134 99 324 217l225 110l137 88l137 78q8 0 23.5 4.5t53.5 18.5t61 22q105 -67 105 -119q0 -2 -21.5 -16t-71 -43t-114.5 -65q-154 -90 -317 -175q-35 -19 -148.5 -79.5t-193.5 -103.5q-60 -45 -90 -67 q-297 -225 -409 -225q-53 0 -77.5 17.5t-24.5 56.5z" />
<glyph unicode="&#xb5;" horiz-adv-x="3902" d="M25 896q0 136 387 198q135 22 232.5 42.5t146.5 36t57 26.5q44 743 95 986q122 553 472 841q70 56 309 56q602 0 791 -578q218 349 394 486q237 183 587 183q263 0 405 -198q147 -198 147 -541q0 -209 -97 -387q-78 -133 -239 -323q-34 -43 -184 -205q-26 -31 -243 -147 q-199 -111 -259 -134q-236 -99 -409 -99q-47 0 -63 22q-54 -49 -54 -137q0 -23 11 -39q7 -29 7 -35h335q19 0 81 27q68 22 85 22q2 0 74.5 3t247.5 10.5t374 15.5l56 -29v-63l-59 -67q10 0 -13 -5q-82 -19 -378 -65q-139 -18 -416 -47q-243 -27 -401 -118v-15 q0 -49 21.5 -203t21.5 -198q0 -238 -176 -259q-21 20 -53 27v39q0 92 -81 612q-4 15 -32 15q-48 0 -185 -33q-126 -36 -170 -36q-84 0 -162 78q49 144 258 176q244 33 299 106v115q-37 60 -107 60q-22 0 -273 -34l-486 -71q-153 -21 -240 -77v-32q0 -51 11 -229 q11 -170 11 -218q0 -127 -59 -394q-21 -96 -144 -151q-47 60 -47 120q0 81 14 263q15 187 15 265q0 394 -117 394q-41 0 -260 -47q-216 -43 -486 -92q-52 42 -52 81zM1087 1512l7 -112q2 -18 3 -37.5t2 -31t2 -22t1 -15.5q0 -45 -8 -81l1169 92q38 197 100 545 q44 233 44 274q0 103 -54 302q-48 177 -236 297q-188 126 -393 126q-201 0 -419 -327q-42 -66 -110 -398q-6 -39 -30.5 -146t-35.5 -160q-42 -213 -42 -306zM2522 1354q125 -24 120 -30l-3 -1q58 0 336 74q478 129 609 239q394 319 394 763q0 240 -140 414 q-142 177 -342 177q-231 0 -474 -189q-248 -190 -275 -398l-56 -70q-25 -135 -110 -497q-59 -232 -59 -274v-208z" />
<glyph unicode="&#xb6;" horiz-adv-x="2203" d="M119 1991q0 229 151 493q159 273 374 418q74 54 267 136q58 41 162 99q252 103 1146 103q144 0 144 -232q0 -128 -126 -637q-159 -642 -288 -1203q-28 -123 -113 -675q-1 -8 -8 -51.5t-20.5 -127.5t-27.5 -177q-62 -229 -228 -229q-43 0 -78 40q-39 39 -39 77 q0 16 61 141q54 106 70 169q4 18 21 95.5t35.5 164.5t37.5 183q110 623 198 1087q15 90 172 671q78 272 78 303v84q-127 42 -290 42q-120 0 -175 -31l-151 -774q-8 -44 -16.5 -99t-16 -106.5t-18 -128t-18 -133t-20 -153.5t-21.5 -161q-10 -72 -58.5 -370t-85.5 -534 q-65 -443 -59 -655q-27 -11 -81 -11q-5 0 -95 7q-20 0 -37 1t-26 2t-11 1q-5 22 -13 56l-12 48v-1q0 27 54 264q50 232 122 569q5 149 56 479q-47 47 -173 63q-155 20 -189 29q-248 83 -432 243q-223 196 -223 421zM974 1656q0 -11 7 -23t24.5 -24.5t42.5 -22.5 q70 -31 106 -31q89 317 192 834q65 334 65 394v108h-84q-116 -49 -195 -81q-124 -48 -158 -119q117 -27 117 -133v-70q0 -12 -29 -202l-67 -468q-21 -138 -21 -162z" />
<glyph unicode="&#xb7;" horiz-adv-x="954" d="M133 914q22 116 99 303q48 60 162 137q128 84 189 84q81 0 166 -101q77 -98 77 -198q0 -77 -158 -203q-158 -124 -249 -124q-81 0 -286 102z" />
<glyph unicode="&#xb8;" horiz-adv-x="1650" d="M52 -616q0 16 22 78q25 50 25 77l56 -45q1 0 200 -25q123 -22 212 -22q163 0 446 71q178 44 264.5 88.5t86.5 91.5q0 144 -133 225q-58 37 -268 102q-162 44 -221 97q0 15 7 148q5 37 40.5 111t106.5 202q139 250 195 250q92 0 92 -99q0 -55 -62 -196q-71 -167 -77 -225 q68 -47 247 -88q53 -16 133 -85q23 -23 44 -43t35.5 -33t23.5 -21t14 -11q102 -242 102 -313q0 -133 -71.5 -228t-217.5 -151t-362 -71q-15 -1 -63 -2.5t-104.5 -5t-117.5 -10.5q-34 -3 -66 -8.5t-64 -12t-42 -8.5q-37 -3 -35 -6q1 -1 9 -1q-34 0 -203 -14q-43 -4 -92.5 -9 t-74.5 -7t-36 -4l-51 38v165z" />
<glyph unicode="&#xb9;" horiz-adv-x="831" d="M81 1552q0 33 207 491l250 545q0 7 85 332q41 171 189 302q81 -144 81 -162q0 -42 -94 -277l-110 -299q-14 -91 -41 -205q-232 -558 -457 -816h-81q-29 23 -29 89z" />
<glyph unicode="&#xba;" horiz-adv-x="1348" d="M126 2961q0 96 144 275l117 18q67 17 119 17q10 0 54 -13q38 -11 52 -11q32 0 196 56q147 59 195 59q442 0 442 -309q0 -193 -295 -299q-215 -85 -457 -85q-170 0 -346 60q-111 42 -166 99t-55 133zM661 2927h39q360 0 513 147q-114 56 -151 56q-45 0 -200 -45 q-139 -40 -176 -70q-25 -25 -25 -88z" />
<glyph unicode="&#xbb;" horiz-adv-x="1960" d="M99 320q0 85 428 524q427 443 427 472q0 50 -383 347q-380 299 -380 346q0 41 38 84q47 42 77 42q111 0 767 -524q97 -83 133 -115q95 -123 95 -180q0 -69 -102 -177q-13 -14 -34 -36t-54.5 -56.5t-59.5 -61.5q-326 -405 -590 -569q-46 -61 -114 -124q-25 -6 -93 -25 t-99 -28q-56 39 -56 81zM630 7q0 38 56 169q53 125 92 175q24 34 136 103q43 26 142 133t271 309q320 391 320 454q0 74 -360 380q-120 100 -365 313q-91 86 -103 121q-4 3 -4 88q0 88 81 140q202 -126 461 -313q162 -191 265 -310q29 -20 108.5 -80.5t116.5 -88.5 q147 -115 147 -225q0 -112 -194.5 -373.5t-579.5 -659.5q-6 -6 -70 -67t-110 -109q-118 -114 -118 -211q0 -18 7 -54q-109 -56 -137 -56q-61 0 -113 52q-49 49 -49 110z" />
<glyph unicode="&#xbc;" horiz-adv-x="2892" d="M95 -56q0 81 175.5 334.5t517.5 661.5q17 19 204 235.5t343 400t328 390.5q22 27 65 85t104 139.5t121 158.5l167 155q108 102 114 176q106 46 126 103q33 97 57 129q35 35 418 355q106 -49 106 -119q0 -72 -221 -299q-19 -19 -54 -54.5t-67 -67t-77.5 -80t-87.5 -96.5 q-141 -162 -375 -437.5t-625.5 -737.5t-711.5 -838q-98 -113 -177 -273q-11 -28 -32.5 -73.5t-50 -106.5t-53.5 -117l-57 -47.5t-57 -46.5q-21 -11 -144 -11q-56 39 -56 81zM211 1276q0 16 36 151q42 125 48 162q82 424 339 999q31 57 144 170q84 -44 84 -119 q0 -17 -140 -394q-152 -422 -159 -454q-85 -297 -124 -673q-46 -12 -126 -27q-102 102 -102 185zM1276 770q0 158 148 351q127 167 275 269h78q55 -45 55 -92q0 -31 -136 -173q-16 -20 -40 -47t-61 -68.5t-65 -73.5q54 -99 151 -99h450q137 0 240 4q128 218 261 428 q83 137 171.5 220.5t175.5 110.5q32 -27 32 -92q0 -23 -133 -235q-72 -107 -162 -267q-71 -236 -180 -513q-78 -201 -116.5 -324.5t-38.5 -186.5q-94 -20 -88 -23q-55 0 -88 111q-31 101 -31 162q0 45 123 402q-97 0 -204 -4q-60 0 -128 -2t-73 -2q-488 0 -616 144z" />
<glyph unicode="&#xbd;" horiz-adv-x="3353" d="M81 1438q0 32 207 490l250 542q0 12 85 331q43 179 189 302q81 -138 81 -162q0 -36 -94 -272l-110 -298q-13 -94 -41 -211q-235 -559 -457 -814h-81q-29 29 -29 92zM265 380v117q0 13 108 160.5t337 445t554 711.5q966 1228 1162 1448q80 79 236 140q20 -19 54 -25v-103 q-45 -41 -180 -189q-174 -250 -433.5 -583t-639.5 -799l-394 -479q-213 -264 -338 -513l-9 -4q0 -10 41 -10q-2 0 80.5 29.5t272.5 96.5t439 154q241 85 573 173q375 103 658 103q211 0 211 -141q0 -109 -268 -313q-246 -184 -362 -268q-209 -195 -506 -450q43 -77 130 -77 q347 81 1038 243q59 6 474 55v-84q-67 -49 -214 -115q-354 -58 -539 -110q-54 -13 -208 -58.5t-249 -71.5q-244 -70 -464 -70q-96 0 -207 59q-130 69 -130 152q0 92 204 239q10 7 111.5 78t176.5 125q194 139 689 589q-23 34 -92 34q-10 0 -155 -41q-244 -72 -340 -96 q-244 -54 -439 -102q-30 -8 -637 -274q-465 -205 -594 -205q-96 0 -151 29z" />
<glyph unicode="&#xbe;" horiz-adv-x="3870" d="M103 2569v82q12 12 39 33.5t38 31.5q36 16 668 151q20 5 58 13q333 71 463 97.5t157 26.5q173 0 173 -176q0 -122 -268 -321q-65 -46 -383 -252q-62 -41 -112 -95q106 -49 299 -70q263 -32 295 -40q84 -24 126.5 -76t42.5 -127q0 -34 -7 -63q-83 -178 -261 -250 q-172 -68 -340 -134q-31 -18 -78 -43t-119 -62.5t-127 -66.5q-19 -5 -45 -13t-69 -21t-73 -22q-113 -39 -161 -110h-149v198l567 221q296 109 517 330q-98 92 -488 92q-325 0 -483 88v102q486 303 926 605v15q2 17 -12.5 27t-47.5 10q-68 -12 -205 -34q-167 -26 -499 -117 q-196 -59 -225 -59h-183zM752 18q0 42 144 243q38 52 62.5 85t50 66.5t44.5 55t34 34.5q7 7 35.5 35t45 45t50 51t61 63t65 70t74.5 82q92 106 344.5 414.5t419.5 506.5l266 314q18 20 148 176q59 120 84 164q3 3 18.5 20.5t52.5 59.5t73 82q711 788 936 788q15 0 114 -99 q-21 -58 -180 -158q-12 -8 -27 -17.5t-30 -19.5t-34.5 -22t-38.5 -24t-42.5 -27.5t-45.5 -30.5q-101 -70 -247 -243q-701 -836 -2212 -2754q-63 -73 -103 -73q-21 0 -70 10q-48 15 -66 15q-23 91 -25 92q-1 0 -1 -4zM2326 693q0 110 185 328q93 112 161.5 178t124.5 92h105 q5 -59 46 -105q-79 -73 -190 -194q-106 -111 -112 -236q93 -63 140 -63q32 0 126 22q109 23 130 23q8 0 24.5 -2.5t46 -6.5t57.5 -7q105 -11 133 -11q58 0 81 23q41 36 166 247q136 235 169 279q20 16 46.5 40t71.5 65.5t71 65.5h126q25 -31 25 -81q0 -20 -122 -164 q-133 -159 -152 -191t-82.5 -133.5t-107.5 -175.5q-116 -198 -126 -331q-75 -41 -177 -296q-34 -86 -68 -155t-64 -114.5t-57 -70.5h-84q0 21 -22 94q-25 68 -25 92q0 82 232 541q-33 85 -148 85q-21 0 -207 -25q-166 -24 -203 -24q-320 0 -320 211z" />
<glyph unicode="&#xbf;" horiz-adv-x="2628" d="M180 295q0 309 403 513q135 50 666 254q252 98 672 140q285 28 302 36q50 23 56 152q6 65 11 180q31 138 63 340q6 34 19.5 143.5t26.5 187.5q32 183 148 288q108 -44 108 -115q0 -16 -31 -92q-32 -73 -32 -85q-21 -239 -49 -439q-48 -371 -63 -722q-70 -39 -253 -55 q-25 -3 -69.5 -6.5t-100 -8t-108.5 -11.5q-46 -6 -221.5 -38t-309.5 -53q-84 -25 -208 -78q-778 -315 -778 -520q0 -229 578 -229q234 0 833 119q324 65 358 65q71 0 195 -50q-6 -63 -47 -105q-390 -88 -988 -209q-60 -11 -135 -26t-113.5 -22.5t-78.5 -15t-58.5 -10.5 t-25.5 -3q-241 0 -486 117q-284 142 -284 358zM2491 3089q0 49 42 108q39 50 88 50q75 0 133 -50q63 -55 63 -123t-101 -169h-70q-39 0 -99 70q-56 70 -56 114z" />
<glyph unicode="&#xc0;" horiz-adv-x="2214" d="M155 -74q0 60 9.5 123.5t22.5 116t39.5 119t46 110.5t57 114.5t58 106.5t62.5 109q28 64 62 152t66 176.5t64.5 178t68 179.5t67.5 159q389 852 752 1465v-56q91 38 130 214q39 159 120 159q4 3 18 3q17 0 32 -9.5t27.5 -28.5t21.5 -46q12 -24 52 -211 q191 -822 344 -1611q20 -113 106 -560q33 -67 99 -232q25 -72 85 -347q32 -133 47.5 -222.5t15.5 -128.5q0 -64 -40 -94.5t-122 -30.5q-70 0 -85 8q-604 615 -1175 615q-130 0 -531 -99q-120 -32 -221 -218q-33 -65 -126 -302q-39 -31 -117 -67q-56 56 -56 155zM686 700 q0 -30 7.5 -44t21.5 -12l505 24q293 14 560 -97q183 -73 499 -297v106q0 61 -105 615l-172 936q-88 451 -261 908q-229 -245 -620 -1161q-3 -10 -44 -105t-74 -176q-68 -98 -78 -114q-25 -40 -133 -295q-106 -243 -106 -288zM869 3605q0 56 11 67t70 11q94 0 292 -115 q498 -292 841 -522q3 -4 8.5 -12t9.5 -12q0 -21 -36 -57q-65 -60 -130 -60q-33 0 -148 56l-154 77q-147 72 -335 216q-196 152 -351 197q-78 98 -78 154z" />
<glyph unicode="&#xc1;" horiz-adv-x="2214" d="M155 -74q0 60 9.5 123.5t22.5 116t39.5 119t46 110.5t57 114.5t58 106.5t62.5 109q28 64 62 152t66 176.5t64.5 178t68 179.5t67.5 159q389 852 752 1465v-56q91 38 130 214q39 159 120 159q4 3 18 3q17 0 32 -9.5t27.5 -28.5t21.5 -46q12 -24 52 -211 q191 -822 344 -1611q20 -113 106 -560q33 -67 99 -232q25 -72 85 -347q32 -133 47.5 -222.5t15.5 -128.5q0 -64 -40 -94.5t-122 -30.5q-70 0 -85 8q-604 615 -1175 615q-130 0 -531 -99q-120 -32 -221 -218q-33 -65 -126 -302q-39 -31 -117 -67q-56 56 -56 155zM571 2540 q0 86 100 133q44 23 95.5 48t112 54t95.5 46q134 99 324 217l225 110l137 88l135 78q5 0 13.5 2t22.5 6.5t27.5 9.5t36 13t40.5 14q104 -67 104 -119q0 -2 -21 -16t-70.5 -43t-115.5 -65q-154 -90 -316 -175q-20 -10 -138 -73t-206 -110q-4 -3 -13.5 -10.5l-19 -15t-25 -19 t-30.5 -22.5q-298 -225 -409 -225q-53 0 -78.5 17.5t-25.5 56.5zM686 700q0 -30 7.5 -44t21.5 -12l505 24q293 14 560 -97q183 -73 499 -297v106q0 61 -105 615l-172 936q-88 451 -261 908q-229 -245 -620 -1161q-3 -10 -44 -105t-74 -176q-68 -98 -78 -114 q-25 -40 -133 -295q-106 -243 -106 -288z" />
<glyph unicode="&#xc2;" horiz-adv-x="2241" d="M155 -74q0 60 9.5 123.5t22.5 116t39.5 119t46 110.5t57 114.5t58 106.5t62.5 109q28 64 62 152t66 176.5t64.5 178t68 179.5t67.5 159q389 852 752 1465v-56q91 38 130 214q39 159 120 159q4 3 18 3q17 0 32 -9.5t27.5 -28.5t21.5 -46q12 -24 52 -211 q191 -822 344 -1611q20 -113 106 -560q33 -67 99 -232q25 -72 85 -347q32 -133 47.5 -222.5t15.5 -128.5q0 -64 -40 -94.5t-122 -30.5q-70 0 -85 8q-604 615 -1175 615q-130 0 -531 -99q-120 -32 -221 -218q-33 -65 -126 -302q-39 -31 -117 -67q-56 56 -56 155zM686 700 q0 -30 7.5 -44t21.5 -12l505 24q293 14 560 -97q183 -73 499 -297v106q0 61 -105 615l-172 936q-88 451 -261 908q-229 -245 -620 -1161q-3 -10 -44 -105t-74 -176q-68 -98 -78 -114q-25 -40 -133 -295q-106 -243 -106 -288zM904 3645q0 46 91 112q122 78 134 95 q4 5 13 17.5t25 34t34 46t47 64t57 77.5q27 36 122 108q123 83 143 99q30 30 82 123q46 94 69 117q59 59 144 59q108 0 162 -99q103 -187 225 -392q127 -224 284 -364q7 -11 7 -63q0 -137 -136 -137q-45 0 -85 26q-30 83 -162 181q-1 0 -6.5 9.5t-18.5 32.5t-26.5 48t-40 72 t-48.5 89q-123 228 -191 228q-25 0 -391 -354q-371 -350 -410 -350q-42 0 -81 40q-43 43 -43 81z" />
<glyph unicode="&#xc3;" horiz-adv-x="2251" d="M155 -74q0 60 9.5 123.5t22.5 116t39.5 119t46 110.5t57 114.5t58 106.5t62.5 109q28 64 62 152t66 176.5t64.5 178t68 179.5t67.5 159q389 852 752 1465v-56q91 38 130 214q39 159 120 159q4 3 18 3q17 0 32 -9.5t27.5 -28.5t21.5 -46q12 -24 52 -211 q191 -822 344 -1611q20 -113 106 -560q33 -67 99 -232q25 -72 85 -347q32 -133 47.5 -222.5t15.5 -128.5q0 -64 -40 -94.5t-122 -30.5q-70 0 -85 8q-604 615 -1175 615q-130 0 -531 -99q-120 -32 -221 -218q-33 -65 -126 -302q-39 -31 -117 -67q-56 56 -56 155zM464 3409 q0 129 296 373q290 239 423 239q18 0 432 -228q415 -233 435 -233q3 0 10.5 -1t15.5 -2t18.5 -1.5t20.5 -0.5t20 2.5t18 6.5q16 10 39.5 17.5t42.5 11.5t20 5q17 -1 30.5 8t40 25t66.5 27q8 3 211 165q166 128 198 128q119 0 119 -124q0 -105 -240 -285q-183 -135 -347 -207 q-187 -77 -445 -77q-18 0 -298.5 221.5t-417.5 221.5q-123 0 -339 -211q-210 -205 -239 -205q-39 0 -85 40q-45 45 -45 84zM686 700q0 -30 7.5 -44t21.5 -12l505 24q293 14 560 -97q183 -73 499 -297v106q0 61 -105 615l-172 936q-88 451 -261 908q-229 -245 -620 -1161 q-3 -10 -44 -105t-74 -176q-68 -98 -78 -114q-25 -40 -133 -295q-106 -243 -106 -288z" />
<glyph unicode="&#xc4;" horiz-adv-x="2214" d="M155 -74q0 60 9.5 123.5t22.5 116t39.5 119t46 110.5t57 114.5t58 106.5t62.5 109q28 64 62 152t66 176.5t64.5 178t68 179.5t67.5 159q389 852 752 1465v-56q91 38 130 214q39 159 120 159q4 3 18 3q17 0 32 -9.5t27.5 -28.5t21.5 -46q12 -24 52 -211 q191 -822 344 -1611q20 -113 106 -560q33 -67 99 -232q25 -72 85 -347q32 -133 47.5 -222.5t15.5 -128.5q0 -64 -40 -94.5t-122 -30.5q-70 0 -85 8q-604 615 -1175 615q-130 0 -531 -99q-120 -32 -221 -218q-33 -65 -126 -302q-39 -31 -117 -67q-56 56 -56 155zM686 700 q0 -30 7.5 -44t21.5 -12l505 24q293 14 560 -97q183 -73 499 -297v106q0 61 -105 615l-172 936q-88 451 -261 908q-229 -245 -620 -1161q-3 -10 -44 -105t-74 -176q-68 -98 -78 -114q-25 -40 -133 -295q-106 -243 -106 -288zM792 2945l67 115l133 88l191 7q57 -49 72 -117.5 t-13 -139.5q-9 -24 -20.5 -41.5t-24 -29t-36.5 -30.5q-5 -5 -16.5 -17t-16.5 -17t-15.5 -13.5t-18 -12.5t-19 -8t-24.5 -6q-17 -3 -35 2t-38 11.5t-38 6.5q-35 5 -71 0q-19 0 -32 8.5t-29 27.5q-18 23 -12 60zM1579 2965q3 31 22.5 49.5t58 37.5t57.5 33q13 9 41.5 30t40 29 t34.5 22t46 27l193 -81q6 -29 25 -93q1 -5 2.5 -10t3.5 -8.5l4 -7t3.5 -8.5t2.5 -10h4q-19 -51 -42 -84t-66 -70q-58 -46 -98.5 -65t-96.5 -16q-36 3 -62.5 11t-50.5 23t-49 39l-48 58q-25 40 -25 94z" />
<glyph unicode="&#xc5;" horiz-adv-x="2214" d="M155 -74q0 60 9.5 123.5t22.5 116t39.5 119t46 110.5t57 114.5t58 106.5t62.5 109q28 64 62 152t66 176.5t64.5 178t68 179.5t67.5 159q389 852 752 1465v-56q91 38 130 214q39 159 120 159q4 3 18 3q17 0 32 -9.5t27.5 -28.5t21.5 -46q12 -24 52 -211 q191 -822 344 -1611q20 -113 106 -560q33 -67 99 -232q25 -72 85 -347q32 -133 47.5 -222.5t15.5 -128.5q0 -64 -40 -94.5t-122 -30.5q-70 0 -85 8q-604 615 -1175 615q-130 0 -531 -99q-120 -32 -221 -218q-33 -65 -126 -302q-39 -31 -117 -67q-56 56 -56 155zM686 700 q0 -30 7.5 -44t21.5 -12l505 24q293 14 560 -97q183 -73 499 -297v106q0 61 -105 615l-172 936q-88 451 -261 908q-229 -245 -620 -1161q-3 -10 -44 -105t-74 -176q-68 -98 -78 -114q-25 -40 -133 -295q-106 -243 -106 -288zM1062 3701q0 189 211 432q202 239 379 239 q210 0 375 -81q6 -4 185 -140l29 -391q5 -19 -50 -88l-20 -26t-17 -21.5t-12.5 -15t-8 -10t-2.5 -4.5q-9 -33 -52 -116q-72 -103 -207 -183q-123 -81 -243 -81q-168 0 -283 56q-87 45 -185 190q-99 148 -99 240zM1341 3728q0 -53 97 -123q93 -66 159 -66q133 0 235 92 q107 85 107 210q0 142 -81 173q-33 11 -211 11q-95 0 -198 -103q-108 -108 -108 -194z" />
<glyph unicode="&#xc6;" horiz-adv-x="4732" d="M32 99q0 97 126 274q23 29 86.5 116t106.5 145q94 167 320 523q98 202 152 303q294 459 813 1323q49 129 63 165q44 119 162 119q51 0 299 -45q249 -39 299 -39q75 0 567 -18q541 -20 572 -20q125 0 214 20q23 2 240 70q165 57 209 57q41 0 136 -63v-21q0 -95 27 -184 q-448 -200 -550 -200l-335 18l-1231 67q-134 7 -227 -12t-137.5 -58.5t-44.5 -95.5q0 -53 40 -261q26 -151 100 -498q22 -104 53 -157.5t68 -53.5q12 0 37 2.5t67 6.5t81 7q128 15 188 15h1168q13 -3 50.5 -11.5t106 -24.5t134.5 -31q177 -37 177 -196q0 -71 -25 -149 q-41 0 -130 32q-90 36 -106 36l-873 94q-13 0 -105 -13q-74 -14 -106 -14q-11 0 -66 30q-46 25 -71 25q-110 0 -493 -133v-106q0 -26 85 -335q19 -65 45.5 -153.5t39.5 -130t21 -63.5q26 -70 95 -70q36 0 67 41q65 14 182 14h1632q32 0 229 -45q189 -43 229 -43q25 0 32 4 l56 -67v-95q-144 -45 -236 -45q-38 0 -52 3q-360 29 -690 29q-677 0 -1054 -47q-45 -3 -265 -63q-12 -2 -35 -8q-171 -40 -208 -40q-110 0 -166 97q-1 3 -7 35l-22.5 120t-33.5 173q-3 43 -129 552q-6 21 -23 93.5t-29 124.5q-11 26 -51 77q-118 -24 -464 -45 q-296 -21 -450 -77q-42 -18 -112 -113q-54 -81 -99 -141q-192 -258 -567 -947h-151q-31 37 -31 121zM1186 1552q184 21 344 21q136 0 295 -18v148q0 51 -77 165q14 36 14 71q0 70 -41 203q-18 52 -32.5 98.5t-22.5 75t-10 33.5q-3 -5 -24.5 -38t-51 -78t-80.5 -122.5 t-107 -161.5q-180 -268 -207 -397z" />
<glyph unicode="&#xc7;" horiz-adv-x="3000" d="M106 1334q0 504 499 911q308 251 943 541q88 42 237 112.5t202 94.5q247 110 468 110q34 0 99 -7q-5 -61 -47 -103q-490 -198 -538 -214q-227 -79 -277 -95q-36 -43 -88 -96l-351 -178q-666 -341 -841 -781q-14 -28 -57 -187q-38 -143 -38 -162q0 -330 277 -612 q235 -241 545 -337q186 -61 620 -61q96 0 475 43l900 92l25 -131q-132 -55 -328 -101q-19 -4 -58.5 -16t-59.5 -17l-350 -99q-60 -18 -446 -45q-375 -18 -499 -18q-285 0 -405 67q-642 358 -829 778q-78 176 -78 511zM970 -1062v-166l51 -36q10 2 36.5 4t73.5 6t93 8 q169 15 203 15l-9 1q3 3 35 6q10 2 25.5 5l31 6t33.5 6.5t39.5 6.5t42.5 5q61 6 116 10t106.5 6.5t62.5 3.5q324 21 487.5 135.5t163.5 314.5q0 71 -102 313q-38 25 -119 106q-80 69 -131 85q-179 40 -247 88q6 58 77 225q62 141 62 196q0 99 -92 99q-56 0 -195 -250 q-71 -128 -106.5 -202t-40.5 -111q-7 -134 -7 -148q57 -51 219 -95q208 -65 270 -105q133 -81 133 -225q0 -31 -38.5 -61t-116 -59.5t-196.5 -59.5q-283 -70 -446 -70q-89 0 -212 22q-47 5 -96 12.5t-73 11t-31 3.5l-56 43q0 -27 -25 -78q-22 -62 -22 -77z" />
<glyph unicode="&#xc8;" horiz-adv-x="2358" d="M137 328q0 63 47 383q27 208 108 734q-60 47 -60 144v58q4 32 4 63q66 20 115.5 165t75.5 361.5t34 486.5q-25 12 -48 8.5t-56 -9.5t-64 -11t-72.5 3t-80.5 33v155q42 69 152 81q158 10 180 18q23 7 81 70q63 63 95 63q14 0 90 -31q65 -29 95 -29q14 2 95.5 10.5 t185.5 18.5t220 20q209 22 851 70q60 12 137 40q28 8 61 18.5t47.5 15t21.5 4.5q15 0 113 -13q94 -11 108 -11q99 -7 419 -7l27 -74q-74 -26 -189 -110q-36 4 -120 4q-311 0 -1008 -112l-416 -64q-28 0 -133 10q-46 7 -79 8.5t-66 -3t-57 -10t-73 -16.5t-92 -20 q-37 -7 -50.5 -10t-39.5 -9.5t-36 -11t-24.5 -12.5t-22 -17t-13.5 -21q-48 -100 -88 -423q-32 -232 -32 -400q0 -22 39 -124q330 51 447 51h1035v-159q-100 -11 -272 -11q-126 0 -263 4q-133 4 -257 4q-169 0 -416 -103q-7 -1 -27.5 -5.5t-45.5 -10.5t-67.5 -15t-84.5 -18 q-147 -27 -193 -117q-84 -747 -84 -1047q64 -82 129 -92l288 -63q109 0 313 18q402 34 906 34q88 0 207 -7l88 -4q59 -15 59 -55v-92q-110 -49 -415 -49q-59 0 -148 -32q-88 -34 -97 -34q-42 0 -155 14q-12 2 -31 4.5t-29.5 4t-25 3.5t-23.5 3t-19 1.5t-17 0.5t-13 -1h-29 q-127 -11 -475 -59q-207 -25 -247 -25q-102 0 -302 124q-218 139 -218 236zM682 3947q0 56 11 67t70 11q97 0 292 -114q477 -279 840 -523q3 -3 6 -7l6 -8t6 -7q0 -22 -37 -59q-65 -60 -128 -60q-33 0 -148 56l-155 77q-145 71 -336 218q-194 149 -349 195q-78 98 -78 154z " />
<glyph unicode="&#xc9;" horiz-adv-x="2358" d="M137 328q0 63 47 383q27 208 108 734q-60 47 -60 144v58q4 32 4 63q66 20 115.5 165t75.5 361.5t34 486.5q-25 12 -48 8.5t-56 -9.5t-64 -11t-72.5 3t-80.5 33v155q42 69 152 81q158 10 180 18q23 7 81 70q63 63 95 63q14 0 90 -31q65 -29 95 -29q14 2 95.5 10.5 t185.5 18.5t220 20q209 22 851 70q60 12 137 40q28 8 61 18.5t47.5 15t21.5 4.5q15 0 113 -13q94 -11 108 -11q99 -7 419 -7l27 -74q-74 -26 -189 -110q-36 4 -120 4q-311 0 -1008 -112l-416 -64q-28 0 -133 10q-46 7 -79 8.5t-66 -3t-57 -10t-73 -16.5t-92 -20 q-37 -7 -50.5 -10t-39.5 -9.5t-36 -11t-24.5 -12.5t-22 -17t-13.5 -21q-48 -100 -88 -423q-32 -232 -32 -400q0 -22 39 -124q330 51 447 51h1035v-159q-100 -11 -272 -11q-126 0 -263 4q-133 4 -257 4q-169 0 -416 -103q-7 -1 -27.5 -5.5t-45.5 -10.5t-67.5 -15t-84.5 -18 q-147 -27 -193 -117q-84 -747 -84 -1047q64 -82 129 -92l288 -63q109 0 313 18q402 34 906 34q88 0 207 -7l88 -4q59 -15 59 -55v-92q-110 -49 -415 -49q-59 0 -148 -32q-88 -34 -97 -34q-42 0 -155 14q-12 2 -31 4.5t-29.5 4t-25 3.5t-23.5 3t-19 1.5t-17 0.5t-13 -1h-29 q-127 -11 -475 -59q-207 -25 -247 -25q-102 0 -302 124q-218 139 -218 236zM704 3116q0 86 99 131q44 23 95.5 48t111.5 54t95 46q125 93 326 218l225 109l135 90l137 78q14 0 140 43q103 -66 103 -117q0 -2 -20.5 -16.5t-70.5 -44t-114 -65.5q-107 -62 -319 -173 q-31 -16 -144.5 -78t-197.5 -107q-43 -33 -88 -65q-298 -225 -409 -225q-53 0 -78.5 17.5t-25.5 56.5z" />
<glyph unicode="&#xca;" horiz-adv-x="2358" d="M137 328q0 63 47 383q27 208 108 734q-60 47 -60 144v58q4 32 4 63q66 20 115.5 165t75.5 361.5t34 486.5q-25 12 -48 8.5t-56 -9.5t-64 -11t-72.5 3t-80.5 33v155q42 69 152 81q158 10 180 18q23 7 81 70q63 63 95 63q14 0 90 -31q65 -29 95 -29q14 2 95.5 10.5 t185.5 18.5t220 20q209 22 851 70q60 12 137 40q28 8 61 18.5t47.5 15t21.5 4.5q15 0 113 -13q94 -11 108 -11q99 -7 419 -7l27 -74q-74 -26 -189 -110q-36 4 -120 4q-311 0 -1008 -112l-416 -64q-28 0 -133 10q-46 7 -79 8.5t-66 -3t-57 -10t-73 -16.5t-92 -20 q-37 -7 -50.5 -10t-39.5 -9.5t-36 -11t-24.5 -12.5t-22 -17t-13.5 -21q-48 -100 -88 -423q-32 -232 -32 -400q0 -22 39 -124q330 51 447 51h1035v-159q-100 -11 -272 -11q-126 0 -263 4q-133 4 -257 4q-169 0 -416 -103q-7 -1 -27.5 -5.5t-45.5 -10.5t-67.5 -15t-84.5 -18 q-147 -27 -193 -117q-84 -747 -84 -1047q64 -82 129 -92l288 -63q109 0 313 18q402 34 906 34q88 0 207 -7l88 -4q59 -15 59 -55v-92q-110 -49 -415 -49q-59 0 -148 -32q-88 -34 -97 -34q-42 0 -155 14q-12 2 -31 4.5t-29.5 4t-25 3.5t-23.5 3t-19 1.5t-17 0.5t-13 -1h-29 q-127 -11 -475 -59q-207 -25 -247 -25q-102 0 -302 124q-218 139 -218 236zM553 3940q0 46 91 112q122 78 134 95q6 8 25 34t64 87.5t87 118.5q27 35 122 108q133 89 144 99q29 28 81 120q46 95 71 119q59 59 144 59q107 0 162 -100q89 -162 225 -391q129 -227 282 -364 q9 -13 9 -63q0 -136 -137 -136q-44 0 -84 25q-31 84 -162 182q-1 0 -6.5 9t-18.5 32t-27 48t-40 72.5t-49 88.5q-122 228 -192 228q-25 0 -391 -354q-371 -349 -408 -349q-42 0 -81 39q-45 45 -45 81z" />
<glyph unicode="&#xcb;" horiz-adv-x="2358" d="M137 328q0 63 47 383q27 208 108 734q-60 47 -60 144v58q4 32 4 63q66 20 115.5 165t75.5 361.5t34 486.5q-25 12 -48 8.5t-56 -9.5t-64 -11t-72.5 3t-80.5 33v155q42 69 152 81q158 10 180 18q23 7 81 70q63 63 95 63q14 0 90 -31q65 -29 95 -29q14 2 95.5 10.5 t185.5 18.5t220 20q209 22 851 70q60 12 137 40q28 8 61 18.5t47.5 15t21.5 4.5q15 0 113 -13q94 -11 108 -11q99 -7 419 -7l27 -74q-74 -26 -189 -110q-36 4 -120 4q-311 0 -1008 -112l-416 -64q-28 0 -133 10q-46 7 -79 8.5t-66 -3t-57 -10t-73 -16.5t-92 -20 q-37 -7 -50.5 -10t-39.5 -9.5t-36 -11t-24.5 -12.5t-22 -17t-13.5 -21q-48 -100 -88 -423q-32 -232 -32 -400q0 -22 39 -124q330 51 447 51h1035v-159q-100 -11 -272 -11q-126 0 -263 4q-133 4 -257 4q-169 0 -416 -103q-7 -1 -27.5 -5.5t-45.5 -10.5t-67.5 -15t-84.5 -18 q-147 -27 -193 -117q-84 -747 -84 -1047q64 -82 129 -92l288 -63q109 0 313 18q402 34 906 34q88 0 207 -7l88 -4q59 -15 59 -55v-92q-110 -49 -415 -49q-59 0 -148 -32q-88 -34 -97 -34q-42 0 -155 14q-12 2 -31 4.5t-29.5 4t-25 3.5t-23.5 3t-19 1.5t-17 0.5t-13 -1h-29 q-127 -11 -475 -59q-207 -25 -247 -25q-102 0 -302 124q-218 139 -218 236zM630 2941l67 115l133 89l191 7q57 -49 72 -118t-13 -140q-13 -34 -29.5 -53.5t-51.5 -46.5q-5 -6 -16.5 -17.5l-16.5 -16.5t-15.5 -13.5t-18 -12.5t-19 -8t-24.5 -6q-17 -3 -35 1.5t-38 11.5t-38 7 q-35 5 -71 0q-20 0 -33.5 8.5t-29.5 27.5q-17 21 -10 59zM1415 2961q2 24 17 42t32.5 27.5t45.5 23.5t45 28q13 8 41.5 29t40 29t34.5 22.5t46 27.5l193 -83q4 -24 25 -92q2 -9 7.5 -21.5t6.5 -21.5h4q-19 -53 -41.5 -85.5t-64.5 -69.5q-58 -46 -98.5 -64.5t-96.5 -16.5 q-36 4 -63 12t-51.5 23t-48.5 39l-47 57q-27 44 -27 94z" />
<glyph unicode="&#xcc;" horiz-adv-x="894" d="M56 4000q0 55 10.5 66t70.5 11q96 0 291 -113q477 -280 841 -524q4 -4 9 -12t9 -12q0 -19 -38 -57q-64 -60 -128 -60q-33 0 -147 56l-155 78q-145 71 -337 217q-193 150 -349 195q-77 99 -77 155zM155 549q0 58 48 495q68 609 144 995q90 434 233 733h81q54 -43 54 -117 q-6 -24 -21.5 -94t-44.5 -198t-59 -259q-267 -1186 -252 -2041q-24 -4 -57 -31q-126 148 -126 517z" />
<glyph unicode="&#xcd;" horiz-adv-x="1362" d="M-7 2245q0 87 99 133q58 31 172.5 85.5t129.5 61.5q134 100 324 218l225 110l137 88l137 78q5 0 13.5 2t22.5 6.5t27.5 9t36 12.5t40.5 15q103 -66 103 -119q0 -2 -21.5 -16t-71 -43t-114.5 -65q-154 -90 -317 -175q-26 -14 -65.5 -35t-77.5 -41.5t-93 -50t-106 -57.5 q-4 -2 -18 -13t-32 -25t-38 -28q-298 -225 -411 -225q-53 0 -77.5 17.5t-24.5 56.5zM513 524q0 72 47 493q68 609 144 995q90 437 232 735h81q56 -45 56 -119q-1 -4 -126 -549q-266 -1179 -250 -2043q-30 -5 -60 -29q-124 146 -124 517z" />
<glyph unicode="&#xce;" horiz-adv-x="1153" d="M56 3215q0 24 22 49.5t70 60.5q120 77 133 97q6 8 25 34t64.5 87.5t86.5 117.5q24 31 123 106q122 83 142 99q26 26 81 123q44 91 70 117q59 59 144 59q108 0 162 -99q89 -162 225 -390q130 -228 284 -366q8 -11 8 -63q0 -68 -34 -101.5t-103 -33.5q-44 0 -85 25 q-29 82 -162 180q-1 0 -6.5 9.5t-18.5 32.5t-26.5 48t-39.5 72t-49 89q-123 228 -191 228q-5 0 -33 -22.5t-76 -65t-120.5 -111t-161.5 -154.5q-185 -174 -288 -262.5t-122 -88.5q-40 0 -81 42q-43 43 -43 81zM310 549q0 58 48 495q68 609 144 995q90 434 232 733h81 q54 -43 54 -117q-5 -24 -21 -94t-44.5 -198t-58.5 -259q-268 -1186 -252 -2041q-24 -4 -57 -31q-126 148 -126 517z" />
<glyph unicode="&#xcf;" horiz-adv-x="1260" d="M25 2621l67 115l133 88l191 7q57 -49 72 -117.5t-13 -139.5q-9 -24 -20.5 -41.5t-24 -29t-36.5 -30.5q-5 -5 -16.5 -17t-16.5 -17t-15.5 -13.5t-18 -12.5t-19 -8t-24.5 -6q-22 -3 -56.5 7.5t-54.5 10.5q-35 5 -70 0q-20 0 -32.5 9t-29.5 29q-18 23 -12 60zM338 524 q0 56 49 493q68 609 144 995q90 437 232 735h81q56 -45 56 -119q-1 -4 -126 -549q-266 -1179 -250 -2043q-30 -5 -60 -29q-126 148 -126 517zM812 2639q2 24 17 42.5t32 28t44.5 24t44.5 27.5q8 6 29 21t27.5 19.5t23 15.5t26.5 17.5t25 15.5t31 17l193 -81q5 -23 25 -91 q2 -9 8.5 -22t7.5 -22h4q-13 -35 -27.5 -61t-33 -48t-47.5 -47q-39 -31 -63 -46.5t-58.5 -26t-72.5 -8.5q-54 5 -90.5 21.5t-71.5 52.5l-49 59q-25 40 -25 92z" />
<glyph unicode="&#xd0;" horiz-adv-x="4224" d="M-306 1157v152q142 99 239 99q36 0 162.5 -11t158.5 -11q36 0 232 59q7 4 148 4q102 0 158 70q0 3 4 36.5t8 74t11 111.5t14 148.5t16 186.5t17 224q12 198 18 261q16 158 83 249q-22 32 -56 32q-85 0 -133 -137q-32 7 -79 18t-115.5 27t-125.5 29q101 173 217 214 l45 7.5t52 9.5t64 12t72 13q36 19 98.5 44.5t112.5 44t158 57.5q33 3 82 10.5t144 23.5t153 25q624 112 814 112q73 0 454 -63q1029 -180 1287 -823q19 -48 88 -117v-562q0 -46 -196 -302q-220 -299 -409 -464q-96 -76 -351 -229q-747 -455 -1345 -641q-161 -53 -615 -246 q-467 -200 -634 -252q-112 -6 -299 -58q-49 -22 -111 -144q-43 -99 -124 -99q-31 0 -67 56.5t-85 175.5q62 95 152 254q41 -70 113 -70q51 0 200 52q147 48 176 77q4 49 4 152q0 135 -7 279q-2 57 -4 124t-3 103.5t-1 56.5q0 56 33 261q30 226 30 248q0 107 -63 107h-37 q-18 -4 -33 -4q-1 0 -24 -3.5t-73 -11t-116 -18t-165.5 -27.5t-208.5 -35q-13 -3 -31.5 -6.5t-29.5 -5t-24 -4t-20.5 -3.5t-15.5 -2.5t-13 -2t-8 -0.5q-6 0 -17.5 3t-38.5 11.5t-41 12.5q-73 25 -99 25zM914 553q0 -22 26 -152q30 -114 30 -144q83 -48 110 -109 q-45 -40 -45 -78q103 -25 221 -25q81 65 256 151q101 8 254 40q236 47 788 320q521 259 686 443q7 34 27 85q32 -44 77 -44q19 0 52 19.5t84.5 61.5t114.5 103q189 189 194 243q11 85 144 229q39 39 85 217q45 166 45 236q0 264 -267 587q-170 210 -725 331q-434 99 -826 99 q-172 0 -719 -124l-102.5 -36t-177.5 -61q-144 -313 -144 -346q0 -1 -1 -13t-2.5 -38t-3.5 -59t-5 -85t-6 -107q-29 -437 -29 -715v-27l50 -32h119q21 0 36 25q16 22 38 22h623q20 0 129 45q106 48 124 48t56 -38q33 -32 52 -32q40 0 85 4h81v-42q0 -65 43 -113 q-12 -11 -106 -105q-194 70 -194 71q-28 0 -101 -22q-73 -25 -96 -25q-27 0 -77 25q-49 22 -63 22q-275 0 -837 -144q-17 -102 -70 -490q-33 -211 -33 -221z" />
<glyph unicode="&#xd1;" horiz-adv-x="3159" d="M335 288q-6 22 281 999q86 293 327 1120l88 -4q288 -333 753 -1253q265 -524 446 -752q16 5 45 -18q418 576 767 2050q59 252 113 508q8 39 45 203q13 44 74 81q95 -51 114 -106q38 -130 -152 -857q-137 -534 -253 -887q-93 -293 -314 -785q-167 -392 -410 -558 q-45 25 -88 56q-2 3 -57 107t-183 348.5t-275 525.5q-322 602 -608 946l-558 -1902q-36 30 -110 30zM1202 3267q0 129 294 371q290 239 425 239q21 0 432 -227q239 -134 331 -184t102 -50q1 0 24.5 -2.5t44.5 -1t36 9.5q16 9 39.5 16.5t42.5 11t20 4.5q14 -1 26 4.5t22 14.5 t33.5 20.5t55.5 20.5q3 1 209 165q168 130 200 130q119 0 119 -126q0 -104 -242 -285q-180 -132 -345 -205q-187 -77 -447 -77q-20 0 -298 219q-281 222 -416 222q-126 0 -340 -209q-213 -207 -240 -207q-39 0 -84 40q-44 43 -44 86z" />
<glyph unicode="&#xd2;" horiz-adv-x="3209" d="M133 722q0 264 191 569q177 280 398 446q109 90 299 293q179 196 313 278q138 87 594 196q430 95 626 95q492 0 915 -182q549 -230 549 -648q0 -70 -71 -273q-61 -172 -109 -272q-215 -430 -690 -749q-270 -185 -862 -365q-574 -180 -911 -180h-246q-316 0 -643 239 q-353 259 -353 553zM320 796q0 -188 274 -423q269 -225 479 -225q3 0 7.5 0.5t13 2.5t15.5 4q8 0 15.5 1t12.5 1.5t6 0.5q20 0 74 -21q69 -18 77 -18q34 0 324 36q261 34 425 63q5 2 43 20t73 32t75 25q561 167 974 468q518 379 633 841q37 154 41 142l1 -2q0 144 -87 236 q-390 401 -840 401q-3 0 -8.5 -0.5t-12 -1.5t-17.5 -2.5t-20 -2.5q-19 0 -39 -1.5l-20 -1.5q-18 0 -67 21.5t-63 21.5t-113 -18q-21 -3 -48 -7t-41.5 -6t-22.5 -2q-197 0 -634 -102q-148 -35 -221 -56q-137 -48 -176 -119l-38 -117q-55 -38 -127.5 -89t-109.5 -77 t-77.5 -54.5t-61 -43.5t-29.5 -24q-204 -177 -288 -394q0 -3 -2 -22.5t-7 -64.5t-9 -93q-11 -112 -88 -144q-70 97 -96 214q-200 -332 -200 -399zM1058 3328q0 56 11 67t70 11q97 0 292 -114q477 -279 841 -524q3 -3 8.5 -10.5t9.5 -10.5q0 -22 -38 -60q-65 -59 -128 -59 q-33 0 -148 56l-154 77q-146 71 -337 218q-194 149 -349 194q-78 99 -78 155z" />
<glyph unicode="&#xd3;" horiz-adv-x="3258" d="M133 722q0 264 191 569q177 280 398 446q109 90 299 293q179 196 313 278q138 87 594 196q430 95 626 95q492 0 915 -182q549 -230 549 -648q0 -70 -71 -273q-61 -172 -109 -272q-215 -430 -690 -749q-270 -185 -862 -365q-574 -180 -911 -180h-246q-316 0 -643 239 q-353 259 -353 553zM320 796q0 -188 274 -423q269 -225 479 -225q3 0 7.5 0.5t13 2.5t15.5 4q8 0 15.5 1t12.5 1.5t6 0.5q20 0 74 -21q69 -18 77 -18q34 0 324 36q261 34 425 63q5 2 43 20t73 32t75 25q561 167 974 468q518 379 633 841q37 154 41 142l1 -2q0 144 -87 236 q-390 401 -840 401q-3 0 -8.5 -0.5t-12 -1.5t-17.5 -2.5t-20 -2.5q-19 0 -39 -1.5l-20 -1.5q-18 0 -67 21.5t-63 21.5t-113 -18q-21 -3 -48 -7t-41.5 -6t-22.5 -2q-197 0 -634 -102q-148 -35 -221 -56q-137 -48 -176 -119l-38 -117q-55 -38 -127.5 -89t-109.5 -77 t-77.5 -54.5t-61 -43.5t-29.5 -24q-204 -177 -288 -394q0 -3 -2 -22.5t-7 -64.5t-9 -93q-11 -112 -88 -144q-70 97 -96 214q-200 -332 -200 -399zM918 2153q0 87 99 133q59 31 173 85.5t129 62.5q134 99 324 217l225 110l137 88l137 78q5 0 14 2t22.5 6.5t27 9.5t36 13 t40.5 14q103 -66 103 -119q0 -2 -21.5 -16t-71 -43t-114.5 -65q-154 -90 -317 -175q-35 -19 -148 -79.5t-194 -103.5q-4 -3 -18 -14t-32 -25t-38 -28q-297 -225 -410 -225q-54 0 -78.5 17.5t-24.5 56.5z" />
<glyph unicode="&#xd4;" horiz-adv-x="3240" d="M133 722q0 264 191 569q177 280 398 446q109 90 299 293q179 196 313 278q138 87 594 196q430 95 626 95q492 0 915 -182q549 -230 549 -648q0 -70 -71 -273q-61 -172 -109 -272q-215 -430 -690 -749q-270 -185 -862 -365q-574 -180 -911 -180h-246q-316 0 -643 239 q-353 259 -353 553zM320 796q0 -188 274 -423q269 -225 479 -225q3 0 7.5 0.5t13 2.5t15.5 4q8 0 15.5 1t12.5 1.5t6 0.5q20 0 74 -21q69 -18 77 -18q34 0 324 36q261 34 425 63q5 2 43 20t73 32t75 25q561 167 974 468q518 379 633 841q37 154 41 142l1 -2q0 144 -87 236 q-390 401 -840 401q-3 0 -8.5 -0.5t-12 -1.5t-17.5 -2.5t-20 -2.5q-19 0 -39 -1.5l-20 -1.5q-18 0 -67 21.5t-63 21.5t-113 -18q-21 -3 -48 -7t-41.5 -6t-22.5 -2q-197 0 -634 -102q-148 -35 -221 -56q-137 -48 -176 -119l-38 -117q-55 -38 -127.5 -89t-109.5 -77 t-77.5 -54.5t-61 -43.5t-29.5 -24q-204 -177 -288 -394q0 -3 -2 -22.5t-7 -64.5t-9 -93q-11 -112 -88 -144q-70 97 -96 214q-200 -332 -200 -399zM1055 2884q0 24 22 49.5t70 59.5q122 79 133 96q6 8 25 34t64.5 87.5t86.5 117.5q27 36 123 108q122 83 142 99q26 26 81 123 q44 91 70 117q59 59 144 59q108 0 162 -99q89 -162 225 -391q130 -227 284 -365q8 -11 8 -63q0 -137 -137 -137q-42 0 -85 27q-29 82 -162 180q-1 0 -6.5 9t-18.5 32.5t-26.5 48t-39.5 72t-49 88.5q-123 229 -191 229q-7 0 -52.5 -38t-133.5 -119.5t-205 -195.5 q-372 -351 -410 -351q-41 0 -81 40q-43 43 -43 83z" />
<glyph unicode="&#xd5;" horiz-adv-x="3243" d="M133 722q0 264 191 569q177 280 398 446q109 90 299 293q179 196 313 278q138 87 594 196q430 95 626 95q492 0 915 -182q549 -230 549 -648q0 -70 -71 -273q-61 -172 -109 -272q-215 -430 -690 -749q-270 -185 -862 -365q-574 -180 -911 -180h-246q-316 0 -643 239 q-353 259 -353 553zM320 796q0 -188 274 -423q269 -225 479 -225q3 0 7.5 0.5t13 2.5t15.5 4q8 0 15.5 1t12.5 1.5t6 0.5q20 0 74 -21q69 -18 77 -18q34 0 324 36q261 34 425 63q5 2 43 20t73 32t75 25q561 167 974 468q518 379 633 841q37 154 41 142l1 -2q0 144 -87 236 q-390 401 -840 401q-3 0 -8.5 -0.5t-12 -1.5t-17.5 -2.5t-20 -2.5q-19 0 -39 -1.5l-20 -1.5q-18 0 -67 21.5t-63 21.5t-113 -18q-21 -3 -48 -7t-41.5 -6t-22.5 -2q-197 0 -634 -102q-148 -35 -221 -56q-137 -48 -176 -119l-38 -117q-55 -38 -127.5 -89t-109.5 -77 t-77.5 -54.5t-61 -43.5t-29.5 -24q-204 -177 -288 -394q0 -3 -2 -22.5t-7 -64.5t-9 -93q-11 -112 -88 -144q-70 97 -96 214q-200 -332 -200 -399zM1013 2956q0 128 296 372q290 240 424 240q17 0 431 -229q415 -232 435 -232q1 0 23.5 -2.5t43.5 -1.5t36 9q16 10 40 17 t43 11t21 5q17 -2 30 7t39 25t66 27q8 4 211 166q168 129 200 129q117 0 117 -126q0 -105 -240 -284q-180 -133 -345 -205q-187 -78 -447 -78q-20 0 -299 220q-280 221 -417 221q-124 0 -339 -209q-212 -207 -239 -207q-39 0 -85 40q-45 45 -45 85z" />
<glyph unicode="&#xd6;" horiz-adv-x="3250" d="M133 722q0 264 191 569q177 280 398 446q109 90 299 293q179 196 313 278q138 87 594 196q430 95 626 95q492 0 915 -182q549 -230 549 -648q0 -70 -71 -273q-61 -172 -109 -272q-215 -430 -690 -749q-270 -185 -862 -365q-574 -180 -911 -180h-246q-316 0 -643 239 q-353 259 -353 553zM320 796q0 -188 274 -423q269 -225 479 -225q3 0 7.5 0.5t13 2.5t15.5 4q8 0 15.5 1t12.5 1.5t6 0.5q20 0 74 -21q69 -18 77 -18q34 0 324 36q261 34 425 63q5 2 43 20t73 32t75 25q561 167 974 468q518 379 633 841q37 154 41 142l1 -2q0 144 -87 236 q-390 401 -840 401q-3 0 -8.5 -0.5t-12 -1.5t-17.5 -2.5t-20 -2.5q-19 0 -39 -1.5l-20 -1.5q-18 0 -67 21.5t-63 21.5t-113 -18q-21 -3 -48 -7t-41.5 -6t-22.5 -2q-197 0 -634 -102q-148 -35 -221 -56q-137 -48 -176 -119l-38 -117q-55 -38 -127.5 -89t-109.5 -77 t-77.5 -54.5t-61 -43.5t-29.5 -24q-204 -177 -288 -394q0 -3 -2 -22.5t-7 -64.5t-9 -93q-11 -112 -88 -144q-70 97 -96 214q-200 -332 -200 -399zM1283 2592l67 113l131 89l193 7q57 -49 72 -118t-13 -140q-12 -33 -28.5 -52t-52.5 -47l-16 -16l-17.5 -17.5t-15 -13t-19 -13 t-19.5 -8t-24 -5.5q-14 -3 -28.5 -0.5t-25 6.5t-26 8t-30.5 4q-35 5 -70 0q-20 0 -33.5 9t-29.5 28q-17 22 -11 58zM2068 2610q3 32 23 50.5t59.5 38t58.5 33.5q8 7 24.5 18.5t23.5 16.5t20.5 14.5t22 15t20.5 13t24.5 14.5t26.5 15l190 -81q4 -16 8 -30t10 -32t9 -30 q2 -9 7.5 -22.5t7.5 -22.5h3q-9 -27 -19 -47t-22.5 -38.5t-27.5 -34.5t-37 -35q-57 -45 -98.5 -64t-97.5 -17q-54 5 -90 21.5t-72 52.5l-49 59q-25 41 -25 92z" />
<glyph unicode="&#xd7;" horiz-adv-x="1720" d="M41 306q18 72 81 176q21 13 152 112q20 16 52.5 43.5t88.5 75t98 83.5q59 35 169 108q121 77 121 136q0 6 -22 39t-71.5 98.5t-115.5 149.5t-114 149t-70.5 99t-22.5 40q0 30 41 77q42 41 78 41q91 0 216 -174q21 -29 81 -112t97 -135q25 -38 124 -137l369 267 q137 98 229.5 148t128.5 50q53 0 92 -51v-108q-648 -469 -648 -534q0 -85 301 -380v-103q-96 -52 -146 -52q-23 0 -193 200q-171 196 -190 196t-359 -277q-28 -23 -81 -65q-155 -125 -213.5 -170.5t-66.5 -45.5q-41 0 -206 56z" />
<glyph unicode="&#xd8;" horiz-adv-x="2881" d="M88 1231q78 62 78 88q0 11 -18 35q-15 19 -15 36q0 279 493 552q387 212 764 303q37 10 115 10h50h3h2h3h3h2h3h3h2h3h3h3h3h3h3h3h3h4h7q75 0 281 -36q228 -34 275 -34q30 0 99.5 40t192.5 124l232 162h193q11 -50 21 -137q-304 -199 -414 -295q326 -331 326 -715 q0 -150 -56 -320q-9 -30 -43.5 -131.5t-58.5 -174.5q-131 -396 -429 -509q-138 -56 -372 -107q-269 -63 -373 -63q-19 0 -92 22t-92 22q-16 0 -59 -11t-59 -11q-6 0 -15 1t-23.5 4.5t-27 6.5t-36.5 9t-39.5 10.5t-49 13.5t-52.5 14q-201 56 -240 56q-122 0 -275 -435h-105 q-5 30 -73 99q185 357 185 442q0 10 -8.5 28t-28 47t-48.5 62q-17 22 -115 141q-82 120 -99 264v292l-23 47q-22 37 -22 48zM362 970q0 -136 81 -259q41 -75 169 -121q215 321 619 708q203 196 682 648q-228 56 -291 56q11 0 -232 -33q-9 -11 -23 -31t-33 -45.5t-36 -49.5 q-247 -5 -454 -106q-209 -99 -306 -263q-41 -68 -66 -176q-8 -38 -67 -159q-43 -100 -43 -169zM826 509q0 -44 71 -80t215 -67q222 -49 373 -49q68 0 317 49q202 38 311 74q178 56 313 367q132 297 132 561q0 161 -74 306q-82 191 -212 191q-104 0 -776 -626 q-670 -624 -670 -726z" />
<glyph unicode="&#xd9;" horiz-adv-x="2948" d="M95 1393q0 257 105 549q127 349 306 436q82 39 128 39q30 0 30 -57q0 5 -17 -27t-54 -105.5t-88 -178.5t-125 -258q-74 -150 -74 -419q0 -393 302 -760q314 -394 693 -394h99q393 0 859 225q458 223 734 507q193 199 324 461q17 32 33.5 64.5t37.5 78t31 67t37.5 84 t33.5 75.5q74 241 74 495q0 224 -110 261q-3 11 -3 38q0 131 84 131q16 0 38 -10q155 -55 155 -443q0 -117 -155 -663q-81 -276 -241 -513q-311 -451 -891 -770q-591 -324 -1107 -324q-206 0 -483 155q-252 142 -401 313q-35 42 -130 211q-26 22 -81 91q0 5 -28 99 q-116 368 -116 542zM936 3362q0 56 11 67t70 11q93 0 292 -115q476 -280 840 -524q4 -4 9.5 -11t8.5 -11q0 -23 -36 -59q-62 -58 -129 -58q-37 0 -148 54l-155 78q-140 68 -335 217q-196 152 -351 197q-77 98 -77 154z" />
<glyph unicode="&#xda;" horiz-adv-x="2941" d="M95 1393q0 257 105 549q127 349 306 436q82 39 128 39q30 0 30 -57q0 5 -17 -27t-54 -105.5t-88 -178.5t-125 -258q-74 -150 -74 -419q0 -393 302 -760q314 -394 693 -394h99q393 0 859 225q458 223 734 507q193 199 324 461q17 32 33.5 64.5t37.5 78t31 67t37.5 84 t33.5 75.5q74 241 74 495q0 224 -110 261q-3 11 -3 38q0 131 84 131q16 0 38 -10q155 -55 155 -443q0 -117 -155 -663q-81 -276 -241 -513q-311 -451 -891 -770q-591 -324 -1107 -324q-206 0 -483 155q-252 142 -401 313q-35 42 -130 211q-26 22 -81 91q0 5 -28 99 q-116 368 -116 542zM893 2182q0 87 99 133q58 31 172.5 85.5t129.5 61.5q134 100 324 218l225 110l137 88l137 78q8 0 23.5 4.5t53.5 18.5t61 22q105 -67 105 -117q0 -2 -21 -16.5t-71.5 -44.5t-114.5 -65q-123 -72 -317 -173q-32 -17 -146 -79t-198 -107q-4 -2 -18 -13 t-32 -25t-38 -28q-297 -225 -409 -225q-53 0 -77.5 17.5t-24.5 56.5z" />
<glyph unicode="&#xdb;" horiz-adv-x="2948" d="M95 1393q0 257 105 549q127 349 306 436q82 39 128 39q30 0 30 -57q0 5 -17 -27t-54 -105.5t-88 -178.5t-125 -258q-74 -150 -74 -419q0 -393 302 -760q314 -394 693 -394h99q393 0 859 225q458 223 734 507q193 199 324 461q17 32 33.5 64.5t37.5 78t31 67t37.5 84 t33.5 75.5q74 241 74 495q0 224 -110 261q-3 11 -3 38q0 131 84 131q16 0 38 -10q155 -55 155 -443q0 -117 -155 -663q-81 -276 -241 -513q-311 -451 -891 -770q-591 -324 -1107 -324q-206 0 -483 155q-252 142 -401 313q-35 42 -130 211q-26 22 -81 91q0 5 -28 99 q-116 368 -116 542zM679 3299q0 24 21.5 50t69.5 60q120 77 134 97q6 8 25 34t64 87.5t87 118.5q23 31 122 106q133 89 144 99q26 26 81 122q48 99 69 119q57 58 144 58q108 0 162 -99q89 -162 225 -391q129 -227 284 -365q7 -11 7 -63q0 -69 -33.5 -102t-102.5 -33 q-45 0 -85 25q-30 81 -162 180q-1 0 -4 5t-9.5 16t-14.5 25.5t-20 37t-25 46t-31 57t-36 65.5q-123 229 -191 229q-25 0 -391 -355q-373 -351 -410 -351q-40 0 -81 41q-43 44 -43 81z" />
<glyph unicode="&#xdc;" horiz-adv-x="2941" d="M95 1393q0 257 105 549q127 349 306 436q82 39 128 39q30 0 30 -57q0 5 -17 -27t-54 -105.5t-88 -178.5t-125 -258q-74 -150 -74 -419q0 -393 302 -760q314 -394 693 -394h99q393 0 859 225q458 223 734 507q193 199 324 461q17 32 33.5 64.5t37.5 78t31 67t37.5 84 t33.5 75.5q74 241 74 495q0 224 -110 261q-3 11 -3 38q0 131 84 131q16 0 38 -10q155 -55 155 -443q0 -117 -155 -663q-81 -276 -241 -513q-311 -451 -891 -770q-591 -324 -1107 -324q-206 0 -483 155q-252 142 -401 313q-35 42 -130 211q-26 22 -81 91q0 5 -28 99 q-116 368 -116 542zM1035 2632l67 115l133 88l192 7q57 -49 71.5 -118t-13.5 -139q-7 -18 -14 -31.5t-18 -25.5t-21 -21t-28 -23q-5 -5 -16.5 -17t-16.5 -17t-15.5 -13.5t-18 -12.5t-19 -8t-24.5 -6q-14 -2 -28.5 0.5t-25.5 7t-27 8.5t-30 4q-36 5 -71 0q-19 0 -32 8.5 t-29 27.5q-17 21 -11 59zM1822 2651q3 32 23 50.5t59 37.5t58 33q8 5 28.5 20t27.5 20t23 16t26 17t25.5 15t31.5 18l191 -81q4 -23 25 -92q2 -9 8 -21.5t8 -21.5h4q-19 -51 -42 -84t-66 -71q-58 -45 -98.5 -64t-96.5 -17q-53 6 -89.5 22t-72.5 52l-48 58q-25 40 -25 93z " />
<glyph unicode="&#xdd;" horiz-adv-x="1953" d="M203 2655q0 263 103 360q38 -23 74 -54v-108q0 -740 309 -740q345 0 918 349q94 59 381.5 241t488.5 308h81q25 -122 30 -113q0 -64 -235 -252q-126 -99 -303 -239q-27 -22 -178 -173l-409 -582q-306 -431 -655 -1085q-74 -140 -97 -220q-27 -113 -74 -259 q-36 -131 -144 -221h-120q-53 46 -53 126q0 66 260 587q144 280 441 784q160 267 457 774q-29 -4 -67.5 -14.5t-92 -29t-109.5 -40t-136 -52.5q-252 -99 -405 -99q-251 0 -373 264q-92 200 -92 488zM594 3800q0 56 11 66.5t70 10.5q96 0 292 -113q476 -280 840 -524 q3 -3 6 -7l6 -8t6 -7q0 -21 -38 -59q-64 -59 -127 -59q-34 0 -148 55l-155 78q-145 71 -336 218q-194 149 -350 194q-77 99 -77 155z" />
<glyph unicode="&#xde;" horiz-adv-x="2019" d="M59 196q0 9 7 77t22.5 229t30.5 328q86 901 142 1308q28 277 81 634q36 251 79 380t88 129q53 0 80 -43t27 -126q0 -95 -119 -695q64 -36 129 -36q49 0 285 45q227 44 284 44q325 0 592 -89q377 -127 377 -383q0 -526 -701 -781q-46 -17 -200.5 -85t-259.5 -111 q-67 -27 -314 -74q-214 -44 -288 -103q-43 -32 -43 -133q0 -369 96 -405l-99 14q-20 -52 -20 -198q-6 -155 -11 -181q-31 -96 -140 -128q-125 118 -125 383zM383 1269q0 -69 25.5 -103t77.5 -34q15 0 91 27.5t193 78.5q50 23 351 96q406 97 610 256t204 376q0 137 -272 216 q-214 59 -390 59q-146 0 -414 -50q-303 -67 -377 -141q-99 -487 -99 -781z" />
<glyph unicode="&#xdf;" horiz-adv-x="2012" d="M74 -4q11 29 29 92q34 94 34 151q0 37 -11 159q-1 31 -3 69.5t-3 59t-1 29.5v643q0 33 14 81q16 61 22 66q52 353 52 965q0 448 70 700q19 70 113 135.5t258 120.5q263 95 477 95q-8 0 12 -7q44 -15 242 -70q171 -45 306 -225q137 -184 137 -355q0 -278 -207 -507 q-80 -89 -377 -306q-203 -142 -203 -245q0 -53 167 -166q51 -35 114 -84q174 -104 435 -276q30 -18 65.5 -64t86.5 -128q91 -144 91 -214q0 -101 -122 -240q-99 -114 -209 -187q-18 -6 -178 -77q-59 -59 -202 -170q-214 -137 -453 -270h-92q-52 35 -52 74q0 97 513 461 q511 363 511 419q0 141 -173 249q-196 112 -281 165q-482 309 -482 542q0 125 401 486q404 363 404 499q0 194 -144 317q-145 117 -377 117q-148 0 -313 -51q-104 -35 -166 -74.5t-86 -90.5q-68 -129 -68 -539q0 -6 0.5 -18t1.5 -26t2.5 -37t2.5 -45q7 -66 7 -129 q0 -81 -81 -852l-45 -401q0 -42 45 -250q43 -205 43 -259q0 -14 -21 -81q-18 -75 -18 -92q0 -51 7 -106q7 -60 7 -112q-15 0 -88 -32q-11 -4 -26.5 -10t-23 -9t-17 -6t-15.5 -4.5t-10 -1.5q-41 0 -83 41q-39 40 -39 81z" />
<glyph unicode="&#xe0;" horiz-adv-x="1819" d="M88 254q0 201 436 464q407 252 626 252q89 0 162 -101v-77q-35 -50 -81 -50q-20 0 -63 21q-48 22 -66 22q-70 0 -328 -148q-202 -110 -328 -205q-80 -70 -108 -162q69 -63 152 -63q71 0 432 151q365 151 471 151q118 0 169 -59q22 -33 90 -162q68 -120 143 -200v-81 q-34 -56 -78 -56q-51 0 -198 175q-136 176 -218 176q-3 0 -18.5 -5t-53.5 -20t-74 -29t-112.5 -44t-135.5 -53q-382 -151 -509 -151q-89 0 -198 88q-112 90 -112 166zM335 1780q0 54 12 67q11 11 69 11q96 0 291 -114q477 -279 841 -524q4 -3 9 -10.5t9 -10.5q0 -24 -36 -60 q-65 -59 -130 -59q-33 0 -147 56l-155 77q-141 69 -335 218q-192 148 -351 194q-77 99 -77 155z" />
<glyph unicode="&#xe1;" horiz-adv-x="1827" d="M88 254q0 201 436 464q407 252 626 252q89 0 162 -101v-77q-35 -50 -81 -50q-20 0 -63 21q-48 22 -66 22q-70 0 -328 -148q-202 -110 -328 -205q-80 -70 -108 -162q69 -63 152 -63q71 0 432 151q365 151 471 151q118 0 169 -59q22 -33 90 -162q68 -120 143 -200v-81 q-34 -56 -78 -56q-51 0 -198 175q-136 176 -218 176q-3 0 -18.5 -5t-53.5 -20t-74 -29t-112.5 -44t-135.5 -53q-382 -151 -509 -151q-89 0 -198 88q-112 90 -112 166zM292 1109q0 87 99 133q58 31 172.5 85.5t129.5 62.5q134 99 324 217l225 110l137 90l137 78q13 0 140 43 q103 -66 103 -117q0 -2 -21.5 -16.5t-71.5 -44.5t-114 -65q-123 -71 -317 -173q-31 -17 -144.5 -78.5t-197.5 -106.5q-60 -45 -90 -67q-298 -225 -409 -225q-53 0 -77.5 17.5t-24.5 56.5z" />
<glyph unicode="&#xe2;" horiz-adv-x="1850" d="M88 254q0 201 436 464q407 252 626 252q89 0 162 -101v-77q-35 -50 -81 -50q-20 0 -63 21q-48 22 -66 22q-70 0 -328 -148q-202 -110 -328 -205q-80 -70 -108 -162q69 -63 152 -63q71 0 432 151q365 151 471 151q118 0 169 -59q22 -33 90 -162q68 -120 143 -200v-81 q-34 -56 -78 -56q-51 0 -198 175q-136 176 -218 176q-3 0 -18.5 -5t-53.5 -20t-74 -29t-112.5 -44t-135.5 -53q-382 -151 -509 -151q-89 0 -198 88q-112 90 -112 166zM292 1987q0 24 21.5 50t69.5 60q120 77 134 97q4 5 13 17.5t25 34t34 46t47 64t57 78.5q23 31 122 106 q123 83 143 99q30 30 82 122q46 95 69 117q59 60 144 60q108 0 162 -99q89 -162 225 -391q129 -228 284 -365q7 -11 7 -63q0 -46 -15 -76t-45 -44.5t-76 -14.5q-45 0 -85 25q-30 81 -162 180q-1 0 -6.5 9t-18.5 32.5t-26.5 48t-40 72t-48.5 88.5q-123 229 -191 229 q-8 0 -53 -38t-133 -120t-205 -195q-373 -351 -410 -351q-40 0 -81 41q-43 43 -43 81z" />
<glyph unicode="&#xe3;" horiz-adv-x="1830" d="M88 254q0 201 436 464q407 252 626 252q89 0 162 -101v-77q-35 -50 -81 -50q-20 0 -63 21q-48 22 -66 22q-70 0 -328 -148q-202 -110 -328 -205q-80 -70 -108 -162q69 -63 152 -63q71 0 432 151q365 151 471 151q118 0 169 -59q22 -33 90 -162q68 -120 143 -200v-81 q-34 -56 -78 -56q-51 0 -198 175q-136 176 -218 176q-3 0 -18.5 -5t-53.5 -20t-74 -29t-112.5 -44t-135.5 -53q-382 -151 -509 -151q-89 0 -198 88q-112 90 -112 166zM243 2012q0 129 295 373q290 239 425 239q17 0 430 -228q416 -232 436 -232q1 0 23.5 -3.5t43.5 -2.5 t35 9q16 10 40 17.5t42.5 11.5t20.5 5q17 -1 30.5 7.5t40 24t66.5 26.5q2 1 210 167q166 128 200 128q117 0 117 -124q0 -105 -239 -284q-186 -138 -346 -207q-187 -78 -446 -78q-18 0 -299 221.5t-418 221.5q-122 0 -338 -211q-211 -205 -239 -205q-40 0 -85 40 q-45 45 -45 84z" />
<glyph unicode="&#xe4;" horiz-adv-x="1830" d="M88 254q0 201 436 464q407 252 626 252q89 0 162 -101v-77q-35 -50 -81 -50q-20 0 -63 21q-48 22 -66 22q-70 0 -328 -148q-202 -110 -328 -205q-80 -70 -108 -162q69 -63 152 -63q71 0 432 151q365 151 471 151q118 0 169 -59q22 -33 90 -162q68 -120 143 -200v-81 q-34 -56 -78 -56q-51 0 -198 175q-136 176 -218 176q-3 0 -18.5 -5t-53.5 -20t-74 -29t-112.5 -44t-135.5 -53q-382 -151 -509 -151q-89 0 -198 88q-112 90 -112 166zM362 1361l66 113l132 88l192 8q58 -50 73 -118.5t-13 -139.5q-13 -33 -29.5 -52t-51.5 -47l-14.5 -14.5 t-15 -14.5t-13 -12t-15 -12t-15.5 -9t-18.5 -7.5t-20.5 -4.5q-17 -3 -35 1.5t-37 10.5t-38 6q-35 5 -70 0q-8 0 -15.5 2t-13.5 5t-12 8.5t-11 10.5t-11 12q-17 21 -11 58zM1147 1379q3 31 23 50t59 38.5t58 33.5q8 6 28.5 21t27.5 19.5t23 15.5t26 17.5t25.5 15.5t31.5 17 l191 -81q3 -16 7 -29.5t10 -31.5l10 -30q2 -9 7 -22.5t7 -22.5h4q-19 -53 -41.5 -86t-64.5 -69q-58 -45 -99.5 -64.5t-97.5 -16.5q-53 5 -89.5 21.5t-72.5 52.5l-48 59q-25 40 -25 92z" />
<glyph unicode="&#xe5;" horiz-adv-x="1834" d="M88 254q0 201 436 464q407 252 626 252q89 0 162 -101v-77q-35 -50 -81 -50q-20 0 -63 21q-48 22 -66 22q-70 0 -328 -148q-202 -110 -328 -205q-80 -70 -108 -162q69 -63 152 -63q71 0 432 151q365 151 471 151q118 0 169 -59q22 -33 90 -162q68 -120 143 -200v-81 q-34 -56 -78 -56q-51 0 -198 175q-136 176 -218 176q-3 0 -18.5 -5t-53.5 -20t-74 -29t-112.5 -44t-135.5 -53q-382 -151 -509 -151q-89 0 -198 88q-112 90 -112 166zM538 2101q0 189 211 432q202 239 380 239q211 0 376 -81q6 -4 22 -16t35.5 -27t55.5 -43.5t70 -53.5 l29 -391q5 -19 -50 -88q-15 -20 -30.5 -40t-22.5 -28t-7 -10q-9 -32 -52 -115q-73 -105 -205 -183q-123 -81 -245 -81q-168 0 -282 55q-88 46 -186 191q-99 147 -99 240zM819 2128q0 -55 95 -123q94 -66 159 -66q133 0 236 91q106 86 106 211q0 141 -81 173q-38 12 -209 12 q-95 0 -200 -104q-106 -106 -106 -194z" />
<glyph unicode="&#xe6;" horiz-adv-x="2836" d="M25 981q0 92 105 124q85 29 257 60q214 45 247 45q156 0 685 -288q58 49 155 180q90 117 186 158q211 86 507 86q125 0 247 -178q108 -155 108 -275q0 -140 -222 -245q-112 -57 -432 -135q-140 -34 -205 -53t-77 -32q31 -65 243 -181q200 -114 299 -114h570l78 -63v-70 q-379 -95 -539 -95q-73 0 -257 32q-158 33 -250 67q-53 26 -157 102q-112 81 -149 81q6 0 -14 -13q-27 -19 -227 -138q-256 -155 -317 -155h-151q-182 0 -299 90q-114 86 -114 229q0 142 166 243q79 38 351 128q276 94 331 133q-72 96 -221 173q-267 122 -339 122 q-68 0 -457 -133q-26 8 -46.5 19.5t-34 26.5t-20.5 32t-7 37zM556 158q82 -45 193 -45q161 0 261 49q80 41 185 169v88h-101q-54 0 -268 -72q-177 -59 -270 -104v-85zM1562 693h123q100 0 324 70q241 71 284 126q-32 153 -41 162q-33 85 -151 85q-10 0 -121 -18 q-92 -20 -133 -20q-22 -10 -57 -42t-109 -106q-119 -129 -119 -154v-103z" />
<glyph unicode="&#xe7;" horiz-adv-x="1893" d="M74 439q0 214 309 384q452 239 564 239l228 -22q-27 0 -32 -41q-2 -18 -3.5 -34t-2.5 -23.5t-1 -9.5q-159 -48 -457 -194q-351 -185 -351 -277q0 -173 439 -222q98 -11 106 -7l907 137l31 -31v-84q-102 -60 -218 -88q-225 -43 -513 -89q-227 -32 -265 -32q-233 0 -453 92 q-288 111 -288 302zM302 -1024q0 15 22 77q27 54 27 78l54 -45q1 0 200 -26q133 -23 214 -23q161 0 445 70q351 89 351 182q0 144 -134 225q-58 37 -268 103q-164 44 -221 95q0 14 7 148q5 37 40.5 111t107.5 202q139 252 194 252q45 0 69.5 -26t24.5 -75t-63 -194 q-72 -167 -78 -225q68 -48 247 -89q50 -15 133 -86q85 -85 117 -106q104 -246 104 -313q0 -200 -164 -314.5t-489 -135.5q-15 -1 -63 -3t-104.5 -5.5t-116.5 -9.5q-35 -4 -67 -9t-64 -11.5t-42 -8.5q-37 -4 -35 -8q1 -1 10 -1q-35 0 -204 -15q-46 -4 -92.5 -8t-72.5 -6 t-36 -4l-53 36v168z" />
<glyph unicode="&#xe8;" horiz-adv-x="1854" d="M88 583q0 271 232 420q208 126 483 126q242 0 389 -108q142 -105 142 -287q0 -100 -342 -221q-143 -49 -217 -73.5t-165.5 -47.5t-130.5 -19q0 -7 -7 -10.5t-20 -9.5t-24 -15q18 -31 247 -88q21 -5 43.5 -9t41.5 -7t42 -4.5t38 -2.5t37 -1.5t31.5 -0.5h28h21.5h572 l166 -27l48 -7q66 -34 103 -96q-67 -77 -177 -77h-635q-219 0 -493 63q-180 45 -280 99.5t-122 121.5q-52 144 -52 281zM99 1913q0 56 11 67t70 11q93 0 292 -115q498 -292 840 -522q4 -4 9.5 -12t8.5 -12q0 -21 -36 -57q-64 -60 -129 -60q-34 0 -148 56l-155 77 q-147 72 -335 216q-196 152 -351 197q-77 98 -77 154zM317 641q0 -27 9.5 -56t24.5 -40h113q37 0 122.5 21.5t209.5 67.5q81 31 152.5 72.5t103 66t50.5 42.5q-103 103 -321 103q-157 0 -291 -63q-173 -80 -173 -214z" />
<glyph unicode="&#xe9;" horiz-adv-x="1843" d="M7 1202q0 86 99 132q59 31 173.5 85.5t129.5 61.5q124 93 325 218l224 112l136 88l137 77q14 0 141 44q102 -66 102 -117q0 -3 -20.5 -17t-70.5 -44t-114 -65q-106 -62 -319 -173q-31 -17 -144.5 -79t-197.5 -107q-43 -32 -88 -64q-297 -225 -410 -225q-53 0 -78 17.5 t-25 55.5zM88 583q0 271 232 420q208 126 483 126q242 0 389 -108q142 -105 142 -287q0 -100 -342 -221q-143 -49 -217 -73.5t-165.5 -47.5t-130.5 -19q0 -7 -7 -10.5t-20 -9.5t-24 -15q18 -31 247 -88q21 -5 43.5 -9t41.5 -7t42 -4.5t38 -2.5t37 -1.5t31.5 -0.5h28h21.5 h572l166 -27l48 -7q66 -34 103 -96q-67 -77 -177 -77h-635q-219 0 -493 63q-180 45 -280 99.5t-122 121.5q-52 144 -52 281zM317 641q0 -27 9.5 -56t24.5 -40h113q37 0 122.5 21.5t209.5 67.5q81 31 152.5 72.5t103 66t50.5 42.5q-103 103 -321 103q-157 0 -291 -63 q-173 -80 -173 -214z" />
<glyph unicode="&#xea;" horiz-adv-x="1864" d="M-4 2061q0 16 10 33t30 35.5t52 41.5q120 77 133 97q7 8 26 34t64 87.5t87 117.5q23 32 122 107q132 89 144 99q26 25 81 122q45 91 70 117q60 59 143 59q110 0 163 -99q90 -162 225 -390q132 -231 283 -366q7 -10 7 -63q0 -69 -33 -102.5t-102 -33.5q-43 0 -86 27 q-30 81 -162 180q-1 0 -6.5 9t-18.5 32t-27 48t-40 72.5t-49 88.5q-122 228 -190 228q-8 0 -53 -38t-133 -119.5t-205 -194.5q-373 -351 -409 -351q-39 0 -81 41q-45 45 -45 81zM88 583q0 271 232 420q208 126 483 126q242 0 389 -108q142 -105 142 -287q0 -100 -342 -221 q-143 -49 -217 -73.5t-165.5 -47.5t-130.5 -19q0 -7 -7 -10.5t-20 -9.5t-24 -15q18 -31 247 -88q21 -5 43.5 -9t41.5 -7t42 -4.5t38 -2.5t37 -1.5t31.5 -0.5h28h21.5h572l166 -27l48 -7q66 -34 103 -96q-67 -77 -177 -77h-635q-219 0 -493 63q-180 45 -280 99.5t-122 121.5 q-52 144 -52 281zM317 641q0 -27 9.5 -56t24.5 -40h113q37 0 122.5 21.5t209.5 67.5q81 31 152.5 72.5t103 66t50.5 42.5q-103 103 -321 103q-157 0 -291 -63q-173 -80 -173 -214z" />
<glyph unicode="&#xeb;" horiz-adv-x="1854" d="M88 583q0 271 232 420q208 126 483 126q242 0 389 -108q142 -105 142 -287q0 -100 -342 -221q-143 -49 -217 -73.5t-165.5 -47.5t-130.5 -19q0 -7 -7 -10.5t-20 -9.5t-24 -15q18 -31 247 -88q21 -5 43.5 -9t41.5 -7t42 -4.5t38 -2.5t37 -1.5t31.5 -0.5h28h21.5h572 l166 -27l48 -7q66 -34 103 -96q-67 -77 -177 -77h-635q-219 0 -493 63q-180 45 -280 99.5t-122 121.5q-52 144 -52 281zM162 1552l67 115l133 88l191 7q57 -49 72 -117.5t-13 -139.5q-13 -34 -29.5 -54t-51.5 -47q-3 -3 -16.5 -17t-17.5 -17t-15.5 -13t-18.5 -13t-19 -7.5 t-25 -6.5q-17 -3 -34.5 2t-37 11.5t-37.5 6.5q-36 5 -71 0q-20 0 -33.5 9t-29.5 27q-17 21 -10 59zM317 641q0 -27 9.5 -56t24.5 -40h113q37 0 122.5 21.5t209.5 67.5q81 31 152.5 72.5t103 66t50.5 42.5q-103 103 -321 103q-157 0 -291 -63q-173 -80 -173 -214zM947 1570 q3 31 23 50t59 38.5t58 33.5q8 5 28.5 20t27.5 20t23 16t26 17t25.5 15t31.5 18l193 -81q4 -23 25 -92q2 -9 7.5 -21.5t6.5 -21.5h4q-19 -52 -41.5 -85t-64.5 -70q-39 -30 -64 -45.5t-59.5 -26t-72.5 -9.5q-28 3 -49 8t-40.5 13t-37 20.5t-35.5 30.5l-47 60q-27 43 -27 92z " />
<glyph unicode="&#xec;" horiz-adv-x="1288" d="M63 1836q0 56 11 66.5t70 10.5q93 0 292 -115q498 -292 840 -522q3 -3 6 -7.5t6 -8.5t6 -7q0 -20 -38 -58q-64 -59 -127 -59q-34 0 -148 56l-155 77q-152 74 -336 216q-198 152 -350 196q-77 99 -77 155zM439 648q16 505 114 527q7 4 21 4q111 0 126 -70q20 -77 25 -457 q10 -322 0 -472q-13 -65 -61 -216q-116 34 -221 61q-15 294 -4 623z" />
<glyph unicode="&#xed;" horiz-adv-x="1422" d="M56 1192q0 85 99 131q58 31 172.5 85.5t129.5 62.5q134 99 324 217l225 110l137 90l137 78q5 0 13 1.5t22.5 6t26.5 8.5t36.5 12.5t39.5 14.5q105 -67 105 -117q0 -1 -4 -4t-12.5 -9t-20.5 -14t-29.5 -18.5t-38 -22.5t-47 -27t-55.5 -31q-123 -71 -317 -173 q-31 -17 -144.5 -78.5t-197.5 -106.5q-60 -45 -90 -67q-295 -223 -409 -223q-53 0 -77.5 17.5t-24.5 56.5zM671 648q17 505 114 527q7 4 23 4q109 0 124 -70q20 -77 26 -457q9 -322 0 -472q-13 -65 -62 -216q-116 34 -221 61q-15 294 -4 623z" />
<glyph unicode="&#xee;" horiz-adv-x="1459" d="M29 2101q0 44 93 111q119 77 132 96q21 26 178 239q29 39 121 108q132 89 144 99q28 28 81 121q46 94 70 118q59 60 144 60q107 0 162 -101q89 -162 225 -391q127 -223 284 -363q7 -11 7 -63q0 -137 -136 -137q-45 0 -85 25q-30 84 -162 182q-1 0 -6.5 9t-18.5 32.5 t-26.5 48t-40 72t-48.5 88.5q-123 229 -193 229q-25 0 -391 -355q-185 -174 -287 -261.5t-121 -87.5q-42 0 -81 40q-45 45 -45 81zM630 648q4 125 13.5 221.5t24.5 162.5t34.5 102t42.5 41q7 4 22 4q110 0 126 -70q20 -77 25 -457q9 -322 0 -472q-10 -50 -63 -216 q-116 34 -221 61q-15 294 -4 623z" />
<glyph unicode="&#xef;" horiz-adv-x="1260" d="M25 1625l67 116l133 88l191 7q57 -49 72 -118t-13 -139q-12 -34 -29 -54t-52 -47q-5 -6 -14 -15.5t-14 -14t-13.5 -12t-14.5 -12t-15 -9t-18.5 -7t-20.5 -4.5q-22 -4 -56.5 8t-54.5 12q-35 5 -70 0q-20 0 -33 8.5t-29 27.5q-18 23 -12 59zM461 648q16 505 113 527 q7 4 24 4q108 0 124 -70q22 -84 27 -457q9 -322 0 -472q-10 -50 -63 -216q-116 34 -222 61q-15 294 -3 623zM812 1643q3 32 22.5 51t58.5 38.5t57 33.5q8 5 29 20t27.5 20t23 16t26.5 17l25 15t31 18l193 -81q5 -23 25 -92q2 -9 8.5 -21.5t7.5 -21.5h4q-19 -52 -42 -84.5 t-66 -70.5q-60 -46 -99.5 -65.5t-94.5 -17.5q-36 4 -63 12t-51 23t-48 39l-49 60q-25 40 -25 91z" />
<glyph unicode="&#xf0;" horiz-adv-x="2037" d="M126 563q0 233 121 391q22 34 93 99t209 182q148 131 232 196q65 40 457 212q-136 338 -316 539q-107 -28 -200 -148q-123 -158 -162 -198h-103q-52 41 -52 92q0 59 207 288q211 227 211 232q0 18 -130 211q-10 15 -28 43q-98 152 -98 162q0 89 19.5 131.5t61.5 42.5 q28 0 81.5 -52.5t125.5 -154.5q149 -210 200 -210q29 0 493 254q493 268 587 298q0 -26 50 -124q-64 -17 -212 -84q-48 -68 -141 -152q-21 -10 -158 -66q-506 -215 -506 -414q0 -89 250 -454q48 -72 63 -99q106 -284 162 -453t56 -195q0 -198 -162 -484q-164 -281 -338 -378 q-428 -241 -668 -241q-190 0 -306 178q-99 147 -99 356zM335 608q0 -160 69.5 -242t207.5 -82q258 0 545 296q288 296 288 552q0 41 -52 195q-50 132 -95 207q-323 -219 -837 -634q-126 -121 -126 -292z" />
<glyph unicode="&#xf1;" horiz-adv-x="1846" d="M126 187q0 681 169 724q49 -25 60 -67q4 -59 -24 -475l-3 -27q63 64 133 119q231 207 552 419q416 263 605 263q55 0 99 -56q49 -62 49 -113q0 -59 -36 -432q-50 -483 -78 -708q-5 -30 -59 -30q-34 0 -64 45t-51 133q-33 132 -33 239q0 58 44 285q48 227 48 279 q0 108 -59 108q-71 0 -313 -130q-213 -111 -306 -180q-160 -119 -413 -399q-45 -59 -147 -166q-42 -47 -169 -47v121v7q-4 25 -4 88zM284 2198q0 127 296 371q292 241 423 241q18 0 432 -229q415 -232 433 -232q2 0 24.5 -3t44 -2t36.5 9q16 9 39.5 16.5t42.5 11t20 4.5 q14 -1 26 4.5t22 14t33.5 20.5t55.5 20q8 4 211 166q168 130 198 130q119 0 119 -126q0 -105 -240 -285q-177 -131 -347 -205q-187 -77 -447 -77q-18 0 -298 221q-279 220 -416 220q-126 0 -340 -209q-213 -207 -240 -207q-37 0 -84 41q-44 43 -44 85zM355 844q3 -7 3 -18 q0 4 -1.5 9.5t-1.5 8.5z" />
<glyph unicode="&#xf2;" horiz-adv-x="2174" d="M110 450q0 94 111 194q89 63 292 267q126 152 475 254q289 84 546 84q67 0 207 -63q127 -57 183 -113q51 -51 115 -200q58 -133 58 -216q0 -199 -77 -329q-78 -127 -528 -247q-395 -106 -606 -106q-245 0 -485 117q-291 142 -291 358zM342 425q0 -96 232 -175 q197 -66 322 -66q204 0 522 73q308 68 436 207q59 60 59 207q0 133 -158 254q-147 115 -292 115q-27 0 -419 -77q-151 -32 -277 -119q-142 -103 -235.5 -182t-141.5 -139t-48 -98zM520 2065q0 55 11 66t70 11q94 0 292 -115q498 -292 840 -522q4 -4 9.5 -12t8.5 -12 q0 -19 -37 -57q-65 -60 -128 -60q-37 0 -148 54l-155 78q-145 71 -336 218q-198 152 -349 196q-78 99 -78 155z" />
<glyph unicode="&#xf3;" horiz-adv-x="2199" d="M110 450q0 94 111 194q89 63 292 267q126 152 475 254q289 84 546 84q67 0 207 -63q127 -57 183 -113q51 -51 115 -200q58 -133 58 -216q0 -199 -77 -329q-78 -127 -528 -247q-395 -106 -606 -106q-245 0 -485 117q-291 142 -291 358zM342 425q0 -96 232 -175 q197 -66 322 -66q204 0 522 73q308 68 436 207q59 60 59 207q0 133 -158 254q-147 115 -292 115q-27 0 -419 -77q-151 -32 -277 -119q-142 -103 -235.5 -182t-141.5 -139t-48 -98zM376 1242q0 88 99 133q59 31 173.5 85.5t129.5 62.5q134 99 324 218l225 109l136 89l137 77 q5 0 14 2t23 6.5t27 9.5t36 13t41 14q102 -66 102 -119q0 -2 -21 -16t-71 -43t-115 -65q-154 -89 -317 -175q-35 -19 -148 -79.5t-194 -103.5q-3 -3 -17 -14t-32.5 -24.5t-38.5 -28.5q-297 -225 -410 -225q-36 0 -58.5 7.5t-33.5 24t-11 42.5z" />
<glyph unicode="&#xf4;" horiz-adv-x="2214" d="M110 450q0 94 111 194q89 63 292 267q126 152 475 254q289 84 546 84q67 0 207 -63q127 -57 183 -113q51 -51 115 -200q58 -133 58 -216q0 -199 -77 -329q-78 -127 -528 -247q-395 -106 -606 -106q-245 0 -485 117q-291 142 -291 358zM342 425q0 -96 232 -175 q197 -66 322 -66q204 0 522 73q308 68 436 207q59 60 59 207q0 133 -158 254q-147 115 -292 115q-27 0 -419 -77q-151 -32 -277 -119q-142 -103 -235.5 -182t-141.5 -139t-48 -98zM560 2286q0 16 10 33t29.5 35.5t52.5 41.5q122 78 133 95q4 5 178 241q26 35 121 107 q132 89 144 99q25 25 81 122q44 91 70 117q59 59 144 59q108 0 162 -99q89 -162 225 -390q129 -228 284 -366q7 -10 7 -63q0 -136 -136 -136q-42 0 -85 27q-30 81 -162 180q-1 0 -6.5 9t-18.5 32t-26.5 48t-40 72.5t-48.5 88.5q-123 228 -193 228q-7 0 -52.5 -38 t-133.5 -119.5t-205 -194.5q-372 -351 -408 -351q-40 0 -81 41q-45 45 -45 81z" />
<glyph unicode="&#xf5;" horiz-adv-x="2241" d="M110 450q0 94 111 194q89 63 292 267q126 152 475 254q289 84 546 84q67 0 207 -63q127 -57 183 -113q51 -51 115 -200q58 -133 58 -216q0 -199 -77 -329q-78 -127 -528 -247q-395 -106 -606 -106q-245 0 -485 117q-291 142 -291 358zM342 425q0 -96 232 -175 q197 -66 322 -66q204 0 522 73q308 68 436 207q59 60 59 207q0 133 -158 254q-147 115 -292 115q-27 0 -419 -77q-151 -32 -277 -119q-142 -103 -235.5 -182t-141.5 -139t-48 -98zM428 2153q0 130 294 372q290 240 425 240q18 0 432 -229q415 -232 433 -232q2 0 24.5 -3 t44 -2t36.5 9q16 9 39.5 16.5t42.5 11t20 4.5q17 -1 30.5 8t40 25t66.5 26q3 2 209 166q168 130 200 130q119 0 119 -126q0 -102 -242 -283q-186 -137 -345 -207q-187 -77 -447 -77q-18 0 -298.5 221t-415.5 221q-124 0 -340 -210q-213 -207 -240 -207q-37 0 -84 41 q-44 43 -44 85z" />
<glyph unicode="&#xf6;" horiz-adv-x="2147" d="M110 450q0 94 111 194q89 63 292 267q126 152 475 254q289 84 546 84q67 0 207 -63q127 -57 183 -113q51 -51 115 -200q58 -133 58 -216q0 -199 -77 -329q-78 -127 -528 -247q-395 -106 -606 -106q-245 0 -485 117q-291 142 -291 358zM342 425q0 -96 232 -175 q197 -66 322 -66q204 0 522 73q308 68 436 207q59 60 59 207q0 133 -158 254q-147 115 -292 115q-27 0 -419 -77q-151 -32 -277 -119q-142 -103 -235.5 -182t-141.5 -139t-48 -98zM509 1681l65 114l133 90l193 7q57 -49 71.5 -119t-13.5 -140q-9 -24 -21 -41.5t-24 -28 t-36 -29.5l-17.5 -17.5l-16.5 -16.5t-15 -13.5t-18 -12.5t-19.5 -8t-23.5 -6q-22 -4 -56 7t-54 11q-35 5 -70 0q-20 0 -33.5 9t-29.5 29q-17 21 -11 57zM1294 1699q3 32 23 51t59.5 38t58.5 34l28 20t27.5 19.5t23 16t26.5 17.5l25 15t32 18l190 -81q4 -16 8 -30t10 -32 t9 -30q2 -7 5 -15t5.5 -15.5t4.5 -14.5h3q-18 -52 -41.5 -84.5t-66.5 -70.5q-58 -45 -98 -64t-96 -17q-54 6 -90 22t-72 52l-49 59q-25 41 -25 92z" />
<glyph unicode="&#xf7;" horiz-adv-x="2311" d="M151 823v154q134 74 598 74q17 0 -1 -1q-81 -3 -1 -8q163 -9 945 -25q33 -5 176 23q133 22 171 22q88 0 206 -196q-14 -42 -92 -92q-75 -59 -114 -59q-10 0 -77 23q-60 18 -74 18q-4 0 -12 -0.5t-16.5 -1.5t-24 -2.5t-28.5 -2.5q-62 -11 -83 -11q-33 0 -232 47 q-185 45 -228 45q-15 0 -58 -22q-41 -23 -59 -23l-166 7q-20 5 -126 11q-117 12 -133 12q-32 0 -187 -23q-124 -18 -188 -18q-123 0 -196 49zM936 436q0 124 155 124q53 0 151 -51v-122q0 -25 -59 -67q-69 -36 -92 -36q-45 0 -99 54q-56 51 -56 98zM1080 1404q4 11 9.5 27 t11 31.5t13.5 38.5t15 43q27 85 102 85q54 0 92 -106q34 -89 34 -148q0 -26 -56 -140q-11 12 -36.5 20t-52 14.5t-53.5 18.5t-48.5 41.5t-30.5 74.5z" />
<glyph unicode="&#xf8;" horiz-adv-x="2001" d="M137 531q0 247 155 443q152 186 423 272q102 29 262 45q26 0 78 18q56 18 84 18q21 0 88.5 -11t88.5 -11q38 0 189 151q156 151 201 151q116 0 116 -91q0 -31 -101 -148l-128 -144q71 -47 194 -176q60 -86 60 -263q0 -10 -18 -103q-22 -78 -22 -102q0 -236 -208 -376.5 t-622 -181.5q-209 -15 -273 -18q-57 -6 -110 -114q-14 -27 -26.5 -51.5t-21 -42t-15 -30.5l-10.5 -21t-4 -10q-108 -118 -186 -118q-15 0 -26 4.5t-18 14.5t-10 25t-3 37q0 31 57 144q60 133 60 147q0 135 -60 195q-106 110 -120 133q-74 128 -74 214zM387 718 q0 -114 41 -236q55 -151 159 -151q29 0 117 94q64 69 92 124q47 98 147 225q113 143 159 218v77h-78q-43 -12 -180 -111q-123 -92 -155 -92q-14 0 -52 11q-44 12 -50 12q-83 0 -196 -119q-4 -10 -4 -52zM851 295l200 -30l373 100q173 80 173 324q0 33 -4 89q-5 76 0 108 q-77 72 -162 72q-77 0 -299 -287q-4 -6 -106 -141.5t-175 -234.5z" />
<glyph unicode="&#xf9;" horiz-adv-x="1963" d="M92 563q0 164 70 355q33 7 59 29q12 -8 92 -78q-18 -159 -18 -246q0 -218 72 -328.5t213 -110.5q273 0 655 343q9 8 35.5 31.5t83 76t109.5 102t159.5 149t188.5 176.5h29q27 0 43 -12.5t16 -36.5q0 -74 -277 -376q-227 -252 -358 -353q-105 -81 -254 -185 q-74 -59 -247 -113q-176 -56 -270 -56q-186 0 -302 232q-99 193 -99 401zM401 1811q0 54 11 65q13 12 70 12q94 0 292 -115q477 -280 841 -524q3 -3 8.5 -10.5t9.5 -10.5q0 -24 -36 -60q-65 -59 -130 -59q-33 0 -148 56l-154 77q-141 69 -335 218q-196 151 -351 196 q-78 99 -78 155z" />
<glyph unicode="&#xfa;" horiz-adv-x="1985" d="M92 563q0 164 70 355q33 7 59 29q12 -8 92 -78q-18 -159 -18 -246q0 -218 72 -328.5t213 -110.5q273 0 655 343q9 8 35.5 31.5t83 76t109.5 102t159.5 149t188.5 176.5h29q27 0 43 -12.5t16 -36.5q0 -74 -277 -376q-227 -252 -358 -353q-105 -81 -254 -185 q-74 -59 -247 -113q-176 -56 -270 -56q-186 0 -302 232q-99 193 -99 401zM281 1186q0 88 99 133q58 31 172.5 86t129.5 62q134 100 324 218l225 110l137 90l137 77q5 0 13 2t22.5 6.5t26.5 8.5t36.5 12.5t39.5 13.5q105 -67 105 -117q0 -2 -21 -16t-71.5 -44t-114.5 -66 q-123 -71 -317 -173q-32 -17 -146 -78.5t-198 -106.5q-4 -3 -18 -14t-32 -24.5l-38 -28.5q-297 -225 -409 -225q-53 0 -77.5 17.5t-24.5 56.5z" />
<glyph unicode="&#xfb;" horiz-adv-x="1963" d="M92 563q0 164 70 355q33 7 59 29q12 -8 92 -78q-18 -159 -18 -246q0 -218 72 -328.5t213 -110.5q273 0 655 343q9 8 35.5 31.5t83 76t109.5 102t159.5 149t188.5 176.5h29q27 0 43 -12.5t16 -36.5q0 -74 -277 -376q-227 -252 -358 -353q-105 -81 -254 -185 q-74 -59 -247 -113q-176 -56 -270 -56q-186 0 -302 232q-99 193 -99 401zM331 2113q0 16 10.5 33t30.5 35.5t53 41.5q119 77 131 95q21 27 178 240q29 38 121 108q132 89 144 99q26 26 81 122q44 91 70 117q60 60 144 60q109 0 162 -99q89 -162 225 -391q130 -228 285 -365 q7 -11 7 -63q0 -137 -137 -137q-44 0 -85 25q-30 84 -162 182l-3.5 4.5t-10 16t-14 25.5t-20 36.5l-25 45t-31.5 56.5t-36 66q-122 229 -193 229q-25 0 -390 -355q-371 -349 -409 -349q-41 0 -81 39q-45 45 -45 83z" />
<glyph unicode="&#xfc;" horiz-adv-x="2012" d="M92 563q0 164 70 355q33 7 59 29q12 -8 92 -78q-18 -159 -18 -246q0 -218 72 -328.5t213 -110.5q273 0 655 343q9 8 35.5 31.5t83 76t109.5 102t159.5 149t188.5 176.5h29q27 0 43 -12.5t16 -36.5q0 -74 -277 -376q-227 -252 -358 -353q-105 -81 -254 -185 q-74 -59 -247 -113q-176 -56 -270 -56q-186 0 -302 232q-99 193 -99 401zM351 1411l65 115l133 89l193 7q57 -49 71 -118t-14 -140q-12 -34 -29 -53.5t-52 -46.5q-3 -3 -16.5 -17t-17 -17t-14.5 -12.5t-18.5 -12.5t-19 -7.5t-24.5 -5.5q-22 -4 -56.5 7t-54.5 11q-34 4 -69 0 q-20 0 -33.5 8.5t-29.5 27.5q-17 21 -10 59zM1136 1431q3 31 23 50t59 37.5t58 33.5q13 8 41.5 29t40 29t34.5 22.5t46 27.5l191 -81q3 -17 7 -31t10.5 -33t9.5 -30q2 -9 7.5 -21.5t6.5 -21.5h4q-19 -52 -42 -85t-66 -70q-58 -46 -98.5 -64.5t-95.5 -16.5q-54 5 -90.5 21.5 t-71.5 52.5l-49 57q-25 41 -25 94z" />
<glyph unicode="&#xfd;" horiz-adv-x="1632" d="M119 855q0 48 50 151h105q132 -560 374 -560q197 0 491 211q107 78 321 236q113 -37 113 -162q0 -26 -21 -105q-15 -52 -26 -95q5 -37 -7 -140q-83 -196 -236 -641q-44 -50 -189 -358q4 6 1 -2t-21 -58l-79 -221q-25 -71 -154 -384q-4 -24 -10 -56t-14 -73.5t-14 -75.5 q-35 -106 -47 -137q-38 -104 -38 -133q0 -11 7 -25q-25 -49 -127 -151h-78q-56 103 -56 147q0 179 240 785q64 174 228 556q91 176 148 299q28 96 70 189q34 48 119 290q-13 13 4 67q5 18 1.5 29.5t-14.5 11.5q-2 0 -6.5 -1t-11.5 -3.5t-14.5 -5t-19.5 -7t-23 -9 t-28.5 -11.5t-31.5 -12.5t-37 -15t-40 -16.5q-189 -81 -215 -81q-44 0 -181 -23q-124 -26 -166 -26q-142 0 -265 240q-102 200 -102 376zM457 2525q0 56 11 67t70 11q94 0 292 -115q498 -292 840 -522q4 -4 9.5 -12t8.5 -12q0 -21 -36 -57q-64 -60 -129 -60q-37 0 -148 54 l-155 78q-140 68 -334 217q-197 152 -351 197q-78 98 -78 154z" />
<glyph unicode="&#xfe;" horiz-adv-x="2329" d="M-4 -943q0 18 40 47q5 506 13 696q11 460 46 690q3 13 11 49t15 68t15.5 83t14.5 102q7 57 28 237t47.5 399t57.5 451q17 137 141 245q155 -43 155 -221q0 -6 -1.5 -13t-3.5 -13t-6.5 -17t-7.5 -18.5t-9.5 -23t-9.5 -23.5q-48 -93 -52 -107q-51 -138 -51 -489 q0 -56 22 -67q7 -3 81 -3q39 0 239 54q192 59 267 73q387 78 813 78q167 0 317 -128q155 -128 155 -277q0 -156 -353 -299q-378 -155 -383 -180q-254 -77 -432 -162q-110 -46 -177 -148q-185 -23 -372 -91l-162 -31q-110 -17 -126 -85q-36 -135 -36 -383v-398q7 -41 28 -92 q0 -61 -7 -118q-4 -7 -18 -54l-37.5 21.5t-61.5 21.5q-12 0 -34 -15q-16 -10 -36 -10q-63 0 -96.5 38.5t-33.5 112.5zM347 355q0 -95 29 -130h96q24 0 390 166l450 196q48 21 157 69t150 66t121.5 55t116.5 56.5t87 47.5t81.5 50.5t53.5 45.5q-89 106 -148 117 q-139 35 -253 35q-15 0 -81 -20q-16 -3 -31.5 -7t-23 -6t-8.5 -2q-64 -4 -306 -39q-264 -41 -803 -193q-78 -109 -78 -507z" />
<glyph unicode="&#xff;" horiz-adv-x="1683" d="M119 855q0 48 50 151h105q132 -560 374 -560q197 0 491 211q107 78 321 236q113 -37 113 -162q0 -26 -21 -105q-15 -52 -26 -95q5 -37 -7 -140q-83 -196 -236 -641q-44 -50 -189 -358q4 6 1 -2t-21 -58l-79 -221q-25 -71 -154 -384q-4 -24 -10 -56t-14 -73.5t-14 -75.5 q-35 -106 -47 -137q-38 -104 -38 -133q0 -11 7 -25q-25 -49 -127 -151h-78q-56 103 -56 147q0 179 240 785q64 174 228 556q91 176 148 299q28 96 70 189q34 48 119 290q-13 13 4 67q5 18 1.5 29.5t-14.5 11.5q-2 0 -6.5 -1t-11.5 -3.5t-14.5 -5t-19.5 -7t-23 -9 t-28.5 -11.5t-31.5 -12.5t-37 -15t-40 -16.5q-189 -81 -215 -81q-44 0 -181 -23q-124 -26 -166 -26q-142 0 -265 240q-102 200 -102 376zM236 1471l66 115l134 88l190 7q58 -49 73 -117.5t-13 -139.5q-13 -34 -30 -54t-51 -47q-3 -3 -16.5 -17t-17.5 -17t-15.5 -13t-19 -13 t-19 -7.5t-24.5 -6.5q-22 -4 -55.5 8t-54.5 12q-35 5 -70 0q-20 0 -33.5 9t-29.5 27q-17 21 -11 59zM1021 1489q3 31 23 50t59 38.5t58 33.5q8 5 28.5 20t27.5 20t23 16t26 17t25.5 15t31.5 18l193 -81q4 -23 25 -92q2 -9 7 -21.5t7 -21.5h4q-19 -52 -41.5 -85t-64.5 -70 q-59 -46 -100 -65.5t-97 -16.5q-27 2 -48 7t-40.5 14t-37 21.5t-36.5 30.5l-46 60q-27 43 -27 92z" />
<glyph unicode="&#x131;" horiz-adv-x="637" d="M151 648q16 505 114 527q7 4 23 4q109 0 124 -70q22 -84 27 -457q9 -322 0 -472q-10 -50 -63 -216q-116 34 -221 61q-15 294 -4 623z" />
<glyph unicode="&#x152;" horiz-adv-x="4518" d="M99 1087q0 264 85 542q92 315 241 488q303 358 754 504q77 22 137 41q11 15 41.5 50.5t46.5 55.5q62 11 148 11h88q124 0 326 -14q328 -27 451 -33q476 -27 1214 -27h27q231 0 595 27q402 36 591 36v-133q-9 -10 -23 -23.5t-26 -25t-35 -33t-39 -35.5q-77 -66 -142 -66 q-14 0 -63 21q-43 27 -63 27q-23 0 -155 -23q-116 -22 -154 -22q-204 0 -422 4q-86 1 -186.5 3t-154.5 3t-82 1q-613 0 -858 -85q178 -204 335 -703q1 -6 88 -454q331 52 561 52q175 0 434 -41q318 -48 398 -117v-141q-17 0 -95.5 11t-98.5 11q-14 0 -71 -25 q-48 -27 -70 -27q-25 0 -39 20q-2 2 -4.5 6.5t-4.5 9t-4 9.5q-86 56 -364 56q-61 0 -266 -38q-195 -36 -265 -36q-73 0 -115 47q-217 -497 -446 -744l1445 -16q24 -8 45 -29q32 -25 47 -25h178l177 -4l3 -16q17 -125 -126 -236q-93 78 -209 78h-1474q-24 0 -144 -78 q-117 -73 -144 -73h-210q-11 27 -11 66q0 -54 11 141q-14 0 -528 -56q-247 -25 -288 -25q-292 0 -662 232q-339 208 -394 468q-31 150 -31 383zM331 1035q0 -439 411 -634q97 -47 271 -73q24 -5 137 -40q89 -27 130 -27q283 0 644 108q409 116 549 369q166 288 166 454 q0 114 -92 426q-80 289 -166 394q-97 129 -253 200q-6 3 -296 117q-43 17 -89.5 34.5t-80 30t-66.5 25.5t-56 21.5t-43 15.5t-32.5 11.5t-19.5 5.5q-28 0 -387 -173q-316 -146 -516 -435q-97 -147 -159 -398q-52 -249 -52 -432z" />
<glyph unicode="&#x153;" horiz-adv-x="3232" d="M110 493q0 137 119 267q29 35 232 203q38 54 144 149q47 30 147 45q105 16 155 35q11 3 67 46q36 31 74 31q85 0 239 -52q6 -2 59.5 -18.5t99.5 -32t95 -34.5q135 -47 183 -169q9 -3 20.5 -8t18 -8t14.5 -5.5t14 -4t11 -1.5q-22 0 30 29q71 40 261 126q345 155 528 155 q158 0 291 -144q137 -143 137 -299q0 -22 4 -47v-49q0 -122 -196 -217q-44 -22 -173 -22q-165 -11 -200 -11q-47 -15 -169 -41q-106 -22 -177 -22l-59 -47q34 -77 166 -144q122 -70 225 -70q45 0 280 51q244 52 276 52q115 0 115 -130q0 -2 -2 -26.5t-2 -43.5v-68 q-21 21 -88 21q-13 -4 -54.5 -15t-111.5 -29.5t-143 -39.5q-217 -60 -477 -60q-21 0 -350 155v22q-27 43 -95 111q-81 81 -122 81q-21 0 -188 -101q-184 -103 -225 -117q-121 -48 -351 -48q-302 0 -541 133q-281 159 -281 412zM347 517q0 -136 166 -225q147 -78 313 -78 q257 0 427 49.5t255 148.5t85 249v32q0 37 3 36q1 0 1 -4q0 85 -108 182q-28 28 -110 60q-80 36 -123 36q-144 0 -345 -29q-52 -8 -119 -45q-215 -142 -272 -180q-173 -113 -173 -232zM2009 648h380q38 0 172 34q30 8 59 14.5t46.5 10.5t31.5 7t18 4q3 2 11.5 8.5t27 21.5 t39.5 30q-7 65 -54 144q-62 99 -119 99q-175 0 -376 -107q-231 -115 -236 -266z" />
<glyph unicode="&#x178;" horiz-adv-x="1960" d="M203 2655q0 263 103 360q38 -23 74 -54v-108q0 -740 309 -740q345 0 918 349q94 59 381.5 241t488.5 308h81q25 -122 30 -113q0 -64 -235 -252q-126 -99 -303 -239q-27 -22 -178 -173l-409 -582q-306 -431 -655 -1085q-74 -140 -97 -220q-27 -113 -74 -259 q-36 -131 -144 -221h-120q-53 46 -53 126q0 66 260 587q144 280 441 784q160 267 457 774q-29 -4 -67.5 -14.5t-92 -29t-109.5 -40t-136 -52.5q-252 -99 -405 -99q-251 0 -373 264q-92 200 -92 488zM553 2867l66 116l133 88l191 7q57 -49 72.5 -118t-12.5 -139 q-13 -34 -30 -54t-51 -47q-6 -5 -17.5 -17t-16.5 -17t-15 -13.5t-18 -12.5t-19.5 -8t-23.5 -6q-22 -4 -56.5 8t-55.5 12q-35 5 -70 0q-20 0 -34 8.5t-29 27.5q-17 21 -11 59zM1337 2887q4 32 24 50.5t59 37t58 33.5q12 9 40.5 29.5t40.5 29t34.5 22.5t46.5 27l192 -81 q6 -29 26 -94q1 -9 6.5 -21.5t7.5 -21.5h4q-19 -52 -41.5 -85t-65.5 -70q-57 -45 -98.5 -64t-97.5 -17q-53 6 -89.5 22t-72.5 52l-47 58q-27 43 -27 93z" />
<glyph unicode="&#x192;" horiz-adv-x="1971" d="M-637 -1341q4 18 12 53.5t18.5 79.5t19.5 87q18 0 90 -29q21 -10 40 -17t29 -10.5t12 -5.5q187 -30 335 -30q43 0 92 -7q19 -2 41.5 -4t34 -3t16.5 -1q166 0 273 173q71 115 151 672q63 471 63 711v502q-18 18 -19 18q-53 0 -195 -36q-157 -34 -192 -34q-107 0 -107 59 q0 118 103 162q41 20 218 56q146 27 207 88q17 96 63 601q31 357 88 596q128 478 254 682q216 344 587 344q64 0 239 -95q179 -93 203 -141q78 -157 78 -340q0 -170 -130 -209q-43 33 -48 148q0 126 -36 180q-142 203 -387 203q-250 0 -414 -432q-136 -369 -236 -1519 q102 -81 383 -81q112 0 355 -49l48 -81q-112 -81 -241 -81q-39 0 -165 17q-133 10 -170 10q-169 0 -207 -66q-9 -19 -25 -299q-16 -281 -56 -369q8 -148 8 -218q0 -543 -216 -1267q-69 -38 -229 -101q-176 -65 -238 -65h-208q-263 0 -542 148z" />
<glyph unicode="&#x2c6;" horiz-adv-x="1598" d="M70 2392q0 46 92 112q122 78 133 95q4 5 13.5 17.5t25 34t33.5 46t47 64t58 78.5q23 31 122 106q121 81 144 101q28 28 81 120q46 95 70 119q60 59 142 59q110 0 164 -100q113 -204 223 -391q130 -228 285 -365q7 -11 7 -62q0 -136 -137 -136q-44 0 -84 25 q-30 81 -162 180q-2 0 -15 23t-52.5 95.5t-73.5 133.5q-122 228 -191 228q-25 0 -390 -354q-185 -175 -287.5 -262t-121.5 -87q-43 0 -83 39q-43 43 -43 81z" />
<glyph unicode="&#x2c7;" horiz-adv-x="1882" d="M144 3067q0 95 103 187q46 -17 246 -228q177 -187 393 -187q176 0 507 190q165 102 495 292h81q0 -6 25 -85q4 -9 7.5 -20t6 -18.5l5 -15t4 -12.5t2.5 -10t1 -8q0 -124 -225 -240q-211 -105 -195 -183q-59 0 -147 -34q-125 -56 -137 -60q-408 -120 -430 -120 q-151 0 -319 77q-76 29 -247 214q-176 187 -176 261z" />
<glyph unicode="&#x2d8;" horiz-adv-x="1985" d="M95 2961q0 41 42 77q41 36 84 36q108 0 335 -243l313 -336q1 1 24.5 20.5t79 65.5t118.5 99q818 675 911 675q42 0 84 -48q45 -51 45 -96q0 -59 -70 -169q-72 -104 -126 -104q-20 0 -36 10q-19 13 -34 13q-45 0 -416 -333q-191 -174 -289.5 -268t-128.5 -133 q-72 -99 -172 -99q-97 0 -240 194q-54 66 -207 270q-61 51 -286 254q-31 43 -31 115z" />
<glyph unicode="&#x2d9;" horiz-adv-x="680" d="M221 2979q0 124 85 239q81 117 180 117q122 0 185 -83t63 -248q0 -14 -9 -77q-48 -99 -239 -99q-67 0 -166 36q-99 43 -99 115z" />
<glyph unicode="&#x2da;" horiz-adv-x="1193" d="M99 2655q0 187 211 430q202 240 379 240q212 0 377 -81q8 -5 28.5 -21t67 -52t87.5 -68l31 -390q4 -18 -52 -89l-20 -26t-17 -21t-12.5 -15t-8 -10.5t-2.5 -4.5q-10 -36 -50 -113q-74 -107 -207 -186q-123 -81 -243 -81q-170 0 -285 56q-84 44 -183 191 q-101 150 -101 241zM380 2680q0 -54 95 -122q93 -67 159 -67q131 0 235 94q108 87 108 209q0 143 -81 174q-32 11 -210 11q-96 0 -200 -104q-106 -107 -106 -195z" />
<glyph unicode="&#x2db;" horiz-adv-x="1274" d="M140 -306q0 162 13 290.5t38 218.5q30 104 122 213q29 39 162 192q81 -41 81 -176q0 -62 -36 -203l-52 -215q-12 -48 -17.5 -113t-6.5 -112t-1 -136q0 -172 53.5 -257t164.5 -85q188 0 700 298q7 -72 7 -91q0 -42 -11 -63q-134 -233 -236 -299q-90 -59 -280 -110 q-192 -59 -296 -59q-209 0 -320 261q-85 207 -85 446z" />
<glyph unicode="&#x2dc;" horiz-adv-x="2484" d="M41 2729q0 128 294 371q290 239 425 239q21 0 432 -227q125 -70 186 -103.5t125.5 -69t90.5 -48.5t31 -13q3 0 18 -1.5t28.5 -2.5t30.5 1t28 9q16 9 39.5 16.5t42.5 11t20 4.5q17 -1 30.5 8t40 25t66.5 26q3 2 209 166q168 130 200 130q117 0 117 -126q0 -105 -240 -285 q-180 -132 -345 -205q-187 -77 -447 -77q-20 0 -298 219q-281 222 -416 222q-126 0 -340 -209q-213 -207 -240 -207q-39 0 -84 39q-44 44 -44 87z" />
<glyph unicode="&#x2dd;" horiz-adv-x="1647" d="M74 2488q0 88 32 126q66 75 477 379q428 317 486 317q-8 0 4 -3q29 -9 110 -22v-85q-144 -180 -490 -432l-538 -383q-81 47 -81 103zM626 2336q0 139 215 303q101 83 394 252q214 126 214 151l-4 7q-3 0 -3 4q2 2 5.5 7t5.5 7q21 13 75 51.5t90 62.5q41 15 112 86l18 -27 q18 -18 18 -43q0 -43 -123 -214q-5 0 -46 -42q-101 -100 -197 -158q-121 -71 -365 -288q-203 -184 -371 -272q-38 38 -38 113z" />
<glyph unicode="&#x3c0;" horiz-adv-x="3202" d="M-380 2768q0 109 373.5 207.5t1115.5 183.5q35 3 95.5 9.5t162 17t185.5 18.5q241 26 871 117l434 63q107 0 250 -11l252 -21q45 -29 77 -148q-94 -49 -432 -49q-151 0 -725 -88q-216 -32 -240 -32q-1 0 -59 14q-43 11 -59 11q-94 0 -506 -99q-31 -7 -59 -26t-65 -51 q-3 -37 -67 -749l-32 -380v-347q14 -15 36 -15q73 0 531 103q85 19 168 38t135 30.5t94 21t61 14t20 4.5q102 0 258 -180q156 -187 156 -295v-11l-210 -1122q-82 -17 -80 -20q1 -1 6 -1q-40 0 -74 29q-77 146 -77 235q0 9 52 229q143 567 149 567q0 337 -253 337 q-66 0 -222 -31q-107 -25 -394 -110q-335 -95 -356 -122q-73 -73 -116 -223l-77 -249q-41 -85 -59 -128q-28 -68 -33 -147q-5 -17 -27 -373q-20 -10 -68 -52h-78q-52 41 -52 81q0 56 18 221q3 6 6.5 21t7 37.5t6 56t2.5 71.5v57q0 79 -11 141q154 252 169 369 q54 300 137 1136q59 576 59 666q0 129 -106 129q-326 0 -826 -151q-58 -14 -196 -74q-154 -56 -177 -56q-42 0 -99 45q-52 37 -52 81z" />
<glyph unicode="&#x2000;" horiz-adv-x="2446" />
<glyph unicode="&#x2001;" horiz-adv-x="4892" />
<glyph unicode="&#x2002;" horiz-adv-x="2446" />
<glyph unicode="&#x2003;" horiz-adv-x="4892" />
<glyph unicode="&#x2004;" horiz-adv-x="1630" />
<glyph unicode="&#x2005;" horiz-adv-x="1223" />
<glyph unicode="&#x2006;" horiz-adv-x="815" />
<glyph unicode="&#x2007;" horiz-adv-x="815" />
<glyph unicode="&#x2008;" horiz-adv-x="611" />
<glyph unicode="&#x2009;" horiz-adv-x="978" />
<glyph unicode="&#x200a;" horiz-adv-x="271" />
<glyph unicode="&#x2010;" horiz-adv-x="1555" d="M106 756q0 98 105 121q220 37 471 37q141 0 211 8q20 0 110 32q107 31 122 31q54 0 103 -96q48 -89 48 -147q0 -105 -93 -105q-25 0 -162 24q-127 21 -162 21q-241 0 -395 -25q-21 -4 -52.5 -10.5t-54 -10.5t-40.5 -6q-50 -10 -74 -18q-13 0 -13 -2q-1 -2 6 -2 q-31 0 -81 56q-49 61 -49 92z" />
<glyph unicode="&#x2011;" horiz-adv-x="1555" d="M106 756q0 98 105 121q220 37 471 37q141 0 211 8q20 0 110 32q107 31 122 31q54 0 103 -96q48 -89 48 -147q0 -105 -93 -105q-25 0 -162 24q-127 21 -162 21q-241 0 -395 -25q-21 -4 -52.5 -10.5t-54 -10.5t-40.5 -6q-50 -10 -74 -18q-13 0 -13 -2q-1 -2 6 -2 q-31 0 -81 56q-49 61 -49 92z" />
<glyph unicode="&#x2012;" horiz-adv-x="1555" d="M106 756q0 98 105 121q220 37 471 37q141 0 211 8q20 0 110 32q107 31 122 31q54 0 103 -96q48 -89 48 -147q0 -105 -93 -105q-25 0 -162 24q-127 21 -162 21q-241 0 -395 -25q-21 -4 -52.5 -10.5t-54 -10.5t-40.5 -6q-50 -10 -74 -18q-13 0 -13 -2q-1 -2 6 -2 q-31 0 -81 56q-49 61 -49 92z" />
<glyph unicode="&#x2013;" horiz-adv-x="2251" d="M169 671q0 45 25.5 73t79.5 44q16 2 93 9.5t162.5 15t177.5 13.5q68 6 315.5 17.5t430.5 22.5q170 12 313 27q15 0 110 32q95 29 122 29q51 0 99 -88q49 -84 49 -155q0 -103 -92 -103q-37 0 -159 22q-126 22 -165 22q-527 0 -1019 -89q-238 -43 -416 -43q-9 0 -21.5 6 t-27 18.5t-28.5 29.5q-49 62 -49 97z" />
<glyph unicode="&#x2014;" horiz-adv-x="5052" d="M218 752q0 152 313 152h1868q78 0 162.5 -4t161.5 -4q27 0 71 15q48 14 70 14q24 0 140 -21q109 -28 141 -24l1051 94q8 0 61 -24q45 -25 67 -25q150 0 347 115q16 -43 99 -70q74 -27 74 -126q0 -76 -40 -133q-44 -63 -101 -63q-10 0 -77 23q-62 22 -85 22 q-43 0 -257 -45q-211 -43 -263 -43q-28 0 -138 21q-106 22 -137 22q-48 0 -546 13q-421 10 -545 10q-31 0 -203 -23q-165 -22 -211 -22q-27 0 -144 35q-116 32 -148 32q-46 0 -154 -14q-32 -3 -69 -7t-57 -6t-29 -2t-96.5 2t-168.5 2q-140 3 -270 3q-131 0 -272 -7 q-61 -4 -232 -34q-143 -25 -221 -25q-61 0 -110 43q-52 52 -52 104z" />
<glyph unicode="&#x2018;" horiz-adv-x="687" d="M103 2293q0 26 52 276q17 95 210 248q102 81 170 119.5t113 38.5q5 0 49 -14q7 -2 14.5 -5.5t12.5 -5.5t9 -3.5t5 -1.5v-151q-265 -152 -340 -279q-15 -20 -96 -215q-39 -86 -60.5 -124t-34.5 -38q-20 0 -49 15l-25 14q0 3 -1 8.5t-3 11.5t-5 16.5t-5 19.5q-16 49 -16 70 z" />
<glyph unicode="&#x2019;" horiz-adv-x="658" d="M122 2286q114 85 152 131q20 17 39 34t48.5 44.5t39.5 37.5q63 68 63 151q5 59 -28 162q-43 115 -49 162l74 27q183 -62 221 -178q25 -58 25 -128q0 -172 -136 -348q-131 -153 -220 -183q-22 -2 -160 -31q-19 23 -69 119z" />
<glyph unicode="&#x201a;" horiz-adv-x="1270" d="M32 -391q0 89 197 195q103 56 273 144q210 149 286 288q41 71 179 358h102q52 -102 52 -196q0 -196 -361 -531q-357 -335 -557 -335h-140q-31 24 -31 77z" />
<glyph unicode="&#x201c;" horiz-adv-x="1231" d="M106 2488v2v2v2v2v3v2v2v2v2v3v2v2v2v2v3v2v2v2v3v2v2v2v2v3v2v2v2v3v2v2v2v3v2v2v2v3v2v2v3v2v2v2v3v2v2v3v2v2v3v2v2v2v3v2v2v3v2v3v2v2v3v2v3v2v2v3v2v3v2v3v2v3v2v3v3v2v3v3v3v3v9q11 132 263 324q142 104 205 104q64 0 93.5 -45t21.5 -133l-253 -124 q-98 -70 -98 -241q0 -98 27 -152q16 -21 114 -113q-3 -6 -15 -63q-5 -40 -39 -40q-319 0 -319 287zM682 2396q0 31 52 281q22 91 209 243q194 158 285 158q23 0 52 -14q32 -11 36 -11v-155q-259 -148 -339 -277q-4 -5 -97 -218q-36 -82 -57.5 -120t-34.5 -38q-26 0 -50 14 q-22 11 -27 16q-1 2 -2.5 9l-4.5 21t-7 28q-15 57 -15 63z" />
<glyph unicode="&#x201d;" horiz-adv-x="1218" d="M59 2333q115 91 152 137q12 10 25.5 21.5t25.5 23t23.5 22t25 23t24.5 21.5q66 72 66 155q0 78 -28 162q-10 32 -22.5 71t-18.5 59.5t-8 31.5l77 25q181 -63 218 -176q25 -79 25 -133q0 -177 -138 -342q-125 -158 -222 -189q-77 -9 -158 -26q-23 35 -67 114zM707 2333 q19 61 130 236q78 115 67 241q0 14 -35 102q-21 62 -21 103q0 74 66 101q233 -54 233 -366q0 -223 -335 -541q-22 7 -38 7q-14 0 -22 -4z" />
<glyph unicode="&#x201e;" horiz-adv-x="1661" d="M4 -310q111 38 187 78q334 192 425 428q19 49 25 162q1 20 2 54.5t2 49.5t2.5 33.5t4.5 28.5h82q143 -116 143 -240q0 -128 -152 -351q-146 -229 -268 -302q-168 -99 -273 -99q-19 0 -81 11q-48 14 -78 14q-10 43 -21 133zM697 -383l277 298q185 201 221 324q4 15 4 112 q0 165 113 176q123 -84 123 -221q0 -245 -229 -506q-201 -223 -454 -338q-23 19 -55 25v130z" />
<glyph unicode="&#x2020;" horiz-adv-x="954" d="M95 2923q0 71 89 119q55 28 185 70q54 240 99 240q50 0 130 -130t136 -130q22 0 33 27q16 22 36 22q28 0 108 -63q65 -46 110 -85v-77q-51 -56 -81 -56q-11 0 -33 15q-19 12 -34 12q-18 0 -110 -12q-22 -5 -46 -9.5t-34 -6.5t-12 -2q-84 -167 -100 -443 q-26 -372 -40 -452q-7 0 -70 -13q-62 -10 -74 -10q-56 0 -56 259q0 59 11 297q13 277 13 315v11q-58 25 -159 25h-70q-2 3 -8 10.5t-8 10.5q-15 24 -15 56z" />
<glyph unicode="&#x2021;" horiz-adv-x="1308" d="M106 2525v110q69 74 178 74q1 0 22.5 -2t40.5 -2q33 -3 62 -3q162 0 162 122q0 43 -69 43q-11 0 -48 -10q-33 -11 -45 -11q-47 0 -110 38q-52 40 -52 81q0 16 10 54q17 43 17 55q18 0 172.5 14.5t176.5 14.5q32 58 162 252h11q74 0 90 -77q28 -104 72 -126 q25 -13 273 -40q169 -21 169 -140q0 -78 -88 -78q-17 0 -95 11q-13 2 -26.5 4.5t-22.5 4t-17.5 3t-13.5 2.5t-8 1q-134 0 -260 -67v-103q176 -26 440 -91v-108q-51 -51 -103 -51q-14 0 -41 11q-22 11 -36 11h-67q-206 0 -259 -67q-40 -51 -72 -277h-130q-53 44 -78.5 77.5 t-25.5 62.5q9 17 16 53q11 48 11 91q-22 8 -34 8q-4 0 -9.5 -1l-16.5 -3t-21 -4q-22 -7 -45 -7q-144 0 -292 70z" />
<glyph unicode="&#x2022;" horiz-adv-x="1285" d="M166 1161q0 64 63 141t187 161q236 159 376 159q154 0 263 -130q106 -133 106 -309q0 -121 -198 -236q-182 -110 -311 -110q-104 0 -287 110q-199 116 -199 214z" />
<glyph unicode="&#x2026;" horiz-adv-x="2797" d="M184 158q-39 96 3 177q37 61 108 101q72 10 141 28q89 33 135 33q66 0 109.5 -28.5t65 -86.5t21.5 -146q0 -61 -137 -166q-62 -48 -194 -48q-107 0 -148 23q-70 36 -104 113zM1206 243q0 113 81 189q85 74 198 74q66 0 119 -67q59 -70 59 -133q0 -106 -90 -196 q-84 -85 -191 -85q-52 0 -113 78q-63 73 -63 140zM2065 229l32 207q11 0 104 36q69 30 103 30q187 0 247 -41l10 -232q3 -89 -72.5 -131t-236.5 -42q-45 0 -90 41.5t-97 131.5z" />
<glyph unicode="&#x202f;" horiz-adv-x="978" />
<glyph unicode="&#x2030;" horiz-adv-x="4437" d="M63 36q438 488 1098 956q337 238 1220 792q728 454 1199 822v22q0 7 -5 14t-15 9q-411 78 -595 78h-738q-40 0 -159 25q-121 22 -158 22q-88 0 -159 -40q0 -187 -59 -277q-83 -136 -342 -225q-246 -85 -421 -85q-223 0 -394 106q-200 125 -200 337q0 80 104 218l99 131 q0 25 -14 85q-18 52 -18 81q0 65 54 97l320 32q168 0 492 -99q117 -48 412 -126q396 -41 907 -66q594 -30 922 -51q245 -17 298 -19q112 -21 173 -135q-2 -27 -21.5 -60.5t-61 -75t-100.5 -86.5q-2 -1 -47.5 -32.5t-66.5 -46.5t-64 -47t-82 -63q-513 -395 -1134 -718 q-196 -135 -509 -320q-89 -58 -563 -405q-11 -8 -128.5 -92.5t-204.5 -145.5q-208 -153 -314 -268q-109 -76 -282 -236l-67 -166q-12 -31 -32 -53t-46.5 -33t-58.5 -11q-8 0 -22 3t-46.5 11.5t-49.5 12.5q-94 25 -121 25v103zM545 2592q0 -232 373 -232q204 0 401 70 q270 91 270 243q0 28 -37 85q-39 51 -67 55q-42 14 -310 47q-293 31 -327 31q-79 0 -191 -112q-112 -106 -112 -187zM1382 542q0 160 99 192q31 8 267 74q390 117 552 117h123l117 4q334 5 475 -306h56q22 173 354 284q257 88 486 88q257 0 472 -147q236 -162 236 -409 q0 -187 -423 -313q-329 -104 -583 -104q-23 0 -96 10q-85 13 -92 13q-106 0 -248 88q-139 84 -212 191q-179 -100 -454 -194q-318 -108 -472 -108q-45 0 -280 70q-232 74 -281 99q-24 14 -63 167q-33 133 -33 184zM1656 450q134 -173 383 -173q235 0 431 58q298 89 298 245 q0 135 -302 135q-556 0 -810 -265zM3208 419q16 -8 68 -36.5t90 -47.5q98 -58 166 -58h264q208 0 565 169v78q0 17 -34 74q-100 165 -390 165q-237 0 -434 -66q-263 -91 -295 -278z" />
<glyph unicode="&#x2039;" horiz-adv-x="1632" d="M85 970q0 80 412 409q474 383 506 419q18 56 81 133q48 24 144 85q383 247 394 247q126 0 126 -159q0 -70 -7 -84q-183 -173 -366 -303q-205 -119 -439 -290q-196 -175 -457 -424q50 -84 428 -310q373 -221 475 -376q11 -15 159 -162q106 -101 111 -177 q-107 -25 -100 -30q-146 0 -233 81q-243 218 -390 329q-54 48 -538 317q-49 29 -173 137q-133 122 -133 158z" />
<glyph unicode="&#x203a;" horiz-adv-x="1558" d="M103 1953v81q47 52 118 52q52 0 188 -66q137 -71 178 -107q27 -22 416 -358q244 -212 460 -309q96 -49 96 -144q0 -67 -364 -431l-453 -450q-19 -18 -62.5 -64t-91.5 -94t-98 -95q-27 -9 -62 -9q-26 0 -115 16q-89 11 -113 11v81q16 22 176 154q103 82 103 170v25l92 9 q269 249 621 610z" />
<glyph unicode="&#x2044;" horiz-adv-x="1953" d="M-567 -313q0 21 47 117q52 106 56 122q195 170 358 443q34 56 297 493q37 85 151 299q10 21 326 405q223 276 228 428q150 123 364 420q189 257 299 477q-15 20 -67 14q11 22 168 162q199 180 349 299q84 -38 84 -130q0 -122 -489 -732q-92 -115 -155 -196 q-115 -187 -221 -351q-235 -285 -402 -508q-60 -80 -833 -1346q-126 -211 -270 -434q-49 -74 -139 -74q-60 0 -126 29q-3 7 -14 21q-11 17 -11 42z" />
<glyph unicode="&#x205f;" horiz-adv-x="1223" />
<glyph unicode="&#x20ac;" horiz-adv-x="2759" d="M77 1544v177q108 52 141 52q11 0 191 -25q166 -24 199 -24q42 0 74 6q9 12 225 335q144 206 276 284q491 281 1096 313q17 0 95.5 21.5t98.5 21.5q295 0 429 -84q11 -23 59 -92q-115 -77 -207 -77q-6 0 -18.5 0.5t-35.5 2.5t-41 4q-73 11 -94 11q-403 0 -848 -215 q-454 -216 -669 -514q170 -27 379 -27q128 0 272 3q55 2 120 3.5t99.5 2.5t50.5 1q123 0 504 -7q75 -50 101 -70v-117q-56 -4 -193 -4q-100 0 -206.5 4t-205.5 4q-138 0 -709 -45l-272 -18h-70q-81 -12 -133 -144q54 -33 133 -33q24 0 103 11q83 11 108 11q29 0 140 -22 q103 -25 139 -25q9 0 41 11l40 14q32 0 73 -41q521 -6 1048 -81l22 -106q-139 -26 -423 -26l-49 -27q-43 -21 -67 -21q-19 0 -63 21q-37 27 -54 27l-867 22l-165 -15q-94 -8 -210 -16q-63 -45 -63 -154q0 -204 92 -306q296 -328 981 -350q6 -1 18 -2t29.5 -2.5t38.5 -3.5 t50 -5.5t59 -7.5q148 -16 203 -16q4 0 63 -2t113 -2h177v-158q-443 -74 -472 -74q-550 0 -979 147q-587 206 -625 654q-1 21 -4 110t-6 162q-66 29 -317 88v126q49 84 140 84q36 0 119 -25q104 -25 110 -25q81 0 81 131v31q-200 42 -465 113z" />
<glyph unicode="&#x2122;" horiz-adv-x="2557" d="M52 2677v129q80 96 357 96q9 0 52 -11q44 -13 52 -13q49 0 225 60q190 55 225 55q55 0 360 -232q83 -63 133.5 -101.5t90 -69.5t54 -44t10.5 -13q37 0 281 196q117 98 299 243q69 -36 138 -166q41 -84 94 -322q54 -243 54 -335q0 -39 -43 -106q-21 -32 -42.5 -49.5 t-38.5 -17.5q-32 0 -67 29q-39 45 -52 45q-65 65 -70 141v158q0 113 -71 184q-25 -24 -60.5 -54t-97.5 -81.5t-99 -82.5q-214 -177 -247 -177q-2 2 -11.5 5t-28 9.5t-37.5 14.5q-99 167 -340 295q-16 -43 -22 -180q-5 -133 -18 -165q-14 -34 -45 -70h-133q-44 90 -77 313 q-43 244 -81 313q-243 -16 -243 -189q0 -28 21 -139q24 -114 24 -136q0 -46 -49 -141q-14 -27 -30.5 -59.5t-25.5 -50t-14 -27.5q-159 127 -159 260q0 44 18 127q4 20 8 45t6.5 38t4 26t1.5 21q0 131 -70 173q-50 25 -193 25h-18z" />
<glyph unicode="&#x2202;" horiz-adv-x="5189" d="M67 513q0 297 541 497q146 56 486 151l495 133q8 77 74 627l7 77q25 124 92 394q60 267 60 398q0 -10 -3 2q-5 32 -12 120q7 5 146 99q108 -102 108 -151q0 -4 -5.5 -30t-19.5 -90.5t-27 -129.5q-187 -872 -187 -1562q-386 -6 -782 -119q-449 -135 -693 -362v-113 q151 -173 557 -173q54 0 138.5 11t169 26t215 35.5t247.5 33.5q22 4 86.5 10.5t104.5 11.5q118 10 162 73q30 316 70 432q85 193 337 281q147 58 363 58q233 0 349 -89.5t116 -270.5q0 -188 -155 -288q-83 -62 -328 -144q-219 -72 -306 -148q11 -50 89.5 -104t220.5 -106 q257 -99 398 -99q292 0 631 99q445 126 483 329q11 84 11 212q0 53 -11 242t-11 239q0 133 117 187q59 30 256 78q20 4 53 11t49.5 11t40.5 9t38 7.5t29.5 5t26.5 3.5t20 1q19 0 218 -23l419 -54q-62 -133 -291 -133q-32 0 -107 14q-89 11 -109 11q-60 0 -105 -40 q-14 4 -54 4q-146 0 -347 -144v-169v-173q0 -360 -126 -547q-128 -191 -420 -269q-448 -118 -745 -118q-265 0 -538 90q-271 92 -434 239q-21 32 -74 85q-41 46 -97 46q-63 0 -279 -57q-254 -65 -309 -74q-433 -74 -742 -74q-198 0 -439 132q-268 150 -268 329zM2268 560 q2 0 29 -11q24 -14 52 -14q148 0 556 190q143 68 169 197q-136 99 -288 99q-166 0 -324 -67q-194 -84 -194 -223v-171z" />
<glyph unicode="&#x2206;" horiz-adv-x="2178" d="M74 626v26v23q0 93 281 446q36 47 156.5 195.5t203.5 253.5q18 23 270 487q35 69 151 107q21 6 180 59l749 -1814q-6 -75 -44.5 -113.5t-107.5 -38.5q2 0 -8.5 2.5t-39.5 8.5t-64.5 13.5t-96.5 20.5l-122 26q-681 136 -930 136q-18 0 -40 -10.5t-38 -10.5q-58 0 -201 25 q-149 25 -200 25q-99 105 -99 133zM468 796q274 -63 612 -92q174 -20 257 -36q241 -52 270 -52q43 0 85 18q-94 484 -517 1150q-386 -492 -707 -988z" />
<glyph unicode="&#x220f;" horiz-adv-x="2910" d="M52 963q38 93 166 121q56 7 172.5 22t172.5 23q270 32 285 32t77 -11q54 -11 74 -11q164 0 203 40q48 53 132 369l111 414q52 118 170 464q2 10 20.5 94.5t31.5 148.5q35 143 102 225h103q69 -135 52 -185l-464 -1573q158 29 327 29q206 0 521 -26q309 -27 351 -37 q190 -53 190 -254q0 -87 -95 -472q-3 -12 -23.5 -97t-39.5 -149q-32 -125 -144 -193q-53 47 -99 52v74q0 93 63 373q68 318 110 394q-24 59 -106 70q-173 29 -794 29q-224 0 -331 -52q-117 -328 -152 -530q-22 -162 -39 -262q-8 -42 -37 -61.5t-82 -19.5q-22 0 -77 14 q-12 2 -25.5 5t-21.5 5t-14.5 3t-9.5 1q5 20 39 161.5t64 270.5q85 361 104 429q-34 39 -136 39q-60 0 -85 -3l-815 -43zM2720 2020l74 147h81q167 -118 167 -228q0 -31 -38 -85q-11 -13 -31.5 -39t-31.5 -38q-221 110 -221 243z" />
<glyph unicode="&#x2211;" horiz-adv-x="3553" d="M151 497q0 247 78 389q87 165 376 327q296 166 482 166q77 0 148 -81q74 -85 74 -162q0 -166 -240 -351q-220 -169 -398 -169q-78 0 -126 102q48 54 247 130q188 80 284 239q-25 38 -70 38q-190 0 -419 -196q-225 -193 -225 -373q0 -54 47 -106q196 -229 565 -229 q50 0 228 -10q164 -15 233 -15q55 0 412 96q356 99 390 117q28 16 56 55q12 35 33 126q23 91 23 128q0 46 -45 249q-6 26 -16 71.5t-14 65t-9.5 46.5t-7.5 41.5t-2 25.5q0 46 53 124q47 76 95 97q238 103 709 103q5 0 27.5 -2t76 -7t109.5 -9q298 -31 453 -31l27 -29v-81 q-52 -52 -192 -52q-43 0 -180 27q-144 22 -186 22q-238 0 -489 -56q-74 -15 -159 -74q-92 -71 -92 -140q0 -28 33 -139q34 -111 34 -137q0 -312 -74 -468q-91 -194 -608 -298q-371 -78 -724 -78q-354 0 -626 96q-391 132 -391 412z" />
<glyph unicode="&#x221a;" horiz-adv-x="3884" d="M162 270q0 38 27 73t81 73q71 -72 132.5 -133t106 -103.5t78 -72.5t51.5 -44t23 -14q52 0 77 39q329 511 1127 1104q115 87 270 187q39 5 140 39q50 30 155 101q375 234 1105 531q68 28 292 117q26 4 306 56l32 -29v-86l-77 -65q-411 -68 -1050 -387q-557 -272 -984 -576 q-111 -77 -267 -232q-113 -107 -171 -159t-93 -77q-377 -286 -601 -679q-39 -68 -85 -158l-34 -117q-16 -49 -110 -49t-313 292q-218 283 -218 369z" />
<glyph unicode="&#x221e;" horiz-adv-x="3236" d="M52 1150q0 92 110 240q117 149 200 165q179 34 306 34q27 0 250 -55q124 -30 257 -71q41 -20 182 -136q139 -107 209 -107q46 0 432 243q384 240 506 240q217 0 416 -141q210 -154 210 -367q0 -534 -720 -534q-274 0 -426 57q-16 6 -95.5 35t-140.5 50q-121 45 -252 45 q-4 0 -28.5 -5.5t-80 -18.5t-115.5 -27t-170 -40t-209 -50q-199 -46 -204 -46q-235 0 -534 172q-103 166 -103 317zM306 1112q0 -70 77 -142q3 0 141 -30q111 -22 151 -22q291 0 511 148q-32 66 -261 151q-197 70 -306 70q-313 0 -313 -175zM1973 1066q91 -86 151 -96 q168 -30 367 -30q117 0 241 48q49 21 80 46t47 56.5t16 70.5q0 196 -220 196q-353 0 -682 -291z" />
<glyph unicode="&#x222b;" horiz-adv-x="1846" d="M-196 -1021q0 96 77 206q-10 0 24 -24q4 -3 99 -68q133 -92 277 -92q60 0 165 32q113 39 141 78q70 104 81 410q2 56 4 212.5t3 230.5q6 141 25 877q3 100 6 268t7.5 450t8.5 509q11 514 27 619q48 381 246 539q11 1 24.5 4.5t24.5 7t30 10t29.5 10.5t35.5 13.5t36 13.5 q153 88 306 88q182 0 341 -126q158 -125 158 -275v-105q-33 0 -74 -46q-5 1 -14.5 5t-29.5 12t-37 15q-38 227 -185 281q-15 7 -99 7q-183 0 -366 -115q-208 -131 -208 -303q0 -14 10 -57q8 -51 8 -56q0 -65 -22 -292q-23 -245 -23 -295v-1717l-22 -398q-32 -653 -32 -943 q-69 -107 -296 -178q-202 -63 -358 -63q-41 0 -151 12q-135 18 -151 18q-41 54 -70 99t-42.5 76.5t-13.5 49.5z" />
<glyph unicode="&#x2248;" horiz-adv-x="3360" d="M56 652q0 183 338 442q325 252 517 252q310 0 489 -160q42 -38 169.5 -161.5t217.5 -209.5q51 -50 182 -93q148 -47 229 -47q130 0 522 243q397 243 380 243q-8 0 2 -3q29 -8 120 -22v-133q-141 -93 -335 -247q-244 -192 -344 -247q-201 -111 -405 -111q-74 0 -316 108 q-252 104 -281 151q-81 137 -133.5 211t-84.5 95q-102 81 -365 81q-196 0 -378 -126q-108 -81 -252 -236q-117 -122 -170 -122q-102 0 -102 92zM67 1301q0 186 334 443q327 254 521 254q314 0 489 -162q39 -34 95 -88t140 -137t149 -144q42 -43 181 -88q159 -56 229 -56 q144 0 527 243l375 245q-8 0 7 -4q22 -5 119 -23v-128q-134 -90 -339 -252q-262 -202 -343 -247q-193 -109 -405 -109q-67 0 -317 106q-250 111 -277 155q-151 253 -218 306q-109 81 -367 81q-193 0 -380 -130q-100 -69 -252 -232q-114 -124 -166 -124t-77 22t-25 69z" />
<glyph unicode="&#x2260;" horiz-adv-x="3384" d="M52 756q0 142 522 225q62 14 661 88q73 85 105.5 138t27.5 84v14q-129 68 -337 63h-138q-49 0 -259 -49q-206 -43 -261 -43q-186 0 -186 124q0 139 551 155l349 7q146 0 475 45q73 18 207 229q19 30 80 126.5t104 165.5q14 23 59.5 72t95 98.5t155.5 153.5 q133 126 216 191.5t106 65.5h144q25 -50 25 -158q-373 -180 -808 -852v-59q30 -40 104 -40q63 0 279 33q216 37 277 37q20 0 74 -10q73 -13 74 -13q16 0 106 23q79 22 105 22q34 0 73 -70q40 -67 40 -114q0 -53 -92 -118q-93 -67 -147 -67q-24 0 -67 31q-46 28 -52 28 q-54 11 -497 11q-623 0 -650 -243q36 -59 148 -59h1047q40 0 251 34q228 36 259 36t106 -36q67 -37 67 -67q0 -122 -240 -185q-146 -36 -340 -36q-124 0 -556 21.5t-553 21.5q-59 0 -173 -25q-133 -25 -158 -25q-106 -86 -193 -337q-11 -35 -99 -387l-34 -32h-102 q-29 57 -29 183q0 156 138 495q-64 60 -113 60q-28 0 -155 -27l-453 -96q-189 -37 -215 -37q-10 0 -54 12q-28 15 -48 15q-22 100 -22 77z" />
<glyph unicode="&#x2264;" horiz-adv-x="1791" d="M36 88q0 108 104 141q108 27 512 73q464 53 554 53q74 0 493 -123v-84q-608 -37 -1091 -107q-7 0 -19.5 -2t-33.5 -7t-40.5 -9.5t-55.5 -13.5t-65 -16q-151 -34 -207 -34q-46 0 -102 37q-49 38 -49 92zM200 1048q0 92 191 298q42 48 89 99t74 81t51.5 57t36.5 41t15 19 q79 117 313 351q139 142 218.5 210t109.5 68q36 0 70 -45q32 -44 32 -85q0 -4 -11.5 -20.5t-39.5 -49.5t-66 -74l-376 -425q-215 -241 -336 -444q206 -207 480 -306q27 -14 114 -42q51 -17 122 -88q70 -76 70 -110q0 -58 -44.5 -88.5t-129.5 -30.5q-97 0 -546 258 q-437 259 -437 326z" />
<glyph unicode="&#x2265;" horiz-adv-x="1974" d="M77 29q0 47 60 93q60 47 106 47q31 0 59 -7q38 -11 53 -11q13 0 208 29l495 77q234 35 243 35q532 0 575 -67v-70l-1619 -229q-28 -3 -36 -3q-46 0 -95 32t-49 74zM524 509q0 49 59 96q6 5 40.5 30.5t58.5 46.5q204 177 384 288q316 199 394 254q-13 16 -140.5 174 t-225.5 276q-190 232 -415 398v92q48 88 144 88q119 0 316 -250q4 -4 101 -131t175 -215q198 -229 287 -342t89 -142q0 -66 -47 -92q-32 -16 -92 -36q-40 -30 -174 -119q-207 -130 -582 -398q-35 -30 -140 -70q-109 -41 -144 -41q-88 0 -88 93z" />
<glyph unicode="&#x25ca;" horiz-adv-x="1830" d="M67 1143q0 23 106.5 159.5t305.5 364.5q348 410 491 552q60 60 70 60q177 0 641 -1006q96 -213 96 -222q0 -24 -292 -407q-268 -363 -320 -415q-51 -51 -166 -56q-181 387 -486 594q-14 9 -103.5 65.5t-155.5 99.5q-187 126 -187 211zM436 1192q0 -26 158 -179 q68 -62 194 -183l92 -42q63 -84 193 -225q73 90 162 179q138 133 155 154q63 84 63 198q0 151 -67 252q-11 17 -61.5 88t-86.5 125q-92 142 -158 299h-81l-306 -346q-257 -292 -257 -320z" />
<glyph unicode="&#x25fc;" horiz-adv-x="1067" d="M0 0v1069h1069v-1069h-1069z" />
<glyph unicode="&#xf8ff;" horiz-adv-x="4105" d="M106 355q0 322 241 777q202 379 526 553q193 99 446 99q30 0 85 -29q20 -8 39.5 -16.5t29 -13t12.5 -4.5q127 -14 302 -61l148 -78q79 -31 166 -27q66 168 66 243q0 53 -36 200q-4 21 -11.5 56.5t-11 51.5t-7.5 37.5t-6 33.5t-2 21q0 21 8 43q94 257 316 495 q235 251 474 360q132 65 696 200q8 0 103 36q68 27 103 27q44 0 72.5 -16.5t42.5 -50t14 -84.5q0 -24 -25 -74q-4 -9 -14 -42q-28 -137 -74 -246q-141 -361 -587 -704q-71 -54 -184 -136t-275.5 -200t-296.5 -217q21 -67 99 -104q26 30 115 108q142 66 331 113 q229 56 333 56q119 0 290 -45q156 -41 240 -102q76 -62 147 -236q67 -163 67 -299q0 -17 -2 -34t-2 -18q-16 -39 -55.5 -56.5t-106.5 -17.5q-8 0 -52 13q-38 10 -50 10q-198 0 -549 -147q-250 -100 -288 -123q-164 -83 -236 -187q-52 -84 -52 -203q0 -79 59 -126q5 5 14 5 q5 -3 16 -12t34.5 -28t45.5 -37q39 -29 115 -123q37 -71 194 -151q79 -42 236 -122l4 -22q11 -128 -54 -203q-105 -116 -700 -504q-121 -21 -450 -70q-182 -29 -197 -29q-404 0 -581 99q-73 38 -155 151q-94 116 -147 158q-110 83 -344 173q-257 104 -349 166 q-146 92 -240 291q-90 202 -90 422z" />
<glyph unicode="&#xfb01;" horiz-adv-x="3155" d="M81 1183l27.5 33t39.5 48q39 55 73 55q3 0 251 -28q124 -18 523 -60q17 11 49 38q7 155 7 205q0 10 -1 29.5t-3 56t-3 65.5q-9 102 -9 155q0 22 16 49q15 24 15 36q0 22 -15 70q-16 54 -16 70q0 695 311 1161q109 154 391 186q24 0 85 18q64 14 99 14q329 0 619 -239 q306 -251 306 -580q0 -112 -74 -148h-117q-11 753 -833 753q-190 0 -285 -144q-226 -371 -291 -803q-4 -16 -6.5 -44.5t-7 -75t-8.5 -83.5q4 8 9.5 24.5t8.5 23.5q20 57 21 43q1 -2 1 -3v-859q171 -56 466 -77q640 -48 959 -155.5t319 -278.5q0 -358 -268 -742 q-105 -5 -105 81q0 36 70 306q67 277 67 299q0 83 -59 114q-77 38 -287 104q-218 74 -288 74q-18 0 -37 -20q-22 -22 -36 -22q-52 0 -103 35q-265 32 -639 32q-59 -52 -59 -191q0 -90 12 -329q7 -157 18 -328l56 -63q-13 -26 -81 -99q-27 -130 -38 -158q-34 -94 -106 -126 q-49 89 -49 162q0 59 11 259q15 178 15 257q0 18 -2 54t-6 102.5t-7 124.5q-18 240 -18 276q0 41 -34 70q-507 70 -630 70q-19 0 -92 -22q-81 -18 -92 -18q-62 0 -140 143zM2945 1847q0 37 30 92q31 48 67 48q139 0 202 -228q-50 -74 -137 -74q-40 0 -103 63q-59 59 -59 99z " />
<glyph unicode="&#xfb02;" horiz-adv-x="3103" d="M-95 918q0 82 102 103q61 8 172 24t145 21l284 36q15 0 52.5 -11t50.5 -11q69 0 133 45q21 377 85 824q33 251 232 742q61 156 207 344q164 204 302 261q143 56 479 56q179 0 288 -45q54 -27 96 -45q63 -11 91 -18q35 -8 107.5 -62t198.5 -163q14 -7 60 -40q16 22 88 113 h106q49 -154 49 -264q0 -22 -18 -133t-18 -121q-21 -342 -178 -1022q-158 -705 -184 -1014q-5 -45 -34 -173q-29 -123 -29 -178q0 -65 29 -131q-7 -33 -135 -222q-6 30 -49 67h-140q-40 50 -29 117l508 2437q-47 119 -143 331q-93 197 -244 252q-53 23 -272 62 q-231 41 -277 41q-618 0 -855 -1305q-60 -302 -60 -479q0 -277 126 -277q-27 0 6 6q67 12 293 35q140 8 225 8q81 0 169 -4q85 -4 166 -4q184 0 354 51q0 -9 2 -25.5t2 -25.5q0 -59 -11 -108q-127 -52 -228 -88q-147 -29 -443 -29q-19 0 -81 11t-81 11q-59 0 -277 -41 q-217 -49 -240 -89q-5 -304 -36 -433q-53 -230 -207 -384q-84 -5 -84 81q0 50 25 128q7 25 15.5 56t12.5 46.5t6 23.5q32 184 32 428v78q-87 61 -194 61q-53 0 -214 -40q-140 -29 -200 -59q-23 -23 -52 -56q-29 -29 -69 -29q-35 0 -126 96q-44 44 -67.5 80t-23.5 53z" />
</font>
</defs>
</svg>
