<?xml version="1.0" standalone="no"?>
<!DOCTYPE svg PUBLIC "-//W3C//DTD SVG 1.1//EN" "http://www.w3.org/Graphics/SVG/1.1/DTD/svg11.dtd" >
<svg>
<metadata>
Created by FontForge 20090622 at Sat Nov 17 15:23:21 2018
 By deploy user
PeaxWebdesign
</metadata>
<defs>
<font id="PWHandscript" horiz-adv-x="459" >
  <font-face 
    font-family="PWHandscript"
    font-weight="500"
    font-stretch="normal"
    units-per-em="1000"
    panose-1="3 0 6 3 0 0 0 0 0 0"
    ascent="800"
    descent="-200"
    x-height="449"
    cap-height="699"
    bbox="-143.562 -381.5 984 1016"
    underline-thickness="50"
    underline-position="-100"
    unicode-range="U+0020-U+FB02"
  />
<missing-glyph horiz-adv-x="364" 
d="M66 33h199v600h-199v-600zM33 0v666h265v-666h-265z" />
    <glyph glyph-name=".notdef" horiz-adv-x="364" 
d="M66 33h199v600h-199v-600zM33 0v666h265v-666h-265z" />
    <glyph glyph-name=".null" horiz-adv-x="0" 
 />
    <glyph glyph-name="nonmarkingreturn" horiz-adv-x="333" 
 />
    <glyph glyph-name="space" unicode=" " horiz-adv-x="300" 
 />
    <glyph glyph-name="exclam" unicode="!" horiz-adv-x="246" 
d="M159 57l44 44q2 -6 3 -13l11 11q11 0 21.5 0.5t14 1.5t5.5 -1.5t1 -4t-5 -11.5l-6 -18l-44 -44l-18 -2q-10 -1 -11.5 -2t-5 1.5t-3 5.5t-2 12.5t-5.5 19.5zM202 673l22 22q-3 -3 -8 -7t-8.5 -7.5t-5.5 -7.5zM202 673q-1 -1 -1 -2q-45 -118 -8 -453l-44 -44q-37 335 8 453
q2 5 6 9t9.5 8.5t8.5 7.5z" />
    <glyph glyph-name="quotedbl" unicode="&#x22;" horiz-adv-x="214" 
d="M61 653q3 -29 11.5 -95.5t11.5 -102.5l-44 -44q-3 36 -13 115.5t-14 122.5l44 44l8 -36zM167 671l44 44q-2 -36 0.5 -75.5t8.5 -87.5t8 -75l-44 -44q-2 27 -8 75t-8.5 87.5t-0.5 75.5z" />
    <glyph glyph-name="numbersign" unicode="#" horiz-adv-x="531" 
d="M249 263q9 94 31 182q-17 -1 -34 -4q-31 -4 -72 -13q-17 -93 -23 -187q50 13 98 22zM373 680l44 44q-59 -98 -93 -235q26 3 57 4t51 1h60h53l-44 -44q-155 0 -187 -2q-18 -86 -24 -177q81 15 161 22l-44 -44q-59 -5 -119 -15q-4 -121 15 -224l-44 -44q-22 120 -13 261
q-48 -8 -96 -19q-5 -120 11 -223l-44 -44q-18 118 -10 256q-52 -13 -106 -29l44 44q33 10 65 18q7 96 27 189q-75 -16 -111 -22l44 44q31 5 75 14q29 125 76 223l44 44q-54 -113 -84 -259q71 16 109 22h1q32 112 82 195z" />
    <glyph glyph-name="dollar" unicode="$" horiz-adv-x="467" 
d="M282 365q22 88 80 277q-56 39 -115 8q-55 -120 35 -285zM247 27q21 -10 35 -14q55 -16 128 -2q2 6 2 11q0 6 -3.5 16.5t-8.5 20.5l-12 23l-12 21l-12 19l-7 10l-69 106l-18 -96zM388 727l44 44l-26 -85q34 -24 55 -68t20 -91l-44 -44q1 38 -13 75t-38 63
q-51 -165 -74 -269l-6 -29q17 -28 50 -78l45 -69q0 -1 7 -11l11 -18l13 -21l12 -23t8.5 -20.5t3.5 -16.5q0 -8 -3.5 -16.5t-8.5 -18.5t-7 -15l-44 -44q-93 -21 -155 -3q-2 1 -3 1l-13 -54l-44 -44q12 50 25 111q-31 14 -62.5 34t-62 44.5t-45.5 52t-7 50.5q2 6 6 12l10 13
l9 11l44 44q38 24 67.5 30t74.5 0l-44 -44q-39 5 -65.5 1.5t-55.5 -19.5l-2 -4q-10 -26 13 -59t57 -58t75 -48q41 212 47 236q-28 46 -45.5 85t-28.5 84t-5 90t30 87l44 44q60 56 123 31z" />
    <glyph glyph-name="percent" unicode="%" horiz-adv-x="672" 
d="M290 430q12 19 18 37.5t7.5 36.5t-8 32t-29.5 21l-5 -1q-60 -96 -16 -126q9 -6 33 0zM262 389q-5 0 -16.5 -3t-17 -3.5t-15.5 3.5q-17 12 -17.5 36t12.5 50.5t25.5 46.5t23.5 33l9 9l-12 2l44 44q13 -2 23 -6l27 7l-13 -13q19 -12 23 -33t-4 -44.5t-20.5 -44.5t-27.5 -40
zM592 127q23 37 24.5 70t-18.5 41l-20 -20l-29 3q-3 -5 -6 -9q-37 -56 -22 -88q14 -30 60 -3q6 3 11 6zM578 108q-34 -32 -60 -40t-36.5 4.5t-6.5 39t24 56.5q6 9 14 18l18 18q10 11 15 17l9 9q-22 -12 -48 -37l44 44q67 65 97 40q24 -19 5 -71q-10 -28 -31 -54zM639 637
l47 39l-44 -44l-17 -14l-65 -89l-65 -95q-41 -61 -67 -109l-52 -105q-28 -57 -41 -109.5t-13 -98.5l-44 -44q0 47 13.5 99.5t41 110.5t53.5 105.5t68 110.5l66 95l64 89q7 10 11 15z" />
    <glyph glyph-name="ampersand" unicode="&#x26;" horiz-adv-x="547" 
d="M183 553q-67 -104 -105 -219q-38 -114 -19 -213q9 -49 56 -63q65 -19 130.5 10t133.5 89l-9 11q-44 53 -68 86q-28 39 -59 91t-46.5 105t-13.5 103zM255 703q-20 -38 -26 -80q47 59 49 85q1 11 -11 4q-5 -3 -12 -9zM425 199q3 5 15 20.5t16 21.5l14 20q9 14 13.5 23
t9.5 22t8 26q14 60 -58 59q-56 -1 -108 -26q-4 -2 -7 -4q-8 -5 -17 -12q38 -60 103 -137zM461 233l-35 -35q26 -32 42.5 -50.5t42.5 -43t50 -41.5l-44 -44q-24 17 -50.5 42t-42.5 43l-43 51l-33 -30l-34 -29q-20 -17 -37.5 -29t-38 -24.5t-40.5 -19.5t-41 -12t-43 -4t-43 7
q-46 14 -56 63q-20 103 23 225.5t115 227.5q7 11 31 38q5 52 31 98l44 44q51 48 59 49q5 0 4 -7q-1 -12 -9 -28t-27 -40l-26 -34l-32 -38q-12 -115 82 -263l8 8q6 5 16.5 15.5t19.5 18.5t18 14q35 21 94 28q83 10 81 -42q0 -7 -2 -15q-5 -21 -15.5 -42t-17.5 -32
t-26.5 -36.5t-24.5 -32.5z" />
    <glyph glyph-name="quotesingle" unicode="'" horiz-adv-x="126" 
d="M62 615l-5 -5l2 33l44 44q5 -35 7 -95t8 -109t22 -92l-44 -44q-14 39 -20.5 81.5t-9 103t-4.5 83.5z" />
    <glyph glyph-name="parenleft" unicode="(" horiz-adv-x="301" 
d="M210 693l44 44q-106 -141 -129 -315q-23 -172 40 -339q6 -17 13 -31q6 -15 14 -32l15 -29q6 -12 17 -31l18 -29l18 -31q13 -21 17.5 -27.5t19.5 -30t18 -27.5l-44 -44q-3 4 -18 27l-19 30l-18 28q-13 22 -18 32l-18 28q-11 19 -17 31l-15 29q-8 17 -14 32l-13 31
q-63 166 -39.5 339.5t128.5 314.5z" />
    <glyph glyph-name="parenright" unicode=")" horiz-adv-x="185" 
d="M37 686l44 44q53 -70 82 -166.5t34 -196t-6.5 -207t-34 -201.5t-53.5 -177l-44 -44q31 83 53.5 177t34 201.5t6.5 207.5t-34 196t-82 166z" />
    <glyph glyph-name="asterisk" unicode="*" horiz-adv-x="339" 
d="M13 513l44 44l26 4q-29 20 -55 42l44 44q30 -25 63 -47q3 34 11 64l44 44q-15 -53 -11 -124l7 2l24 25l44 44l43 16l-44 -44l-39 -15l-24 -26q103 27 163 29l-44 -44q-44 -2 -100 -13q43 -21 94 -40l-44 -44q-38 14 -71 29l4 -29l-44 -44q-9 68 -11 93q-15 -19 -26 -38
l-44 -44q25 42 67 89l-11 7q-70 -18 -110 -24z" />
    <glyph glyph-name="plus" unicode="+" horiz-adv-x="528" 
d="M67 199l44 44q59 1 149 9q3 106 11 175l44 44q-9 -76 -12 -214q160 16 239 14l-44 -44q-75 2 -196 -10q-3 -113 -9 -179l-44 -44q6 67 10 219q-127 -13 -192 -14z" />
    <glyph glyph-name="comma" unicode="," horiz-adv-x="136" 
d="M59 11l44 44q48 46 46 -17q-1 -55 -25 -121q-1 -3 -2 -5q-3 -7 -7.5 -14.5t-10.5 -16t-9 -13.5l-44 -44q3 5 9 13.5t10.5 16t7.5 14.5q14 31 24 96q11 72 -15 66q-11 -2 -28 -19z" />
    <glyph glyph-name="hyphen" unicode="-" horiz-adv-x="287" 
d="M1 239l44 44q18 2 62 8.5t67.5 9.5t60 6t66.5 3l-44 -44q-30 0 -66 -3t-60 -6t-68 -9.5t-62 -8.5z" />
    <glyph glyph-name="period" unicode="." horiz-adv-x="137" 
d="M78 30l44 44q1 -8 1 -16v-10q0 -4 0.5 -7t1 -3t3 1t4.5 3.5t8 7.5l11 10l-44 -44q-5 -5 -11 -10t-8 -7.5t-4.5 -3.5t-3 -1t-1 3t-0.5 7v10q0 8 -1 16z" />
    <glyph glyph-name="slash" unicode="/" horiz-adv-x="250" 
d="M220 675l44 44l-48 -147l-53 -162q-18 -57 -43 -143.5t-42 -159.5l-44 -44q17 73 42 160t43 143l53 162z" />
    <glyph glyph-name="zero" unicode="0" horiz-adv-x="477" 
d="M329 64q-57 -39 -105.5 -52.5t-83 -4t-60.5 35t-40 65t-19.5 86t-0.5 97.5t18 100q30 110 118 208l44 44l18 11q8 5 11.5 7.5t6 4.5t6.5 2.5t6 1t11 2t17 2.5l-44 -44q-7 -1 -15 -2t-11 -2h-6q-3 -1 -5.5 -2.5t-4.5 -3t-8 -5.5t-12 -7q-62 -79 -88 -173q-24 -87 -20 -171
q4 -85 36.5 -144.5t97.5 -70.5t163 50q56 70 76.5 145.5t5.5 144.5t-69.5 128t-143.5 94l44 44q94 -37 149.5 -101t66.5 -138.5t-18 -155.5t-97 -152z" />
    <glyph glyph-name="one" unicode="1" horiz-adv-x="240" 
d="M21 452l44 44q3 -5 6 -9.5t5 -7t3 -5.5t2.5 -3.5t2 -1.5t3 0.5t3 1.5t5 3t6.5 5q63 79 102 192l44 44q-21 -84 -29 -176t-3 -188.5t14 -177.5t25 -182l-44 -44q-14 87 -22.5 158t-14 154.5t-3 164t14.5 155.5q-29 -46 -70 -91l-44 -44l-16 -10q-8 -5 -9.5 -7t-5 -1.5
t-4 2.5t-5.5 10z" />
    <glyph glyph-name="two" unicode="2" horiz-adv-x="569" 
d="M243 432h-33q-30 0 -55.5 2t-55.5 6t-47.5 13.5t-15.5 24.5q1 11 7 21.5t15 22.5t13 19l44 44q144 84 375 80h8h15q6 0 16 -1t17.5 -2.5t15 -4t12.5 -7t6 -9.5q2 -8 -2.5 -15.5t-12.5 -17t-11 -14.5l-44 -44q-19 -14 -65 -44t-70 -49q-52 -41 -132 -119l2 2l27 27l30 29
l27 26l31 28l28 25l31 26q17 14 35 25l42 28l36 24q6 10 4 19q-1 6 -6 10t-12.5 6.5t-15 4t-17.5 2.5t-16 1h-14h-9q-214 4 -353 -68q-12 -17 -13 -31q-2 -15 15.5 -25t47 -14t55.5 -5.5t56 -1.5h33zM243 338q-67 -91 -109.5 -162.5t-66.5 -151.5q37 56 58 78l44 44
q33 25 61.5 36.5t49 10.5t38.5 -9t31 -24l27 -32q13 -17 24 -36t25 -34t29 -26t36 -13.5t45 5.5q1 0 2 1q3 46 -4 63.5t-43 39.5l44 44q26 -16 36 -29t11.5 -32t-0.5 -49l-44 -44q-5 -4 -13.5 -13.5t-16.5 -15.5t-16 -9q-28 -9 -48 -5t-37.5 16.5t-30.5 30.5l-27 38l-27 38
q-13 19 -30.5 31.5t-37.5 18t-48 -2.5t-62 -30q-5 -7 -34 -50.5t-48 -63.5l-44 -44q23 88 67 164.5t117 174.5z" />
    <glyph glyph-name="three" unicode="3" horiz-adv-x="490" 
d="M165 466q-3 1 -11 4l-13 5l-14 5q-9 4 -14.5 7.5t-13.5 8t-12.5 9t-9.5 10.5t-7 12.5t-2 14t3 15.5t10 15t17 14.5t14 12.5l4 4l39 39l-15 -12q-9 -7 -15 -13.5t-9 -13.5l39 39l1 1q86 29 144 19q73 -13 112.5 -59.5t34 -107t-54.5 -112.5l-44 -44q-19 -13 -38 -23l26 -6
q30 -8 61.5 -26.5t59 -44t40 -59.5t1.5 -68q-2 -7 -7 -14l-11 -14q-7 -8 -10 -12l-44 -44l-18 -14q-13 -10 -20 -14l-17 -12q-11 -8 -21 -13t-21 -9q-35 -13 -81 -14q-45 -1 -88.5 9t-77.5 36.5t-45 65.5l44 44q11 -39 45 -65.5t77.5 -36.5t89 -9t80.5 14q31 11 74 44
q5 7 7 14q11 34 -1.5 68t-40 59.5t-59 44t-61.5 26.5q-36 10 -76 11q-56 -15 -123 -17l44 44q58 19 123 17q58 16 114 50q24 38 28 78.5t-11 74.5t-50.5 59.5t-84.5 34.5q-57 10 -141 -18q-6 -18 0 -32.5t23.5 -25.5t29.5 -16l31 -13q7 -2 10 -3z" />
    <glyph glyph-name="four" unicode="4" horiz-adv-x="506" 
d="M358 403q-46 -73 -73 -152q8 0 46 -0.5t53 0t42.5 3.5t48.5 9q-3 29 -22 78q-10 26 -19 41q-9 16 -20 24.5t-24.5 7.5t-31.5 -11zM387 658l44 44q-46 -54 -135 -173t-140 -178l-44 -44q-31 -31 -66 -62q47 -5 70.5 -4.5t70.5 5t71 5.5q30 72 73 134l44 44q33 25 55 27.5
t36.5 -14t30.5 -57.5q4 -11 14 -44t8 -40q-2 -6 -6.5 -11.5t-11.5 -11.5t-10 -10l-22 -22l-13 -13q10 9 13 13l-13 -13l-9 -9q-26 -9 -57 -13.5t-58.5 -4t-59.5 0.5q-28 -112 1 -191q7 -20 24.5 -38t29.5 -26l39 -23l-44 -44l-38 23q-13 8 -30 26t-25 38q-35 95 12 235h-27
q-24 -1 -72.5 -5.5t-72 -5t-72.5 5.5l44 44l78 69q48 57 135 173t133 170z" />
    <glyph glyph-name="five" unicode="5" horiz-adv-x="423" 
d="M393 602q-39 16 -101 37.5t-79 21.5h-1q-6 -13 -78 -154l-47 -92q-2 -4 -11 -15q-8 -12 -6 -12q17 9 36.5 28.5t42 36t52.5 24.5q40 10 77 1.5t63 -31t47.5 -55t31.5 -70t14.5 -76t-3.5 -72.5q-2 -9 -6 -19t-10 -22l-9 -18l-44 -44l-18 -18q-14 -14 -22 -21l-19 -16
q-12 -11 -23.5 -18t-23.5 -12q-24 -10 -59.5 -12t-70.5 4t-64.5 23.5t-40.5 42.5q-3 8 -3 17t1.5 21t1.5 18l44 44q57 51 104 74t112 22l-44 -44q-51 1 -91.5 -13.5t-80.5 -45.5q-1 -4 -2 -13l-1 -12q-1 -5 0 -12t3 -12q11 -26 40.5 -43t64.5 -23t70.5 -4t59.5 12
q29 12 63 43l9 18q6 12 9.5 21t5.5 18q7 34 4 72.5t-14.5 76t-31.5 70t-48 55t-63 31.5t-77 -2q-30 -7 -52.5 -24t-42 -36.5t-36.5 -28.5q-4 -2 -1 2q1 3 7 10q9 11 11 15l47 92q76 149 91 183l44 44q3 2 9.5 6t12 6.5t10.5 2.5q16 0 78.5 -22t101.5 -37z" />
    <glyph glyph-name="six" unicode="6" horiz-adv-x="484" 
d="M125 271q-12 -15 -14 -17t-6.5 -11.5t-4 -12t-3 -21t-7.5 -36.5l-23 -23q17 -61 54 -103t90.5 -56.5t117.5 15.5q16 8 43 28q44 62 62.5 116t12 92t-33.5 62.5t-69 30t-99.5 -10.5t-119.5 -53zM454 577q-2 68 -45.5 96t-109.5 1q-49 -20 -105 -74q-77 -106 -113 -201.5
t-23 -205.5q2 6 5 11t7 9.5t14 18.5l22 27l44 44q67 43 129 62t106.5 13.5t72.5 -31.5t33 -67.5t-18.5 -101t-75.5 -125.5l-44 -44q-7 -5 -20.5 -15.5t-25 -18.5t-22.5 -13q-71 -32 -128.5 -12.5t-94.5 72.5t-47 123q-15 112 22.5 210t116.5 207l44 44q6 5 32.5 31
t36.5 34.5t32 23t44 23.5q66 26 109.5 -1.5t45.5 -95.5z" />
    <glyph glyph-name="seven" unicode="7" horiz-adv-x="461" 
d="M4 635l44 44q2 -4 5 -11.5t6 -13t8 -8.5q21 -13 76 -14.5t123 5.5t119 14t90 14l-44 -44q-58 -19 -111 -63q-51 -68 -90 -146t-64 -164t-40.5 -163.5t-28.5 -174.5l-44 -44q13 100 29.5 180t43 168.5t68 168.5t96.5 149l44 44q25 23 42 36q-295 -45 -353 -10q-5 3 -8 8.5
t-6 13t-5 11.5z" />
    <glyph glyph-name="eight" unicode="8" horiz-adv-x="440" 
d="M208 305q-40 28 -61.5 44.5t-50.5 42.5t-46.5 51t-26.5 51q-2 8 -2.5 15.5t1 13t4.5 13t6 12.5l8 12l6 12l44 44q68 61 117 86.5t102 11.5l20 20l19 -19l22 -21q8 -8 14 -16l7 -5l-2 -2q14 -21 19 -48q6 -34 -3.5 -69.5t-35.5 -72t-51.5 -65.5t-65.5 -67q61 64 92 120
t20 110q-6 32 -23 55q-38 26 -71.5 35.5t-65.5 2t-59.5 -23.5t-61.5 -44l-9 -15q-3 -5 -7 -16t-3 -17l3 -18q9 -27 26.5 -51.5t47 -50.5t50.5 -42.5t61 -44.5q0 -1 2 -2q54 -38 81 -60t62.5 -58.5t48 -74.5t5.5 -80l-44 -44l-14 -14q-9 -8 -12.5 -10.5t-10.5 -8t-13 -7.5
t-15 -5.5t-22 -6.5q-26 -6 -70 -6t-90.5 7t-83 28t-42.5 52q-8 41 26 87.5t104 114.5q-47 -48 -69.5 -86.5t-16.5 -71.5q6 -31 42.5 -52t83 -28t90.5 -7t70 6q29 7 44 16q3 24 -1.5 47.5t-12.5 42t-26 40.5t-31.5 36t-40.5 35.5t-42 32.5z" />
    <glyph glyph-name="nine" unicode="9" horiz-adv-x="427" 
d="M367 654l2 2q-25 33 -57.5 38.5t-65 -8.5t-75.5 -45l-31 -39q-11 -14 -24 -38t-22 -52q-21 -62 -17 -103.5t23.5 -62t55.5 -14.5t79 39q86 114 132 283zM213 58q-2 -3 -15.5 -16.5t-18.5 -17.5l-16 -15q-11 -10 -20.5 -16t-20.5 -11q-32 -16 -53 -8t-30.5 26t-5 44.5
t23.5 48.5l44 44q-19 -22 -23.5 -48.5t5 -44.5t30.5 -26t53 8q24 11 47 32zM217 62q42 49 70 107.5t42.5 127.5t20.5 123t11 135q-39 -89 -98 -161l-44 -44q-39 -36 -74 -52t-59.5 -10t-38.5 27.5t-13.5 61.5t16.5 91q7 21 14.5 37.5t18.5 33t18 26t24 29.5l25 31l44 44
q33 26 59.5 42t55.5 25t51 3t43.5 -29.5t37.5 -65.5l-35 -35q-4 -67 -8 -109.5t-14 -103.5t-24 -105.5t-39.5 -94t-59.5 -90.5zM217 62l11 10l18 18z" />
    <glyph glyph-name="colon" unicode=":" horiz-adv-x="194" 
d="M128 389q-6 7 -13 14t-9 8t-2.5 5t1 5t7.5 8.5t11 14.5l7 7q-10 2 -26 2l44 44q46 0 49 -15.5t-25 -48.5zM159 3l-13 -6q-7 -3 -10.5 -5t-6 -2.5t-3 -0.5t-0.5 2.5t0.5 5.5t2 10t2.5 14l19 19q-13 -3 -22 -4l44 44q9 1 18.5 3t11.5 3t4 -1.5t1 -5t-2 -12.5l-2 -20z" />
    <glyph glyph-name="semicolon" unicode=";" horiz-adv-x="204" 
d="M132 397q-7 3 -14 5.5t-9.5 4t-5 2.5t-0.5 3t3.5 4t7 7.5t10.5 11.5l1 1q-6 2 -13 5l44 44l17 -7q9 -3 11.5 -3t4 -3t0 -4.5t-5.5 -10t-7 -16.5zM128 37l-32 -32l24 33l44 44q4 -1 13.5 -1.5t16 -2t10.5 -6.5q46 -63 -57 -182l-44 -44q103 120 57 182q-2 3 -6.5 5t-7 2.5
t-10 1t-8.5 0.5z" />
    <glyph glyph-name="less" unicode="&#x3c;" horiz-adv-x="597" 
d="M72 254q34 20 197.5 109t245.5 145l-44 -44q-55 -37 -114.5 -72t-148.5 -82l-119 -65q28 -16 61 -26.5t77.5 -21.5t65.5 -17q75 -23 115.5 -36.5t100 -41.5t102.5 -62l-44 -44q-43 34 -102.5 62t-100.5 42q-35 12 -115 36q-21 6 -71 18q-50 13 -84.5 25t-65.5 31z" />
    <glyph glyph-name="equal" unicode="=" horiz-adv-x="500" 
d="M29 321l44 44q46 -2 139 1.5t166 -0.5t136 -25l-44 -44q-62 21 -135 25.5t-166.5 0.5t-139.5 -2zM73 110l44 44q45 1 170.5 7.5t193.5 6.5l-44 -44q-68 0 -193 -6.5t-171 -7.5z" />
    <glyph glyph-name="greater" unicode="&#x3e;" horiz-adv-x="508" 
d="M-10 466l44 44q40 -33 96 -64t94 -47l107 -44q13 -5 54.5 -17.5t71 -26t46.5 -32.5q4 -4 7 -10l6 -13l6 -12l-44 -44q-34 -23 -72 -43.5t-96 -48.5l-76 -37q-36 -18 -76 -41l-86 -50q-47 -29 -74 -44l44 44l74 44l86 50q40 23 76 41l62 30l72 35l60 33q-7 15 -13 22
q-17 19 -46.5 32.5t-71 26t-54.5 17.5q-70 28 -107 44.5t-93.5 47t-96.5 63.5z" />
    <glyph glyph-name="question" unicode="?" horiz-adv-x="538" 
d="M217 23v11v9v5q-3 2 -8 4t-7 3q-6 1 -9 1q-3 -23 3.5 -31t20.5 -2zM218 13q-27 -26 -44.5 -33.5t-23.5 7t7 56.5l44 44l9 3l12 12l12 -2q5 2 12 -1q14 -1 15 -7l9 -4l-9 -9q0 -11 1 -22zM126 393q-7 3 -16.5 5.5t-11.5 3.5l-6 3q-4 2 -2.5 4t2 4.5t5.5 7.5t9 11l11 16
l14 21l44 44q139 126 273 142q1 0 5 1q109 14 98 -34q-3 -11 -66 -82l-136 -149q-73 -79 -85 -94q-6 -7 -15 -19l-25 -36q-17 -24 -24 -42.5t0 -23.5q9 -4 14.5 -3.5t16.5 3.5t16 4l-44 -44q-5 0 -16 -3.5t-16.5 -3.5t-14.5 3q-7 5 0 23.5t24 42.5l25 36q9 12 15 19
q13 16 86 95l136 148q63 71 65 82q11 49 -98 34q-4 -1 -5 -1q-119 -14 -237 -111l-13 -19q-7 -9 -11 -13t-6 -9t-3.5 -6t2 -3.5t5.5 -3t12 -4t17 -5.5z" />
    <glyph glyph-name="at" unicode="@" horiz-adv-x="862" 
d="M546 393l24 24q-8 40 -42 45t-88 -31q-43 -58 -58 -101q-12 -35 -13.5 -56t5.5 -28t20.5 -5t28.5 11t32 22q58 66 91 119zM553 316q20 50 18 88q-19 -40 -24 -76t3 -62t28 -44t48 -24.5t65 0.5t76 28q48 69 60 137.5t-9.5 124t-82.5 94.5t-154 51q-121 16 -215 -21
q-93 -36 -193 -121l-24 -32q-18 -24 -22.5 -30.5t-16.5 -26t-16 -32.5l-10 -32q-7 -20 -11 -45q-15 -86 3 -147q19 -63 59.5 -97.5t105 -53t128.5 -22t143 3t135 16t117 22.5l-44 -44q-61 -13 -117 -22.5t-135 -16t-143 -3t-128.5 22t-105 53t-59 97t-3.5 147.5
q6 31 12.5 53.5t18.5 44t19.5 33.5t28.5 39.5t32 43.5l44 44l57 48q26 21 56.5 42t57 34.5t59.5 26t64.5 17t70 7t76.5 -4.5q98 -13 160.5 -56t81 -103.5t-1 -134t-78.5 -146.5l-44 -44q-40 -24 -78.5 -34.5t-68 -7t-52 18.5t-33.5 39.5t-9.5 58.5t16.5 72l-43 -50l-44 -44
q-18 -16 -36 -28t-34.5 -18t-26.5 -1.5t-10 26.5t14 61q5 15 11 28t14.5 26.5t14.5 21.5l18 24l17 24l44 44q35 30 66.5 43.5t51.5 8t31 -23.5t9 -50t-18 -72z" />
    <glyph glyph-name="A" unicode="A" horiz-adv-x="489" 
d="M454 71q12 51 -6 196.5t-38 211.5q-11 36 -40 99.5t-49 67.5q-34 6 -61 -14q-120 -156 -180 -391q58 11 117.5 -15.5t136.5 -85.5q9 -7 25.5 -22.5t30.5 -26.5t29 -16q11 -4 35 -4zM-61 152q-1 -2 -3 -5.5t-3 -5.5l-3 -5q-1 -3 -1.5 -5t-0.5 -4.5t1 -4t3 -2.5
q35 -20 85 -8l1 4q8 41 18 82q-48 -9 -97 -46zM153 -98q-9 -1 -23.5 -4.5t-24.5 -5.5t-22.5 -2t-22.5 5q-73 35 -48 185q-78 -31 -124 -4q-5 2 -4 8t4 10l6 12q4 8 5 12l44 44q52 50 102 70q65 228 187 375l44 44q5 4 12 10.5t10.5 9.5t10.5 8t11.5 6.5t12.5 4.5t14.5 1.5
t17.5 -1.5q20 -4 49 -67.5t40 -99.5q20 -68 38 -215q19 -148 5 -196q-2 -7 -6 -14t-10 -15l-9 -12l-44 -44q-10 1 -18 0.5t-18 0t-17 3.5q-15 5 -29 16t-30 26.5t-26 22.5q-66 51 -118 77.5t-102 26.5l-8 -40q-6 -30 -7 -36q14 5 37 16t31 14l-44 -44q-8 -3 -27 -12
q-16 -126 52 -159q10 -5 22.5 -5t22.5 2t24.5 5.5t23.5 4.5z" />
    <glyph glyph-name="B" unicode="B" horiz-adv-x="580" 
d="M110 128q15 -140 49 -185q2 -3 5 -5q7 84 -54 190zM509 115q29 32 37 62q9 33 -6 59t-43.5 39.5t-59.5 19.5t-58 4q-87 -5 -208 -66l44 44l13 12l4 4l44 44l40 37l-38 -38l-33 -31l-6 -6l-20 -20q118 58 204 64q27 2 57 -5q31 -6 60 -19t44 -39t6 -59q-4 -14 -12.5 -28.5
t-14.5 -22t-21 -24.5l-20 -20l-44 -44q-69 -59 -131.5 -84.5t-138.5 -12.5q-2 -33 -15 -61l-44 -44q-4 2 -11.5 5t-13 6t-9.5 8q-49 65 -57 306q-62 80 -131 134l44 44q43 -34 86 -80q1 145 16 216q4 20 7 31q3 12 8.5 25t7.5 17l12 21l15 25l44 44q44 33 105 37t111 -26
t62 -86q6 -31 -0.5 -60t-26.5 -58t-35.5 -46.5t-44.5 -46.5l-16 -16l-6 -6q47 49 71 93.5t14 95.5q-8 39 -35.5 66t-63 37.5t-76 8t-75.5 -19.5q-14 -23 -20.5 -40t-13.5 -52q-10 -45 -14.5 -133t-0.5 -181q111 -144 106 -258l39 39q74 -14 135.5 8.5t126.5 76.5z" />
    <glyph glyph-name="C" unicode="C" horiz-adv-x="544" 
d="M322 474l44 44q2 -2 5 -6l27 -27q7 -8 18.5 -16.5t16 -9t15 2.5t18.5 10l22 19q44 68 11.5 112.5t-120.5 47.5q-66 3 -120.5 -25.5t-115.5 -82.5q-4 -5 -15.5 -20.5t-14.5 -20t-12 -17t-12.5 -19.5t-10 -19t-11.5 -24q-5 -11 -10 -26q-16 -45 -23 -95q-8 -51 -4.5 -104.5
t28.5 -98t71 -65.5q34 -16 74.5 -20t73.5 -1t79.5 16t72.5 22t72 27l23 9l-44 -44q-7 -3 -23 -9q-46 -18 -72 -27t-72.5 -22t-79.5 -16t-73.5 1.5t-74.5 19.5q-46 21 -71 65.5t-28.5 98t4 104.5t23.5 95q8 21 15 37.5t17.5 33.5l16.5 26l22 30l24 32l44 44l48 43
q17 14 48 37t54 33.5t55.5 18.5t65.5 7q93 -4 123.5 -52.5t-26.5 -123.5l-44 -44l-22 -19l-26 -24q-8 -7 -20 -12t-16.5 -4.5t-16.5 8t-20 16.5l-28 28q-3 4 -5 6z" />
    <glyph glyph-name="D" unicode="D" horiz-adv-x="556" 
d="M52 430q-29 -113 -30 -243q-1 -50 10 -132t35 -95q3 -2 7 -2q55 160 -22 472zM-24 682l44 44q31 -90 53 -167q29 55 67 101l44 44l20 12q13 8 24 14t22 9q43 11 84.5 1t74.5 -37.5t63 -66.5t49.5 -84.5t33 -92.5t14.5 -90.5t-6 -78.5q-6 -22 -11 -37.5t-14 -30t-15 -22
l-22 -26.5l-25 -29l-44 -44l-32 -29l-28 -24q-19 -16 -28 -22l-27 -17q-17 -11 -29 -15l-30 -8q-17 -6 -33.5 -7t-37 -1t-43.5 2l44 44q25 -4 50 -2t42.5 3t37 8.5t33 14t31.5 19t32 24t34 29.5q2 2 11.5 13t10.5 13l9 11q7 9 8.5 12t7 11t7.5 14l6 14l6 18l5 20
q8 34 6 78.5t-14.5 90.5t-33 92.5t-49 84.5t-63 66.5t-75 38t-84.5 -1.5q-16 -4 -47 -24q-46 -64 -77 -145q104 -384 24 -554l-44 -44q-4 -1 -13 -6t-13.5 -6.5t-12.5 0.5q-24 14 -34.5 95.5t-10.5 131.5q2 189 60 339q-25 91 -62 200z" />
    <glyph glyph-name="E" unicode="E" horiz-adv-x="581" 
d="M37 28l44 44l1 -1q4 147 22 263l-14 -6q-3 -1 -14 -7l-20 -12q-11 -6 -24.5 -11.5t-25.5 -9t-23.5 -2.5t-18.5 7q-5 3 -3 9t5 11l9 12q5 7 7 11l44 44q-2 -4 -7 -11l-9 -12q-3 -5 -5 -11t3 -9q24 -21 100 20q12 72 30 139l1 1q-106 11 -171 38l44 44q79 55 270 95.5
t313 40.5l-44 -44q-99 0 -257 -29t-259 -72q60 -21 162 -30l-20 -20q-18 -69 -29 -142q129 58 297 69l-44 -44q-145 -10 -257 -52q-17 -125 -19 -293q23 -5 50 -6.5t49.5 -2t55.5 3t52.5 6t55.5 9t50 9.5t51.5 10.5t44.5 9.5l-44 -44q-6 -1 -46 -9l-54 -12q-14 -3 -50 -9.5
t-58 -9t-53 -5.5t-57.5 -2.5t-51.5 2.5l-39 -39v46q-24 5 -44 13z" />
    <glyph glyph-name="F" unicode="F" horiz-adv-x="581" 
d="M-18 336l44 44q-2 -4 -7 -11l-9 -12q-3 -5 -5 -11t3 -9q24 -21 100 21q12 72 30 138l1 1q-106 11 -171 38l44 44q79 55 270 95.5t313 40.5l-44 -44q-99 0 -257 -29t-259 -72q60 -21 162 -30l-20 -20q-18 -68 -29 -142q129 58 297 69l-44 -44q-145 -10 -257 -52
q-18 -141 -18 -422l-44 -44q0 100 1 156.5t6 140t15 153.5l-14 -7q-3 -1 -14 -7l-20 -12q-11 -6 -24.5 -11.5t-25.5 -9t-23.5 -2.5t-18.5 7q-5 3 -3 9t5 11l9 12q5 7 7 11z" />
    <glyph glyph-name="G" unicode="G" horiz-adv-x="647" 
d="M508 237q-32 -49 -60 -101q32 36 51 77q6 12 9 24zM237 232q154 75 222 102q-30 2 -71 -12q-62 -21 -151 -90zM611 348q-26 -5 -53 -11q4 -16 0 -36q16 16 53 47zM507 250l7 7q8 42 -16 62q-17 -5 -34.5 -11t-37.5 -14l-33 -14q-14 -5 -37 -15l-32 -15l-36 -16l-32 -16
l-36 -17q-28 -14 -33 -16l37 37l-14 -11l44 44l58 45q18 13 53.5 34t66.5 32q76 26 110 -3q61 20 119 30l-44 -44q-16 -16 -61 -54q-4 -18 -13 -38q-12 -26 -29.5 -50t-28.5 -35l-39 -39q-82 -153 -65 -215q2 -6 6 -12t10.5 -12.5t9.5 -10.5l-44 -44q-3 4 -9.5 10.5
t-10.5 12.5t-6 12q-17 62 66 216l-21 -21l-30 -21q-21 -15 -32 -22l-27 -16q-17 -10 -33.5 -16.5t-35.5 -11.5q-64 -15 -107 -10.5t-66.5 30t-32.5 60t-5 78.5t16 87.5t31 85.5q10 23 18.5 39.5t19.5 33t17 24.5l23 30l27 34l44 44l-27 -34l-23 -30q-6 -8 -17 -25t-19.5 -33
t-18.5 -39q-19 -42 -31 -85.5t-16 -87.5t5 -79t32.5 -60t66.5 -29.5t107 10.5l19 6q9 2 18 6l15 7q7 3 16 9l14 8q5 2 16 9l13 9l15 10l15 11q54 98 98 149zM484 475l44 44q5 87 3 97q-8 33 -33 46.5t-56.5 8.5t-60.5 -16t-50 -25q-12 -8 -24.5 -18t-26.5 -24l-24 -24
l-26 -25l-21 -21q50 49 78 68q22 14 50.5 25t60 16t56.5 -8.5t33 -46.5q3 -10 -3 -97z" />
    <glyph glyph-name="H" unicode="H" horiz-adv-x="486" 
d="M38 683l44 44q2 -82 14 -230t15 -200q2 -29 3 -156q10 18 23 36l44 44q28 18 87.5 44t86.5 44q31 42 48.5 98t31 132t21.5 108l44 44q0 -124 -11 -371t-11 -371l-44 -44q0 84 3.5 179t8.5 209t7 179q-27 -97 -80 -150l-44 -44q-29 -24 -92 -52l-76 -34
q-12 -22 -19.5 -48.5t-9.5 -44.5t-5 -52.5t-5 -52.5l-44 -44q-7 58 -8 164q-1 105 -3 139q-4 60 -15 201q-12 148 -14 229z" />
    <glyph glyph-name="I" unicode="I" horiz-adv-x="201" 
d="M127 655l44 44q-19 -103 -28 -190t-8.5 -184.5t20.5 -191t60 -178.5l-44 -44q-40 85 -60 178.5t-20.5 191t8.5 184.5t28 190z" />
    <glyph glyph-name="J" unicode="J" horiz-adv-x="198" 
d="M-62 -184q-4 8 -8.5 18t-6.5 15t-5.5 10t-7 7t-7.5 1q-8 -40 6.5 -77t44 -58.5t69 -29.5t82.5 8q18 6 32 16q11 21 18 44t10 41.5t2.5 46t-1.5 42.5t-5 47.5t-5 45.5q-16 172 -14 297l9 378l44 44l-9 -378q-3 -125 14 -297q1 -13 5 -47t5 -48.5t1.5 -43.5t-3 -47t-11 -42
t-20.5 -45l-44 -44l-13 -14l-14 -12.5t-11.5 -9.5t-15.5 -10t-18 -8q-36 -13 -72 -9.5t-63 20t-46.5 43.5t-22.5 60.5t10 71.5l44 44q14 8 22.5 11t14 4.5t10 -4t6.5 -9.5l8 -16l10 -22z" />
    <glyph glyph-name="K" unicode="K" horiz-adv-x="595" 
d="M86 237q-3 -116 -20 -202l-44 -44q20 101 21 252q-5 1 -10 1l10 10v66v65q0 231 -3 286l44 44q3 -55 3 -286v-69v-68q14 6 29 14q35 61 86 129l44 44q55 53 119 101t69 25q2 -10 -3 -20t-14.5 -21.5t-12.5 -18.5l-44 -44q3 7 12.5 18.5t14.5 21.5t3 20q-4 19 -50 -12
t-102 -81q-57 -77 -94 -147q87 52 216 180l-25 -25q-22 -23 -28 -28l-26 -26l-29 -28l-28 -24q-18 -17 -30 -27l-30 -23q-16 -12 -32 -22l-7 -16q35 -7 68 -23t54 -31l59 -45q35 -28 60 -45q113 -79 243 -122l-44 -44q-131 43 -243 122q-21 15 -68.5 52.5t-79.5 56.5t-70 30
z" />
    <glyph glyph-name="L" unicode="L" horiz-adv-x="373" 
d="M289 525q-3 10 -7 25.5t-7 28.5t-7.5 27.5t-9 25t-11.5 20t-15 13.5t-19.5 3.5t-24.5 -7.5q-26 -53 -42 -121t-21 -114.5t-11.5 -132.5t-9.5 -121q0 -2 -5 -56t-6 -66q0 -1 -1.5 -10.5t-3.5 -20.5t-4 -23.5t-2.5 -19.5t0.5 -8q8 -1 36 22l65 54q36 29 75 53t74.5 23
t54.5 -37l-44 -44q-19 36 -54.5 37t-74.5 -23t-75 -53l-65 -53q-28 -24 -36 -23q-1 1 0 8t2.5 19.5t3.5 23.5t3.5 20.5t1.5 10.5q2 12 6.5 66t4.5 56q4 37 8.5 102.5t8.5 108.5t12.5 98.5t24.5 105t40 94.5l44 44q22 19 39.5 27t29.5 4t20.5 -13t15.5 -26.5t11 -32.5l10 -38
q5 -21 9 -33z" />
    <glyph glyph-name="M" unicode="M" horiz-adv-x="468" 
d="M88 513q-5 76 -22 128q-4 -20 -1 -51q5 -47 23 -77zM104 -1q-6 298 -12 412q0 8 -1 17q-61 24 -70 118q-4 39 3 62q8 23 33 55l44 44l11 -31q6 -16 9 -35t5.5 -31.5t4 -36t2 -32t1.5 -36t1 -33.5q45 -18 106.5 2t117.5 61q48 54 71 112q4 12 8 22l44 44l-8 -22
q-11 -32 -17 -75.5t-7.5 -69t-3 -83t-1.5 -70.5q-1 -14 -4 -105l-4 -122q-1 -31 -2 -100.5t0.5 -122t4.5 -105.5l-44 -44q-3 53 -4.5 105.5t0 122t2 100t4 122t3.5 105.5q1 18 1.5 58.5t1.5 65t4 59t8 62.5q-19 -24 -48 -53l-44 -44q-43 -33 -93 -54.5t-93 -22.5
q4 -101 10 -377z" />
    <glyph glyph-name="N" unicode="N" horiz-adv-x="556" 
d="M89 8q-3 53 -2 182t-4 195q-79 153 -58 248l44 44q48 -90 58 -248q89 -171 262 -355q-9 106 -10 203.5t19 202t63 189.5l6 6l18 18q-4 -1 -18 -18l18 18l20 20q3 3 9 10.5t11 11.5t11 3q5 -1 10.5 -11.5t9.5 -26.5l6 -32q3 -14 5 -29.5t3 -17.5l-44 -44q0 1 -4 22l-6 37
q-3 17 -9 34.5t-12 22.5q-34 -74 -52 -159.5t-19.5 -176t3.5 -168t17 -171.5l-44 -44q-62 60 -136.5 148.5t-132.5 180.5q0 -25 -0.5 -82t0 -96t2.5 -73z" />
    <glyph glyph-name="O" unicode="O" horiz-adv-x="565" 
d="M390 139l30 40q20 25 26.5 34t18 28t20 37.5t19.5 46.5q15 39 23 83.5t7.5 92.5t-20 88.5t-57.5 60.5l-3 -3l-17 11q-9 3 -19 5q-13 3 -27.5 3t-32 -1.5t-27.5 -1.5l23 23q-45 1 -118 -51q-130 -148 -155 -313q-7 -47 -5 -90q1 -44 13 -86t37 -66.5t66 -30.5q40 -6 98 20
q46 21 89 59l-19 -19l-26 -27l-24 -19q-16 -13 -30 -21q-15 -9 -34 -17q-40 -17 -74 -19q-33 -3 -56 7t-40.5 30.5t-26.5 47.5t-13.5 59t-3.5 64q0 31 5 64q15 101 63 184q47 84 126 165l44 44q45 34 74.5 47.5t62.5 10.5t73 -27q47 -15 71.5 -55.5t26.5 -91t-6 -98
t-24 -88.5q-11 -28 -19.5 -47t-20 -37.5t-18.5 -27.5l-26 -35l-30 -39zM379 128l7 7q-3 -2 -7 -7z" />
    <glyph glyph-name="P" unicode="P" horiz-adv-x="568" 
d="M483 228q-74 -36 -163 -47t-175 9q12 -106 12 -188l-44 -44q-24 109 -17 229l-3 20q-87 37 -131 114l44 44q29 -51 77 -85q-12 89 -17.5 135.5t-10 121t-1.5 135.5l44 44l9 -36l-11 -11q-1 -112 27 -312q42 161 134 270l44 44l25 16q19 12 26 15.5t22.5 8t32.5 4.5
q37 0 71 -33t56 -83t35.5 -105t12 -105t-16.5 -77q-4 -7 -10.5 -14t-15 -14.5t-12.5 -11.5l-10 -10l-29 -29q26 25 29 29l-29 -29zM522 269q15 28 16 78t-12.5 104.5t-35.5 104.5t-56 82.5t-71 32.5q-18 0 -34.5 -5t-24.5 -10l-28 -17q-117 -160 -135 -390q93 -34 194 -27
t187 47z" />
    <glyph glyph-name="Q" unicode="Q" horiz-adv-x="565" 
d="M303 100l-9 15l-4.5 9t-1.5 5.5t0 6.5t2 11t2 19l44 44q21 -28 48 -77q1 -2 11 -19l12 -22l11 -18q8 -15 12 -20l13 -18q9 -13 15 -20l16 -16q9 -9 18 -17l-44 -44q-9 8 -18 17l-16 16q-6 7 -14 20l-13 18q-4 5 -13 20t-11 19t-11.5 21t-11.5 20q-44 -43 -94 -65
q-40 -17 -73.5 -19.5t-56.5 7.5t-40.5 30.5t-26.5 47.5t-13.5 59t-3.5 64q0 31 5 64q15 101 63 184q47 84 126 165l44 44q45 34 74.5 47.5t62.5 10.5t73 -27q47 -15 71.5 -55.5t26.5 -91t-6 -98t-24 -88.5q-11 -28 -19.5 -47t-20 -37.5t-18.5 -27.5l-26 -35l-30 -39l-44 -44
l30 40q20 25 26.5 34t18 28t20 37.5t19.5 46.5q15 39 23 83.5t7.5 92.5t-20 88.5t-57.5 60.5l-3 -3l-17 11q-9 3 -19 5q-13 3 -27.5 3t-32 -1.5t-27.5 -1.5l23 23q-45 1 -118 -51q-130 -148 -155 -313q-7 -47 -5 -90q1 -44 13 -86t37 -66.5t65.5 -30.5t98.5 20q26 11 47 26
l-14 25z" />
    <glyph glyph-name="R" unicode="R" horiz-adv-x="626" 
d="M522 269q15 28 16 78t-12.5 104.5t-35.5 104.5t-56 82.5t-71 32.5q-18 0 -34.5 -5t-24.5 -10l-28 -17q-117 -160 -135 -390q93 -34 194 -27t187 47zM174 183q40 -45 95 -78.5t122 -53.5t121.5 -30.5t127.5 -19.5l-44 -44q-67 9 -119 18.5t-114.5 27t-116 46.5t-94.5 68
q5 -62 5 -115l-44 -44q-24 109 -17 229l-3 20q-87 37 -131 114l44 44q29 -51 77 -85q-12 89 -17.5 135.5t-10 121t-1.5 135.5l44 44l9 -36l-11 -11q-1 -112 27 -312q42 161 134 270l44 44l25 16q19 12 26 15.5t22.5 8t32.5 4.5q37 0 71 -33t56 -83t35.5 -105t12 -105
t-16.5 -77q-4 -7 -10.5 -14t-15 -14.5t-12.5 -11.5l-10 -10l-29 -29q26 25 29 29l-29 -29l-5 -5q-67 -33 -148 -45.5t-161 0.5z" />
    <glyph glyph-name="S" unicode="S" horiz-adv-x="467" 
d="M437 483q1 55 -26 103.5t-70 67.5t-94 -4q-16 -35 -20.5 -71t3 -73t18.5 -69t33 -71l39 -64l42 -66l39 -60q0 -1 7 -11l11 -18l13 -21l12 -23t8.5 -20.5t3.5 -16.5q0 -8 -3.5 -16.5t-8.5 -18.5t-7 -15l-44 -44q-93 -21 -155 -3q-23 7 -60.5 27t-76 47t-62 60.5
t-13.5 60.5q2 6 6 12l10 13l9 11l44 44q38 24 67.5 30t74.5 0l-44 -44q-39 5 -65.5 1.5t-55.5 -19.5l-2 -4q-10 -27 13 -60.5t62 -60.5t76.5 -47.5t60.5 -26.5q54 -16 128 -2q2 6 2 11q0 6 -3.5 16.5t-8.5 20.5l-12 23l-12 21l-12 19l-7 10q-12 20 -35 54l-39 59
q-16 24 -36 59.5t-32 63t-22.5 62.5t-11.5 65.5t6.5 64.5t25.5 65l44 44q39 37 81.5 38t73.5 -24.5t50.5 -68t18.5 -87.5z" />
    <glyph glyph-name="T" unicode="T" horiz-adv-x="553" 
d="M246 650q-10 -1 -73 -3q-7 0 -88 1q77 -44 112 -66l-44 -44q-33 21 -95.5 56t-78.5 45l44 44q29 6 60.5 7.5t72 0.5t61.5 0q61 2 69 2l4 4v-4q178 7 277 37l-44 -44q-91 -27 -237 -35q-14 -160 -14 -400v-40q0 -33 0.5 -44.5t1 -40.5t2.5 -45l5 -39q3 -24 8 -43.5
t12 -38.5l-44 -44q-7 19 -12 38.5t-8 43.5l-5 40q-2 16 -2.5 44.5t-1 40t-0.5 44.5v40q0 265 18 443z" />
    <glyph glyph-name="U" unicode="U" 
d="M345 159q-21 -43 -48 -82l-44 -44q-90 -72 -158.5 -45.5t-88.5 145.5q-20 118 5 246t79 279l44 44l-11 -45l-7 -7q-45 -133 -64.5 -249.5t-1.5 -223.5q19 -110 79 -141t140 21q44 70 70 154q-13 109 -2.5 219t42.5 186l44 44q0 -88 -2 -142t-11 -128.5t-28 -134.5
q21 -196 91 -317l-44 -44q-59 102 -84 265z" />
    <glyph glyph-name="V" unicode="V" horiz-adv-x="499" 
d="M-42 527l44 44q42 -83 112 -257t114 -258q47 266 241 567l44 44q-109 -169 -174.5 -331.5t-79.5 -336.5l-44 -44q-57 100 -136.5 296.5t-120.5 275.5z" />
    <glyph glyph-name="W" unicode="W" horiz-adv-x="679" 
d="M-4 508l44 44q24 -101 81 -282t88 -212q22 131 58 271l44 44q5 -11 24 -61.5t39 -97.5t46 -98.5t55.5 -83t56.5 -31.5l26 67l26 74q15 46 25 81.5t20.5 80.5t15 81t4 72.5t-8.5 64.5q-4 16 -16.5 44t-16.5 41l44 44q4 -13 16.5 -41t16.5 -44q8 -30 8 -69t-4.5 -75.5
t-17 -86.5t-22 -83.5t-28 -86l-26.5 -74.5l-26 -67l-44 -44q-3 -2 -8 -8t-10 -9.5t-10 -4.5q-15 -3 -30.5 4t-31 24.5t-29.5 36t-29 47.5l-26 52q-10 22 -24 56t-20 52l-18 46q-24 -104 -40 -207l-44 -44q-4 -2 -10.5 -7t-12 -7.5t-10.5 -0.5q-21 10 -63 127t-70.5 218.5
t-41.5 152.5z" />
    <glyph glyph-name="X" unicode="X" horiz-adv-x="607" 
d="M550 630q-46 -67 -126 -200t-122 -195l5 -7l21 -30q16 -24 24 -34l23 -29q16 -20 28 -29t29 -20t34 -14t36 0q75 151 75 422q0 10 -1 27.5t-3 43t-7.5 44t-12.5 20.5q-1 1 -3 1zM12 656l44 44q84 -234 238 -454q19 28 100 162t130 203l44 44q3 2 8.5 7.5t10.5 8.5t10 2
q7 -2 12 -20.5t7.5 -44t3.5 -43t1 -27.5q0 -304 -97 -461l-44 -44q-18 -6 -36 -5.5t-32 3.5t-31 15.5t-26.5 20.5t-26 27.5t-22.5 27.5l-22 32q-16 23 -19 28q-33 -45 -66 -83l-44 -44q-4 -3 -15 -13l-14 -13l-13 -11q-9 -8 -13.5 -10.5t-13 -9t-14.5 -9t-15 -7t-17 -6.5
l-19 -6l44 44q33 8 56 22t51 39q43 51 86 116q-160 225 -246 465z" />
    <glyph glyph-name="Y" unicode="Y" horiz-adv-x="530" 
d="M29 646l44 44q38 -179 84 -302q6 -16 17 -41l18 -43q7 -17 8 -17q7 0 13 3q96 205 204 328l44 44q3 3 13 12l28 22l29 24q12 10 12 9q3 -21 -91 -247l-146 -344q-4 -8 -14 -24l-18 -34q-9 -16 -18.5 -36.5t-14.5 -38t-4 -34.5t10 -28q3 -4 8.5 -6t12.5 -4t11 -3l-44 -44
q-3 2 -10.5 3.5t-13 3.5t-8.5 6q-9 11 -10 28t4 34.5t14.5 38t18.5 36.5l20 34q9 16 12 24l146 345q94 226 91 246q0 1 -17 -13l-42 -35q-96 -116 -186 -310l-44 -44q-6 -4 -16 -15.5t-19 -18t-19 -6.5l-8 17l-18 43q-11 25 -17 41q-46 123 -84 302z" />
    <glyph glyph-name="Z" unicode="Z" horiz-adv-x="538" 
d="M-20 82q-39 -56 -21 -51q4 1 11 5l39 56q-15 -3 -29 -10zM21 618l44 44q28 -15 57.5 -21.5t65.5 -3t58.5 7t66.5 15t60 14.5q152 33 153 31q3 -5 -0.5 -10t-10.5 -11.5t-9 -9.5l-44 -44l-104 -93l-43 -49l-39 -46l-41 -52l-36 -47l-39 -53l-34 -50l-38 -54
q-29 -43 -35 -51q26 5 55 -4t55.5 -25t55.5 -35.5t60.5 -36t64 -26t71.5 -5.5t79 25q18 43 13 84t-28 67.5t-59.5 39.5t-81.5 -2q-2 -4 -2.5 -6.5t-0.5 -4.5t3 -4t6 -3.5t10 -5.5l14 -8l-44 -44l-18 11q-9 5 -11 5.5t-3.5 5t1 7t6 13.5t7.5 22l44 44q35 17 68 18.5
t58.5 -9.5t44 -32.5t26.5 -49.5t3 -62t-24 -67l-44 -44q-43 -29 -84 -39t-75.5 -4t-67 20.5t-62.5 34.5l-57 37q-27 18 -56.5 30t-55.5 11l-28 -39l-44 -44q-53 -41 -40 -11t49 72l44 44q16 11 32 16l99 141q35 50 94.5 123.5t114.5 129.5l44 44l93 84q2 4 0 8
q-1 2 -153 -31q-15 -3 -59.5 -14t-67 -15t-58.5 -7.5t-65.5 3t-57.5 21.5z" />
    <glyph glyph-name="bracketleft" unicode="[" horiz-adv-x="203" 
d="M81 704q26 -3 73 -7t63 -6l-44 -44q-18 2 -51.5 5t-47.5 4q-4 -45 3 -130t7 -108q1 -58 -2 -165t-3 -152q0 -231 3 -235q2 -3 14 -3.5t31 2t33.5 5t33.5 6.5l18 3l-44 -44l-18 -3q-19 -4 -33.5 -6t-33.5 -5t-31 -2.5t-14 3.5q-3 4 -3 235q0 46 3 153t2 164q0 27 -4 70
l-6 74q-2 32 -1 71.5t8 70.5z" />
    <glyph glyph-name="backslash" unicode="\" horiz-adv-x="323" 
d="M-12 639l44 44q27 -76 82 -216l79 -204l28 -80q23 -65 34 -92t34 -73t48 -80l-44 -44q-25 34 -48 80t-34 73t-33.5 92t-28.5 80q-23 64 -78.5 204.5t-82.5 215.5z" />
    <glyph glyph-name="bracketright" unicode="]" horiz-adv-x="196" 
d="M18 647l44 44q17 -1 32 -2t17.5 -1.5t8.5 -0.5h8q2 0 15 0.5t30 0.5q4 0 12 2t14 2t10 -4t-11 -217q-6 -134 -5.5 -206.5t4.5 -206.5t4 -207l-44 -44q-33 9 -68.5 9.5t-60.5 -4t-68 -15.5l44 44q99 24 153 18q-1 54 -3.5 140.5t-4 146t-1.5 137.5q1 72 6 144
q15 213 11 217t-10 4t-14 -2t-12 -2q-17 0 -29.5 -0.5t-14.5 -0.5h-9q-6 0 -8.5 0.5t-17 1.5t-32.5 2z" />
    <glyph glyph-name="asciicircum" unicode="^" horiz-adv-x="431" 
d="M251 615l-139 -221l-44 -44l81 130q59 95 94 145l44 44q32 -43 80.5 -133.5t77.5 -131.5l-44 -44q-29 41 -75.5 128t-74.5 127z" />
    <glyph glyph-name="underscore" unicode="_" horiz-adv-x="503" 
d="M-26 -131l44 44q83 0 249.5 4t249.5 4l-44 -44q-83 0 -249.5 -4t-249.5 -4z" />
    <glyph glyph-name="grave" unicode="`" horiz-adv-x="173" 
d="M-10 685l44 44q99 -120 153 -174l-44 -44q-54 54 -153 174z" />
    <glyph glyph-name="a" unicode="a" horiz-adv-x="505" 
d="M237 82q47 60 73 113.5t43 120.5q-43 27 -77.5 32.5t-65.5 -6t-74 -42.5q-78 -89 -94 -170q-13 -66 18 -99t93 -7q41 17 84 58zM358 248q-29 -61 -83 -130l-44 -44q-7 -6 -22.5 -21.5t-23.5 -22.5t-21.5 -17.5t-26.5 -18.5t-28 -14q-62 -26 -93 7t-18 99q11 57 43 104
t84 102l44 44q42 31 70.5 44.5t59.5 13.5t66 -17q2 8 4 15l44 44q-4 -18 -7 -34q-3 -21 -4 -46l3 -2l-3 -3q-4 -98 15 -195.5t60 -130.5q5 -4 12 -7.5t16 -7.5t14 -6l-44 -44q-5 2 -13 6l-16 8q-7 3 -13 7q-35 28 -53.5 103.5t-21.5 163.5z" />
    <glyph glyph-name="b" unicode="b" horiz-adv-x="287" 
d="M144 756q-82 -137 -113 -267.5t-3 -272.5q48 112 86 254.5t37 219.5q0 19 -7 66zM128 198q7 2 19 4q-9 1 -19 -4zM227 191q3 -44 -11 -106t-26 -86l-44 -44l-16 -7l-18 -7t-16 -2q-23 2 -55 69.5t-42 102.5q-4 13 -7 26l-5 -5l4 8q-17 70 -19 139t8.5 130.5t34 126
t54 121.5t72.5 120l44 44q1 -10 4 -27.5t4.5 -32t1.5 -27.5q0 -94 -53.5 -276t-106.5 -275l8 -28q10 -35 42 -102.5t55 -69.5q8 -1 18 2q9 30 16 63t9.5 71t-6.5 59q-103 -28 -107 -25q-3 3 -2.5 5t4.5 5.5t8 6t9 6.5t7 6l16 16l26 26q-3 -3 -11.5 -8.5t-12.5 -10t-2 -7.5
l26 26l2 2q6 2 16.5 8t19.5 9.5t17 2.5q19 -3 28 -25q69 18 80 20l-44 -44q-7 -1 -30 -6z" />
    <glyph glyph-name="c" unicode="c" horiz-adv-x="353" 
d="M304 327q-30 88 -76 109.5t-124 -18.5q-27 -40 -42.5 -84.5t-18.5 -86.5t5.5 -80.5t26.5 -68t47.5 -47t65 -20t82.5 15.5t97 57l-44 -44q-136 -106 -232 -60q-70 34 -88 131q-20 111 43 219q17 31 41 58l44 44q86 50 135.5 30.5t81.5 -111.5z" />
    <glyph glyph-name="d" unicode="d" horiz-adv-x="400" 
d="M277 263q-7 49 -10 89q-23 20 -53 25.5t-57 -6.5l-8 -4q-3 -5 -11.5 -18t-10.5 -16.5t-8.5 -13.5t-8.5 -15.5t-6 -15.5t-6 -20l-6 -24q-17 -77 1 -148q21 -87 85 -60q9 3 18 9q51 90 81 218zM312 607q-9 -67 -6 -148q6 74 6 148zM287 192q-25 -68 -58 -121l-44 -44
q-91 -83 -127 -1q-27 59 -14 152q2 12 4 22q4 20 8 33.5t12 27.5l10 20q3 6 16 25l18 27l44 44q5 4 13.5 12.5t16 15t15.5 10.5q27 13 61 5q-6 171 45 294l44 44q16 -200 -18 -390q5 -9 7 -19q3 -2 1.5 -19t-2.5 -22l-4 -22q-3 -17 -3 -18l-5 -5l10 -67q0 -2 3.5 -26
t6.5 -42t7.5 -42t10.5 -41t13 -23q4 -4 10 -6.5t14 -4.5l12 -3l-44 -44q-4 2 -12 3.5t-14 4t-10 6.5q-6 7 -12 23.5t-11 40.5t-8 42t-6.5 42.5t-3.5 25.5z" />
    <glyph glyph-name="e" unicode="e" horiz-adv-x="450" 
d="M130 399q-35 -39 -58 -89q-22 -48 -27 -87l9 9q123 -3 216 59q14 21 17 39q8 47 -28.5 79t-82.5 17q-11 -4 -46 -27zM317 90q-25 -21 -49.5 -38t-55 -34.5t-56.5 -26.5t-53 -9.5t-47 12t-35 42.5t-20 77q-8 77 27 153q9 19 16 32t17 26.5t15 19.5l22 24l23 25l44 44
l17 11q11 8 20 13.5t18 8.5q45 15 82 -17.5t29 -78.5q-2 -9 -6 -18.5t-7 -14.5t-11 -16t-10 -14l-44 -44q-89 -73 -210 -79q0 -15 2 -31q5 -44 18 -73.5t31.5 -42.5t42.5 -15t48.5 4.5t53 21t52 30t48.5 35.5q58 71 81 94l44 44l-34 -37l-38 -46l-31 -38z" />
    <glyph glyph-name="f" unicode="f" horiz-adv-x="334" 
d="M170 698q-54 -122 -46 -346l18 15q2 2 7.5 10t7 9.5t6 8.5t6 9t5.5 8.5t6 9.5l4 9q3 6 5 11t5 11t5 13q8 23 15.5 59.5t11 79t-10 70t-45.5 23.5zM138 170l12 -106q-1 68 -12 106zM-76 299l44 44q70 -32 112 -17q-7 244 65 365l44 44q80 33 81 -73q0 -73 -26 -150
q-1 -1 -1 -2q-5 -15 -10.5 -26.5t-12.5 -23.5t-12 -18l-15 -22l-17 -23l-44 -44l-7 -7q1 -35 4 -75q39 34 95 52t108 14l9 9l7 -10l-44 -44q-84 11 -168 -31q22 -7 29 -14q18 -17 24.5 -74t4.5 -108t-7 -80q-2 -10 -5.5 -20t-9 -22t-7.5 -19l-44 -44q-3 40 -16.5 155.5
t-18.5 183.5q-4 2 -7 3l6 6q-3 43 -5 81q-36 -29 -66.5 -32t-89.5 22z" />
    <glyph glyph-name="g" unicode="g" horiz-adv-x="413" 
d="M206 203q6 121 50 203l17 17q-30 21 -57 19.5t-74 -24.5q-78 -95 -99 -209q-5 -28 -7 -51q-1 -23 1 -44.5t9 -36t18.5 -21.5t30 -2.5t43.5 21.5q41 62 68 128zM210 35q-14 -18 -23 -34q-6 -11 -20 -44.5t-29.5 -80.5t-26 -91.5t-8.5 -79.5t22 -42q9 -4 26 4q32 52 47 116
t14.5 123.5t-2.5 128.5zM268 110l-15 -20l3 -74q1 -26 0.5 -71t-6 -74.5t-14.5 -66.5t-26 -68.5t-41 -60.5l-44 -44q-5 -1 -15 -6t-14.5 -6t-14.5 0q-20 8 -22 42.5t8.5 79t26 92t29.5 80.5t20 44q13 23 66 89q-4 74 -4 110q-17 -29 -37 -57l-44 -44q-37 -33 -64 -42.5
t-41 0t-21 33t-6 54t7 65.5q13 74 45.5 131t88.5 117l44 44q47 24 75 27.5t51.5 -9.5t62.5 -51l-44 -44l-28 26q-14 -85 -44 -159q-2 -52 3 -152zM293 135l-2 -2zM293 135l17 17q21 20 24 23.5t15 15t14.5 13t23.5 20.5l40 35l-44 -44l-40 -35q-20 -17 -23 -20t-14 -13z" />
    <glyph glyph-name="h" unicode="h" horiz-adv-x="556" 
d="M107 113q3 41 4 93q-15 -43 -4 -93zM159 289l-4 -5q-1 -157 -21 -254l-44 -44q-35 88 -31 138t52 116q1 18 1 52v45q-5 -22 -9 -43l-44 -44q18 94 57 226q7 103 30 184l3 3l29 29q-6 0 -10.5 -4.5t-10 -13t-8.5 -11.5l29 29l12 12q4 3 10.5 13t12 15t12.5 3q1 0 -33 -109
l-32 -106q-4 -48 -5 -229l24 24q50 41 86.5 51.5t57 -4t34 -44t21.5 -67.5l14 -75q7 -38 19 -67t30 -43t50.5 -2t78.5 54l-44 -44q-45 -41 -77 -53.5t-50 0t-30 40t-19 63.5l-14 73q-7 37 -19 67.5t-30 48.5t-50.5 13t-77.5 -37z" />
    <glyph glyph-name="i" unicode="i" horiz-adv-x="259" 
d="M173 9q-6 -3 -17 -10t-20.5 -11.5t-18.5 -5.5q-27 -2 -46.5 20t-30 60t-16.5 79.5t-7.5 86.5t-1 72.5t1.5 45.5q1 8 1 15l-3 -3q3 53 30 137l44 44l-7 -29q-6 -22 -8 -31.5t-5 -26.5t-5 -31.5t-3 -30.5q-1 -18 -1.5 -45.5t0.5 -72.5t7.5 -87t17 -79.5t30 -59.5t46.5 -20
q12 1 29 11q10 17 39 56l44 44l-15 -19q-8 -11 -8.5 -12t-5 -7.5t-5.5 -8.5t-8 -14l-14 -23zM69 634q1 -6 2 -8l5 5q-3 2 -7 3zM81 621q-1 4 -2 7l-6 -6q2 -2 8 -1zM68 579q-10 0 -20.5 -1t-12.5 -1.5t-5.5 2t-3.5 5t-2 12.5l-4 21l16 16l-4 -1l44 44q39 9 46.5 -5
t-10.5 -48z" />
    <glyph glyph-name="j" unicode="j" horiz-adv-x="250" 
d="M128 173q4 52 3 110v25v28q0 12 -0.5 27.5t-2.5 26.5t-5.5 22.5t-9.5 17.5t-14 9t-20.5 0.5t-27.5 -11.5q-26 -36 -32 -85l-44 -44q5 38 17 60.5t40 56.5l44 44q19 13 34 19.5t25 5t17.5 -6t11.5 -16t7 -22.5t3.5 -28t0.5 -29v-29v-27q1 -47 -2 -90q24 37 47 77l44 44
q-43 -76 -92 -142q-18 -240 -147 -392l-44 -44q-35 -20 -57 -15.5t-31.5 23t-7.5 46t15 54.5q20 40 51 79.5t75 86.5q44 46 64 70q21 25 38 49zM9 -184q100 139 118 344q-16 -19 -61 -67t-74 -85t-48 -76q-17 -34 -15.5 -67.5t21 -48.5t59.5 0zM132 594l44 44q-3 -6 -6 -11
l8 8l8 -15q4 -7 5.5 -8t1.5 -5.5t-1.5 -5.5t-5.5 -9l-7 -15l-44 -44l-13 13q-6 7 -7 7.5t-1.5 5t1.5 6.5t7 11z" />
    <glyph glyph-name="k" unicode="k" horiz-adv-x="346" 
d="M56 214h6h7q-2 21 -4 49q-5 -24 -9 -49zM51 144q0 -50 9 -100q7 39 9 83q-9 10 -18 17zM146 237q16 20 24 38q10 21 16.5 49.5t2 61t-28.5 41.5q-9 4 -25 -5q-17 -26 -31 -53q9 -110 10 -148q13 5 32 16zM60 672l44 44q-10 -182 -4 -288q1 -16 2 -34l13 17l44 44
q5 2 14 7.5t16.5 8t14.5 0.5q24 -9 28.5 -41.5t-2.5 -61t-16 -49.5q-5 -11 -13 -22.5t-11.5 -16t-17.5 -20t-15 -16.5l-43 -43q0 -15 -1 -30q14 -14 32 -37l31 -40q13 -16 33 -33t39.5 -24.5t48.5 -7t63 13.5l-44 -44q-32 -12 -60 -13t-46.5 4.5t-39 22.5t-31 29t-29.5 37
q-4 6 -7 8q-10 -51 -32 -96l-44 -44q-29 113 -15 221q-2 1 -5 2l6 6q12 79 47 149q-3 35 -4 59q-6 106 4 288z" />
    <glyph glyph-name="l" unicode="l" horiz-adv-x="229" 
d="M177 653q-66 -129 -74 -325q54 94 82 205q10 37 12.5 65.5t-0.5 42.5t-10 14q-5 0 -10 -2zM58 251l-37 -37q20 21 38 46q4 225 83 365l44 44q5 3 13.5 11.5t16 13.5t15.5 5q7 0 10 -14t0 -42.5t-12 -65.5q-41 -157 -127 -273q-2 -154 30 -311l-44 -44q-31 152 -30 302z
" />
    <glyph glyph-name="m" unicode="m" horiz-adv-x="644" 
d="M47 434l44 44q-37 -122 -26 -335q23 96 47 163t64 126l44 44q4 0 12 2t14 2t9 -4q14 -18 10 -255q25 110 76 181l44 44q2 -12 7 -34l8 -39q3 -18 5 -34q1 -12 2 -36l2 -47q1 -23 3 -51.5t6.5 -53t10.5 -48.5t17 -40t25 -25t35 -6t46 18l62 85l44 44l-82 -112l-44 -44
q-128 -99 -157 83q-5 30 -12 161q-1 17 -2 28q-2 23 -15 84q-29 -62 -51.5 -183.5t-35.5 -162.5l-44 -44q3 52 5 138t1 190t-10 115q-4 6 -16 4q-30 -54 -50.5 -118t-41 -149t-32.5 -125l-44 -44q-5 74 -7 111.5t-2 103t7 118.5t22 101z" />
    <glyph glyph-name="n" unicode="n" horiz-adv-x="386" 
d="M38 479l44 44q-1 -36 -3.5 -109t-2.5 -110v-56q27 70 73 132l44 44q2 1 7 6l10 10q5 5 12.5 9.5t13.5 6.5t13 1.5t13 -4.5q10 -8 16 -74.5t8.5 -142t14 -141.5t31.5 -73q14 -3 22 -3t23 3t23 3l-44 -44q-7 0 -22.5 -2.5t-23 -3t-22.5 2.5q-20 7 -31.5 73t-14 141.5
t-8.5 142t-16 74.5q-15 12 -38 -2q-23 -34 -40.5 -72t-27.5 -64.5t-20 -76t-13 -70.5l-12 -83l-44 -44q7 39 9 80.5t1 101.5t-1 81q1 37 3.5 110t2.5 109z" />
    <glyph glyph-name="o" unicode="o" horiz-adv-x="347" 
d="M179 418q49 9 102 35q-36 8 -102 -35zM159 415q63 52 107.5 71.5t66 8t26.5 -45.5t-7 -86q-12 -51 -38 -116l-17 -40q-7 -15 -16.5 -30.5t-13.5 -21t-21 -26.5l-26 -33l-44 -44q-82 -73 -126 -51t-41 138q2 89 36 166t96 157l44 44l40 26l-44 -44l-19 -12
q-105 -146 -109 -293q-3 -107 34 -134t107 26q3 3 7 9q26 32 37.5 51.5t31.5 67.5q36 88 44.5 150.5t-14.5 88.5l-1 -1l-62 -32q-22 -11 -55 -22t-67 -16z" />
    <glyph glyph-name="p" unicode="p" horiz-adv-x="321" 
d="M46 143l2 2q0 9 -1 18q-1 -10 -1 -20zM43 58q0 -46 4 -117q4 50 4 108q-4 4 -8 9zM283 125q11 46 6.5 99.5t-25 96.5t-58.5 61.5t-93 -4.5q-16 -26 -28 -56q9 -158 9 -229q3 -2 5 -4q63 -55 184 36zM33 452l44 44q1 -56 6 -142l9 13l44 44q40 23 74 23.5t57 -18t39 -48.5
t22.5 -66t5.5 -73.5t-10 -68.5l-44 -44q-41 -38 -92 -67.5t-95 -21.5q0 -24 -2 -47q-3 -41 -18 -117t-18 -99l-44 -44q0 47 -5 136t-7 149t7.5 137t34.5 136q-7 112 -8 174z" />
    <glyph glyph-name="q" unicode="q" horiz-adv-x="311" 
d="M271 377q-11 -35 -18 -79q10 38 18 79zM193 109q-12 -19 -26 -37l-44 -44l-13 -6q-8 -5 -14.5 -8t-13.5 -3q-35 0 -51.5 30t-15.5 73.5t7.5 81t14.5 59.5q7 18 13.5 32t15.5 28.5t14 21.5t20 25l20 27l44 44l23 17q11 9 12.5 11.5t8.5 5.5t8 3t14 3t24 6l-44 -44l-24 -5
q-15 -4 -19.5 -6t-15.5 -11q-4 -3 -6 -4q-17 -22 -25 -34t-19 -32t-20 -44q-8 -23 -14.5 -60.5t-8 -80.5t15.5 -73.5t52 -29.5q9 0 21 6q27 40 49 84q17 222 85 299l44 44q-22 -171 -85 -299q-16 -199 7 -409l-44 -44q-21 186 -10 373z" />
    <glyph glyph-name="r" unicode="r" horiz-adv-x="300" 
d="M44 478l44 44q-10 -96 -4 -204q12 22 26 42l44 44q20 19 29.5 27t27.5 20.5t31.5 16t32.5 3.5t39 -7l-44 -44q-24 11 -47.5 8t-40 -11.5t-36.5 -24.5q-43 -66 -56 -145q9 -84 35 -230l-44 -44q-52 113 -34 230q-16 150 -3 275z" />
    <glyph glyph-name="s" unicode="s" horiz-adv-x="353" 
d="M16 76q-9 -9 -9 -18q0 -3 1.5 -5.5t5 -5t5.5 -3.5t7.5 -3t6.5 -2q65 -23 129.5 -18.5t129.5 29.5q2 20 -12 40.5t-30 33.5t-49 36l-48 35q-63 -49 -137 -119zM262 375q-7 22 -11 32.5t-11 26.5t-12 22t-13.5 13.5t-17.5 7t-21 -4.5t-26 -14q-23 -38 -29 -71.5t4.5 -60
t27.5 -46.5t44 -41q108 84 170 98l-44 -44q-46 -10 -119 -60l37 -26l37 -27q13 -9 29 -24.5t22 -27.5t6.5 -29t-8.5 -34l-44 -44q-45 -22 -93.5 -34t-102.5 -11t-98 19l-6 3q-6 2 -8 3t-5.5 3t-5 4.5t-1.5 5.5q0 7 4.5 13t11.5 13t10 11l44 44q61 59 115 104
q-27 22 -43.5 43t-25.5 49.5t0.5 64t37.5 76.5l44 44q18 16 32.5 26.5t26.5 13.5t21 4t17 -6.5t13.5 -13.5t12.5 -22t11 -26.5t11 -32.5z" />
    <glyph glyph-name="t" unicode="t" horiz-adv-x="247" 
d="M-74 378l44 44q36 13 85 34q22 126 74 301l44 44l-30 -170l-22 -22q-17 -71 -27 -135q96 43 146 59l-44 -44q-44 -14 -105 -41q-18 -127 -12 -246q1 -18 4 -45.5t14.5 -63.5t26.5 -40q14 -1 17.5 -1.5t18 2.5t18.5 3q21 27 39 57l44 44q-31 -51 -78 -100l-44 -44
q-6 0 -19.5 -3t-20 -3.5t-19.5 1.5q-15 4 -26 40t-14.5 64t-4.5 45q-6 131 16 272q-82 -37 -125 -52z" />
    <glyph glyph-name="u" unicode="u" horiz-adv-x="312" 
d="M70 482l44 44q-16 -56 -27.5 -109.5t-24.5 -132.5t-7.5 -142.5t31.5 -93.5q3 -4 8 -7t8.5 -4l10.5 -3l10 -4q62 91 98 246q5 94 33 184l44 44q-19 -121 -34 -184q-11 -181 62 -302l-44 -44q-51 85 -61 204q-37 -92 -91 -151l-44 -44q-5 2 -15 5.5t-17 7t-12 8.5
q-26 31 -31.5 94t7.5 142t25 132.5t27 109.5z" />
    <glyph glyph-name="v" unicode="v" horiz-adv-x="395" 
d="M160 -38l-21 51q-11 27 -18 46t-18.5 53t-15.5 47l-17 53q-13 41 -15 49l-26 -26q-7 38 -16 150l44 44q17 -47 60.5 -184.5t74.5 -211.5q8 31 11.5 93.5t11.5 102.5q4 19 8.5 36t12.5 35l12 30q5 12 17 30.5t16.5 27t20 29t19.5 26.5t22 29l22 28l44 44l-22 -28l-22 -30
l-19 -26q-16 -20 -20.5 -28.5t-16.5 -27t-17 -30.5l-12 -30q-8 -18 -12.5 -35t-8.5 -36q-8 -40 -10 -93.5t-10.5 -92.5t-34.5 -81z" />
    <glyph glyph-name="w" unicode="w" horiz-adv-x="483" 
d="M-5 423l44 44q-1 -55 4.5 -112t19 -119t41.5 -116.5t67 -86.5q18 47 22 100t1 126v1q-2 16 -2 70v15l44 44v-16q0 -14 2 -70q5 -33 40.5 -141t50.5 -114q5 34 10.5 94.5t10.5 97t16.5 85t32.5 91t54 83.5l44 44q-34 -43 -56 -89t-33 -95.5t-16 -91t-10.5 -102
t-12.5 -101.5l-44 -44q-4 -2 -12.5 -7.5t-15 -8t-12.5 -0.5q-16 6 -55 128q-12 -64 -44 -110l-44 -44q-43 29 -74 83.5t-46.5 119.5t-21.5 125t-5 117z" />
    <glyph glyph-name="x" unicode="x" horiz-adv-x="454" 
d="M207 370q-44 -56 -74 -102q22 -42 45 -79t51.5 -73.5t59.5 -59t58 -23.5q22 -1 36 8q28 44 37 89.5t-2 93.5q-12 46 -47 87q-68 78 -122 77q-14 0 -42 -18zM18 443l44 44q2 -11 4.5 -33.5t3.5 -28.5l6 -21q3 -15 8 -28q4 -13 13 -33q13 -30 30 -64q26 35 65 82l44 44
q6 3 17.5 10.5t21 12t18.5 4.5q55 1 122 -77q37 -43 48 -93t-1.5 -98.5t-44.5 -94.5l-44 -44q-4 -4 -16 -14.5t-16 -13t-14.5 -6t-23.5 -2.5q-26 1 -55 21.5t-56 54t-49.5 68t-44.5 74.5q-53 -104 -53 -202l-44 -44q0 125 88 263q-21 41 -36 75q-8 19 -13 32.5t-8.5 28.5
t-4.5 21t-4 28.5t-5 33.5z" />
    <glyph glyph-name="y" unicode="y" horiz-adv-x="403" 
d="M338 362q-66 -100 -103 -268q14 2 39 14q61 83 88 205q1 5 5.5 16t5 15.5t-2.5 13.5q-6 8 -32 4zM48 405l44 44q-2 -8 -7.5 -21.5t-8.5 -25t-3 -22.5q-1 -58 41 -156.5t89 -124.5q43 167 123 262l44 44q5 0 15 1.5t17.5 1t11.5 -5.5q3 -9 2.5 -13.5t-5 -16t-5.5 -15.5
q-33 -147 -119 -242l-44 -44q-3 -1 -14 -7l-4 -18q-3 -14 -10.5 -57t-11.5 -61.5t-15 -49t-26 -56.5l-44 -44q-28 -16 -55.5 -16.5t-52.5 13.5t-44.5 31.5t-41.5 43.5l44 44q89 -106 167 -84q9 22 16.5 47.5t10.5 44.5l10 51l9 49l10 48q-15 -3 -28 3q-32 15 -64.5 70.5
t-51.5 116t-18 96.5q0 11 3.5 22.5t8.5 25t7 21.5z" />
    <glyph glyph-name="z" unicode="z" horiz-adv-x="443" 
d="M-20 375l44 44q12 3 38 13l54 19q27 10 59 20t59 16t51 6t36 -9q15 -10 17.5 -28.5t-7 -43t-22 -48.5t-34.5 -54l-39 -52q-16 -21 -40 -48l-32 -36l-23 -25l-44 -44l-36 -32q14 -14 22 -17q23 -8 58 -13t85.5 -7t79 -2.5t88 0t63.5 0.5l-44 -44q-3 0 -63 -0.5t-88 0
t-79 2.5t-86 7t-58 13q-6 2 -11 6t-10.5 10t-9.5 9l44 44l18 11q9 5 12.5 7.5t7 4.5t6.5 4.5t5 4.5t9 8t12 11l40 46l46 56q26 33 44 62.5t31 58t12 51t-18 34.5q-12 9 -36 9t-50.5 -6t-59 -16t-59.5 -20l-53 -19q-26 -10 -39 -13z" />
    <glyph glyph-name="braceleft" unicode="{" horiz-adv-x="348" 
d="M253 680l-19 8l-13 6.5t-7 2.5t-6.5 -0.5t-6.5 -4.5q-18 -37 -24 -81t-4.5 -84.5t1 -81.5t-12 -85t-38.5 -83l-44 -44l-3 -2q44 -8 58 -18q27 -21 42.5 -54.5t18.5 -69.5t4 -76.5t-1 -75.5t3 -68q7 -51 27 -80.5t53.5 -33t80.5 31.5l-44 -44q-46 -34 -80 -30.5t-54 32.5
t-27 80q-5 33 -3 68t1 75.5t-4 76.5t-18.5 69.5t-42.5 54.5q-14 11 -84 22l44 44q11 4 20.5 8t13.5 5.5t7 2.5q22 38 31 82.5t8 85t-1.5 80.5t7.5 83.5t29 80.5l44 44q11 8 20 15.5t13 10.5t7 6t7.5 1.5t7.5 -2t13 -5.5t20 -9z" />
    <glyph glyph-name="bar" unicode="|" horiz-adv-x="112" 
d="M74 678l44 44q-5 -328 8 -726l-44 -44q-13 398 -8 726z" />
    <glyph glyph-name="braceright" unicode="}" horiz-adv-x="292" 
d="M26 639l44 44q29 28 53 33.5t40 -11t26 -40.5t17 -57q5 -24 12 -163.5t25 -167.5q6 -10 10.5 -16t8 -9.5t9 -6t8 -3.5t12.5 -3.5t15 -3.5l-38 -38q-5 -26 -4 -53t8 -50t10.5 -51t3 -55t-14.5 -62t-42 -71l-44 -44q-33 -27 -78 -53.5t-69 -21.5q-5 1 -8 5.5t-5.5 11.5
t-4.5 10l44 44q2 -3 4.5 -10t5.5 -11.5t8 -5.5q35 -7 119 54q23 35 33 69t8 60.5t-7 54.5t-11 51.5t-4.5 52.5t12.5 56l16 16q-19 5 -27 10.5t-22 28.5q-17 28 -24.5 167.5t-12.5 163.5q-7 34 -17 57.5t-26 40t-39.5 11.5t-53.5 -34z" />
    <glyph glyph-name="asciitilde" unicode="~" horiz-adv-x="540" 
d="M474 172q-62 -24 -116.5 -2.5t-111.5 76.5l-12 12l-19 20q-9 9 -20.5 17.5t-18.5 9.5q-27 5 -42 1t-38 -17q-20 -29 -29 -87l-44 -44q7 47 18 69t43 55l44 44q4 2 13 7t12 7t10.5 5t12 4t12 2t15 0.5t17.5 -2.5q7 -1 18 -9.5t20 -17.5l20 -20l12 -12q53 -50 102.5 -72.5
t104.5 -8.5q20 43 7 109l44 44q10 -43 3.5 -77.5t-33.5 -68.5z" />
    <glyph glyph-name="exclamdown" unicode="&#xa1;" horiz-adv-x="180" 
d="M148 413q-7 -3 -14 -7l-10 -5l-5 -3q-3 -1 -3 2t-0.5 5.5t-1 10.5t-1.5 16l16 16l-16 -2l44 44q9 1 18.5 2.5t11.5 2.5t4.5 -1.5t2 -5t-1 -12t-0.5 -19.5zM126 314l44 44q-17 -264 -17 -532l-44 -44q0 269 17 532z" />
    <glyph glyph-name="cent" unicode="&#xa2;" horiz-adv-x="429" 
d="M137 32q41 236 126 424q-63 -6 -135 -50q-18 -22 -36 -68q-13 -33 -22 -72t-12.5 -84.5t11.5 -83.5q15 -39 48 -57q9 -5 20 -9zM332 586l44 44q-37 -61 -69 -130q97 8 125 -84l-44 -44q-24 79 -100 84q-80 -194 -116 -432q31 -4 65 2.5t71.5 23t60 28t59.5 32.5
q10 5 15 8l-44 -44q-1 -1 -20.5 -11.5t-24.5 -13.5t-23.5 -13t-27 -13.5t-25.5 -11.5t-28 -11l-28 -9q-15 -5 -29 -7.5t-27 -3.5q-6 -47 -10 -93l-44 -44q6 69 16 137q-30 3 -55 17q-33 18 -47.5 56.5t-11.5 84t12 84.5q9 38 22 72q7 19 12 29q5 11 12 22t10 15l16 18l20 21
l44 44q61 40 120 53q24 47 50 90z" />
    <glyph glyph-name="sterling" unicode="&#xa3;" horiz-adv-x="475" 
d="M403 519q-7 42 -32 84.5t-67 71t-87 19.5q-11 -2 -26 -10q-16 -33 -25.5 -69.5t-13 -87.5t-4.5 -77.5t-2 -90.5q6 -3 22 -10l24 -11q44 -19 131 -19l-44 -44q-87 0 -131 19l-4 2q-3 -111 -21 -180q24 0 52.5 -19.5t52.5 -45t56.5 -49.5t63 -31t71.5 10q16 29 26 83l44 44
q-7 -38 -15.5 -61.5t-28.5 -50.5l-44 -44q-37 -26 -72.5 -27t-64.5 18t-54 42l-54 48q-28 25 -49 34l-1 -2l-44 -44l-16 29l5 5l13 13l18 18q18 76 20 229q-46 21 -86 18l-26 -26l23 26l44 44q24 2 46 -3q2 98 13.5 168t45.5 126l44 44q6 3 17 9.5t20 10.5t18 6q45 8 87 -20
t67 -70.5t32 -84.5z" />
    <glyph glyph-name="currency" unicode="&#xa4;" horiz-adv-x="485" 
d="M81 525l44 44q32 -42 72 -66l12 12q96 39 162 10l22 22l29 31l31 33l46 -42l-31 -33l-31 -33l-18 -17q25 -34 28.5 -79.5t-17 -98t-62.5 -98.5l94 -70l-44 -44l-94 70q-79 -53 -147 -47l-14 -12l-22 -23l-20 -26l-25 -33l-32 24l-8 -8l6 10l-16 12l25 33l24 30l18 18
q-43 34 -45.5 99t45.5 145l44 44q-28 -44 -39 -87.5t-5.5 -77.5t25 -59.5t49 -37t69.5 -6.5t84 29l21 21q28 44 37.5 91t0.5 84.5t-34.5 65.5t-67 35t-97.5 -7l-33 -33q-50 29 -86 75z" />
    <glyph glyph-name="yen" unicode="&#xa5;" horiz-adv-x="539" 
d="M18 236l44 44q25 1 75 5q-16 37 -24 59q-46 122 -84 302l44 44q38 -179 84 -302q6 -16 17 -41l18 -43q7 -17 8 -17q7 0 13 3q96 205 204 328l44 44q3 3 13 12l28 22l29 24q12 10 12 9q4 -27 -173 -442l6 6q31 -1 90 -1.5t87 -1.5l-44 -44q-28 1 -80 1.5t-75 0.5l-48 -110
l-5 -10q196 5 236 5l-44 -44q-52 0 -216 -4q-60 -106 -30 -142q3 -4 8.5 -6t12.5 -4t11 -3l-44 -44q-3 2 -10.5 3.5t-13 3.5t-8.5 6q-10 12 -11 30.5t8 42t17 39.5t22.5 42t17.5 31q-100 -2 -167 -1l44 44q60 -1 143 1l149 352q76 186 73 205q0 1 -17 -13l-42 -35
q-96 -116 -186 -310l-44 -44q-6 -4 -16 -15.5t-19 -18t-19 -6.5l-7 16l-15 -15q-4 0 -48.5 -3.5t-67.5 -4.5z" />
    <glyph glyph-name="brokenbar" unicode="&#xa6;" horiz-adv-x="112" 
d="M56 680l44 44q0 -35 -1.5 -142t-0.5 -166l-44 -44q-1 59 0.5 166t1.5 142zM74 252l44 44q0 -48 4 -144t4 -144l-44 -44q0 48 -4 144t-4 144z" />
    <glyph glyph-name="section" unicode="&#xa7;" horiz-adv-x="399" 
d="M110 291q-15 -30 -11 -61t22 -56.5t45.5 -47.5t60.5 -33.5t66 -14.5t63 10q12 26 12 52.5t-8.5 47.5t-28 44.5t-38 40.5t-46.5 40q-59 32 -137 -22zM101 -106l44 44q15 -22 32.5 -42t42.5 -43t53.5 -32.5t54.5 -1.5q10 3 23 11q9 25 9.5 48.5t-8 43t-22 36.5t-33.5 31.5
t-40 26t-45 23.5l1 1q-54 12 -97 47.5t-57.5 81.5t17.5 95l44 44q38 34 73 49q-43 34 -68.5 62.5t-34.5 57.5q-4 14 -3.5 27t2 20t8.5 24t9 24l44 44q51 48 107.5 55.5t98 -28.5t50.5 -108l-44 -44q-6 48 -27 81t-51.5 46t-67 9t-72.5 -26q0 -1 -2.5 -7.5t-3.5 -8.5t-3 -7
t-3 -8l-1 -7q-1 -5 -1 -7.5t-0.5 -7.5t0.5 -9t1.5 -8.5t2.5 -9.5q4 -14 14 -29.5t19 -26.5t29 -29l28 -24q8 -8 34 -29t33 -26q15 -8 29 -22l-1 -1q31 -27 51 -50.5t33 -52.5t8.5 -60.5t-27.5 -65.5l-44 -44q-9 -7 -20 -13q124 -80 65 -198l-44 -44q-6 -3 -17.5 -10.5
t-21 -12.5t-18.5 -8q-26 -8 -54 1.5t-53.5 32.5t-43 43t-32.5 42z" />
    <glyph glyph-name="dieresis" unicode="&#xa8;" horiz-adv-x="247" 
d="M67 661l44 44q-2 -33 -2 -64l-44 -44q0 31 2 64zM217 678l44 44q-3 -10 -7 -21.5t-4.5 -12.5t-1.5 -7.5t-0.5 -8.5t1 -14.5t1.5 -25.5l-44 -44q0 13 -1 25.5t-1.5 14.5t0.5 8.5t1.5 8t4.5 12.5t7 21z" />
    <glyph glyph-name="copyright" unicode="&#xa9;" horiz-adv-x="684" 
d="M460 363q-8 88 -50 118.5t-110 -12.5q-46 -70 -62 -138.5t3 -113t76.5 -51t160.5 46.5l-44 -44q-68 -36 -120 -44t-80 7.5t-40 48.5t-5.5 76t27.5 93t55 97l44 44q80 65 130 39.5t59 -123.5zM415 671q-41 10 -72 11t-58.5 -8t-50 -23.5t-51.5 -40.5q-75 -97 -111.5 -189
t-23.5 -197q10 -79 53.5 -138.5t105 -87.5t135.5 -26t144 38q35 18 70 51q42 67 67.5 134t29.5 134t-16.5 123.5t-74.5 102.5t-139 72l44 44q85 -26 139.5 -72.5t74.5 -103t15.5 -124t-30 -134.5t-68.5 -135l-44 -44l-21 -20l-22 -22l-19 -16q-12 -11 -24 -19t-26 -15
q-69 -36 -143.5 -38t-136 26t-105 87.5t-53.5 138.5q-13 109 26 203t119 195l44 44q32 30 51.5 46.5t45 32t48.5 20.5t53 4t68 -10z" />
    <glyph glyph-name="ordfeminine" unicode="&#xaa;" horiz-adv-x="267" 
d="M196 586l7 7q-12 17 -56 5q-17 -22 -30 -49q-24 -47 -18 -83q5 -33 41 -13q32 51 56 133zM183 496q-7 -11 -15 -22l-44 -44q-62 -53 -69 -8q-6 36 18 83l11 20q5 9 12.5 19t10.5 15t14 18t14 17l44 44q41 14 58.5 6.5t16.5 -32.5l-4 -58l-24 -24q-2 -51 14 -73
q5 -6 11.5 -12t15.5 -12.5t14 -10.5l-44 -44q-4 4 -13 10.5t-16 12.5t-12 12q-18 24 -13 83z" />
    <glyph glyph-name="guillemotleft" unicode="&#xab;" horiz-adv-x="472" 
d="M203 427l44 -44l-31 -31l-24 -20l-23 -25l-28 -23l-26 -14l7 -14l18 -14l29 -24l34 -20l36 -21l34 -20l-32 -54l-34 20l-36 21l-38 24l-33 26l-30 30l-15 64l46 44l26 21l23 23l24 22zM441 401l20 -58l-37 -14l-43 -21l-37 -26l-4 -1l8 -5l33 -36l23 -22l28 -17l26 -18
l27 -15l-30 -54l-29 17l-28 18l-32 19l-29 28l-35 38l-22 21l5 62l21 15l43 30l51 25z" />
    <glyph glyph-name="logicalnot" unicode="&#xac;" horiz-adv-x="495" 
d="M-2 352l44 44q68 -3 193.5 3t171.5 6q98 0 99 -1q2 -8 1.5 -12t-4.5 -13t-5 -13q-14 -64 -20 -106t-2.5 -97.5t22.5 -104.5l-44 -44q-19 49 -22.5 104.5t2.5 98t20 105.5q1 4 5 13t5 13t-2 12q-1 1 -99 1q-45 0 -171 -6t-194 -3z" />
    <glyph glyph-name="registered" unicode="&#xae;" horiz-adv-x="667" 
d="M311 333q-10 -36 18 -66t72 -45q8 -3 16.5 -5t19 -3.5t17.5 -2t20 -1t17 -0.5h19h18l-44 -44h-17h-19q-5 0 -18 0.5t-20 1t-17.5 2t-19 3.5t-16.5 5q-36 12 -60 34v-16l-44 -44q0 35 -7.5 131t-3.5 150l44 44q5 3 13 8.5t15 9.5t14 6q17 4 46 0t52 -20t17 -41
q-2 -7 -6.5 -13t-12 -12.5t-10.5 -10.5l-44 -44q-35 -18 -59 -27zM329 366q54 22 70 31q5 22 -14 37.5t-44.5 20.5t-46.5 3q-8 -60 -6 -133zM537 65q48 56 69 96q29 58 31 135q1 66 -23 121.5t-68 94t-98.5 64t-118.5 38.5l23 23q-108 -7 -226 -103q-49 -66 -75 -135
t-28 -129t15 -114t50.5 -93.5t82 -62.5t105 -26t125 19.5t136.5 71.5zM509 33q-71 -54 -142 -79.5t-130 -23.5t-109.5 26t-84.5 65t-50.5 97t-13 119t33.5 134.5t85 139.5l44 44q85 73 162 105.5t172 16.5l-37 -37q110 -36 177 -112t65 -188q-2 -77 -31 -135q-9 -18 -22 -37
q-14 -20 -20.5 -28t-29.5 -34.5t-25 -28.5z" />
    <glyph glyph-name="macron" unicode="&#xaf;" horiz-adv-x="345" 
d="M12 602l44 44q103 -5 303 14l-44 -44q-199 -19 -303 -14z" />
    <glyph glyph-name="degree" unicode="&#xb0;" horiz-adv-x="306" 
d="M218 446q-87 -66 -124 -26q-31 33 -8 108q12 40 38 77l44 44q16 6 31 13l10 10q7 1 22 4t22.5 4t22.5 -1q31 -7 39.5 -32.5t-1 -56t-24 -58t-28.5 -42.5zM209 622q-32 3 -35 3t-27 -11q-27 -53 -26 -99.5t30 -60t87 19.5q14 21 23.5 45t13.5 49t-6.5 43.5t-36.5 23.5
q-4 1 -9 1z" />
    <glyph glyph-name="plusminus" unicode="&#xb1;" horiz-adv-x="545" 
d="M68 246l44 44q9 1 133 23q-2 75 -2 142l44 44q0 -83 4 -179q91 14 162 12l-44 -44q-55 2 -117 -5q3 -66 8 -148l-44 -44q-6 105 -9 186l-88 -15q-59 -11 -91 -16zM29 2l44 44q49 0 220.5 9.5t265.5 1.5l-44 -44q-93 8 -265 -1.5t-221 -9.5z" />
    <glyph glyph-name="uni00B2" unicode="&#xb2;" horiz-adv-x="314" 
d="M86 570l1 -27l-44 -44l-1 34l44 44l51 42q15 11 36.5 20t46 8.5t33.5 -20.5q8 -19 -16.5 -58.5t-59 -77t-63.5 -73.5t-27 -49q1 -9 9 -16.5t18 -9.5q9 -2 54 6t99 20t61 13l-44 -44q-7 -1 -61 -13t-99 -20t-54 -6q-10 2 -18 9.5t-9 16.5q-1 13 27.5 49t63 73.5t59 77
t16.5 58.5q-9 20 -33.5 20.5t-46 -8.5t-36.5 -20z" />
    <glyph glyph-name="uni00B3" unicode="&#xb3;" horiz-adv-x="256" 
d="M225 354q2 14 -1 21q-5 15 -24.5 31t-38 26t-45.5 23l-34 16l44 44q45 14 79 30q-11 35 -34.5 50.5t-50.5 13t-58 -17.5l-8 -19l-44 -44l18 44l44 44q28 19 56 28t53.5 7.5t45 -22t27.5 -58.5l-44 -44q-28 -16 -52 -28q28 -13 45.5 -22.5t38 -26t26.5 -31.5q2 -8 2 -12
l-2 -13q-1 -8 -1 -12l-44 -44q-26 -22 -55 -34.5t-62.5 -14t-62.5 17.5q-1 1 -5.5 3.5t-6.5 3.5t-5.5 3.5t-5.5 4.5t-4 5t-3 6q-3 9 -4 20t0 25t0 21l44 44q0 -7 -0.5 -21t0.5 -25t4 -20q1 -4 3 -7t6.5 -6t6 -4.5t7.5 -5t7 -3.5q61 -37 138 3z" />
    <glyph glyph-name="acute" unicode="&#xb4;" horiz-adv-x="162" 
d="M132 693l44 44q-4 -36 -20.5 -63t-46.5 -59l-44 -44q30 32 46.5 59.5t20.5 62.5z" />
    <glyph glyph-name="uni00B5" unicode="&#xb5;" horiz-adv-x="537" 
d="M505 417q-8 -28 -14 -58q19 53 15 57q0 1 -1 1zM421 153q-43 -75 -98 -143l-44 -44q-147 -104 -144 92q2 121 60 338q-114 -236 -169 -555l-44 -44q34 198 89 360.5t147 322.5l44 44q-131 -453 -58 -534q31 -34 99 7q71 94 125 210q17 121 45 204l44 44q4 0 12 3.5
t11.5 4t9.5 -2.5q5 -5 -27 -88q-26 -68 -51 -121q-4 -31 -11 -91.5t-11 -88.5l-44 -44q0 1 15 126z" />
    <glyph glyph-name="paragraph" unicode="&#xb6;" horiz-adv-x="690" 
d="M501 566l85 80q-3 -2 -5 -3q-7 -4 -31 -10t-30 -9q-18 -8 -38 -25q-15 -18 -48 -52l-44 -44l-22 15l-20 -29l-25 -34q-11 -15 -22 -28l-44 -44l-4 19q-68 -106 -74 -198q83 102 278 318zM30 -5l31 49q-3 -3 -7.5 -8.5l-14 -16.5t-14.5 -18.5t-3 -7.5q3 0 8 2zM3 -42
q-27 -13 -27 -7t41 51q20 21 25 30l24 24l25 34l16 32l27 27q4 118 115 267l44 44l5 -22q43 59 65 83l44 44l25 -17l22 26l44 44q4 3 15 13l17 15q5 5 15 11.5t19 10.5q6 3 26 8t28 8l-12 -15l-11 -14l43 41q-1 0 -3 -1q5 5 14 17.5t17 19.5t18 8q7 1 12 -7t7 -18
q1 -7 -2 -16.5t-10.5 -22t-16 -25t-20.5 -27.5l-23 -28l-24 -28l-21 -23l-19 -21q-12 -13 -13 -14q-3 -3 -11 -8q123 135 116 169q-2 10 -7 18t-12 7h-1l-33 -33l-120 -114q-212 -233 -308 -358l-2 -2l-7 -9q21 14 56.5 17t55.5 10q83 27 178 99v10v6q0 2 -1 4l-2 2h-3
t-6 -1l-9 -3q-6 -2 -12 -3l44 44q46 25 85 52q5 32 -1 37.5t-18 -6t-26 -16.5t-26 7q-3 4 1 8.5t13 10t12 8.5l17 18l1 -1q8 -11 21 -8.5t22.5 11.5t18.5 12.5t10 -6t-3 -43.5l-44 -44q-24 -20 -51 -38q1 -1 1 -9.5t1 -16.5l-44 -44q-61 -49 -113 -82q-51 -33 -110 -52
q-21 -7 -51 -9q-29 -3 -43 -8l-9 -12l-42 -79l-21 -21q-12 -18 -24 -32zM527 484l16 18q-19 -12 -16 -18zM635 695q-8 -2 -17 -11q4 1 7 3q5 3 10 8z" />
    <glyph glyph-name="periodcentered" unicode="&#xb7;" horiz-adv-x="149" 
d="M118 324q3 14 -6 17q-2 -11 -1 -13.5t7 -3.5zM101 278q-8 1 -17.5 2t-11 0.5t-4 2t-1.5 4.5t2 11t1 18l23 23q-10 -3 -25 -9l44 44q24 10 36.5 11.5t13.5 -7t-2 -17.5t-11 -30q-3 -6 -4 -9z" />
    <glyph glyph-name="cedilla" unicode="&#xb8;" horiz-adv-x="215" 
d="M172 -172q14 29 13 41q-1 16 -14 22.5t-28 5.5t-27.5 3.5t-12.5 18t17 47.5l44 44l23 22l-24 -24q-16 -34 -16 -46.5t13 -17t27.5 -3.5t27.5 -5.5t14 -22.5q0 -8 -3 -17t-8 -19.5t-7 -16.5l-44 -44q-79 -68 -113 -64q-7 1 -12.5 6t-11.5 13t-10 11l44 44q4 -3 10 -11
t11.5 -13t12.5 -6q27 -3 74 32z" />
    <glyph glyph-name="uni00B9" unicode="&#xb9;" horiz-adv-x="200" 
d="M21 561l44 44l15 -15q8 -8 9 -9.5t6.5 -3t6.5 -1t11.5 3.5t18.5 5q22 33 36 79l2 7l44 44l-2 -7q-55 -193 -25 -340l-44 -44q-25 122 8 272l-8 -8l-44 -44l-24 -6q-12 -3 -14 -4.5t-8 -0.5t-6.5 2.5t-9 10t-16.5 15.5z" />
    <glyph glyph-name="ordmasculine" unicode="&#xba;" horiz-adv-x="270" 
d="M80 622q-16 -23 -26 -47l32 32q-15 -40 -12.5 -81.5t20 -67.5t47 -34.5t70.5 17.5q20 36 26.5 73t-2.5 66t-28 47.5t-52.5 18t-74.5 -23.5zM104 654q40 26 74 33t56 -4t35 -34t14.5 -52.5t-9 -64.5t-32.5 -67l-44 -44q-54 -46 -92.5 -42.5t-59 40.5t-16.5 88l-38 -38
q9 44 24 74.5t44 66.5z" />
    <glyph glyph-name="guillemotright" unicode="&#xbb;" horiz-adv-x="474" 
d="M59 360l44 44l30 -29l26 -24l21 -22l42 -27l26 -11l12 -61l-21 -22l-45 -34l-40 -26l-30 -20l-34 52l30 20l38 26l33 22h-1l-50 33l-25 26l-24 22zM288 387l48 40l28 -35l42 -26l42 -27l40 -33l-11 -72l-41 -41l-41 -39l-30 -24l-38 48l28 22l39 37l29 27l7 18l-16 5
l-42 27l-50 32z" />
    <glyph glyph-name="onequarter" unicode="&#xbc;" horiz-adv-x="658" 
d="M646 696l-87 -134l-73 -115q-30 -46 -92 -134t-107.5 -159t-80.5 -141l-44 -44q35 70 80.5 141t107.5 159t92 134l74 117l88 135l44 44l24 23zM124 463l44 44q7 -1 14 -2.5t10 -1.5t5.5 -1t5 0.5t4 2t6.5 4.5t8 6l75 84l44 44q-24 -76 -35.5 -134t-11.5 -121l-44 -44
q0 102 45 247l-60 -67l-44 -44l-16 -12q-8 -5 -9.5 -6.5t-6.5 -3t-6 -1t-10 2.5t-18 3zM590 324l44 44l-23 -33q-135 -192 -103 -196q14 -2 56 28l10 13l44 44q-26 -105 -31 -225l-44 -44q5 113 28 212l-26 -26q-87 -66 -88 -38q0 25 65 122l45 66q20 28 23 33z" />
    <glyph glyph-name="onehalf" unicode="&#xbd;" horiz-adv-x="675" 
d="M538 646l25 25l19 19q-39 -54 -110 -162t-108 -159l-42 -59l-46 -63l-40 -57q-27 -41 -41 -66l-34 -60q-20 -37 -34.5 -70t-25.5 -68l-44 -44q12 35 26 68t34 70l34 60q14 25 41 66l40 57l46 63l42 59q37 51 108 159.5t110 161.5zM478 289l-8 -34l-44 -44l11 47l44 44
q37 35 68.5 40.5t40 -19.5t-11.5 -79q-9 -21 -22.5 -42.5t-27.5 -37.5l-30 -34q-15 -17 -27 -29t-21 -24t-10.5 -18.5t3.5 -12.5q13 -7 33.5 -6t53.5 9t62 17l57 18q29 8 40 10l-44 -44q-11 -2 -40 -10l-57 -18l-62 -16.5t-53.5 -9.5t-33.5 6q-5 6 -3.5 12.5t11 18.5
t21.5 24l26 29l30 34q14 16 27.5 37.5t22.5 42.5q25 65 6.5 88.5t-62.5 0.5zM107 486l44 44q31 -15 46 -14.5t36 18.5q2 3 5 7l10 13l15 20l44 44q-25 -136 -31 -236l-44 -44q6 96 29 223l-14 -14l-44 -44q-30 -28 -44.5 -31t-51.5 14z" />
    <glyph glyph-name="threequarters" unicode="&#xbe;" horiz-adv-x="617" 
d="M306 397q0 13 -8 21t-17.5 12t-14.5 14.5t-1 27.5q3 10 16.5 24t16.5 23q9 29 6.5 46.5t-15.5 24.5t-29.5 6.5t-35.5 -7.5l-43 -43l17 31l44 44q21 12 42 17t39 0.5t23.5 -22.5t-4.5 -53q-3 -9 -17 -23.5t-16 -23.5q-4 -17 0.5 -27t13.5 -14t16.5 -11.5t9.5 -18t-7 -35.5
l-44 -44q-86 -33 -156 -33l44 44q60 0 120 20zM587 646l44 44q-36 -55 -105 -152l-116 -166q-47 -69 -97 -160.5t-74 -168.5l-44 -44q24 77 74 168.5t98 160.5l117 166q68 97 103 152zM574 300l44 44q-129 -218 -121 -225q2 -2 5 -3t5.5 -1t7 1t6.5 1.5t7 2t6 2.5
q21 7 37 18l13 26l44 44q-17 -81 -17 -178l-44 -44q0 87 13 159l-12 -12l-14 -15l-15 -13.5t-12.5 -10t-17 -10.5t-19.5 -8q-1 0 -6 -2t-7 -2.5t-6.5 -1.5t-7 -1t-5.5 1t-5 3q-7 7 121 225z" />
    <glyph glyph-name="questiondown" unicode="&#xbf;" horiz-adv-x="393" 
d="M301 450l-15 -6q-8 -3 -11.5 -5t-6.5 -3h-3l1 3q0 3 2 7l6 10q4 8 7 15l12 12q-2 5 -14 -5q-3 -2 -4.5 -3.5t-4.5 -3.5t-5.5 -4l-6.5 -5l-7 -5l44 44q9 6 17.5 13t12.5 9.5t7 5.5t4 0t2 -5t3 -12t4 -18zM257 294l44 44q2 -17 27 -79.5t19 -90.5q-2 -7 -6 -13.5t-10 -14.5
l-9 -11l-44 -44q-17 -8 -82.5 -32t-98.5 -46q-26 -49 -28.5 -90.5t16.5 -67t51.5 -39t77 -8.5t91.5 28q50 63 58 142l44 44q-5 -56 -27 -95.5t-66 -85.5l-44 -44q-41 -22 -81 -29.5t-72 -1.5t-55.5 24.5t-32.5 46t-1 66.5t35 83l44 44q21 19 47 34.5t45 23t52 19.5l51 19
q1 2 1 4q6 29 -18.5 91t-27.5 79z" />
    <glyph glyph-name="Agrave" unicode="&#xc0;" horiz-adv-x="489" 
d="M454 71q12 51 -6 196.5t-38 211.5q-11 36 -40 99.5t-49 67.5q-34 6 -61 -14q-120 -156 -180 -391q58 11 117.5 -15.5t136.5 -85.5q9 -7 25.5 -22.5t30.5 -26.5t29 -16q11 -4 35 -4zM-61 152q-1 -2 -3 -5.5t-3 -5.5l-3 -5q-1 -3 -1.5 -5t-0.5 -4.5t1 -4t3 -2.5
q35 -20 85 -8l1 4q8 41 18 82q-48 -9 -97 -46zM153 -98q-9 -1 -23.5 -4.5t-24.5 -5.5t-22.5 -2t-22.5 5q-73 35 -48 185q-78 -31 -124 -4q-5 2 -4 8t4 10l6 12q4 8 5 12l44 44q52 50 102 70q65 228 187 375l44 44q5 4 12 10.5t10.5 9.5t10.5 8t11.5 6.5t12.5 4.5t14.5 1.5
t17.5 -1.5q20 -4 49 -67.5t40 -99.5q20 -68 38 -215q19 -148 5 -196q-2 -7 -6 -14t-10 -15l-9 -12l-44 -44q-10 1 -18 0.5t-18 0t-17 3.5q-15 5 -29 16t-30 26.5t-26 22.5q-66 51 -118 77.5t-102 26.5l-8 -40q-6 -30 -7 -36q14 5 37 16t31 14l-44 -44q-8 -3 -27 -12
q-16 -126 52 -159q10 -5 22.5 -5t22.5 2t24.5 5.5t23.5 4.5zM199 771l44 44q13 -8 27 -15l24 -10q10 -4 28 -7.5t25 -5t29.5 -4.5t29.5 -4l-44 -44l-29 4q-22 3 -29 5l-26 4q-17 4 -27 8t-24.5 10.5t-27.5 14.5z" />
    <glyph glyph-name="Aacute" unicode="&#xc1;" horiz-adv-x="489" 
d="M454 71q12 51 -6 196.5t-38 211.5q-11 36 -40 99.5t-49 67.5q-34 6 -61 -14q-120 -156 -180 -391q58 11 117.5 -15.5t136.5 -85.5q9 -7 25.5 -22.5t30.5 -26.5t29 -16q11 -4 35 -4zM-61 152q-1 -2 -3 -5.5t-3 -5.5l-3 -5q-1 -3 -1.5 -5t-0.5 -4.5t1 -4t3 -2.5
q35 -20 85 -8l1 4q8 41 18 82q-48 -9 -97 -46zM153 -98q-9 -1 -23.5 -4.5t-24.5 -5.5t-22.5 -2t-22.5 5q-73 35 -48 185q-78 -31 -124 -4q-5 2 -4 8t4 10l6 12q4 8 5 12l44 44q52 50 102 70q65 228 187 375l44 44q5 4 12 10.5t10.5 9.5t10.5 8t11.5 6.5t12.5 4.5t14.5 1.5
t17.5 -1.5q20 -4 49 -67.5t40 -99.5q20 -68 38 -215q19 -148 5 -196q-2 -7 -6 -14t-10 -15l-9 -12l-44 -44q-10 1 -18 0.5t-18 0t-17 3.5q-15 5 -29 16t-30 26.5t-26 22.5q-66 51 -118 77.5t-102 26.5l-8 -40q-6 -30 -7 -36q14 5 37 16t31 14l-44 -44q-8 -3 -27 -12
q-16 -126 52 -159q10 -5 22.5 -5t22.5 2t24.5 5.5t23.5 4.5zM204 693l44 44q139 69 203 94l-44 -44q-64 -24 -203 -94z" />
    <glyph glyph-name="Acircumflex" unicode="&#xc2;" horiz-adv-x="489" 
d="M454 71q12 51 -6 196.5t-38 211.5q-11 36 -40 99.5t-49 67.5q-34 6 -61 -14q-120 -156 -180 -391q58 11 117.5 -15.5t136.5 -85.5q9 -7 25.5 -22.5t30.5 -26.5t29 -16q11 -4 35 -4zM-61 152q-1 -2 -3 -5.5t-3 -5.5l-3 -5q-1 -3 -1.5 -5t-0.5 -4.5t1 -4t3 -2.5
q35 -20 85 -8l1 4q8 41 18 82q-48 -9 -97 -46zM153 -98q-9 -1 -23.5 -4.5t-24.5 -5.5t-22.5 -2t-22.5 5q-73 35 -48 185q-78 -31 -124 -4q-5 2 -4 8t4 10l6 12q4 8 5 12l44 44q52 50 102 70q65 228 187 375l44 44q5 4 12 10.5t10.5 9.5t10.5 8t11.5 6.5t12.5 4.5t14.5 1.5
t17.5 -1.5q20 -4 49 -67.5t40 -99.5q20 -68 38 -215q19 -148 5 -196q-2 -7 -6 -14t-10 -15l-9 -12l-44 -44q-10 1 -18 0.5t-18 0t-17 3.5q-15 5 -29 16t-30 26.5t-26 22.5q-66 51 -118 77.5t-102 26.5l-8 -40q-6 -30 -7 -36q14 5 37 16t31 14l-44 -44q-8 -3 -27 -12
q-16 -126 52 -159q10 -5 22.5 -5t22.5 2t24.5 5.5t23.5 4.5zM182 663l44 44q10 5 50 32t72.5 44t46.5 10q15 -8 43 -37.5t40 -37.5l-44 -44q-12 8 -39.5 37.5t-43.5 37.5q-13 7 -46 -10t-73 -44t-50 -32z" />
    <glyph glyph-name="Atilde" unicode="&#xc3;" horiz-adv-x="490" 
d="M454 71q12 51 -6 196.5t-38 211.5q-11 36 -40 99.5t-49 67.5q-34 6 -61 -14q-120 -156 -180 -391q58 11 117.5 -15.5t136.5 -85.5q9 -7 25.5 -22.5t30.5 -26.5t29 -16q11 -4 35 -4zM-61 152q-1 -2 -3 -5.5t-3 -5.5l-3 -5q-1 -3 -1.5 -5t-0.5 -4.5t1 -4t3 -2.5
q35 -20 85 -8l1 4q8 41 18 82q-48 -9 -97 -46zM153 -98q-9 -1 -23.5 -4.5t-24.5 -5.5t-22.5 -2t-22.5 5q-73 35 -48 185q-78 -31 -124 -4q-5 2 -4 8t4 10l6 12q4 8 5 12l44 44q52 50 102 70q65 228 187 375l44 44q5 4 12 10.5t10.5 9.5t10.5 8t11.5 6.5t12.5 4.5t14.5 1.5
t17.5 -1.5q20 -4 49 -67.5t40 -99.5q20 -68 38 -215q19 -148 5 -196q-2 -7 -6 -14t-10 -15l-9 -12l-44 -44q-10 1 -18 0.5t-18 0t-17 3.5q-15 5 -29 16t-30 26.5t-26 22.5q-66 51 -118 77.5t-102 26.5l-8 -40q-6 -30 -7 -36q14 5 37 16t31 14l-44 -44q-8 -3 -27 -12
q-16 -126 52 -159q10 -5 22.5 -5t22.5 2t24.5 5.5t23.5 4.5zM443 724l-14 -14q-6 0 -16.5 -2t-19.5 -2.5t-17 -0.5q-21 2 -38 10.5t-26 17.5t-23.5 17.5t-30.5 10t-48 -6.5l-1 -2l-44 -44l30 41l44 44q32 11 54.5 11.5t35.5 -7.5t23.5 -18t28 -19.5t39.5 -10.5q12 -1 37 3
q1 12 3 23l44 44q-2 -10 -3 -20t-1 -11.5t-2 -6.5t-3.5 -6t-8.5 -7.5t-13 -13.5l-21 -21z" />
    <glyph glyph-name="Adieresis" unicode="&#xc4;" horiz-adv-x="489" 
d="M454 71q12 51 -6 196.5t-38 211.5q-11 36 -40 99.5t-49 67.5q-34 6 -61 -14q-120 -156 -180 -391q58 11 117.5 -15.5t136.5 -85.5q9 -7 25.5 -22.5t30.5 -26.5t29 -16q11 -4 35 -4zM-61 152q-1 -2 -3 -5.5t-3 -5.5l-3 -5q-1 -3 -1.5 -5t-0.5 -4.5t1 -4t3 -2.5
q35 -20 85 -8l1 4q8 41 18 82q-48 -9 -97 -46zM153 -98q-9 -1 -23.5 -4.5t-24.5 -5.5t-22.5 -2t-22.5 5q-73 35 -48 185q-78 -31 -124 -4q-5 2 -4 8t4 10l6 12q4 8 5 12l44 44q52 50 102 70q65 228 187 375l44 44q5 4 12 10.5t10.5 9.5t10.5 8t11.5 6.5t12.5 4.5t14.5 1.5
t17.5 -1.5q20 -4 49 -67.5t40 -99.5q20 -68 38 -215q19 -148 5 -196q-2 -7 -6 -14t-10 -15l-9 -12l-44 -44q-10 1 -18 0.5t-18 0t-17 3.5q-15 5 -29 16t-30 26.5t-26 22.5q-66 51 -118 77.5t-102 26.5l-8 -40q-6 -30 -7 -36q14 5 37 16t31 14l-44 -44q-8 -3 -27 -12
q-16 -126 52 -159q10 -5 22.5 -5t22.5 2t24.5 5.5t23.5 4.5zM281 780q0 -13 -9 -22t-22 -9t-22 9t-9 22t9 22t22 9t22 -9t9 -22zM476 783q0 -13 -9 -22t-22 -9t-22 9t-9 22t9 22t22 9t22 -9t9 -22z" />
    <glyph glyph-name="Aring" unicode="&#xc5;" horiz-adv-x="489" 
d="M454 71q12 51 -6 196.5t-38 211.5q-11 36 -40 99.5t-49 67.5q-34 6 -61 -14q-120 -156 -180 -391q58 11 117.5 -15.5t136.5 -85.5q9 -7 25.5 -22.5t30.5 -26.5t29 -16q11 -4 35 -4zM-61 152q-1 -2 -3 -5.5t-3 -5.5l-3 -5q-1 -3 -1.5 -5t-0.5 -4.5t1 -4t3 -2.5
q35 -20 85 -8l1 4q8 41 18 82q-48 -9 -97 -46zM387 770q6 24 -2 36t-25 12t-39 -4q-4 -41 15.5 -50.5t50.5 6.5zM378 746q-24 -16 -43.5 -23t-34.5 -5.5t-21 19t0 51.5l20 20q-10 -3 -20 -7l44 44q17 6 32 10t30.5 6.5t26 -0.5t17 -10t5 -22.5t-11.5 -38.5zM153 -98
q-9 -1 -23.5 -4.5t-24.5 -5.5t-22.5 -2t-22.5 5q-73 35 -48 185q-78 -31 -124 -4q-5 2 -4 8t4 10l6 12q4 8 5 12l44 44q52 50 102 70q65 228 187 375l44 44q5 4 12 10.5t10.5 9.5t10.5 8t11.5 6.5t12.5 4.5t14.5 1.5t17.5 -1.5q20 -4 49 -67.5t40 -99.5q20 -68 38 -215
q19 -148 5 -196q-2 -7 -6 -14t-10 -15l-9 -12l-44 -44q-10 1 -18 0.5t-18 0t-17 3.5q-15 5 -29 16t-30 26.5t-26 22.5q-66 51 -118 77.5t-102 26.5l-8 -40q-6 -30 -7 -36q14 5 37 16t31 14l-44 -44q-8 -3 -27 -12q-16 -126 52 -159q10 -5 22.5 -5t22.5 2t24.5 5.5t23.5 4.5z
" />
    <glyph glyph-name="AE" unicode="&#xc6;" horiz-adv-x="734" 
d="M-61 152q-1 -2 -3 -5.5t-3 -5.5l-3 -5q-1 -3 -1.5 -5t-0.5 -4.5t1 -4t3 -2.5q35 -20 85 -8l1 4q8 41 18 82q-48 -9 -97 -46zM440 71l5 5l10 -1q15 72 -20 284l-4 -1l3 3q-13 80 -24 118q-11 36 -40 99.5t-49 67.5q-34 6 -61 -14q-120 -156 -180 -391q58 11 117.5 -15.5
t136.5 -85.5q9 -7 25.5 -22.5t30.5 -26.5t29 -16q9 -3 21 -4zM153 -98q-9 -1 -23.5 -4.5t-24.5 -5.5t-22.5 -2t-22.5 5q-73 35 -48 185q-78 -31 -124 -4q-5 2 -4 8t4 10l6 12q4 8 5 12l44 44q52 50 102 70q65 228 187 375l44 44q5 4 12 10.5t10.5 9.5t10.5 8t11.5 6.5
t12.5 4.5t14.5 1.5t17.5 -1.5q16 -3 41 -50l1 1q29 3 150 20.5t188 17.5l-44 -44q-33 0 -72 -3.5t-66.5 -7t-72.5 -10.5t-67 -10q22 -50 31 -81q11 -39 25 -121l111 18q79 12 121 17l-44 -44q-17 -2 -183 -27q30 -197 13 -254q-2 -7 -6 -13.5t-10 -14.5t-8 -12
q43 -5 73.5 -6.5t68 1t70.5 15.5t63 36l-44 -44q-30 -23 -63 -36t-70 -15.5t-67.5 -1t-74.5 6.5l-1 -1q-10 1 -18 0.5t-18 0t-17 3.5q-15 5 -29 16t-30 26.5t-26 22.5q-66 51 -118 77.5t-102 26.5l-8 -40q-6 -30 -7 -36q14 5 37 16t31 14l-44 -44q-8 -3 -27 -12
q-16 -126 52 -159q10 -5 22.5 -5t22.5 2t24.5 5.5t23.5 4.5z" />
    <glyph glyph-name="Ccedilla" unicode="&#xc7;" horiz-adv-x="544" 
d="M322 474l44 44q2 -2 5 -6l27 -27q7 -8 18.5 -16.5t16 -9t15 2.5t18.5 10l22 19q44 68 11.5 112.5t-120.5 47.5q-66 3 -120.5 -25.5t-115.5 -82.5q-4 -5 -15.5 -20.5t-14.5 -20t-12 -17t-12.5 -19.5t-10 -19t-11.5 -24q-5 -11 -10 -26q-16 -45 -23 -95q-8 -51 -4.5 -104.5
t28.5 -98t71 -65.5q34 -16 74.5 -20t73.5 -1t79.5 16t72.5 22t72 27l23 9l-44 -44q-2 -1 -32 -12.5t-37.5 -14t-34 -12t-39.5 -12.5l-35 -10q-23 -6 -41.5 -9t-36.5 -4q-8 -27 -5 -35.5t18.5 -9t32 3t35 1t29.5 -15.5q3 -4 3.5 -10t-0.5 -14t-1 -12l-44 -44l-24 -18
q-7 -5 -22 -14.5t-23.5 -12t-22 -5t-23 1.5t-21 13t-21.5 24l44 44q17 -25 37 -33.5t37.5 -4.5t39.5 18q2 17 -3 23q-9 11 -25 14.5t-31.5 1t-29.5 -3.5t-22.5 2t-7.5 17.5t13 42.5l25 25q-71 -4 -127 22q-46 21 -71 66q-25 44 -28.5 97.5t4 104.5t23.5 95q8 21 15 37.5
t17.5 33.5l16.5 26l22 30l24 32l44 44l48 43q17 14 48 37t54 33.5t55.5 18.5t65.5 7q93 -4 123.5 -52.5t-26.5 -123.5l-44 -44l-22 -19l-26 -24q-8 -7 -20 -12t-16.5 -4.5t-16.5 8t-20 16.5l-28 28q-3 4 -5 6z" />
    <glyph glyph-name="Egrave" unicode="&#xc8;" horiz-adv-x="581" 
d="M37 28l44 44l1 -1q4 147 22 263l-14 -6q-3 -1 -14 -7l-20 -12q-11 -6 -24.5 -11.5t-25.5 -9t-23.5 -2.5t-18.5 7q-5 3 -3 9t5 11l9 12q5 7 7 11l44 44q-2 -4 -7 -11l-9 -12q-3 -5 -5 -11t3 -9q24 -21 100 20q12 72 30 139l1 1q-106 11 -171 38l44 44q79 55 270 95.5
t313 40.5l-44 -44q-99 0 -257 -29t-259 -72q60 -21 162 -30l-20 -20q-18 -69 -29 -142q129 58 297 69l-44 -44q-145 -10 -257 -52q-17 -125 -19 -293q23 -5 50 -6.5t49.5 -2t55.5 3t52.5 6t55.5 9t50 9.5t51.5 10.5t44.5 9.5l-44 -44q-6 -1 -46 -9l-54 -12q-14 -3 -50 -9.5
t-58 -9t-53 -5.5t-57.5 -2.5t-51.5 2.5l-39 -39v46q-24 5 -44 13zM96 777l44 44q101 -57 185 -77l-44 -44q-84 20 -185 77z" />
    <glyph glyph-name="Eacute" unicode="&#xc9;" horiz-adv-x="581" 
d="M37 28l44 44l1 -1q4 147 22 263l-14 -6q-3 -1 -14 -7l-20 -12q-11 -6 -24.5 -11.5t-25.5 -9t-23.5 -2.5t-18.5 7q-5 3 -3 9t5 11l9 12q5 7 7 11l44 44q-2 -4 -7 -11l-9 -12q-3 -5 -5 -11t3 -9q24 -21 100 20q12 72 30 139l1 1q-106 11 -171 38l44 44q79 55 270 95.5
t313 40.5l-44 -44q-99 0 -257 -29t-259 -72q60 -21 162 -30l-20 -20q-18 -69 -29 -142q129 58 297 69l-44 -44q-145 -10 -257 -52q-17 -125 -19 -293q23 -5 50 -6.5t49.5 -2t55.5 3t52.5 6t55.5 9t50 9.5t51.5 10.5t44.5 9.5l-44 -44q-6 -1 -46 -9l-54 -12q-14 -3 -50 -9.5
t-58 -9t-53 -5.5t-57.5 -2.5t-51.5 2.5l-39 -39v46q-24 5 -44 13zM143 686l44 44q34 15 95 49.5t91 48.5l-44 -44q-29 -14 -90.5 -48t-95.5 -50z" />
    <glyph glyph-name="Ecircumflex" unicode="&#xca;" horiz-adv-x="581" 
d="M37 28l44 44l1 -1q4 147 22 263l-14 -6q-3 -1 -14 -7l-20 -12q-11 -6 -24.5 -11.5t-25.5 -9t-23.5 -2.5t-18.5 7q-5 3 -3 9t5 11l9 12q5 7 7 11l44 44q-2 -4 -7 -11l-9 -12q-3 -5 -5 -11t3 -9q24 -21 100 20q12 72 30 139l1 1q-106 11 -171 38l44 44q79 55 270 95.5
t313 40.5l-44 -44q-99 0 -257 -29t-259 -72q60 -21 162 -30l-20 -20q-18 -69 -29 -142q129 58 297 69l-44 -44q-145 -10 -257 -52q-17 -125 -19 -293q23 -5 50 -6.5t49.5 -2t55.5 3t52.5 6t55.5 9t50 9.5t51.5 10.5t44.5 9.5l-44 -44q-6 -1 -46 -9l-54 -12q-14 -3 -50 -9.5
t-58 -9t-53 -5.5t-57.5 -2.5t-51.5 2.5l-39 -39v46q-24 5 -44 13zM67 669l44 44l50 38q46 35 79 53t53 14q7 -2 17.5 -10.5t14.5 -10.5q11 -6 24 -10t20.5 -6t25 -5.5t23.5 -4.5l-44 -44q-6 1 -23.5 4.5t-25 5.5t-20.5 6.5t-24 9.5q-4 2 -14.5 11t-17.5 10q-20 4 -53 -14
t-79 -53z" />
    <glyph glyph-name="Edieresis" unicode="&#xcb;" horiz-adv-x="581" 
d="M37 28l44 44l1 -1q4 147 22 263l-14 -6q-3 -1 -14 -7l-20 -12q-11 -6 -24.5 -11.5t-25.5 -9t-23.5 -2.5t-18.5 7q-5 3 -3 9t5 11l9 12q5 7 7 11l44 44q-2 -4 -7 -11l-9 -12q-3 -5 -5 -11t3 -9q24 -21 100 20q12 72 30 139l1 1q-106 11 -171 38l44 44q79 55 270 95.5
t313 40.5l-44 -44q-99 0 -257 -29t-259 -72q60 -21 162 -30l-20 -20q-18 -69 -29 -142q129 58 297 69l-44 -44q-145 -10 -257 -52q-17 -125 -19 -293q23 -5 50 -6.5t49.5 -2t55.5 3t52.5 6t55.5 9t50 9.5t51.5 10.5t44.5 9.5l-44 -44q-6 -1 -46 -9l-54 -12q-14 -3 -50 -9.5
t-58 -9t-53 -5.5t-57.5 -2.5t-51.5 2.5l-39 -39v46q-24 5 -44 13zM198 788q0 -13 -9 -22t-22 -9t-22 9t-9 22t9 22t22 9t22 -9t9 -22zM348 790q0 -13 -9 -22t-22 -9t-22 9t-9 22t9 22t22 9t22 -9t9 -22z" />
    <glyph glyph-name="Igrave" unicode="&#xcc;" horiz-adv-x="209" 
d="M127 655l44 44q-19 -103 -28 -190t-8.5 -184.5t20.5 -191t60 -178.5l-44 -44q-40 85 -60 178.5t-20.5 191t8.5 184.5t28 190zM81 758l44 44q42 -23 98 -50l-44 -44q-56 27 -98 50z" />
    <glyph glyph-name="Iacute" unicode="&#xcd;" horiz-adv-x="204" 
d="M127 655l44 44q-19 -103 -28 -190t-8.5 -184.5t20.5 -191t60 -178.5l-44 -44q-40 85 -60 178.5t-20.5 191t8.5 184.5t28 190zM60 710l44 44q68 52 114 83l-44 -44q-46 -31 -114 -83z" />
    <glyph glyph-name="Icircumflex" unicode="&#xce;" horiz-adv-x="276" 
d="M128 767q-4 -3 -28 -32l-44 -44q23 27 56 62l44 44q3 2 9 8t11 9.5t10 3.5q11 1 30.5 -7.5t42.5 -20t31 -14.5l-44 -44q-8 3 -31 15t-42.5 20t-30.5 7q-7 0 -14 -7zM127 655l44 44q-19 -103 -28 -190t-8.5 -184.5t20.5 -191t60 -178.5l-44 -44q-40 85 -60 178.5
t-20.5 191t8.5 184.5t28 190z" />
    <glyph glyph-name="Idieresis" unicode="&#xcf;" horiz-adv-x="238" 
d="M127 655l44 44q-19 -103 -28 -190t-8.5 -184.5t20.5 -191t60 -178.5l-44 -44q-40 85 -60 178.5t-20.5 191t8.5 184.5t28 190zM126 768q0 -13 -9 -22t-22 -9t-22 9t-9 22t9 22t22 9t22 -9t9 -22zM251 763q0 -13 -9 -22t-22 -9t-22 9t-9 22t9 22t22 9t22 -9t9 -22z" />
    <glyph glyph-name="Eth" unicode="&#xd0;" horiz-adv-x="556" 
d="M80 297h-6l5 5q-11 61 -27 128q-29 -113 -30 -243q-1 -50 10 -132t35 -95q3 -2 7 -2q43 123 6 339zM-125 299l44 44q58 -5 78 -5q15 77 41 144q-25 91 -62 200l44 44q31 -90 53 -167q29 55 67 101l44 44l20 12q13 8 24 14t22 9q43 11 84.5 1t74.5 -37.5t63 -66.5
t49.5 -84.5t33 -92.5t14.5 -90.5t-6 -78.5q-6 -22 -11 -37.5t-14 -30t-15 -22l-22 -26.5l-25 -29l-44 -44l-32 -29l-28 -24q-19 -16 -28 -22l-27 -17q-17 -11 -29 -15l-30 -8q-17 -6 -33.5 -7t-37 -1t-43.5 2l44 44q25 -4 50 -2t42.5 3t37 8.5t33 14t31.5 19t32 24t34 29.5
q2 2 11.5 13t10.5 13l9 11q7 9 8.5 12t7 11t7.5 14l6 14l6 18l5 20q8 34 6 78.5t-14.5 90.5t-33 92.5t-49 84.5t-63 66.5t-75 38t-84.5 -1.5q-16 -4 -47 -24q-46 -64 -77 -145q27 -100 42 -186q73 -6 230 1l-44 -44q-124 -6 -179 -4q28 -208 -25 -321l-44 -44q-4 -1 -13 -6
t-13.5 -6.5t-12.5 0.5q-24 14 -34.5 95.5t-10.5 131.5q1 83 13 160l-10 -10q-30 0 -106 6z" />
    <glyph glyph-name="Ntilde" unicode="&#xd1;" horiz-adv-x="556" 
d="M164 728l-32 -32l17 36l44 44q12 -3 43 -12t42 -11.5t34.5 -5.5t38 0.5t35.5 12t42 23.5l-44 -44q-15 -11 -30 -18l-26 -12q-11 -5 -28 -5.5t-24 -1.5t-27 3.5t-25 5.5t-30 8.5t-30 8.5zM89 8q-3 53 -2 182t-4 195q-79 153 -58 248l44 44q48 -90 58 -248
q89 -171 262 -355q-9 106 -10 203.5t19 202t63 189.5l6 6l18 18q-4 -1 -18 -18l18 18l20 20q3 3 9 10.5t11 11.5t11 3q5 -1 10.5 -11.5t9.5 -26.5l6 -32q3 -14 5 -29.5t3 -17.5l-44 -44q0 1 -4 22l-6 37q-3 17 -9 34.5t-12 22.5q-34 -74 -52 -159.5t-19.5 -176t3.5 -168
t17 -171.5l-44 -44q-62 60 -136.5 148.5t-132.5 180.5q0 -25 -0.5 -82t0 -96t2.5 -73z" />
    <glyph glyph-name="Ograve" unicode="&#xd2;" horiz-adv-x="565" 
d="M390 139l30 40q20 25 26.5 34t18 28t20 37.5t19.5 46.5q15 39 23 83.5t7.5 92.5t-20 88.5t-57.5 60.5l-3 -3l-17 11q-9 3 -19 5q-13 3 -27.5 3t-32 -1.5t-27.5 -1.5l23 23q-45 1 -118 -51q-130 -148 -155 -313q-7 -47 -5 -90q1 -44 13 -86t37 -66.5t66 -30.5q40 -6 98 20
q46 21 89 59l-19 -19l-26 -27l-24 -19q-16 -13 -30 -21q-15 -9 -34 -17q-40 -17 -74 -19q-33 -3 -56 7t-40.5 30.5t-26.5 47.5t-13.5 59t-3.5 64q0 31 5 64q15 101 63 184q47 84 126 165l44 44q45 34 74.5 47.5t62.5 10.5t73 -27q47 -15 71.5 -55.5t26.5 -91t-6 -98
t-24 -88.5q-11 -28 -19.5 -47t-20 -37.5t-18.5 -27.5l-26 -35l-30 -39zM234 795l44 44q25 -7 71.5 -16.5t64.5 -14.5l-44 -44q-18 5 -64.5 14.5t-71.5 16.5zM379 128l7 7q-3 -2 -7 -7z" />
    <glyph glyph-name="Oacute" unicode="&#xd3;" horiz-adv-x="565" 
d="M390 139l30 40q20 25 26.5 34t18 28t20 37.5t19.5 46.5q15 39 23 83.5t7.5 92.5t-20 88.5t-57.5 60.5l-3 -3l-17 11q-9 3 -19 5q-13 3 -27.5 3t-32 -1.5t-27.5 -1.5l23 23q-45 1 -118 -51q-130 -148 -155 -313q-7 -47 -5 -90q1 -44 13 -86t37 -66.5t66 -30.5q40 -6 98 20
q46 21 89 59l-19 -19l-26 -27l-24 -19q-16 -13 -30 -21q-15 -9 -34 -17q-40 -17 -74 -19q-33 -3 -56 7t-40.5 30.5t-26.5 47.5t-13.5 59t-3.5 64q0 31 5 64q15 101 63 184q47 84 126 165l44 44q45 34 74.5 47.5t62.5 10.5t73 -27q47 -15 71.5 -55.5t26.5 -91t-6 -98
t-24 -88.5q-11 -28 -19.5 -47t-20 -37.5t-18.5 -27.5l-26 -35l-30 -39zM246 739l44 44q52 13 146 62l-44 -44q-94 -49 -146 -62zM379 128l7 7q-3 -2 -7 -7z" />
    <glyph glyph-name="Ocircumflex" unicode="&#xd4;" horiz-adv-x="565" 
d="M390 139l30 40q20 25 26.5 34t18 28t20 37.5t19.5 46.5q15 39 23 83.5t7.5 92.5t-20 88.5t-57.5 60.5l-3 -3l-17 11q-9 3 -19 5q-13 3 -27.5 3t-32 -1.5t-27.5 -1.5l23 23q-45 1 -118 -51q-130 -148 -155 -313q-7 -47 -5 -90q1 -44 13 -86t37 -66.5t66 -30.5q40 -6 98 20
q46 21 89 59l-19 -19l-26 -27l-24 -19q-16 -13 -30 -21q-15 -9 -34 -17q-40 -17 -74 -19q-33 -3 -56 7t-40.5 30.5t-26.5 47.5t-13.5 59t-3.5 64q0 31 5 64q15 101 63 184q47 84 126 165l44 44q45 34 74.5 47.5t62.5 10.5t73 -27q47 -15 71.5 -55.5t26.5 -91t-6 -98
t-24 -88.5q-11 -28 -19.5 -47t-20 -37.5t-18.5 -27.5l-26 -35l-30 -39zM226 724l44 44q23 16 40 26.5t34.5 16.5t28.5 8.5t29.5 1t30 -3.5t39 -7.5t46.5 -8.5l-44 -44q-19 3 -46.5 8.5t-38.5 7.5t-30 3.5t-30 -1t-28.5 -8.5t-34.5 -16.5t-40 -26.5zM379 128l7 7q-3 -2 -7 -7
z" />
    <glyph glyph-name="Otilde" unicode="&#xd5;" horiz-adv-x="565" 
d="M390 139l30 40q20 25 26.5 34t18 28t20 37.5t19.5 46.5q15 39 23 83.5t7.5 92.5t-20 88.5t-57.5 60.5l-3 -3l-17 11q-9 3 -19 5q-13 3 -27.5 3t-32 -1.5t-27.5 -1.5l23 23q-45 1 -118 -51q-130 -148 -155 -313q-7 -47 -5 -90q1 -44 13 -86t37 -66.5t66 -30.5q40 -6 98 20
q46 21 89 59l-19 -19l-26 -27l-24 -19q-16 -13 -30 -21q-15 -9 -34 -17q-40 -17 -74 -19q-33 -3 -56 7t-40.5 30.5t-26.5 47.5t-13.5 59t-3.5 64q0 31 5 64q15 101 63 184q47 84 126 165l44 44q45 34 74.5 47.5t62.5 10.5t73 -27q47 -15 71.5 -55.5t26.5 -91t-6 -98
t-24 -88.5q-11 -28 -19.5 -47t-20 -37.5t-18.5 -27.5l-26 -35l-30 -39zM258 784l-10 -27l-44 -44q4 11 8.5 21.5t4.5 12.5t3.5 7t4.5 6l9 9l14 15l44 44q29 0 65 -7t60.5 -13.5t61 -8t66.5 10.5l-44 -44q-28 -11 -63.5 -10t-59 6.5t-58.5 13t-62 8.5zM379 128l7 7
q-3 -2 -7 -7z" />
    <glyph glyph-name="Odieresis" unicode="&#xd6;" horiz-adv-x="565" 
d="M390 139l30 40q20 25 26.5 34t18 28t20 37.5t19.5 46.5q15 39 23 83.5t7.5 92.5t-20 88.5t-57.5 60.5l-3 -3l-17 11q-9 3 -19 5q-13 3 -27.5 3t-32 -1.5t-27.5 -1.5l23 23q-45 1 -118 -51q-130 -148 -155 -313q-7 -47 -5 -90q1 -44 13 -86t37 -66.5t66 -30.5q40 -6 98 20
q46 21 89 59l-19 -19l-26 -27l-24 -19q-16 -13 -30 -21q-15 -9 -34 -17q-40 -17 -74 -19q-33 -3 -56 7t-40.5 30.5t-26.5 47.5t-13.5 59t-3.5 64q0 31 5 64q15 101 63 184q47 84 126 165l44 44q45 34 74.5 47.5t62.5 10.5t73 -27q47 -15 71.5 -55.5t26.5 -91t-6 -98
t-24 -88.5q-11 -28 -19.5 -47t-20 -37.5t-18.5 -27.5l-26 -35l-30 -39zM332 783q0 -13 -9 -22t-22 -9t-22 9t-9 22t9 22t22 9t22 -9t9 -22zM537 777q0 -13 -9 -22t-22 -9t-22 9t-9 22t9 22t22 9t22 -9t9 -22zM379 128l7 7q-3 -2 -7 -7z" />
    <glyph glyph-name="multiply" unicode="&#xd7;" horiz-adv-x="447" 
d="M140 83l-44 44l49 49l49 47l18 16l-28 27q-16 14 -26 24l-28 30q-18 19 -24 26l44 44l25 -26l29 -31q9 -10 25 -25l30 -27l72 62l78 60l38 -48l-76 -60l-61 -51q24 -15 75 -44.5t76 -45.5l-44 -44q-25 17 -77 46.5t-77 45.5l-27 -25l-47 -45z" />
    <glyph glyph-name="Oslash" unicode="&#xd8;" horiz-adv-x="658" 
d="M533 523q-12 93 -76 127l-3 -3l-17 11q-9 3 -19 5q-13 3 -27.5 3t-32 -1.5t-27.5 -1.5l23 23q-45 1 -118 -51q-131 -149 -155 -313q-12 -82 2 -150q258 226 450 351zM-47 53l44 44l41 36q-13 66 -1 145q15 100 63 184q47 84 126 165l44 44q45 34 74.5 47.5t62.5 10.5
t73 -27q90 -30 98 -150q47 30 94 56l-44 -44l-49 -28q1 -84 -31 -167q-11 -28 -19.5 -47t-20 -37.5t-18.5 -27.5l-26 -35l-30 -39l-44 -44l30 40q20 25 26.5 34t18 28t20 37.5t19.5 46.5q36 93 30 183q-198 -123 -450 -341q7 -35 22.5 -61t40 -42.5t61 -15.5t82.5 21t89 59
l-19 -19l-26 -27l-24 -19q-16 -13 -30 -21q-15 -9 -34 -17q-47 -20 -84 -21q-37 0 -61.5 17t-39.5 44t-22 64zM379 128l7 7q-3 -2 -7 -7z" />
    <glyph glyph-name="Ugrave" unicode="&#xd9;" horiz-adv-x="565" 
d="M390 139l30 40q20 25 26.5 34t18 28t20 37.5t19.5 46.5q15 39 23 83.5t7.5 92.5t-20 88.5t-57.5 60.5l-3 -3l-17 11q-9 3 -19 5q-13 3 -27.5 3t-32 -1.5t-27.5 -1.5l23 23q-45 1 -118 -51q-130 -148 -155 -313q-7 -47 -5 -90q1 -44 13 -86t37 -66.5t66 -30.5q40 -6 98 20
q46 21 89 59l-19 -19l-26 -27l-24 -19q-16 -13 -30 -21q-15 -9 -34 -17q-40 -17 -74 -19q-33 -3 -56 7t-40.5 30.5t-26.5 47.5t-13.5 59t-3.5 64q0 31 5 64q15 101 63 184q47 84 126 165l44 44q45 34 74.5 47.5t62.5 10.5t73 -27q47 -15 71.5 -55.5t26.5 -91t-6 -98
t-24 -88.5q-11 -28 -19.5 -47t-20 -37.5t-18.5 -27.5l-26 -35l-30 -39zM206 784l44 44q20 -3 44.5 -5.5t42 -4t46.5 -3t43 -2.5l-44 -44q-14 1 -43 2.5t-46.5 3t-41.5 4t-45 5.5zM379 128l7 7q-3 -2 -7 -7z" />
    <glyph glyph-name="Uacute" unicode="&#xda;" 
d="M345 159q-21 -43 -48 -82l-44 -44q-90 -72 -158.5 -45.5t-88.5 145.5q-20 118 5 246t79 279l44 44l-11 -45l-7 -7q-45 -133 -64.5 -249.5t-1.5 -223.5q19 -110 79 -141t140 21q44 70 70 154q-13 109 -2.5 219t42.5 186l44 44q0 -88 -2 -142t-11 -128.5t-28 -134.5
q21 -196 91 -317l-44 -44q-59 102 -84 265zM224 718l44 44q30 9 119 51l-44 -44q-89 -41 -119 -51z" />
    <glyph glyph-name="Ucircumflex" unicode="&#xdb;" 
d="M345 159q-21 -43 -48 -82l-44 -44q-90 -72 -158.5 -45.5t-88.5 145.5q-20 118 5 246t79 279l44 44l-11 -45l-7 -7q-45 -133 -64.5 -249.5t-1.5 -223.5q19 -110 79 -141t140 21q44 70 70 154q-13 109 -2.5 219t42.5 186l44 44q0 -88 -2 -142t-11 -128.5t-28 -134.5
q21 -196 91 -317l-44 -44q-59 102 -84 265zM159 724l44 44q3 1 34.5 21t55.5 31.5t36 10.5q3 0 46.5 -18.5t67.5 -21.5l-44 -44q-24 3 -67.5 21.5t-46.5 18.5q-11 1 -35 -10.5t-56 -31t-35 -21.5z" />
    <glyph glyph-name="Udieresis" unicode="&#xdc;" 
d="M345 159q-21 -43 -48 -82l-44 -44q-90 -72 -158.5 -45.5t-88.5 145.5q-20 118 5 246t79 279l44 44l-11 -45l-7 -7q-45 -133 -64.5 -249.5t-1.5 -223.5q19 -110 79 -141t140 21q44 70 70 154q-13 109 -2.5 219t42.5 186l44 44q0 -88 -2 -142t-11 -128.5t-28 -134.5
q21 -196 91 -317l-44 -44q-59 102 -84 265zM263 750q0 -13 -9 -22t-22 -9t-22 9t-9 22t9 22t22 9t22 -9t9 -22zM401 757q0 -13 -9 -22t-22 -9t-22 9t-9 22t9 22t22 9t22 -9t9 -22z" />
    <glyph glyph-name="Yacute" unicode="&#xdd;" horiz-adv-x="530" 
d="M29 646l44 44q38 -179 84 -302q6 -16 17 -41l18 -43q7 -17 8 -17q7 0 13 3q96 205 204 328l44 44q3 3 13 12l28 22l29 24q12 10 12 9q3 -21 -91 -247l-146 -344q-4 -8 -14 -24l-18 -34q-9 -16 -18.5 -36.5t-14.5 -38t-4 -34.5t10 -28q3 -4 8.5 -6t12.5 -4t11 -3l-44 -44
q-3 2 -10.5 3.5t-13 3.5t-8.5 6q-9 11 -10 28t4 34.5t14.5 38t18.5 36.5l20 34q9 16 12 24l146 345q94 226 91 246q0 1 -17 -13l-42 -35q-96 -116 -186 -310l-44 -44q-6 -4 -16 -15.5t-19 -18t-19 -6.5l-8 17l-18 43q-11 25 -17 41q-46 123 -84 302zM196 710l44 44
q13 10 155 110l-44 -44q-142 -100 -155 -110z" />
    <glyph glyph-name="Thorn" unicode="&#xde;" horiz-adv-x="461" 
d="M404 311q26 39 27 57q1 36 -22.5 65.5t-61.5 47t-81.5 27t-86.5 7.5t-73 -14q-4 -114 2 -265l13 13q55 0 81.5 1t67 6.5t72 18.5t62.5 36zM92 718l44 44q-23 -112 -29 -247q18 16 28 22q33 20 91.5 21t114 -14t95.5 -50.5t39 -81.5q0 -6 -3 -14.5t-8 -17.5l-10 -16
q-4 -6 -11 -15.5t-8 -11.5l-44 -44q-60 -55 -122.5 -71t-158.5 -17q2 -50 7 -136l-44 -44q-17 292 -10 446q-7 -6 -11 -10l11 11q7 135 29 246z" />
    <glyph glyph-name="germandbls" unicode="&#xdf;" 
d="M117 -81q-12 87 -16 174.5t1.5 185.5t32.5 187.5t74 151.5l44 44q4 2 12 8t14.5 9.5t13.5 3.5q35 2 78 -14.5t74.5 -50t26.5 -71.5q-1 -8 -9 -21t-21 -28l-24 -28l-26 -26l-16 -17l-44 -44l-3 -2q47 11 83.5 -1.5t51.5 -46.5t-2 -90q-20 -61 -87 -130l-44 -44
q-54 -30 -94 -20.5t-78 58.5l44 44q36 -47 74.5 -57.5t88.5 14.5q37 47 52 91q14 43 6.5 76t-31.5 48.5t-57.5 19t-72.5 -12.5l44 44q7 5 14 9.5t10.5 6.5t6.5 4l4 4q3 2 4.5 3.5t7.5 6.5l11 9q60 64 63 86q5 38 -26 71.5t-74.5 50t-78.5 14.5q-7 0 -15 -5
q-40 -63 -62.5 -150t-26.5 -180t0 -176t16 -165z" />
    <glyph glyph-name="agrave" unicode="&#xe0;" horiz-adv-x="505" 
d="M237 82q47 60 73 113.5t43 120.5q-43 27 -77.5 32.5t-65.5 -6t-74 -42.5q-78 -89 -94 -170q-13 -66 18 -99t93 -7q41 17 84 58zM358 248q-29 -61 -83 -130l-44 -44q-7 -6 -22.5 -21.5t-23.5 -22.5t-21.5 -17.5t-26.5 -18.5t-28 -14q-62 -26 -93 7t-18 99q11 57 43 104
t84 102l44 44q42 31 70.5 44.5t59.5 13.5t66 -17q2 8 4 15l44 44q-4 -18 -7 -34q-3 -21 -4 -46l3 -2l-3 -3q-4 -98 15 -195.5t60 -130.5q5 -4 12 -7.5t16 -7.5t14 -6l-44 -44q-5 2 -13 6l-16 8q-7 3 -13 7q-35 28 -53.5 103.5t-21.5 163.5zM131 593l44 44q12 -24 28.5 -42
t31.5 -28t40.5 -18t41.5 -11.5t48 -8.5q11 -2 17 -3l-44 -44q-6 1 -17 3q-32 5 -48 8.5t-41.5 11.5t-40 18t-31.5 28t-29 42z" />
    <glyph glyph-name="aacute" unicode="&#xe1;" horiz-adv-x="505" 
d="M237 82q47 60 73 113.5t43 120.5q-43 27 -77.5 32.5t-65.5 -6t-74 -42.5q-78 -89 -94 -170q-13 -66 18 -99t93 -7q41 17 84 58zM358 248q-29 -61 -83 -130l-44 -44q-7 -6 -22.5 -21.5t-23.5 -22.5t-21.5 -17.5t-26.5 -18.5t-28 -14q-62 -26 -93 7t-18 99q11 57 43 104
t84 102l44 44q42 31 70.5 44.5t59.5 13.5t66 -17q2 8 4 15l44 44q-4 -18 -7 -34q-3 -21 -4 -46l3 -2l-3 -3q-4 -98 15 -195.5t60 -130.5q5 -4 12 -7.5t16 -7.5t14 -6l-44 -44q-5 2 -13 6l-16 8q-7 3 -13 7q-35 28 -53.5 103.5t-21.5 163.5zM176 488l44 44q82 33 220 122
l-44 -44q-138 -89 -220 -122z" />
    <glyph glyph-name="acircumflex" unicode="&#xe2;" horiz-adv-x="505" 
d="M237 82q47 60 73 113.5t43 120.5q-43 27 -77.5 32.5t-65.5 -6t-74 -42.5q-78 -89 -94 -170q-13 -66 18 -99t93 -7q41 17 84 58zM358 248q-29 -61 -83 -130l-44 -44q-7 -6 -22.5 -21.5t-23.5 -22.5t-21.5 -17.5t-26.5 -18.5t-28 -14q-62 -26 -93 7t-18 99q11 57 43 104
t84 102l44 44q42 31 70.5 44.5t59.5 13.5t66 -17q2 8 4 15l44 44q-4 -18 -7 -34q-3 -21 -4 -46l3 -2l-3 -3q-4 -98 15 -195.5t60 -130.5q5 -4 12 -7.5t16 -7.5t14 -6l-44 -44q-5 2 -13 6l-16 8q-7 3 -13 7q-35 28 -53.5 103.5t-21.5 163.5zM146 475l44 44l17 12l35 40l5 5
l18 18l21 21q3 3 8 9l10 10q5 5 11 6q16 3 38.5 -13t49 -42.5t34.5 -32.5l-44 -44q-8 6 -34.5 33t-49 42.5t-38.5 12.5h-1q-30 -35 -53 -59l-44 -44z" />
    <glyph glyph-name="atilde" unicode="&#xe3;" horiz-adv-x="505" 
d="M237 82q47 60 73 113.5t43 120.5q-43 27 -77.5 32.5t-65.5 -6t-74 -42.5q-78 -89 -94 -170q-13 -66 18 -99t93 -7q41 17 84 58zM358 248q-29 -61 -83 -130l-44 -44q-7 -6 -22.5 -21.5t-23.5 -22.5t-21.5 -17.5t-26.5 -18.5t-28 -14q-62 -26 -93 7t-18 99q11 57 43 104
t84 102l44 44q42 31 70.5 44.5t59.5 13.5t66 -17q2 8 4 15l44 44q-4 -18 -7 -34q-3 -21 -4 -46l3 -2l-3 -3q-4 -98 15 -195.5t60 -130.5q5 -4 12 -7.5t16 -7.5t14 -6l-44 -44q-5 2 -13 6l-16 8q-7 3 -13 7q-35 28 -53.5 103.5t-21.5 163.5zM376 514q-32 -20 -64 -20.5
t-54 10t-53.5 22t-58.5 11.5q-1 -22 -1 -27l-44 -44q1 10 1 20v12q0 1 2 6t3.5 6t8.5 10l12 16l44 44q30 4 63 -6t55 -21.5t54.5 -15t62.5 13.5q1 2 1.5 6t2.5 12l4 16l44 44l-5 -19q-2 -11 -2 -12.5t-3 -6.5t-5 -6.5t-9 -9.5l-15 -17z" />
    <glyph glyph-name="adieresis" unicode="&#xe4;" horiz-adv-x="505" 
d="M237 82q47 60 73 113.5t43 120.5q-43 27 -77.5 32.5t-65.5 -6t-74 -42.5q-78 -89 -94 -170q-13 -66 18 -99t93 -7q41 17 84 58zM358 248q-29 -61 -83 -130l-44 -44q-7 -6 -22.5 -21.5t-23.5 -22.5t-21.5 -17.5t-26.5 -18.5t-28 -14q-62 -26 -93 7t-18 99q11 57 43 104
t84 102l44 44q42 31 70.5 44.5t59.5 13.5t66 -17q2 8 4 15l44 44q-4 -18 -7 -34q-3 -21 -4 -46l3 -2l-3 -3q-4 -98 15 -195.5t60 -130.5q5 -4 12 -7.5t16 -7.5t14 -6l-44 -44q-5 2 -13 6l-16 8q-7 3 -13 7q-35 28 -53.5 103.5t-21.5 163.5zM248 555q0 -13 -9 -22t-22 -9
t-22 9t-9 22t9 22t22 9t22 -9t9 -22zM423 549q0 -13 -9 -22t-22 -9t-22 9t-9 22t9 22t22 9t22 -9t9 -22z" />
    <glyph glyph-name="aring" unicode="&#xe5;" horiz-adv-x="505" 
d="M237 82q47 60 73 113.5t43 120.5q-43 27 -77.5 32.5t-65.5 -6t-74 -42.5q-78 -89 -94 -170q-13 -66 18 -99t93 -7q41 17 84 58zM358 248q-29 -61 -83 -130l-44 -44q-7 -6 -22.5 -21.5t-23.5 -22.5t-21.5 -17.5t-26.5 -18.5t-28 -14q-62 -26 -93 7t-18 99q11 57 43 104
t84 102l44 44q42 31 70.5 44.5t59.5 13.5t66 -17q2 8 4 15l44 44q-4 -18 -7 -34q-3 -21 -4 -46l3 -2l-3 -3q-4 -98 15 -195.5t60 -130.5q5 -4 12 -7.5t16 -7.5t14 -6l-44 -44q-5 2 -13 6l-16 8q-7 3 -13 7q-35 28 -53.5 103.5t-21.5 163.5zM308 514q6 10 9 19q7 20 -4 55
t-32 37q-4 1 -9 0l-12 -12l-11 -4q-10 -32 -8.5 -59t17 -39.5t50.5 3.5zM290 485q-74 -50 -90.5 2t20.5 112l19 19l-24 -7l44 44q7 1 20.5 5.5t24.5 7t21 1.5q21 -3 32 -37.5t4 -54.5q-3 -8 -7.5 -16t-10.5 -17l-9 -15z" />
    <glyph glyph-name="ae" unicode="&#xe6;" horiz-adv-x="776" 
d="M442 397q-58 -78 -67 -154q10 -190 133 -113q59 72 82 126q66 153 26 194q-39 42 -174 -53zM464 425q73 55 123 73t71 -0.5t16 -69.5q-6 -49 -40 -128q-12 -28 -32 -59q-21 -31 -34 -47l-42 -52l-44 -44q-24 -18 -45 -26q42 -28 106.5 -35.5t117.5 4.5q16 3 29 6.5
t27 9.5t21.5 9.5t25.5 13.5l26 13l-44 -44l-26 -13q-18 -10 -25.5 -13.5t-21.5 -9.5t-27 -9.5t-29 -6.5q-37 -6 -74 -6.5t-74.5 7.5t-66.5 24.5t-49 46.5t-23 71q-2 31 1 59q-1 14 -1 31q-28 -48 -63 -93l-44 -44q64 83 107 175q0 71 10 89q5 8 12 16t16.5 16.5t14.5 13.5
l6 6l31 31q-26 -25 -31 -31l31 31l7 7q-20 -61 -43 -114q15 22 36 48zM377 402q-18 14 -35 21.5t-30.5 10t-30.5 -3t-27 -9.5t-28 -18t-26 -21l-27 -26q-2 -2 -13.5 -15t-13.5 -15l-11 -14q-9 -11 -12 -15l-10 -14l-11 -16q-4 -6 -10 -16l-10 -19q-4 -9 -10 -21
q-14 -31 -22 -58q-7 -28 -7.5 -55t11.5 -43t37.5 -20.5t69.5 12.5q22 8 62 46l-15 -15l-22 -22q-10 -10 -23 -21.5t-25 -20t-21 -11.5q-44 -17 -69.5 -12.5t-37.5 20.5t-11.5 43t8.5 55.5t21 57.5q10 22 19.5 39t22.5 34.5l20 26.5l27 31l28 33l44 44q11 9 31.5 28.5
t31.5 29t29.5 22.5t32.5 16.5t32 5t36.5 -6.5t38.5 -24z" />
    <glyph glyph-name="ccedilla" unicode="&#xe7;" horiz-adv-x="315" 
d="M282 357q6 40 0 66.5t-20 37t-34.5 11t-43.5 -9.5t-47 -27q-18 -22 -26 -33t-18 -30t-20 -48q-20 -56 -27 -108q-6 -54 -0.5 -98.5t26.5 -75t52.5 -42t81 3.5t108.5 59l-44 -44q-56 -41 -104 -57q10 -8 25.5 -18t23.5 -16t15 -18.5t9 -29.5l-44 -44q-45 -28 -83 -39
t-92 -11l44 44q74 0 128 24q-5 16 -16.5 26.5t-31 22t-32.5 24.5l28 28q-51 -10 -85 15t-46.5 72t-7.5 109.5t28 128.5q7 21 13 35t15.5 28.5t13.5 20t20 25t22 27.5l44 44q32 28 65 42.5t59 12.5t39 -31t6 -83z" />
    <glyph glyph-name="egrave" unicode="&#xe8;" horiz-adv-x="450" 
d="M130 399q-35 -39 -58 -89q-22 -48 -27 -87l9 9q123 -3 216 59q14 21 17 39q8 47 -28.5 79t-82.5 17q-11 -4 -46 -27zM317 90q-25 -21 -49.5 -38t-55 -34.5t-56.5 -26.5t-53 -9.5t-47 12t-35 42.5t-20 77q-8 77 27 153q9 19 16 32t17 26.5t15 19.5l22 24l23 25l44 44
l17 11q11 8 20 13.5t18 8.5q45 15 82 -17.5t29 -78.5q-2 -9 -6 -18.5t-7 -14.5t-11 -16t-10 -14l-44 -44q-89 -73 -210 -79q0 -15 2 -31q5 -44 18 -73.5t31.5 -42.5t42.5 -15t48.5 4.5t53 21t52 30t48.5 35.5q58 71 81 94l44 44l-34 -37l-38 -46l-31 -38zM124 632l44 44
q18 -46 50 -60.5t84 -3.5l-44 -44q-51 -11 -83.5 3.5t-50.5 60.5z" />
    <glyph glyph-name="eacute" unicode="&#xe9;" horiz-adv-x="450" 
d="M130 399q-35 -39 -58 -89q-22 -48 -27 -87l9 9q123 -3 216 59q14 21 17 39q8 47 -28.5 79t-82.5 17q-11 -4 -46 -27zM317 90q-25 -21 -49.5 -38t-55 -34.5t-56.5 -26.5t-53 -9.5t-47 12t-35 42.5t-20 77q-8 77 27 153q9 19 16 32t17 26.5t15 19.5l22 24l23 25l44 44
l17 11q11 8 20 13.5t18 8.5q45 15 82 -17.5t29 -78.5q-2 -9 -6 -18.5t-7 -14.5t-11 -16t-10 -14l-44 -44q-89 -73 -210 -79q0 -15 2 -31q5 -44 18 -73.5t31.5 -42.5t42.5 -15t48.5 4.5t53 21t52 30t48.5 35.5q58 71 81 94l44 44l-34 -37l-38 -46l-31 -38zM128 527l44 44
q42 4 64.5 11t44.5 25q2 3 5.5 7t4 5t3 3.5t2.5 3t2 4t3.5 5.5t4.5 7l6 11l44 44l-8 -13q-4 -7 -5 -9t-3 -5t-3.5 -5t-4.5 -5l-8 -10q-5 -6 -11 -14l-44 -44q-38 -37 -62.5 -48.5t-78.5 -16.5z" />
    <glyph glyph-name="ecircumflex" unicode="&#xea;" horiz-adv-x="450" 
d="M130 399q-35 -39 -58 -89q-22 -48 -27 -87l9 9q123 -3 216 59q14 21 17 39q8 47 -28.5 79t-82.5 17q-11 -4 -46 -27zM317 90q-25 -21 -49.5 -38t-55 -34.5t-56.5 -26.5t-53 -9.5t-47 12t-35 42.5t-20 77q-8 77 27 153q9 19 16 32t17 26.5t15 19.5l22 24l23 25l44 44
l17 11q11 8 20 13.5t18 8.5q45 15 82 -17.5t29 -78.5q-2 -9 -6 -18.5t-7 -14.5t-11 -16t-10 -14l-44 -44q-89 -73 -210 -79q0 -15 2 -31q5 -44 18 -73.5t31.5 -42.5t42.5 -15t48.5 4.5t53 21t52 30t48.5 35.5q58 71 81 94l44 44l-34 -37l-38 -46l-31 -38zM81 510l44 44
l25 22l35 32q10 9 25.5 18.5t20 11t19 -0.5t22.5 -6l31 -14q38 -18 65 -29l-44 -44q-27 11 -65 29l-31 14q-8 4 -22 6t-19 0.5t-20.5 -11t-25.5 -18.5l-35 -32z" />
    <glyph glyph-name="edieresis" unicode="&#xeb;" horiz-adv-x="450" 
d="M130 399q-35 -39 -58 -89q-22 -48 -27 -87l9 9q123 -3 216 59q14 21 17 39q8 47 -28.5 79t-82.5 17q-11 -4 -46 -27zM317 90q-25 -21 -49.5 -38t-55 -34.5t-56.5 -26.5t-53 -9.5t-47 12t-35 42.5t-20 77q-8 77 27 153q9 19 16 32t17 26.5t15 19.5l22 24l23 25l44 44
l17 11q11 8 20 13.5t18 8.5q45 15 82 -17.5t29 -78.5q-2 -9 -6 -18.5t-7 -14.5t-11 -16t-10 -14l-44 -44q-89 -73 -210 -79q0 -15 2 -31q5 -44 18 -73.5t31.5 -42.5t42.5 -15t48.5 4.5t53 21t52 30t48.5 35.5q58 71 81 94l44 44l-34 -37l-38 -46l-31 -38zM162 560
q0 -13 -9 -22t-22 -9t-22 9t-9 22t9 22t22 9t22 -9t9 -22zM299 565q0 -13 -9 -22t-22 -9t-22 9t-9 22t9 22t22 9t22 -9t9 -22z" />
    <glyph glyph-name="igrave" unicode="&#xec;" horiz-adv-x="261" 
d="M175 27q-6 -3 -17.5 -10t-21 -11.5t-18.5 -5.5q-27 -2 -46.5 20t-30 60t-16.5 80t-7.5 87t-1 73t1.5 46q1 8 1 15l-3 -3q3 54 30 138l44 44q-2 -8 -7 -30l-7 -31q-3 -10 -6 -27t-5 -31.5t-3 -30.5q-1 -18 -1.5 -46t0.5 -73t7.5 -87t17 -80t30 -60t46.5 -20q13 1 30 11
q10 17 39 57l44 44l-15 -20q-8 -11 -8.5 -12t-5 -7.5t-5.5 -8.5t-8 -14l-14 -23zM-22 672l44 44l36 -14l38 -14q15 -5 35 -13.5t37 -16.5l-44 -44q-21 11 -43 20t-58 22t-45 16z" />
    <glyph glyph-name="iacute" unicode="&#xed;" horiz-adv-x="261" 
d="M175 27q-6 -3 -17.5 -10t-21 -11.5t-18.5 -5.5q-27 -2 -46.5 20t-30 60t-16.5 80t-7.5 87t-1 73t1.5 46q1 8 1 15l-3 -3q3 54 30 138l44 44q-2 -8 -7 -30l-7 -31q-3 -10 -6 -27t-5 -31.5t-3 -30.5q-1 -18 -1.5 -46t0.5 -73t7.5 -87t17 -80t30 -60t46.5 -20q13 1 30 11
q10 17 39 57l44 44l-15 -20q-8 -11 -8.5 -12t-5 -7.5t-5.5 -8.5t-8 -14l-14 -23zM-15 594l44 44q35 13 97 45l74 38l-44 -44l-74 -38q-62 -32 -97 -45z" />
    <glyph glyph-name="icircumflex" unicode="&#xee;" horiz-adv-x="261" 
d="M175 27q-6 -3 -17.5 -10t-21 -11.5t-18.5 -5.5q-27 -2 -46.5 20t-30 60t-16.5 80t-7.5 87t-1 73t1.5 46q1 8 1 15l-3 -3q3 54 30 138l44 44q-2 -8 -7 -30l-7 -31q-3 -10 -6 -27t-5 -31.5t-3 -30.5q-1 -18 -1.5 -46t0.5 -73t7.5 -87t17 -80t30 -60t46.5 -20q13 1 30 11
q10 17 39 57l44 44l-15 -20q-8 -11 -8.5 -12t-5 -7.5t-5.5 -8.5t-8 -14l-14 -23zM-39 582l44 44l22 20q15 13 20 17t16.5 11.5t18 7.5t18 -0.5t23.5 -6t28 -15.5l-44 -44q-16 10 -28 15.5t-23.5 6t-18 0.5t-18 -7.5t-16.5 -11.5t-19 -17z" />
    <glyph glyph-name="idieresis" unicode="&#xef;" horiz-adv-x="261" 
d="M175 27q-6 -3 -17.5 -10t-21 -11.5t-18.5 -5.5q-27 -2 -46.5 20t-30 60t-16.5 80t-7.5 87t-1 73t1.5 46q1 8 1 15l-3 -3q3 54 30 138l44 44q-2 -8 -7 -30l-7 -31q-3 -10 -6 -27t-5 -31.5t-3 -30.5q-1 -18 -1.5 -46t0.5 -73t7.5 -87t17 -80t30 -60t46.5 -20q13 1 30 11
q10 17 39 57l44 44l-15 -20q-8 -11 -8.5 -12t-5 -7.5t-5.5 -8.5t-8 -14l-14 -23zM52 643q0 -13 -9 -22t-22 -9t-22 9t-9 22t9 22t22 9t22 -9t9 -22zM157 644q0 -13 -9 -22t-22 -9t-22 9t-9 22t9 22t22 9t22 -9t9 -22z" />
    <glyph glyph-name="eth" unicode="&#xf0;" horiz-adv-x="414" 
d="M98 339q-19 -24 -26.5 -35t-16 -32.5t-13.5 -50.5q-8 -49 10 -101t53.5 -88t84.5 -51t102 10q7 3 16 9q126 179 -18 426q-52 -9 -96 -29t-96 -58zM1 511l44 44l118 47l-84 98l44 44q66 -75 101 -118l176 71l-44 -44l-117 -47q58 -73 95 -136q40 7 94 9l-44 -44
q-16 0 -30 -1q122 -238 -18 -410l-44 -44q-5 -4 -13.5 -11.5t-16 -13t-14.5 -8.5q-53 -25 -102 -10t-84.5 51t-53.5 88t-10 101q4 21 8 36.5t12 30t14 22.5l20 26l22 29l44 44q87 67 155 90q-38 59 -93 128z" />
    <glyph glyph-name="ntilde" unicode="&#xf1;" horiz-adv-x="386" 
d="M203 597q-21 -5 -45 -7.5t-39 -3t-46 -1t-42 -0.5l-27 -27l24 27l44 44h38q26 0 41.5 0.5t36.5 2t40 5.5q0 14 1 23l44 44q-1 -9 -1.5 -18.5t0 -11t-1.5 -6t-3.5 -5.5t-7.5 -8l-12 -14zM38 479l44 44q-1 -36 -3.5 -109t-2.5 -110v-56q27 70 73 132l44 44q2 1 7 6l10 10
q5 5 12.5 9.5t13.5 6.5t13 1.5t13 -4.5q10 -8 16 -74.5t8.5 -142t14 -141.5t31.5 -73q14 -3 22 -3t23 3t23 3l-44 -44q-7 0 -22.5 -2.5t-23 -3t-22.5 2.5q-20 7 -31.5 73t-14 141.5t-8.5 142t-16 74.5q-15 12 -38 -2q-23 -34 -40.5 -72t-27.5 -64.5t-20 -76t-13 -70.5
l-12 -83l-44 -44q7 39 9 80.5t1 101.5t-1 81q1 37 3.5 110t2.5 109z" />
    <glyph glyph-name="ograve" unicode="&#xf2;" horiz-adv-x="347" 
d="M179 418q49 9 102 35q-36 8 -102 -35zM159 415q63 52 107.5 71.5t66 8t26.5 -45.5t-7 -86q-12 -51 -38 -116l-17 -40q-7 -15 -16.5 -30.5t-13.5 -21t-21 -26.5l-26 -33l-44 -44q-82 -73 -126 -51t-41 138q2 89 36 166t96 157l44 44l40 26l-44 -44l-19 -12
q-105 -146 -109 -293q-3 -107 34 -134t107 26q3 3 7 9q26 32 37.5 51.5t31.5 67.5q36 88 44.5 150.5t-14.5 88.5l-1 -1l-62 -32q-22 -11 -55 -22t-67 -16zM128 625l44 44q52 -19 106 -29l-44 -44q-54 11 -106 29z" />
    <glyph glyph-name="oacute" unicode="&#xf3;" horiz-adv-x="350" 
d="M179 418q49 9 102 35q-36 8 -102 -35zM159 415q63 52 107.5 71.5t66 8t26.5 -45.5t-7 -86q-12 -51 -38 -116l-17 -40q-7 -15 -16.5 -30.5t-13.5 -21t-21 -26.5l-26 -33l-44 -44q-82 -73 -126 -51t-41 138q2 89 36 166t96 157l44 44l40 26l-44 -44l-19 -12
q-105 -146 -109 -293q-3 -107 34 -134t107 26q3 3 7 9q26 32 37.5 51.5t31.5 67.5q36 88 44.5 150.5t-14.5 88.5l-1 -1l-62 -32q-22 -11 -55 -22t-67 -16zM149 557l44 44q27 10 55 23l63 32q36 19 53 27l-44 -44q-17 -8 -53 -27l-63 -32q-28 -13 -55 -23z" />
    <glyph glyph-name="ocircumflex" unicode="&#xf4;" horiz-adv-x="358" 
d="M179 418q49 9 102 35q-36 8 -102 -35zM159 415q63 52 107.5 71.5t66 8t26.5 -45.5t-7 -86q-12 -51 -38 -116l-17 -40q-7 -15 -16.5 -30.5t-13.5 -21t-21 -26.5l-26 -33l-44 -44q-82 -73 -126 -51t-41 138q2 89 36 166t96 157l44 44l40 26l-44 -44l-19 -12
q-105 -146 -109 -293q-3 -107 34 -134t107 26q3 3 7 9q26 32 37.5 51.5t31.5 67.5q36 88 44.5 150.5t-14.5 88.5l-1 -1l-62 -32q-22 -11 -55 -22t-67 -16zM88 544l44 44q8 5 38 30l56 46q28 21 36 23q12 3 33 -10q14 -8 39 -28t38 -28l-44 -44q-13 8 -38 28t-39 28
q-21 13 -33 10q-8 -2 -35 -23l-57 -46q-30 -25 -38 -30z" />
    <glyph glyph-name="otilde" unicode="&#xf5;" horiz-adv-x="386" 
d="M179 418q49 9 102 35q-36 8 -102 -35zM159 415q63 52 107.5 71.5t66 8t26.5 -45.5t-7 -86q-12 -51 -38 -116l-17 -40q-7 -15 -16.5 -30.5t-13.5 -21t-21 -26.5l-26 -33l-44 -44q-82 -73 -126 -51t-41 138q2 89 36 166t96 157l44 44l40 26l-44 -44l-19 -12
q-105 -146 -109 -293q-3 -107 34 -134t107 26q3 3 7 9q26 32 37.5 51.5t31.5 67.5q36 88 44.5 150.5t-14.5 88.5l-1 -1l-62 -32q-22 -11 -55 -22t-67 -16zM137 599l-36 -36l8 30l44 44q36 10 60.5 7.5t48 -8t42 -11t43.5 0.5t53 26l-44 -44q-31 -22 -59.5 -26.5t-48 2.5
t-50.5 13.5t-61 1.5z" />
    <glyph glyph-name="odieresis" unicode="&#xf6;" horiz-adv-x="347" 
d="M179 418q49 9 102 35q-36 8 -102 -35zM159 415q63 52 107.5 71.5t66 8t26.5 -45.5t-7 -86q-12 -51 -38 -116l-17 -40q-7 -15 -16.5 -30.5t-13.5 -21t-21 -26.5l-26 -33l-44 -44q-82 -73 -126 -51t-41 138q2 89 36 166t96 157l44 44l40 26l-44 -44l-19 -12
q-105 -146 -109 -293q-3 -107 34 -134t107 26q3 3 7 9q26 32 37.5 51.5t31.5 67.5q36 88 44.5 150.5t-14.5 88.5l-1 -1l-62 -32q-22 -11 -55 -22t-67 -16zM204 629q0 -13 -9 -22t-22 -9t-22 9t-9 22t9 22t22 9t22 -9t9 -22zM346 638q0 -13 -9 -22t-22 -9t-22 9t-9 22t9 22
t22 9t22 -9t9 -22z" />
    <glyph glyph-name="divide" unicode="&#xf7;" horiz-adv-x="575" 
d="M235 393l44 44q6 -5 15 -14v1q-1 13 -3 15t-15 -3l-33 -9l44 44q11 2 21.5 5.5t14.5 4.5t8 2.5t4.5 -1.5t1.5 -5.5t1 -12.5t1 -18l-44 -44q-8 -7 -15 -14t-10 -9.5t-5.5 -5.5t-5 -1t-4.5 3t-8 7t-12 11zM243 60l44 44q-2 -9 -5 -18.5t-4 -11t1 -3.5t4.5 0t12 5.5
t19.5 6.5l-44 -44q-8 -2 -15 -5l-12 -4q-3 -2 -6 -2.5t-3.5 -0.5t-0.5 2.5t1.5 5.5t3.5 11zM45 225l44 44q18 -1 63 -3t63.5 -2t62.5 2q46 4 150 21t161 20l-44 -44q-57 -3 -161 -20t-150 -21q-44 -2 -62.5 -2t-63.5 2.5t-63 2.5z" />
    <glyph glyph-name="oslash" unicode="&#xf8;" horiz-adv-x="428" 
d="M302 294q-105 -58 -249 -145q4 -85 40.5 -103.5t100.5 29.5q3 3 7 9q26 32 37.5 51.5t31.5 67.5q20 49 32 91zM179 418q49 9 102 35q-36 8 -102 -35zM-67 75l44 44l32 20q2 89 36 166t96 157l44 44l40 26l-44 -44l-19 -12q-105 -146 -109 -293v-18l255 152q22 95 -8 125
l-1 -1l-62 -32q-22 -11 -55 -22t-67 -16l44 44q54 44 94 64.5t63.5 18t34.5 -22.5t9.5 -55t-14.5 -82l96 52l-44 -44l-59 -32q-11 -32 -25 -67q-10 -25 -17 -40t-16.5 -30.5t-13.5 -21t-21 -26.5l-26 -33l-44 -44q-78 -70 -122 -52.5t-45 122.5z" />
    <glyph glyph-name="ugrave" unicode="&#xf9;" horiz-adv-x="312" 
d="M70 482l44 44q-16 -56 -27.5 -109.5t-24.5 -132.5t-7.5 -142.5t31.5 -93.5q3 -4 8 -7t8.5 -4l10.5 -3l10 -4q62 91 98 246q5 94 33 184l44 44q-19 -121 -34 -184q-11 -181 62 -302l-44 -44q-51 85 -61 204q-37 -92 -91 -151l-44 -44q-5 2 -15 5.5t-17 7t-12 8.5
q-26 31 -31.5 94t7.5 142t25 132.5t27 109.5zM82 632l44 44q19 -12 43.5 -24.5t40.5 -19.5l48 -19l43 -17l-44 -44l-43 18l-48 20q-15 6 -39.5 18t-44.5 24z" />
    <glyph glyph-name="uacute" unicode="&#xfa;" horiz-adv-x="336" 
d="M70 482l44 44q-16 -56 -27.5 -109.5t-24.5 -132.5t-7.5 -142.5t31.5 -93.5q3 -4 8 -7t8.5 -4l10.5 -3l10 -4q62 91 98 246q5 94 33 184l44 44q-19 -121 -34 -184q-11 -181 62 -302l-44 -44q-51 85 -61 204q-37 -92 -91 -151l-44 -44q-5 2 -15 5.5t-17 7t-12 8.5
q-26 31 -31.5 94t7.5 142t25 132.5t27 109.5zM117 574l44 44q10 2 21 5l18 5q9 3 21 8t18.5 7.5t19.5 9.5t18 9.5t19 10.5t17.5 9.5t19 11t17.5 10.5l-44 -44q-2 -1 -18 -10l-18 -11l-18 -10l-19 -11l-18 -8l-19 -10l-18 -8q-12 -5 -20 -8l-20 -5q-11 -3 -21 -5z" />
    <glyph glyph-name="ucircumflex" unicode="&#xfb;" horiz-adv-x="347" 
d="M70 482l44 44q-16 -56 -27.5 -109.5t-24.5 -132.5t-7.5 -142.5t31.5 -93.5q3 -4 8 -7t8.5 -4l10.5 -3l10 -4q62 91 98 246q5 94 33 184l44 44q-19 -121 -34 -184q-11 -181 62 -302l-44 -44q-51 85 -61 204q-37 -92 -91 -151l-44 -44q-5 2 -15 5.5t-17 7t-12 8.5
q-26 31 -31.5 94t7.5 142t25 132.5t27 109.5zM63 572l44 44q29 6 61 27.5t43 25.5q14 5 41.5 -3t64.5 -24t44 -18l-44 -44q-7 2 -43.5 18t-64.5 24t-42 3q-11 -4 -43 -25t-61 -28z" />
    <glyph glyph-name="udieresis" unicode="&#xfc;" horiz-adv-x="312" 
d="M70 482l44 44q-16 -56 -27.5 -109.5t-24.5 -132.5t-7.5 -142.5t31.5 -93.5q3 -4 8 -7t8.5 -4l10.5 -3l10 -4q62 91 98 246q5 94 33 184l44 44q-19 -121 -34 -184q-11 -181 62 -302l-44 -44q-51 85 -61 204q-37 -92 -91 -151l-44 -44q-5 2 -15 5.5t-17 7t-12 8.5
q-26 31 -31.5 94t7.5 142t25 132.5t27 109.5zM137 632q0 -13 -9 -22t-22 -9t-22 9t-9 22t9 22t22 9t22 -9t9 -22zM290 640q0 -13 -9 -22t-22 -9t-22 9t-9 22t9 22t22 9t22 -9t9 -22z" />
    <glyph glyph-name="yacute" unicode="&#xfd;" horiz-adv-x="403" 
d="M338 362q-66 -100 -103 -268q14 2 39 14q61 83 88 205q1 5 5.5 16t5 15.5t-2.5 13.5q-6 8 -32 4zM48 405l44 44q-2 -8 -7.5 -21.5t-8.5 -25t-3 -22.5q-1 -58 41 -156.5t89 -124.5q43 167 123 262l44 44q5 0 15 1.5t17.5 1t11.5 -5.5q3 -9 2.5 -13.5t-5 -16t-5.5 -15.5
q-33 -147 -119 -242l-44 -44q-3 -1 -14 -7l-4 -18q-3 -14 -10.5 -57t-11.5 -61.5t-15 -49t-26 -56.5l-44 -44q-28 -16 -55.5 -16.5t-52.5 13.5t-44.5 31.5t-41.5 43.5l44 44q89 -106 167 -84q9 22 16.5 47.5t10.5 44.5l10 51l9 49l10 48q-15 -3 -28 3q-32 15 -64.5 70.5
t-51.5 116t-18 96.5q0 11 3.5 22.5t8.5 25t7 21.5zM131 516l44 44q23 9 46 19t50 23l42 22l49 26l44 24l-44 -44q-10 -6 -43.5 -24l-48.5 -26l-43 -21q-27 -14 -50 -24t-46 -19z" />
    <glyph glyph-name="thorn" unicode="&#xfe;" horiz-adv-x="380" 
d="M289 108q40 51 51 86q12 42 8.5 78.5t-24 62t-47.5 39t-62.5 11t-69.5 -22.5q-31 -48 -31 -113l-2 -2v-9q1 -41 8 -149q39 -18 67 -20.5t49.5 6.5t52.5 33zM67 675l44 44q0 -34 -1 -194.5t0 -194.5l11 14l44 44q29 24 61.5 34t60 5.5t51.5 -19.5t37.5 -41t17.5 -58
t-9 -71q-5 -15 -14.5 -32t-14 -24t-21.5 -29t-19 -24l-44 -44q-50 -41 -79.5 -54t-68.5 -4q7 -145 -5 -239l-44 -44q14 104 2 301l-3 1l3 3q-7 102 -8 145q-2 77 -2 150q0 79 0.5 181t0.5 150z" />
    <glyph glyph-name="ydieresis" unicode="&#xff;" horiz-adv-x="403" 
d="M338 362q-66 -100 -103 -268q14 2 39 14q61 83 88 205q1 5 5.5 16t5 15.5t-2.5 13.5q-6 8 -32 4zM48 405l44 44q-2 -8 -7.5 -21.5t-8.5 -25t-3 -22.5q-1 -58 41 -156.5t89 -124.5q43 167 123 262l44 44q5 0 15 1.5t17.5 1t11.5 -5.5q3 -9 2.5 -13.5t-5 -16t-5.5 -15.5
q-33 -147 -119 -242l-44 -44q-3 -1 -14 -7l-4 -18q-3 -14 -10.5 -57t-11.5 -61.5t-15 -49t-26 -56.5l-44 -44q-28 -16 -55.5 -16.5t-52.5 13.5t-44.5 31.5t-41.5 43.5l44 44q89 -106 167 -84q9 22 16.5 47.5t10.5 44.5l10 51l9 49l10 48q-15 -3 -28 3q-32 15 -64.5 70.5
t-51.5 116t-18 96.5q0 11 3.5 22.5t8.5 25t7 21.5zM213 530q0 -13 -9 -22t-22 -9t-22 9t-9 22t9 22t22 9t22 -9t9 -22zM338 529q0 -13 -9 -22t-22 -9t-22 9t-9 22t9 22t22 9t22 -9t9 -22z" />
    <glyph glyph-name="Amacron" unicode="&#x100;" horiz-adv-x="509" 
d="M454 71q12 51 -6 196.5t-38 211.5q-11 36 -40 99.5t-49 67.5q-34 6 -61 -14q-120 -156 -180 -391q58 11 117.5 -15.5t136.5 -85.5q9 -7 25.5 -22.5t30.5 -26.5t29 -16q11 -4 35 -4zM-61 152q-1 -2 -3 -5.5t-3 -5.5l-3 -5q-1 -3 -1.5 -5t-0.5 -4.5t1 -4t3 -2.5
q35 -20 85 -8l1 4q8 41 18 82q-48 -9 -97 -46zM153 -98q-9 -1 -23.5 -4.5t-24.5 -5.5t-22.5 -2t-22.5 5q-73 35 -48 185q-78 -31 -124 -4q-5 2 -4 8t4 10l6 12q4 8 5 12l44 44q52 50 102 70q65 228 187 375l44 44q5 4 12 10.5t10.5 9.5t10.5 8t11.5 6.5t12.5 4.5t14.5 1.5
t17.5 -1.5q20 -4 49 -67.5t40 -99.5q20 -68 38 -215q19 -148 5 -196q-2 -7 -6 -14t-10 -15l-9 -12l-44 -44q-10 1 -18 0.5t-18 0t-17 3.5q-15 5 -29 16t-30 26.5t-26 22.5q-66 51 -118 77.5t-102 26.5l-8 -40q-6 -30 -7 -36q14 5 37 16t31 14l-44 -44q-8 -3 -27 -12
q-16 -126 52 -159q10 -5 22.5 -5t22.5 2t24.5 5.5t23.5 4.5zM140 719l44 44q51 -1 103 2.5t133.5 13.5t102.5 12l-44 -44q-21 -2 -102.5 -11.5t-133.5 -13.5t-103 -3z" />
    <glyph glyph-name="amacron" unicode="&#x101;" horiz-adv-x="505" 
d="M237 82q47 60 73 113.5t43 120.5q-43 27 -77.5 32.5t-65.5 -6t-74 -42.5q-78 -89 -94 -170q-13 -66 18 -99t93 -7q41 17 84 58zM358 248q-29 -61 -83 -130l-44 -44q-7 -6 -22.5 -21.5t-23.5 -22.5t-21.5 -17.5t-26.5 -18.5t-28 -14q-62 -26 -93 7t-18 99q11 57 43 104
t84 102l44 44q42 31 70.5 44.5t59.5 13.5t66 -17q2 8 4 15l44 44q-4 -18 -7 -34q-3 -21 -4 -46l3 -2l-3 -3q-4 -98 15 -195.5t60 -130.5q5 -4 12 -7.5t16 -7.5t14 -6l-44 -44q-5 2 -13 6l-16 8q-7 3 -13 7q-35 28 -53.5 103.5t-21.5 163.5zM157 489l44 44q114 -2 235 25
l-44 -44q-121 -27 -235 -25z" />
    <glyph glyph-name="Abreve" unicode="&#x102;" horiz-adv-x="489" 
d="M454 71q12 51 -6 196.5t-38 211.5q-11 36 -40 99.5t-49 67.5q-34 6 -61 -14q-120 -156 -180 -391q58 11 117.5 -15.5t136.5 -85.5q9 -7 25.5 -22.5t30.5 -26.5t29 -16q11 -4 35 -4zM-61 152q-1 -2 -3 -5.5t-3 -5.5l-3 -5q-1 -3 -1.5 -5t-0.5 -4.5t1 -4t3 -2.5
q35 -20 85 -8l1 4q8 41 18 82q-48 -9 -97 -46zM153 -98q-9 -1 -23.5 -4.5t-24.5 -5.5t-22.5 -2t-22.5 5q-73 35 -48 185q-78 -31 -124 -4q-5 2 -4 8t4 10l6 12q4 8 5 12l44 44q52 50 102 70q65 228 187 375l44 44q5 4 12 10.5t10.5 9.5t10.5 8t11.5 6.5t12.5 4.5t14.5 1.5
t17.5 -1.5q20 -4 49 -67.5t40 -99.5q20 -68 38 -215q19 -148 5 -196q-2 -7 -6 -14t-10 -15l-9 -12l-44 -44q-10 1 -18 0.5t-18 0t-17 3.5q-15 5 -29 16t-30 26.5t-26 22.5q-66 51 -118 77.5t-102 26.5l-8 -40q-6 -30 -7 -36q14 5 37 16t31 14l-44 -44q-8 -3 -27 -12
q-16 -126 52 -159q10 -5 22.5 -5t22.5 2t24.5 5.5t23.5 4.5zM265 766l44 44q28 -29 42 -34.5t34 4.5q19 60 -24 64q-38 3 -82 -34q-4 -3 -8 -7l44 44q27 26 61.5 36.5t51 -6t-5.5 -72.5l-44 -44l-24 -17q-7 -5 -19 -10.5t-16.5 -4.5t-14 4.5t-18 11t-21.5 21.5z" />
    <glyph glyph-name="abreve" unicode="&#x103;" horiz-adv-x="505" 
d="M237 82q47 60 73 113.5t43 120.5q-43 27 -77.5 32.5t-65.5 -6t-74 -42.5q-78 -89 -94 -170q-13 -66 18 -99t93 -7q41 17 84 58zM358 248q-29 -61 -83 -130l-44 -44q-7 -6 -22.5 -21.5t-23.5 -22.5t-21.5 -17.5t-26.5 -18.5t-28 -14q-62 -26 -93 7t-18 99q11 57 43 104
t84 102l44 44q42 31 70.5 44.5t59.5 13.5t66 -17q2 8 4 15l44 44q-4 -18 -7 -34q-3 -21 -4 -46l3 -2l-3 -3q-4 -98 15 -195.5t60 -130.5q5 -4 12 -7.5t16 -7.5t14 -6l-44 -44q-5 2 -13 6l-16 8q-7 3 -13 7q-35 28 -53.5 103.5t-21.5 163.5zM265 503l44 44l17 -11
q10 -7 11 -8t6.5 -2t7 0t11.5 4l21 6q8 11 9 14q10 39 7.5 62t-15.5 31.5t-32.5 4.5t-42.5 -18q-11 -17 -13 -32.5t2 -43.5l-44 -44q-5 35 0 52t27 48l44 44q37 30 68 37t45 -15t-2 -82q-2 -7 -46 -56l-44 -44q-12 -3 -23.5 -6.5t-14 -5t-8.5 -0.5t-6.5 2t-10 7.5
t-18.5 11.5z" />
    <glyph glyph-name="Aogonek" unicode="&#x104;" horiz-adv-x="489" 
d="M454 71q12 51 -6 196.5t-38 211.5q-11 36 -40 99.5t-49 67.5q-34 6 -61 -14q-120 -156 -180 -391q58 11 117.5 -15.5t136.5 -85.5q9 -7 25.5 -22.5t30.5 -26.5t29 -16q11 -4 35 -4zM-61 152q-1 -2 -3 -5.5t-3 -5.5l-3 -5q-1 -3 -1.5 -5t-0.5 -4.5t1 -4t3 -2.5
q35 -20 85 -8l1 4q8 41 18 82q-48 -9 -97 -46zM153 -98q-9 -1 -23.5 -4.5t-24.5 -5.5t-22.5 -2t-22.5 5q-73 35 -48 185q-78 -31 -124 -4q-5 2 -4 8t4 10l6 12q4 8 5 12l44 44q52 50 102 70q65 228 187 375l44 44q5 4 12 10.5t10.5 9.5t10.5 8t11.5 6.5t12.5 4.5t14.5 1.5
t17.5 -1.5q20 -4 49 -67.5t40 -99.5q20 -68 38 -215q19 -148 5 -196q-2 -7 -6 -14t-10 -15l-9 -12l-24 -24l-6 -20l-44 -44l-23 -5q-17 -35 -10 -61t34 -28t74 27l-44 -44q-31 -21 -56.5 -26t-37.5 5.5t-15.5 29t7 44t32.5 49.5l44 44l10 2l7 7q-36 1 -45 4q-15 5 -29 16
t-30 26.5t-26 22.5q-66 51 -118 77.5t-102 26.5l-8 -40q-6 -30 -7 -36q14 5 37 16t31 14l-44 -44q-8 -3 -27 -12q-16 -126 52 -159q10 -5 22.5 -5t22.5 2t24.5 5.5t23.5 4.5z" />
    <glyph glyph-name="aogonek" unicode="&#x105;" horiz-adv-x="505" 
d="M237 82q47 60 73 113.5t43 120.5q-43 27 -77.5 32.5t-65.5 -6t-74 -42.5q-78 -89 -94 -170q-13 -66 18 -99t93 -7q41 17 84 58zM449 -51q-39 4 -42.5 4t-34.5 -11q-18 -31 -16.5 -51.5t25.5 -25t76 16.5l-44 -44q-62 -24 -84.5 -14t-14.5 41t42 71l44 44q13 4 25 9
q-31 32 -48 104.5t-19 154.5q-29 -61 -83 -130l-44 -44q-7 -6 -22.5 -21.5t-23.5 -22.5t-21.5 -17.5t-26.5 -18.5t-28 -14q-62 -26 -93 7t-18 99q11 57 43 104t84 102l44 44q42 31 70.5 44.5t59.5 13.5t66 -17q2 8 4 15l44 44q-4 -18 -7 -34q-3 -21 -4 -46l3 -2l-3 -3
q-4 -98 15 -195.5t60 -130.5q5 -4 12 -7.5t16 -7.5t14 -6l-44 -44l-10 5z" />
    <glyph glyph-name="Cacute" unicode="&#x106;" horiz-adv-x="544" 
d="M322 474l44 44q2 -2 5 -6l27 -27q7 -8 18.5 -16.5t16 -9t15 2.5t18.5 10l22 19q44 68 11.5 112.5t-120.5 47.5q-66 3 -120.5 -25.5t-115.5 -82.5q-4 -5 -15.5 -20.5t-14.5 -20t-12 -17t-12.5 -19.5t-10 -19t-11.5 -24q-5 -11 -10 -26q-16 -45 -23 -95q-8 -51 -4.5 -104.5
t28.5 -98t71 -65.5q34 -16 74.5 -20t73.5 -1t79.5 16t72.5 22t72 27l23 9l-44 -44q-7 -3 -23 -9q-46 -18 -72 -27t-72.5 -22t-79.5 -16t-73.5 1.5t-74.5 19.5q-46 21 -71 65.5t-28.5 98t4 104.5t23.5 95q8 21 15 37.5t17.5 33.5l16.5 26l22 30l24 32l44 44l48 43
q17 14 48 37t54 33.5t55.5 18.5t65.5 7q93 -4 123.5 -52.5t-26.5 -123.5l-44 -44l-22 -19l-26 -24q-8 -7 -20 -12t-16.5 -4.5t-16.5 8t-20 16.5l-28 28q-3 4 -5 6zM188 711l44 44q20 8 39 17t41 22l36 20l40 24l37 23l-44 -44l-37 -23l-40 -24l-35 -20q-22 -12 -41.5 -21.5
t-39.5 -17.5z" />
    <glyph glyph-name="cacute" unicode="&#x107;" horiz-adv-x="353" 
d="M304 327q-30 88 -76 109.5t-124 -18.5q-27 -40 -42.5 -84.5t-18.5 -86.5t5.5 -80.5t26.5 -68t47.5 -47t65 -20t82.5 15.5t97 57l-44 -44q-136 -106 -232 -60q-70 34 -88 131q-20 111 43 219q17 31 41 58l44 44q86 50 135.5 30.5t81.5 -111.5zM112 547l44 44
q130 88 209 131l-44 -44q-79 -43 -209 -131z" />
    <glyph glyph-name="Ccircumflex" unicode="&#x108;" horiz-adv-x="544" 
d="M322 474l44 44q2 -2 5 -6l27 -27q7 -8 18.5 -16.5t16 -9t15 2.5t18.5 10l22 19q44 68 11.5 112.5t-120.5 47.5q-66 3 -120.5 -25.5t-115.5 -82.5q-4 -5 -15.5 -20.5t-14.5 -20t-12 -17t-12.5 -19.5t-10 -19t-11.5 -24q-5 -11 -10 -26q-16 -45 -23 -95q-8 -51 -4.5 -104.5
t28.5 -98t71 -65.5q34 -16 74.5 -20t73.5 -1t79.5 16t72.5 22t72 27l23 9l-44 -44q-7 -3 -23 -9q-46 -18 -72 -27t-72.5 -22t-79.5 -16t-73.5 1.5t-74.5 19.5q-46 21 -71 65.5t-28.5 98t4 104.5t23.5 95q8 21 15 37.5t17.5 33.5l16.5 26l22 30l24 32l44 44l48 43
q17 14 48 37t54 33.5t55.5 18.5t65.5 7q93 -4 123.5 -52.5t-26.5 -123.5l-44 -44l-22 -19l-26 -24q-8 -7 -20 -12t-16.5 -4.5t-16.5 8t-20 16.5l-28 28q-3 4 -5 6zM190 671l44 44q7 5 38 33l59 54q28 24 34 26q10 2 32 -9q14 -8 39.5 -26t38.5 -25l-44 -44q-12 7 -37 25
t-41 26q-22 12 -32 9q-6 -1 -34 -26l-59 -54q-31 -28 -38 -33z" />
    <glyph glyph-name="ccircumflex" unicode="&#x109;" horiz-adv-x="353" 
d="M118 569q77 73 96 81t40 -20q34 -42 74 -67l-44 -44q-40 25 -74 67q-21 28 -40 20t-96 -81l18 18zM304 327q-30 88 -76 109.5t-124 -18.5q-27 -40 -42.5 -84.5t-18.5 -86.5t5.5 -80.5t26.5 -68t47.5 -47t65 -20t82.5 15.5t97 57l-44 -44q-136 -106 -232 -60
q-70 34 -88 131q-20 111 43 219q17 31 41 58l44 44q86 50 135.5 30.5t81.5 -111.5z" />
    <glyph glyph-name="Cdotaccent" unicode="&#x10a;" horiz-adv-x="544" 
d="M322 474l44 44q2 -2 5 -6l27 -27q7 -8 18.5 -16.5t16 -9t15 2.5t18.5 10l22 19q44 68 11.5 112.5t-120.5 47.5q-66 3 -120.5 -25.5t-115.5 -82.5q-4 -5 -15.5 -20.5t-14.5 -20t-12 -17t-12.5 -19.5t-10 -19t-11.5 -24q-5 -11 -10 -26q-16 -45 -23 -95q-8 -51 -4.5 -104.5
t28.5 -98t71 -65.5q34 -16 74.5 -20t73.5 -1t79.5 16t72.5 22t72 27l23 9l-44 -44q-7 -3 -23 -9q-46 -18 -72 -27t-72.5 -22t-79.5 -16t-73.5 1.5t-74.5 19.5q-46 21 -71 65.5t-28.5 98t4 104.5t23.5 95q8 21 15 37.5t17.5 33.5l16.5 26l22 30l24 32l44 44l48 43
q17 14 48 37t54 33.5t55.5 18.5t65.5 7q93 -4 123.5 -52.5t-26.5 -123.5l-44 -44l-22 -19l-26 -24q-8 -7 -20 -12t-16.5 -4.5t-16.5 8t-20 16.5l-28 28q-3 4 -5 6zM373 768q0 -13 -9 -22t-22 -9t-22 9t-9 22t9 22t22 9t22 -9t9 -22z" />
    <glyph glyph-name="cdotaccent" unicode="&#x10b;" horiz-adv-x="353" 
d="M304 327q-30 88 -76 109.5t-124 -18.5q-27 -40 -42.5 -84.5t-18.5 -86.5t5.5 -80.5t26.5 -68t47.5 -47t65 -20t82.5 15.5t97 57l-44 -44q-136 -106 -232 -60q-70 34 -88 131q-20 111 43 219q17 31 41 58l44 44q86 50 135.5 30.5t81.5 -111.5zM245 579q0 -13 -9 -22
t-22 -9t-22 9t-9 22t9 22t22 9t22 -9t9 -22z" />
    <glyph glyph-name="Ccaron" unicode="&#x10c;" horiz-adv-x="544" 
d="M322 474l44 44q2 -2 5 -6l27 -27q7 -8 18.5 -16.5t16 -9t15 2.5t18.5 10l22 19q44 68 11.5 112.5t-120.5 47.5q-66 3 -120.5 -25.5t-115.5 -82.5q-4 -5 -15.5 -20.5t-14.5 -20t-12 -17t-12.5 -19.5t-10 -19t-11.5 -24q-5 -11 -10 -26q-16 -45 -23 -95q-8 -51 -4.5 -104.5
t28.5 -98t71 -65.5q34 -16 74.5 -20t73.5 -1t79.5 16t72.5 22t72 27l23 9l-44 -44q-7 -3 -23 -9q-46 -18 -72 -27t-72.5 -22t-79.5 -16t-73.5 1.5t-74.5 19.5q-46 21 -71 65.5t-28.5 98t4 104.5t23.5 95q8 21 15 37.5t17.5 33.5l16.5 26l22 30l24 32l44 44l48 43
q17 14 48 37t54 33.5t55.5 18.5t65.5 7q93 -4 123.5 -52.5t-26.5 -123.5l-44 -44l-22 -19l-26 -24q-8 -7 -20 -12t-16.5 -4.5t-16.5 8t-20 16.5l-28 28q-3 4 -5 6zM243 774l44 44q31 -40 55 -60q29 58 75 104l44 44q-63 -63 -100 -162l-44 -44q-35 25 -74 74z" />
    <glyph glyph-name="ccaron" unicode="&#x10d;" horiz-adv-x="353" 
d="M304 327q-30 88 -76 109.5t-124 -18.5q-27 -40 -42.5 -84.5t-18.5 -86.5t5.5 -80.5t26.5 -68t47.5 -47t65 -20t82.5 15.5t97 57l-44 -44q-136 -106 -232 -60q-70 34 -88 131q-20 111 43 219q17 31 41 58l44 44q86 50 135.5 30.5t81.5 -111.5zM99 639l44 44q31 -42 62 -72
q25 66 44 97l44 44q-18 -30 -39.5 -85t-30.5 -73l-44 -44q-40 36 -80 89z" />
    <glyph glyph-name="Dcaron" unicode="&#x10e;" horiz-adv-x="556" 
d="M52 430q-29 -113 -30 -243q-1 -50 10 -132t35 -95q3 -2 7 -2q55 160 -22 472zM-24 682l44 44q31 -90 53 -167q29 55 67 101l44 44l20 12q13 8 24 14t22 9q43 11 84.5 1t74.5 -37.5t63 -66.5t49.5 -84.5t33 -92.5t14.5 -90.5t-6 -78.5q-6 -22 -11 -37.5t-14 -30t-15 -22
l-22 -26.5l-25 -29l-44 -44l-32 -29l-28 -24q-19 -16 -28 -22l-27 -17q-17 -11 -29 -15l-30 -8q-17 -6 -33.5 -7t-37 -1t-43.5 2l44 44q25 -4 50 -2t42.5 3t37 8.5t33 14t31.5 19t32 24t34 29.5q2 2 11.5 13t10.5 13l9 11q7 9 8.5 12t7 11t7.5 14l6 14l6 18l5 20
q8 34 6 78.5t-14.5 90.5t-33 92.5t-49 84.5t-63 66.5t-75 38t-84.5 -1.5q-16 -4 -47 -24q-46 -64 -77 -145q104 -384 24 -554l-44 -44q-4 -1 -13 -6t-13.5 -6.5t-12.5 0.5q-24 14 -34.5 95.5t-10.5 131.5q2 189 60 339q-25 91 -62 200zM96 801l44 44q63 -33 87 -43
q6 8 20 22t18 19l44 44l52 47l-44 -44l-38 -35q-26 -28 -32 -61l-44 -44q-32 12 -107 51z" />
    <glyph glyph-name="dcaron" unicode="&#x10f;" horiz-adv-x="523" 
d="M277 263q-7 49 -10 89q-23 20 -53 25.5t-57 -6.5l-8 -4q-3 -5 -11.5 -18t-10.5 -16.5t-8.5 -13.5t-8.5 -15.5t-6 -15.5t-6 -20l-6 -24q-17 -77 1 -148q21 -87 85 -60q9 3 18 9q51 90 81 218zM312 607q-9 -67 -6 -148q6 74 6 148zM287 192q-25 -68 -58 -121l-44 -44
q-91 -83 -127 -1q-27 59 -14 152q2 12 4 22q4 20 8 33.5t12 27.5l10 20q3 6 16 25l18 27l44 44q5 4 13.5 12.5t16 15t15.5 10.5q27 13 61 5q-6 171 45 294l44 44q16 -200 -18 -390q5 -9 7 -19q3 -2 1.5 -19t-2.5 -22l-4 -22q-3 -17 -3 -18l-5 -5l10 -67q0 -2 3.5 -26
t6.5 -42t7.5 -42t10.5 -41t13 -23q4 -4 10 -6.5t14 -4.5l12 -3l-44 -44q-4 2 -12 3.5t-14 4t-10 6.5q-6 7 -12 23.5t-11 40.5t-8 42t-6.5 42.5t-3.5 25.5zM492 761l44 44q1 -51 -15.5 -94.5t-50.5 -92.5l-44 -44q34 50 50.5 93t15.5 94z" />
    <glyph glyph-name="Dcroat" unicode="&#x110;" horiz-adv-x="556" 
d="M36 354q-13 -77 -14 -167q-1 -51 10 -132q11 -82 35 -95q3 -2 7 -2q43 124 5 341h-1l1 1q-10 62 -27 130q-9 -35 -15 -71l5 1zM-117 305l44 44q67 3 73 4q14 69 38 129q-25 91 -62 200l44 44q31 -90 53 -167q29 55 67 101l44 44l20 12q13 8 24 14t22 9q43 11 84.5 1
t74.5 -37.5t63 -66.5t49.5 -84.5t33 -92.5t14.5 -90.5t-6 -78.5q-6 -22 -11 -37.5t-14 -30t-15 -22l-22 -26.5l-25 -29l-44 -44l-32 -29l-28 -24q-19 -16 -28 -22l-27 -17q-17 -11 -29 -15l-30 -8q-17 -6 -33.5 -7t-37 -1t-43.5 2l44 44q25 -4 50 -2t42.5 3t37 8.5t33 14
t31.5 19t32 24t34 29.5q2 2 11.5 13t10.5 13l9 11q7 9 8.5 12t7 11t7.5 14l6 14l6 18l5 20q8 34 6 78.5t-14.5 90.5t-33 92.5t-49 84.5t-63 66.5t-75 38t-84.5 -1.5q-16 -4 -47 -24q-46 -64 -77 -145q27 -98 41 -183q56 0 259 -8l-44 -44q-176 7 -208 8q30 -213 -24 -327
l-44 -44q-4 -1 -13 -6t-13.5 -6.5t-12.5 0.5q-24 14 -34.5 95.5t-10.5 131.5q1 89 15 172q-25 -6 -110 -10z" />
    <glyph glyph-name="dcroat" unicode="&#x111;" horiz-adv-x="522" 
d="M277 263q-7 49 -10 89q-23 20 -53 25.5t-57 -6.5l-8 -4q-3 -5 -11.5 -18t-10.5 -16.5t-8.5 -13.5t-8.5 -15.5t-6 -15.5t-6 -20l-6 -24q-17 -77 1 -148q21 -87 85 -60q9 3 18 9q51 90 81 218zM308 572h4v35q-3 -17 -4 -35zM306 528q-1 -33 0 -69q3 34 4 69h-4zM157 527
l44 44q32 1 68 1q11 77 38 142l44 44q7 -91 3 -186q18 0 82.5 -0.5t99.5 -0.5l-44 -44q-31 0 -140 1q-6 -83 -19 -160q5 -9 7 -19q3 -2 1.5 -19t-2.5 -22l-4 -22q-3 -17 -3 -18l-5 -5l10 -67q0 -2 3.5 -26t6.5 -42t7.5 -42t10.5 -41t13 -23q4 -4 10 -6.5t14 -4.5l12 -3
l-44 -44q-4 2 -12 3.5t-14 4t-10 6.5q-6 7 -12 23.5t-11 40.5t-8 42t-6.5 42.5t-3.5 25.5l-6 40q-25 -68 -58 -121l-44 -44q-91 -83 -127 -1q-27 59 -14 152q2 12 4 22q4 20 8 33.5t12 27.5l10 20q3 6 16 25l18 27l44 44q5 4 13.5 12.5t16 15t15.5 10.5q27 13 61 5
q-2 58 2 108q-59 0 -107 -1z" />
    <glyph glyph-name="Emacron" unicode="&#x112;" horiz-adv-x="581" 
d="M37 28l44 44l1 -1q4 147 22 263l-14 -6q-3 -1 -14 -7l-20 -12q-11 -6 -24.5 -11.5t-25.5 -9t-23.5 -2.5t-18.5 7q-5 3 -3 9t5 11l9 12q5 7 7 11l44 44q-2 -4 -7 -11l-9 -12q-3 -5 -5 -11t3 -9q24 -21 100 20q12 72 30 139l1 1q-106 11 -171 38l44 44q79 55 270 95.5
t313 40.5l-44 -44q-99 0 -257 -29t-259 -72q60 -21 162 -30l-20 -20q-18 -69 -29 -142q129 58 297 69l-44 -44q-145 -10 -257 -52q-17 -125 -19 -293q23 -5 50 -6.5t49.5 -2t55.5 3t52.5 6t55.5 9t50 9.5t51.5 10.5t44.5 9.5l-44 -44q-6 -1 -46 -9l-54 -12q-14 -3 -50 -9.5
t-58 -9t-53 -5.5t-57.5 -2.5t-51.5 2.5l-39 -39v46q-24 5 -44 13zM110 732l44 44q133 0 253 15l-44 -44q-120 -15 -253 -15z" />
    <glyph glyph-name="emacron" unicode="&#x113;" horiz-adv-x="450" 
d="M130 399q-35 -39 -58 -89q-22 -48 -27 -87l9 9q123 -3 216 59q14 21 17 39q8 47 -28.5 79t-82.5 17q-11 -4 -46 -27zM317 90q-25 -21 -49.5 -38t-55 -34.5t-56.5 -26.5t-53 -9.5t-47 12t-35 42.5t-20 77q-8 77 27 153q9 19 16 32t17 26.5t15 19.5l22 24l23 25l44 44
l17 11q11 8 20 13.5t18 8.5q45 15 82 -17.5t29 -78.5q-2 -9 -6 -18.5t-7 -14.5t-11 -16t-10 -14l-44 -44q-89 -73 -210 -79q0 -15 2 -31q5 -44 18 -73.5t31.5 -42.5t42.5 -15t48.5 4.5t53 21t52 30t48.5 35.5q58 71 81 94l44 44l-34 -37l-38 -46l-31 -38zM54 553l44 44
q25 -3 51.5 -2.5t47 1.5t49 5.5t46 7.5t50.5 10l-44 -44q-33 -6 -50.5 -9.5t-46 -7.5t-49 -5.5t-46.5 -1.5t-52 2z" />
    <glyph glyph-name="Ebreve" unicode="&#x114;" horiz-adv-x="581" 
d="M37 28l44 44l1 -1q4 147 22 263l-14 -6q-3 -1 -14 -7l-20 -12q-11 -6 -24.5 -11.5t-25.5 -9t-23.5 -2.5t-18.5 7q-5 3 -3 9t5 11l9 12q5 7 7 11l44 44q-2 -4 -7 -11l-9 -12q-3 -5 -5 -11t3 -9q24 -21 100 20q12 72 30 139l1 1q-106 11 -171 38l44 44q79 55 270 95.5
t313 40.5l-44 -44q-99 0 -257 -29t-259 -72q60 -21 162 -30l-20 -20q-18 -69 -29 -142q129 58 297 69l-44 -44q-145 -10 -257 -52q-17 -125 -19 -293q23 -5 50 -6.5t49.5 -2t55.5 3t52.5 6t55.5 9t50 9.5t51.5 10.5t44.5 9.5l-44 -44q-6 -1 -46 -9l-54 -12q-14 -3 -50 -9.5
t-58 -9t-53 -5.5t-57.5 -2.5t-51.5 2.5l-39 -39v46q-24 5 -44 13zM182 784l44 44q-1 -37 15.5 -54.5t42.5 -15.5t56 8q1 3 2.5 6.5t4.5 11.5t6 15l44 44l-7 -17q-3 -9 -4 -11t-2.5 -6t-4 -6t-5.5 -5l-10 -12l-14 -17l-44 -44q-26 -7 -46 -9.5t-39.5 1t-29.5 20.5t-9 47z" />
    <glyph glyph-name="ebreve" unicode="&#x115;" horiz-adv-x="450" 
d="M130 399q-35 -39 -58 -89q-22 -48 -27 -87l9 9q123 -3 216 59q14 21 17 39q8 47 -28.5 79t-82.5 17q-11 -4 -46 -27zM317 90q-25 -21 -49.5 -38t-55 -34.5t-56.5 -26.5t-53 -9.5t-47 12t-35 42.5t-20 77q-8 77 27 153q9 19 16 32t17 26.5t15 19.5l22 24l23 25l44 44
l17 11q11 8 20 13.5t18 8.5q45 15 82 -17.5t29 -78.5q-2 -9 -6 -18.5t-7 -14.5t-11 -16t-10 -14l-44 -44q-89 -73 -210 -79q0 -15 2 -31q5 -44 18 -73.5t31.5 -42.5t42.5 -15t48.5 4.5t53 21t52 30t48.5 35.5q58 71 81 94l44 44l-34 -37l-38 -46l-31 -38zM96 602l44 44
q-4 -42 12.5 -68.5t45 -28.5t61.5 16q7 7 26 45l44 44l-9 -17q-4 -9 -6 -11l-3 -6q-2 -4 -4 -6l-5 -6l-10 -12l-13 -17l-44 -44q-35 -30 -69.5 -31t-54 25.5t-15.5 72.5z" />
    <glyph glyph-name="Edotaccent" unicode="&#x116;" horiz-adv-x="581" 
d="M37 28l44 44l1 -1q4 147 22 263l-14 -6q-3 -1 -14 -7l-20 -12q-11 -6 -24.5 -11.5t-25.5 -9t-23.5 -2.5t-18.5 7q-5 3 -3 9t5 11l9 12q5 7 7 11l44 44q-2 -4 -7 -11l-9 -12q-3 -5 -5 -11t3 -9q24 -21 100 20q12 72 30 139l1 1q-106 11 -171 38l44 44q79 55 270 95.5
t313 40.5l-44 -44q-99 0 -257 -29t-259 -72q60 -21 162 -30l-20 -20q-18 -69 -29 -142q129 58 297 69l-44 -44q-145 -10 -257 -52q-17 -125 -19 -293q23 -5 50 -6.5t49.5 -2t55.5 3t52.5 6t55.5 9t50 9.5t51.5 10.5t44.5 9.5l-44 -44q-6 -1 -46 -9l-54 -12q-14 -3 -50 -9.5
t-58 -9t-53 -5.5t-57.5 -2.5t-51.5 2.5l-39 -39v46q-24 5 -44 13zM295 769q0 -13 -9 -22t-22 -9t-22 9t-9 22t9 22t22 9t22 -9t9 -22z" />
    <glyph glyph-name="edotaccent" unicode="&#x117;" horiz-adv-x="450" 
d="M130 399q-35 -39 -58 -89q-22 -48 -27 -87l9 9q123 -3 216 59q14 21 17 39q8 47 -28.5 79t-82.5 17q-11 -4 -46 -27zM317 90q-25 -21 -49.5 -38t-55 -34.5t-56.5 -26.5t-53 -9.5t-47 12t-35 42.5t-20 77q-8 77 27 153q9 19 16 32t17 26.5t15 19.5l22 24l23 25l44 44
l17 11q11 8 20 13.5t18 8.5q45 15 82 -17.5t29 -78.5q-2 -9 -6 -18.5t-7 -14.5t-11 -16t-10 -14l-44 -44q-89 -73 -210 -79q0 -15 2 -31q5 -44 18 -73.5t31.5 -42.5t42.5 -15t48.5 4.5t53 21t52 30t48.5 35.5q58 71 81 94l44 44l-34 -37l-38 -46l-31 -38zM252 602
q0 -13 -9 -22t-22 -9t-22 9t-9 22t9 22t22 9t22 -9t9 -22z" />
    <glyph glyph-name="Eogonek" unicode="&#x118;" horiz-adv-x="581" 
d="M37 28l44 44l1 -1q4 147 22 263l-14 -6q-3 -1 -14 -7l-20 -12q-11 -6 -24.5 -11.5t-25.5 -9t-23.5 -2.5t-18.5 7q-5 3 -3 9t5 11l9 12q5 7 7 11l44 44q-2 -4 -7 -11l-9 -12q-3 -5 -5 -11t3 -9q24 -21 100 20q12 72 30 139l1 1q-106 11 -171 38l44 44q79 55 270 95.5
t313 40.5l-44 -44q-99 0 -257 -29t-259 -72q60 -21 162 -30l-20 -20q-18 -69 -29 -142q129 58 297 69l-44 -44q-145 -10 -257 -52q-17 -125 -19 -293q23 -5 50 -6.5t49.5 -2t55.5 3t52.5 6t55.5 9t50 9.5t51.5 10.5t44.5 9.5l-44 -44q-11 -2 -32 -7l-41 -8l-37 -8l1 -4
l-44 -44q-36 -19 -52 -29q-12 -20 -15 -35.5t3 -28t27 -17.5q20 -5 54 -1q9 1 18.5 4.5t21 9.5t18.5 10t20 13l15 10l-44 -44l-15 -10l-20 -12q-7 -5 -18.5 -11t-21 -9.5t-18.5 -4.5q-40 -5 -61.5 3t-23 25.5t8 38.5t29.5 45l44 44l27 17l-3 13l10 10q-134 -24 -221 -15
l-39 -39v46q-24 5 -44 13z" />
    <glyph glyph-name="eogonek" unicode="&#x119;" horiz-adv-x="450" 
d="M130 399q-35 -39 -58 -89q-22 -48 -27 -87l9 9q123 -3 216 59q14 21 17 39q8 47 -28.5 79t-82.5 17q-11 -4 -46 -27zM172 -38l29 24v24l2 2q-180 -96 -202 101q-8 77 27 153q9 19 16 32t17 26.5t15 19.5l22 24l23 25l44 44l17 11q11 8 20 13.5t18 8.5q45 15 82 -17.5
t29 -78.5q-2 -9 -6 -18.5t-7 -14.5t-11 -16t-10 -14l-44 -44q-89 -73 -210 -79q0 -15 2 -31q5 -44 18 -73.5t31.5 -42.5t42.5 -15t48.5 4.5t53 21t52 30t48.5 35.5q58 71 81 94l44 44l-34 -37l-38 -46l-31 -38l-44 -44q-38 -31 -72 -53v-15l-44 -44l-38 -31q-13 -20 -12 -31
q2 -31 25 -39t53.5 2.5t55.5 23.5t40 24l-44 -44q-14 -11 -39.5 -24t-56 -23.5t-53.5 -2.5t-25 39q0 8 3.5 15.5t9.5 16.5t8 14z" />
    <glyph glyph-name="Ecaron" unicode="&#x11a;" horiz-adv-x="581" 
d="M37 28l44 44l1 -1q4 147 22 263l-14 -6q-3 -1 -14 -7l-20 -12q-11 -6 -24.5 -11.5t-25.5 -9t-23.5 -2.5t-18.5 7q-5 3 -3 9t5 11l9 12q5 7 7 11l44 44q-2 -4 -7 -11l-9 -12q-3 -5 -5 -11t3 -9q24 -21 100 20q12 72 30 139l1 1q-106 11 -171 38l44 44q79 55 270 95.5
t313 40.5l-44 -44q-99 0 -257 -29t-259 -72q60 -21 162 -30l-20 -20q-18 -69 -29 -142q129 58 297 69l-44 -44q-145 -10 -257 -52q-17 -125 -19 -293q23 -5 50 -6.5t49.5 -2t55.5 3t52.5 6t55.5 9t50 9.5t51.5 10.5t44.5 9.5l-44 -44q-6 -1 -46 -9l-54 -12q-14 -3 -50 -9.5
t-58 -9t-53 -5.5t-57.5 -2.5t-51.5 2.5l-39 -39v46q-24 5 -44 13zM148 769l44 44q4 -3 15 -13t15 -14l14 -10q9 -6 17 -10t17 -8q15 24 31 55l44 44q-30 -60 -67 -102l-44 -44q-11 4 -19.5 8t-18.5 11.5t-14.5 10.5t-17.5 14t-16 14z" />
    <glyph glyph-name="ecaron" unicode="&#x11b;" horiz-adv-x="450" 
d="M130 399q-35 -39 -58 -89q-22 -48 -27 -87l9 9q123 -3 216 59q14 21 17 39q8 47 -28.5 79t-82.5 17q-11 -4 -46 -27zM317 90q-25 -21 -49.5 -38t-55 -34.5t-56.5 -26.5t-53 -9.5t-47 12t-35 42.5t-20 77q-8 77 27 153q9 19 16 32t17 26.5t15 19.5l22 24l23 25l44 44
l17 11q11 8 20 13.5t18 8.5q45 15 82 -17.5t29 -78.5q-2 -9 -6 -18.5t-7 -14.5t-11 -16t-10 -14l-44 -44q-89 -73 -210 -79q0 -15 2 -31q5 -44 18 -73.5t31.5 -42.5t42.5 -15t48.5 4.5t53 21t52 30t48.5 35.5q58 71 81 94l44 44l-34 -37l-38 -46l-31 -38zM107 586l44 44
q28 -31 71 -61q26 49 51 81l44 44q-32 -40 -78 -136l-44 -44q-57 38 -88 72z" />
    <glyph glyph-name="Gcircumflex" unicode="&#x11c;" horiz-adv-x="647" 
d="M508 237q-32 -49 -60 -101q32 36 51 77q6 12 9 24zM237 232q154 75 222 102q-30 2 -71 -12q-62 -21 -151 -90zM611 348q-26 -5 -53 -11q4 -16 0 -36q16 16 53 47zM507 250l7 7q8 42 -16 62q-17 -5 -34.5 -11t-37.5 -14l-33 -14q-14 -5 -37 -15l-32 -15l-36 -16l-32 -16
l-36 -17q-28 -14 -33 -16l37 37l-14 -11l44 44l58 45q18 13 53.5 34t66.5 32q76 26 110 -3q61 20 119 30l-44 -44q-16 -16 -61 -54q-4 -18 -13 -38q-12 -26 -29.5 -50t-28.5 -35l-39 -39q-82 -153 -65 -215q2 -6 6 -12t10.5 -12.5t9.5 -10.5l-44 -44q-3 4 -9.5 10.5
t-10.5 12.5t-6 12q-17 62 66 216l-21 -21l-30 -21q-21 -15 -32 -22l-27 -16q-17 -10 -33.5 -16.5t-35.5 -11.5q-64 -15 -107 -10.5t-66.5 30t-32.5 60t-5 78.5t16 87.5t31 85.5q10 23 18.5 39.5t19.5 33t17 24.5l23 30l27 34l44 44l-27 -34l-23 -30q-6 -8 -17 -25t-19.5 -33
t-18.5 -39q-19 -42 -31 -85.5t-16 -87.5t5 -79t32.5 -60t66.5 -29.5t107 10.5l19 6q9 2 18 6l15 7q7 3 16 9l14 8q5 2 16 9l13 9l15 10l15 11q54 98 98 149zM299 765q-27 -32 -42 -47l-44 -44q15 15 41.5 46t40.5 46l44 44q18 -8 49 -25.5t57 -29t52 -15.5l-44 -44
q-26 5 -51 16t-56 28t-47 25zM484 475l44 44q5 87 3 97q-8 33 -33 46.5t-56.5 8.5t-60.5 -16t-50 -25q-12 -8 -24.5 -18t-26.5 -24l-24 -24l-26 -25l-21 -21q50 49 78 68q22 14 50.5 25t60 16t56.5 -8.5t33 -46.5q3 -10 -3 -97z" />
    <glyph glyph-name="gcircumflex" unicode="&#x11d;" horiz-adv-x="413" 
d="M206 203q6 121 50 203l17 17q-30 21 -57 19.5t-74 -24.5q-78 -95 -99 -209q-5 -28 -7 -51q-1 -23 1 -44.5t9 -36t18.5 -21.5t30 -2.5t43.5 21.5q41 62 68 128zM210 35q-14 -18 -23 -34q-6 -11 -20 -44.5t-29.5 -80.5t-26 -91.5t-8.5 -79.5t22 -42q9 -4 26 4q32 52 47 116
t14.5 123.5t-2.5 128.5zM268 110l-15 -20l3 -74q1 -26 0.5 -71t-6 -74.5t-14.5 -66.5t-26 -68.5t-41 -60.5l-44 -44q-5 -1 -15 -6t-14.5 -6t-14.5 0q-20 8 -22 42.5t8.5 79t26 92t29.5 80.5t20 44q13 23 66 89q-4 74 -4 110q-17 -29 -37 -57l-44 -44q-37 -33 -64 -42.5
t-41 0t-21 33t-6 54t7 65.5q13 74 45.5 131t88.5 117l44 44q47 24 75 27.5t51.5 -9.5t62.5 -51l-44 -44l-28 26q-14 -85 -44 -159q-2 -52 3 -152zM103 503l44 44q10 8 19 16t13 11t6 5l18 21l44 44l31 -22l36 -24q16 -11 33 -19l-44 -44q-16 8 -32 19l-35 24l-30 21l-27 -27
q-10 -9 -19.5 -18.5t-10.5 -11t-6.5 -6.5t-7 -6t-12 -9.5t-20.5 -17.5zM293 135l-2 -2zM293 135l17 17q21 20 24 23.5t15 15t14.5 13t23.5 20.5l40 35l-44 -44l-40 -35q-20 -17 -23 -20t-14 -13z" />
    <glyph glyph-name="Gbreve" unicode="&#x11e;" horiz-adv-x="647" 
d="M508 237q-32 -49 -60 -101q32 36 51 77q6 12 9 24zM237 232q154 75 222 102q-30 2 -71 -12q-62 -21 -151 -90zM611 348q-26 -5 -53 -11q4 -16 0 -36q16 16 53 47zM507 250l7 7q8 42 -16 62q-17 -5 -34.5 -11t-37.5 -14l-33 -14q-14 -5 -37 -15l-32 -15l-36 -16l-32 -16
l-36 -17q-28 -14 -33 -16l37 37l-14 -11l44 44l58 45q18 13 53.5 34t66.5 32q76 26 110 -3q61 20 119 30l-44 -44q-16 -16 -61 -54q-4 -18 -13 -38q-12 -26 -29.5 -50t-28.5 -35l-39 -39q-82 -153 -65 -215q2 -6 6 -12t10.5 -12.5t9.5 -10.5l-44 -44q-3 4 -9.5 10.5
t-10.5 12.5t-6 12q-17 62 66 216l-21 -21l-30 -21q-21 -15 -32 -22l-27 -16q-17 -10 -33.5 -16.5t-35.5 -11.5q-64 -15 -107 -10.5t-66.5 30t-32.5 60t-5 78.5t16 87.5t31 85.5q10 23 18.5 39.5t19.5 33t17 24.5l23 30l27 34l44 44l-27 -34l-23 -30q-6 -8 -17 -25t-19.5 -33
t-18.5 -39q-19 -42 -31 -85.5t-16 -87.5t5 -79t32.5 -60t66.5 -29.5t107 10.5l19 6q9 2 18 6l15 7q7 3 16 9l14 8q5 2 16 9l13 9l15 10l15 11q54 98 98 149zM484 475l44 44q5 87 3 97q-8 33 -33 46.5t-56.5 8.5t-60.5 -16t-50 -25q-12 -8 -24.5 -18t-26.5 -24l-24 -24
l-26 -25l-21 -21q50 49 78 68q22 14 50.5 25t60 16t56.5 -8.5t33 -46.5q3 -10 -3 -97zM218 766l44 44q32 -41 62 -50.5t70 8.5q2 3 15 38l44 44q-3 -9 -6.5 -18t-4 -10t-2.5 -6t-3 -6.5t-5 -9.5l-9 -17l-44 -44q-52 -32 -88 -26.5t-73 53.5z" />
    <glyph glyph-name="gbreve" unicode="&#x11f;" horiz-adv-x="413" 
d="M206 203q6 121 50 203l17 17q-30 21 -57 19.5t-74 -24.5q-78 -95 -99 -209q-5 -28 -7 -51q-1 -23 1 -44.5t9 -36t18.5 -21.5t30 -2.5t43.5 21.5q41 62 68 128zM210 35q-14 -18 -23 -34q-6 -11 -20 -44.5t-29.5 -80.5t-26 -91.5t-8.5 -79.5t22 -42q9 -4 26 4q32 52 47 116
t14.5 123.5t-2.5 128.5zM268 110l-15 -20l3 -74q1 -26 0.5 -71t-6 -74.5t-14.5 -66.5t-26 -68.5t-41 -60.5l-44 -44q-5 -1 -15 -6t-14.5 -6t-14.5 0q-20 8 -22 42.5t8.5 79t26 92t29.5 80.5t20 44q13 23 66 89q-4 74 -4 110q-17 -29 -37 -57l-44 -44q-37 -33 -64 -42.5
t-41 0t-21 33t-6 54t7 65.5q13 74 45.5 131t88.5 117l44 44q47 24 75 27.5t51.5 -9.5t62.5 -51l-44 -44l-28 26q-14 -85 -44 -159q-2 -52 3 -152zM120 621l44 44q2 -24 7.5 -38.5t13 -21.5t21 -6.5t26.5 4t35 11.5q1 2 3.5 6t7 12.5t9.5 16.5l44 44l-12 -21q-6 -11 -6.5 -12
t-5 -7t-6 -7t-10.5 -10l-18 -20l-44 -44q-24 -9 -37 -13t-27.5 -4.5t-22.5 6t-14 21t-8 39.5zM293 135l-2 -2zM293 135l17 17q21 20 24 23.5t15 15t14.5 13t23.5 20.5l40 35l-44 -44l-40 -35q-20 -17 -23 -20t-14 -13z" />
    <glyph glyph-name="Gdotaccent" unicode="&#x120;" horiz-adv-x="647" 
d="M508 237q-32 -49 -60 -101q32 36 51 77q6 12 9 24zM237 232q154 75 222 102q-30 2 -71 -12q-62 -21 -151 -90zM611 348q-26 -5 -53 -11q4 -16 0 -36q16 16 53 47zM507 250l7 7q8 42 -16 62q-17 -5 -34.5 -11t-37.5 -14l-33 -14q-14 -5 -37 -15l-32 -15l-36 -16l-32 -16
l-36 -17q-28 -14 -33 -16l37 37l-14 -11l44 44l58 45q18 13 53.5 34t66.5 32q76 26 110 -3q61 20 119 30l-44 -44q-16 -16 -61 -54q-4 -18 -13 -38q-12 -26 -29.5 -50t-28.5 -35l-39 -39q-82 -153 -65 -215q2 -6 6 -12t10.5 -12.5t9.5 -10.5l-44 -44q-3 4 -9.5 10.5
t-10.5 12.5t-6 12q-17 62 66 216l-21 -21l-30 -21q-21 -15 -32 -22l-27 -16q-17 -10 -33.5 -16.5t-35.5 -11.5q-64 -15 -107 -10.5t-66.5 30t-32.5 60t-5 78.5t16 87.5t31 85.5q10 23 18.5 39.5t19.5 33t17 24.5l23 30l27 34l44 44l-27 -34l-23 -30q-6 -8 -17 -25t-19.5 -33
t-18.5 -39q-19 -42 -31 -85.5t-16 -87.5t5 -79t32.5 -60t66.5 -29.5t107 10.5l19 6q9 2 18 6l15 7q7 3 16 9l14 8q5 2 16 9l13 9l15 10l15 11q54 98 98 149zM484 475l44 44q5 87 3 97q-8 33 -33 46.5t-56.5 8.5t-60.5 -16t-50 -25q-12 -8 -24.5 -18t-26.5 -24l-24 -24
l-26 -25l-21 -21q50 49 78 68q22 14 50.5 25t60 16t56.5 -8.5t33 -46.5q3 -10 -3 -97zM346 730q0 -13 -9 -22t-22 -9t-22 9t-9 22t9 22t22 9t22 -9t9 -22z" />
    <glyph glyph-name="gdotaccent" unicode="&#x121;" horiz-adv-x="413" 
d="M206 203q6 121 50 203l17 17q-30 21 -57 19.5t-74 -24.5q-78 -95 -99 -209q-5 -28 -7 -51q-1 -23 1 -44.5t9 -36t18.5 -21.5t30 -2.5t43.5 21.5q41 62 68 128zM210 35q-14 -18 -23 -34q-6 -11 -20 -44.5t-29.5 -80.5t-26 -91.5t-8.5 -79.5t22 -42q9 -4 26 4q32 52 47 116
t14.5 123.5t-2.5 128.5zM268 110l-15 -20l3 -74q1 -26 0.5 -71t-6 -74.5t-14.5 -66.5t-26 -68.5t-41 -60.5l-44 -44q-5 -1 -15 -6t-14.5 -6t-14.5 0q-20 8 -22 42.5t8.5 79t26 92t29.5 80.5t20 44q13 23 66 89q-4 74 -4 110q-17 -29 -37 -57l-44 -44q-37 -33 -64 -42.5
t-41 0t-21 33t-6 54t7 65.5q13 74 45.5 131t88.5 117l44 44q47 24 75 27.5t51.5 -9.5t62.5 -51l-44 -44l-28 26q-14 -85 -44 -159q-2 -52 3 -152zM248 586q0 -13 -9 -22t-22 -9t-22 9t-9 22t9 22t22 9t22 -9t9 -22zM293 135l-2 -2zM293 135l17 17q21 20 24 23.5t15 15
t14.5 13t23.5 20.5l40 35l-44 -44l-40 -35q-20 -17 -23 -20t-14 -13z" />
    <glyph glyph-name="Gcommaaccent" unicode="&#x122;" horiz-adv-x="647" 
d="M508 237q-32 -49 -60 -101q32 36 51 77q6 12 9 24zM237 232q154 75 222 102q-30 2 -71 -12q-62 -21 -151 -90zM611 348q-26 -5 -53 -11q4 -16 0 -36q16 16 53 47zM507 250l7 7q8 42 -16 62q-17 -5 -34.5 -11t-37.5 -14l-33 -14q-14 -5 -37 -15l-32 -15l-36 -16l-32 -16
l-36 -17q-28 -14 -33 -16l37 37l-14 -11l44 44l58 45q18 13 53.5 34t66.5 32q76 26 110 -3q61 20 119 30l-44 -44q-16 -16 -61 -54q-4 -18 -13 -38q-12 -26 -29.5 -50t-28.5 -35l-39 -39q-82 -153 -65 -215q2 -6 6 -12t10.5 -12.5t9.5 -10.5l-44 -44q-3 4 -9.5 10.5
t-10.5 12.5t-6 12q-17 62 66 216l-21 -21l-30 -21q-21 -15 -32 -22l-27 -16q-17 -10 -33.5 -16.5t-35.5 -11.5q-64 -15 -107 -10.5t-66.5 30t-32.5 60t-5 78.5t16 87.5t31 85.5q10 23 18.5 39.5t19.5 33t17 24.5l23 30l27 34l44 44l-27 -34l-23 -30q-6 -8 -17 -25t-19.5 -33
t-18.5 -39q-19 -42 -31 -85.5t-16 -87.5t5 -79t32.5 -60t66.5 -29.5t107 10.5l19 6q9 2 18 6l15 7q7 3 16 9l14 8q5 2 16 9l13 9l15 10l15 11q54 98 98 149zM484 475l44 44q5 87 3 97q-8 33 -33 46.5t-56.5 8.5t-60.5 -16t-50 -25q-12 -8 -24.5 -18t-26.5 -24l-24 -24
l-26 -25l-21 -21q50 49 78 68q22 14 50.5 25t60 16t56.5 -8.5t33 -46.5q3 -10 -3 -97zM148 -120l44 44q53 18 50 -23q-4 -38 -41 -91l-44 -44q37 53 41 91q4 41 -50 23z" />
    <glyph glyph-name="gcommaaccent" unicode="&#x123;" horiz-adv-x="413" 
d="M206 203q6 121 50 203l17 17q-30 21 -57 19.5t-74 -24.5q-78 -95 -99 -209q-5 -28 -7 -51q-1 -23 1 -44.5t9 -36t18.5 -21.5t30 -2.5t43.5 21.5q41 62 68 128zM210 35q-14 -18 -23 -34q-6 -11 -20 -44.5t-29.5 -80.5t-26 -91.5t-8.5 -79.5t22 -42q9 -4 26 4q32 52 47 116
t14.5 123.5t-2.5 128.5zM268 110l-15 -20l3 -74q1 -26 0.5 -71t-6 -74.5t-14.5 -66.5t-26 -68.5t-41 -60.5l-44 -44q-5 -1 -15 -6t-14.5 -6t-14.5 0q-20 8 -22 42.5t8.5 79t26 92t29.5 80.5t20 44q13 23 66 89q-4 74 -4 110q-17 -29 -37 -57l-44 -44q-37 -33 -64 -42.5
t-41 0t-21 33t-6 54t7 65.5q13 74 45.5 131t88.5 117l44 44q47 24 75 27.5t51.5 -9.5t62.5 -51l-44 -44l-28 26q-14 -85 -44 -159q-2 -52 3 -152zM213 574q-24 -18 -29.5 -17t-10.5 34q-4 24 0 34q3 6 7.5 12t11 12.5t9.5 10.5l44 44l19 9l12 5q1 1 7 3.5t8 3t13 3.5t22 7
l-44 -44l-28 -9q-15 -4 -31 -12q-4 -2 -7 -3q-3 -9 1 -32q5 -33 10.5 -34t29.5 17zM293 135l-2 -2zM293 135l17 17q21 20 24 23.5t15 15t14.5 13t23.5 20.5l40 35l-44 -44l-40 -35q-20 -17 -23 -20t-14 -13z" />
    <glyph glyph-name="Hcircumflex" unicode="&#x124;" horiz-adv-x="486" 
d="M38 683l44 44q2 -82 14 -230t15 -200q2 -29 3 -156q10 18 23 36l44 44q28 18 87.5 44t86.5 44q31 42 48.5 98t31 132t21.5 108l44 44q0 -124 -11 -371t-11 -371l-44 -44q0 84 3.5 179t8.5 209t7 179q-27 -97 -80 -150l-44 -44q-29 -24 -92 -52l-76 -34
q-12 -22 -19.5 -48.5t-9.5 -44.5t-5 -52.5t-5 -52.5l-44 -44q-7 58 -8 164q-1 105 -3 139q-4 60 -15 201q-12 148 -14 229zM157 655l44 44l9 8l41 46l44 44q15 -9 29 -18.5t35.5 -26t27.5 -20.5l-44 -44q-75 55 -89 63l-15 -16l-44 -44z" />
    <glyph glyph-name="hcircumflex" unicode="&#x125;" horiz-adv-x="556" 
d="M107 113q3 41 4 93q-15 -43 -4 -93zM159 289l-4 -5q-1 -157 -21 -254l-44 -44q-35 88 -31 138t52 116q1 18 1 52v45q-5 -22 -9 -43l-44 -44q18 94 57 226q7 103 30 184l3 3l29 29q-6 0 -10.5 -4.5t-10 -13t-8.5 -11.5l29 29l12 12q4 3 10.5 13t12 15t12.5 3q1 0 -33 -109
l-32 -106q-4 -48 -5 -229l24 24q50 41 86.5 51.5t57 -4t34 -44t21.5 -67.5l14 -75q7 -38 19 -67t30 -43t50.5 -2t78.5 54l-44 -44q-45 -41 -77 -53.5t-50 0t-30 40t-19 63.5l-14 73q-7 37 -19 67.5t-30 48.5t-50.5 13t-77.5 -37zM46 677l44 44q2 1 19 16l29 25
q12 10 30 22.5t32.5 18.5t24.5 5q18 -3 56 -27t50 -29l-44 -44q-12 5 -50 29.5t-56 26.5q-10 1 -24.5 -5t-32 -18.5t-30 -22.5t-29.5 -25t-19 -16z" />
    <glyph glyph-name="Hbar" unicode="&#x126;" horiz-adv-x="643" 
d="M403 408q14 43 30 131l-185 -12q-63 -3 -154 2q0 -12 4.5 -65t6.5 -82l6 6q53 0 150.5 9t141.5 11zM390 372l-8 -8q-51 0 -144.5 -8.5t-129.5 -10.5q2 -25 3 -48q2 -29 3 -156q10 18 23 36l44 44q28 18 87.5 44t86.5 44q20 27 35 63zM-48 538l44 44q20 -1 47 -3
q-4 56 -5 104l44 44q2 -65 8 -151q130 -9 202 -5l149 9q8 40 15 67l44 44q0 -51 -1 -107q95 6 158 9l-44 -44q-50 -2 -115 -6l-11 -265q-9 -214 -9 -329l-44 -44q0 84 3.5 179t8.5 209t7 179q-27 -97 -80 -150l-44 -44q-29 -24 -92 -52l-76 -34q-12 -22 -19.5 -48.5
t-9.5 -44.5t-5 -52.5t-5 -52.5l-44 -44q-7 58 -8 164q-1 104 -3 139q-4 66 -11 157q-8 103 -10 122q-70 5 -94 6z" />
    <glyph glyph-name="hbar" unicode="&#x127;" horiz-adv-x="556" 
d="M107 113q3 41 4 93q-15 -43 -4 -93zM-23 527l44 44l47 -9q36 -6 56 -9q8 57 22 107l3 3l29 29q-6 0 -10.5 -4.5t-10 -13t-8.5 -11.5l29 29l12 12q4 3 10.5 13t12 15t12.5 3l-3 -10l-12.5 -41l-17.5 -58l-24 -79q121 -17 213 -4l-44 -44q-80 -11 -179 0q-2 -39 -3 -208
l24 24q50 41 86.5 51.5t57 -4t34 -44t21.5 -67.5l14 -75q7 -38 19 -67t30 -43t50.5 -2t78.5 54l-44 -44q-45 -41 -77 -53.5t-50 0t-30 40t-19 63.5l-14 73q-7 37 -19 67.5t-30 48.5t-50.5 13t-77.5 -37l-4 -5q-1 -157 -21 -254l-44 -44q-35 88 -31 138t52 116q1 18 1 52v45
q-5 -22 -9 -43l-44 -44q18 94 57 226l2 28q-16 2 -141 23z" />
    <glyph glyph-name="Itilde" unicode="&#x128;" horiz-adv-x="317" 
d="M127 655l44 44q-19 -103 -28 -190t-8.5 -184.5t20.5 -191t60 -178.5l-44 -44q-40 85 -60 178.5t-20.5 191t8.5 184.5t28 190zM261 729l-13 -13q-6 0 -17 -2t-20.5 -3t-17.5 0q-20 2 -66.5 15.5t-75.5 6.5l-1 -1l-44 -44l25 39l44 44q22 8 43.5 8t37 -5t38.5 -11.5
t43 -7.5q11 -1 45 4q3 11 5 19l44 44q-2 -7 -4 -15t-3 -10.5t-2 -5.5t-3.5 -5t-4.5 -4l-9 -9l-13 -13l-15 -15zM261 729q15 14 16 16z" />
    <glyph glyph-name="itilde" unicode="&#x129;" horiz-adv-x="259" 
d="M173 9q-6 -3 -17 -10t-20.5 -11.5t-18.5 -5.5q-27 -2 -46.5 20t-30 60t-16.5 79.5t-7.5 86.5t-1 72.5t1.5 45.5q1 8 1 15l-3 -3q3 53 30 137l44 44l-7 -29q-6 -22 -8 -31.5t-5 -26.5t-5 -31.5t-3 -30.5q-1 -18 -1.5 -45.5t0.5 -72.5t7.5 -87t17 -79.5t30 -59.5t46.5 -20
q12 1 29 11q10 17 39 56l44 44l-15 -19q-8 -11 -8.5 -12t-5 -7.5t-5.5 -8.5t-8 -14l-14 -23zM19 623l-40 -40l11 33l44 44q33 9 64.5 8.5t55 -5t54 2t62.5 30.5l-44 -44q-29 -21 -56.5 -28.5t-49 -4.5t-48.5 4.5t-53 -0.5z" />
    <glyph glyph-name="Imacron" unicode="&#x12a;" horiz-adv-x="306" 
d="M127 655l44 44q-19 -103 -28 -190t-8.5 -184.5t20.5 -191t60 -178.5l-44 -44q-40 85 -60 178.5t-20.5 191t8.5 184.5t28 190zM35 741l44 44q15 1 58 3.5t65 4t56 5t62 7.5l-44 -44q-28 -4 -62 -7.5t-56 -5t-65 -4t-58 -3.5z" />
    <glyph glyph-name="imacron" unicode="&#x12b;" horiz-adv-x="259" 
d="M173 9q-6 -3 -17 -10t-20.5 -11.5t-18.5 -5.5q-27 -2 -46.5 20t-30 60t-16.5 79.5t-7.5 86.5t-1 72.5t1.5 45.5q1 8 1 15l-3 -3q3 53 30 137l44 44l-7 -29q-6 -22 -8 -31.5t-5 -26.5t-5 -31.5t-3 -30.5q-1 -18 -1.5 -45.5t0.5 -72.5t7.5 -87t17 -79.5t30 -59.5t46.5 -20
q12 1 29 11q10 17 39 56l44 44l-15 -19q-8 -11 -8.5 -12t-5 -7.5t-5.5 -8.5t-8 -14l-14 -23zM-62 591l44 44q21 0 66 1.5t79.5 1t65.5 -4.5l-44 -44q-31 4 -65.5 4.5t-79.5 -1t-66 -1.5z" />
    <glyph glyph-name="Ibreve" unicode="&#x12c;" horiz-adv-x="278" 
d="M127 655l44 44q-19 -103 -28 -190t-8.5 -184.5t20.5 -191t60 -178.5l-44 -44q-40 85 -60 178.5t-20.5 191t8.5 184.5t28 190zM90 795l44 44q22 -39 40 -47.5t61 -1.5q1 3 5 14l8 20l44 44l-8 -22q-5 -11 -5.5 -12t-4 -7t-5.5 -7t-11 -10t-18 -19l-44 -44q-46 -8 -64.5 0
t-41.5 48z" />
    <glyph glyph-name="ibreve" unicode="&#x12d;" horiz-adv-x="259" 
d="M173 9q-6 -3 -17 -10t-20.5 -11.5t-18.5 -5.5q-27 -2 -46.5 20t-30 60t-16.5 79.5t-7.5 86.5t-1 72.5t1.5 45.5q1 8 1 15l-3 -3q3 53 30 137l44 44l-7 -29q-6 -22 -8 -31.5t-5 -26.5t-5 -31.5t-3 -30.5q-1 -18 -1.5 -45.5t0.5 -72.5t7.5 -87t17 -79.5t30 -59.5t46.5 -20
q12 1 29 11q10 17 39 56l44 44l-15 -19q-8 -11 -8.5 -12t-5 -7.5t-5.5 -8.5t-8 -14l-14 -23zM-10 669l44 44q13 -35 24.5 -46.5t43.5 -14.5l-7 -11q-2 -2 -4 -4.5t-5 -5t-10 -9.5l-14 -14q-34 2 -46.5 13.5t-25.5 47.5zM102 652h4l14 14l9 9q3 3 5.5 5t4.5 4.5t3 4.5
t5.5 9.5t8.5 13.5l-44 -44z" />
    <glyph glyph-name="Iogonek" unicode="&#x12e;" horiz-adv-x="201" 
d="M127 655l44 44q-19 -103 -28 -190t-8.5 -184.5t20.5 -191t60 -178.5l-44 -44q-9 19 -17 38l-6 -6q-10 -2 -20 -3l-14 -2q-4 0 -7 -1q-7 -27 -8.5 -50t2.5 -45.5t23 -32t52 -2.5l-44 -44q-28 -6 -46 1.5t-25 22.5t-7 37.5t3.5 42.5t9.5 41l44 44l15 12l12 9q3 3 6 5
q-29 78 -42 163.5t-11.5 173.5t10.5 167.5t26 172.5z" />
    <glyph glyph-name="iogonek" unicode="&#x12f;" horiz-adv-x="259" 
d="M69 634q1 -6 2 -8l5 5q-3 2 -7 3zM81 621q-1 4 -2 7l-6 -6q2 -2 8 -1zM68 579q-10 0 -20.5 -1t-12.5 -1.5t-5.5 2t-3.5 5t-2 12.5l-4 21l16 16l-4 -1l44 44q39 9 46.5 -5t-10.5 -48zM54 -12l18 13q-22 24 -36 75.5t-17 109t-3.5 96.5t1.5 64q1 8 1 15l-3 -3q3 53 30 137
l44 44l-7 -29q-6 -22 -8 -31.5t-5 -26.5t-5 -31.5t-3 -30.5q-1 -18 -1.5 -45.5t0.5 -72.5t7.5 -87t17 -79.5t30 -59.5t46.5 -20q12 1 29 11q10 17 39 56l44 44l-15 -19q-8 -11 -8.5 -12t-5 -7.5t-5.5 -8.5t-8 -14l-14 -23l-44 -44q-6 -3 -17 -10t-20.5 -11.5t-18.5 -5.5
q-13 -1 -24 4l-9 -9q-8 -1 -16.5 -2.5t-12 -2t-6.5 -1.5q-4 -17 -6.5 -34t-1.5 -36t9.5 -31t25.5 -12q7 0 13 4t13.5 11t11.5 10l-44 -44q-4 -3 -11.5 -10t-13.5 -11t-13 -4q-19 0 -28 16.5t-7.5 40t5.5 42.5t8 31z" />
    <glyph glyph-name="Idotaccent" unicode="&#x130;" horiz-adv-x="202" 
d="M127 655l44 44q-19 -103 -28 -190t-8.5 -184.5t20.5 -191t60 -178.5l-44 -44q-40 85 -60 178.5t-20.5 191t8.5 184.5t28 190zM215 783q0 -13 -9 -22t-22 -9t-22 9t-9 22t9 22t22 9t22 -9t9 -22z" />
    <glyph glyph-name="dotlessi" unicode="&#x131;" horiz-adv-x="259" 
d="M173 9q-6 -3 -17 -10t-20.5 -11.5t-18.5 -5.5q-27 -2 -46.5 20t-30 60t-16.5 79.5t-7.5 86.5t-1 72.5t1.5 45.5q1 8 1 15l-3 -3q3 53 30 137l44 44l-7 -29q-6 -22 -8 -31.5t-5 -26.5t-5 -31.5t-3 -30.5q-1 -18 -1.5 -45.5t0.5 -72.5t7.5 -87t17 -79.5t30 -59.5t46.5 -20
q12 1 29 11q10 17 39 56l44 44l-15 -19q-8 -11 -8.5 -12t-5 -7.5t-5.5 -8.5t-8 -14l-14 -23z" />
    <glyph glyph-name="IJ" unicode="&#x132;" horiz-adv-x="403" 
d="M128 707l44 44q-19 -103 -28 -190t-8.5 -184.5t20.5 -191t60 -178.5l-44 -44q-40 85 -60 178.5t-20.5 191t8.5 184.5t28 190zM144 -193q-4 8 -8.5 18t-6.5 15t-5.5 10t-7 7t-7.5 1q-8 -40 6 -77t43.5 -58.5t69 -29.5t82.5 8q18 6 32 16q11 21 18 44t10 41.5t2.5 46
t-1.5 42.5t-5 47.5t-5 45.5q-16 172 -14 297l9 378l44 44l-9 -378q-3 -125 14 -297q1 -13 5 -47t5 -48.5t1.5 -43.5t-3 -47t-11 -42t-20.5 -45l-44 -44l-14 -13q-9 -10 -13 -13.5t-11.5 -9.5t-15.5 -10t-18 -8q-36 -13 -72 -9.5t-63 20.5t-46.5 43.5t-22 60.5t10.5 71l44 44
q14 8 22.5 11t14 4.5t10 -4t6.5 -9.5l8 -17l10 -21z" />
    <glyph glyph-name="ij" unicode="&#x133;" horiz-adv-x="427" 
d="M18 361l-3 -3q3 53 30 137l44 44l-7 -29q-6 -22 -8 -31.5t-5 -26.5t-5 -31.5t-3 -30.5q-1 -18 -1.5 -45.5t0.5 -72.5t7.5 -87t17 -79.5t30 -59.5t46.5 -20q12 1 28 10l1 2q10 16 39 55l44 44q-29 -38 -33 -45l27 31q20 24 38 49q4 52 3 110v25v28q0 12 -0.5 27.5
t-2.5 26.5t-5.5 22.5t-9.5 17.5t-14 9t-20.5 0.5t-27.5 -11.5q-26 -36 -32 -85l-44 -44q5 38 17 60.5t40 56.5l44 44q19 13 34 19.5t25 5t17.5 -6t11.5 -16t7 -22.5t3.5 -28t0.5 -29v-30v-26q1 -47 -2 -90q24 37 47 77l44 44q-43 -76 -92 -142q-18 -240 -147 -392l-44 -44
q-35 -20 -57 -15.5t-31.5 23t-7.5 46t15 54.5q25 50 78 111q-24 -15 -38 -16q-27 -2 -46.5 20t-30 60t-16.5 79.5t-7.5 86.5t-1 72.5t1.5 45.5q1 8 1 15zM173 9l-3 -2q-31 -39 -49 -76q-17 -34 -15.5 -67.5t21 -48.5t59.5 0q100 139 118 344q-14 -17 -70 -77l-17 -29z
M69 634q1 -6 2 -8l5 5q-3 2 -7 3zM81 621q-1 4 -2 7l-6 -6q2 -2 8 -1zM68 579q-10 0 -20.5 -1t-12.5 -1.5t-5.5 2t-3.5 5t-2 12.5l-4 21l16 16l-4 -1l44 44q39 9 46.5 -5t-10.5 -48zM266 631l44 44q-3 -6 -6 -11l8 8l8 -14q4 -8 5.5 -9t1.5 -5.5t-1.5 -5.5t-5.5 -8l-7 -16
l-44 -44l-13 13q-6 7 -7 7.5t-1.5 5t1.5 6.5t7 11z" />
    <glyph glyph-name="Jcircumflex" unicode="&#x134;" horiz-adv-x="311" 
d="M-62 -184q-4 8 -8.5 18t-6.5 15t-5.5 10t-7 7t-7.5 1q-8 -40 6.5 -77t44 -58.5t69 -29.5t82.5 8q18 6 32 16q11 21 18 44t10 41.5t2.5 46t-1.5 42.5t-5 47.5t-5 45.5q-16 172 -14 297l9 378l44 44l-9 -378q-3 -125 14 -297q1 -13 5 -47t5 -48.5t1.5 -43.5t-3 -47t-11 -42
t-20.5 -45l-44 -44l-13 -14l-14 -12.5t-11.5 -9.5t-15.5 -10t-18 -8q-36 -13 -72 -9.5t-63 20t-46.5 43.5t-22.5 60.5t10 71.5l44 44q14 8 22.5 11t14 4.5t10 -4t6.5 -9.5l8 -16l10 -22zM56 713l44 44q28 19 45 29.5t34 15t25.5 5t23.5 -7t24 -15.5l32 -25l41 -32l-44 -44
l-41 32l-32 25q-9 8 -24 15.5t-23.5 7t-25.5 -5t-34 -15t-45 -29.5z" />
    <glyph glyph-name="jcircumflex" unicode="&#x135;" horiz-adv-x="250" 
d="M128 173q4 52 3 110v25v28q0 12 -0.5 27.5t-2.5 26.5t-5.5 22.5t-9.5 17.5t-14 9t-20.5 0.5t-27.5 -11.5q-26 -36 -32 -85l-44 -44q5 38 17 60.5t40 56.5l44 44q19 13 34 19.5t25 5t17.5 -6t11.5 -16t7 -22.5t3.5 -28t0.5 -29v-29v-27q1 -47 -2 -90q24 37 47 77l44 44
q-43 -76 -92 -142q-18 -240 -147 -392l-44 -44q-35 -20 -57 -15.5t-31.5 23t-7.5 46t15 54.5q20 40 51 79.5t75 86.5q44 46 64 70q21 25 38 49zM9 -184q100 139 118 344q-16 -19 -61 -67t-74 -85t-48 -76q-17 -34 -15.5 -67.5t21 -48.5t59.5 0zM-21 539l44 44l25 19l32 24
q9 6 23 12t18 6t16.5 -6t19.5 -13l25 -24q29 -28 50 -46l-44 -44l-50 46l-25 24q-7 7 -19.5 13t-16.5 6t-18 -6t-23 -12l-32 -24z" />
    <glyph glyph-name="Kcommaaccent" unicode="&#x136;" horiz-adv-x="466" 
d="M48 660l44 44l6 -375l26 31l53 61l65 67l69 65l66 58l61 56l42 -46l-61 -56l-66 -58l-67 -63l-63 -65l-51 -59l-35 -42l-3 -4q18 -12 36 -26l42 -35l35 -30l63 -49l73 -61t59 -54l-44 -44q-27 28 -58 55l-74 60l-63 49q-11 9 -32.5 28t-38 32t-32.5 24l4 -174l-44 -44
q-5 225 -12 655zM226 -68l44 44q15 6 25.5 6t16 -3t8.5 -12.5t3.5 -17t0.5 -22.5t1 -23l-22 -22l-22 -22l-11 -12l-7 -7t-5 -3t-5.5 -1.5t-10.5 0t-18 -1.5l44 44q6 0 12 1v5q0 15 -0.5 22t-3.5 16.5t-8.5 12t-16 2.5t-25.5 -6z" />
    <glyph glyph-name="kcommaaccent" unicode="&#x137;" horiz-adv-x="346" 
d="M56 214h6h7q-2 21 -4 49q-5 -24 -9 -49zM51 144q0 -50 9 -100q7 39 9 83q-9 10 -18 17zM146 237q16 20 24 38q10 21 16.5 49.5t2 61t-28.5 41.5q-9 4 -25 -5q-17 -26 -31 -53q9 -110 10 -148q13 5 32 16zM60 672l44 44q-10 -182 -4 -288q1 -16 2 -34l13 17l44 44
q5 2 14 7.5t16.5 8t14.5 0.5q24 -9 28.5 -41.5t-2.5 -61t-16 -49.5q-5 -11 -13 -22.5t-11.5 -16t-17.5 -20t-15 -16.5l-43 -43q0 -15 -1 -30q14 -14 32 -37l31 -40q13 -16 33 -33t39.5 -24.5t48.5 -7t63 13.5l-44 -44q-32 -12 -60 -13t-46.5 4.5t-39 22.5t-31 29t-29.5 37
q-4 6 -7 8q-10 -51 -32 -96l-44 -44q-29 113 -15 221q-2 1 -5 2l6 6q12 79 47 149q-3 35 -4 59q-6 106 4 288zM156 -126l44 44q17 5 28.5 5.5t16 -5t6.5 -11.5t-1.5 -19l-5.5 -20l-8 -23q-3 -8 -4 -13l-4 -10q-2 -6 -3 -10l-44 -44l5 14l6 19l8 23q2 8 5.5 20.5t1.5 18.5
t-6.5 12t-16 5.5t-28.5 -6.5z" />
    <glyph glyph-name="kgreenlandic" unicode="&#x138;" horiz-adv-x="346" 
d="M56 214h6h7q-2 21 -4 49q-5 -24 -9 -49zM51 144q0 -50 9 -100q7 39 9 83q-9 10 -18 17zM146 237q16 20 24 38q10 21 16.5 49.5t2 61t-28.5 41.5q-9 4 -25 -5q-17 -26 -31 -53q9 -110 10 -148q13 5 32 16zM60 672l44 44q-10 -182 -4 -288q1 -16 2 -34l13 17l44 44
q5 2 14 7.5t16.5 8t14.5 0.5q24 -9 28.5 -41.5t-2.5 -61t-16 -49.5q-5 -11 -13 -22.5t-11.5 -16t-17.5 -20t-15 -16.5l-43 -43q0 -15 -1 -30q14 -14 32 -37l31 -40q13 -16 33 -33t39.5 -24.5t48.5 -7t63 13.5l-44 -44q-32 -12 -60 -13t-46.5 4.5t-39 22.5t-31 29t-29.5 37
q-4 6 -7 8q-10 -51 -32 -96l-44 -44q-29 113 -15 221q-2 1 -5 2l6 6q12 79 47 149q-3 35 -4 59q-6 106 4 288z" />
    <glyph glyph-name="Lacute" unicode="&#x139;" horiz-adv-x="373" 
d="M289 525q-3 10 -7 25.5t-7 28.5t-7.5 27.5t-9 25t-11.5 20t-15 13.5t-19.5 3.5t-24.5 -7.5q-26 -53 -42 -121t-21 -114.5t-11.5 -132.5t-9.5 -121q0 -2 -5 -56t-6 -66q0 -1 -1.5 -10.5t-3.5 -20.5t-4 -23.5t-2.5 -19.5t0.5 -8q8 -1 36 22l65 54q36 29 75 53t74.5 23
t54.5 -37l-44 -44q-19 36 -54.5 37t-74.5 -23t-75 -53l-65 -53q-28 -24 -36 -23q-1 1 0 8t2.5 19.5t3.5 23.5t3.5 20.5t1.5 10.5q2 12 6.5 66t4.5 56q4 37 8.5 102.5t8.5 108.5t12.5 98.5t24.5 105t40 94.5l44 44q22 19 39.5 27t29.5 4t20.5 -13t15.5 -26.5t11 -32.5l10 -38
q5 -21 9 -33zM68 716l44 44q53 10 135 42l-44 -44q-82 -32 -135 -42z" />
    <glyph glyph-name="lacute" unicode="&#x13a;" horiz-adv-x="229" 
d="M177 653q-66 -129 -74 -325q54 94 82 205q10 37 12.5 65.5t-0.5 42.5t-10 14q-5 0 -10 -2zM58 251l-37 -37q20 21 38 46q4 225 83 365l44 44q5 3 13.5 11.5t16 13.5t15.5 5q7 0 10 -14t0 -42.5t-12 -65.5q-41 -157 -127 -273q-2 -154 30 -311l-44 -44q-31 152 -30 302z
M46 697l44 44q19 7 40.5 16t47 21t39.5 18l-44 -44q-14 -6 -39.5 -18t-47 -21t-40.5 -16z" />
    <glyph glyph-name="Lcommaaccent" unicode="&#x13b;" horiz-adv-x="373" 
d="M289 525q-3 10 -7 25.5t-7 28.5t-7.5 27.5t-9 25t-11.5 20t-15 13.5t-19.5 3.5t-24.5 -7.5q-26 -53 -42 -121t-21 -114.5t-11.5 -132.5t-9.5 -121q0 -2 -5 -56t-6 -66q0 -1 -1.5 -10.5t-3.5 -20.5t-4 -23.5t-2.5 -19.5t0.5 -8q8 -1 36 22l65 54q36 29 75 53t74.5 23
t54.5 -37l-44 -44q-19 36 -54.5 37t-74.5 -23t-75 -53l-65 -53q-28 -24 -36 -23q-1 1 0 8t2.5 19.5t3.5 23.5t3.5 20.5t1.5 10.5q2 12 6.5 66t4.5 56q4 37 8.5 102.5t8.5 108.5t12.5 98.5t24.5 105t40 94.5l44 44q22 19 39.5 27t29.5 4t20.5 -13t15.5 -26.5t11 -32.5l10 -38
q5 -21 9 -33zM207 -125l44 44q4 1 11.5 6.5t11 7t10.5 -0.5q17 -10 18 -36t-5 -45.5t-15 -38.5l-44 -44q9 19 15 38.5t5 45.5t-18 36q-7 2 -10.5 0.5t-11 -6.5t-11.5 -7z" />
    <glyph glyph-name="lcommaaccent" unicode="&#x13c;" horiz-adv-x="229" 
d="M177 653q-66 -129 -74 -325q54 94 82 205q10 37 12.5 65.5t-0.5 42.5t-10 14q-5 0 -10 -2zM58 251l-37 -37q20 21 38 46q4 225 83 365l44 44q5 3 13.5 11.5t16 13.5t15.5 5q7 0 10 -14t0 -42.5t-12 -65.5q-41 -157 -127 -273q-2 -154 30 -311l-44 -44q-31 152 -30 302z
M92 -136l-21 -21l19 25l44 44q10 -18 14.5 -30.5t2.5 -24.5t-5 -18.5t-12.5 -24t-15.5 -29.5l-44 -44q6 12 15.5 29t12.5 23.5t5 18.5t-2 23.5t-13 28.5z" />
    <glyph glyph-name="Lcaron" unicode="&#x13d;" horiz-adv-x="477" 
d="M289 525q-3 10 -7 25.5t-7 28.5t-7.5 27.5t-9 25t-11.5 20t-15 13.5t-19.5 3.5t-24.5 -7.5q-26 -53 -42 -121t-21 -114.5t-11.5 -132.5t-9.5 -121q0 -2 -5 -56t-6 -66q0 -1 -1.5 -10.5t-3.5 -20.5t-4 -23.5t-2.5 -19.5t0.5 -8q8 -1 36 22l65 54q36 29 75 53t74.5 23
t54.5 -37l-44 -44q-19 36 -54.5 37t-74.5 -23t-75 -53l-65 -53q-28 -24 -36 -23q-1 1 0 8t2.5 19.5t3.5 23.5t3.5 20.5t1.5 10.5q2 12 6.5 66t4.5 56q4 37 8.5 102.5t8.5 108.5t12.5 98.5t24.5 105t40 94.5l44 44q22 19 39.5 27t29.5 4t20.5 -13t15.5 -26.5t11 -32.5l10 -38
q5 -21 9 -33zM409 655l44 44q16 -4 25 -9.5t12 -11t0 -15.5t-8 -17l-12 -20q-8 -13 -13 -22l-44 -44q5 9 13.5 22.5t12.5 20.5t7 16.5t0 15t-11.5 11t-25.5 9.5z" />
    <glyph glyph-name="lcaron" unicode="&#x13e;" horiz-adv-x="335" 
d="M177 653q-66 -129 -74 -325q54 94 82 205q10 37 12.5 65.5t-0.5 42.5t-10 14q-5 0 -10 -2zM58 251l-37 -37q20 21 38 46q4 225 83 365l44 44q5 3 13.5 11.5t16 13.5t15.5 5q7 0 10 -14t0 -42.5t-12 -65.5q-41 -157 -127 -273q-2 -154 30 -311l-44 -44q-31 152 -30 302z
M303 630l44 44q5 -45 -10 -82.5t-48 -79.5l-44 -44q33 42 48 79.5t10 82.5z" />
    <glyph glyph-name="Ldot" unicode="&#x13f;" horiz-adv-x="373" 
d="M289 525q-3 10 -7 25.5t-7 28.5t-7.5 27.5t-9 25t-11.5 20t-15 13.5t-19.5 3.5t-24.5 -7.5q-26 -53 -42 -121t-21 -114.5t-11.5 -132.5t-9.5 -121q0 -2 -5 -56t-6 -66q0 -1 -1.5 -10.5t-3.5 -20.5t-4 -23.5t-2.5 -19.5t0.5 -8q8 -1 36 22l65 54q36 29 75 53t74.5 23
t54.5 -37l-44 -44q-19 36 -54.5 37t-74.5 -23t-75 -53l-65 -53q-28 -24 -36 -23q-1 1 0 8t2.5 19.5t3.5 23.5t3.5 20.5t1.5 10.5q2 12 6.5 66t4.5 56q4 37 8.5 102.5t8.5 108.5t12.5 98.5t24.5 105t40 94.5l44 44q22 19 39.5 27t29.5 4t20.5 -13t15.5 -26.5t11 -32.5l10 -38
q5 -21 9 -33zM309 338q0 -13 -9 -22t-22 -9t-22 9t-9 22t9 22t22 9t22 -9t9 -22z" />
    <glyph glyph-name="ldot" unicode="&#x140;" horiz-adv-x="238" 
d="M177 653q-66 -129 -74 -325q54 94 82 205q10 37 12.5 65.5t-0.5 42.5t-10 14q-5 0 -10 -2zM58 251l-37 -37q20 21 38 46q4 225 83 365l44 44q5 3 13.5 11.5t16 13.5t15.5 5q7 0 10 -14t0 -42.5t-12 -65.5q-41 -157 -127 -273q-2 -154 30 -311l-44 -44q-31 152 -30 302z
M251 349q0 -13 -9 -22t-22 -9t-22 9t-9 22t9 22t22 9t22 -9t9 -22z" />
    <glyph glyph-name="Lslash" unicode="&#x141;" horiz-adv-x="373" 
d="M-56 196l44 44l84 43q8 112 25 195.5t57 158.5l44 44q22 19 39.5 27t29.5 4t20.5 -13t15.5 -26.5t11 -32.5l10 -38q5 -21 9 -33l-44 -44q-3 10 -7 25.5t-7 28.5t-7.5 27.5t-9 25t-11.5 20t-15 13.5t-19.5 3.5t-24.5 -7.5q-36 -75 -50.5 -157t-23.5 -198l178 99l-44 -44
l-135 -76q-5 -76 -9 -113q0 -2 -5 -56t-6 -66q0 -1 -1.5 -10.5t-3.5 -20.5t-4 -23.5t-2.5 -19.5t0.5 -8q8 -1 36 22l65 54q36 29 75 53t74.5 23t54.5 -37l-44 -44q-19 36 -54.5 37t-74.5 -23t-75 -53l-65 -53q-28 -24 -36 -23q-1 1 0 8t2.5 19.5t3.5 23.5t3.5 20.5t1.5 10.5
q2 12 6.5 66t4.5 56q3 33 11 134q-71 -39 -127 -66z" />
    <glyph glyph-name="lslash" unicode="&#x142;" horiz-adv-x="333" 
d="M112 435l49 20q14 39 24 78q10 37 12.5 65.5t-0.5 42.5t-10 14q-5 0 -10 -2q-47 -91 -65 -218zM109 408q-4 -39 -6 -80q25 45 46 95l-6 -2q-15 -5 -34 -13zM-54 355l44 44q37 4 83 20q21 120 69 206l44 44q5 3 13.5 11.5t16 13.5t15.5 5q7 0 10 -14t0 -42.5t-12 -65.5
q-15 -56 -36 -110q26 9 78 24.5t76 23.5l-44 -44q-23 -8 -66.5 -21t-58.5 -17q-33 -72 -76 -129q-2 -154 30 -311l-44 -44q-31 152 -30 302l-37 -37q20 21 38 46q1 69 10 131q-76 -31 -123 -36z" />
    <glyph glyph-name="Nacute" unicode="&#x143;" horiz-adv-x="556" 
d="M89 8q-3 53 -2 182t-4 195q-79 153 -58 248l44 44q48 -90 58 -248q89 -171 262 -355q-9 106 -10 203.5t19 202t63 189.5l6 6l18 18q-4 -1 -18 -18l18 18l20 20q3 3 9 10.5t11 11.5t11 3q5 -1 10.5 -11.5t9.5 -26.5l6 -32q3 -14 5 -29.5t3 -17.5l-44 -44q0 1 -4 22l-6 37
q-3 17 -9 34.5t-12 22.5q-34 -74 -52 -159.5t-19.5 -176t3.5 -168t17 -171.5l-44 -44q-62 60 -136.5 148.5t-132.5 180.5q0 -25 -0.5 -82t0 -96t2.5 -73zM240 658l44 44q64 51 161 89l-44 -44q-97 -38 -161 -89z" />
    <glyph glyph-name="nacute" unicode="&#x144;" horiz-adv-x="386" 
d="M38 479l44 44q-1 -36 -3.5 -109t-2.5 -110v-56q27 70 73 132l44 44q2 1 7 6l10 10q5 5 12.5 9.5t13.5 6.5t13 1.5t13 -4.5q10 -8 16 -74.5t8.5 -142t14 -141.5t31.5 -73q14 -3 22 -3t23 3t23 3l-44 -44q-7 0 -22.5 -2.5t-23 -3t-22.5 2.5q-20 7 -31.5 73t-14 141.5
t-8.5 142t-16 74.5q-15 12 -38 -2q-23 -34 -40.5 -72t-27.5 -64.5t-20 -76t-13 -70.5l-12 -83l-44 -44q7 39 9 80.5t1 101.5t-1 81q1 37 3.5 110t2.5 109zM128 519l44 44q45 12 143 56l-44 -44q-97 -44 -143 -56z" />
    <glyph glyph-name="Ncommaaccent" unicode="&#x145;" horiz-adv-x="556" 
d="M89 8q-3 53 -2 182t-4 195q-79 153 -58 248l44 44q48 -90 58 -248q89 -171 262 -355q-9 106 -10 203.5t19 202t63 189.5l6 6l18 18q-4 -1 -18 -18l18 18l20 20q3 3 9 10.5t11 11.5t11 3q5 -1 10.5 -11.5t9.5 -26.5l6 -32q3 -14 5 -29.5t3 -17.5l-44 -44q0 1 -4 22l-6 37
q-3 17 -9 34.5t-12 22.5q-34 -74 -52 -159.5t-19.5 -176t3.5 -168t17 -171.5l-44 -44q-62 60 -136.5 148.5t-132.5 180.5q0 -25 -0.5 -82t0 -96t2.5 -73zM257 -117l44 44q3 1 9 5.5t11 7t10 1.5q17 -4 24 -28t5.5 -48.5t-6.5 -38.5q-2 -6 -6 -11l-10 -11l-7 -10l-44 -44
q-10 1 -20 1h-11q-2 0 -7 1.5t-6.5 2.5t-10.5 6l-17 10l44 44q10 -5 21 -12q9 -6 12.5 -7t15.5 -1h5q3 18 3.5 39.5t-7 40.5t-22.5 22q-5 1 -10 -1.5t-11 -6.5z" />
    <glyph glyph-name="ncommaaccent" unicode="&#x146;" horiz-adv-x="386" 
d="M38 479l44 44q-1 -36 -3.5 -109t-2.5 -110v-56q27 70 73 132l44 44q2 1 7 6l10 10q5 5 12.5 9.5t13.5 6.5t13 1.5t13 -4.5q10 -8 16 -74.5t8.5 -142t14 -141.5t31.5 -73q14 -3 22 -3t23 3t23 3l-44 -44q-7 0 -22.5 -2.5t-23 -3t-22.5 2.5q-20 7 -31.5 73t-14 141.5
t-8.5 142t-16 74.5q-15 12 -38 -2q-23 -34 -40.5 -72t-27.5 -64.5t-20 -76t-13 -70.5l-12 -83l-44 -44q7 39 9 80.5t1 101.5t-1 81q1 37 3.5 110t2.5 109zM193 -115l44 44q4 0 12.5 1.5t14.5 1.5t11 -3q20 -15 15.5 -45.5t-18 -59t-27.5 -42.5l-44 -44q-10 -1 -18.5 0.5
t-10.5 0t-6 1.5t-5.5 4.5t-8 9t-14.5 14.5l44 44l15 -16q7 -7 8 -8.5t5 -4.5t7 -1t12 0q10 20 15 39t2.5 37t-15.5 27q-5 3 -11 3t-14.5 -1.5t-12.5 -1.5z" />
    <glyph glyph-name="Ncaron" unicode="&#x147;" horiz-adv-x="556" 
d="M89 8q-3 53 -2 182t-4 195q-79 153 -58 248l44 44q48 -90 58 -248q89 -171 262 -355q-9 106 -10 203.5t19 202t63 189.5l6 6l18 18q-4 -1 -18 -18l18 18l20 20q3 3 9 10.5t11 11.5t11 3q5 -1 10.5 -11.5t9.5 -26.5l6 -32q3 -14 5 -29.5t3 -17.5l-44 -44q0 1 -4 22l-6 37
q-3 17 -9 34.5t-12 22.5q-34 -74 -52 -159.5t-19.5 -176t3.5 -168t17 -171.5l-44 -44q-62 60 -136.5 148.5t-132.5 180.5q0 -25 -0.5 -82t0 -96t2.5 -73zM159 761l44 44q16 -35 32 -54t44 -38q56 89 70 107l44 44q-20 -26 -53 -79.5t-51 -77.5l-44 -44q-34 21 -51.5 41
t-34.5 57z" />
    <glyph glyph-name="ncaron" unicode="&#x148;" horiz-adv-x="386" 
d="M38 479l44 44q-1 -36 -3.5 -109t-2.5 -110v-56q27 70 73 132l44 44q2 1 7 6l10 10q5 5 12.5 9.5t13.5 6.5t13 1.5t13 -4.5q10 -8 16 -74.5t8.5 -142t14 -141.5t31.5 -73q14 -3 22 -3t23 3t23 3l-44 -44q-7 0 -22.5 -2.5t-23 -3t-22.5 2.5q-20 7 -31.5 73t-14 141.5
t-8.5 142t-16 74.5q-15 12 -38 -2q-23 -34 -40.5 -72t-27.5 -64.5t-20 -76t-13 -70.5l-12 -83l-44 -44q7 39 9 80.5t1 101.5t-1 81q1 37 3.5 110t2.5 109zM43 621l44 44q41 -46 71 -67q7 32 23 59l44 44q-11 -19 -18 -41t-9.5 -36.5t-5.5 -44.5l-44 -44q-31 15 -53.5 34.5
t-51.5 51.5z" />
    <glyph glyph-name="napostrophe" unicode="&#x149;" horiz-adv-x="386" 
d="M38 479l44 44q-1 -36 -3.5 -109t-2.5 -110v-56q27 70 73 132l44 44q2 1 7 6l10 10q5 5 12.5 9.5t13.5 6.5t13 1.5t13 -4.5q10 -8 16 -74.5t8.5 -142t14 -141.5t31.5 -73q14 -3 22 -3t23 3t23 3l-44 -44q-7 0 -22.5 -2.5t-23 -3t-22.5 2.5q-20 7 -31.5 73t-14 141.5
t-8.5 142t-16 74.5q-15 12 -38 -2q-23 -34 -40.5 -72t-27.5 -64.5t-20 -76t-13 -70.5l-12 -83l-44 -44q7 39 9 80.5t1 101.5t-1 81q1 37 3.5 110t2.5 109zM12 733l44 44q4 1 13 3.5t13.5 3.5t12.5 -1q19 -8 24 -31t0 -46.5t-15 -37.5q-4 -7 -10 -13l-15 -13l-12 -12l-10 -10
q2 2 3 4q10 14 15 37.5t0 46.5t-24 31q-8 2 -12.5 1t-13.5 -3.5t-13 -3.5zM57 620l-31 -31z" />
    <glyph glyph-name="Eng" unicode="&#x14a;" horiz-adv-x="556" 
d="M89 8q-3 53 -2 182t-4 195q-79 153 -58 248l44 44q48 -90 58 -248q89 -171 262 -355q-9 106 -10 203.5t19 202t63 189.5l6 6l18 18q-4 -1 -18 -18l18 18l20 20q3 3 9 10.5t11 11.5t11 3q5 -1 10.5 -11.5t9.5 -26.5l6 -32q3 -14 5 -29.5t3 -17.5l-44 -44q0 1 -4 22l-6 37
q-3 17 -9 34.5t-12 22.5q-34 -74 -52 -159.5t-19.5 -176t3.5 -168t17 -171.5l-5 -5q1 -13 5 -49.5t5 -56.5l-44 -44q-32 -31 -48 -31.5t-52 25.5l44 44q40 -28 55 -25q-1 17 -4.5 51t-4.5 52q-63 61 -135.5 147.5t-128.5 176.5q0 -25 -0.5 -82t0 -96t2.5 -73z" />
    <glyph glyph-name="eng" unicode="&#x14b;" horiz-adv-x="370" 
d="M48 458l44 44q-4 -64 0 -164q25 50 65 90l44 44q36 28 66 29.5t49 -17t33.5 -51.5t21 -64.5t10.5 -64.5q9 -84 -9 -264t-50 -236q-4 -7 -9 -13.5t-12.5 -14t-10.5 -11.5l-44 -44q-41 -2 -69.5 10.5t-64.5 42.5l44 44q34 -29 61 -41t64 -12q31 61 48 237t8 258
q-3 26 -8 51t-13.5 53.5t-21.5 48.5t-30 33.5t-41 12t-52 -20.5q-58 -75 -74 -188q5 -127 -5 -207l-44 -44q-6 132 5 207q-1 10 -3.5 59.5t-3 69.5t-0.5 56.5t2 66.5z" />
    <glyph glyph-name="Omacron" unicode="&#x14c;" horiz-adv-x="565" 
d="M390 139l30 40q20 25 26.5 34t18 28t20 37.5t19.5 46.5q15 39 23 83.5t7.5 92.5t-20 88.5t-57.5 60.5l-3 -3l-17 11q-9 3 -19 5q-13 3 -27.5 3t-32 -1.5t-27.5 -1.5l23 23q-45 1 -118 -51q-130 -148 -155 -313q-7 -47 -5 -90q1 -44 13 -86t37 -66.5t66 -30.5q40 -6 98 20
q46 21 89 59l-19 -19l-26 -27l-24 -19q-16 -13 -30 -21q-15 -9 -34 -17q-40 -17 -74 -19q-33 -3 -56 7t-40.5 30.5t-26.5 47.5t-13.5 59t-3.5 64q0 31 5 64q15 101 63 184q47 84 126 165l44 44q45 34 74.5 47.5t62.5 10.5t73 -27q47 -15 71.5 -55.5t26.5 -91t-6 -98
t-24 -88.5q-11 -28 -19.5 -47t-20 -37.5t-18.5 -27.5l-26 -35l-30 -39zM137 764l44 44q141 -3 312 -3l-44 -44q-171 0 -312 3zM379 128l7 7q-3 -2 -7 -7z" />
    <glyph glyph-name="omacron" unicode="&#x14d;" horiz-adv-x="347" 
d="M179 418q49 9 102 35q-36 8 -102 -35zM159 415q63 52 107.5 71.5t66 8t26.5 -45.5t-7 -86q-12 -51 -38 -116l-17 -40q-7 -15 -16.5 -30.5t-13.5 -21t-21 -26.5l-26 -33l-44 -44q-82 -73 -126 -51t-41 138q2 89 36 166t96 157l44 44l40 26l-44 -44l-19 -12
q-105 -146 -109 -293q-3 -107 34 -134t107 26q3 3 7 9q26 32 37.5 51.5t31.5 67.5q36 88 44.5 150.5t-14.5 88.5l-1 -1l-62 -32q-22 -11 -55 -22t-67 -16zM56 618l44 44q217 0 259 -2l-44 -44q-42 2 -259 2z" />
    <glyph glyph-name="Obreve" unicode="&#x14e;" horiz-adv-x="565" 
d="M390 139l30 40q20 25 26.5 34t18 28t20 37.5t19.5 46.5q15 39 23 83.5t7.5 92.5t-20 88.5t-57.5 60.5l-3 -3l-17 11q-9 3 -19 5q-13 3 -27.5 3t-32 -1.5t-27.5 -1.5l23 23q-45 1 -118 -51q-130 -148 -155 -313q-7 -47 -5 -90q1 -44 13 -86t37 -66.5t66 -30.5q40 -6 98 20
q46 21 89 59l-19 -19l-26 -27l-24 -19q-16 -13 -30 -21q-15 -9 -34 -17q-40 -17 -74 -19q-33 -3 -56 7t-40.5 30.5t-26.5 47.5t-13.5 59t-3.5 64q0 31 5 64q15 101 63 184q47 84 126 165l44 44q45 34 74.5 47.5t62.5 10.5t73 -27q47 -15 71.5 -55.5t26.5 -91t-6 -98
t-24 -88.5q-11 -28 -19.5 -47t-20 -37.5t-18.5 -27.5l-26 -35l-30 -39zM270 801l44 44q30 -49 60.5 -57.5t72.5 14.5q12 24 24 71l44 44q-9 -36 -18 -57.5t-27 -44.5l-44 -44q-52 -34 -87 -29t-69 59zM379 128l7 7q-3 -2 -7 -7z" />
    <glyph glyph-name="obreve" unicode="&#x14f;" horiz-adv-x="353" 
d="M179 418q49 9 102 35q-36 8 -102 -35zM159 415q63 52 107.5 71.5t66 8t26.5 -45.5t-7 -86q-12 -51 -38 -116l-17 -40q-7 -15 -16.5 -30.5t-13.5 -21t-21 -26.5l-26 -33l-44 -44q-82 -73 -126 -51t-41 138q2 89 36 166t96 157l44 44l40 26l-44 -44l-19 -12
q-105 -146 -109 -293q-3 -107 34 -134t107 26q3 3 7 9q26 32 37.5 51.5t31.5 67.5q36 88 44.5 150.5t-14.5 88.5l-1 -1l-62 -32q-22 -11 -55 -22t-67 -16zM140 647l44 44q11 -62 34 -78t77 -2q15 23 28 55l44 44q-24 -58 -60 -95l-44 -44q-62 -19 -86.5 -3.5t-36.5 79.5z
" />
    <glyph glyph-name="Ohungarumlaut" unicode="&#x150;" horiz-adv-x="565" 
d="M390 139l30 40q20 25 26.5 34t18 28t20 37.5t19.5 46.5q15 39 23 83.5t7.5 92.5t-20 88.5t-57.5 60.5l-3 -3l-17 11q-9 3 -19 5q-13 3 -27.5 3t-32 -1.5t-27.5 -1.5l23 23q-45 1 -118 -51q-130 -148 -155 -313q-7 -47 -5 -90q1 -44 13 -86t37 -66.5t66 -30.5q40 -6 98 20
q46 21 89 59l-19 -19l-26 -27l-24 -19q-16 -13 -30 -21q-15 -9 -34 -17q-40 -17 -74 -19q-33 -3 -56 7t-40.5 30.5t-26.5 47.5t-13.5 59t-3.5 64q0 31 5 64q15 101 63 184q47 84 126 165l44 44q45 34 74.5 47.5t62.5 10.5t73 -27q47 -15 71.5 -55.5t26.5 -91t-6 -98
t-24 -88.5q-11 -28 -19.5 -47t-20 -37.5t-18.5 -27.5l-26 -35l-30 -39zM223 749l44 44q64 21 112 60l-44 -44q-48 -39 -112 -60zM367 757l44 44q17 6 38 15t31 14t38 20.5t32 17.5l-44 -44q-8 -4 -26 -14l-30 -16l-26 -13q-15 -8 -29 -13zM379 128l7 7q-3 -2 -7 -7z" />
    <glyph glyph-name="ohungarumlaut" unicode="&#x151;" horiz-adv-x="439" 
d="M179 418q49 9 102 35q-36 8 -102 -35zM159 415q63 52 107.5 71.5t66 8t26.5 -45.5t-7 -86q-12 -51 -38 -116l-17 -40q-7 -15 -16.5 -30.5t-13.5 -21t-21 -26.5l-26 -33l-44 -44q-82 -73 -126 -51t-41 138q2 89 36 166t96 157l44 44l40 26l-44 -44l-19 -12
q-105 -146 -109 -293q-3 -107 34 -134t107 26q3 3 7 9q26 32 37.5 51.5t31.5 67.5q36 88 44.5 150.5t-14.5 88.5l-1 -1l-62 -32q-22 -11 -55 -22t-67 -16zM128 578l44 44q39 24 117 80l-44 -44q-78 -56 -117 -80zM254 583l44 44q25 13 50 29l57 40l48 33l-44 -44l-47 -33
q-32 -23 -57.5 -39.5t-50.5 -29.5z" />
    <glyph glyph-name="OE" unicode="&#x152;" horiz-adv-x="898" 
d="M283 80l-16 -16q-12 -13 -17 -18l-16 -14q-11 -10 -18.5 -14.5t-19 -10.5t-23.5 -9q-43 -12 -77 0.5t-53 42.5t-31 70t-15 84t-1 81.5t8 65.5q19 85 94 193l44 44q-76 -109 -94 -193q-6 -28 -8 -65.5t1 -81.5t15 -84t31 -70.5t53 -42.5t77 0q34 10 66 38zM358 62l44 44
l1 -1q2 82 9 152q-33 -62 -79 -127l-8 -8l-36 -36q87 123 131 248q2 16 5 31l-14 -6q-3 -1 -13 -7l-21 -12q-10 -5 -24 -10.5t-25.5 -8.5t-23 -2.5t-18.5 6.5q-5 3 -3 9t5 10l9 12q5 7 7 11l44 44q-2 -4 -7 -11l-9 -12q-3 -4 -5 -10t3 -9q23 -20 99 20q12 71 30 137l1 1
q-105 11 -170 38l44 44q19 12 45 25l10 -8l21 21q103 41 254 69t248 28l-44 -44q-99 0 -253.5 -29t-256.5 -71q59 -21 159 -30l-19 -19q-12 -46 -21 -94l15 15q-8 -31 -17 -60q128 55 289 66l-44 -44q-142 -9 -254 -52l-2 -4q-16 -122 -18 -286q36 -7 75 -9t93 5t77 10.5
t90.5 17t70.5 14.5l-44 -44l-46 -10l-52 -10l-53 -10q-34 -6 -54.5 -8t-55 -6t-54 -2.5t-52.5 2.5l-39 -39v46q-23 5 -44 13zM142 579q30 30 54 47.5t54.5 30.5t63 7.5t65.5 -30.5q15 7 31 13l23 23q-23 19 -46.5 28t-42.5 11.5t-41.5 -5.5t-37.5 -16t-37.5 -27t-34.5 -31
l-35 -35z" />
    <glyph glyph-name="oe" unicode="&#x153;" horiz-adv-x="704" 
d="M179 418q49 9 102 35q-36 8 -102 -35zM377 381q-21 -26 -31 -42q-12 -43 -32 -92l-8 -19l-1 -5l25 25q36 -9 66 -9.5t61 9.5t57.5 24t54.5 36q27 38 29 69t-17 46.5t-56 15t-84 -19.5q-37 -15 -64 -38zM393 402q7 5 19 15.5t17 14.5l14 10q9 6 18.5 10.5t23.5 10.5
q40 16 74 19t54 -7.5t27.5 -30.5t-4.5 -51t-42 -66l-44 -44q-64 -52 -123 -74.5t-125 -8.5q-1 -17 -2 -32q-4 -89 46.5 -115.5t126 0t138.5 60.5t107 67l-44 -44q-43 -33 -106.5 -67t-139 -60.5t-126 0t-46.5 115.5q0 9 1 19l-37 -47l-44 -44q-82 -73 -126 -51t-41 138
q2 89 36 166t96 157l44 44l40 26l-44 -44l-19 -12q-105 -146 -109 -293q-3 -107 34 -134t107 26q3 3 7 9q24 30 35 47t26 53q7 44 18 70q8 20 22 41q31 113 -2 147l-1 -1l-62 -32q-22 -11 -55 -22t-67 -16l44 44q51 42 90 63t62.5 20t36.5 -17t12.5 -48t-9.5 -73z" />
    <glyph glyph-name="Racute" unicode="&#x154;" horiz-adv-x="626" 
d="M522 269q15 28 16 78t-12.5 104.5t-35.5 104.5t-56 82.5t-71 32.5q-18 0 -34.5 -5t-24.5 -10l-28 -17q-117 -160 -135 -390q93 -34 194 -27t187 47zM174 183q40 -45 95 -78.5t122 -53.5t121.5 -30.5t127.5 -19.5l-44 -44q-67 9 -119 18.5t-114.5 27t-116 46.5t-94.5 68
q5 -62 5 -115l-44 -44q-24 109 -17 229l-3 20q-87 37 -131 114l44 44q29 -51 77 -85q-12 89 -17.5 135.5t-10 121t-1.5 135.5l44 44l9 -36l-11 -11q-1 -112 27 -312q42 161 134 270l44 44l25 16q19 12 26 15.5t22.5 8t32.5 4.5q37 0 71 -33t56 -83t35.5 -105t12 -105
t-16.5 -77q-4 -7 -10.5 -14t-15 -14.5t-12.5 -11.5l-10 -10l-29 -29q26 25 29 29l-29 -29l-5 -5q-67 -33 -148 -45.5t-161 0.5zM185 739l44 44q31 15 67 29l79 32q44 16 68 26l-44 -44q-24 -10 -68 -26l-79 -32q-36 -14 -67 -29z" />
    <glyph glyph-name="racute" unicode="&#x155;" horiz-adv-x="300" 
d="M44 478l44 44q-10 -96 -4 -204q12 22 26 42l44 44q20 19 29.5 27t27.5 20.5t31.5 16t32.5 3.5t39 -7l-44 -44q-24 11 -47.5 8t-40 -11.5t-36.5 -24.5q-43 -66 -56 -145q9 -84 35 -230l-44 -44q-52 113 -34 230q-16 150 -3 275zM109 575l44 44q45 22 147 93l-44 -44
q-101 -71 -147 -93z" />
    <glyph glyph-name="Rcommaaccent" unicode="&#x156;" horiz-adv-x="626" 
d="M522 269q15 28 16 78t-12.5 104.5t-35.5 104.5t-56 82.5t-71 32.5q-18 0 -34.5 -5t-24.5 -10l-28 -17q-117 -160 -135 -390q93 -34 194 -27t187 47zM174 183q40 -45 95 -78.5t122 -53.5t121.5 -30.5t127.5 -19.5l-44 -44q-67 9 -119 18.5t-114.5 27t-116 46.5t-94.5 68
q5 -62 5 -115l-44 -44q-24 109 -17 229l-3 20q-87 37 -131 114l44 44q29 -51 77 -85q-12 89 -17.5 135.5t-10 121t-1.5 135.5l44 44l9 -36l-11 -11q-1 -112 27 -312q42 161 134 270l44 44l25 16q19 12 26 15.5t22.5 8t32.5 4.5q37 0 71 -33t56 -83t35.5 -105t12 -105
t-16.5 -77q-4 -7 -10.5 -14t-15 -14.5t-12.5 -11.5l-10 -10l-29 -29q26 25 29 29l-29 -29l-5 -5q-67 -33 -148 -45.5t-161 0.5zM279 -128l44 44q56 47 59 -47v-31v-12l-44 -44q-8 -5 -16 -9.5t-9 -5.5t-6 -2.5t-6 -1.5t-10 -1t-17 -2l44 44q8 1 20 2q0 14 -0.5 24.5t-2 23.5
t-5.5 20t-10.5 11.5t-16.5 1t-24 -14.5z" />
    <glyph glyph-name="rcommaaccent" unicode="&#x157;" horiz-adv-x="300" 
d="M44 478l44 44q-10 -96 -4 -204q12 22 26 42l44 44q20 19 29.5 27t27.5 20.5t31.5 16t32.5 3.5t39 -7l-44 -44q-24 11 -47.5 8t-40 -11.5t-36.5 -24.5q-43 -66 -56 -145q9 -84 35 -230l-44 -44q-52 113 -34 230q-16 150 -3 275zM51 -153l44 44q3 2 8.5 7.5t10 8t8.5 0.5
q11 -5 12 -28.5t-2.5 -43t-6.5 -31.5l-44 -44q4 12 7 31.5t2 43t-12 28.5q-4 2 -8.5 -0.5t-10 -8t-8.5 -7.5z" />
    <glyph glyph-name="Rcaron" unicode="&#x158;" horiz-adv-x="626" 
d="M522 269q15 28 16 78t-12.5 104.5t-35.5 104.5t-56 82.5t-71 32.5q-18 0 -34.5 -5t-24.5 -10l-28 -17q-117 -160 -135 -390q93 -34 194 -27t187 47zM174 183q40 -45 95 -78.5t122 -53.5t121.5 -30.5t127.5 -19.5l-44 -44q-67 9 -119 18.5t-114.5 27t-116 46.5t-94.5 68
q5 -62 5 -115l-44 -44q-24 109 -17 229l-3 20q-87 37 -131 114l44 44q29 -51 77 -85q-12 89 -17.5 135.5t-10 121t-1.5 135.5l44 44l9 -36l-11 -11q-1 -112 27 -312q42 161 134 270l44 44l25 16q19 12 26 15.5t22.5 8t32.5 4.5q37 0 71 -33t56 -83t35.5 -105t12 -105
t-16.5 -77q-4 -7 -10.5 -14t-15 -14.5t-12.5 -11.5l-10 -10l-29 -29q26 25 29 29l-29 -29l-5 -5q-67 -33 -148 -45.5t-161 0.5zM143 766l44 44q13 -9 26.5 -22.5t22 -19t18.5 -4.5q0 1 2 4q5 15 15 29q6 9 10 16l44 44q-4 -7 -9.5 -14.5t-6.5 -9.5t-3 -5.5t-3 -6.5t-3 -7.5
t-5.5 -14t-8.5 -20.5l-44 -44q-18 -13 -31 -14.5t-19.5 3.5t-21 19t-27.5 23z" />
    <glyph glyph-name="rcaron" unicode="&#x159;" horiz-adv-x="300" 
d="M44 478l44 44q-10 -96 -4 -204q12 22 26 42l44 44q20 19 29.5 27t27.5 20.5t31.5 16t32.5 3.5t39 -7l-44 -44q-24 11 -47.5 8t-40 -11.5t-36.5 -24.5q-43 -66 -56 -145q9 -84 35 -230l-44 -44q-52 113 -34 230q-16 150 -3 275zM71 643l44 44q4 -6 13.5 -22t15.5 -24
l14 -20q8 -12 16 -22q42 65 54 81l44 44q-15 -21 -44 -66t-46 -67l-44 -44q-10 10 -20 23.5t-15 21.5l-17 27z" />
    <glyph glyph-name="Sacute" unicode="&#x15a;" horiz-adv-x="467" 
d="M437 483q1 55 -26 103.5t-70 67.5t-94 -4q-16 -35 -20.5 -71t3 -73t18.5 -69t33 -71l39 -64l42 -66l39 -60q0 -1 7 -11l11 -18l13 -21l12 -23t8.5 -20.5t3.5 -16.5q0 -8 -3.5 -16.5t-8.5 -18.5t-7 -15l-44 -44q-93 -21 -155 -3q-23 7 -60.5 27t-76 47t-62 60.5
t-13.5 60.5q2 6 6 12l10 13l9 11l44 44q38 24 67.5 30t74.5 0l-44 -44q-39 5 -65.5 1.5t-55.5 -19.5l-2 -4q-10 -27 13 -60.5t62 -60.5t76.5 -47.5t60.5 -26.5q54 -16 128 -2q2 6 2 11q0 6 -3.5 16.5t-8.5 20.5l-12 23l-12 21l-12 19l-7 10q-12 20 -35 54l-39 59
q-16 24 -36 59.5t-32 63t-22.5 62.5t-11.5 65.5t6.5 64.5t25.5 65l44 44q39 37 81.5 38t73.5 -24.5t50.5 -68t18.5 -87.5zM185 716l44 44q78 49 158 85l-44 -44q-80 -36 -158 -85z" />
    <glyph glyph-name="sacute" unicode="&#x15b;" horiz-adv-x="353" 
d="M16 76q-9 -9 -9 -18q0 -3 1.5 -5.5t5 -5t5.5 -3.5t7.5 -3t6.5 -2q65 -23 129.5 -18.5t129.5 29.5q2 20 -12 40.5t-30 33.5t-49 36l-48 35q-63 -49 -137 -119zM262 375q-7 22 -11 32.5t-11 26.5t-12 22t-13.5 13.5t-17.5 7t-21 -4.5t-26 -14q-23 -38 -29 -71.5t4.5 -60
t27.5 -46.5t44 -41q108 84 170 98l-44 -44q-46 -10 -119 -60l37 -26l37 -27q13 -9 29 -24.5t22 -27.5t6.5 -29t-8.5 -34l-44 -44q-45 -22 -93.5 -34t-102.5 -11t-98 19l-6 3q-6 2 -8 3t-5.5 3t-5 4.5t-1.5 5.5q0 7 4.5 13t11.5 13t10 11l44 44q61 59 115 104
q-27 22 -43.5 43t-25.5 49.5t0.5 64t37.5 76.5l44 44q18 16 32.5 26.5t26.5 13.5t21 4t17 -6.5t13.5 -13.5t12.5 -22t11 -26.5t11 -32.5zM154 594l44 44q24 11 66 35t50 29l-44 -44q-8 -4 -50 -28.5t-66 -35.5z" />
    <glyph glyph-name="Scircumflex" unicode="&#x15c;" horiz-adv-x="467" 
d="M244 774l-27 -31l-44 -44l50 58l44 44q19 18 34 23t23.5 2t27 -14t34.5 -16q9 -3 16 -5t15 -3l12 -2q4 0 15 -0.5t17 -0.5l-44 -44q-6 0 -17 0.5t-15 0.5l-12 2q-8 1 -15 3t-16 5q-14 5 -30 14t-24 13t-19.5 4t-24.5 -9zM437 483q1 55 -26 103.5t-70 67.5t-94 -4
q-16 -35 -20.5 -71t3 -73t18.5 -69t33 -71l39 -64l42 -66l39 -60q0 -1 7 -11l11 -18l13 -21l12 -23t8.5 -20.5t3.5 -16.5q0 -8 -3.5 -16.5t-8.5 -18.5t-7 -15l-44 -44q-93 -21 -155 -3q-23 7 -60.5 27t-76 47t-62 60.5t-13.5 60.5q2 6 6 12l10 13l9 11l44 44q38 24 67.5 30
t74.5 0l-44 -44q-39 5 -65.5 1.5t-55.5 -19.5l-2 -4q-10 -27 13 -60.5t62 -60.5t76.5 -47.5t60.5 -26.5q54 -16 128 -2q2 6 2 11q0 6 -3.5 16.5t-8.5 20.5l-12 23l-12 21l-12 19l-7 10q-12 20 -35 54l-39 59q-16 24 -36 59.5t-32 63t-22.5 62.5t-11.5 65.5t6.5 64.5t25.5 65
l44 44q39 37 81.5 38t73.5 -24.5t50.5 -68t18.5 -87.5z" />
    <glyph glyph-name="scircumflex" unicode="&#x15d;" horiz-adv-x="353" 
d="M16 76q-9 -9 -9 -18q0 -3 1.5 -5.5t5 -5t5.5 -3.5t7.5 -3t6.5 -2q65 -23 129.5 -18.5t129.5 29.5q2 20 -12 40.5t-30 33.5t-49 36l-48 35q-63 -49 -137 -119zM262 375q-7 22 -11 32.5t-11 26.5t-12 22t-13.5 13.5t-17.5 7t-21 -4.5t-26 -14q-23 -38 -29 -71.5t4.5 -60
t27.5 -46.5t44 -41q108 84 170 98l-44 -44q-46 -10 -119 -60l37 -26l37 -27q13 -9 29 -24.5t22 -27.5t6.5 -29t-8.5 -34l-44 -44q-45 -22 -93.5 -34t-102.5 -11t-98 19l-6 3q-6 2 -8 3t-5.5 3t-5 4.5t-1.5 5.5q0 7 4.5 13t11.5 13t10 11l44 44q61 59 115 104
q-27 22 -43.5 43t-25.5 49.5t0.5 64t37.5 76.5l44 44q18 16 32.5 26.5t26.5 13.5t21 4t17 -6.5t13.5 -13.5t12.5 -22t11 -26.5t11 -32.5zM101 564l44 44q32 31 49 45t27 19t18.5 0t17.5 -11.5t30 -15.5t49 -13l-44 -44q-28 4 -49 13t-30 16t-17.5 11.5t-18.5 -0.5t-27 -19
t-49 -45z" />
    <glyph glyph-name="Scedilla" unicode="&#x15e;" horiz-adv-x="467" 
d="M437 483q1 55 -26 103.5t-70 67.5t-94 -4q-16 -35 -20.5 -71t3 -73t18.5 -69t33 -71l39 -64l42 -66l39 -60q0 -1 7 -11l11 -18l13 -21l12 -23t8.5 -20.5t3.5 -16.5q0 -8 -3.5 -16.5t-8.5 -18.5t-7 -15l-44 -44q-39 -9 -69 -11q0 -10 8.5 -17t18.5 -11.5t21.5 -20
t16.5 -41.5l-44 -44q-39 -38 -91 -45t-100 21l44 44q70 -43 144 -8q-6 21 -16.5 34t-19.5 16.5t-17 10.5t-9 15.5t5 31.5l13 13q-32 1 -60 9q-23 7 -60.5 27t-76 47t-62 60.5t-13.5 60.5q2 6 6 12l10 13l9 11l44 44q38 24 67.5 30t74.5 0l-44 -44q-39 5 -65.5 1.5
t-55.5 -19.5l-2 -4q-10 -27 13 -60.5t62 -60.5t76.5 -47.5t60.5 -26.5q54 -16 128 -2q2 6 2 11q0 6 -3.5 16.5t-8.5 20.5l-12 23l-12 21l-12 19l-7 10q-12 20 -35 54l-39 59q-16 24 -36 59.5t-32 63t-22.5 62.5t-11.5 65.5t6.5 64.5t25.5 65l44 44q39 37 81.5 38t73.5 -24.5
t50.5 -68t18.5 -87.5z" />
    <glyph glyph-name="scedilla" unicode="&#x15f;" horiz-adv-x="353" 
d="M16 76q-9 -9 -9 -18q0 -3 1.5 -5.5t5 -5t5.5 -3.5t7.5 -3t6.5 -2q65 -23 129.5 -18.5t129.5 29.5q2 20 -12 40.5t-30 33.5t-49 36l-48 35q-63 -49 -137 -119zM262 375q-7 22 -11 32.5t-11 26.5t-12 22t-13.5 13.5t-17.5 7t-21 -4.5t-26 -14q-23 -38 -29 -71.5t4.5 -60
t27.5 -46.5t44 -41q108 84 170 98l-44 -44q-46 -10 -119 -60l37 -26l37 -27q13 -9 29 -24.5t22 -27.5t6.5 -29t-8.5 -34l-44 -44q-45 -21 -93 -33q13 -16 30 -27l22 -15q7 -5 5.5 -17t-18.5 -36l-44 -44q-15 -3 -29 -7l-15 -4q-2 0 -10 -1.5t-9 -1.5t-14.5 -0.5t-25.5 -1.5
l44 44q9 1 18 1.5t12.5 0.5t9 0.5t6 0.5t5.5 1t6 1t9 2t13 3q1 9 -6 15t-17.5 11.5t-25 20t-25.5 35.5l10 10q-86 -11 -152 16l-6 3q-6 2 -8 3t-5.5 3t-5 4.5t-1.5 5.5q0 7 4.5 13t11.5 13t10 11l44 44q61 59 115 104q-27 22 -43.5 43t-25.5 49.5t0.5 64t37.5 76.5l44 44
q18 16 32.5 26.5t26.5 13.5t21 4t17 -6.5t13.5 -13.5t12.5 -22t11 -26.5t11 -32.5z" />
    <glyph glyph-name="Scaron" unicode="&#x160;" horiz-adv-x="467" 
d="M437 483q1 55 -26 103.5t-70 67.5t-94 -4q-16 -35 -20.5 -71t3 -73t18.5 -69t33 -71l39 -64l42 -66l39 -60q0 -1 7 -11l11 -18l13 -21l12 -23t8.5 -20.5t3.5 -16.5q0 -8 -3.5 -16.5t-8.5 -18.5t-7 -15l-44 -44q-93 -21 -155 -3q-23 7 -60.5 27t-76 47t-62 60.5
t-13.5 60.5q2 6 6 12l10 13l9 11l44 44q38 24 67.5 30t74.5 0l-44 -44q-39 5 -65.5 1.5t-55.5 -19.5l-2 -4q-10 -27 13 -60.5t62 -60.5t76.5 -47.5t60.5 -26.5q54 -16 128 -2q2 6 2 11q0 6 -3.5 16.5t-8.5 20.5l-12 23l-12 21l-12 19l-7 10q-12 20 -35 54l-39 59
q-16 24 -36 59.5t-32 63t-22.5 62.5t-11.5 65.5t6.5 64.5t25.5 65l44 44q39 37 81.5 38t73.5 -24.5t50.5 -68t18.5 -87.5zM223 774l44 44q5 -4 18 -15.5t18.5 -15.5t15.5 -8.5t20 -4.5l14 27l44 44l-35 -68l-44 -44q-11 -3 -20.5 -3t-16.5 1.5t-15 7t-13 9.5l-15 12z" />
    <glyph glyph-name="scaron" unicode="&#x161;" horiz-adv-x="353" 
d="M16 76q-9 -9 -9 -18q0 -3 1.5 -5.5t5 -5t5.5 -3.5t7.5 -3t6.5 -2q65 -23 129.5 -18.5t129.5 29.5q2 20 -12 40.5t-30 33.5t-49 36l-48 35q-63 -49 -137 -119zM262 375q-7 22 -11 32.5t-11 26.5t-12 22t-13.5 13.5t-17.5 7t-21 -4.5t-26 -14q-23 -38 -29 -71.5t4.5 -60
t27.5 -46.5t44 -41q108 84 170 98l-44 -44q-46 -10 -119 -60l37 -26l37 -27q13 -9 29 -24.5t22 -27.5t6.5 -29t-8.5 -34l-44 -44q-45 -22 -93.5 -34t-102.5 -11t-98 19l-6 3q-6 2 -8 3t-5.5 3t-5 4.5t-1.5 5.5q0 7 4.5 13t11.5 13t10 11l44 44q61 59 115 104
q-27 22 -43.5 43t-25.5 49.5t0.5 64t37.5 76.5l44 44q18 16 32.5 26.5t26.5 13.5t21 4t17 -6.5t13.5 -13.5t12.5 -22t11 -26.5t11 -32.5zM118 625l44 44q20 -13 69 -59l64 87l44 44q-8 -12 -31 -43l-40 -53q-15 -22 -28 -44l-44 -44q-6 5 -23 22t-29.5 27t-25.5 19z" />
    <glyph glyph-name="Tcommaaccent" unicode="&#x162;" horiz-adv-x="553" 
d="M320 -136q7 15 3.5 24t-16 12t-30.5 4t-39 -1l18 18q-7 18 -11.5 37.5t-7.5 42.5l-5 39q-2 16 -2.5 44t-1 40t-0.5 44v39q0 265 18 443q-10 -1 -73 -3q-7 0 -88 1q77 -44 112 -66l-44 -44q-33 21 -95.5 56t-78.5 45l44 44q29 6 60.5 7.5t72 0.5t61.5 0q61 2 69 2l4 4v-4
q178 7 277 37l-44 -44q-91 -27 -237 -35q-14 -160 -14 -400v-40q0 -33 0.5 -44.5t1 -40.5t2.5 -45l5 -39q3 -24 8 -43.5t12 -38.5l-13 -13q26 2 45 0t29 -8.5t5 -23.5t-27 -44l-44 -44q-97 -38 -184 -20l44 44q79 -16 164 13z" />
    <glyph glyph-name="tcommaaccent" unicode="&#x163;" horiz-adv-x="247" 
d="M-74 378l44 44q36 13 85 34q22 126 74 301l44 44l-30 -170l-22 -22q-17 -71 -27 -135q96 43 146 59l-44 -44q-44 -14 -105 -41q-18 -127 -12 -246q1 -18 4 -45.5t14.5 -63.5t26.5 -40q14 -1 17.5 -1.5t18 2.5t18.5 3q21 27 39 57l44 44q-31 -51 -78 -100l-44 -44
q-6 0 -21 -3q-1 -3 0 -6q2 -11 13.5 -17.5t26.5 -11t29 -11t22 -23t5 -41.5l-44 -44q-25 -14 -41.5 -20t-33 -5.5t-30.5 12.5t-28 36l44 44q20 -35 41.5 -44.5t48.5 0.5q-3 22 -17.5 34.5t-31 16t-31.5 11t-17 19.5q-1 6 2 11.5t8.5 11.5t7.5 10l15 15q-16 -3 -27 0
q-15 4 -26 40t-14.5 64t-4.5 45q-6 131 16 272q-82 -37 -125 -52z" />
    <glyph glyph-name="Tcaron" unicode="&#x164;" horiz-adv-x="553" 
d="M246 650q-10 -1 -73 -3q-7 0 -88 1q77 -44 112 -66l-44 -44q-33 21 -95.5 56t-78.5 45l44 44q29 6 60.5 7.5t72 0.5t61.5 0q61 2 69 2l4 4v-4q178 7 277 37l-44 -44q-91 -27 -237 -35q-14 -160 -14 -400v-40q0 -33 0.5 -44.5t1 -40.5t2.5 -45l5 -39q3 -24 8 -43.5
t12 -38.5l-44 -44q-7 19 -12 38.5t-8 43.5l-5 40q-2 16 -2.5 44.5t-1 40t-0.5 44.5v40q0 265 18 443zM134 775l44 44l27 -19q18 -12 32 -20l28 -17q18 23 38 44l44 44q-40 -43 -75 -91l-44 -44q-15 8 -30 17t-35.5 23t-28.5 19z" />
    <glyph glyph-name="tcaron" unicode="&#x165;" horiz-adv-x="304" 
d="M-74 378l44 44q36 13 85 34q22 126 74 301l44 44l-30 -170l-22 -22q-17 -71 -27 -135q96 43 146 59l-44 -44q-44 -14 -105 -41q-18 -127 -12 -246q1 -18 4 -45.5t14.5 -63.5t26.5 -40q14 -1 17.5 -1.5t18 2.5t18.5 3q21 27 39 57l44 44q-31 -51 -78 -100l-44 -44
q-6 0 -19.5 -3t-20 -3.5t-19.5 1.5q-15 4 -26 40t-14.5 64t-4.5 45q-6 131 16 272q-82 -37 -125 -52zM218 727l44 44q15 6 26 6.5t17 -3t9 -11.5t3.5 -17t-1 -21t-4.5 -21l-5 -21l-44 -44l5 21q3 10 4.5 21.5t1.5 20.5t-3.5 17t-9.5 11.5t-17 3t-26 -6.5z" />
    <glyph glyph-name="Tbar" unicode="&#x166;" horiz-adv-x="553" 
d="M67 300l44 44q93 23 118 28q4 150 17 278q-10 -1 -73 -3q-7 0 -88 1q77 -44 112 -66l-44 -44q-33 21 -95.5 56t-78.5 45l44 44q29 6 60.5 7.5t72 0.5t61.5 0q61 2 69 2l4 4v-4q178 7 277 37l-44 -44q-91 -27 -237 -35q-11 -123 -13 -269q94 19 170 22l-44 -44
q-59 -2 -127 -14v-95v-40q0 -33 0.5 -44.5t1 -40.5t2.5 -45l5 -39q3 -24 8 -43.5t12 -38.5l-44 -44q-7 19 -12 38.5t-8 43.5l-5 40q-2 16 -2.5 44.5t-1 40t-0.5 44.5v40q0 70 1 131q-42 -9 -162 -38z" />
    <glyph glyph-name="tbar" unicode="&#x167;" horiz-adv-x="247" 
d="M-54 224l44 44l45 20q4 69 16 142q-82 -37 -125 -52l44 44q36 13 85 34q22 126 74 301l44 44l-30 -170l-22 -22q-17 -71 -27 -135q96 43 146 59l-44 -44q-44 -14 -105 -41q-11 -73 -13 -143q49 20 178 67l-44 -44l-134 -50q-1 -38 1 -76q1 -18 4 -45.5t14.5 -63.5
t26.5 -40q14 -1 17.5 -1.5t18 2.5t18.5 3q21 27 39 57l44 44q-31 -51 -78 -100l-44 -44q-6 0 -19.5 -3t-20 -3.5t-19.5 1.5q-15 4 -26 40t-14.5 64t-4.5 45q-2 51 -1 103z" />
    <glyph glyph-name="Utilde" unicode="&#x168;" 
d="M345 159q-21 -43 -48 -82l-44 -44q-90 -72 -158.5 -45.5t-88.5 145.5q-20 118 5 246t79 279l44 44l-11 -45l-7 -7q-45 -133 -64.5 -249.5t-1.5 -223.5q19 -110 79 -141t140 21q44 70 70 154q-13 109 -2.5 219t42.5 186l44 44q0 -88 -2 -142t-11 -128.5t-28 -134.5
q21 -196 91 -317l-44 -44q-59 102 -84 265zM117 732l44 44q30 26 51 30.5t36 -6.5t28.5 -24.5t35 -23.5t48.5 -4l7 21l44 44l-5 -17q-3 -8 -3.5 -9.5t-2.5 -6t-3 -5t-5.5 -7.5t-9.5 -14l-44 -44q-27 -10 -45 -8t-33 9.5t-25.5 19t-22.5 20t-24 12.5t-30 -3.5t-41 -27.5z" />
    <glyph glyph-name="utilde" unicode="&#x169;" horiz-adv-x="348" 
d="M70 482l44 44q-16 -56 -27.5 -109.5t-24.5 -132.5t-7.5 -142.5t31.5 -93.5q3 -4 8 -7t8.5 -4l10.5 -3l10 -4q62 91 98 246q5 94 33 184l44 44q-19 -121 -34 -184q-11 -181 62 -302l-44 -44q-51 85 -61 204q-37 -92 -91 -151l-44 -44q-5 2 -15 5.5t-17 7t-12 8.5
q-26 31 -31.5 94t7.5 142t25 132.5t27 109.5zM93 583l44 44q25 22 44.5 25.5t34 -4.5t38 -12t55.5 3q0 2 1 6t3.5 11.5t4.5 15.5l44 44q-3 -10 -5.5 -19.5t-3 -11t-2.5 -6.5t-3 -6t-6 -10l-11 -17l-44 -44q-31 -11 -55.5 -11t-39 6t-29 10.5t-31.5 -0.5t-39 -24z" />
    <glyph glyph-name="Umacron" unicode="&#x16a;" 
d="M345 159q-21 -43 -48 -82l-44 -44q-90 -72 -158.5 -45.5t-88.5 145.5q-20 118 5 246t79 279l44 44l-11 -45l-7 -7q-45 -133 -64.5 -249.5t-1.5 -223.5q19 -110 79 -141t140 21q44 70 70 154q-13 109 -2.5 219t42.5 186l44 44q0 -88 -2 -142t-11 -128.5t-28 -134.5
q21 -196 91 -317l-44 -44q-59 102 -84 265zM138 752l44 44q163 19 260 19l-44 -44q-97 0 -260 -19z" />
    <glyph glyph-name="umacron" unicode="&#x16b;" horiz-adv-x="370" 
d="M70 482l44 44q-16 -56 -27.5 -109.5t-24.5 -132.5t-7.5 -142.5t31.5 -93.5q3 -4 8 -7t8.5 -4l10.5 -3l10 -4q62 91 98 246q5 94 33 184l44 44q-19 -121 -34 -184q-11 -181 62 -302l-44 -44q-51 85 -61 204q-37 -92 -91 -151l-44 -44q-5 2 -15 5.5t-17 7t-12 8.5
q-26 31 -31.5 94t7.5 142t25 132.5t27 109.5zM90 585l44 44q106 2 250 33l-44 -44q-144 -31 -250 -33z" />
    <glyph glyph-name="Ubreve" unicode="&#x16c;" 
d="M345 159q-21 -43 -48 -82l-44 -44q-90 -72 -158.5 -45.5t-88.5 145.5q-20 118 5 246t79 279l44 44l-11 -45l-7 -7q-45 -133 -64.5 -249.5t-1.5 -223.5q19 -110 79 -141t140 21q44 70 70 154q-13 109 -2.5 219t42.5 186l44 44q0 -88 -2 -142t-11 -128.5t-28 -134.5
q21 -196 91 -317l-44 -44q-59 102 -84 265zM181 782l44 44q31 -52 65 -61t80 20q1 2 2 5l3 12l4 15l44 44q-2 -9 -4.5 -18t-2.5 -10t-2.5 -6t-4 -6t-8 -8.5t-12.5 -15.5l-44 -44q-54 -39 -92 -33.5t-72 62.5z" />
    <glyph glyph-name="ubreve" unicode="&#x16d;" horiz-adv-x="334" 
d="M70 482l44 44q-16 -56 -27.5 -109.5t-24.5 -132.5t-7.5 -142.5t31.5 -93.5q3 -4 8 -7t8.5 -4l10.5 -3l10 -4q62 91 98 246q5 94 33 184l44 44q-19 -121 -34 -184q-11 -181 62 -302l-44 -44q-51 85 -61 204q-37 -92 -91 -151l-44 -44q-5 2 -15 5.5t-17 7t-12 8.5
q-26 31 -31.5 94t7.5 142t25 132.5t27 109.5zM112 661l44 44q18 -59 49 -68.5t83 16.5l16 25l44 44q-5 -7 -10 -15t-6.5 -10t-3.5 -5l-4 -6l-6 -5l-10 -11l-16 -15l-44 -44q-54 -28 -85.5 -19t-50.5 69z" />
    <glyph glyph-name="Uring" unicode="&#x16e;" 
d="M345 159q-21 -43 -48 -82l-44 -44q-90 -72 -158.5 -45.5t-88.5 145.5q-20 118 5 246t79 279l44 44l-11 -45l-7 -7q-45 -133 -64.5 -249.5t-1.5 -223.5q19 -110 79 -141t140 21q44 70 70 154q-13 109 -2.5 219t42.5 186l44 44q0 -88 -2 -142t-11 -128.5t-28 -134.5
q21 -196 91 -317l-44 -44q-59 102 -84 265zM204 769l44 44q13 -74 78 -37q5 20 0 27q-13 19 -41.5 19t-51 -9t-41.5 -21l44 44q19 12 41.5 21t51 9t41.5 -19q3 -8 3 -12t-2.5 -13.5t-2.5 -13.5l-44 -44q-18 -16 -34.5 -27t-35 -16t-32 7t-18.5 41z" />
    <glyph glyph-name="uring" unicode="&#x16f;" horiz-adv-x="312" 
d="M70 482l44 44q-16 -56 -27.5 -109.5t-24.5 -132.5t-7.5 -142.5t31.5 -93.5q3 -4 8 -7t8.5 -4l10.5 -3l10 -4q62 91 98 246q5 94 33 184l44 44q-19 -121 -34 -184q-11 -181 62 -302l-44 -44q-51 85 -61 204q-37 -92 -91 -151l-44 -44q-5 2 -15 5.5t-17 7t-12 8.5
q-26 31 -31.5 94t7.5 142t25 132.5t27 109.5zM167 633l44 44q-12 -28 -12.5 -46t8 -24t22 -5t30.5 9q21 56 -1.5 71t-90.5 -10l44 44q75 27 94.5 6.5t-12.5 -92.5l-44 -44q-30 -21 -55 -26.5t-36 10t9 63.5z" />
    <glyph glyph-name="Uhungarumlaut" unicode="&#x170;" 
d="M345 159q-21 -43 -48 -82l-44 -44q-90 -72 -158.5 -45.5t-88.5 145.5q-20 118 5 246t79 279l44 44l-11 -45l-7 -7q-45 -133 -64.5 -249.5t-1.5 -223.5q19 -110 79 -141t140 21q44 70 70 154q-13 109 -2.5 219t42.5 186l44 44q0 -88 -2 -142t-11 -128.5t-28 -134.5
q21 -196 91 -317l-44 -44q-59 102 -84 265zM157 710l44 44l40 28l47 34q21 16 38 31l-44 -44q-17 -15 -38 -31l-47 -34zM262 710l44 44q93 60 139 83l-44 -44q-46 -23 -139 -83z" />
    <glyph glyph-name="uhungarumlaut" unicode="&#x171;" horiz-adv-x="354" 
d="M70 482l44 44q-16 -56 -27.5 -109.5t-24.5 -132.5t-7.5 -142.5t31.5 -93.5q3 -4 8 -7t8.5 -4l10.5 -3l10 -4q62 91 98 246q5 94 33 184l44 44q-19 -121 -34 -184q-11 -181 62 -302l-44 -44q-51 85 -61 204q-37 -92 -91 -151l-44 -44q-5 2 -15 5.5t-17 7t-12 8.5
q-26 31 -31.5 94t7.5 142t25 132.5t27 109.5zM118 603l44 44q65 54 95 75l-44 -44q-29 -20 -95 -75zM196 589l44 44q88 48 128 82l-44 -44q-40 -34 -128 -82z" />
    <glyph glyph-name="Uogonek" unicode="&#x172;" 
d="M126 -29l10 7l2 3q-50 -3 -84.5 36t-47.5 116q-20 118 5 246t79 279l44 44l-11 -45l-7 -7q-45 -133 -64.5 -249.5t-1.5 -223.5q13 -77 47 -115.5t83 -36.5l4 4l-2 -4q40 3 87 32q44 70 70 154q-13 109 -2.5 219t42.5 186l44 44q0 -88 -2 -142t-11 -128.5t-28 -134.5
q21 -196 91 -317l-44 -44q-59 102 -84 265q-21 -43 -48 -82l-44 -44q-55 -43 -103 -50l-26 -26l-18 -13q-21 -32 -22.5 -55.5t20.5 -33t74 6.5l-44 -44q-59 -17 -79.5 -3.5t-12 44t39.5 68.5z" />
    <glyph glyph-name="uogonek" unicode="&#x173;" horiz-adv-x="337" 
d="M70 482l44 44q-16 -56 -27.5 -109.5t-24.5 -132.5t-7.5 -142.5t31.5 -93.5q3 -4 8 -7t8.5 -4l10.5 -3l10 -4q62 91 98 246q5 94 33 184l44 44q-19 -121 -34 -184q-11 -181 62 -302l-19 -19h5l-44 -44q-53 -3 -70 -11q-7 -19 -5 -28q6 -24 26 -32t46.5 -2t47.5 14.5
t38 18.5l-44 -44q-17 -10 -38 -18t-47.5 -14.5t-46.5 1.5t-26 32q-1 6 0.5 13t5 15.5t4.5 13.5l44 44q33 33 67 38q-41 78 -49 182q-37 -92 -91 -151l-44 -44q-5 2 -15 5.5t-17 7t-12 8.5q-26 31 -31.5 94t7.5 142t25 132.5t27 109.5z" />
    <glyph glyph-name="Wcircumflex" unicode="&#x174;" horiz-adv-x="679" 
d="M-4 508l44 44q24 -101 81 -282t88 -212q22 131 58 271l44 44q5 -11 24 -61.5t39 -97.5t46 -98.5t55.5 -83t56.5 -31.5l26 67l26 74q15 46 25 81.5t20.5 80.5t15 81t4 72.5t-8.5 64.5q-4 16 -16.5 44t-16.5 41l44 44q4 -13 16.5 -41t16.5 -44q8 -30 8 -69t-4.5 -75.5
t-17 -86.5t-22 -83.5t-28 -86l-26.5 -74.5l-26 -67l-44 -44q-3 -2 -8 -8t-10 -9.5t-10 -4.5q-15 -3 -30.5 4t-31 24.5t-29.5 36t-29 47.5l-26 52q-10 22 -24 56t-20 52l-18 46q-24 -104 -40 -207l-44 -44q-4 -2 -10.5 -7t-12 -7.5t-10.5 -0.5q-21 10 -63 127t-70.5 218.5
t-41.5 152.5zM181 580l44 44q20 10 47.5 35.5t39.5 33.5q2 1 7 5t7.5 5.5t7 3t8.5 0.5q7 -2 13.5 -13.5t9.5 -13.5q16 -16 35 -28q10 -7 18 -11.5t16.5 -8t13 -5.5t17.5 -6t21 -6l-44 -44q-8 3 -20 7l-18 6q-5 1 -13.5 4.5t-16.5 7.5l-18 12q-18 12 -35 28q-2 2 -9 13.5
t-14 13.5q-4 1 -8.5 -0.5t-7 -3t-7.5 -5.5t-7 -5q-12 -8 -39.5 -33.5t-47.5 -35.5z" />
    <glyph glyph-name="wcircumflex" unicode="&#x175;" horiz-adv-x="483" 
d="M-5 423l44 44q-1 -55 4.5 -112t19 -119t41.5 -116.5t67 -86.5q18 47 22 100t1 126v1q-2 16 -2 70v15l44 44v-16q0 -14 2 -70q5 -33 40.5 -141t50.5 -114q5 34 10.5 94.5t10.5 97t16.5 85t32.5 91t54 83.5l44 44q-34 -43 -56 -89t-33 -95.5t-16 -91t-10.5 -102
t-12.5 -101.5l-44 -44q-4 -2 -12.5 -7.5t-15 -8t-12.5 -0.5q-16 6 -55 128q-12 -64 -44 -110l-44 -44q-43 29 -74 83.5t-46.5 119.5t-21.5 125t-5 117zM88 507l44 44l7 6l15 18l44 44q20 -6 34 -15.5t31 -24.5t30 -24l-44 -44q-13 9 -29 23.5t-29.5 23.5t-31.5 16l-38 -38z
" />
    <glyph glyph-name="Ycircumflex" unicode="&#x176;" horiz-adv-x="530" 
d="M29 646l44 44q38 -179 84 -302q6 -16 17 -41l18 -43q7 -17 8 -17q7 0 13 3q96 205 204 328l44 44q3 3 13 12l28 22l29 24q12 10 12 9q3 -21 -91 -247l-146 -344q-4 -8 -14 -24l-18 -34q-9 -16 -18.5 -36.5t-14.5 -38t-4 -34.5t10 -28q3 -4 8.5 -6t12.5 -4t11 -3l-44 -44
q-3 2 -10.5 3.5t-13 3.5t-8.5 6q-9 11 -10 28t4 34.5t14.5 38t18.5 36.5l20 34q9 16 12 24l146 345q94 226 91 246q0 1 -17 -13l-42 -35q-96 -116 -186 -310l-44 -44q-6 -4 -16 -15.5t-19 -18t-19 -6.5l-8 17l-18 43q-11 25 -17 41q-46 123 -84 302zM163 697l44 44l44 41
q31 29 38.5 31t19.5 -14q31 -38 75 -66l-44 -44q-44 28 -75 67q-12 15 -19.5 13t-38.5 -31z" />
    <glyph glyph-name="ycircumflex" unicode="&#x177;" horiz-adv-x="403" 
d="M338 362q-66 -100 -103 -268q14 2 39 14q61 83 88 205q1 5 5.5 16t5 15.5t-2.5 13.5q-6 8 -32 4zM48 405l44 44q-2 -8 -7.5 -21.5t-8.5 -25t-3 -22.5q-1 -58 41 -156.5t89 -124.5q43 167 123 262l44 44q5 0 15 1.5t17.5 1t11.5 -5.5q3 -9 2.5 -13.5t-5 -16t-5.5 -15.5
q-33 -147 -119 -242l-44 -44q-3 -1 -14 -7l-4 -18q-3 -14 -10.5 -57t-11.5 -61.5t-15 -49t-26 -56.5l-44 -44q-28 -16 -55.5 -16.5t-52.5 13.5t-44.5 31.5t-41.5 43.5l44 44q89 -106 167 -84q9 22 16.5 47.5t10.5 44.5l10 51l9 49l10 48q-15 -3 -28 3q-32 15 -64.5 70.5
t-51.5 116t-18 96.5q0 11 3.5 22.5t8.5 25t7 21.5zM138 516l44 44l17 14l5 6l44 44q16 9 26 11t16.5 -3.5t11 -13t13 -20t19.5 -22.5l-44 -44q-9 8 -16 18t-11 17t-9 13t-9.5 9t-12 2t-17.5 -5l-37 -37z" />
    <glyph glyph-name="Ydieresis" unicode="&#x178;" horiz-adv-x="530" 
d="M29 646l44 44q38 -179 84 -302q6 -16 17 -41l18 -43q7 -17 8 -17q7 0 13 3q96 205 204 328l44 44q3 3 13 12l28 22l29 24q12 10 12 9q3 -21 -91 -247l-146 -344q-4 -8 -14 -24l-18 -34q-9 -16 -18.5 -36.5t-14.5 -38t-4 -34.5t10 -28q3 -4 8.5 -6t12.5 -4t11 -3l-44 -44
q-3 2 -10.5 3.5t-13 3.5t-8.5 6q-9 11 -10 28t4 34.5t14.5 38t18.5 36.5l20 34q9 16 12 24l146 345q94 226 91 246q0 1 -17 -13l-42 -35q-96 -116 -186 -310l-44 -44q-6 -4 -16 -15.5t-19 -18t-19 -6.5l-8 17l-18 43q-11 25 -17 41q-46 123 -84 302zM237 760q0 -13 -9 -22
t-22 -9t-22 9t-9 22t9 22t22 9t22 -9t9 -22zM363 754q0 -13 -9 -22t-22 -9t-22 9t-9 22t9 22t22 9t22 -9t9 -22z" />
    <glyph glyph-name="Zacute" unicode="&#x179;" horiz-adv-x="538" 
d="M-20 82q-39 -56 -21 -51q4 1 11 5l39 56q-15 -3 -29 -10zM21 618l44 44q28 -15 57.5 -21.5t65.5 -3t58.5 7t66.5 15t60 14.5q152 33 153 31q3 -5 -0.5 -10t-10.5 -11.5t-9 -9.5l-44 -44l-104 -93l-43 -49l-39 -46l-41 -52l-36 -47l-39 -53l-34 -50l-38 -54
q-29 -43 -35 -51q26 5 55 -4t55.5 -25t55.5 -35.5t60.5 -36t64 -26t71.5 -5.5t79 25q18 43 13 84t-28 67.5t-59.5 39.5t-81.5 -2q-2 -4 -2.5 -6.5t-0.5 -4.5t3 -4t6 -3.5t10 -5.5l14 -8l-44 -44l-18 11q-9 5 -11 5.5t-3.5 5t1 7t6 13.5t7.5 22l44 44q35 17 68 18.5
t58.5 -9.5t44 -32.5t26.5 -49.5t3 -62t-24 -67l-44 -44q-43 -29 -84 -39t-75.5 -4t-67 20.5t-62.5 34.5l-57 37q-27 18 -56.5 30t-55.5 11l-28 -39l-44 -44q-53 -41 -40 -11t49 72l44 44q16 11 32 16l99 141q35 50 94.5 123.5t114.5 129.5l44 44l93 84q2 4 0 8
q-1 2 -153 -31q-15 -3 -59.5 -14t-67 -15t-58.5 -7.5t-65.5 3t-57.5 21.5zM196 703l44 44q78 33 155 85l-44 -44q-77 -52 -155 -85z" />
    <glyph glyph-name="zacute" unicode="&#x17a;" horiz-adv-x="443" 
d="M-20 375l44 44q12 3 38 13l54 19q27 10 59 20t59 16t51 6t36 -9q15 -10 17.5 -28.5t-7 -43t-22 -48.5t-34.5 -54l-39 -52q-16 -21 -40 -48l-32 -36l-23 -25l-44 -44l-36 -32q14 -14 22 -17q23 -8 58 -13t85.5 -7t79 -2.5t88 0t63.5 0.5l-44 -44q-3 0 -63 -0.5t-88 0
t-79 2.5t-86 7t-58 13q-6 2 -11 6t-10.5 10t-9.5 9l44 44l18 11q9 5 12.5 7.5t7 4.5t6.5 4.5t5 4.5t9 8t12 11l40 46l46 56q26 33 44 62.5t31 58t12 51t-18 34.5q-12 9 -36 9t-50.5 -6t-59 -16t-59.5 -20l-53 -19q-26 -10 -39 -13zM153 596l44 44q76 54 126 103l-44 -44
q-50 -49 -126 -103z" />
    <glyph glyph-name="Zdotaccent" unicode="&#x17b;" horiz-adv-x="538" 
d="M-20 82q-39 -56 -21 -51q4 1 11 5l39 56q-15 -3 -29 -10zM21 618l44 44q28 -15 57.5 -21.5t65.5 -3t58.5 7t66.5 15t60 14.5q152 33 153 31q3 -5 -0.5 -10t-10.5 -11.5t-9 -9.5l-44 -44l-104 -93l-43 -49l-39 -46l-41 -52l-36 -47l-39 -53l-34 -50l-38 -54
q-29 -43 -35 -51q26 5 55 -4t55.5 -25t55.5 -35.5t60.5 -36t64 -26t71.5 -5.5t79 25q18 43 13 84t-28 67.5t-59.5 39.5t-81.5 -2q-2 -4 -2.5 -6.5t-0.5 -4.5t3 -4t6 -3.5t10 -5.5l14 -8l-44 -44l-18 11q-9 5 -11 5.5t-3.5 5t1 7t6 13.5t7.5 22l44 44q35 17 68 18.5
t58.5 -9.5t44 -32.5t26.5 -49.5t3 -62t-24 -67l-44 -44q-43 -29 -84 -39t-75.5 -4t-67 20.5t-62.5 34.5l-57 37q-27 18 -56.5 30t-55.5 11l-28 -39l-44 -44q-53 -41 -40 -11t49 72l44 44q16 11 32 16l99 141q35 50 94.5 123.5t114.5 129.5l44 44l93 84q2 4 0 8
q-1 2 -153 -31q-15 -3 -59.5 -14t-67 -15t-58.5 -7.5t-65.5 3t-57.5 21.5zM310 758q0 -13 -9 -22t-22 -9t-22 9t-9 22t9 22t22 9t22 -9t9 -22z" />
    <glyph glyph-name="zdotaccent" unicode="&#x17c;" horiz-adv-x="443" 
d="M-20 375l44 44q12 3 38 13l54 19q27 10 59 20t59 16t51 6t36 -9q15 -10 17.5 -28.5t-7 -43t-22 -48.5t-34.5 -54l-39 -52q-16 -21 -40 -48l-32 -36l-23 -25l-44 -44l-36 -32q14 -14 22 -17q23 -8 58 -13t85.5 -7t79 -2.5t88 0t63.5 0.5l-44 -44q-3 0 -63 -0.5t-88 0
t-79 2.5t-86 7t-58 13q-6 2 -11 6t-10.5 10t-9.5 9l44 44l18 11q9 5 12.5 7.5t7 4.5t6.5 4.5t5 4.5t9 8t12 11l40 46l46 56q26 33 44 62.5t31 58t12 51t-18 34.5q-12 9 -36 9t-50.5 -6t-59 -16t-59.5 -20l-53 -19q-26 -10 -39 -13zM237 632q0 -13 -9 -22t-22 -9t-22 9t-9 22
t9 22t22 9t22 -9t9 -22z" />
    <glyph glyph-name="Zcaron" unicode="&#x17d;" horiz-adv-x="538" 
d="M-20 82q-39 -56 -21 -51q4 1 11 5l39 56q-15 -3 -29 -10zM21 618l44 44q28 -15 57.5 -21.5t65.5 -3t58.5 7t66.5 15t60 14.5q152 33 153 31q3 -5 -0.5 -10t-10.5 -11.5t-9 -9.5l-44 -44l-104 -93l-43 -49l-39 -46l-41 -52l-36 -47l-39 -53l-34 -50l-38 -54
q-29 -43 -35 -51q26 5 55 -4t55.5 -25t55.5 -35.5t60.5 -36t64 -26t71.5 -5.5t79 25q18 43 13 84t-28 67.5t-59.5 39.5t-81.5 -2q-2 -4 -2.5 -6.5t-0.5 -4.5t3 -4t6 -3.5t10 -5.5l14 -8l-44 -44l-18 11q-9 5 -11 5.5t-3.5 5t1 7t6 13.5t7.5 22l44 44q35 17 68 18.5
t58.5 -9.5t44 -32.5t26.5 -49.5t3 -62t-24 -67l-44 -44q-43 -29 -84 -39t-75.5 -4t-67 20.5t-62.5 34.5l-57 37q-27 18 -56.5 30t-55.5 11l-28 -39l-44 -44q-53 -41 -40 -11t49 72l44 44q16 11 32 16l99 141q35 50 94.5 123.5t114.5 129.5l44 44l93 84q2 4 0 8
q-1 2 -153 -31q-15 -3 -59.5 -14t-67 -15t-58.5 -7.5t-65.5 3t-57.5 21.5zM178 760l44 44q1 -1 22 -18l38 -31q17 -14 19 -14q6 1 13 5q13 16 49 53l9 9q-5 -6 -6 -8t-10 -12l-17 -20l-44 -44q-4 -3 -11 -10t-13.5 -11.5t-13.5 -5.5q-2 0 -19 14l-38 31q-21 17 -22 18z" />
    <glyph glyph-name="zcaron" unicode="&#x17e;" horiz-adv-x="443" 
d="M-20 375l44 44q12 3 38 13l54 19q27 10 59 20t59 16t51 6t36 -9q15 -10 17.5 -28.5t-7 -43t-22 -48.5t-34.5 -54l-39 -52q-16 -21 -40 -48l-32 -36l-23 -25l-44 -44l-36 -32q14 -14 22 -17q23 -8 58 -13t85.5 -7t79 -2.5t88 0t63.5 0.5l-44 -44q-3 0 -63 -0.5t-88 0
t-79 2.5t-86 7t-58 13q-6 2 -11 6t-10.5 10t-9.5 9l44 44l18 11q9 5 12.5 7.5t7 4.5t6.5 4.5t5 4.5t9 8t12 11l40 46l46 56q26 33 44 62.5t31 58t12 51t-18 34.5q-12 9 -36 9t-50.5 -6t-59 -16t-59.5 -20l-53 -19q-26 -10 -39 -13zM143 663l44 44q29 -55 52 -93q31 32 56 64
l44 44q-42 -52 -99 -109l-44 -44q-24 39 -53 94z" />
    <glyph glyph-name="longs" unicode="&#x17f;" horiz-adv-x="208" 
d="M157 453q9 14 13 27q9 35 7 92.5t-12 91.5q-2 8 -7 17q-29 -123 -45 -245q22 6 44 17zM106 -62q-83 108 -37 454q-64 -19 -125 1l44 44q42 -14 86 -9q24 159 60 288l44 44q3 -6 10.5 -16t12.5 -18.5t8 -17.5q10 -34 12 -92q2 -57 -7 -92q-2 -8 -6 -15.5t-10 -15t-10 -12
l-12 -13.5l-12 -11l-44 -44q-5 -3 -11 -5q-39 -323 41 -426z" />
    <glyph glyph-name="uni0180" unicode="&#x180;" horiz-adv-x="317" 
d="M57 577q-65 -180 -29 -361q48 112 86 254.5t37 219.5q0 19 -7 66q-53 -90 -84 -171h5zM128 198q7 2 19 4q-9 1 -19 -4zM227 191q3 -44 -11 -106t-26 -86l-44 -44l-16 -7l-18 -7t-16 -2q-23 2 -55 69.5t-42 102.5q-4 13 -7 26l-5 -5l4 8q-49 201 25 401h-106l44 44h80
q39 89 107 192l44 44q1 -10 4 -27.5t4.5 -32t1.5 -27.5q0 -54 -20 -147l4 4q74 -2 152 6l-44 -44q-62 -6 -121 -6q-25 -102 -61.5 -204t-69.5 -160l8 -28q10 -35 42 -102.5t55 -69.5q8 -1 18 2q9 30 16 63t9.5 71t-6.5 59q-103 -28 -107 -25q-3 3 -2.5 5t4.5 5.5t8 6t9 6.5
t7 6l16 16l26 26q-3 -3 -11.5 -8.5t-12.5 -10t-2 -7.5l26 26l2 2q6 2 16.5 8t19.5 9.5t17 2.5q19 -3 28 -25q69 18 80 20l-44 -44q-7 -1 -30 -6z" />
    <glyph glyph-name="uni0181" unicode="&#x181;" horiz-adv-x="580" 
d="M110 128q15 -140 49 -185q2 -3 5 -5q7 84 -54 190zM509 115q29 32 37 62q9 33 -6 59t-43.5 39.5t-59.5 19.5t-58 4q-87 -5 -208 -66l44 44l13 12l4 4l44 44l40 37l-38 -38l-33 -31l-6 -6l-20 -20q118 58 204 64q27 2 57 -5q31 -6 60 -19t44 -39t6 -59q-4 -14 -12.5 -28.5
t-14.5 -22t-21 -24.5l-20 -20l-44 -44q-69 -59 -131.5 -84.5t-138.5 -12.5q-2 -33 -15 -61l-44 -44q-4 2 -11.5 5t-13 6t-9.5 8q-49 65 -57 306q-62 80 -131 134l44 44q43 -34 86 -80q1 145 16 216q4 20 7 31q3 12 8.5 25t7.5 17l12 21l15 25l28 28q-91 -15 -183 -49
q0 -9 1.5 -13t3 -6t12.5 -9t21 -15l-44 -44l-18 14q-10 7 -12 7.5t-5 5.5t-2.5 7t0 13t-1.5 22l44 44q148 63 294 75q64 7 118 -22.5t66 -88.5q6 -31 -0.5 -60t-26.5 -58t-35.5 -46.5t-44.5 -46.5l-16 -16l-6 -6q47 49 71 93.5t14 95.5q-8 39 -35.5 66t-63 37.5t-76 8
t-75.5 -19.5q-14 -23 -20.5 -40t-13.5 -52q-10 -45 -14.5 -133t-0.5 -181q111 -144 106 -258l39 39q74 -14 135.5 8.5t126.5 76.5z" />
    <glyph glyph-name="uni0182" unicode="&#x182;" 
d="M118 25l42 57q14 19 32 53q19 34 26 64q20 83 -12 129q-31 45 -95 35q-2 -107 -2 -181l-1 -18v-39v-44q0 -23 0.5 -38.5t2.5 -16.5q3 -2 7 -1zM73 658l44 44v-28q31 4 87 14l72 13q23 4 51.5 5.5t44.5 2t53.5 0t47.5 -0.5l-44 -44q-9 0 -46.5 0.5t-54 0t-45 -2
t-51.5 -5.5q-21 -3 -60 -10l-55 -10q-1 -55 -5 -242q82 34 127.5 -10.5t22.5 -141.5q-5 -21 -13 -41t-25 -45l-22 -35q-7 -10 -31 -41t-26 -34l-44 -44q-4 -2 -10.5 -9.5t-12.5 -11t-11 -0.5q-1 1 -2 16.5t-1 38.5v44v39l1 18q0 82 3 213q-15 -6 -30 -15l30 30q5 191 5 264
l-24 -2l24 24v3v3z" />
    <glyph glyph-name="uni0183" unicode="&#x183;" horiz-adv-x="354" 
d="M199 69q25 49 31 99t-8.5 83t-48.5 45.5t-88 -12.5q-1 -53 -4 -105q0 -2 -1.5 -17.5t-2.5 -33.5l-2 -37q-1 -19 -1 -32t2 -15q7 -4 12 -3.5t15 4.5t15 4q55 4 81 20zM-2 650l44 44q49 -3 103 1.5t120.5 14t102.5 12.5l-44 -44q-34 -3 -117.5 -14.5t-128.5 -13.5
q11 -174 7 -348l2 2q45 29 81.5 36.5t58.5 -4t35 -36.5t13.5 -58.5t-10.5 -72.5t-33 -76l-44 -44q-32 -26 -51.5 -33.5t-62.5 -10.5q-5 0 -15 -4t-15 -4.5t-12 3.5q-2 2 -2 15t1 32l2 37q1 18 2.5 33.5t1.5 17.5q3 47 4 94l-1 -2l-44 -44l10 21q5 11 5.5 12.5t3.5 7.5t4.5 7
t8.5 10t14 17q4 189 -10 378l13 13q-24 0 -47 1z" />
    <glyph glyph-name="uni0184" unicode="&#x184;" horiz-adv-x="317" 
d="M257 101q10 15 13.5 21.5t8 19t6.5 27.5q12 79 -46 138t-138 65q-3 -66 -8 -135q0 -3 -4 -37t-7 -64.5t-2.5 -61.5t6.5 -39q34 -43 171 66zM60 618l44 44q3 -119 -2 -247q57 8 113 -16t89.5 -75t24.5 -111q-2 -11 -4 -19.5t-6 -17t-7 -13.5l-10 -16q-6 -11 -10 -17
l-44 -44l-23 -20l-34 -26.5t-43 -29t-41.5 -21.5t-38.5 -10t-26 12q-6 8 -6.5 39t2.5 61.5t7 64.5t4 37q7 92 10 178q-6 -1 -11 -2l11 11q4 124 1 238z" />
    <glyph glyph-name="uni0185" unicode="&#x185;" horiz-adv-x="318" 
d="M251 45q38 51 37 110q0 37 -19 58t-50.5 26t-67 1t-74.5 -17q3 -182 14 -199q11 -18 31.5 -22t44.5 3.5t44 17.5t40 22zM56 459l44 44q-2 -3 -6 -8t-7 -9.5t-4 -8.5q-8 -33 -6 -226q42 18 84 26.5t81.5 7.5t64 -22.5t25.5 -63.5q1 -43 -15.5 -75t-50.5 -68l-44 -44
q-16 -12 -37 -23.5t-48.5 -22.5t-52 -8.5t-37.5 22.5q-12 19 -14 227q-54 -22 -81 -45l44 44q14 12 37 24q-1 174 6 203q1 5 4 9l7 9q4 5 6 8z" />
    <glyph glyph-name="uni0186" unicode="&#x186;" horiz-adv-x="626" 
d="M202 476l-4 -4q-5 -4 -10 -9.5t-12 -12.5l-15 -12l-14 -12q-7 -5 -13 -8.5t-9 -3.5q-25 -1 -81 45t-63 74q-2 8 -2 17v20v18l44 44q4 3 15.5 12.5t17.5 13.5l16 12q9 7 18.5 11t19.5 7q51 14 106 10t105.5 -24.5t99.5 -53.5t87 -76t69 -92.5t46 -102.5t17 -107t-18 -106
q-4 -10 -10.5 -20t-15.5 -21.5t-13 -18.5l-44 -44q-7 -4 -19 -13.5t-22 -16t-20 -10.5q-22 -8 -46 -13t-44 -8t-49 -1t-45.5 2.5t-49.5 7.5l-45 10q-12 2 -49 13l-43 13q-7 2 -46 15l-42 14l44 44l41 -14q39 -13 46.5 -15t44 -13t48.5 -13.5t45 -10t49.5 -8t45.5 -2.5t49 1
t44 8q23 5 46 14q15 6 36 22q15 20 20 34q18 50 18 105.5t-16.5 107.5t-46 103t-69.5 92.5t-87 76t-99 53t-105.5 24.5t-106.5 -10q-21 -6 -43 -21q0 -36 2 -46q7 -28 63 -74t81 -45q3 0 9 3.5t13 8.5t14 12l15 12l12 12zM232 506l10 10z" />
    <glyph glyph-name="uni0187" unicode="&#x187;" horiz-adv-x="629" 
d="M599 672l-15 22q-10 14 -12.5 16.5t-9.5 7t-14 3.5l-22 -3l-4 -11q-2 -8 -5 -16l-13 -13q46 -22 52 -62.5t-36 -96.5l-44 -44l-22 -19l-26 -24q-8 -7 -20 -12t-16.5 -4.5t-16.5 8t-20 16.5l-28 28q-3 4 -5 6l44 44q2 -2 5 -6l27 -27q7 -8 18.5 -16.5t16 -9t15 2.5
t18.5 10l22 19q44 68 11.5 112.5t-120.5 47.5q-66 3 -120.5 -25.5t-115.5 -82.5q-4 -5 -15.5 -20.5t-14.5 -20t-12 -17t-12.5 -19.5t-10 -19t-11.5 -24q-5 -11 -10 -26q-16 -45 -23 -95q-8 -51 -4.5 -104.5t28.5 -98t71 -65.5q34 -16 74.5 -20t73.5 -1t79.5 16t72.5 22
t72 27l23 9l-44 -44q-7 -3 -23 -9q-46 -18 -72 -27t-72.5 -22t-79.5 -16t-73.5 1.5t-74.5 19.5q-46 21 -71 65.5t-28.5 98t4 104.5t23.5 95q8 21 15 37.5t17.5 33.5l16.5 26l22 30l24 32l44 44l48 43q17 14 48 37t54 33.5t55.5 18.5t65.5 7q36 -2 65 -11q1 1 8 10l14 20
l44 44q17 4 26 5t16 2t12 -5l9 -8q3 -3 11.5 -15.5t14.5 -20.5z" />
    <glyph glyph-name="uni0188" unicode="&#x188;" horiz-adv-x="415" 
d="M304 327q-30 88 -76 109.5t-124 -18.5q-27 -40 -42.5 -84.5t-18.5 -86.5t5.5 -80.5t26.5 -68t47.5 -47t65 -20t82.5 15.5t97 57l-44 -44q-136 -106 -232 -60q-70 34 -88 131q-20 111 43 219q17 31 41 58l44 44q68 41 113 36t76 -55l18 25l44 44l14 12q8 7 9.5 9.5t5 2
t4 -2.5t5 -10.5t9.5 -16.5l-44 -44q-4 8 -9 16l-6 10q-1 3 -3 4q-6 -8 -7 -9.5t-4 -6.5t-3.5 -7t-4.5 -13l-9 -20l-10 -10q10 -19 19 -45z" />
    <glyph glyph-name="uni0189" unicode="&#x189;" horiz-adv-x="556" 
d="M36 357q-13 -78 -14 -170q-1 -51 10 -132q11 -82 35 -95q3 -2 7 -2q55 160 -22 472q-8 -29 -13 -59h11zM-24 682l44 44q31 -90 53 -167q29 55 67 101l44 44l20 12q13 8 24 14t22 9q43 11 84.5 1t74.5 -37.5t63 -66.5t49.5 -84.5t33 -92.5t14.5 -90.5t-6 -78.5
q-6 -22 -11 -37.5t-14 -30t-15 -22l-22 -26.5l-25 -29l-44 -44l-32 -29l-28 -24q-19 -16 -28 -22l-27 -17q-17 -11 -29 -15l-30 -8q-17 -6 -33.5 -7t-37 -1t-43.5 2l44 44q25 -4 50 -2t42.5 3t37 8.5t33 14t31.5 19t32 24t34 29.5q2 2 11.5 13t10.5 13l9 11q7 9 8.5 12t7 11
t7.5 14l6 14l6 18l5 20q8 34 6 78.5t-14.5 90.5t-33 92.5t-49 84.5t-63 66.5t-75 38t-84.5 -1.5q-16 -4 -47 -24q-46 -64 -77 -145q23 -85 37 -161l9 9q25 -2 54 -2t64.5 1t54.5 1l-44 -44q-18 0 -62.5 -1t-68.5 0q38 -235 -20 -357l-44 -44q-4 -1 -13 -6t-13.5 -6.5
t-12.5 0.5q-24 14 -34.5 95.5t-10.5 131.5q1 96 17 184q-25 1 -60 0l44 44q2 0 25 1q14 58 34 110q-25 91 -62 200z" />
    </font>
</defs>
</svg>
