<?xml version="1.0" standalone="no"?>
<!DOCTYPE svg PUBLIC "-//W3C//DTD SVG 1.1//EN" "http://www.w3.org/Graphics/SVG/1.1/DTD/svg11.dtd" >
<svg xmlns="http://www.w3.org/2000/svg" xmlns:xlink="http://www.w3.org/1999/xlink" version="1.1">
<metadata>
Created by FontForge 20160405 at Sun Nov 11 09:31:44 2018
 By www-data
Traveling_Typewriter(c) Created by Carl Krull. mail@carlkrull - www.carlkrull.dk
</metadata>
<defs>
<font id="TravelingTypewriter" horiz-adv-x="442" >
  <font-face 
    font-family="Traveling _Typewriter"
    font-weight="400"
    font-stretch="normal"
    units-per-em="1000"
    panose-1="2 0 5 6 0 0 0 2 0 4"
    ascent="800"
    descent="-200"
    x-height="454"
    cap-height="583"
    bbox="3 -285 1207 976"
    underline-thickness="50"
    underline-position="-150"
    unicode-range="U+0020-FB02"
  />
<missing-glyph 
 />
    <glyph glyph-name=".notdef" 
 />
    <glyph glyph-name=".null" horiz-adv-x="0" 
 />
    <glyph glyph-name="nonmarkingreturn" horiz-adv-x="333" 
 />
    <glyph glyph-name="space" unicode=" " 
 />
    <glyph glyph-name="exclam" unicode="!" horiz-adv-x="199" 
d="M159 620q0 -20 -3 -40.5t-6 -42.5t-6 -45.5t-3 -50.5q-7 -20 -8.5 -40t-3 -38.5t-6.5 -35t-18 -29.5q-13 0 -18 8.5t-6.5 20.5l-3 24t-7.5 19q-7 33 -8.5 64t-3 61t-6.5 60.5t-18 64.5q14 13 27 17t26 18q7 0 16.5 -0.5t19.5 -4t19.5 -10.5t16.5 -20zM159 191
q7 -14 7.5 -27t-3 -24.5t-9.5 -21t-13 -16.5q-14 -14 -36 -14t-35 14q-27 27 -36 53.5t18 53.5q13 7 29 7.5t31 -3t27.5 -9.5t19.5 -13z" />
    <glyph glyph-name="quotedbl" unicode="&#x22;" horiz-adv-x="388" 
d="M361 673q-6 -26 -9.5 -57t-6.5 -62.5t-7 -62.5t-10 -56q0 -12 -10.5 -14t-23.5 -2v152q6 0 7 3t-0.5 7.5t-4 10.5t-2.5 12q-13 7 -20 16t-10 20.5t-3.5 24t-0.5 25.5q13 12 27.5 22.5t40.5 10.5q6 0 12 -5.5t10.5 -13t7.5 -16.5t3 -15zM142 690q-13 -32 -20 -66.5
t-12 -69.5t-9 -69.5t-11 -65.5h-16q-6 25 -7.5 50.5t-1.5 51t-1 51t-7 50.5q-13 12 -21.5 35.5t4.5 48.5q13 19 28 21t29.5 -4t26.5 -16.5t18 -16.5zM277 571v17q6 0 7 -0.5t-0.5 -2t-4 -5t-2.5 -9.5z" />
    <glyph glyph-name="numbersign" unicode="#" horiz-adv-x="482" 
d="M473 339q-3 0 -4 -3v-5q-1 -1 -4 -1v-6q-10 0 -21 -10q-14 -9 -25 -6v1q-2 1 -7 1.5t-14 0.5q-14 0 -17 6q-6 -1 -7 5q0 3 -2 3q-4 -3 -15.5 -6t-28.5 -17q-1 -1 -1 -17h-2l-3 -27q-4 2 -4.5 -3t-1.5 -6q5 -5 10 -11.5t15 -4.5q3 -2 6.5 -5t8.5 -1q0 -1 1 -2
q4 2 10.5 3.5t15.5 3.5h15q-2 -3 3 -3l6 -4t8 -5q0 -5 3 -10.5t4 -7.5q-2 0 -6 -3v-3q-5 0 -9 -2.5t-2 -5.5q-6 -9 -24 -9h-19q-13 0 -18 -4q-8 -2 -15.5 -3t-15.5 -3q-19 -4 -22 -18q-1 -2 -1 -8q0 -5 2 -11.5t2 -10.5q0 -5 -4.5 -10.5t-2.5 -13.5q-5 -1 -6 -10.5t-6 -9.5
q0 -1 -3 -5.5t-2 -7.5h-3q-1 -4 -1.5 -10t-2.5 -14q-7 -4 -7 -16q1 -18 0 -19q-4 -2 -7 -11.5t-8 -12.5v-5q-1 -2 -4 -6.5t-1 -9.5q-5 -1 -7 -9t-7 -8h-1q-2 0 -3 1v-5q-2 0 -4 -5.5t-13 -7.5q-2 -1 -5 -1q-5 0 -10 6t-8 8v10h-3v10h3v11t2 14q4 0 4 4v8q1 6 12 15
q2 7 -3 15q3 0 3 10q1 1 3 2.5t7 5.5q6 5 5 13q4 -1 4 6q0 8 -6 14q1 8 13 28q3 2 2.5 9.5t1.5 9.5q3 -2 4.5 2.5t2.5 5.5v4q8 16 5 20q-1 1 -1.5 4.5t-2.5 8.5q-1 7 -8 9q0 3 -6 3l-3 1q0 2 -6 2h-3q-2 2 -5 2h-5q-3 2 -7 4.5t-9 7.5q-2 -2 -2 -5q-2 1 -6 1q-7 0 -13 -6
q-3 -2 -4.5 -4t-3.5 -3l-2 -2q-1 -5 -7 -11.5t-6 -12.5q0 -4 1 -6q-4 0 -5 -3q2 -5 -4 -8t-6 -5t5 -5q-1 -4 1.5 -9t2.5 -7t-2 -4q2 -2 3 -5v-5q-6 -2 -6 -11h-2l-3 -46q-2 0 -4 -2v-4q-7 -4 -7.5 -13t-1.5 -17q-3 -5 -6 -9.5t-1 -9.5q-9 -9 -12 -23q1 -2 4.5 -5.5t1.5 -8.5
q-8 -3 -18 -17q-11 -16 -22 -16q-3 0 -7 2v-4q2 4 -4.5 7t-4.5 8h-3v14q1 8 -5 10v18h3l6 30l11 13q8 10 5 20q4 0 4 5v7q0 -1 2 -1h1q2 0 3 4t3 4v6q4 2 3 9t1 9q5 0 5 2q0 5 -1 5h-3q4 2 8 9.5t6 9.5l-4 3h2q1 7 3 24q3 15 3 23q0 11 -5 23q-5 2 -9.5 4.5t-4.5 7.5
q-1 -1 -1 -2q-42 9 -56 -3q0 7 -0.5 17t-1.5 24q31 11 68 8q0 -3 3 -3q12 3 24 13q6 0 16 8q-1 0 7 2v8h1q2 2 2 15q10 11 10 15q3 3 -4 9t-12 12h-29q-15 1 -24 10q-1 2 -2 6q-1 3 -2.5 7t-3.5 10q1 2 6 6.5t5 7.5q9 8 43 11v1q7 -5 14 -4q8 2 15.5 4.5t9.5 4.5q5 5 7 12
q4 0 10 19q3 -2 5.5 2t3.5 5q0 2 -2 7t-2 7q0 6 4 6v12h1l2 1q-5 4 -3 18q0 14 -4 18q0 13 -2 13h-2v15q9 3 9 18v26q2 7 11 11.5t6 9.5q0 5 -2 11t-2 8q0 4 5 7q6 13 22 27l2 6l49 -4q-1 -5 1 -7q-8 -9 -6 -27q2 -24 -1 -30q-5 -3 -7 -14t-7 -13q-2 -2 -2 -10l-2 -4v-6
q-2 -3 -5 -6t-1 -8q-1 -2 -6.5 -7t-3.5 -12q-4 0 -4 -4v-4q-4 -4 -4 -12q-9 -6 -14 -20q-5 0 -12 3l-2 -10q10 -9 9 -26q-1 0 -3 -4v-4q-3 -2 -3 -5v-7q-3 0 -3 -4v-5q-1 0 -1 -0.5t-2 -0.5q5 -5 9 -10t11 -4v-1q2 -1 18 -1q0 -3 1 -4q16 6 19 6v-2q2 0 5 -0.5t9 -0.5
q1 -3 3 -3l2 2q2 2 4 2q3 5 11 10.5t12 10.5q3 4 6.5 11t8.5 18q5 5 5 16q-2 16 0 18q3 0 3 1l1 5q5 4 4 28q-3 0 -6 7q-3 15 7 18l2 30q4 -2 4 5v3l2 3q0 1 -0.5 1.5t-0.5 1.5v1q-2 6 -2 9q0 13 13 14q0 2 3.5 6t3.5 7t-1 4q1 3 8 6.5t6 10.5q5 -2 6 1t3 5v2q3 0 5 2v4
q7 0 7 1v2h11q0 -4 1 -4l5 4v-11q-4 0 -4 -5q2 -5 8 -11.5t6 -12.5q0 -3 -2 -7h-1q-1 -1 -1 -18q-2 0 -8 -3.5t-5 -8.5q-2 -3 -5.5 -6t-1.5 -8q-3 -2 -2 -6v-8q2 -1 2 -9v-12q-4 -1 -5 -9.5t-6 -10.5q2 -8 -7 -14q-8 -5 -5 -13v-4q-4 0 -5 -3v-4q0 -2 -0.5 -3t-0.5 -2v-4
l-4 -2v-5h-2l-4 -26q-4 1 -6 -2l-2 -4q0 -12 10.5 -20t21.5 -14l2 -2q8 2 16 5t17 1v-1l10 -2q7 -1 28 -6q0 -4 6 -4q3 1 6 -3.5t6 -5.5v-6zM288 285q2 5 -2 14q1 5 -4 10.5t-7 10.5q-1 -2 -1 -3t-1 -3q-4 0 -10 -3t-9 -3q-4 0 -6 3q-11 2 -17 5t-9 16h-16q0 -6 -3 -6
q-3 -6 -10 -10q-13 -7 -15 -8q0 -8 -4 -19q-1 -8 2 -23q1 -4 -3 -12q-2 -10 1.5 -22t3.5 -20q2 -2 9.5 -1.5t8.5 -4.5h4l2 -2q2 -1 4.5 -1t4.5 -1q8 0 10 4q3 8 19 23q4 1 14 11q5 2 9 9t9 9q0 8 7 15t9 12z" />
    <glyph glyph-name="dollar" unicode="$" horiz-adv-x="528" 
d="M300 706q10 -12 13.5 -23.5t3 -22.5t-2.5 -21.5t-2 -21.5q14 -3 28 -4.5t27 -6t23.5 -14.5t17.5 -28q7 8 11.5 19t8.5 20.5t8.5 16.5t12.5 7q15 -8 20 -16t5 -16t-2.5 -15.5t-2.5 -15.5q-15 -31 -17.5 -64t-2.5 -79h-41q-16 15 -18.5 30t-2.5 28.5t-2.5 24.5t-18.5 19
q0 6 -5 15t-12.5 17.5t-16 15.5t-16.5 11q-11 -60 -16.5 -124t-7.5 -123q44 -4 85 -16t72 -42q30 -31 43 -74t-3 -90q0 -32 -25 -60t-56 -43q-24 -15 -54 -22.5t-61 -7.5q0 -17 4 -30q-5 -3 -11 -8l-12 -10t-12 -8t-13 -1q-5 -3 -11 -1t-11 6.5t-8 11t-1 13.5q8 5 11 15.5
t-1 20.5q-27 8 -46 21l-83 61q-15 -8 -21 -24.5t-10 -31.5t-10 -24.5t-21 -1.5q-15 0 -17.5 2.5t-2.5 18.5q15 23 20.5 52.5t7.5 60.5t3.5 60.5t9.5 52.5q15 0 20.5 -10t7.5 -23.5t3.5 -27t9.5 -21.5q31 -47 62 -77.5t62 -46.5h6q3 11 5 21t-3 20l11 36q-8 14 -9.5 25.5
t-1.5 22v20t-5 18.5q9 5 11 9t1.5 6.5t-0.5 5t4 4.5l-11 25q7 3 12 -1q3 -2 4 -4q5 2 5 3.5t-1 3.5t-1.5 4.5t2.5 5.5l-11 -7q-4 9 0.5 16t-0.5 16q4 7 6 17q-28 6 -54 14.5t-48.5 23t-39.5 35.5t-27 51q0 31 4.5 61t16.5 57t32 49.5t51 38.5q9 0 22.5 3.5t30.5 4.5
q-3 3 -6 5.5t-5 6.5q3 7 3 13t1 12t3.5 13.5t8.5 17.5q7 -2 14 0.5l14 5t15 3t17 -5.5zM386 51q63 61 63 124q-16 30 -33.5 58t-49.5 44q-18 3 -37 6t-39 6q-2 -16 -5 -32.5t-1 -30.5q-2 -18 0 -35t4 -33.5t2 -34t-6 -37.5q7 -13 8.5 -28.5t0.5 -32.5q26 -2 50 2.5t43 23.5z
M182 564q-16 -8 -24.5 -19t-14.5 -24.5t-11 -28.5t-13 -30q0 -31 18 -61.5t65 -62.5h41q-1 6 -1.5 11.5t1.5 10.5q-5 8 -6.5 11t-6.5 12q10 12 10 23t-2.5 21t-3 21t9.5 23q-5 9 -3.5 21.5t-3.5 21.5q-2 17 1 36.5t5 39.5q-15 -4 -30.5 -11t-30.5 -15z" />
    <glyph glyph-name="ampersand" unicode="&#x26;" horiz-adv-x="554" 
d="M322 541q7 -14 7.5 -33.5t-3 -40.5t-10 -41t-13.5 -33q-27 -14 -55 -28.5t-56 -28.5q7 -21 17 -35.5t20.5 -26.5t20.5 -23.5t17 -25.5q13 -7 21.5 -19.5t17 -24.5t21 -21t33.5 -9q7 21 14 44.5t15.5 46t19.5 43t25 34.5q21 6 35.5 3.5t26.5 -9t23.5 -16t25.5 -16.5
q-7 -7 -8.5 -17t-3 -20.5t-6.5 -20t-19 -16.5q-7 0 -17 -2.5t-20 -2.5t-20 4.5t-17 18.5q-7 -7 -8.5 -14t-1.5 -14t-1 -14t-8 -14q-14 -14 -25 -27.5t-11 -27.5q13 -28 30 -38t34 -13.5t34 -6.5t31 -17q0 -27 -11.5 -41t-25.5 -14q-42 14 -71.5 39t-58.5 54q0 -14 -2.5 -19
t-16.5 -19q-14 0 -24.5 -5.5t-19 -10.5t-16 -7t-14.5 4q-21 -21 -41.5 -23t-39.5 5t-36.5 18.5t-31.5 18.5q-28 14 -43 34.5t-22 45t-8 51.5t-1 55q29 28 56 58t56 72q-7 14 -22 25.5t-29 23.5t-22 27t-1 36q0 14 0.5 31t4 34t10.5 34t21 31q14 0 25 6t21.5 13t21.5 13t25 6
q21 0 41.5 -7t37.5 -19t30.5 -29.5t20.5 -38.5zM267 523q-7 14 -17 21.5t-20.5 13t-20.5 9.5t-17 11q-28 -14 -44 -27.5t-30 -27.5q-7 -21 -4.5 -39t9.5 -35.5t16 -35.5t16 -39q28 0 53.5 14t39.5 41q7 14 13.5 25t10 21.5t3 22t-7.5 25.5zM248 169q-14 14 -25 31
t-21.5 34.5t-21.5 34.5t-25 31q0 -14 -11.5 -19t-25.5 -19t-19 -39t-19 -54q0 -14 3.5 -30t10.5 -30t18 -23t25 -9q7 7 11 4.5t7.5 -7.5t7.5 -10.5t11 -5.5h18q14 -7 28 -4.5t28 9.5t27.5 16t27.5 16q7 7 4.5 17t-11 20.5t-21.5 20t-27 16.5z" />
    <glyph glyph-name="quotesingle" unicode="'" horiz-adv-x="138" 
d="M91 623l14 -1l-13 -119v-6q-11 -9 -28.5 -7.5t-26.5 1.5q-2 26 -0.5 50.5t3 48t0.5 47t-8 49.5q11 5 29 5.5t40 0.5q10 0 13 -2t3 -5t-2 -6t-2 -5q-6 -5 -5.5 -11t0.5 -12.5t-2.5 -13.5t-14.5 -14z" />
    <glyph glyph-name="parenleft" unicode="(" horiz-adv-x="265" 
d="M232 679q11 0 11 -10t-11 -21q-24 -12 -40 -31.5t-39 -30.5q-35 -36 -53 -84t-22.5 -100.5t3.5 -106t25 -99.5q6 -18 15.5 -40t24 -42.5t35.5 -36.5t51 -22v-31q0 -23 -20 -25t-44 10q-12 17 -28 35t-32 36.5t-29 39.5t-19 44q-18 24 -25 50t-10 52t-4.5 52t-7.5 49
q0 46 13.5 92.5t37 89t54.5 79.5t66 66q12 6 18.5 6.5t11 -2.5t8.5 -8t10 -11z" />
    <glyph glyph-name="parenright" unicode=")" horiz-adv-x="247" 
d="M173 573q0 -18 5 -30.5t11 -24.5t11 -24.5t5 -29.5q45 -117 0 -233l15 -16q-23 -11 -27 -32.5t-4 -44.5q-18 -18 -28.5 -37.5t-20.5 -38.5t-23 -35.5t-36 -28.5q-12 0 -18.5 2.5t-11 7t-8 10t-9.5 11.5q0 12 8 21t19.5 16t25 13t24.5 12q23 35 39 79.5t39 91.5
q-12 12 -12 31.5t12 30.5q0 59 -19.5 124.5t-43.5 124.5q-23 11 -46 30.5t-46 30.5q-12 12 -12 22t12 10q0 11 2 15t13 16q17 -6 32 -19.5t29.5 -31t29.5 -36.5t33 -37z" />
    <glyph glyph-name="asterisk" unicode="*" horiz-adv-x="289" 
d="M270 288l-3 -20l-12 -5l-10 -7l-10 -1l-15 -1l-14 -2l-8 -4l-7 -4l3 -4l9 -6l8 -8l12 -8l11 -10l7 -18l5 -13l3 -12l-2 -6l-5 -10l-7 -8l-10 -4l-9 -1h-11l-12 3l-9 2l-9 16l-8 8l-9 12l-8 9l-3 4l-3 -4l-6 -9l-8 -10l-7 -12l-10 -12l-15 -8l-12 -6l-11 -3l-6 2l-8 7
l-8 6l-3 11l-1 10v12l1 13l3 11l15 10l7 8l11 9l9 10l2 9h-8l-10 6l-12 2l-10 3l-14 12l-16 10l-4 12l-2 12l-2 15l16 24l15 13l11 -5l11 -2l10 -6l11 -8l12 -10v6l1 11l-2 14l-1 10l5 18l4 20l9 8l9 7l14 6l11 -3l13 -4l16 -10l1 -14l2 -12l-2 -12l-4 -14l-4 -17l1 -8l6 -2
l11 6l8 5l17 1l18 3l11 -6l9 -7l10 -12l1 -12z" />
    <glyph glyph-name="plus" unicode="+" horiz-adv-x="363" 
d="M205 460v-93q6 -6 4.5 -12t-4.5 -11.5t-4.5 -11t4.5 -11.5q35 0 69.5 2t69.5 13q11 -11 13 -23t2 -23q-12 -12 -28.5 -13.5t-34 0t-33.5 2.5t-28 -5q-6 6 -11 7t-10 -1t-9 -6v-93q4 -4 6 -9q4 -11 -6 -21q0 -12 -10 -19.5t-21 3.5q-12 12 -13.5 28.5t0 35t2.5 38t-5 37.5
q-18 6 -35.5 6.5t-36.5 -1t-39 -3.5t-43 -2v47q12 11 26 10.5t28 -5t28 -8t25 2.5q6 0 12 -2.5t12 -4t11.5 -0.5t11.5 7l16 15l-16 124q0 11 7.5 16.5t16 5.5t16 -5.5t7.5 -16.5z" />
    <glyph glyph-name="comma" unicode="," horiz-adv-x="169" 
d="M139 76q6 -23 3.5 -48t-9.5 -50.5t-17.5 -50.5t-21.5 -48q-6 -6 -11.5 -8.5t-10.5 -4.5t-9 -2q-11 11 -7.5 22.5t12 22.5t17.5 22.5t9 22.5q0 6 2 14t3.5 16.5t0.5 16.5t-6 14q-6 -6 -12 -7t-11.5 -1t-11 -0.5t-11.5 -6.5q-11 6 -17 14t-9 18t-3.5 21t-0.5 23
q11 11 22.5 22t22.5 22q12 -6 23 -7t21 -4t18 -10t14 -23z" />
    <glyph glyph-name="hyphen" unicode="-" horiz-adv-x="355" 
d="M136 310v12h190q7 -5 9.5 -11t2.5 -13t-1 -13t-1 -10q-39 -5 -75.5 -5.5t-72 -2t-72 -4.5t-75.5 -12q-8 9 -9 25t-1 34q0 9 3 12t7.5 3t9.5 -1.5t9 -1.5q7 -5 15.5 -4t18.5 2.5t20.5 0t21.5 -10.5z" />
    <glyph glyph-name="period" unicode="." horiz-adv-x="188" 
d="M170 69q0 -29 -12.5 -46.5t-27.5 -32.5q-15 0 -26 -2.5t-20.5 -2.5t-17.5 5t-15 20q-15 15 -25 30t5 29q0 15 7 23.5t18 14t25 10t29 12.5q7 -8 14.5 -12.5t15 -10t15 -14t15.5 -23.5z" />
    <glyph glyph-name="slash" unicode="/" 
d="M426 633q5 -19 -0.5 -32t-13.5 -24t-16 -21.5t-8 -25.5q-39 -48 -76 -102t-66 -103q-9 -20 -25 -38.5t-26 -38.5q-10 -14 -16 -28.5l-12 -29t-14 -29t-22 -28.5q0 -15 -6.5 -29.5t-14.5 -28.5t-17 -28.5t-13 -29.5q-5 0 -12 -1.5l-14 -3t-14 -1t-11 5.5q-11 0 -17 14.5
t3 24.5q11 0 18.5 8t7.5 18t6 17.5t13.5 14.5t13.5 14.5t6 17.5l26 25q0 15 4 25t8.5 18.5t8.5 16t4 17.5q10 0 13.5 2t4.5 5t2 5t6 2v25q5 0 6.5 -2.5t3.5 -4.5l2 -6q5 0 6 1.5t1 4t0.5 4.5t3.5 3h-11q0 4 2 7t5 5.5t5 5.5t2 8q9 4 14.5 13t9 18.5t6 18t7.5 13.5v26
q15 5 19.5 13.5t7 18.5t7 19t18.5 14q0 9 6.5 18.5t6.5 19.5q9 19 25 38t26 39q5 5 5.5 9.5t-0.5 9.5t-3 10t-2 10q10 9 14.5 18.5t23.5 19.5q5 -5 12 -6t14.5 -2t14 -4.5t11.5 -13.5z" />
    <glyph glyph-name="zero" unicode="0" horiz-adv-x="537" 
d="M395 579q37 -29 59.5 -71.5t35.5 -92t17.5 -103.5t4.5 -105q-15 -29 -33.5 -63.5t-42.5 -65.5t-53.5 -55t-66.5 -31q-146 -30 -234 118q0 14 -6.5 26t-14 24.5t-13.5 28.5t-6 38q-7 44 -3.5 90.5t16 92.5t34.5 89t51 80q15 0 26.5 6t22.5 13.5t22.5 13.5t26.5 6
q45 0 86 -5t71 -34zM376 540q-15 15 -36.5 22.5t-45.5 9t-48.5 -2t-46.5 -10.5q-15 -15 -32 -33t-31.5 -38t-24.5 -41.5t-10 -43.5q-14 -30 -16.5 -69t-2.5 -69q0 -22 9.5 -47t24.5 -50.5t32 -50.5t32 -47q29 -29 70.5 -31.5t85.5 11.5q37 22 63 57.5t42.5 77.5t24 88
t7.5 90q-15 30 -29.5 69t-29.5 69z" />
    <glyph glyph-name="one" unicode="1" horiz-adv-x="559" 
d="M284 651q8 8 15.5 8.5t13 -3t9 -11t3.5 -14.5v-537q-8 0 -8.5 -3.5t1 -9.5t4.5 -13.5t3 -15.5h187q7 0 14.5 -3.5t11 -9.5t3 -13.5t-8.5 -14.5q-8 -15 -18.5 -20.5t-22.5 -5.5t-23 2.5t-19 2.5q-39 -8 -74 -8.5t-67.5 1t-64 4.5t-62.5 3q-23 0 -39.5 -3t-30 -4.5t-26 -1
t-28.5 8.5q-15 0 -20.5 4t-5.5 11.5t2.5 19.5t2.5 27q24 16 44.5 15t41.5 -7t45.5 -11t55.5 3q0 -8 3 -9t7 1q4 3 10 8q16 17 18.5 32t2.5 30q-8 46 -6 96t5.5 100.5t5.5 100t-5 96.5v61q-10 16 -31 18t-45.5 -0.5t-50 -6t-45 0t-30 19.5t-5.5 52h227z" />
    <glyph glyph-name="two" unicode="2" horiz-adv-x="525" 
d="M470 415q-8 0 -8.5 -3.5t1 -9t4.5 -13t3 -14.5q-22 -37 -50.5 -54.5t-57.5 -26.5t-57.5 -15t-50.5 -21q-21 0 -36.5 -6.5t-28.5 -15.5t-25 -19.5t-27 -17.5q-7 -15 -14 -32.5t-14.5 -36t-15 -36t-14.5 -31.5h254q22 0 43.5 -3t42 -4.5t38.5 -1t33 8.5q14 -15 14 -20
t-14 -19q-8 -15 -18 -20t-21.5 -5.5t-22 2t-17.5 2.5q-51 8 -96.5 6t-89.5 -5.5t-89 -5.5t-97 5q-14 45 -4.5 89t24.5 87q22 15 41.5 32.5t39.5 34t43 30t52 21.5q15 7 29.5 17t29 17.5t29 9.5t29.5 -5q15 15 29 27t25.5 24.5t18 28.5t6.5 38h19q30 0 32.5 -12.5
t-12.5 -26.5zM450 551q0 -15 8.5 -26.5t14 -22.5t2.5 -22.5t-25 -25.5q0 14 -2.5 26t-16.5 12q0 7 -6.5 14.5t-15.5 15t-19.5 15t-17.5 14.5q-29 29 -70.5 41.5t-86.5 -2.5q-15 0 -26.5 -8.5t-21.5 -20l-20 -23t-20 -18t-22 -5t-26 16.5q15 29 36.5 48.5t47 32t54 21
t57.5 15.5q58 -14 102.5 -34t73.5 -64z" />
    <glyph glyph-name="three" unicode="3" horiz-adv-x="494" 
d="M223 645q19 6 41 4.5t44.5 -4.5t44.5 -4.5t42 4.5q13 0 20 -3t12 -9.5t9 -16t10 -22.5q-51 -39 -100.5 -79.5t-88.5 -92.5q14 -13 28.5 -15t40.5 -2q39 0 75 -24t62 -62q7 -13 7.5 -28.5t-1 -33.5t-4 -37t-2.5 -38q-19 -13 -33 -28.5t-26.5 -32t-27 -32t-33.5 -28.5
q-6 -13 -15 -15t-19 -2t-19 -2t-15 -15q-26 -13 -54.5 -30t-59.5 -30t-63 -17.5t-64 8.5q0 5 -2 11q-3 10 -15 24q13 19 34 24.5t45 7t48.5 4t44.5 15.5q32 6 63.5 22t58.5 38.5t49 51t35 60.5q13 6 17 15.5t4 20.5t-2 24t-2 26q-13 13 -23.5 25t-21.5 21.5t-25 15.5t-33 6
q-17 9 -33 6.5t-30.5 -9.5t-28.5 -15.5t-27.5 -11.5t-26.5 3t-26 27q0 7 5.5 13t14 11t17.5 8t15 3q51 52 89.5 94.5t64.5 94.5q-19 -6 -38.5 -5t-38.5 2.5t-38.5 0t-38.5 -14.5q-13 6 -31.5 0t-37.5 -11t-37.5 -1.5t-31.5 29.5q0 6 0.5 15t4 19t10.5 19t20 15
q26 -13 62.5 -15t74.5 -2z" />
    <glyph glyph-name="four" unicode="4" horiz-adv-x="462" 
d="M174 647q6 -25 4.5 -47t-6 -44t-9.5 -44t-5 -47q-13 -63 -27 -114t-39 -101v-17h198q0 50 -2 107.5t-14 107.5q6 0 14.5 5t18 9.5t18.5 6.5t15 -4v-215q6 -12 15 -13.5t18 1.5t18 7.5t15 4.5h33q0 -6 2.5 -15t4 -18.5t0.5 -18t-7 -14.5q-18 0 -33.5 5t-28 9.5t-22 6
t-15.5 -4.5q0 -25 2 -47t3.5 -42t1 -39t-6.5 -37q0 -12 -5.5 -21.5t-13 -14t-16.5 -4t-15 6.5q-12 18 -11.5 34t3.5 31.5t3.5 31.5t-11.5 35q12 12 14 26.5t2 39.5q-12 6 -24.5 7t-25 -0.5t-25 -4t-24.5 -2.5q-38 -12 -74.5 -14t-74.5 -2q-12 0 -22.5 10t-10.5 23q0 12 8 22
t17 19t17 19t8 22q6 19 12 35t10.5 31.5t7.5 31.5t3 35q12 25 16 49.5t4 49.5t-2 49.5t-2 49.5q-10 0 -6 8q2 4 6 9q6 6 15 11.5t18.5 7t18 -2.5t14.5 -16z" />
    <glyph glyph-name="five" unicode="5" horiz-adv-x="432" 
d="M109 613h280q6 0 9 -5t4.5 -12.5t1.5 -15v-13.5q-23 -12 -46.5 -9t-46.5 8.5t-46.5 8.5t-46.5 -8q-23 0 -46.5 -2t-46.5 -14q0 -35 2 -70t13 -70q47 12 93 20t93 -4q12 0 18.5 -5t11 -11t8 -11t9.5 -5q47 -45 47 -139q-18 -47 -49 -89.5t-71.5 -77.5t-89.5 -60t-101 -37
q-12 0 -23.5 -4t-23 -5.5t-23 3t-23.5 21.5q11 12 15 24t16 23q18 -6 32.5 -2t27.5 10t25 10t23 -2q12 17 26 22t27 6.5t24 3.5t17 14q23 23 47.5 47t43.5 50.5t29 56t4 64.5q-6 17 -17 26.5t-24 15.5t-26.5 9.5t-25.5 9.5q-6 -6 -14.5 -7t-17 -1t-16.5 -0.5t-14 -6.5
q-12 6 -21 4t-18 -6t-18 -8.5t-21 -4.5q-11 -12 -23 -14t-23 -2q-12 12 -11.5 28.5t3.5 35.5t3.5 39t-11.5 37v108q0 12 5 13.5t10.5 0t10.5 -2.5t5 5z" />
    <glyph glyph-name="six" unicode="6" horiz-adv-x="429" 
d="M379 609q-18 -19 -36.5 -24.5t-37 -7t-37 -3.5t-36.5 -15q-49 -36 -83.5 -80.5t-47.5 -81.5q-11 -25 -21.5 -51t-10.5 -63q13 0 24.5 8t24.5 8q6 12 17.5 19t27 10t33.5 3.5t36 0.5q24 0 49 -10.5t49 -22.5q37 -25 57 -69t8 -94q-12 -37 -26.5 -69t-38.5 -45
q-50 -37 -98.5 -39t-97.5 22q-31 13 -50 33.5t-31 47t-19.5 56t-13.5 60.5q0 61 12.5 111.5t36.5 99.5q13 12 17 34.5t15 47.5q25 30 52.5 52.5t56.5 39t59.5 30t60.5 25.5q6 0 14.5 -3t16 -7.5t13 -10.5t5.5 -12zM330 234q0 12 -8 21.5t-20.5 17t-26.5 14t-26 12.5
q-25 6 -46.5 3.5t-41.5 -10t-38.5 -18.5t-36.5 -23q-18 -13 -21 -28t0 -30.5t6.5 -30t-2.5 -26.5q6 -6 11.5 -10t8.5 -8.5t3 -11.5t-6 -19q36 -36 74.5 -50.5t88.5 -14.5q24 13 46 35t35 46q6 12 11 27.5t6.5 32t-2 35t-15.5 36.5z" />
    <glyph glyph-name="seven" unicode="7" horiz-adv-x="457" 
d="M430 663v-17q0 -25 2 -52.5t0.5 -54t-9 -50.5t-26.5 -43v-16q-13 -13 -25 -33.5t-25 -33.5q0 -6 -2.5 -10t-6 -9t-6 -12t-2.5 -19q-12 0 -22.5 -4t-10.5 -29q-25 -26 -41.5 -52.5t-41.5 -64.5q-6 -19 -4.5 -37.5t4.5 -37.5t4.5 -37.5t-4.5 -37.5q-13 -12 -25 -20.5
t-25 4.5q-12 12 -13.5 27.5t1.5 32.5t7.5 35.5t4.5 37.5q13 63 47.5 122.5t85.5 110.5q0 13 2 17t15 16q0 -6 2.5 -6.5t5.5 2.5t5.5 9t2.5 12q6 6 5 12.5t-2.5 12.5t0.5 12.5t14 12.5q12 12 16.5 27.5t6 32.5t3 35.5t7.5 37.5q-6 6 -17.5 7t-24 -0.5t-24 -4t-17.5 -2.5
q-25 0 -47.5 2.5t-44 4t-44 0.5t-47.5 -7q-6 -6 -7.5 -17.5t-1.5 -24t-1 -24t-7 -17.5q0 -13 2 -23t15 -10q-6 -6 -12.5 -14.5t-14.5 -15t-17.5 -8.5t-22.5 4q-12 13 -11.5 25.5t5.5 25t8.5 25t-2.5 24.5q6 12 7.5 27t3 31t6 31t17.5 28q43 0 87 -2.5t87.5 -4t87 -0.5
t87.5 7z" />
    <glyph glyph-name="eight" unicode="8" 
d="M304 647q25 -14 46 -36t21 -48q11 -51 -1 -96.5t-50 -69.5q-12 0 -24.5 -10.5t-24.5 -23.5q50 -14 84.5 -46.5t48.5 -70.5q6 -31 5.5 -64.5t-10 -65t-29 -59t-50.5 -46.5q-12 0 -26.5 -7.5t-40.5 -7.5q-12 -6 -24.5 -5t-25 4t-25 5t-24.5 -4q-6 12 -15 19.5t-18.5 13.5
t-18.5 13.5t-15 19.5h-35q7 6 8 12t-1 11t-7 11q-11 25 -19.5 50t4.5 50q-6 13 -2 22.5t10 17.5t10 14.5t-3 12.5q14 38 47 62t71 38q-12 13 -29.5 25.5t-33 26.5t-26.5 29.5t-11 34.5q0 25 1 49.5t7.5 46.5t20 40.5t38.5 31.5q37 24 83 24t84 -24zM304 580q0 13 -10.5 23
t-22.5 10q-19 0 -38 2t-36 2t-32.5 -4t-27.5 -16q-14 -26 -16 -59t-2 -59q0 -19 8.5 -32t21 -24t27.5 -21t28 -22q37 13 70.5 37t45.5 62q13 26 11 50.5t-27 50.5zM354 263q-13 12 -28 26.5t-32.5 27t-36 20.5t-37.5 8q-38 -11 -71.5 -28t-45.5 -54q-12 -25 -20.5 -60.5
t4.5 -73.5q0 -12 8 -19.5t17 -13.5t17 -13.5t8 -20.5q6 -6 14.5 -7t16 -1t13 -1t5.5 -7q38 0 73.5 4t60.5 28q38 38 42.5 86t-8.5 99z" />
    <glyph glyph-name="nine" unicode="9" horiz-adv-x="433" 
d="M384 514q6 -12 11.5 -26t8.5 -29t2.5 -29t-6.5 -26q0 -85 -25.5 -156t-85.5 -131q-12 -24 -29.5 -40t-38 -29.5t-44 -26.5t-47.5 -31q-24 0 -38 10t-26 23q12 11 16 21t16 10q18 -6 33.5 -1.5t30.5 13.5t30 19.5t33 16.5q18 24 35.5 42.5t32.5 36.5t26.5 37t17.5 43
q12 11 16 23t16 24q-6 6 -7 12t-1 12t-1 11.5t-7 11.5q-24 -12 -48 -27.5t-49.5 -27.5t-52.5 -16t-57 8q0 12 -10 14t-22 2q-24 12 -45.5 33.5t-33.5 46.5q10 0 14 8q2 4 2 8q-12 0 -16 7.5t-4 18t2 21t2 16.5q0 12 0.5 26.5t3.5 29.5t9 29.5t18 26.5q48 35 95.5 55t95.5 8
t82 -45.5t45 -82.5zM337 530q-12 24 -32 37t-44 19t-49.5 7t-49.5 1q-30 -12 -46.5 -31.5t-24 -42t-8.5 -45t-1 -40.5q0 -12 5.5 -26t14.5 -27.5t20.5 -24.5t23.5 -17q24 -12 55.5 -20t55.5 4q12 0 23.5 8t22 20t19.5 26t15 26q18 12 20 26.5t-2.5 30.5t-11 33.5t-6.5 35.5z
" />
    <glyph glyph-name="colon" unicode=":" horiz-adv-x="182" 
d="M148 469q15 -15 15 -32.5t-15 -47.5q-15 -15 -39.5 -17.5t-39.5 -2.5q-15 15 -27.5 20t-12.5 20q-15 30 -2.5 54.5t42.5 24.5q7 15 17.5 16.5t22 -4t21.5 -15t18 -16.5zM168 150q0 -29 -12.5 -46.5t-27.5 -32.5q-15 0 -26 -2.5t-20.5 -2.5t-17.5 5t-15 20q-15 15 -25 30
t5 29q0 15 7 23.5t18 14t25 10t29 12.5q7 -8 14.5 -12.5t15 -10t15 -14t15.5 -23.5z" />
    <glyph glyph-name="semicolon" unicode=";" horiz-adv-x="180" 
d="M147 469q15 -15 15 -32.5t-15 -47.5q-15 -15 -39.5 -17.5t-39.5 -2.5q-15 15 -27.5 20t-12.5 20q-15 30 -2.5 54.5t42.5 24.5q7 15 17.5 16.5t22 -4t21.5 -15t18 -16.5zM144 89q6 -23 3.5 -48t-9.5 -50.5t-17.5 -50.5t-21.5 -48q-6 -6 -11.5 -8.5t-10.5 -4.5t-9 -2
q-11 11 -7.5 22.5t12 22.5t17.5 22.5t9 22.5q0 6 2 14t3.5 16.5t0.5 16.5t-6 14q-6 -6 -12 -7t-11.5 -1t-11 -0.5t-11.5 -6.5q-11 6 -17 14t-9 18t-3.5 21t-0.5 23q11 11 22.5 22t22.5 22q12 -6 23 -7t21 -4t18 -10t14 -23z" />
    <glyph glyph-name="less" unicode="&#x3c;" horiz-adv-x="235" 
d="M182 394q-17 -25 -27 -33q-13 -39 -36 -48q-6 0 -10 -18l-22 -4l2 -9h10l10 2q4 -4 5 -18q10 -4 19 -31l6 -6v-3q18 6 7 -9q7 0 35 -36l14 -22l10 -26q-18 -18 -42 -15l-27 23q-15 0 -19 22q-23 19 -40 43q-13 26 -20 30q-20 -4 -27 27q-21 8 -27 15v2q10 9 10 24
q32 14 39 26q11 0 19 14q11 10 11 14l8 6q8 15 21 26l8 23q3 9 42 36q24 0 34 -22z" />
    <glyph glyph-name="equal" unicode="=" horiz-adv-x="437" 
d="M398 149l-11 -13l-13 -8h-319v56q14 0 42.5 2.5t42.5 2.5q38 0 113 2t113 2h6q28 -12 28 -29zM85 269q-4 0 -30 6v39h-24l24 3v8q44 6 46 6q7 0 15 -4q9 1 13 4h262v-58h-276q-5 0 -15 -2t-15 -2z" />
    <glyph glyph-name="greater" unicode="&#x3e;" horiz-adv-x="238" 
d="M40 436q10 22 34 22q40 -27 43 -36l8 -24q13 -11 21 -26l8 -6q0 -4 11 -14q8 -14 19 -14q7 -12 40 -26q0 -15 10 -25v-2q-6 -7 -27 -15q-7 -31 -28 -27q-7 -4 -20 -30q-17 -24 -40 -44q-4 -22 -19 -22l-28 -23q-24 -3 -42 15l10 26l14 23q28 36 36 36q-12 15 7 9v3l6 6
q9 27 19 31q1 14 5 19l10 -3h10l2 10l-22 4q-4 18 -10 18q-23 9 -37 48q-10 8 -27 34z" />
    <glyph glyph-name="question" unicode="?" horiz-adv-x="401" 
d="M369 560q7 -14 7.5 -31t-3 -34.5t-10 -34.5t-13.5 -31q-5 -14 -17.5 -24.5t-28.5 -19.5t-31.5 -18t-26.5 -21t-14.5 -28.5t5.5 -39.5q-7 -7 -14 -13.5t-14 -10t-14 -3t-14 7.5q-7 14 -4.5 31t9.5 35t16 35t16 31q14 7 31 12t33 12t29 18.5t20 32.5t4.5 39t-11 34
t-22 30.5t-27.5 28.5q-29 14 -56.5 16.5t-56.5 2.5q-29 -14 -45 -28.5t-30 -28.5q-7 -14 -2 -19t13.5 -8.5t17 -9t8.5 -19.5q-7 -7 -11.5 -17t-10 -19t-13 -15t-21.5 -6q-7 7 -17 8.5t-19 3.5t-15 7t-6 19q0 21 6 39t15 34t19 30.5t17 28.5q35 14 78.5 23t86 5t79 -23.5
t57.5 -61.5zM275 146q0 -14 -2.5 -30.5t-16.5 -44.5q-14 -14 -39.5 -16.5t-54.5 -2.5q-7 14 -14 25t-12 21.5t-8.5 22t-3.5 25.5q14 14 37 24t46 11.5t42 -6.5t26 -29z" />
    <glyph glyph-name="at" unicode="@" horiz-adv-x="724" 
d="M696 386l-13 -57q-1 -5 3 -12t4 -14q0 -5 -3 -12l-5 -26q-2 -13 -3 -22.5t-5 -18t-5 -11.5q-4 -16 -4 -29q0 -7 -1 -10q-7 -7 -9 -10q-10 -11 -10 -12q2 -4 2 -7q0 -5 -5 -17l-5 -13l-17 -12l-20 2l-25 -10h-30l-26 8l-29 15l-16 20l-47 47l-40 -38q-21 -12 -51 -12
t-53 11.5t-43 35.5q-2 3 -7 13t-11 16.5t-11.5 14.5t-10.5 20l-5 12q-1 7 -5.5 13t-4.5 14q2 6 2 17l-2 35q0 7 8 16.5t10 15.5q6 19 18.5 40t23.5 41q12 9 25 18q9 6 29 14q30 11 32 12t10 1q7 0 15.5 -1t16.5 -2q16 0 31.5 -5t40.5 -27l5 12l20 15l22 1l20 -6l17 -22v-27
l-7 -26l7 -30l-12 -17l2 -25l11 -27l-1 -21l-10 -20l3 -19v-30l15 -18l10 -22l23 2q22 15 29 26q4 4 6 7q6 10 13 23q1 1 5.5 8.5t4.5 10.5v67q2 4 3 7t1 6q0 7 -6 22q-1 5 -6 14v44q-1 7 -6 9t-5 21q-5 4 -7.5 7.5t-14.5 16.5l-13 13l-4 10q-4 8 -11 16.5t-12.5 13
t-11.5 7.5l-20 12q-4 5 -5 6q-7 8 -10 9q-10 4 -20 8.5t-23 7.5t-23 5q-6 3 -9 5q-5 4 -10 5q-15 -2 -21 0q-10 2 -23.5 4.5t-26.5 2.5l-19 1q-4 -1 -6.5 -4.5t-4.5 -3.5q-3 0 -8 1t-9 1q-7 0 -13 -1t-25 -9q-11 -4 -21 -8l-21 -7l-31 -27l-11 -6q-5 -5 -7 -9t-3 -8
q-16 -12 -22.5 -23.5t-6.5 -18.5v-10l-16 -17v-10q0 -11 -3 -22l-8 -20l-3 -21l-4 -20q-2 -9 -2 -10q0 -5 5 -14q1 -3 0 -7l-10 -46q0 -3 2.5 -7t4.5 -6q0 -5 -2 -5t-2 -5q4 -11 6 -16q5 -20 16 -40l10 -20q3 -4 10.5 -12t8.5 -9q6 -8 12 -13q2 -2 6 -5q7 -13 13 -19.5
t13 -10.5q3 -5 7 -9q11 -3 18 -4.5t16 -6.5l24 -15q14 -8 18.5 -10t8.5 -2h49q2 -4 6 -8h15q5 2 8 3.5t13 2t14 2t12 1.5t15 0.5t21 3.5q6 2 9 -5l18 7h17l30 -7h35l32 7l46 -12l19 -17l-2 -35l-15 -15l-27 -10l-35 2l-36 7l-25 5q-21 2 -30 3t-15 0q-12 -2 -15 -2
q-9 0 -14 1.5t-8 2.5q-2 -1 -4 -4q-4 -6 -9 -6h-24q-14 0 -27.5 2.5t-35.5 7.5q-19 -2 -27 0q-4 0 -11.5 5t-11.5 6l-25 5q-14 4 -31.5 11.5t-23.5 10t-17 13.5q-1 2 -5 6q-12 8 -19 11q-12 7 -19 13t-12 11q-10 10 -18 26l-5 13q-4 3 -6 4l-11 11q-11 14 -15 20
q-9 10 -11 11q0 23 -6 25.5t-8 12.5q-1 6 -1 10q1 18 1 30v15l-8 16q-7 19 -7 29q0 3 2.5 8t2.5 7v84q0 3 6 13q2 3 6 11q13 26 23 41q3 3 8 9q2 7 2 12t7 16l20 27q9 2 12 5q22 25 45 50q11 8 21 16t20 14q3 1 12 2.5t12 2.5q14 7 29 13q7 3 17 6t21 4t21 1q13 0 15.5 1.5
t12 2t16.5 2t10.5 3t10.5 1.5q12 1 13 1q0 -2 8 -10h60q5 0 14 -4q4 -2 20 -11q12 -7 21 -13q3 -2 9.5 -6t20 -7.5t21.5 -6.5l10 -10q8 -6 14 -13q9 -10 18 -25q4 -3 7 -6q7 -6 16 -16q1 -1 11 -13q8 -8 11.5 -13t8 -14.5t5.5 -11.5q8 -14 11.5 -23.5t8 -22.5t7.5 -22
q0 -8 -2.5 -8t-2.5 -7l4 -7q5 -6 5 -9zM432 403q-2 3 -7 -1t-8 -4q-16 0 -32 12q-19 14 -27 16l-8 1q-5 1 -9 2t-10 1l-6 -7q-9 0 -16 -3q-3 -1 -7 -4q-17 0 -26.5 -7t-9.5 -26q0 -6 -3 -23t-3 -26q0 -10 0.5 -18.5t3 -13.5t6.5 -5q2 -3 2 -8l-1 -12q0 -5 4.5 -11.5
t9.5 -12.5q12 -16 14 -18q6 -7 25.5 -10.5t33.5 -3.5q24 0 40.5 8t20.5 28q0 4 0.5 7t-2.5 9l2 29l6 28l4 22l-4 10v28q4 0 6.5 6t0.5 7z" />
    <glyph glyph-name="A" unicode="A" horiz-adv-x="549" 
d="M328 591q32 -140 62.5 -278t61.5 -278q7 -7 21 -9t28.5 -3.5t25 -4.5t10.5 -13q0 -5 -3 -11q-26 0 -56 -6.5t-58 -6.5q-21 0 -39 7t-32 27q0 7 10 6.5t22.5 0t22.5 6.5t10 25q0 9 -3 23q-8 8 -9.5 19t-3.5 22.5t-7.5 22.5t-20.5 19q-31 0 -63 4.5t-67 4.5q-18 0 -37 -2
t-39 -7q-8 -8 -12.5 -22.5t-8.5 -32t-8.5 -36t-11.5 -33.5q7 -8 17.5 -9.5t20.5 -3.5t16.5 -7.5t6.5 -20.5h-164q-3 0 -5 1q-4 2 -4 5q0 6 11 18t24 12q8 0 17 -2t17 -2q10 0 16 6t6 24q8 77 22.5 147.5t31.5 138t35.5 134t34.5 136.5q22 22 45 22q18 0 32.5 -12t24.5 -31z
M308 488q-8 8 -12.5 19t-8.5 22.5t-8.5 22.5t-11.5 19q-16 -47 -28.5 -93t-12.5 -93q-16 -46 -31.5 -92t-30.5 -93h82q11 -5 20.5 -7t20.5 -2q20 0 41 4.5t42 4.5q0 16 -2.5 31t-18.5 31q-8 15 -9.5 30.5t-1.5 31t-1.5 31t-8.5 30.5q-16 31 -18 59.5t-2 43.5z" />
    <glyph glyph-name="B" unicode="B" horiz-adv-x="617" 
d="M409 649q32 -16 60 -33.5t43 -49.5q31 -60 0 -123q0 -15 -6.5 -27t-16 -21.5t-20 -17.5t-18.5 -16q15 -15 33.5 -31t35.5 -33t32 -37t23 -43q7 -31 0.5 -58t-22 -52t-37 -48.5t-44.5 -46.5q-16 0 -31.5 -6t-31 -10t-31 -2t-30.5 18q-16 -8 -28 -9.5t-23.5 -1.5t-24 -1.5
t-27.5 -9.5h-185q-8 8 -12 13t-6 9t-2.5 8t-0.5 12q8 15 22.5 14.5t32 -4t36 -4t33.5 14.5q-8 69 -6.5 138.5t3.5 139t-0.5 139t-17.5 138.5q-8 0 -22 -6t-31.5 -10t-36 -2t-33.5 18q7 7 11.5 14.5t8.5 13.5t8.5 9.5t12.5 3.5h349zM472 505q-5 36 -21.5 54.5t-39.5 26.5
t-50.5 8.5t-55.5 0t-54.5 1t-46.5 12.5l-21 -21q16 -23 18 -49.5t0 -55.5t-3.5 -59.5t6.5 -61.5l144 21q16 0 41 2.5t41 17.5t24.5 30.5t12.5 29t4.5 24.5t0.5 19zM492 238q-23 38 -56.5 58.5t-72.5 28t-80 5t-79 -9.5v-267q38 0 76 -5.5t72.5 -7.5t65 4t54.5 29
q15 23 26 46t14.5 44t-1 40t-19.5 35z" />
    <glyph glyph-name="C" unicode="C" horiz-adv-x="531" 
d="M407 576l20 19q-8 8 -5.5 12.5t8 8t11.5 8t6 11.5q16 0 28.5 -2.5t12.5 -16.5q-8 -23 -12 -49t-5.5 -52.5t-2 -52.5t-0.5 -48q0 -15 -3.5 -20.5t-9.5 -5.5t-13.5 2.5t-14.5 2.5q-15 15 -17 30t-0.5 28t3 24t-5.5 19q-15 30 -43 58.5t-58 42.5q-23 8 -42 5.5t-36.5 -12
t-33 -24t-30.5 -30.5q-7 -23 -20.5 -42.5t-26.5 -38t-23 -38.5t-10 -42q7 -15 5.5 -30t-3.5 -28t0 -24.5t17 -18.5q0 -8 -3 -12t-6.5 -8t-6.5 -8.5t-3 -11.5q7 -15 11.5 -30t10.5 -28.5t14.5 -24.5t24.5 -18q0 -15 6.5 -27t16 -21.5t19.5 -17.5t18 -16q15 -15 33.5 -19.5
t37 -2.5t37 8.5t33.5 13.5q31 31 56 64t25 78q7 7 11.5 14.5t8.5 13.5t8.5 9.5t12.5 3.5q15 0 27.5 -2.5t12.5 -18.5q0 -23 -6.5 -42.5t-16 -38.5t-20 -38.5t-18.5 -42.5q-90 -90 -242 -60q-30 7 -53.5 28.5t-42.5 50t-34.5 61t-30.5 62.5q-8 38 -11.5 79t0.5 83t16 83
t35 79q0 7 7 18t18 24.5t25.5 28.5t29.5 30q23 0 42.5 6t38.5 11.5t38.5 7.5t42.5 -6q31 -14 48.5 -29.5t32.5 -29.5z" />
    <glyph glyph-name="D" unicode="D" horiz-adv-x="613" 
d="M183 628q7 -8 11.5 -8.5t8.5 1t8 4.5t12 3q38 0 73 -1t65.5 -6.5t57.5 -18t50 -35.5q23 -8 35.5 -22t20 -31t12.5 -35.5t13 -33.5q15 -54 18.5 -110t-6 -109.5t-32.5 -102t-61 -86.5q-46 -30 -99 -40.5t-108.5 -12.5t-111.5 -1.5t-110 -6.5q-8 8 -9 15t1 13q2 7 8 13
q0 15 6.5 20t16.5 5t20 -2.5t18 -2.5h61q8 38 6 73t-5.5 69.5t-6 69.5t5.5 74v264q-15 8 -39 0.5t-47 -13t-39.5 -1.5t-16.5 35q15 15 30.5 17.5t30.5 2.5h102zM448 526q-30 16 -50.5 31t-51.5 30q-15 -8 -33.5 -5.5t-38 6t-38 5.5t-33.5 -6v-20q0 -53 3 -109.5t4.5 -112
t0.5 -108t-8 -98.5q7 -15 8.5 -30t1.5 -28.5t1 -25t9 -18.5q15 7 37.5 5.5t47.5 -3t51 0.5t49 17q7 15 21 30.5t27 31t23 30.5t10 30q23 15 26 37.5t-0.5 47t-8.5 50.5t3 49q-8 23 -15.5 43t-15 39t-15 38.5t-15.5 42.5z" />
    <glyph glyph-name="E" unicode="E" horiz-adv-x="607" 
d="M540 596q0 -23 6 -45t9.5 -43t1.5 -40t-17 -34q-8 0 -12 0.5t-8 2t-8.5 5.5t-12.5 12v122h-302l-20 -161q7 -8 8.5 -16t1.5 -17.5t1 -21.5t9 -27q30 -15 73 -12.5t88 33.5q0 7 -3 18t-4.5 22.5t-1 22t8.5 17.5q15 -7 23.5 -21t12.5 -29t4.5 -29t0.5 -22q-8 -15 -6.5 -33
t3.5 -37t-0.5 -37.5t-17.5 -33.5q-15 7 -20 18.5t-5 24.5t2.5 28t2.5 30h-20q-15 0 -33.5 3t-37 4.5t-37 0.5t-33.5 -8v-263h283q15 23 20 45.5t7 43t3.5 39.5t9.5 34q0 8 3 11.5t7 5.5t10 3q15 -23 17 -49t-1.5 -52t-9.5 -52t-6 -48q-8 -15 -21.5 -17.5t-28.5 -0.5t-29 3.5
t-22 -6.5h-404q0 8 -3 9t-4.5 1t-1 1.5t8.5 9.5q0 15 13.5 17t32 0t39.5 -3.5t36 5.5q8 7 6 15t-5.5 18t-6 21.5t5.5 26.5v465q-15 7 -33 5.5t-37 -3.5t-37.5 0.5t-33.5 17.5q31 15 60.5 17.5t60.5 2.5h363q8 0 12.5 -0.5t8.5 -2t8 -6t12 -11.5z" />
    <glyph glyph-name="F" unicode="F" horiz-adv-x="557" 
d="M357 589q21 0 42.5 2.5t43 4.5t43 1t42.5 -8q14 -43 16.5 -88t2.5 -102q-29 -29 -57 0q0 7 -0.5 17t-2 21t-5.5 21t-11 17q14 0 16 6t0.5 15t-3 19t5.5 17l-247 19h-38v-228q14 -7 28.5 -8t28.5 1t28.5 4.5t28.5 2.5q14 29 16.5 55t2.5 40l19 19l19 -19v-247
q0 -8 -6 -8.5t-13 1.5q-9 2 -19 7q-7 14 -8 25.5t1 22t4.5 22t2.5 25.5q-43 14 -73.5 16.5t-59.5 2.5v-247q21 -7 44.5 -0.5t43 10t32.5 -4t13 -43.5q-14 -7 -34.5 -8t-44 1t-47.5 4.5t-45 2.5q-14 0 -37 -5t-46 -7t-42.5 4t-26.5 27q14 14 19 26t19 12q14 -7 28.5 -13.5
t28.5 -10t28.5 -3t28.5 7.5v513q-21 7 -39.5 5.5t-34.5 -3t-30.5 0.5t-28.5 16v19q57 14 123.5 14t123.5 -14q14 0 25 2.5t20 4.5t16.5 1t14.5 -8z" />
    <glyph glyph-name="G" unicode="G" horiz-adv-x="563" 
d="M411 538q0 7 0.5 17.5t4.5 20t11.5 16t22.5 6.5q7 -15 5 -27t-5.5 -23t-5.5 -22.5t6 -25.5q-15 -15 -14.5 -35t2 -38t-1.5 -31t-25 -13q-7 7 -8 14.5t1 15t4.5 14.5t2.5 15q0 14 -6.5 31t-17.5 33.5t-25 30t-28 21.5q-22 15 -46.5 16.5t-48 -6t-44.5 -21t-36 -27.5
q-22 -22 -40 -50.5t-31 -61.5t-20 -69t-7 -72q15 -8 17 -15.5t0.5 -16.5t-3.5 -20t6 -26q15 -14 29.5 -41t28.5 -56q0 -14 12.5 -26t26.5 -12q29 -30 58 -32.5t58 12.5q22 7 43 18t39.5 25.5t32.5 33t21 40.5q-7 14 -8.5 28.5t-1.5 27t-1 23t-8 17.5q-29 0 -58 2.5t-59 17.5
q0 14 9.5 16t24.5 0.5t32 -3t32 6.5h135q4 -6 7 -10q2 -4 1.5 -7t-8.5 -3q-7 -8 -17.5 -9t-21 -1t-21 -1.5t-17.5 -8.5q0 -36 3.5 -66t8.5 -57.5t12 -54t15 -55.5q-8 -7 -12 -13.5t-8 -10t-8 -3t-11 8.5q-8 7 -9 17t-1 21t-1.5 21.5t-8.5 17.5q-14 -22 -32 -37t-37.5 -26
t-41 -19t-43.5 -15q-29 7 -55 15t-47.5 19t-40 26t-32.5 37q-15 29 -27.5 48.5t-12.5 48.5q-14 15 -21.5 35.5t-9 42.5t1.5 42.5t11 34.5q0 73 28.5 141t87.5 112q22 7 46.5 16.5t50 13t50 -2t46.5 -27.5q7 0 14.5 -6.5t15 -14t15 -13.5t14.5 -6z" />
    <glyph glyph-name="H" unicode="H" horiz-adv-x="624" 
d="M283 584v-19l-98 -20v-216l19 -20q30 7 59 5.5t56.5 -3t53 0.5t48.5 17q7 7 8 21t1 30.5t1.5 34t8.5 31.5q0 7 -2.5 18t-4.5 24t-1 27.5t8 29.5q-7 7 -23 6t-31 -1t-23.5 6t-1.5 28q15 7 33 8.5t38.5 1.5t42 1t43.5 9q7 0 17.5 -0.5t20 -4.5t16 -11.5t6.5 -22.5
q-1 -6 -3 -10t-5.5 -7t-11.5 -3t-18 3t-21 4.5t-21.5 0.5t-17.5 -8q-8 -59 -3.5 -121.5t10 -127t6.5 -130.5t-13 -132q7 -8 14.5 -9t14.5 -1t14 -1.5t15 -8.5q0 15 12.5 17.5t27.5 2.5q7 -8 8 -15t-1 -14.5t-4.5 -15t-2.5 -14.5h-217q-6 6 -10 12q-4 5 -6.5 12t-2.5 15
q15 7 26 8t20.5 -0.5t17 -4.5t15.5 -3q14 75 16.5 135.5t2.5 120.5q-7 7 -14.5 8t-15 -1t-15 -4.5t-14.5 -2.5q-30 7 -53 11t-45 5.5t-45.5 2t-52.5 0.5v-275q14 0 28.5 2.5t27.5 2.5t23.5 -5t18.5 -20q-1 -6 -3 -10t-5.5 -6.5t-11.5 -2.5h-197q-7 0 -13.5 3.5t-10.5 8.5
t-3.5 12t8.5 15q15 15 29.5 14t27 -4.5t23.5 -4t18 14.5q7 59 5.5 118t-5 117.5t-5.5 117.5t5 118q-7 7 -5.5 17.5t3.5 20t0 16t-17 6.5q-30 -15 -47.5 -25t-31.5 5v59h138z" />
    <glyph glyph-name="I" unicode="I" horiz-adv-x="474" 
d="M438 583q13 0 17 -10q2 -4 2 -9q-14 -15 -28.5 -17t-27 0t-23.5 3t-18 -6q-28 15 -47 15t-48 -15q7 -22 8 -46.5t-1 -49.5t-4.5 -49.5t-2.5 -46.5q7 -8 8 -12t-1 -8t-4.5 -8t-2.5 -11v-270q14 -7 31.5 -8t37.5 1t41.5 4.5t43.5 2.5h19q14 -16 17 -26q2 -6 2 -12l-19 -19
h-385l-20 19q-1 10 2 19q2 7 6 13t12 6q44 0 86.5 -2.5t86.5 -16.5q7 14 5.5 31.5t-5.5 35.5t-5.5 35.5t5.5 32.5q0 51 -2.5 98.5t-4.5 94.5t-1 94.5t8 97.5h-173q0 7 -6 14.5t-11.5 12.5t-7.5 8.5t5 3.5q202 28 405 0z" />
    <glyph glyph-name="J" unicode="J" horiz-adv-x="538" 
d="M509 592q15 0 15 -12.5t-15 -27.5h-139l19 -219q7 -8 8 -15.5t-0.5 -17t-4.5 -21t-3 -26.5q0 -30 -1.5 -65.5t-9 -71t-23.5 -68t-46 -54.5q-45 -30 -89 -32.5t-89 12.5q-23 7 -42 21.5t-34 33.5t-26 40.5t-18 43.5q0 23 1 44.5t6.5 38.5t17.5 27t34 10q16 15 30.5 2.5
t30.5 -42.5q0 -7 -3.5 -11.5t-9.5 -8t-13 -8t-14 -12.5q-16 0 -18.5 -2.5t-2.5 -16.5q0 -15 4 -33t13.5 -34.5t25 -31t37.5 -21.5q30 -15 72 -12.5t87 32.5q30 75 32.5 149.5t-11.5 149.5q7 7 8 11t-1 8t-4.5 8.5t-2.5 12.5q0 22 2.5 44.5t4.5 45t1 44.5t-8 45
q-10 5 -23 4.5t-27 -3.5t-27.5 -6t-26 -2.5t-22 6.5t-14.5 21q15 15 30 20t29.5 5t29.5 -2.5t30 -2.5q30 0 56.5 3t51 4.5t47 0.5t45.5 -8z" />
    <glyph glyph-name="K" unicode="K" horiz-adv-x="630" 
d="M120 611q15 0 33 2.5t36.5 2.5t36.5 -5t32 -20q7 -14 1.5 -16.5t-18 -2.5t-29.5 -2.5t-32 -16.5q0 -15 3 -33t4.5 -37t0.5 -36.5t-8 -32.5q7 -8 5.5 -21.5t-5.5 -28.5t-6 -29t6 -21v-40q37 37 64.5 74.5t53.5 74.5t54 74t65 74q-8 0 -18 -2t-19 -2t-15.5 5t-6.5 19
q7 7 18 8.5t24 1.5t27.5 1t29.5 9h99l20 -20q0 -15 -2.5 -26.5t-17.5 -11.5q-8 0 -18 3t-21.5 6t-22 6t-17.5 3q-23 -29 -42 -55.5t-37.5 -50.5t-38 -46.5t-41.5 -44.5q0 -15 6.5 -30t16 -30t19.5 -29.5t18 -29.5q7 -15 14.5 -33t17 -36.5t21 -36.5t26.5 -32q0 -8 6 -15.5
t13.5 -17t14 -21t6.5 -26.5h20q7 0 14.5 3t15 4.5t14.5 0.5t15 -8q15 0 25 -12.5t-5 -27.5q-23 -15 -48.5 -16.5t-53.5 2t-57 9t-59 5.5v20q7 7 14.5 8.5t15 1.5t14.5 1t15 9l-119 198q0 15 -4 29t-11.5 25t-18.5 18t-26 7q-14 -22 -31 -45t-30 -49t-19 -56t2 -67
q7 -8 5.5 -18.5t-3 -21.5t0.5 -22t17 -18q29 15 46 12.5t32 -32.5l-20 -19q-22 0 -37.5 2.5t-30.5 4.5t-31.5 1t-38.5 -8h-20q-6 -6 -10 -8q-9 -5 -9 8q-8 0 -18 3.5t-17.5 8.5t-10 12t5.5 15q5 15 13 18.5t17 1t19.5 -7t19.5 -5t17 6t13 26.5l-20 40v376q15 15 15 40
t-15 40q-8 7 -18 2.5t-21.5 -8.5t-22 -1t-17.5 25q0 15 2.5 27.5t17.5 12.5q7 0 14.5 3t15 4.5t14.5 0.5t15 -8z" />
    <glyph glyph-name="L" unicode="L" horiz-adv-x="551" 
d="M309 589q0 7 3.5 8t8.5 -1t12 -4.5t14 -2.5q4 -6 7 -10q2 -4 1.5 -7t-8.5 -3l-19 -19h-116q0 -58 3 -119.5t4.5 -127t0.5 -134t-8 -141.5q36 -7 69.5 -5t66 5.5t66 5t69.5 -5.5q7 0 5 6.5t-5.5 15.5t-5.5 19t6 17q-8 7 -8.5 11.5t1 8.5t4.5 8t3 11q7 15 3 32t-6 31.5
t5 24t36 9.5q7 0 8 -6.5t-0.5 -15.5t-4.5 -19t-3 -17q7 -22 5.5 -43.5t-5 -43.5t-5.5 -43.5t5 -43.5h-444q-7 -8 -17 -8.5t-19 3.5t-15.5 10.5t-6.5 13.5q0 22 12.5 25t28.5 -1l32 -8t24 3q7 0 14 -2.5t14.5 -4.5t14.5 -1t15 8v464q0 14 -2.5 29t-17.5 29h-116q-7 15 -5 23
t7.5 13.5t11.5 10t6 11.5q29 -7 61 -8.5t64.5 -1.5t64.5 -1t61 -8z" />
    <glyph glyph-name="M" unicode="M" horiz-adv-x="611" 
d="M198 568q-8 -15 0.5 -27t19.5 -23t19 -22.5t0 -26.5q8 -7 6.5 -17.5t-3.5 -21.5t0.5 -21.5t17.5 -18.5q7 -15 11 -35.5t8 -42.5t8 -43t12 -36q5 -6 9 -8t7 -1t3 9q7 7 11.5 21t8.5 30.5t8 34t11 32.5q0 22 6 41t13.5 35.5t13.5 31.5t6 30q15 15 18 32.5t5 34t8 30.5
t29 21h99q14 0 16.5 -12t2.5 -27q-7 -15 -17 -14.5t-19.5 4.5t-16 4.5t-6.5 -14.5v-512q0 -8 2.5 -8.5t6.5 1.5t10 7q8 8 15.5 8.5t12.5 -1.5q6 -3 12 -7q15 -14 15 -19t-15 -20q-15 -7 -26.5 -8t-22.5 1t-22.5 4.5t-26.5 2.5t-26 -5t-20.5 -7t-17.5 4t-16 28q0 14 2.5 16.5
t18.5 2.5q15 0 27 -2.5t12 -16.5q7 22 8.5 41t1.5 37.5t1 37.5t9 41v256l-20 118q-23 -37 -35.5 -80t-22 -89.5t-18 -93.5t-23.5 -91q-14 -15 -29 -17.5t-29 -2.5q-15 15 -20.5 32.5t-9 36.5t-9.5 36.5t-21 32.5q-15 58 -39.5 117.5t-38.5 118.5v-512q5 -10 12.5 -11t15.5 1
t15.5 5t12.5 2t6 -9t-4 -27v-19q-15 10 -33.5 9.5t-38.5 -4t-40 -8.5t-37 -3.5t-29.5 11t-17.5 34.5q7 7 14.5 13.5t15 10.5t14.5 3t15 -8l20 -19q15 7 16.5 17.5t-2 21.5t-9 21t-5.5 18v453h20q-15 7 -26.5 5.5t-21 -3t-17 0.5t-14.5 17q-8 7 -8.5 14.5t3.5 12.5t10.5 8.5
t13.5 3.5q15 7 30 5.5t29.5 -5t29 -5.5t29.5 5q7 7 11.5 5t6 -9.5t2 -17.5t0.5 -17z" />
    <glyph glyph-name="N" unicode="N" horiz-adv-x="592" 
d="M198 611q22 -30 37.5 -62.5t28.5 -65.5t25 -65.5t27 -62.5q7 -15 17.5 -30t19.5 -31.5t15.5 -35.5t6.5 -41q15 -30 29.5 -59.5t29.5 -58.5q15 44 15 78.5t-15 79.5v256q0 7 3 14.5t4.5 15t0.5 15t-8 15.5q-8 0 -18 -2.5t-21.5 -3t-22 4.5t-17.5 20q8 0 11.5 2.5t5.5 6.5
t3 10q22 -7 44.5 -5t44.5 5.5t44.5 5.5t44.5 -6q0 -13 9 -17q4 -2 10 -2q-7 -23 -17.5 -26t-21.5 -1.5t-21.5 2t-17.5 -14.5q0 -60 -2.5 -131t-17.5 -145q7 -30 11.5 -65.5t6 -72.5t2 -73t0.5 -66q-8 -7 -15.5 -8.5t-15 -1.5t-15 -1t-14.5 -8q-29 60 -49 128.5t-49 128.5
q0 22 -12.5 41.5t-27 39.5t-27 43t-12.5 53q-15 15 -23.5 33.5t-16 38.5t-16 42t-23.5 45h-20q0 -67 3 -134t4.5 -135.5t0.5 -139t-8 -144.5h79q8 0 8.5 -3.5t-1.5 -7.5q-3 -4 -7 -10q-22 -7 -44 -8.5t-44.5 -1.5t-44.5 -1t-44 -8q-8 0 -12.5 0.5t-8.5 2t-8 5.5l-11 11
l19 41q8 7 18.5 5t21.5 -5.5t21.5 -5.5t18.5 6v315q-8 30 -6 59t5.5 57t5.5 53.5t-5 48.5q-15 7 -26.5 2.5t-20.5 -8.5t-17 -1t-16 26q0 22 10 25t25 -0.5t32.5 -8t32.5 2.5q0 -7 3.5 -8.5t8.5 -1.5t12 -1t15 -8q0 13 10 17q4 2 10 2z" />
    <glyph glyph-name="O" unicode="O" horiz-adv-x="537" 
d="M395 579q37 -29 59.5 -71.5t35.5 -92t17.5 -103.5t4.5 -105q-15 -29 -33.5 -63.5t-42.5 -65.5t-53.5 -55t-66.5 -31q-146 -30 -234 118q0 14 -6.5 26t-14 24.5t-13.5 28.5t-6 38q-7 44 -3.5 90.5t16 92.5t34.5 89t51 80q15 0 26.5 6t22.5 13.5t22.5 13.5t26.5 6
q45 0 86 -5t71 -34zM376 540q-15 15 -36.5 22.5t-45.5 9t-48.5 -2t-46.5 -10.5q-15 -15 -32 -33t-31.5 -38t-24.5 -41.5t-10 -43.5q-14 -30 -16.5 -69t-2.5 -69q0 -22 9.5 -47t24.5 -50.5t32 -50.5t32 -47q29 -29 70.5 -31.5t85.5 11.5q37 22 63 57.5t42.5 77.5t24 88
t7.5 90q-15 30 -29.5 69t-29.5 69z" />
    <glyph glyph-name="P" unicode="P" horiz-adv-x="580" 
d="M314 622q22 8 41 6t38 -7.5t38 -11.5t41 -6q45 -45 69 -103.5t10 -131.5q-15 -30 -42.5 -57.5t-56.5 -41.5q-22 -15 -53.5 -16.5t-66.5 2t-70 9t-65 5.5q30 -118 0 -235q22 0 43.5 5.5t42 9t38.5 1.5t33 -16q0 -16 -12 -28t-28 -12q-36 7 -70 8t-67 -1t-67 -4.5t-71 -2.5
v59q8 15 22 14t30.5 -6.5t33.5 -10t32 2.5q0 14 -2.5 29t-16.5 30q0 30 0.5 65.5t2 72.5t5.5 72.5t11 64.5q-7 7 -8 14.5t1 15t4.5 14.5t2.5 15q0 15 -2.5 29.5t-4.5 29.5t-1 29.5t8 29.5q-10 10 -23.5 10t-28.5 -3.5t-29 -7t-23.5 0t-14 16.5t0.5 42q15 15 33.5 14
t38.5 -6.5t42 -10t44 2.5h117zM491 465q-5 34 -20.5 55t-37.5 32.5t-49.5 16t-56.5 6.5t-57.5 3t-52.5 6q0 -30 -0.5 -68.5t-2 -79t-6 -79.5t-11.5 -69h20q45 0 88.5 10.5t88.5 10.5q29 0 56 14.5t41 44.5q0 14 3 28.5t4.5 27t0.5 23.5t-8 18z" />
    <glyph glyph-name="Q" unicode="Q" horiz-adv-x="576" 
d="M172 599q13 0 17 10q2 4 2 11q8 -8 15.5 -9t15 1t14.5 5t15 3q23 -8 48.5 -13t52 -12.5t52 -20t47.5 -34.5q31 -60 45.5 -122t14.5 -137q0 -30 -7 -57t-18 -53t-25.5 -53t-29.5 -57q-7 -8 -14.5 -13t-15 -10.5t-15 -13.5t-15.5 -23q0 -23 0.5 -44.5t4.5 -40.5t12.5 -33.5
t23.5 -21.5q7 0 14.5 -3t15 -5t14.5 -1t15 9l-20 40h41q0 16 2.5 30.5t16.5 29.5q30 0 32.5 -24.5t-11.5 -55.5q0 -15 -6.5 -26.5t-16 -21t-20 -17t-18.5 -15.5q-45 0 -75 17.5t-44 62.5q-8 7 -12 21t-5.5 29t-2 28.5t-0.5 21.5q-38 0 -74.5 4.5t-68.5 18t-57.5 36.5
t-40.5 61q-14 30 -27 60t-13 59q-15 16 -19.5 34.5t-4 39t3 42.5t2.5 45q14 29 29 59t29 61q8 7 9 14t1 12.5t1.5 9t9.5 3.5q15 15 27.5 30t12.5 29q0 8 3 12t7 6q4 3 10 3v-21zM312 101q0 15 -10 23.5t-23 14t-27 10t-21 12.5q-30 -15 -47 -42.5t-32 -57.5q7 -8 14.5 -12.5
t15 -8.5l15 -8t15.5 -11q7 7 14.5 5t17 -5.5t21 -5.5t26.5 6q15 7 20.5 17.5t5.5 21.5t-2.5 22t-2.5 19zM431 481q-29 15 -47 39.5t-32 39.5q-23 7 -48.5 10.5t-49.5 2t-45.5 -9.5t-36.5 -23q-8 -8 -12 -17.5t-8 -17t-8.5 -10t-11.5 5.5v-41q-15 -23 -29.5 -51.5t-24 -60.5
t-12 -65t5.5 -63q7 -15 11.5 -29.5t10 -27t14.5 -23.5t24 -18q0 15 6.5 23.5t16 16t19.5 16t17 23.5q15 -8 29.5 -6.5t28 3.5t24 0t18.5 -17q30 0 41 -13t17 -30t13 -33.5t30 -24.5q0 8 6 16t13.5 15.5t13.5 15t6 14.5q7 7 6 17.5t-3 20t0 16t17 6.5q7 30 10.5 66t2 73.5
t-9.5 74t-23 66.5z" />
    <glyph glyph-name="R" unicode="R" horiz-adv-x="608" 
d="M525 531q15 -22 19.5 -47.5t3 -51t-8.5 -51t-14 -47.5q-15 -8 -27 -18t-24.5 -19t-28.5 -15.5t-38 -6.5v-20q7 -7 17.5 -18t21.5 -24t21.5 -27.5t18.5 -29.5v-117q15 -8 29.5 -3t27.5 10.5t23.5 6.5t18.5 -14q0 -30 -12.5 -45t-27.5 -15t-42 2.5t-57 17.5q-15 15 -17 33
t0 38.5t3 42t-6 43.5q-15 7 -23.5 20.5t-18 27t-22 23t-34.5 9.5q-7 15 -21 17t-30.5 2t-34 2.5t-32.5 17.5v-236h99q14 0 14 -12.5t-14 -27.5q-30 -30 -60 0q-22 0 -44.5 -3t-46.5 -4.5t-50 -1t-55 8.5q-8 0 -8.5 3.5t1 9t4.5 12.5t3 15h117q-7 66 -8 132.5t1 131t4.5 127
t2.5 121.5q-10 10 -25 11t-31.5 -0.5t-31.5 -3.5t-25 1.5t-12 14.5t8 35h19q44 0 91.5 5.5t95.5 9.5t95.5 2t91.5 -17q7 -15 18 -26t22 -20t21.5 -17t17.5 -15zM466 512q-8 15 -21.5 23t-30 13.5t-34 10t-32.5 11.5q-15 -7 -32.5 -5.5t-36.5 3.5t-36.5 0t-32.5 -17v-256h79
q22 7 50 9t55.5 7.5t52 19t39.5 42.5q0 30 -2.5 69.5t-17.5 69.5z" />
    <glyph glyph-name="S" unicode="S" horiz-adv-x="537" 
d="M412 564q7 8 11.5 19t8.5 20.5t8.5 16.5t12.5 7q15 -8 20 -16t5 -16t-2.5 -15.5t-2.5 -15.5q-15 -31 -17.5 -64t-2.5 -79h-41q-16 15 -18.5 30t-2.5 28.5t-2.5 24.5t-18.5 19q0 8 -6.5 18.5t-16.5 20.5t-20.5 16.5t-18.5 6.5q-31 15 -61 5t-61 -26q-16 -8 -24.5 -19
t-14.5 -24.5t-11 -28.5t-13 -30q0 -31 18 -61.5t65 -62.5q31 0 64.5 -1t66 -6.5t62.5 -18t54 -35.5q30 -31 43 -74t-3 -90q0 -32 -25 -60t-56 -43q-24 -15 -53.5 -23t-60.5 -8t-60 8t-52 23l-83 61q-15 -8 -21 -24.5t-10 -31.5t-10 -24.5t-21 -1.5q-15 0 -17.5 2.5
t-2.5 18.5q15 23 20.5 52.5t7.5 60.5t3.5 60.5t9.5 52.5q15 0 20.5 -10t7.5 -23.5t3.5 -27t9.5 -21.5q31 -47 62 -77.5t62 -46.5q23 0 45.5 -2.5t43.5 -2.5t40 5.5t34 20.5q63 61 63 124q-16 30 -33.5 58t-49.5 44q-39 7 -83 13t-84.5 19.5t-73 39t-47.5 72.5q0 31 4.5 61
t16.5 57t32 49.5t51 38.5q7 0 18.5 3t25 4.5t28.5 0.5t30 -8q15 -8 33.5 -10t35.5 -6t32 -13.5t23 -33.5z" />
    <glyph glyph-name="T" unicode="T" horiz-adv-x="579" 
d="M536 615q7 -16 8.5 -41.5t1.5 -55t1 -59t9 -52.5q0 -8 -0.5 -19t-2 -23t-6 -23t-11.5 -18q-8 0 -15.5 3t-13.5 7q-7 4 -13 10q8 31 6 62t-6 60t-6 56t6 51q-15 7 -34.5 8t-41 -0.5t-44.5 -4.5t-46 -3q-8 -15 -9 -30.5t-1 -31.5t-1.5 -31.5t-8.5 -31.5q7 -31 8.5 -59
t1.5 -55.5t1 -55t9 -58.5q-8 -23 -9 -46.5t-1 -49t-1.5 -53t-8.5 -58.5q15 0 33.5 3t38 7t38.5 7t35 3q7 -8 14.5 -12t13.5 -8t9.5 -9t3.5 -13l-21 -20h-353q-8 7 -12 11.5t-5.5 8.5t-2 9t-0.5 13h166q8 0 9 6.5t1 16.5t1.5 20t9.5 18h-21v499h-166q0 -63 -2.5 -122
t-18.5 -107q0 -14 -10 -18q-4 -3 -10 -2q-16 7 -18 18t2 23t10 23t6 19q-8 23 -9 49.5t1 54t5 54t3 50.5q31 7 62 8t62.5 -0.5t62.5 -4.5t62 -3h228z" />
    <glyph glyph-name="U" unicode="U" horiz-adv-x="564" 
d="M253 611v-20q-7 -15 -18 -17t-23.5 0t-27 3.5t-29.5 -5.5v-197q15 -15 15 -39.5t-15 -39.5q5 -25 6 -50.5t1.5 -50.5t2.5 -48.5t9.5 -44t21.5 -36.5t38 -26q15 -8 29.5 -8.5t29 1t29 4.5t29.5 3q15 7 23.5 15t14 17t10 20.5t12.5 26.5v236q0 22 -3 50.5t-4.5 58t-1 57.5
t8.5 51h-79q0 7 -3 11t-7 8t-7 8t-3 12q7 7 14.5 8t15 -0.5t15 -4.5t15.5 -3h176q0 -8 -0.5 -12t-2 -8t-6 -8t-11.5 -11q-7 0 -17.5 2.5t-21.5 4.5t-21.5 1t-17.5 -8v-453q-14 -45 -46.5 -84t-91.5 -54q-44 0 -78.5 12.5t-78.5 26.5q-14 29 -27 59.5t-13 59.5v353q0 7 3 18
t5 22t1 21.5t-9 18.5q-15 7 -29 2.5t-27 -10t-24 -6.5t-18 14q0 15 3.5 22.5t9 11.5t12.5 4.5t14 0.5h197z" />
    <glyph glyph-name="V" unicode="V" horiz-adv-x="544" 
d="M215 574q0 -14 -9 -16.5t-21 -2.5t-24.5 -2t-19.5 -16q0 -14 11.5 -28t25.5 -28q0 -56 12 -106.5t27.5 -99.5t31 -99t22.5 -106v-19q14 29 19 56.5t19 55.5q7 21 11 44.5t7.5 46.5t7.5 43t11 34q7 35 14 64t14 55.5t14 51.5t14 53q-14 0 -24.5 -2t-19.5 -2t-16.5 4.5
t-14.5 18.5q0 14 2.5 25.5t16.5 11.5q21 -7 42.5 -7.5t44 1t47.5 4t53 2.5q0 -7 -0.5 -19.5t-4 -24.5t-11.5 -21t-22 -9q-27 27 -56 0q-14 -71 -28 -140.5t-28 -139.5q-14 -57 -28 -112.5t-28 -111.5q-14 -14 -28 -26t-28 -12q-28 7 -40.5 26.5t-19.5 44t-13 50.5t-20 47
q0 28 -6 53t-12.5 47.5t-12.5 44t-6 42.5q0 57 -12 101t-26 86q0 14 -11.5 16t-25.5 2q-7 -7 -11 -7.5t-7.5 1t-7.5 4t-11 2.5q-7 7 -8 11t1 8t4.5 8t2.5 11q0 14 9 15.5t21 -2t24.5 -8.5t19.5 -5h38q7 14 19.5 20.5t24.5 5t21 -12.5t9 -32z" />
    <glyph glyph-name="W" unicode="W" horiz-adv-x="564" 
d="M545 582q0 -18 -11 -24.5t-22 -11t-18 -11t2 -24.5q-17 -72 -32 -158.5t-15 -175.5q-12 -12 -15.5 -31t-4 -40.5t-1.5 -43t-7.5 -38.5t-21.5 -28t-45 -11v24q-9 45 -15 89t-13 86.5t-17 83t-28 76.5q-18 -36 -24.5 -76t-10.5 -80.5t-10.5 -79.5t-24.5 -75
q0 -36 -15.5 -39t-33.5 15q-18 27 -28 58t-14.5 64.5t-5 69t-0.5 71.5q-9 27 -14 61.5t-9.5 72.5t-9.5 77.5t-14 75.5q-9 -9 -17.5 -10t-15.5 3.5t-11 12.5t-4 17q9 9 25.5 10t37 -1t41.5 -5.5t39 -3.5q0 -9 -3.5 -13.5t-8.5 -6.5q-5 -3 -11 -3h-25q-9 -27 -6 -54t10 -54
t14 -53.5t7 -53.5q9 -27 10.5 -62t4 -73t8.5 -77t24 -75q18 45 25 89.5t11.5 87t11 82.5t24.5 76q17 17 35.5 5.5t35.5 -30.5q0 -72 15.5 -143t33.5 -144q18 45 28 97.5t17 106t12 106t14 97.5v72q-17 0 -32.5 3t-15.5 20q9 9 25.5 10t34.5 -1t34.5 -5.5t25.5 -3.5h24z" />
    <glyph glyph-name="X" unicode="X" horiz-adv-x="607" 
d="M200 614q7 -8 17 -6.5t19 3.5t15.5 0t6.5 -17q0 -7 -3.5 -11t-8.5 -7.5t-12.5 -7.5t-14.5 -11q0 7 -3 8t-6.5 1t-6.5 1.5t-3 8.5q-7 -15 -2 -26.5t14 -22t18 -22t9 -25.5q14 -14 19 -28.5t9 -29t9.5 -29t19.5 -28.5q14 14 19.5 31.5t9 35.5t9 35.5t20.5 31.5
q13 14 18 28.5t19 29.5q0 -8 3 -9t7 1t10 8q-15 7 -26 8.5t-20 3t-16.5 6.5t-14.5 19q7 0 14.5 6t14.5 11.5t14 7.5t14 -5q7 7 20.5 5.5t28 -3.5t27.5 0t20 17q7 -7 17 -8.5t19 -3.5t15 -7t6 -20v-37q-14 -8 -25.5 -3.5t-22 10t-22 6.5t-26.5 -13q-7 -36 -22.5 -69
t-33.5 -65t-34.5 -65t-23.5 -69q14 -7 19.5 -17.5t9.5 -21t9 -20.5t19 -17q7 -22 15 -43t19 -41t26 -37.5t36 -32.5q7 7 17 13.5t21 8.5t21 -2.5t17 -19.5q7 -7 8 -14t-0.5 -14.5t-4.5 -14.5t-3 -14q-29 -7 -54.5 -8t-50 1t-50.5 4.5t-54 2.5q-8 7 -14.5 14t-10 12t-3 8.5
t7.5 3.5q15 14 26.5 19t11.5 19l19 -19q0 7 -3 17.5t-6.5 21t-6.5 20.5t-3 17q-7 15 -14 26.5t-14 22t-14.5 22t-14.5 25.5q0 7 -3 11t-6.5 8t-6.5 8t-3 12q-15 -15 -17.5 -29t-2.5 -28q-14 -15 -25 -32.5t-22 -37.5t-22.5 -41t-25.5 -43q7 -14 17 -13.5t19 4t15.5 4
t6.5 -13.5q14 -14 4.5 -26t-24.5 -12q-21 0 -39.5 -0.5t-36.5 -2t-36.5 -5.5t-39.5 -11q-15 0 -27 12t-12 26v38q15 7 26 8t22 -1t22 -4.5t26 -2.5q29 57 57.5 105t57.5 106q14 14 23 28t-4 29q-15 22 -26.5 46t-22 47.5t-22 44t-25.5 34.5q-7 7 -8.5 14t-3.5 14.5t-7 14.5
t-19 15q-8 0 -18 -5.5t-20.5 -9t-21 -2t-17.5 16.5q-7 7 -8 14t1 14t4.5 14t2.5 15h115q0 -8 3.5 -8.5t8.5 1t12 4.5t14 3z" />
    <glyph glyph-name="Y" unicode="Y" horiz-adv-x="525" 
d="M198 587q14 0 16.5 -11.5t2.5 -25.5h-56q7 -14 8.5 -27.5t3 -25.5t6.5 -22.5t19 -17.5q-7 -14 -5 -25.5t7.5 -23.5t11 -27t5.5 -36q7 -7 11 -14.5t7.5 -16t7.5 -19t11 -24.5q14 14 22.5 33.5t15.5 40.5t15 41t22 34q0 14 6 28t12.5 30t12.5 33.5t6 38.5q-7 7 -19 5.5
t-22.5 -3t-16 0.5t1.5 16q14 14 37.5 14t37.5 -14q14 0 31 5t34 8.5t34 2t31 -15.5q-7 -21 -20 -24t-28.5 -1.5t-32.5 1.5t-31 -14q-7 -14 -11 -27.5t-7.5 -25.5t-7.5 -22.5t-11 -17.5q-28 -56 -46.5 -111.5t-46.5 -111.5q7 -21 5.5 -42.5t-3 -44t0.5 -47.5t16 -53l111 19
q0 -7 3 -11t6.5 -7.5t6.5 -7.5t3 -11l-37 -19h-224q-8 7 -14.5 8t-11.5 -1q-6 -2 -11 -7q-28 28 0 56q14 0 30.5 -2.5t32 -4.5t29 -1t20.5 8q0 28 2 55.5t2 53.5t-4.5 50.5t-18.5 45.5q-28 70 -56 139.5t-56 139.5q-7 14 -17 16t-22.5 0.5t-26 -3t-27.5 5.5q0 7 3 11
t6.5 7.5t6.5 7.5t3 11q21 -7 42 -7.5t41.5 1t41.5 4t42 2.5z" />
    <glyph glyph-name="Z" unicode="Z" horiz-adv-x="576" 
d="M491 601v-39q-29 -44 -58 -84.5t-56 -80t-52 -80.5t-47 -84q-8 -15 -18 -26.5t-21 -22t-21.5 -22t-17.5 -26.5q-7 -14 -17.5 -28.5l-21 -29l-21 -29t-17.5 -29.5q7 -7 17.5 -5.5t21 5.5t21 5.5t17.5 -5.5q15 0 26.5 3t22 6.5t22 6.5t26.5 3q7 -7 14.5 -2.5t14.5 10
t14.5 6.5t14.5 -14h20q29 -14 46 -4.5t31 24.5q0 15 2.5 32.5t4.5 35.5t1 35.5t-8 31.5q15 7 17 14.5t0 15t-3.5 14.5t5.5 14h58q0 -14 -0.5 -25.5t-2 -22.5t-5.5 -22.5t-11 -25.5l19 -20q-7 -7 -5.5 -17.5t3.5 -21t0 -21t-17 -17.5q0 -15 -2.5 -39t-16.5 -39h-407
q-7 0 -13.5 3.5t-10.5 9t-3.5 12.5t8.5 14q22 22 34.5 43.5t23.5 43.5t23.5 43.5t34.5 43.5q15 22 29.5 40.5t28.5 37t28.5 37t29.5 40.5q0 15 12 27t27 12q14 44 31 75.5t46 60.5q7 14 2 19t-14 7t-17.5 3.5t-8.5 8.5q-59 -14 -116.5 -16.5t-116.5 -2.5q-7 -29 -5.5 -55
t3.5 -49.5t0 -45.5t-17 -44q-15 -7 -23 -4.5t-13.5 10t-10 17t-11.5 16.5q14 7 16 14.5t0.5 14.5t-3 14.5t5.5 14.5q5 10 3 25t-6 32.5t-7 35t0 31t14 22.5t35 9q7 -7 14.5 -8t14.5 1t14.5 4.5t14.5 2.5h97q7 -7 17.5 -8t21 1t21 4.5t17.5 2.5h136z" />
    <glyph glyph-name="bracketleft" unicode="[" horiz-adv-x="333" 
d="M286 716q5 -40 -4.5 -57.5t-27 -22t-40 -0.5t-44.5 7t-40 0.5t-27 -20.5v-68q-6 -52 -4.5 -108t5 -112.5t5 -112t-5.5 -107.5q0 -17 2.5 -34t16.5 -36q4 -6 8 -9q3 -2 5.5 -1t2.5 10q28 -9 49.5 -3.5t40.5 12.5t37.5 8t39.5 -17q0 -17 2 -30t2 -21.5t-4.5 -13t-18.5 -4.5
q-14 -9 -25.5 -10t-23.5 1.5t-26.5 5.5t-35.5 3q-27 0 -37.5 -2.5t-19.5 -4t-22.5 -0.5t-45.5 9q0 8 -5 22q1 5 -0.5 9t-3 7t-0.5 5t8 2v22q0 9 2.5 17.5t4 15t0.5 10.5t-7 4v602q0 8 3 16t8 12.5t11.5 3.5t14.5 -10h200zM47 -21q2 0 3 -1q0 -5 -3 -5.5t-4.5 1t-1.5 3.5t6 2
z" />
    <glyph glyph-name="backslash" unicode="\" horiz-adv-x="447" 
d="M16 643q5 10 12 13.5t14.5 4.5t14.5 2t12 6q19 -10 23.5 -19.5t14.5 -18.5q0 -6 -2 -11t-3 -10t-0.5 -9.5t5.5 -9.5q11 -20 27 -39t25 -39q0 -10 6.5 -19.5t6.5 -18.5q15 -5 19 -14.5t6.5 -19t7.5 -18.5t20 -14v-26q4 -5 7 -13.5t6.5 -18.5t9 -19t14.5 -13q0 -5 2 -8
t5 -5.5t5 -5.5t2 -7h-12q4 -1 4.5 -3t0.5 -4.5t1 -4t6 -1.5q-1 3 1 6q2 7 11 7v-25q5 0 6 -2l2.5 -5t5 -5t13.5 -2q0 -10 4 -18t8.5 -16.5t8.5 -18.5t4 -25l26 -25q0 -10 6 -18t13.5 -15t14 -14.5t6.5 -17.5t7.5 -18t18.5 -8q9 -11 3 -25.5t-17 -14.5q-5 -5 -11.5 -5.5
t-14 1t-14.5 3t-12 1.5q-5 15 -13.5 29.5t-16.5 29t-14.5 29t-6.5 29.5q-15 15 -23 29.5t-14 29l-12 29t-16 29.5q-10 20 -26 38.5t-26 38.5q-29 50 -66.5 105t-76.5 103q0 15 -8 25.5t-16.5 21.5t-14 24t-0.5 33z" />
    <glyph glyph-name="bracketright" unicode="]" horiz-adv-x="334" 
d="M248 716q7 9 14 10t12 -3.5t8 -12.5t3 -16v-604q-6 0 -7 -4t0.5 -10.5t4 -15t2.5 -17.5v-22q7 0 8 -2t-0.5 -5l-3.5 -7t0 -9q-6 -17 -6 -22q-33 -8 -46.5 -9t-22 0.5t-19 4t-37.5 2.5q-21 0 -35.5 -3t-26.5 -5.5t-23.5 -1.5t-25.5 10q-14 0 -18.5 4.5t-4.5 13t2 21.5
t2 30q21 18 39.5 17t37.5 -8t40.5 -12.5t49.5 3.5q0 -9 2.5 -10t5.5 1q4 3 9 9q14 19 16.5 36t2.5 34q-7 52 -5.5 108t5 112.5t5 112.5t-4.5 109v68q-9 18 -27.5 20.5t-40.5 -0.5t-44.5 -7t-40 0.5t-27 22t-4.5 57.5h201zM287 -23q-2 0 -4 -1q0 -5 3 -5.5t5 1t1.5 3.5
t-5.5 2z" />
    <glyph glyph-name="asciicircum" unicode="^" horiz-adv-x="324" 
d="M270 562q-25 17 -33 27q-38 14 -47 37q0 6 -18 9l-5 22l-9 -2v-10l3 -10q-4 -4 -18 -4q-4 -10 -31 -19l-2 -2l-2 1h-15q3 -8 4 -10q-7 -12 -40 -37h-12l-13 -2q-13 20 -14 35v12q0 15 22 19q18 23 42 40q27 13 27 24q9 -2 31 23q8 20 16 26h2q8 -10 23 -9q10 -35 26 -39
q0 -11 17 -12q6 -19 10 -19l14 1q7 -17 31 -17l11 -21q9 -3 16 -37q-7 -16 -24 -22zM98 604q-1 -1 -1 -3q1 0 1 3z" />
    <glyph glyph-name="underscore" unicode="_" horiz-adv-x="580" 
d="M211 30v16h327q12 -6 16 -14.5t4 -18t-2 -18t-2 -14.5q-68 -6 -130 -7.5t-123 -3t-123.5 -6t-129.5 -16.5q-13 13 -15 35t-2 47q0 12 5.5 16t13 4t16 -2t14.5 -2q12 -6 27 -4.5t32 3t35 -0.5t37 -14z" />
    <glyph glyph-name="grave" unicode="`" horiz-adv-x="191" 
d="M92 648l11 10l76 -93l4 -4q-1 -14 -14 -25.5t-20 -17.5q-20 16 -36.5 34t-32 35.5t-33.5 33.5t-41 29q4 11 16.5 24.5t27.5 29.5q7 7 10.5 7.5t5.5 -1.5t2.5 -5.5t2.5 -4.5q0 -8 4.5 -12t9 -8.5t7.5 -11t0 -20.5z" />
    <glyph glyph-name="a" unicode="a" horiz-adv-x="630" 
d="M479 419q9 -43 10 -89t-1.5 -91t-5.5 -87t-3 -76q9 -17 21 -23t24.5 -8.5t24.5 -4t21 -10.5h46q0 -8 -3.5 -16t-8.5 -15q-5 -8 -11 -15q-17 0 -34 -2.5t-34.5 -2.5t-34.5 6t-35 23q0 17 -2.5 34t-19.5 34q-35 -35 -73 -53.5t-78.5 -27t-83 -10t-85.5 -1.5
q-103 69 -68 206q23 34 52.5 51t63 24t69.5 8t71.5 2t69.5 7t62 23q0 17 -0.5 37t-5 37t-13.5 28.5t-26 11.5q-104 33 -206 0q6 -7 11 -15q5 -7 8.5 -15t3.5 -17q-9 0 -14 -3.5t-11.5 -7.5t-16.5 -7.5t-27 -3.5q-13 0 -23 3q-8 2 -15 6.5t-7 12.5q-18 0 -21 15t-3 32
q26 34 63 52t77.5 24.5t81.5 3.5t75 -12q35 0 66 -17t49 -51zM388 122q24 0 31 14t5.5 34t-7.5 43t-7 40q-2 -13 -15.5 -15t-30.5 -2q-23 -12 -50.5 -13.5t-56 -0.5t-56 2t-50 -5.5t-39 -23.5t-21.5 -51q0 -34 14 -65.5t31 -48.5q43 -8 78 -4.5t65 16.5t56.5 33.5t52.5 46.5
z" />
    <glyph glyph-name="b" unicode="b" horiz-adv-x="562" 
d="M205 660q0 -32 -3 -67.5t-5 -69.5t-1 -65.5t9 -56.5q16 16 36 32t42.5 28t46.5 19.5t48 7.5q48 0 83 -29.5t67 -78.5q17 -81 14 -158.5t-35 -142.5q-32 -48 -67 -67t-83 -19q-8 8 -16 9.5t-16.5 1.5t-16.5 1.5t-17 9.5q-8 -8 -16 -5.5t-16 10.5t-16 19t-16 19
q0 8 -3.5 12t-7.5 6q-5 3 -11 3q-11 0 -14 -7.5t-3 -18.5t1 -22t-2.5 -18.5t-14 -8t-31.5 10.5v150q8 16 6 39t-6 47t-6 47t6 39q-8 32 -6 68t6 72t6 72t-6 68q-16 16 -35 16t-35 -2t-27 1.5t-11 27.5q-8 16 -5 18.5t11 0.5t18.5 -3.5t18.5 6.5q16 0 35.5 2.5t37.5 2.5
t33 -5.5t23 -21.5zM205 122h-21l21 -21v21zM442 380q-16 32 -48 37.5t-80 5.5q-17 -8 -36 -20.5t-35 -28.5t-27 -36t-11 -44q-16 -32 -11 -57.5t19 -50t31.5 -50t25.5 -57.5q16 0 29.5 -3.5t27.5 -7t31.5 -7t41.5 -3.5q8 8 19 16.5t21 18.5t17 22.5t7 28.5q8 24 14.5 55
t6.5 63t-9.5 63t-33.5 55z" />
    <glyph glyph-name="c" unicode="c" horiz-adv-x="532" 
d="M488 390q-1 -27 -8.5 -49.5t-34.5 -35.5q-16 0 -28.5 0.5t-22 4.5t-18 13t-16.5 25q-8 8 -9 18.5t1 20.5q3 11 8 24q-24 -8 -44 -6t-38 4t-34.5 -0.5t-32.5 -18.5q-8 0 -16 -7t-15.5 -17t-15.5 -21t-16 -19q-8 -32 -11.5 -66.5t2.5 -68.5t23 -65t49 -55q16 -8 35 -9t37 3
t33 11.5t23 15.5l21 -21q8 16 19 28.5t21 24.5t17 24.5t7 28.5q16 17 32 19.5t32 2.5q8 -24 5.5 -44.5t-10.5 -38.5t-19 -34.5t-19 -32.5q-48 -31 -95.5 -47t-95.5 -16q-64 17 -109 50.5t-62 98.5q-24 16 -33 42t-9 56t7 60.5t15 54.5q8 8 11.5 15t5.5 13q2 7 3 14
q24 32 55.5 52.5t65 32.5t68.5 16.5t67 4.5q16 -16 34.5 -18.5t50.5 -2.5zM254 454q5 0 10.5 1t10.5 3q-12 5 -21 -4z" />
    <glyph glyph-name="d" unicode="d" horiz-adv-x="589" 
d="M462 652q0 -59 -3 -121.5t-5.5 -125.5t-1.5 -126t10 -122q-17 -8 -16 -13t7.5 -9t11.5 -9t-3 -14q0 -8 -3 -16.5t-5.5 -16.5t-1.5 -16.5t10 -17.5h112q0 -17 -14 -30.5t-31 -13.5t-36.5 -6t-36.5 -8t-28 4.5t-11 31.5q-8 8 -9.5 16.5t-1.5 17t-1.5 17t-9.5 16.5
q-9 -25 -21.5 -42.5t-27.5 -30t-31.5 -21.5t-33.5 -18q-9 0 -17.5 3t-16.5 5.5t-16.5 1.5t-17.5 -10q-17 9 -36.5 17.5t-38.5 19t-34.5 23.5t-24.5 30q-17 42 -28.5 84t-13.5 84.5t7.5 85t34.5 84.5q9 8 14 16.5t11.5 16.5t15.5 16.5t26 17.5q51 17 101.5 14t101.5 -37
q0 -17 14 -33.5t32 -33.5v246q-17 17 -34 19.5t-34.5 0.5t-34.5 -4t-34 7q0 8 -3 13t-5 9t-1 9t9 14h68q17 0 40.5 2.5t44.5 0t36 -12.5t15 -35zM395 315q-17 17 -34.5 37.5t-36.5 39t-41 34.5t-47 24q-9 -8 -20.5 -16.5t-24.5 -16.5t-24.5 -16.5t-20.5 -17.5
q-17 0 -23.5 -6.5t-8.5 -16.5t-1.5 -22t-1.5 -22t-8.5 -16.5t-23.5 -6.5q0 -17 3 -34t20 -35q0 -17 4 -37t10 -41t14 -41.5t16 -36.5q9 -9 17 -10.5t14 -1.5t10 -1t4 -10q17 -8 30 -9t26 1t26.5 5t30.5 3q17 17 31 47.5t14 64.5q34 9 42 25t6 37.5t-6.5 46t4.5 49.5z" />
    <glyph glyph-name="e" unicode="e" horiz-adv-x="535" 
d="M496 330q0 -17 2.5 -33t2.5 -30t-5.5 -26t-21.5 -20q-97 33 -193 0q-24 8 -44.5 9t-38.5 -1t-35 -5t-33 -3q-16 -16 -14.5 -28.5t9.5 -24.5t17.5 -25t9.5 -29q8 -16 19.5 -25t23.5 -15t23.5 -11t19.5 -13q65 0 113 29.5t80 77.5q17 0 30 -13t13 -30q0 -16 -7.5 -29
t-19.5 -25t-27 -25t-31 -29q-24 -8 -58.5 -14.5t-71 -6.5t-71 9.5t-58.5 33.5q-16 24 -35 45.5t-35 43.5t-26.5 47t-10.5 57q0 8 3.5 16.5t7.5 19t7.5 23t3.5 28.5q8 32 23.5 63t37.5 57.5t50 45.5t60 27q48 0 92 -11.5t80.5 -33.5t64 -54t43.5 -72zM410 308q0 8 -3.5 19
t-9.5 21t-14 17t-16 7q-16 8 -35.5 18.5t-40 16.5t-40 4.5t-35.5 -17.5q-8 -17 -22.5 -26.5t-28.5 -20t-24.5 -24t-10.5 -37.5q32 0 68 0.5t72 2.5t72 6.5t68 12.5z" />
    <glyph glyph-name="f" unicode="f" horiz-adv-x="544" 
d="M509 606q0 -15 3 -27t5 -22t1 -18.5t-9 -16.5t-18.5 -12t-22.5 -5.5t-23 -2t-18 -0.5q-16 15 -18.5 31t-2.5 32q0 7 3 14.5t5 13.5t1 9.5t-9 3.5q-16 7 -31.5 8t-31.5 -0.5t-31.5 -4.5t-30.5 -3q-16 -15 -21.5 -31t-7.5 -31.5t-3.5 -31t-9.5 -30.5l21 -22q16 0 34.5 5.5
t36 7.5t32 -4t22.5 -29q8 -8 8.5 -15.5t-3.5 -13.5t-11 -9.5t-15 -3.5q-16 0 -31 6t-28.5 10t-25 2t-19.5 -18v-269q0 -8 -3 -16t-5 -16t-1 -16t9 -15h146v-63q-8 -15 -19.5 -17t-25 1.5t-29 9.5t-30.5 6q-32 0 -75.5 -2.5t-91.5 -18.5q-15 16 -30.5 16t-29 -2t-25 1.5
t-19.5 27.5q0 12 3 23q2 10 6 20t12 18q32 -15 73 -15t73 15q-8 39 -8.5 78t1 78t4.5 78t3 78q-16 8 -35 9t-38.5 -1t-38 -5t-34.5 -3q-16 16 -26 31.5t5 30.5q8 16 19 18t23 0.5t23 -3t19 6.5h83q0 15 -5.5 39.5t-5.5 50t10.5 47t41.5 29.5q48 31 94 33.5t94 -12.5
q31 -16 49 -32t33 -31z" />
    <glyph glyph-name="g" unicode="g" horiz-adv-x="610" 
d="M571 373q8 -8 9 -15t-1 -13q-3 -7 -8 -13q0 -16 -10.5 -28t-24.5 -18t-28 -5.5t-22 8.5t-15 16t-10.5 16t-3 15.5t8.5 15.5v21q-8 0 -19.5 -0.5t-23.5 -2.5t-23 -6t-19 -12q32 -48 42.5 -95t-21.5 -94q-16 -16 -42 -29t-42 -13q-16 -16 -28.5 -18.5t-26.5 -0.5t-30.5 3.5
t-40.5 -6.5q-8 0 -13 6.5t-9 12.5t-8.5 8.5t-12.5 -5.5q-23 -8 -29.5 -19.5t-4.5 -23.5t7.5 -23t5.5 -19q16 -8 32 -6t31.5 6t31.5 6t32 -6q39 8 81 7.5t79.5 -10t67 -30t45.5 -51.5q8 -24 8 -50.5t-8 -52t-23.5 -48t-38.5 -38.5q-40 -24 -86 -36t-93.5 -12t-93.5 12t-86 36
q-24 7 -37 22t-21 35t-13 43t-13 47q0 16 16 42.5t48 42.5h20q0 15 -12.5 30.5t-28.5 31.5q0 16 0.5 31.5t4.5 29.5t12.5 25.5t23.5 19.5q8 15 6 24t-8 14.5t-12 10.5t-6 13q-8 24 -5 47.5t12.5 45t24 41t30.5 35.5q24 8 48 15t47.5 9t47 -3t47.5 -21q16 8 35.5 18.5
t41 18.5t45 11t46.5 -5q8 -8 19 -16t21 -16t17 -16t7 -16zM318 332q-17 15 -32 17.5t-31 2.5q-32 0 -61 -15.5t-45 -47.5q0 -32 2.5 -61t18.5 -43q17 -17 45.5 -30t60.5 -13q7 8 18.5 13t23.5 10.5t23 14.5t19 24q8 16 8.5 35t-5.5 37t-17.5 33t-27.5 23zM466 -69
q-8 24 -26 34t-40 14t-44 6t-38 10q-47 0 -81.5 -2.5t-66.5 -18.5q-16 0 -24.5 -10.5t-14.5 -24.5t-11 -28t-13 -22q0 -16 7 -31t19 -27t27.5 -19t31.5 -7q31 0 63 -3t63.5 -3t63 5.5t63.5 21.5q31 15 33.5 44t-12.5 61z" />
    <glyph glyph-name="h" unicode="h" horiz-adv-x="663" 
d="M195 642q0 -33 -3 -69.5t-5 -74t-1 -74.5t9 -70q25 16 50.5 42t55 46.5t63 29.5t75.5 -7q27 0 42.5 -10t23.5 -26.5t10.5 -38t3 -43.5t2 -43t6.5 -38q-8 -24 -9.5 -52.5t-1.5 -58t-1.5 -58t-9.5 -53.5q11 -11 26.5 -12t32 1.5t32 6t26.5 2.5t15.5 -10t-0.5 -31
q-17 -8 -36.5 -9.5t-40.5 -1.5t-41 -1.5t-36 -9.5q-17 8 -36.5 6.5t-36 -1.5t-28 7t-11.5 32q16 8 29.5 9t26.5 1t26 1.5t30 9.5q-9 50 -10.5 92.5t-1.5 82t-1 78t-10 80.5q0 16 -13.5 32.5t-31.5 33.5q-33 0 -65 -15.5t-61 -40t-53.5 -56.5t-40.5 -65v-222q9 -8 27 -6
t36.5 2t32.5 -7t14 -32q-33 -8 -65.5 -9.5t-65.5 -1.5t-66.5 -1.5t-67.5 -9.5v44q8 17 20 19t27 -2t31 -10.5t33 -6.5q-8 33 -6 62t4 56t-0.5 52.5t-18.5 51.5q8 25 6 56.5t-4 64.5t0 64.5t19 55.5q-8 17 -9 34t1 33.5t5 33.5t3 34q-11 11 -23.5 12.5t-25.5 -1t-25.5 -6
t-24 -2.5t-20.5 10t-14 31q16 16 36 18.5t41 0.5t41.5 -3.5t36.5 6.5z" />
    <glyph glyph-name="i" unicode="i" horiz-adv-x="505" 
d="M280 475q16 -24 18 -48t0 -50t-4 -54.5t6 -59.5q0 -48 -10 -95t-10 -95q16 -8 35 -9t38.5 1t38.5 5t36 3h42q31 -33 0 -65v-20h-381q-17 0 -32.5 10t-31.5 10q-8 8 -5.5 16t8.5 16.5t12 16.5t6 16t3.5 9t9.5 -1t14 -5t16 -3q16 -8 34.5 -9t36.5 1t32.5 5t22.5 3
q-8 39 -8.5 82t1 87t4.5 87t3 83q-32 15 -76.5 5t-92.5 -27q-16 8 -21 19.5t-3 23.5t9 23t15 19h234zM322 644q8 -8 8.5 -16t-3.5 -15.5t-11.5 -15.5t-15.5 -16t-19 -12t-23 -4t-23.5 4t-19.5 12t-18 13t-18 11t-11 14.5t5 24.5q8 24 29.5 39t45 17t45 -11t29.5 -45z" />
    <glyph glyph-name="j" unicode="j" horiz-adv-x="388" 
d="M323 469q7 -23 8 -49t1 -54t1.5 -58t8.5 -60v-320q-7 -8 -14 -12t-12.5 -8t-9 -8.5t-3.5 -12.5q-15 -8 -33 -20.5t-39 -21.5t-43.5 -10.5t-45.5 13.5q-7 0 -21 0.5t-31 4.5t-35 11.5t-33 22.5q0 15 -2.5 33.5t-2 37.5t6 37t20.5 33q7 0 17.5 2.5t21.5 2.5t21.5 -5
t18.5 -20q0 -7 -0.5 -17.5t-4.5 -20t-12 -16t-23 -6.5q0 -15 7 -23.5t18 -14t26 -10.5t30 -13q15 0 32.5 1t34.5 6.5t31 18t21 35.5q0 60 -2.5 120t-4.5 118t-1 114t8 109q-8 8 -15 11.5t-12 5.5q-6 2 -12 3q-23 0 -45.5 -3t-43 -4.5t-39 -1t-33.5 8.5q-6 6 -10 12
q-4 5 -7 12.5t-3 15.5l40 20q60 0 117.5 -2.5t102.5 -17.5zM342 648q8 -15 9 -26t-3 -20.5t-11 -17.5t-14 -15q-15 -7 -29.5 -4.5t-27.5 10t-24 17t-19 17.5v39q16 17 33.5 29t46.5 12q15 0 27 -12t12 -29z" />
    <glyph glyph-name="k" unicode="k" horiz-adv-x="632" 
d="M195 672q0 -57 -3 -114t-5 -112t-1 -107.5t9 -101.5q24 16 52 36.5t56.5 43t56 46.5t52.5 48q0 8 -13 13.5t-25.5 11.5t-17.5 15t12 25q32 0 64.5 2.5t63 2.5t59 -5.5t52.5 -21.5q0 -22 -6.5 -30.5t-17 -9.5t-23 2.5t-25 6t-22.5 1t-15 -12.5q-17 -16 -39.5 -32.5
t-45 -32.5t-41 -32.5t-26.5 -32.5q25 -32 49 -61t46.5 -57.5t42 -58t35.5 -62.5q16 0 35.5 6t35.5 8t27 -4.5t11 -30.5q0 -17 -2.5 -19.5t-18.5 -2.5q-17 8 -33 9t-32.5 -1t-32.5 -5t-32 -3q-9 0 -24 -3t-31.5 -3t-31 5.5t-22.5 22.5q6 6 13 10q6 4 14 7.5t17 3.5
q8 8 15.5 9.5t13.5 1.5t9.5 1.5t3.5 9.5q-16 16 -32.5 39.5t-34.5 50t-39 54t-45 51.5q-16 -8 -29 -19.5t-25 -23.5t-25 -23.5t-29 -20.5q8 -16 6 -32t-6 -32.5t-6 -33t6 -32.5q16 0 32 3t30 5t26 1t20 -9q0 -32 -11 -40t-27 -5.5t-35 6.5t-35 -4q-17 -8 -33 -9.5
t-32.5 -1.5t-32.5 -1.5t-32 -9.5q-35 33 0 65q8 24 16 24.5t18 -5.5t22.5 -9.5t29.5 12.5l-21 477q0 8 3 20t5 24t1 23.5t-9 19.5q-9 0 -20.5 -2.5t-23.5 -2.5t-23.5 5t-20.5 21q-8 16 -2 22t16 8.5t20 4t10 9.5q16 -8 32 -9.5t30.5 -1.5t26.5 -1t20 -9z" />
    <glyph glyph-name="l" unicode="l" horiz-adv-x="559" 
d="M284 651q8 8 15.5 8.5t13 -3t9 -11t3.5 -14.5v-537q-8 0 -8.5 -3.5t1 -9.5t4.5 -13.5t3 -15.5h187q7 0 14.5 -3.5t11 -9.5t3 -13.5t-8.5 -14.5q-8 -15 -18.5 -20.5t-22.5 -5.5t-23 2.5t-19 2.5q-39 -8 -74 -8.5t-67.5 1t-64 4.5t-62.5 3q-23 0 -39.5 -3t-30 -4.5t-26 -1
t-28.5 8.5q-15 0 -20.5 4t-5.5 11.5t2.5 19.5t2.5 27q24 16 44.5 15t41.5 -7t45.5 -11t55.5 3q0 -8 3 -9t7 1q4 3 10 8q16 17 18.5 32t2.5 30q-8 46 -6 96t5.5 100.5t5.5 100t-5 96.5v61q-10 16 -31 18t-45.5 -0.5t-50 -6t-45 0t-30 19.5t-5.5 52h227z" />
    <glyph glyph-name="m" unicode="m" horiz-adv-x="638" 
d="M553 429q-8 -47 -9.5 -94.5t-1.5 -93t-1 -89t-9 -83.5q8 -8 22 -9.5t26 -3.5t18 -7.5t-2 -21.5q8 -15 5.5 -20.5t-8.5 -7.5t-12.5 -3.5t-6.5 -9.5q-11 5 -27 4.5t-33.5 -2.5t-34 -2.5t-27 4.5t-13 18.5t8.5 39.5h21q16 16 18 29t0.5 27t-3 30.5t6.5 40.5q-8 24 -6.5 48
l3 48t-0.5 47.5t-18 47.5q8 8 9 19t-1 23t-5 23t-3 19q-16 -16 -31.5 -28.5t-29.5 -24.5t-25.5 -24.5t-19.5 -28.5q0 -8 -3.5 -19t-7 -23t-7 -23t-3.5 -19v-191q8 -8 15.5 -12.5t13.5 -8.5t10 -8.5t4 -12.5q7 -8 8 -12t-3 -8t-11.5 -8.5t-15.5 -12.5q-8 0 -19.5 3t-25.5 5
t-29.5 1t-31.5 -9q-15 16 -17.5 31t-2.5 31q15 0 28.5 2.5t13.5 18.5q0 40 3 80t5 81.5t1 85.5t-9 92q0 8 -4 15t-10 11t-13.5 3.5t-14.5 -8.5q-40 -24 -62 -58.5t-32 -76t-11.5 -88t-1.5 -94.5q8 0 7 -13t-1 -27t6.5 -23t30.5 -1q16 0 18.5 -13t2.5 -28q-32 -16 -66 -18.5
t-82 -2.5l-21 21q0 15 2.5 28t18.5 13q8 0 13 0.5t9 2.5t8.5 6t12.5 12q-8 40 -9 79.5t1 79.5t5 79.5t3 79.5q-8 8 -19 9.5t-21 3.5t-17 7.5t-7 21.5t2.5 29t18.5 13q11 -11 24.5 -13.5t26 -2.5t23.5 0.5t17 -3t5 -13.5t-12 -31h21q17 16 46 42t60 42q17 0 43 -15.5
t42 -47.5v-21q16 8 29 22t26.5 28t30.5 24t41 10q8 -8 19.5 -13t23 -11t22.5 -14.5t19 -24.5z" />
    <glyph glyph-name="n" unicode="n" horiz-adv-x="659" 
d="M217 453q0 -8 -3 -16.5t-5 -16.5t-1 -16.5t9 -17.5q9 0 17.5 7t17 15.5t17 15.5t16.5 7q8 25 24 35.5t35 15t38.5 6.5t36.5 10q16 0 32.5 -7.5t31.5 -18t27 -22t21 -19.5q8 -50 9 -97t-1 -93t-5 -93t-3 -97h44q9 9 14 10t9 -1.5t8.5 -5.5t12.5 -3q17 0 20 -13.5t3 -30.5
q-17 -17 -37 -22.5t-41 -5.5t-41 3t-37 3q-9 8 -27 6.5t-37 -4t-33 0t-14 19.5t2.5 30.5t18.5 13.5h90q-17 50 -16.5 100t2.5 98.5t-2 94t-29 87.5q-17 8 -37 8.5t-41 -6t-41.5 -18.5t-36.5 -29q-26 -17 -42.5 -44.5t-25 -61t-8.5 -70t8 -69.5q-8 -9 -9.5 -17t-1.5 -16.5
t-1 -16.5t-9 -17q11 -11 26.5 -16t31.5 -7.5t30.5 -4.5t23.5 -8.5t9.5 -18.5t-10.5 -34h-67q-25 0 -53.5 -3t-55.5 -3t-51 5.5t-40 22.5q8 8 6 16.5t-4 16.5t0 16.5t19 17.5q9 0 21 -3t24.5 -5.5t24.5 -1.5t20 10v357q-8 8 -20.5 3t-27 -11.5t-31 -7.5t-32.5 16
q0 8 3.5 19.5t9.5 22t14 18t17 7.5q11 -11 24 -12.5t26 1t25.5 6t23.5 2t20 -10.5t14 -31z" />
    <glyph glyph-name="o" unicode="o" horiz-adv-x="555" 
d="M490 382q32 -80 29.5 -160t-50.5 -160q-16 -16 -45.5 -31.5t-61.5 -31.5q-24 -8 -44.5 -15t-40.5 -9t-40.5 3t-44.5 21h-21q-40 16 -65 42.5t-41 58.5t-25.5 66.5t-17.5 66.5q0 16 6.5 28.5t15 24.5t15 24.5t6.5 28.5q8 32 26.5 56t42.5 42t50 30.5t50 20.5q24 0 48 -0.5
t48 -4.5t48 -13t48 -25zM426 318q-16 8 -25 19t-17 21t-17 17t-25 7q-24 8 -48 14.5t-48 6.5t-48 -9.5t-48 -33.5q-16 -16 -21.5 -32t-5.5 -34t2.5 -38.5t2.5 -44.5t7.5 -47t19.5 -43t27.5 -35.5t31.5 -23.5q48 -16 93 -13t77 35q24 24 36.5 54.5t16.5 62.5t0.5 62.5
t-11.5 54.5z" />
    <glyph glyph-name="p" unicode="p" horiz-adv-x="603" 
d="M230 479q0 -16 2.5 -31.5t18.5 -31.5q63 94 190 63q16 -8 34 -16.5t34 -20.5t26.5 -28.5t10.5 -40.5q16 -32 23.5 -73.5t5.5 -85t-14 -85t-36 -72.5q-32 -32 -66 -47.5t-82 -15.5q-8 -8 -16 -2.5t-18 13t-22 13t-28 -2.5l-63 63q-8 -24 -9 -48t1 -49.5t5 -53.5t3 -60
q16 -8 41 -4t48.5 4t40.5 -11.5t17 -51.5q-24 -16 -47.5 -15t-47 7t-47 11t-47.5 -3q-16 8 -28 6t-22 -6t-18.5 -6t-16.5 6q-8 0 -19 0.5t-23 2.5t-23 6t-19 12q8 16 19 27.5t23 17.5t23 5.5t19 -8.5h64v528q-16 8 -38 6.5t-41.5 -1.5t-33.5 6.5t-14 30.5q0 8 0.5 19
t2.5 20.5t6 16.5t12 7q24 0 44.5 -3.5t40 -7t40 -7t44.5 -3.5zM399 416q-8 -8 -16 -6.5t-16 3.5t-16 0t-16 -18q-16 0 -25 -10.5t-17 -24.5t-17 -28t-25 -22q-32 -32 0 -63q-16 0 -18.5 -13t-2.5 -29q24 -16 37.5 -38t25.5 -44t25.5 -40t37.5 -26q16 8 31.5 9.5t29.5 3.5
t25.5 7.5t19.5 21.5q16 8 21.5 16t7.5 18t3.5 22.5t9.5 28.5q0 8 3 19.5t5 25t1 29t-9 31.5q0 16 -10 25t-21.5 17t-21.5 17t-10 25z" />
    <glyph glyph-name="q" unicode="q" horiz-adv-x="604" 
d="M457 461v-558q-8 -8 -12 -20t-2 -24.5t10.5 -24.5t25.5 -20h90q8 0 9 -3.5t-3.5 -7.5t-12 -7.5t-16.5 -3.5q-33 -9 -69.5 -16t-72 -9.5t-68 3t-57.5 22.5q5 17 18.5 20.5t30 2.5t32.5 -3.5t26.5 2t12.5 19t-9 48.5q8 25 9.5 50t1.5 50.5t1.5 50.5t9.5 50
q-16 -17 -32.5 -33t-33 -29t-33.5 -20.5t-34 -7.5q-134 -33 -201 68q-8 16 -13 33t-9 33.5t-9 33t-14 33.5q-8 33 -5 66.5t13.5 65t26 60.5t32.5 54q17 -9 27 0t20.5 22t25 22t39.5 0q33 17 66.5 6t67.5 -28q0 -17 7 -26.5t15 -15.5t15 -11.5t7 -13.5q8 8 7 23t-1 29.5
t7 25.5t32 11q6 0 11 -3q4 -2 7.5 -6.5t3.5 -12.5zM324 394q-17 8 -30.5 12.5t-26 6.5t-26 2.5t-29.5 0.5q-34 -17 -64.5 -47.5t-47.5 -63.5q-33 -168 67 -268q25 0 46.5 0.5t40.5 5t36 13.5t34 26q8 25 26 46.5t32.5 42.5t19.5 42.5t-12 46.5q8 25 -1 43t-23.5 32.5l-28 28
t-13.5 30.5z" />
    <glyph glyph-name="r" unicode="r" horiz-adv-x="579" 
d="M260 391q25 24 50.5 47t54 37.5t62 17t74.5 -13.5q8 0 16 -7t16.5 -17.5t16.5 -22t16 -19.5v-88q-17 -16 -32.5 -18.5t-32.5 -2.5q-17 16 -30.5 35t-13.5 52q0 8 9.5 13t18 9t9.5 9t-15 13q-17 8 -33 5t-32.5 -13.5t-33 -26t-32.5 -31.5q-8 -17 -23.5 -30t-32 -27.5
t-31.5 -31.5t-23 -42q34 -33 36.5 -66t-14.5 -65q0 -17 3 -30.5t20 -13.5q16 -8 32 -6.5t30 3.5t26 -0.5t21 -18.5q0 -8 3.5 -13t7.5 -9t7.5 -8.5t3.5 -12.5q-17 -8 -33.5 -9.5t-33 -1.5t-32.5 -1.5t-32 -9.5q-17 0 -33.5 6t-33 10t-33 2t-32.5 -18q0 8 -3.5 12.5t-7.5 6.5
q-5 3 -11 3q-16 -17 -32.5 -19.5t-33.5 -2.5q-8 8 -15.5 16.5t-11.5 18.5t-3 22.5t9 29.5h153v350q-11 11 -23.5 12t-26 -2t-27 -7.5t-27 -6t-26 4t-23.5 21.5q0 16 13.5 30t30.5 14q32 0 65 2.5t66 18.5q16 -8 21.5 -23t7.5 -31.5t4 -31.5t10 -23z" />
    <glyph glyph-name="s" unicode="s" horiz-adv-x="556" 
d="M321 473q16 8 32 0t32.5 -14t32.5 -1.5t33 36.5q7 0 11.5 -3.5t8.5 -7t9 -7t13 -3.5q0 -16 3 -35t5 -37.5t1 -33.5t-9 -24q-16 -8 -25 -5t-15 11.5t-11 19t-13 18.5t-16 9t-16.5 1t-16.5 1.5t-16 9.5q-24 8 -54.5 15t-62.5 7t-63 -9.5t-55 -33.5q0 -8 -3 -12.5t-5 -8.5
t-1 -9t9 -14l43 -42q48 -8 95.5 -10.5t91.5 -10.5t84 -27t72 -59q8 -16 8.5 -32t-3.5 -32t-11.5 -32t-15.5 -32q-8 -24 -26.5 -37.5t-40.5 -19.5t-44 -7t-38 -1q-32 -8 -63.5 -11t-60 1t-52 16.5t-39.5 36.5q-16 0 -28.5 -12.5t-25 -24.5t-25 -17t-28.5 11q0 24 9.5 45
t17.5 41.5t9.5 41t-14.5 44.5q0 8 -3 15.5t-5 13.5t-1 10t9 4q7 8 15 8.5t16.5 -3.5t16 -11.5l15.5 -15.5q0 -16 1 -35t7 -37t19.5 -33t37.5 -23q24 -16 58 -21t70 -1t70.5 15.5t58.5 27.5q17 17 19.5 46t2.5 61q-20 24 -48 35.5t-60.5 16t-66.5 5t-66 2.5t-60.5 8.5
t-48.5 23t-30.5 46t-6.5 77.5q9 8 17.5 19.5t18 21.5t22 17t28.5 7q8 8 19.5 9t23.5 1t23.5 1.5t19.5 9.5q8 -16 19.5 -15.5t23.5 4.5t23 5t19 -15z" />
    <glyph glyph-name="t" unicode="t" horiz-adv-x="505" 
d="M232 685q0 -25 -3.5 -47t-7.5 -43t-7.5 -42.5t-3.5 -46.5l22 -22q33 -9 66 -4t62 9t53.5 0.5t41.5 -28.5q0 -17 -14 -30.5t-31 -13.5q-17 8 -40.5 9t-48.5 -1t-49 -5t-40 -3q-8 -34 -9.5 -67.5t-1.5 -67t-1.5 -66.5t-9.5 -66q8 -17 10 -33t4 -29t8 -20.5t23 -7.5
q8 -17 16 -19t16 0t16.5 3.5t17.5 -6.5q25 8 40 30t29.5 45t34 41t52.5 18q0 -7 3 -14q2 -6 6.5 -14.5t12.5 -16.5q-25 -17 -43.5 -43t-37.5 -49t-41.5 -36.5t-55.5 -5.5q-25 0 -49 4.5t-45 12.5t-37 20.5t-25 29.5q0 17 -6.5 30t-12.5 23.5t-8.5 19t5.5 17.5q8 33 9.5 69.5
t1.5 72t1.5 68t9.5 57.5q-17 0 -33.5 3t-33 5t-33.5 1t-34 -9q-17 0 -19.5 13.5t-2.5 30.5q17 17 34 22.5t35.5 5.5t40 -2.5t46.5 -2.5q9 25 4 53.5t-9 58t-0.5 58t28.5 53.5q8 0 13 -3.5t9 -7.5t9 -7.5t13 -3.5z" />
    <glyph glyph-name="u" unicode="u" horiz-adv-x="640" 
d="M196 455v-358q0 -17 7.5 -26t18 -13.5t22 -5t19.5 -0.5q42 0 72.5 15.5t53.5 40.5t41 57t35 66v179q-17 17 -30 22.5t-26 5.5t-26 -3t-30 -3v45q17 9 37 10t41 1t41 1.5t37 10.5q9 -17 10 -37.5t1 -41.5t1.5 -41t10.5 -37q-17 -51 -20 -112t-3 -112q0 -8 -3 -16.5t-5 -17
t-1 -17t9 -16.5q17 -8 33.5 -3t31 9t27 0.5t20.5 -28.5q0 -17 -13.5 -31t-30.5 -14q-9 0 -24.5 -3t-34.5 -3t-39 5.5t-37 22.5v67q-25 -25 -54 -45.5t-60.5 -33t-64.5 -16t-67 5.5q-17 8 -26.5 20t-15.5 24.5t-11.5 24.5t-13.5 20v291q0 9 3 17.5t5 16.5t1 16.5t-9 16.5
q-17 9 -33.5 4t-31 -9t-27 -0.5t-20.5 28.5q17 25 37 32t41 7t41.5 -1.5t37.5 7.5z" />
    <glyph glyph-name="v" unicode="v" horiz-adv-x="605" 
d="M236 508q17 -17 19.5 -33.5t2.5 -33.5q-33 33 -66 0q0 -25 10.5 -50t22.5 -52t22.5 -57t10.5 -63q8 -17 13 -33.5t9 -33t9 -33.5t13 -33q17 25 26.5 53.5t16 57.5t11.5 57.5t14 53.5q8 17 13 30t9 26t9 26t13 30v21q-17 0 -33.5 2.5t-33.5 19.5q-8 9 -5 17t11 14t19.5 10
t19.5 4h178q0 -8 3.5 -13t7 -9t7 -9t3.5 -14q-17 -8 -33 -10t-30.5 -4t-26.5 -7.5t-21 -21.5q-8 -42 -20 -80.5t-24 -76t-24 -75.5t-20 -80q-8 -17 -13 -33t-9 -30.5t-9 -27t-14 -20.5q-17 0 -33.5 0.5t-31 5t-26.5 13.5t-20 26q8 16 5.5 29.5t-8.5 25.5l-12.5 25t-6.5 30
q-17 68 -44.5 134t-44.5 134q0 8 -3.5 12t-8.5 6q-5 3 -11 3q-8 -8 -16 -9t-16.5 1t-16.5 5t-17 3q-8 8 -12.5 13t-6.5 9t-2.5 9t-0.5 14q17 17 33.5 19.5t33.5 2.5h155z" />
    <glyph glyph-name="w" unicode="w" horiz-adv-x="651" 
d="M193 459q0 -8 -12.5 -16.5t-23 -18.5t-10.5 -23t24 -29q-8 -17 -5.5 -33.5t8.5 -35t12.5 -39t6.5 -45.5q8 -17 6.5 -33t-1.5 -30.5t7 -26.5t32 -20q8 0 9 4t-1 10t-5 14t-3 16q16 33 20 71t10 71t22 55t57 22q6 -7 11 -14q4 -6 7.5 -14t3.5 -16q8 -24 13.5 -48.5
t11.5 -49.5t15 -49.5t26 -49.5v-22q8 8 13 20t9 24t8.5 24t12.5 20q-8 33 -5.5 62t8.5 55.5t12.5 51.5t6.5 50q-17 16 -30 32.5t-13 33.5q8 8 23 9t31.5 1t31.5 1.5t23 9.5q16 16 32.5 5.5t33.5 -26.5q0 -17 -3 -31t-20 -14q-16 0 -29.5 -13t-13.5 -30q0 -50 -13.5 -96
t-29.5 -79q8 -25 5.5 -46t-9 -41.5t-13 -42t-6.5 -45.5q0 -9 -0.5 -14t-2.5 -9t-6.5 -8.5l-12.5 -12.5h-65q-25 8 -28.5 20t-1.5 26.5t2 30.5t-16 32q-8 16 -10 36t-4 38.5t-7.5 33.5t-21.5 23q-8 -8 -13 -20t-9 -26t-9 -30.5t-14 -32.5q0 -8 3 -13t5.5 -9t1.5 -9t-10 -13
q0 -8 3 -22.5t3 -29t-5.5 -25t-21.5 -10.5q-17 -17 -44 -17t-44 17q-8 41 -13 82t-9 82t-9 82t-13 82q-11 5 -15.5 15.5t-7 22t-4.5 22.5t-8 19t-18 11t-34 -2q-8 16 -9 28.5t1 23t5 19t3 16.5q25 -17 49 -16.5t44 2.5t36 -1.5t24 -28.5z" />
    <glyph glyph-name="x" unicode="x" horiz-adv-x="656" 
d="M316 461h-92q17 -35 34.5 -54.5t34.5 -36.5q0 -18 14.5 -35t32.5 -34q34 34 65 68t48 69q-8 9 -16.5 10t-17 1t-17 1.5t-17.5 10.5q0 8 3.5 16t8.5 15q5 8 12 15l22 -24h184q6 0 11 -3q4 -2 7.5 -6.5t3.5 -12.5q-6 -12 -16.5 -15t-24 -3.5t-28 0.5t-28 -3t-24 -14.5
t-16.5 -33.5q-9 -8 -21.5 -24t-27.5 -33t-32 -33t-34 -25t-15.5 -18t10.5 -19.5t19 -24t10 -30.5q17 -12 31 -29.5t27 -37t27 -37t31.5 -29t39 -14t50.5 9.5q17 0 19.5 -14.5t2.5 -32.5q-8 -8 -20.5 -9t-28 1t-32.5 5t-34 3q-8 0 -20.5 -0.5t-25 -2.5t-25 -6.5t-20.5 -12.5
q-8 0 -13 4t-9.5 10t-9.5 14.5t-14 17.5q0 17 10.5 23t23.5 8t23.5 4t10.5 10q-17 9 -26.5 21.5t-18 27.5t-18.5 32t-28 34h-22q-9 -8 -25 -20.5t-33.5 -28t-33.5 -32.5t-24 -34q17 0 23.5 -7.5t10.5 -18t10.5 -22.5t24.5 -21q-9 0 -14 -3t-9.5 -5t-9.5 -1t-14 9q0 9 -4 10
t-10 -1t-14 -5.5t-16 -3.5h-93q-17 -8 -30 -9t-24 3.5t-20 12.5t-17 17q0 9 3.5 14t7.5 9t7.5 9t3.5 13q35 -17 55 -19.5t38 -2.5q17 34 41 61t47.5 53t43 53t28.5 62q-9 17 -24.5 34.5t-32.5 34.5t-33 34t-25 34q-17 18 -31 24t-29 6t-33.5 -3t-44.5 -3q0 9 -3 17t-5 14
t-1 10t9 4q35 0 69.5 6t69 8.5t68.5 -4.5t69 -32z" />
    <glyph glyph-name="y" unicode="y" horiz-adv-x="630" 
d="M602 432q8 -8 9 -16.5t-1 -16.5t-5 -16t-3 -16q-16 0 -28.5 3.5t-24.5 7t-25 7t-29 3.5q-8 -16 -13 -38.5t-9 -46.5t-8.5 -47t-12.5 -39q-16 -49 -35 -94.5t-35 -92t-27 -96t-11 -105.5q-8 -17 -19.5 -26.5t-23.5 -17.5t-23.5 -17t-19.5 -25q-17 8 -36 6.5t-39.5 -3.5
t-40 0t-35.5 19q-17 15 -29.5 34t-12.5 52q0 8 -3 19.5t-3 25.5t5 30t21 32q8 -8 16.5 -9.5t16.5 -1.5t16.5 -1.5t16.5 -9.5q6 -6 10 -13q4 -6 7.5 -13.5t3.5 -15.5q-8 0 -12.5 -9.5t-8.5 -19.5t-8.5 -16t-12.5 1l21 -21q32 -17 61 -14t46 36q16 48 32 85.5t32 85.5
q0 16 -7 29t-17 25.5t-21 25t-19 29.5q-17 48 -33 83t-31 66q0 33 -16.5 62.5t-48.5 45.5q-8 0 -22.5 -5.5t-28.5 -7.5t-24.5 4.5t-10.5 30.5q-8 8 -9 16t3.5 14t12 10t15.5 4h214q33 -33 0 -66h-65v-21q24 -33 38.5 -65t26.5 -64.5t26.5 -64.5t38.5 -64q8 0 12.5 7t6.5 17
t2.5 21t0.5 19q-8 8 -3 16.5t13.5 16.5t13.5 16.5t-3 16.5q17 31 30.5 63.5t13.5 64.5q-17 8 -32 13t-25 13.5t-13 22t5 38.5h173q31 0 47 -2.5t16 -19.5z" />
    <glyph glyph-name="z" unicode="z" horiz-adv-x="603" 
d="M349 490q17 9 38 10t42.5 -1t42.5 -5.5t38 -3.5q9 -17 2.5 -30.5t-17 -24t-21 -19.5t-10.5 -18q-87 -87 -170 -173t-152 -173v-23q43 0 78.5 3t68 5.5t64 1.5t66.5 -10q28 0 41.5 10.5t18 27t3.5 37.5t-0.5 41.5t6 38.5t22.5 30q17 0 32 -15t15 -32q-9 -17 -7.5 -41.5
t1.5 -50.5t-7.5 -50.5t-33.5 -41.5h-391q-9 0 -21.5 3.5t-25.5 8t-25 8t-21 3.5q0 17 7 27t16 16.5t16 12t7 14.5q35 17 66.5 48t48.5 66l232 231v23h-24q-35 0 -66 3t-61 3t-61 -6t-65 -23h-23q0 -17 3 -37.5t3 -40t-6 -35.5t-24 -25q-9 9 -14 10t-9 1t-9 1.5t-14 10.5
q11 17 14.5 37.5t3.5 41t-0.5 39.5t3.5 33.5t15 23.5t34 9h230z" />
    <glyph glyph-name="braceleft" unicode="{" horiz-adv-x="294" 
d="M280 -94q0 -17 -23 -23q-13 -3 -42 -3q-54 0 -89 19q-43 23 -43 68v221q0 38 -17 62q-18 24 -56 31q39 13 56 33t17 61v223q0 38 35 63q34 25 94 25q34 0 51 -4q17 -5 17 -24q0 -20 -55 -29t-55 -35v-221q0 -27 -17 -54q-17 -28 -43 -38q25 -13 43 -38q17 -25 17 -54
v-220q0 -26 55 -36t55 -27z" />
    <glyph glyph-name="bar" unicode="|" horiz-adv-x="141" 
d="M58 745q10 6 17.5 5t14.5 -4t13.5 -6t13.5 -1q5 -9 7 -16.5t2.5 -13.5t0.5 -11.5t2 -11.5q-6 -9 -15.5 -14.5t-6.5 -18.5q-2 -23 1.5 -48t0.5 -46q-5 -8 -4.5 -19.5t-4.5 -19.5q9 -12 8 -22t-4 -20t-4 -20t9 -22q-5 -8 -6.5 -10.5t-7.5 -11.5q1 -6 -1 -15.5t-4.5 -19.5
t-3 -20t5.5 -19q-5 -9 -1.5 -15.5t-0.5 -14.5l-11 7q3 -3 2.5 -5t-1.5 -4t-1.5 -4t4.5 -5q2 3 5 5q6 4 12 0l-13 -21q4 -3 3.5 -5t-0.5 -5t1.5 -7t10.5 -9q-5 -9 -6 -18t-2 -18.5t-3 -20.5t-10 -23l9 -35q-6 -9 -4.5 -18.5t4 -19.5t3.5 -20t-4 -18t-3 -19t11 -17
q1 -7 -2.5 -13t-9 -10t-11.5 -5t-10 2q-6 -2 -12.5 1.5t-12 8.5t-10.5 10t-9 8q4 15 4.5 32t1 33.5t3 32.5t10.5 28q-5 20 -4 37t4 32.5t5.5 31t2.5 32.5q2 22 -1 46.5t-1 46.5q2 58 0 124.5t-10 128.5q8 12 7 25t-2.5 27t1 28t17.5 28z" />
    <glyph glyph-name="braceright" unicode="}" horiz-adv-x="294" 
d="M284 281q-73 -14 -73 -93v-221q0 -44 -43 -67q-37 -20 -89 -20q-32 0 -41 2q-24 5 -24 24q0 16 55 26t55 37v220q0 30 16 54t44 38q-25 10 -42 38q-18 27 -18 54v221q0 26 -55 35t-55 29q0 18 18 23t50 5q76 0 109 -39q20 -23 20 -49v-223q0 -39 18 -60q17 -22 55 -34z
" />
    <glyph glyph-name="asciitilde" unicode="~" horiz-adv-x="378" 
d="M347 326q0 -45 -39 -68q-28 -16 -60 -16q-19 0 -73 18t-74 18q-19 0 -32 -10l-22 -22q-15 4 -15 19q0 38 28 63q27 24 67 24q12 0 71 -19q58 -20 87 -20q14 0 26 9q12 11 25 22q4 0 7 -4q4 -6 4 -14z" />
    <glyph glyph-name="exclamdown" unicode="&#xa1;" horiz-adv-x="198" 
d="M41 46q-1 40 8 83t9 96q7 20 8 40t2.5 38.5t6 34.5t18.5 30q13 0 18 -8.5t7 -20.5t3.5 -24t7.5 -19q7 -33 8.5 -64t3 -61t6.5 -60.5t19 -64.5q-14 -13 -27 -17t-26 -18q-7 0 -16.5 0.5t-19.5 4t-19.5 10.5t-16.5 20zM39 475q-7 13 -7.5 26.5t3 25t9.5 21t12 16.5
q14 14 36 14t35 -14q28 -27 37 -53.5t-18 -53.5q-13 -7 -29 -7.5t-31 3t-27.5 9.5t-19.5 13z" />
    <glyph glyph-name="cent" unicode="&#xa2;" horiz-adv-x="484" 
d="M245 745q10 5 16 5q11 0 20 -6t19 -6h1q1 1 3 1q5 -9 7 -16.5t2.5 -13.5t0.5 -11.5t2 -11.5q-5 -8 -14 -13t-9 -15q0 -3 1 -5v-11q0 -16 1.5 -32.5t-11.5 -67.5q10 -37 15 -64q10 5 28 2q38 -5 70 -5l64 -85q-1 -27 -8.5 -49.5t-34.5 -35.5q-16 0 -28.5 0.5t-22 4.5
t-18 13t-16.5 25q-9 9 -9 25q0 7 1 14t3 12q2 6 5 12q-11 5 -19 9q-40 -73 -35 -80q-3 -5 -3 -9t1.5 -7t1.5 -7q0 -3 -2 -7l-11 7q3 -3 3 -5t-2 -4t-2 -4q0 -3 5 -5l3 3q4 4 8 4q2 0 6 -2l-13 -21q4 -3 4 -6q0 -2 -0.5 -3t-0.5 -3t2 -5.5t10 -8.5q-5 -9 -6 -18t-2 -18.5
t-3 -20.5t-10 -23l9 -35q-4 -5 -1 -56l36 6l21 -21q8 16 19 28.5t21 24.5t17 24.5t7 28.5q16 17 32 19.5t32 2.5q6 -18 6 -35t-5 -32.5t-12.5 -29.5t-16 -27t-15.5 -26q-48 -31 -95.5 -47t-95.5 -16q-64 17 -109 50.5t-62 98.5q-23 16 -32.5 42t-9.5 55q0 27 6.5 54t14 49.5
t14.5 37.5t7 17q34 45 80.5 68t95.5 31q0 -14 10 -21q-18 57 -20 169q7 11 7 26q0 9 -1.5 18.5t-1.5 19.5q0 11 4 22t15 22zM184 390q-8 0 -16 -7t-15.5 -17t-15.5 -21t-16 -19q-12 -42 -12 -90q0 -46 16.5 -89.5t58.5 -75.5l35 6q-1 5 -1 11q-4 58 8 70q-4 16 -4 33
q0 31 6.5 56.5t6.5 57.5q0 16 -2 32.5t-2 31.5q0 7 2 45q-41 -16 -49 -24zM251 420l16 1l-3 4q-7 -3 -13 -5zM311 422l-8 6l-1 -6h9z" />
    <glyph glyph-name="sterling" unicode="&#xa3;" horiz-adv-x="488" 
d="M460 196v-22l-6 -8v-74q-9 -8 -15 -17l-4 -16l-19 -28q-9 -4 -28.5 -23t-33.5 -19h-67q-46 28 -83 72v-2q-32 -30 -47 -46h-18q-9 -6 -52 -6q-13 0 -30 7q-9 11 -19 24.5t-13 28.5l-4 10v15l6 8v60q4 1 10 13l12 18l19 11l6 8h22q4 0 61 -12l27 -21h2l1 41l-3 7
q-4 13 -10 41l-3 4q-17 0 -57 3.5t-61 3.5q2 15 8 43q24 28 73 21q-7 10 -8 23q-5 9 -5 16l1 8l-2 6h-53q-8 8 -15 22v17q8 18 22.5 23.5t30.5 10.5v45l6 3q1 14 4 29l3 4q1 8 20 36q12 20 25 39q8 14 33 23t31 22q60 2 59 2q24 0 47 -18.5t44 -38.5l5 -11l15 -12
q2 -11 9 -20v-72l-14 -21q-6 -1 -10 -5l-27 -6l3 3l-6 4v-7h-5q-5 6 -15 8q-2 14 -9 23v62q3 7 9 17q-23 19 -39 19h-72l-10 -8q-8 -14 -37 -24q-16 -44 -17 -59l-6 -14q2 -13 2 -28q72 1 74 1q65 0 78 -18v-28q-7 -18 -18 -23h-58l-4 5h-50l-4 6h-5l-5 -4l10 -14l2 -9
l14 -12l4 -22q7 -9 12 -17l3 5l9 7q11 0 33.5 3t34.5 3h7l6 -8l15 -9l3 -22l-3 -18q-15 -16 -35 -21q7 3 -49 3q2 -13 3 -31l-2 2l7 -16v-71l5 -6l-6 -9q7 -12 10 -26q15 -14 48 -38h39q19 0 44 31q2 10 8 18q3 17 15 32v51q-5 9 -5 16q0 12 8 22.5t17 10.5q13 0 33 -19
l3 -19l11 -15zM163 111l-8 9q-10 2 -16 11q0 -2 -2 -2q-6 0 -15 7h-28q-2 0 -16 -8l-7 -11l3 -29q7 -2 13 -2h45q15 13 31 25zM352 495l4 4q-3 0 -4 2v-6zM273 267h3h-3z" />
    <glyph glyph-name="currency" unicode="&#xa4;" horiz-adv-x="579" 
d="M475 90l-9 -10l-64 88q-9 -5 -18 -8.5t-18 -8.5q-18 -6 -33.5 -11.5t-30.5 -7t-30.5 2.5t-33.5 16h-16q-17 7 -27 13l13 17l-13 -16q-21 14 -35.5 33t-24 41t-15.5 44.5t-11 43.5q0 12 5 21.5t11.5 18.5t11.5 18.5t5 21.5q1 3 1 6t2 5q-32 31 -58 62t-66 54
q4 11 16.5 24.5t27.5 29.5q7 7 10.5 7.5t5.5 -1.5t2.5 -5.5t2.5 -4.5q0 -8 4.5 -12t9 -8.5t7.5 -11t0 -20.5l11 10l60 -74q20 19 45 31t47 20q37 0 72.5 -4t72.5 -28l40 -40l1 -1v-1l7 -6q25 -60 23 -120t-38 -120q17 -16 27.5 -30.5t21 -28t23 -26.5t33.5 -26
q-4 -11 -15 -24.5t-25 -29.5q-6 -7 -9.5 -8t-5 1.5t-2.5 6t-2 4.5q0 8 -3.5 12t-8 8.5t-7.5 11t0 20.5zM415 391q-12 6 -19 14t-13 15.5t-13 13t-19 5.5q-18 6 -36.5 11t-36.5 5t-36 -7t-36 -25q-12 -12 -16.5 -24t-4.5 -25.5t2 -29t2 -33.5t5.5 -35.5t15 -32.5t21 -26.5
t23.5 -17.5q36 -12 70.5 -10t58.5 26q18 18 28 41t13 47t0 47t-9 41zM126 98l10 -10l59 76v1l-6 -7q-1 14 -12.5 20t-18.5 12q-20 -16 -31.5 -28t-22.5 -22.5t-24.5 -20.5t-35.5 -23q4 -11 15.5 -24.5t26.5 -28.5q7 -7 10.5 -8t5 1.5t2 6t2.5 4.5q0 8 4 12t8.5 8t7.5 10.5
t0 20.5zM468 466l10 -10l72 93l4 4q-1 14 -13 25t-19 17q-20 -16 -29 -30.5t-17 -27.5t-19 -25.5t-33 -25.5q2 -5 2.5 -6.5t1.5 -2.5l4 -4t11 -10q6 -7 8 -10.5t4 -5.5l1 -1v-1v1q1 0 2 1q0 8 2.5 7t5 -3t4 -0.5t-1.5 15.5zM406 170l4 -1q6 5 18 9t15 16q-12 -11 -37 -24z
" />
    <glyph glyph-name="yen" unicode="&#xa5;" horiz-adv-x="525" 
d="M201 158v13h39q-1 10 -2 19.5t-3 18.5q-31 -1 -61 -3.5t-60 -9.5q-4 4 -10.5 9t-13 11t-11.5 13.5t-5 16.5t8 13.5t18 6t19.5 1.5h13.5q7 -5 15.5 -4t18.5 2.5t20.5 0t21.5 -10.5v12h2q-26 66 -53 132t-53 132q-7 14 -17 16t-22.5 0.5t-26 -3t-27.5 5.5q0 7 3 11t6.5 7.5
t6.5 7.5t3 11q21 -7 42 -7.5t41.5 1t41.5 4t42 2.5q14 0 16.5 -11.5t2.5 -25.5h-56q7 -14 8.5 -27.5t3 -25.5t6.5 -22.5t19 -17.5q-7 -14 -5 -25.5t7.5 -23.5t11 -27t5.5 -36q7 -7 11 -14.5t7.5 -16t7.5 -19t11 -24.5q14 14 22.5 33.5t15.5 40.5t15 41t22 34q0 14 6 28
t12.5 30t12.5 33.5t6 38.5q-7 7 -19 5.5t-22.5 -3t-16 0.5t1.5 16q14 14 37.5 14t37.5 -14q14 0 31 5t34 8.5t34 2t31 -15.5q-7 -21 -20 -24t-28.5 -1.5t-32.5 1.5t-31 -14q-7 -14 -11 -27.5t-7.5 -25.5t-7.5 -22.5t-11 -17.5q-22 -43 -37 -85.5t-33 -85.5h93l45 -9
q7 -5 7 -10.5t-2.5 -11.5t-6 -11.5t-3.5 -9.5q-39 -5 -77.5 -5h-77.5q6 -18 4 -39h139q8 -5 11 -11.5t3 -13.5t-1 -13.5t-1 -10.5q-42 -5 -79.5 -6t-75.5 -2q-1 -20 2.5 -41.5t15.5 -44.5l65 6q0 -7 3 -9t6 -3t6 -3t3 -9l-24 -19l-167 3q-6 6 -8.5 9t-3 3.5t0.5 0l1 -0.5
q-7 7 -10 9.5t-3 4t3.5 4.5t10.5 10q14 0 22.5 -0.5t14.5 0t11.5 3.5t12.5 10q0 33 3 66q-35 -2 -71 -5t-75 -11q-8 9 -9.5 25.5t-1.5 35.5q0 9 3.5 12.5t9 3.5t11 -1.5t9.5 -1.5q8 -5 18 -4t21 2t23 -0.5t24 -10.5z" />
    <glyph glyph-name="brokenbar" unicode="&#xa6;" horiz-adv-x="121" 
d="M80 596h12l-7 -180v-10q-5 -7 -11.5 -9.5t-13 -2t-12.5 2t-10 1.5q-3 39 -2.5 75.5t0.5 72t-2 71.5t-9 76q9 8 25 8.5t34 -0.5q9 0 12 -3.5t2.5 -8t-2 -9t-1.5 -8.5q-5 -7 -4.5 -16t1.5 -18.5t-1 -20.5t-11 -21zM77 221h12l-7 -180v-10q-5 -7 -11.5 -9.5t-13 -2t-12.5 2
t-10 1.5q-3 39 -2.5 75.5t0.5 72t-2 71.5t-9 76q9 8 25 8.5t34 -0.5q9 0 12 -3.5t2.5 -8t-2 -9t-1.5 -8.5q-5 -7 -4.5 -16t1.5 -18.5t-1 -20.5t-11 -21z" />
    <glyph glyph-name="section" unicode="&#xa7;" horiz-adv-x="422" 
d="M358 596v-32q-11 -11 -24.5 -18.5t-37.5 3.5q-4 0 -8 2q-7 3 -7 13q-6 12 -4.5 21t6 16.5t9 13.5t4.5 12q-24 24 -55 33.5t-54 -1.5q-23 0 -44.5 -20t-34.5 -43q0 -12 -2 -22t-13 -10q6 -6 11.5 -16t11.5 -18.5t12 -13t12 1.5q47 -35 93.5 -60.5t94.5 -49.5
q23 -11 42.5 -24.5t19.5 -37.5q11 -23 3.5 -46t-20.5 -48q-6 -12 -20 -21t-24 -19t-9.5 -22t23.5 -30q-6 -6 -7 -17t-2.5 -24.5t-6 -27.5t-16.5 -26q-18 -12 -42.5 -20t-52.5 -11t-56 0.5t-52 15.5q-11 23 -23 38.5t-23 40.5q6 6 9.5 13.5t7.5 15t10.5 12.5t18.5 5
q13 0 24.5 -9.5t23.5 -21.5q6 -11 3.5 -20.5t-10 -17t-18.5 -14t-23 -12.5q12 -11 28.5 -15t34 -4t34 2t28.5 2t21 5t18 12.5t18.5 16t20.5 15.5q0 11 -0.5 24.5t-3.5 26.5t-9 24.5t-17 17.5q-24 19 -52.5 33.5t-57.5 27t-56 25.5t-47 30.5t-30.5 41.5t-6.5 59q6 18 14 30.5
t18.5 23t21.5 20t23 20.5l-13 26t-10 28.5t1.5 28.5t21.5 26q12 18 31.5 29.5t43 17.5t49 6t49.5 -6q6 -11 16.5 -20.5t22 -18.5t22 -18t16.5 -21zM328 378q-24 17 -47.5 29.5t-47 24.5t-47 25t-46.5 31q-11 0 -23.5 -2t-23.5 -15q-23 -23 -27 -46.5t-4 -46.5q6 -18 19 -28
t29.5 -17l33 -14t28.5 -19q17 -12 34 -25.5t34.5 -24t35 -15.5t35.5 1t27.5 17t14 24.5t5 27.5t0.5 26v15q-11 11 -15 21.5t-15 10.5z" />
    <glyph glyph-name="dieresis" unicode="&#xa8;" horiz-adv-x="386" 
d="M321 584q-11 -12 -23 -12t-33 12q-11 13 -13 32t-1 32q11 11 14 21.5t14 10.5q21 11 38.5 1t17.5 -34q10 -6 11.5 -14.5t-2.5 -17.5t-11 -17t-12 -14zM95 570q-20 0 -32.5 10t-22.5 22q0 12 -2 21t-2 16.5t3.5 13.5t14.5 12q11 12 21 19.5t21 -4.5q10 0 16 -5.5t10 -14.5
t7.5 -20t8.5 -23q-6 -6 -9.5 -12t-7.5 -12t-10 -11.5t-16 -11.5z" />
    <glyph glyph-name="copyright" unicode="&#xa9;" horiz-adv-x="673" 
d="M646 418l-12 -50q-1 -5 2.5 -11t3.5 -12q0 -5 -2 -11l-5 -23q-2 -11 -3 -19.5t-5 -16t-4 -10.5q-4 -14 -4 -26q0 -6 -1 -8q-6 -7 -9 -9q-9 -10 -8.5 -14.5t-0.5 -9.5t-6 -15t-10.5 -15.5t-15.5 -13.5l-3 -6q-3 -6 -10 -12q-10 -5 -12 -8l-35 -29l-25 -7q-23 -9 -31 -13
q-17 -5 -25.5 -7t-11.5 -2q-8 0 -13 1l-7 3q-3 -1 -4 -4q-4 -5 -8 -5h-23q-12 0 -24.5 2.5t-33.5 6.5q-17 -2 -25 0q-3 0 -10 4.5t-11 5.5l-23 4q-13 4 -29 10.5t-21.5 8.5t-15.5 12q-1 2 -5 5q-11 7 -18 10q-11 6 -17.5 11.5t-10.5 9.5q-10 9 -17 23l-5 12q-3 3 -5 3
l-10 10q-10 13 -15 18q-7 9 -9 10q0 20 -5.5 22t-8.5 11v9q0 16 0.5 27t-0.5 13q-5 9 -7 14q-7 17 -7 26q0 2 2.5 6.5t2.5 6.5v74q0 3 6 12q2 2 6 9q12 24 21 37q3 2 7 8q1 6 1.5 10.5t7.5 14.5l18 23q8 2 11 5q20 22 42 44q9 7 18.5 14t19.5 13q2 0 10.5 1.5t11.5 2.5
q13 6 27 12q5 2 15 4.5t20 3.5t19 1q11 0 14 1.5t11.5 2t15 1.5t10 2.5t9.5 1.5q11 1 12 1q0 -2 8 -9h55q5 0 13 -3q4 -2 18 -10q12 -6 20 -12q3 -1 9 -4.5t18.5 -7t19.5 -5.5l9 -9q8 -5 13 -12q9 -9 17 -22q4 -2 6 -5q6 -5 15 -14q0 -1 10 -12q8 -7 11 -11.5t7 -12.5l5 -10
q8 -13 11 -21t7.5 -19.5t6.5 -19.5q0 -8 -2 -8t-2 -6l4 -6q4 -5 4 -8zM587 373q0 6 -6 19q-2 5 -5 13v39q-1 6 -5.5 8t-4.5 18q-5 4 -7.5 7t-13.5 15l-12 11l-3 9q-4 7 -10.5 14.5t-11.5 11.5t-11 7l-18 10q-4 5 -6 6q-5 7 -8 8q-10 3 -19.5 7t-21 6.5t-20.5 4.5q-6 3 -8 5
q-6 3 -10 4q-14 -2 -19 0q-9 2 -21.5 4t-24.5 2l-19 1q-3 -1 -5 -4t-4 -3q-3 0 -7.5 1t-8.5 1q-7 0 -12 -1t-23 -8q-10 -4 -19 -7l-20 -6l-28 -24l-10 -6q-5 -4 -7 -7.5t-4 -7.5q-13 -10 -19.5 -20.5t-6.5 -16.5v-9l-14 -15q-1 -1 -1 -9q0 -9 -2 -19q-4 -9 -7 -18l-3 -18
l-4 -18q-2 -8 -2 -9q0 -4 4 -12q2 -3 1 -6l-10 -41q0 -3 2 -6.5t5 -5.5q0 -4 -2 -4t-2 -4l6 -15q5 -17 14 -35l10 -18l18 -18q4 -7 11 -12q1 -2 5 -4q7 -12 12.5 -17.5t11.5 -9.5q3 -4 7 -8q10 -2 16.5 -3.5t14.5 -5.5l22 -14q13 -7 17 -8.5t8 -1.5h45q2 -4 5 -7h15
q4 1 7 2.5t12.5 2t13 2t10.5 1.5h14q7 0 20 3l32 13q8 2 17 4q4 3 14.5 10t17.5 12t15 15l16 20l10 3l14 19q3 9 8 20q4 6 7 11q8 13 15 24q1 1 5 8t4 9v60q1 3 2.5 5.5t1.5 5.5zM460 472q0 -13 -5 -21t-19 -8q-19 0 -37 12q-23 16 -31 18l-9 1q-4 2 -6 2q-10 1 -15 1l-7 -6
q-10 0 -20 -4q-2 -2 -6 -5q-21 0 -31.5 -7.5t-10.5 -27.5q0 -7 -3.5 -25t-3.5 -30q0 -11 1 -19.5t4 -14.5t6 -6t3 -8v-14q0 -5 6 -14t8 -11q8 -11 16 -21q10 -8 30 -12t38 -4q27 0 46.5 10t23.5 31q7 -3 15 -6q6 -4 6 -7l-2 -3q-2 -5 -2 -6l-8 -32q-25 -21 -49 -42
q-25 -16 -57 -16q-30 0 -54.5 11.5t-43.5 34.5q-5 6 -9.5 14.5t-8.5 14.5q-10 11 -12 16q-8 9 -10.5 17t-5 15.5t-6.5 12t-4 12.5q1 6 1 16l-1 36q0 7 8 16t10 15q5 18 19 40q12 20 24 39q2 2 10 8t15 10q10 6 29 13q27 10 31 11.5t11 1.5q4 0 16 -1t19 -1q35 0 55 -12
q26 -14 26 -45z" />
    <glyph glyph-name="ordfeminine" unicode="&#xaa;" horiz-adv-x="358" 
d="M270 525q4 -21 5 -44.5t-0.5 -46t-3 -43.5t-1.5 -38q4 -9 10.5 -12t12.5 -4.5t12 -2.5t10 -5h24q0 -7 -6 -15q-3 -4 -5 -7q-9 0 -17.5 -1.5t-17.5 -1.5t-17.5 3t-17.5 11q0 8 -1.5 17t-9.5 18q-18 -17 -37 -26.5t-39.5 -14t-42 -5t-42.5 -0.5q-52 33 -35 103
q17 26 41.5 33.5t51.5 8.5l54 2t49 14q0 8 -0.5 18t-2.5 18.5t-6.5 14.5t-13.5 6q-52 16 -103 0q2 -3 5 -7q6 -8 6 -16q-8 0 -12.5 -6t-22.5 -6q-7 -1 -11 1q-11 2 -11 11q-10 0 -11.5 7.5t-1.5 15.5q13 17 32 26.5t39.5 12.5t41 1.5t37.5 -5.5q17 0 33 -9t25 -26zM133 222
v12h190q7 -5 9.5 -11t2.5 -13t-1 -13t-1 -10q-39 -5 -75.5 -5.5t-72 -2t-72 -4.5t-75.5 -12q-8 9 -9 25t-1 34q0 9 3 12t7.5 3t9.5 -1.5t9 -1.5q7 -5 15.5 -4t18.5 2.5t20.5 0t21.5 -10.5zM224 376q12 0 15.5 7t2.5 16.5t-3.5 21t-3.5 20.5q-2 -6 -8.5 -7t-14.5 -1
q-17 -9 -39 -7.5t-42.5 1.5t-36 -7t-19.5 -33q0 -17 7 -33t15 -25q44 -8 72.5 6.5t54.5 40.5z" />
    <glyph glyph-name="guillemotleft" unicode="&#xab;" horiz-adv-x="401" 
d="M193 389q-17 -25 -27 -33q-13 -39 -36 -48q-6 0 -10 -18l-22 -4l2 -9h10l10 2q4 -4 5 -18q10 -4 19 -31l6 -6v-3q18 6 7 -9q7 0 35 -36l14 -22l10 -26q-18 -18 -42 -15l-27 23q-15 0 -19 22q-23 19 -40 43q-13 26 -20 30q-20 -4 -27 27q-21 8 -27 15v2q10 9 10 24
q32 14 39 26q11 0 19 14q11 10 11 14l8 6q8 15 21 26l8 23q3 9 42 36q24 0 34 -22zM346 389q-17 -25 -27 -33q-13 -39 -36 -48q-6 0 -10 -18l-22 -4l2 -9h10l10 2q4 -4 5 -18q10 -4 19 -31l6 -6v-3q18 6 7 -9q7 0 35 -36l14 -22l10 -26q-18 -18 -42 -15l-27 23q-15 0 -19 22
q-23 19 -40 43q-13 26 -20 30q-20 -4 -27 27q-21 8 -27 15v2q10 9 10 24q32 14 39 26q11 0 19 14q11 10 11 14l8 6q8 15 21 26l8 23q3 9 42 36q24 0 34 -22z" />
    <glyph glyph-name="logicalnot" unicode="&#xac;" horiz-adv-x="680" 
d="M356 749q2 3 6 0.5t9 -0.5q5 -4 11 -3.5t11 -4.5q11 5 19 -2q3 -1 4 -2t4 -1q5 2 10.5 1t11.5 -1q6 1 11 -2t9 -7t9 -7t11 -1q5 -2 11 -1.5t11 -1.5q5 -5 11 -5.5t10 -6.5q5 -6 10 -14t14 -9q8 -4 13.5 -12t14.5 -8q5 -2 7.5 -7t7.5 -10q6 -5 11.5 -9.5t5.5 -12.5
q4 -5 8 -9.5t3 -11.5q5 -6 8 -13t9 -13q0 -3 -3 -5t-1 -6q3 -5 2.5 -9t-0.5 -8q3 -5 8 -10t0 -11q0 -4 1.5 -6.5t1.5 -4.5q2 -9 1 -17.5t2 -16.5q-2 -11 3.5 -17t1.5 -14q0 -22 -4 -42t-19 -34q-8 -9 -13.5 -20t-11.5 -22q-5 -5 -6.5 -13t-7.5 -13q0 -2 -2 -3.5t-2 -2.5
q-2 -6 -2 -11.5t-6 -10.5q0 -5 -4.5 -8t-7.5 -7q-2 -9 -8.5 -16t-6.5 -18q-3 -5 -3 -10.5t-5 -9.5q-3 -5 -2 -11.5t-4 -11.5q-2 -11 -3.5 -21.5t-10.5 -19.5q-2 -6 -1 -14t1 -15q-2 -2 -2 -4.5v-5.5h2q0 -5 -0.5 -10t3.5 -8q0 -11 7 -25h-1q1 -2 0.5 -3t-0.5 -3
q-4 -3 -5.5 -3.5t-5.5 -2.5q-20 -11 -41.5 -18.5t-42.5 -18.5q-25 -9 -47.5 -22t-47.5 -23q-17 -14 -34 -22t-35 -17q-2 -4 -8 -8q-2 9 -5.5 17t-5.5 17q0 1 -1.5 2.5t-2.5 4.5q-5 11 -7.5 23t-8.5 24q-2 5 -3.5 9t-4.5 6q-10 11 -12.5 23t-10.5 23l-12 4l-12 4h-2
q-10 2 -20.5 4.5t-22.5 4.5q-2 2 -6 1.5t-9 2.5q-12 0 -18 9t-13 16q-3 9 -1 18.5t4 17.5q2 3 5.5 5.5t-0.5 6.5h-3v1l-4 4t-4 2q-1 2 -6 2q-2 2 -4 2t-4 2q-1 9 -0.5 17.5t5.5 13.5q1 2 -1 2.5t-4 2.5q-2 0 -3 1.5t-4 3.5q-6 3 -6 12q-2 3 1 5t3 4q5 7 0.5 10.5t-2.5 9.5
q2 5 -4 8q-2 0 -3 1t-3 1t-3 2t-5 2q-1 2 -2.5 4t-5.5 2q0 1 -3 4q-4 0 -4 4q-6 9 -4 20t8 19q13 16 22 33q5 6 8 14t10 13q0 5 2.5 7t3.5 5h2q2 6 -0.5 9.5t-4.5 8.5q-3 3 -6 5.5t-6 6.5q3 1 2 3.5t2 2.5v7q3 2 2.5 4.5t1.5 5.5q1 7 3.5 15t3.5 16q2 5 2.5 10t4.5 10
q1 3 2 6.5t-1 6.5q5 10 6 14v2q0 2 1 3t1 3q0 9 3.5 16t6.5 15v2q2 2 1 3t1 3l-2 2h-2v2q0 2 -2 0q0 -2 -1.5 -2t-1.5 -2q-2 3 0.5 6t0.5 6q-5 -2 -10 -0.5t-11 0.5q-2 -2 -5 -1t-3 -1q-2 2 0 3t3 3q2 2 4 2h1v1q-2 0 -4 1t-4 -1q-2 5 2.5 9t-0.5 7q2 11 0 18q-3 3 1 3
q2 0 3.5 -1.5t2.5 0.5q10 13 19 31q0 2 1.5 1t1.5 -3v-2q5 0 6 4t6 4q2 3 5 4t5 4q5 -3 9.5 2t9.5 4q5 7 12 6t12 6q10 0 13 9t12 12q16 0 24 13q11 11 25.5 11.5t29.5 0.5q1 2 1 4t2 4q11 -2 21 -5t20 -1q8 2 15 5t15 5q3 -2 5.5 -3t6.5 1zM133 507q0 -6 -6 -10q-2 2 -3 1
t-3 -1q-8 3 -7.5 -2.5t-4.5 -7.5l2 -15q2 -4 3 -5t1 -3q3 2 1.5 4t-0.5 4h3q0 1 -1 2t1 1t1 -1t1 -1t0 -1q2 -2 0.5 -3.5t1.5 -2.5q0 -6 -7 -6q0 -5 3.5 -6t4.5 -4q4 -3 9.5 -2.5t7.5 -5.5q0 -2 -2.5 -1t-2.5 -1q-1 -2 -2 -2.5t-1 -2.5q6 -2 4 -4.5t-4 -4.5q4 -2 8 -3t7 -5
q-4 -2 -4 -1q2 -2 4.5 -2t5.5 -2q3 -8 8.5 -10t10.5 -8q0 -2 3.5 -5t-0.5 -4q-7 0 -10 1.5t-8 -0.5q-3 2 -1.5 3.5t1.5 2.5q3 0 5 -2t4 -2v4q-5 10 -15 10v-4q-3 -5 -5 -1.5t-5 1.5q-1 -3 -3 -7t2 -6q3 0 5 1q2 2 3 1t1 -2q-5 -4 -5 -8.5t-4 -7.5q-2 -3 1 -6t0 -6
q5 -2 5.5 -5.5t0.5 -8.5q-2 -1 -6 -1v-11q3 -2 1.5 -7t-1.5 -10q0 -2 -2 -3t-4 1q0 -3 -0.5 -5.5t0.5 -6.5q-1 -1 -4 0t-2 -4q-3 -5 -7 -5q-2 2 -1 2.5t-1 2.5t-3.5 1t-2.5 -3q1 -10 1 -22t3 -22l-3 -2q-2 2 -3 4t-4 5q-5 0 -5 5t-5 5v-4q0 -1 -1 -1q0 1 -1.5 1t-1.5 2h-3
q-2 -2 -1 -2t1 -1q5 0 7.5 -2.5t5.5 -3.5q0 -5 0.5 -9t5.5 -8q0 -3 -2 -3q-2 -5 1 -4.5t5 -1.5q-2 -2 -3 -2t-3 -2t0 -3.5t2 -4.5q-5 -8 0.5 -11.5t9.5 -10.5q2 -4 3 -7t6 -6q0 -3 -0.5 -6.5t-2.5 -5.5q-6 0 -2 -3.5t2 -5.5q2 1 3 -3t3 -6q0 -7 -4 -7q-5 -2 -5 -3t1.5 -2.5
t3 -3.5t0.5 -5q-2 -2 -3.5 -1t-2.5 1q0 -4 -2 -4h-2q-1 1 -2 1t-1 -1q-2 -8 5 -12q0 -5 4 -6t4 -5q3 -2 3.5 0t2.5 4l6 -4v-2h1q3 -2 3.5 1t2.5 3q5 0 4 -4t4 -2q2 0 1.5 2t1.5 2t4 -2t4 -2q5 3 6 -1.5t6 -2.5q2 5 5.5 3t6.5 3q2 -6 5.5 -3.5t6.5 -2.5q5 0 6.5 1.5t5.5 4.5
q0 -3 2 -3t4 -3q2 0 4.5 1t4.5 1q0 4 -2 4q-1 -5 -3.5 -2.5t-3.5 4.5v2h1q4 2 5 1l3 -3q3 0 3 2.5t3 2.5q2 2 3 0t1 0q1 1 3 1q1 0 1 -1q2 -1 1 -1t-1 -2q-2 0 -3 -1t-1 1l-2 -2q2 -2 2 -4t2 -2q2 -6 6.5 -3.5t7.5 -2.5q-3 -6 2.5 -5t5.5 -4h-2q-3 1 -10 1q-2 0 -1 1t-1 3
t-3 -0.5t-3 0.5h-4t-2 -2q-2 0 -1 0t1 -2q2 -1 3 0.5t3 1.5t2 -1t2 -2q-2 -4 -4 -3.5t-4 -1.5q-2 -1 -2 -6q-2 3 -2 5h-1h-3q0 -2 2 -4t0 -4q0 -3 2 -3q2 4 4.5 2t5.5 -3q0 -4 -1 -4q1 -1 1 -2t2 -1v-3q0 -4 -2 -4t-4 2l1 1l-1 1q-2 -2 -2 -4q0 -4 4 -4l-6 -6l4 -1
q2 -4 3 -5.5t1 -5.5q2 -5 4 -7.5t3 -7.5q0 -2 1.5 -4t3.5 -4v-1v-1q0 -5 3.5 -6t5.5 -1q3 -4 1.5 -5t-1.5 -3q3 -3 4 -3q2 2 1.5 3.5t2.5 2.5q0 -1 1 -1h1q3 1 5 -2.5t5 -2.5q0 2 1 3.5t-1 2.5q3 2 5 4t4 2q2 -3 5 -5.5t1 -6.5l-3 -3q0 -3 3 -6q-6 -4 -6 -10l3 -2
q2 0 3 -0.5t3 2.5q2 4 5.5 6t5.5 4q8 0 14 3.5t12 8.5q11 2 18.5 8t18.5 9q2 2 5.5 4.5t2.5 7.5q5 6 9.5 4.5t9.5 0.5q2 3 2 6q-2 0 -4 -0.5t-2 0.5q3 2 6 2.5t6 2.5q11 0 17 6h8.5t9.5 1q9 0 16 3t15 5q5 3 9 4t9 4q2 0 3 0.5t3 0.5q2 4 0 6.5t-2 4.5t1 2h1q2 0 1 1t-1 3
l-2 -3q-3 5 0.5 7t1.5 7q0 2 1 3t1 3q-3 2 -3 4t-5 4v-1h-1q-1 0 -1 -1v-2v-1q0 -1 -2 -1v2q-2 0 -4 3.5t-4 -1.5l-4 4q2 3 4 4t2 3q-5 2 -6 -2.5t-5 -2.5q-5 3 -1.5 4t1.5 4q-6 1 -6.5 3t1.5 4.5l4 5t1 4.5q-2 0 -3 -1t-3 1q-3 3 0 5t2 5q-3 0 -5 -2t-5 -2q-8 0 -11.5 -4.5
t-8.5 -9.5q-2 -2 -6 2q-1 4 5 4q0 2 0.5 4t-0.5 4q-4 0 -6 -4q-2 2 -3.5 3t-2.5 3q3 3 6.5 1t5.5 3q0 3 -2.5 5t-0.5 5l-2 -1v-1q-5 -5 -9.5 -8t-9.5 -8q-2 0 -3 -2.5t-3 0.5q5 8 12 12t12 12v4t1 4q4 1 7.5 2.5t3.5 6.5q-2 -2 -4.5 -3t-6.5 -3q-5 2 -1.5 3.5t3.5 4.5
q-2 0 -4 -2.5t-4 -1.5q-3 0 -3 4q2 0 2 1t1 1q-1 8 4 6t10 0q0 7 -6 13q-3 4 3 6q5 -2 4.5 1.5t1.5 4.5q1 6 -3 12q2 0 2.5 1t1.5 1q2 5 0.5 7t-1.5 5t2.5 2t2.5 2q2 3 3.5 5.5t-1.5 4.5q3 2 3 6t3 8q2 1 2 -0.5t2 0.5t0 4t-2 5q6 5 6.5 11t4.5 11q5 2 5.5 8t0.5 11
q5 5 4.5 9.5t-2.5 9.5q-1 1 -1 2q-1 1 -1 3q4 5 1.5 9.5t-1.5 9.5q-5 6 -3 12t0 12q-2 -2 -1 -3.5t1 -2.5q-2 -8 -3 -16t-3 -15q-3 -23 -16 -41t-31 -32q-9 -5 -15.5 -9.5t-15.5 -6.5q-9 0 -17.5 3t-13.5 11q0 3 -2.5 6t-0.5 8q2 -2 2.5 -3t1.5 -1q2 -6 7.5 -9.5t10.5 -5.5
q5 -4 11 -1.5t13 4.5q11 9 25 18.5t19 24.5q5 5 7.5 10t4.5 10q5 19 7 40.5t-11 37.5q-6 10 -17.5 8t-21.5 -2q-6 -5 -13 -7.5t-12 -10.5q-4 -2 -8.5 -2t-9.5 -1q0 -2 -3 -3t-1 -3q-3 -2 -5.5 -4t-3.5 -7q-2 -2 -6 -1t-6 1q0 -1 0.5 -2t0.5 -3q-2 -3 -4.5 0.5t-7.5 1.5v-2
q6 0 6 -4q2 -2 1.5 -2.5t-2 -0.5t-2.5 -0.5t0 -2.5q0 -4 -4 -4q-2 -5 2 -6.5t5 -5.5q6 -2 6 -4q-2 -4 -5 -1t-8 1q-2 0 -3 2t-3 2q-2 -1 -6 5q-6 1 -4 4.5t0 8.5h-2q-2 0 -2 -4q-2 -6 2 -8.5t6 -9.5q-3 -2 -3 -5t-3 -4q-2 1 -6 7q-1 0 -1.5 -2t-2.5 -4q-4 0 -4 3t-4 5
q-5 2 -6 6t-3 8q-9 8 -12.5 18t-5.5 21q-2 5 -2.5 10t-5.5 8q-2 3 -1 4.5t1 2.5q-4 5 1.5 8.5t1.5 8.5q-4 0 -3.5 2.5t-1.5 4.5t-1.5 4t-1.5 4q4 5 5 0.5t4 -6.5q0 6 -3.5 9t-5.5 5q-5 2 -9 5.5t-9 5.5v3q-8 5 -15.5 10t-18.5 3q-2 5 -1 6q-5 2 -4 6t-4 6q0 3 -2 5t-2 4
q3 5 2.5 9.5t-2.5 10.5q-2 2 -2.5 5t-3.5 3q0 -2 -1 -3t1 -3v-4q-6 6 -6 10v2q0 2 2 2t0 2h-1q-2 0 -2 1q1 2 2 2.5t1 2.5q-2 2 -3 1t-5 -1q-3 3 -3 7q-3 -1 -9 -1l-1 1v5h1q4 0 4 1.5t2 1.5q2 3 0.5 4.5t-3.5 1.5t-1.5 -1t-1.5 -1v2q-2 0 -4 -2.5t-4 2.5q-1 0 -2 1
q-3 0 -3 -1v-4.5t2 -4.5q0 -2 -2 -3.5t-2 -2.5q-2 1 -4 1q0 -3 -2 -5t0 -4h-2q-2 0 -2 -4h-1q-2 -3 0 -3t1 -2q1 -2 0 -3t-1 -2h-3q0 -3 -1 -4.5t0 -3.5q0 2 1 2q3 0 3 -2v-2q1 0 2.5 -1t4.5 -1q2 0 0 -1t0 -1v-1q-1 -2 -3.5 -2t-1.5 -2q-2 -5 -5 -8l-2 1zM99 415
q-3 -2 -5.5 -2.5t-6.5 -3.5q-2 -14 -8 -23q-2 -6 -1 -6h-5q-1 -8 -11 -18q-2 -6 -7 -12t-5 -12q-5 -5 -3.5 -10.5t-5.5 -10.5q0 2 -0.5 1t-2.5 -1q-3 -6 -3 -11q-4 -5 -1.5 -7.5t4.5 -6.5q2 0 2.5 1t2.5 1q3 -5 8 -6t9 -4q9 -2 16.5 -8t18.5 -4q4 2 8 10q2 5 2.5 11t-2.5 13
q-2 1 -1 3t3 4q0 3 2 6t2 8q0 2 1 3.5t-1 1.5q3 2 2.5 5t1.5 3q2 2 3 1t3 -1v6q2 5 2 10t2 10q1 5 -2 5.5t-5 2.5q0 3 3.5 5t3.5 7v4t-4 3q-5 6 -10.5 9.5t-3.5 12.5h-6zM431 364q-18 0 -31 11l-1 -1q5 -5 12 -9.5t15 -10.5q4 -4 4.5 -11t3.5 -12q0 -6 -6 -10
q-5 -8 -12.5 -9t-13.5 -3l-7.5 -3t-6.5 -3q-4 0 -7.5 -0.5t-5.5 3.5t1.5 7t6.5 6q3 5 4 9.5t4 9.5q2 2 2 1t1 -1q2 0 2 2q-6 8 -11 4q-8 -3 -8 -8.5v-10.5q-2 -5 -4 -8t-4 -8q-2 -6 3 -8t7 -7h2q5 2 9 4.5t6 4.5q3 2 6.5 2.5t5.5 1.5q3 0 7 1t7 -1q3 -3 -0.5 -5.5t-5.5 -6.5
v-1q11 -2 20 7t15 18q3 3 3.5 6t2.5 6q0 5 2.5 7.5t-0.5 5.5l-2 -1q-2 -6 -4.5 -13t-4.5 -13q-5 -3 -7.5 -7t-6.5 -4h-3v1q6 11 10 21.5t2 21.5q-1 5 -4.5 8t-7.5 6zM113 188q0 3 -2 3.5t-4 0.5q-3 -3 -7.5 -2.5t-6.5 -5.5q-3 0 -3 -4q4 0 8 -1t9 -3v2q-4 4 0 4
q3 0 3.5 -2.5t2.5 -5.5q2 -2 3 0t3 2q2 5 -1 7t-5 5zM457 395l-9.5 9.5t-10.5 6.5q-2 2 -7 1t-8 -3l2 -2h18q12 -7 15 -20q2 -5 2 -9.5t2 -9.5q5 8 1.5 14.5t-5.5 12.5zM92 221q-4 0 -6.5 3t-4.5 5t-4 1t-4 -1q2 -3 4 -5.5t4 -4.5q7 0 10 -5.5t8 -4.5v2q2 5 -1.5 6t-5.5 4z
M64 280q-6 -2 -9.5 0t-7.5 2q-2 -5 1 -6t7 -4q2 0 5 -0.5t6 2.5q0 4 -2 6zM426 380q0 7 -2 9q-3 0 -2.5 -2t-1.5 -4q0 -2 -0.5 -5.5t4.5 -5.5q5 5 2 8zM445 423q-5 2 -8.5 4.5t-8.5 4.5q-2 0 -4 1t-2 -3q3 0 6 -4q6 2 8.5 -1.5t8.5 -1.5zM167 589q-6 3 -6.5 -2t1.5 -8
q6 0 4.5 3.5t0.5 6.5zM336 331q-2 1 -2 4t-2 5l-4 -3v-4t2 -4t6 2zM291 386q0 2 -2 1.5t-4 1.5q-3 -2 -1.5 -4t3.5 -4l-2 -1q2 -2 1 -4t1 -1l2 6l1 1q0 1 0.5 1.5t0.5 2.5zM256 117q0 4 -2 4t-4 -4q2 -1 2.5 -2.5t3.5 -3.5q2 2 1 3.5t-1 2.5zM281 117q0 4 -3 4.5t-5 1.5
q-2 -1 -2 -2t2 -1q2 -2 8 -4v1zM469 129l-4.5 4.5t-5.5 -2.5l1 -1l1 -2q2 0 3.5 0.5t4.5 0.5zM504 106q-2 2 -1 3t-1 1l-8 -4q2 0 4.5 -1.5t5.5 1.5zM424 424q-5 0 -8 5q0 -2 -1 -3t-1 -3q2 -2 4 -1t4 1t3 0.5t-1 0.5zM133 114q0 2 -1.5 4t-2.5 4q-2 -2 -3 -2.5t1 -2.5
q2 -1 3 -2t3 -1zM271 114q0 2 -2 2.5t-4 0.5q-2 -1 0 -2.5t2 -3.5q4 -1 4 3zM357 383q-1 2 -3.5 2.5t-3.5 -2.5q1 -3 7 -3v3zM279 -20q0 5 -4 5q-2 0 -2 -3q0 -1 4 -3q2 -2 2 1zM406 349q0 2 -4 5q-2 -3 -0.5 -4.5l3.5 -3.5zM459 352q5 5 0 8l-2 -4v-1q0 -1 2 -3zM181 544
q0 2 -3 2q-2 -3 -0.5 -4.5l3.5 -3.5v6zM275 153q0 5 -3 3.5t-5 2.5v-2q3 0 3.5 -2t2.5 -4zM480 100q-1 2 -3.5 1t-3.5 -3q5 -2 7 2zM275 133q-2 2 -3 3.5t-2 -1.5l1 -4q2 0 4 2zM455 360q-2 2 -4 2q0 -2 -1 -2t-1 -2q2 0 2 -1t2 1v1q1 1 2 1zM496 131h-2q-4 -4 -2 -9
q0 1 1 2.5t1 3.5q1 1 2 1v2zM305 313q1 1 1 3q0 1 -1 1l-4 -2l1 -2q0 -1 1 -1t2 1zM485 117q3 -3 6 -3q1 0 1 3h-7zM289 399q0 2 -4 2v-4h2q2 0 2 1v1zM146 111q-4 6 -4 0q0 -1 4 -1v1zM316 323q-3 3 -3 2q-2 -2 -0.5 -2t1.5 -2zM471 114q-4 0 -4 -3h2h1v1q1 1 1 2zM252 106
q-2 0 -4 -2v-1q0 -1 2 -1q0 2 1 1.5t1 2.5zM215 94v5q-1 -1 -2 -1q0 -4 2 -4zM316 117q-2 2 -2.5 1t-0.5 -2l1 -2q2 0 2 3zM482 120q-5 0 -3 -3h1h1v1q1 1 1 2zM162 567q0 2 -3 4v-4h3zM265 100l-1 -2v-2h1q2 2 2 4h-2zM238 460q-1 1 -3 1l-1 -1v-1q0 -1 2 -1q0 2 2 2z
M287 128q0 3 -2 3q-2 -2 0 -3h2zM135 540q-2 2 -3 1t1 -3q2 0 2 1v1zM457 123l-1 2h-1l-2 -1v-1h3h1zM314 317v1l-1 1l-3 -2q2 -2 2.5 -1t1.5 1zM500 90q0 2 -0.5 1t-2.5 -1q1 0 1 -2q0 1 1 0.5t1 1.5zM439 211v-2q3 0 3 2h-3zM301 335v2q-3 0 0 -5v3zM408 122h-2h-1l1 -2h1
q1 1 1 2zM275 90q-2 2 -2 0l-1 -1q0 -1 1 -1v1q1 1 2 1zM111 485h2v-2h-2v2zM320 327l-2 -2q0 -1 1 -1t1 1v2zM124 301l-1 -1q4 0 4 1h-3zM184 536h-3l3 -2v2zM305 327l-3 2v-2h3zM492 82q-1 1 -1 2v1v-3h1zM116 491l1 -1q0 2 -1 3v-2zM158 536h1v-2h-1v2zM142 528l-1 2v-2
v-2zM465 122q0 1 -2 1v-1h2zM172 590q-2 0 -2 -1h2v1zM265 68v-1h2v1h-2zM146 544q1 0 1 1l-1 1v-2zM116 489q-1 -1 0 -2v2zM150 521h-2h2zM144 518l-1 -1l1 -1v2zM116 491l-1 2v-2h1zM496 92q1 -1 1 -2q-1 1 -1 2zM124 466l-1 1v-1h1zM244 57l-1 -1q1 0 1 1z" />
    <glyph glyph-name="registered" unicode="&#xae;" horiz-adv-x="708" 
d="M681 420l-13 -50q-1 -5 2.5 -11t3.5 -12q0 -5 -2 -11l-5 -23q-2 -11 -3 -19.5t-5 -16t-4 -9.5q-4 -14 -4 -26q0 -6 -1 -9q-7 -6 -10 -8q-10 -10 -9.5 -14.5t-0.5 -10t-6 -15t-11 -15t-17 -13.5q-2 -4 -3 -5q-3 -7 -11 -13q-9 -4 -12 -8l-37 -29l-27 -7q-23 -9 -32 -12
q-18 -5 -27 -7t-12 -2q-9 0 -14 1.5t-7 2.5q-3 -1 -4 -4q-4 -5 -9 -5h-25q-12 0 -25.5 2t-34.5 7q-19 -2 -26 0q-4 0 -11.5 4t-11.5 5l-24 5q-14 3 -31 9.5t-23 9t-17 12.5q-1 1 -4 5q-12 7 -19 9q-12 7 -18.5 12t-11.5 10q-10 8 -18 22l-5 12l-6 3q-4 5 -10 10
q-11 12 -16 18q-8 8 -10 9q0 21 -5.5 23t-8.5 11v8q0 16 0.5 27t-0.5 13q-5 9 -7 14q-8 17 -8 26q0 2 2.5 6.5t2.5 6.5v74q0 2 7 11q2 3 6 10q12 23 22 36q3 2 8 8q1 6 1.5 10.5t7.5 13.5l19 24q9 2 12 4q21 22 44 44q10 7 20 14.5t20 12.5q3 1 11.5 2t11.5 2q14 6 29 12
q5 2 15.5 5t21 3.5t20.5 0.5q12 0 15 1.5t12 2t16 1.5t10.5 2.5t10.5 1.5q11 1 12 1q0 -2 8 -9h59q5 0 13 -3l20 -10q12 -6 20 -11q3 -2 9.5 -5.5t19.5 -6.5t21 -6q5 -4 10 -9q8 -5 14 -11q8 -9 17 -22q4 -3 7 -5q6 -6 16 -15l10 -11q8 -7 11.5 -11.5t8 -13t5.5 -9.5
q8 -13 11 -21t7.5 -19.5t7.5 -19.5q0 -7 -2.5 -7t-2.5 -6l4 -6q5 -6 5 -8zM619 375q0 6 -6 19q-2 5 -6 13v38q-1 6 -6 8t-5 19q-5 3 -7.5 6t-13.5 15l-13 11l-4 9q-4 7 -11 14.5t-12 11.5t-11 6q-10 6 -20 11q-4 4 -6 5q-5 7 -8 8q-11 4 -21 8t-22 6.5t-22 4.5q-6 2 -9 4
q-5 4 -9 4q-16 -1 -21 0q-10 2 -23 4.5t-26 2.5h-19q-3 0 -5.5 -3.5t-4.5 -3.5q-3 0 -8 1t-9 1q-7 0 -12.5 -1t-24.5 -8q-10 -3 -20 -7l-21 -6l-30 -24l-11 -5q-4 -4 -6 -7.5t-4 -7.5q-15 -10 -21.5 -20.5t-6.5 -16.5v-8l-15 -15q-1 -2 -1 -9q0 -10 -2 -20q-4 -8 -8 -17
l-3 -19l-4 -17q-2 -8 -2 -9q0 -4 4 -12q2 -3 1 -6l-11 -41q0 -3 2.5 -6.5t5.5 -4.5q0 -5 -2 -5t-2 -4q4 -10 6 -14q5 -18 15 -35l10 -18l10 -11q8 -7 9 -7q5 -7 12 -12q2 -2 6 -4q6 -12 12 -17.5t13 -9.5q3 -4 7 -8q11 -2 17.5 -3.5t15.5 -5.5l23 -13q14 -7 18.5 -9t8.5 -2
h48q2 -3 4 -7h16q4 2 7.5 3t13 1.5t13.5 2t12 1.5q7 0 14 0.5t21 2.5l34 14q9 1 18 3q5 3 15.5 10t18.5 12t16 15t17 19l10 4l16 18q3 10 7 21q5 6 8 10q9 13 16 25q1 1 5.5 7.5t4.5 9.5v58q1 4 2.5 6.5t1.5 5.5zM536 207l-10 -9l-7 1l-34 3l-30 8l-5 3h-18l-7 2l-5 -2l-3 3
v6l-15 9l-9 18h-7l-14 22v9l-9 20l-10 12v7l-12 14l1 10l-16 14l-21 7h-7l-9 8h-10l-8 -9l1 -34l-1 -16l-3 -3l2 -23l1 -14l-2 -5l1 -33l8 -9l7 -5l20 -3l4 4l6 -1l7 -6l4 -12l-2 -6l-9 -2h-12l-13 3l-36 3l-10 1l-4 -1l-14 2l-26 -1l-10 -7l-10 4l-7 4l-6 7l-2 6l9 7h9
l6 -3l4 3l14 12l2 10l3 19l-3 5l8 4l-5 5l1 12l7 14l-4 46l-2 13l3 5v31l-3 5l10 15l-4 6l1 15l-4 8l7 10l-3 45l-12 13h-6l-12 -2l-5 -6l-6 -1l-10 5l-3 7l1 11l3 7l9 5h16l14 -5l4 2h16l57 -2l6 -2l10 3h36l28 2l14 -5l11 -5l23 -2l5 -4l7 -1l24 -17l4 -10l3 -8v-9l3 -13
l-1 -8l-4 -11v-11l-10 -14l-1 -10l-11 -13l-16 -4l-12 -9h-14l-15 -13l3 -3l12 -11l3 -7l6 -4l1 -6l8 1l9 -9l-2 -10l5 -11l13 -16l11 -14l9 -11l5 -8l13 -15l12 -9l9 -6l21 -3l4 1l12 -5l5 -4v-16zM396 430l-2 5l2 23l-4 12l-5 9l-6 5v3l-5 5h-4l-13 12l-15 9l-12 2l-2 3
l-15 -1l-23 -1l-4 -6l-4 -8l-7 -12l4 -7v-10l-3 -23l-4 -6v-10l2 -4l-3 -5v-5l6 -6l-5 -7l-1 -17l4 -3l16 3l14 -3l9 3l22 -4l8 4l16 2l7 7h6l21 18v13z" />
    <glyph glyph-name="macron" unicode="&#xaf;" horiz-adv-x="355" 
d="M136 602v12h190q7 -5 9.5 -11t2.5 -13t-1 -13t-1 -10q-39 -5 -75.5 -5.5t-72 -2t-72 -4.5t-75.5 -12q-8 9 -9 25t-1 34q0 9 3 12t7.5 3t9.5 -1.5t9 -1.5q7 -5 15.5 -4t18.5 2.5t20.5 0t21.5 -10.5z" />
    <glyph glyph-name="degree" unicode="&#xb0;" horiz-adv-x="263" 
d="M221 628q14 -42 13 -84.5t-22 -84.5q-6 -8 -18.5 -16.5t-26.5 -17.5q-20 -9 -36 -13t-37 13h-9q-17 9 -27.5 23t-17 31t-11 35.5t-7.5 35.5q0 16 9.5 27.5t9.5 28.5q7 33 29 52t42 27q21 0 41.5 -3t40.5 -20zM194 594q-7 4 -11 10t-7 11.5t-7 9t-11 3.5q-10 4 -20 7.5
t-20.5 3.5t-21 -5t-20.5 -18q-7 -8 -9 -16.5t-2 -18t1 -20.5t1 -24q0 -25 11.5 -47.5t25.5 -30.5q20 -8 39 -7t33 17q10 13 16 29.5t7.5 33.5t0 33.5t-5.5 28.5z" />
    <glyph glyph-name="plusminus" unicode="&#xb1;" horiz-adv-x="410" 
d="M400 270h-166v-170h48q17 0 28 -10q10 -11 10 -26t-9 -25q-10 -10 -29 -10h-156q-18 0 -28 11q-11 10 -11 24q0 16 10 26q9 10 29 10h52v170h-168v56h168v164h56v-164h166v-56z" />
    <glyph glyph-name="twosuperior" unicode="&#xb2;" horiz-adv-x="255" 
d="M224 611q11 -11 11 -31t-11 -31q-17 -23 -43.5 -37t-52.5 -28t-46.5 -34t-26.5 -55h15q47 0 85 -1.5t83 -12.5l-14 -16h-184q-12 35 -2.5 60t32.5 48q7 11 22.5 19.5t33 16t34.5 16t28 20t13.5 27.5t-8.5 39q0 11 -9.5 21t-21.5 10q-23 0 -44.5 -2t-32.5 -14
q-11 0 -13 -11.5t-3.5 -23t-6.5 -17t-22 6.5q-6 17 1 31t19.5 25.5t28.5 20t28 14.5q34 0 64.5 -13t42.5 -48z" />
    <glyph glyph-name="threesuperior" unicode="&#xb3;" horiz-adv-x="232" 
d="M201 670q0 -11 -7.5 -20t-17.5 -18l-20 -18t-16 -20q-4 0 -8 -2q-8 -4 -8 -14q12 0 25.5 -3t26.5 -8.5t23.5 -14t16.5 -19.5q0 -47 -20.5 -71.5t-55.5 -35.5q-23 -23 -53.5 -34t-53.5 -11l-15 14q35 12 67 25.5t55 36.5q23 0 34.5 18.5t11.5 41.5q0 12 -5 18.5
t-12.5 10.5t-15 7.5t-13.5 9.5q-11 -6 -22.5 -13t-21.5 -11.5t-18 -3.5t-14 13q0 11 9.5 23t22.5 24.5t25.5 27t18.5 31.5q-11 0 -25 -2t-28 -3.5t-28 -0.5t-26 6q0 12 9.5 16t21.5 15q11 -6 27.5 -7t35 -1t38 -0.5t36.5 -6.5z" />
    <glyph glyph-name="acute" unicode="&#xb4;" horiz-adv-x="220" 
d="M81 618l-10 11l93 76l4 4q14 -1 25.5 -14t17.5 -20q-17 -20 -34.5 -36.5t-35 -32t-33.5 -33.5t-29 -41q-11 4 -24.5 16.5t-29.5 27.5q-7 7 -8 10.5t1.5 5.5t6 2.5t4.5 2.5q8 0 12 4.5t8.5 9t11 7.5t20.5 0z" />
    <glyph glyph-name="mu" unicode="&#xb5;" horiz-adv-x="628" 
d="M196 455v-358q0 -17 7.5 -26t18 -13.5t22 -5t19.5 -0.5q42 0 72.5 15.5t53.5 40.5t41 57t35 66v179q-17 17 -30 22.5t-26 5.5t-26 -3t-30 -3v45q17 9 37 10t41 1t41 1.5t37 10.5q9 -17 10 -37.5t1 -41.5t1.5 -41t10.5 -37q-17 -51 -20 -112t-3 -112q0 -8 -3 -16.5t-5 -17
t-1 -17t9 -16.5q17 -8 33.5 -3t31 9t27 0.5t20.5 -28.5q0 -17 -13.5 -31t-30.5 -14q-9 0 -24.5 -3t-34.5 -3t-39 5.5t-37 22.5v67q-25 -25 -54 -45.5t-60.5 -33t-64.5 -16t-67 5.5q-2 1 -2.5 1.5t-2.5 1.5l-6 -203v-14q-6 -10 -14 -13t-16 -3t-15.5 2t-12.5 2
q-5 56 -1 108.5t8 104.5t4.5 104.5t-9.5 109.5q2 2 6 4l-6 175q0 9 3 17.5t5 16.5t1 16.5t-9 16.5q-17 9 -33.5 4t-31 -9t-27 -0.5t-20.5 28.5q17 25 37 32t41 7t41.5 -1.5t37.5 7.5z" />
    <glyph glyph-name="paragraph" unicode="&#xb6;" horiz-adv-x="521" 
d="M493 612h-52v-725h-70v725h-91v-725h-70v432q-86 0 -138 42q-57 46 -57 130q0 96 68 140q56 36 157 36h253v-55z" />
    <glyph glyph-name="periodcentered" unicode="&#xb7;" horiz-adv-x="188" 
d="M170 282q0 -29 -12.5 -46.5t-27.5 -32.5q-15 0 -26 -2.5t-20.5 -2.5t-17.5 5t-15 20q-15 15 -25 30t5 29q0 15 7 23.5t18 14t25 10t29 12.5q7 -8 14.5 -12.5t15 -10t15 -14t15.5 -23.5z" />
    <glyph glyph-name="cedilla" unicode="&#xb8;" horiz-adv-x="254" 
d="M236 -100q0 -38 -34 -63q-36 -25 -76 -25q-38 0 -71 17q-35 16 -35 37q0 9 9 15q8 5 14 5q21 -10 32 -15q33 -15 45 -15q24 0 36 6q19 10 19 34q0 14 -9 27q-10 11 -23 11q-9 0 -21 -5q-28 -12 -33 -12q-9 0 -17 11q-8 6 -8 12v5l6 82l49 -2l-4 -51l26 3q42 0 65 -15
q30 -21 30 -62z" />
    <glyph glyph-name="onesuperior" unicode="&#xb9;" horiz-adv-x="219" 
d="M176 642q-5 -33 -3.5 -61.5t4.5 -56t4 -56.5t-5 -62q-5 -6 -10.5 -8.5t-9.5 -4.5q-5 -2 -9 -2q0 11 -1.5 22.5t-12.5 22.5q-1 3 1 6q2 7 11 8q-9 1 -10.5 10t-1.5 19q0 22 2 42t3.5 38t0.5 34.5t-6 33.5q-17 0 -28.5 -7.5t-21.5 -18.5t-19 -23.5t-20 -23.5q-11 0 -20 9
t-9 20q-6 5 -4 8t7.5 6t12.5 6.5t13 9.5q11 0 17.5 4.5t10.5 10t7.5 10t8.5 4.5q11 5 30.5 18t36 20t24.5 1t-3 -39z" />
    <glyph glyph-name="ordmasculine" unicode="&#xba;" horiz-adv-x="263" 
d="M221 628q14 -42 13 -84.5t-22 -84.5q-6 -8 -18.5 -16.5t-26.5 -17.5q-20 -9 -36 -13t-37 13h-9q-17 9 -27.5 23t-17 31t-11 35.5t-7.5 35.5q0 16 9.5 27.5t9.5 28.5q7 33 29 52t42 27q21 0 41.5 -3t40.5 -20zM194 594q-7 4 -11 10t-7 11.5t-7 9t-11 3.5q-10 4 -20 7.5
t-20.5 3.5t-21 -5t-20.5 -18q-7 -8 -9 -16.5t-2 -18t1 -20.5t1 -24q0 -25 11.5 -47.5t25.5 -30.5q20 -8 39 -7t33 17q10 13 16 29.5t7.5 33.5t0 33.5t-5.5 28.5z" />
    <glyph glyph-name="guillemotright" unicode="&#xbb;" horiz-adv-x="381" 
d="M41 404q10 21 33 21q36 -25 39 -34l8 -21q12 -11 20 -25l7 -6q0 -3 10 -13q8 -13 18 -13q7 -11 37 -25q0 -14 10 -22v-2q-6 -7 -26 -14q-6 -30 -25 -26q-7 -4 -19 -28q-16 -23 -38 -41q-4 -20 -18 -20l-25 -22q-23 -3 -40 14l9 25l14 20q26 34 33 34q-11 14 6 9v3l4 3
l2 2q8 26 18 29q1 14 5 17l9 -1h9l2 8l-20 4q-4 17 -10 17q-22 8 -34 45q-9 8 -25 31zM186 404q9 21 32 21q37 -25 40 -34l7 -21q12 -11 20 -25l7 -6q0 -3 11 -13q7 -13 18 -13q6 -11 37 -25q0 -14 9 -22v-2q-6 -7 -25 -14q-7 -30 -26 -26q-7 -4 -19 -28q-16 -23 -38 -41
q-3 -20 -18 -20l-25 -22q-23 -3 -40 14l10 25l13 20q26 34 33 34q-10 14 7 9v3l5 5q9 26 18 29q1 14 5 17l9 -1h10l2 8l-21 4q-4 17 -9 17q-22 8 -34 45q-10 8 -26 31z" />
    <glyph glyph-name="onequarter" unicode="&#xbc;" horiz-adv-x="450" 
d="M194 273q-5 -17 -12.5 -31t-14.5 -27.5t-12 -28t-5 -31.5q23 -11 44.5 -12.5t44.5 -1.5q5 5 6 15t2.5 21.5t5.5 21.5t15 15l14 -14q6 -11 5 -19.5t-4 -15.5t-4.5 -13t3.5 -11q11 5 20 6t15.5 1t12.5 1t11 6q6 -5 14 -6t14.5 -2.5t11.5 -5.5t5 -15q-6 -17 -18.5 -19t-28 1
l-31 6t-26.5 -2q0 -17 2 -31t2 -27t-3.5 -24t-14.5 -22q-11 0 -20 7q-4 4 -9 8v89h-133q-11 0 -18.5 9t3.5 20q4 4 6 9q4 10 -6 21h-15q6 11 13.5 12.5t14.5 1.5t12 2t5 13q-11 11 -8 17.5t9.5 12t12.5 12t0 17.5q6 5 14 12t16 11.5t16 3t13 -12.5zM223 362q11 -6 24.5 -4.5
t27.5 4.5t27.5 4.5t24.5 -4.5q11 6 20 6.5t17 0.5t17 1t20 7q6 -6 13.5 -7t14 -2.5t11.5 -5.5t5 -15t-2 -14.5t-13 -14.5l-148 14h-235q-6 -5 -13.5 -5.5t-14 2t-11.5 7.5t-5 11q0 11 10.5 20.5t33.5 9.5q22 -11 44 -13t44 -0.5l44 3t44 -4.5zM282 642q-5 -33 -3.5 -61.5
t4.5 -56t4 -56.5t-5 -62q-5 -6 -10.5 -8.5t-9.5 -4.5q-5 -2 -9 -2q0 11 -1.5 22.5t-12.5 22.5q-1 3 1 6q2 7 11 8q-9 1 -10.5 10t-1.5 19q0 22 2 42t3.5 38t0.5 34.5t-6 33.5q-17 0 -28.5 -7.5t-21.5 -18.5t-19 -23.5t-20 -23.5q-11 0 -20 9t-9 20q-6 5 -4 8t7.5 6t12.5 6.5
t13 9.5q11 0 17.5 4.5t10.5 10t7.5 10t8.5 4.5q11 5 30.5 18t36 20t24.5 1t-3 -39zM62 155q3 -4 5 -7q3 -7 -5 -7v14z" />
    <glyph glyph-name="onehalf" unicode="&#xbd;" horiz-adv-x="457" 
d="M328 238q11 -11 11 -31t-11 -31q-17 -23 -43.5 -37t-52.5 -28t-46.5 -34t-26.5 -55h15q47 0 85 -1.5t83 -12.5l-14 -16h-184q-12 35 -2.5 60t32.5 48q7 11 22.5 19.5t33 16t34.5 16t28 20t13.5 27.5t-8.5 39q0 11 -9.5 21t-21.5 10q-23 0 -44.5 -2t-32.5 -14
q-11 0 -13 -11.5t-3.5 -23t-6.5 -17t-22 6.5q-6 17 1 31t19.5 25.5t28.5 20t28 14.5q34 0 64.5 -13t42.5 -48zM312 669q-11 -70 -13 -137t-2 -124q-11 -12 -15 -14t-16 -2q-6 17 -6.5 34.5t1 34.5t3.5 34.5t2 34.5v108q-17 -6 -29 -14.5t-22.5 -18.5t-20 -21.5t-20.5 -22.5
q-11 0 -20.5 2t-9.5 13q0 10 7 21l8 10q6 0 11.5 5t11 10.5t11 10.5t11.5 5q13 11 32 23t30 23q12 11 23.5 3.5t22.5 -18.5zM451 362v-33q-6 -5 -9.5 -6t-6.5 0.5t-6 3.5t-8 2h-400q0 6 -2.5 12t-4 10.5t-0.5 7.5t7 3q52 0 106 -2.5t108.5 -4t109 -0.5t106.5 7z" />
    <glyph glyph-name="threequarters" unicode="&#xbe;" horiz-adv-x="452" 
d="M172 208q-12 -23 -21.5 -38.5t-9.5 -38.5h107v31q0 6 -2 11.5t-2 11t3.5 11.5t15.5 12q9 0 13 -8q2 -4 2 -8q0 -6 -2 -14t-3.5 -16.5t-1 -16.5t6.5 -14h92q0 -23 -7.5 -28.5t-19 -4t-25 5t-24.5 -2.5h-16q-6 -12 -4.5 -23.5t4.5 -24.5t4.5 -27.5t-4.5 -31.5
q-11 0 -22.5 2t-23.5 13q6 6 7 17t1 23.5t1 26t7 25.5h-153v30q6 12 14 23.5t15 26t12 32t5 40.5q0 6 2.5 13.5t7 15t10 12.5t11.5 5q11 -12 12.5 -23.5t-1.5 -22.5t-7 -22.5t-4 -22.5zM309 680q0 -11 -7.5 -20t-17.5 -18l-20 -18t-16 -20q-4 0 -8 -2q-8 -4 -8 -14
q12 0 25.5 -3t26.5 -8.5t23.5 -14t16.5 -19.5q0 -47 -20.5 -71.5t-55.5 -35.5q-23 -23 -53.5 -34t-53.5 -11l-15 14q35 12 67 25.5t55 36.5q23 0 34.5 18.5t11.5 41.5q0 12 -5 18.5t-12.5 10.5t-15 7.5t-13.5 9.5q-11 -6 -22.5 -13t-21.5 -11.5t-18 -3.5t-14 13q0 11 9.5 23
t22.5 24.5t25.5 27t18.5 31.5q-11 0 -25 -2t-28 -3.5t-28 -0.5t-26 6q0 12 9.5 16t21.5 15q11 -6 27.5 -7t35 -1t38 -0.5t36.5 -6.5zM172 360l259 15q10 -11 13 -21q2 -5 2 -9q-12 -12 -25.5 -13.5t-28 0t-28 2.5t-25.5 -5h-320q-22 24 0 46q46 -11 82 -13t71 -2z" />
    <glyph glyph-name="questiondown" unicode="&#xbf;" horiz-adv-x="399" 
d="M33 135q-8 14 -8.5 31t2.5 34.5t9 34.5t13 31q4 14 17 25t28.5 20t31 18.5t26.5 21.5t14 28.5t-7 39.5q14 15 28 24.5t28 -4.5q7 -14 5.5 -31t-8.5 -34.5t-16 -35t-15 -31.5q-14 -8 -31 -13t-33 -12t-29 -19t-19 -33q-7 -22 -4 -40t12 -33.5t22.5 -29.5t27.5 -28
q29 -14 57 -16t57 -1q28 14 44 29t30 29q7 14 2 19t-14 8t-17.5 8.5t-8.5 19.5q7 7 11 17t9.5 19t13 15.5t21.5 6.5q7 -7 17 -8t19 -3t15 -7t6 -19q0 -21 -5.5 -39t-14 -34t-18 -30.5t-16.5 -29.5q-35 -15 -78.5 -24.5t-86 -6.5t-79 22t-58.5 61zM119 551q0 14 2 30.5
t16 44.5q14 14 39 17t54 4q7 -14 14.5 -25.5t13 -22t9 -21.5t3.5 -25q-14 -14 -36.5 -24t-45.5 -12.5t-42.5 5.5t-26.5 29z" />
    <glyph glyph-name="Agrave" unicode="&#xc0;" horiz-adv-x="568" 
d="M328 591q32 -140 62.5 -278t61.5 -278q7 -7 21 -9t28.5 -3.5t25 -4.5t10.5 -13q0 -5 -3 -11q-26 0 -56 -6.5t-58 -6.5q-21 0 -39 7t-32 27q0 7 10 6.5t22.5 0t22.5 6.5t10 25q0 9 -3 23q-8 8 -9.5 19t-3.5 22.5t-7.5 22.5t-20.5 19q-31 0 -63 4.5t-67 4.5q-18 0 -37 -2
t-39 -7q-8 -8 -12.5 -22.5t-8.5 -32t-8.5 -36t-11.5 -33.5q7 -8 17.5 -9.5t20.5 -3.5t16.5 -7.5t6.5 -20.5h-164q-3 0 -5 1q-4 2 -4 5q0 6 11 18t24 12q8 0 17 -2t17 -2q10 0 16 6t6 24q8 77 22.5 147.5t31.5 138t35.5 134t34.5 136.5q22 22 45 22q18 0 32.5 -12t24.5 -31z
M308 488q-8 8 -12.5 19t-8.5 22.5t-8.5 22.5t-11.5 19q-16 -47 -28.5 -93t-12.5 -93q-16 -46 -31.5 -92t-30.5 -93h82q11 -5 20.5 -7t20.5 -2q20 0 41 4.5t42 4.5q0 16 -2.5 31t-18.5 31q-8 15 -9.5 30.5t-1.5 31t-1.5 31t-8.5 30.5q-16 31 -18 59.5t-2 43.5zM253 854l11 10
l76 -93l4 -4q-1 -14 -14 -25.5t-20 -17.5q-20 16 -36.5 34t-32 35.5t-33.5 33.5t-41 29q4 11 16.5 24.5t27.5 29.5q7 7 10.5 7.5t5.5 -1.5t2.5 -5.5t2.5 -4.5q0 -8 4.5 -12t9 -8.5t7.5 -11t0 -20.5z" />
    <glyph glyph-name="Aacute" unicode="&#xc1;" horiz-adv-x="585" 
d="M328 591q32 -140 62.5 -278t61.5 -278q7 -7 21 -9t28.5 -3.5t25 -4.5t10.5 -13q0 -5 -3 -11q-26 0 -56 -6.5t-58 -6.5q-21 0 -39 7t-32 27q0 7 10 6.5t22.5 0t22.5 6.5t10 25q0 9 -3 23q-8 8 -9.5 19t-3.5 22.5t-7.5 22.5t-20.5 19q-31 0 -63 4.5t-67 4.5q-18 0 -37 -2
t-39 -7q-8 -8 -12.5 -22.5t-8.5 -32t-8.5 -36t-11.5 -33.5q7 -8 17.5 -9.5t20.5 -3.5t16.5 -7.5t6.5 -20.5h-164q-3 0 -5 1q-4 2 -4 5q0 6 11 18t24 12q8 0 17 -2t17 -2q10 0 16 6t6 24q8 77 22.5 147.5t31.5 138t35.5 134t34.5 136.5q22 22 45 22q18 0 32.5 -12t24.5 -31z
M308 488q-8 8 -12.5 19t-8.5 22.5t-8.5 22.5t-11.5 19q-16 -47 -28.5 -93t-12.5 -93q-16 -46 -31.5 -92t-30.5 -93h82q11 -5 20.5 -7t20.5 -2q20 0 41 4.5t42 4.5q0 16 -2.5 31t-18.5 31q-8 15 -9.5 30.5t-1.5 31t-1.5 31t-8.5 30.5q-16 31 -18 59.5t-2 43.5zM225 825
l-10 11l93 76l4 4q14 -1 25.5 -14t17.5 -20q-17 -20 -34.5 -36.5t-35 -32t-33.5 -33.5t-29 -41q-11 4 -24.5 16.5t-29.5 27.5q-7 7 -8 10.5t1.5 5.5t6 2.5t4.5 2.5q8 0 12 4.5t8.5 9t11 7.5t20.5 0z" />
    <glyph glyph-name="Acircumflex" unicode="&#xc2;" horiz-adv-x="589" 
d="M328 591q32 -140 62.5 -278t61.5 -278q7 -7 21 -9t28.5 -3.5t25 -4.5t10.5 -13q0 -5 -3 -11q-26 0 -56 -6.5t-58 -6.5q-21 0 -39 7t-32 27q0 7 10 6.5t22.5 0t22.5 6.5t10 25q0 9 -3 23q-8 8 -9.5 19t-3.5 22.5t-7.5 22.5t-20.5 19q-31 0 -63 4.5t-67 4.5q-18 0 -37 -2
t-39 -7q-8 -8 -12.5 -22.5t-8.5 -32t-8.5 -36t-11.5 -33.5q7 -8 17.5 -9.5t20.5 -3.5t16.5 -7.5t6.5 -20.5h-164q-3 0 -5 1q-4 2 -4 5q0 6 11 18t24 12q8 0 17 -2t17 -2q10 0 16 6t6 24q8 77 22.5 147.5t31.5 138t35.5 134t34.5 136.5q22 22 45 22q18 0 32.5 -12t24.5 -31z
M308 488q-8 8 -12.5 19t-8.5 22.5t-8.5 22.5t-11.5 19q-16 -47 -28.5 -93t-12.5 -93q-16 -46 -31.5 -92t-30.5 -93h82q11 -5 20.5 -7t20.5 -2q20 0 41 4.5t42 4.5q0 16 -2.5 31t-18.5 31q-8 15 -9.5 30.5t-1.5 31t-1.5 31t-8.5 30.5q-16 31 -18 59.5t-2 43.5zM385 777
q-25 17 -33 27q-39 13 -48 36q0 6 -18 10l-4 22l-9 -2v-10l2 -10q-4 -4 -18 -5q-4 -10 -31 -19l-2 -2l9 -12v-10q-10 0 -10 4q-15 0 -51 -28h-12l-13 -2q-13 20 -14 35l-1 12q0 15 22 19q19 23 43 40q26 13 26 24q0 16 31 23q8 21 15 27h2q9 -10 24 -10q26 -22 26 -39
q0 -11 17 -11q7 -19 11 -19l14 1q7 -17 31 -17l10 -21q9 -3 9 -21q1 -32 -16 -38z" />
    <glyph glyph-name="Atilde" unicode="&#xc3;" horiz-adv-x="570" 
d="M328 591q32 -140 62.5 -278t61.5 -278q7 -7 21 -9t28.5 -3.5t25 -4.5t10.5 -13q0 -5 -3 -11q-26 0 -56 -6.5t-58 -6.5q-21 0 -39 7t-32 27q0 7 10 6.5t22.5 0t22.5 6.5t10 25q0 9 -3 23q-8 8 -9.5 19t-3.5 22.5t-7.5 22.5t-20.5 19q-31 0 -63 4.5t-67 4.5q-18 0 -37 -2
t-39 -7q-8 -8 -12.5 -22.5t-8.5 -32t-8.5 -36t-11.5 -33.5q7 -8 17.5 -9.5t20.5 -3.5t16.5 -7.5t6.5 -20.5h-164q-3 0 -5 1q-4 2 -4 5q0 6 11 18t24 12q8 0 17 -2t17 -2q10 0 16 6t6 24q8 77 22.5 147.5t31.5 138t35.5 134t34.5 136.5q22 22 45 22q18 0 32.5 -12t24.5 -31z
M308 488q-8 8 -12.5 19t-8.5 22.5t-8.5 22.5t-11.5 19q-16 -47 -28.5 -93t-12.5 -93q-16 -46 -31.5 -92t-30.5 -93h82q11 -5 20.5 -7t20.5 -2q20 0 41 4.5t42 4.5q0 16 -2.5 31t-18.5 31q-8 15 -9.5 30.5t-1.5 31t-1.5 31t-8.5 30.5q-16 31 -18 59.5t-2 43.5zM468 872
q4 -7 -3 -22q-2 -6 -9.5 -11.5t-9.5 -7.5l-19 -23q-11 -1 -13 -3q-1 -10 -3 -13q-9 -5 -13 -8l-22 -8q-6 -5 -12.5 -9t-13.5 -7t-16 -3q-3 0 -6 1t-7 4h-19l-32 9q-10 4 -16 7.5t-13 8.5l-24 18q-1 1 -2.5 8t-2.5 8q-11 -2 -17 3.5t-10 8.5t-14.5 7t-15.5 3q-4 0 -9.5 -4
t-10 -6.5t-11.5 -5.5q-10 -10 -20 -19q-9 -2 -13 0q-4 3 -4 9q1 6 1 9q0 5 8 17q2 3 5.5 4.5t8.5 3.5q2 6 5 12l22 16q19 4 25 8t12 9q3 1 12 3t14 2q3 0 12 -2t26 -12q5 -8 8 -12l19 -12l29 -18q14 -11 29 -21q10 -4 16 -5t17 -1q6 0 13 0.5t18 7.5q5 3 9 7l10 10l18 15
l14 16q13 9 21 6q6 -1 9 -8z" />
    <glyph glyph-name="Adieresis" unicode="&#xc4;" horiz-adv-x="577" 
d="M328 591q32 -140 62.5 -278t61.5 -278q7 -7 21 -9t28.5 -3.5t25 -4.5t10.5 -13q0 -5 -3 -11q-26 0 -56 -6.5t-58 -6.5q-21 0 -39 7t-32 27q0 7 10 6.5t22.5 0t22.5 6.5t10 25q0 9 -3 23q-8 8 -9.5 19t-3.5 22.5t-7.5 22.5t-20.5 19q-31 0 -63 4.5t-67 4.5q-18 0 -37 -2
t-39 -7q-8 -8 -12.5 -22.5t-8.5 -32t-8.5 -36t-11.5 -33.5q7 -8 17.5 -9.5t20.5 -3.5t16.5 -7.5t6.5 -20.5h-164q-3 0 -5 1q-4 2 -4 5q0 6 11 18t24 12q8 0 17 -2t17 -2q10 0 16 6t6 24q8 77 22.5 147.5t31.5 138t35.5 134t34.5 136.5q22 22 45 22q18 0 32.5 -12t24.5 -31z
M308 488q-8 8 -12.5 19t-8.5 22.5t-8.5 22.5t-11.5 19q-16 -47 -28.5 -93t-12.5 -93q-16 -46 -31.5 -92t-30.5 -93h82q11 -5 20.5 -7t20.5 -2q20 0 41 4.5t42 4.5q0 16 -2.5 31t-18.5 31q-8 15 -9.5 30.5t-1.5 31t-1.5 31t-8.5 30.5q-16 31 -18 59.5t-2 43.5zM389 771
q-11 -12 -23 -12t-33 12q-11 13 -13 32t-1 32q11 11 14 21.5t14 10.5q21 11 38.5 1t17.5 -34q10 -6 11.5 -14.5t-2.5 -17.5t-11 -17t-12 -14zM163 757q-20 0 -32.5 10t-22.5 22q0 12 -2 21t-2 16.5t3.5 13.5t14.5 12q11 12 21 19.5t21 -4.5q10 0 16 -5.5t10 -14.5t7.5 -20
t8.5 -23q-6 -6 -9.5 -12t-7.5 -12t-10 -11.5t-16 -11.5z" />
    <glyph glyph-name="Aring" unicode="&#xc5;" horiz-adv-x="598" 
d="M389 396q15 0 17.5 -6.5t0.5 -16t-4 -20t6 -17.5q0 -22 3.5 -41t9.5 -37.5t13 -38t15 -41.5q-6 0 -10 -2q-10 -4 -10 -17q22 -8 29 -25t11 -36t10.5 -36t29.5 -24h60q4 -6 7 -10q2 -4 1.5 -7t-8.5 -3l-20 -19h-200q0 14 2.5 26.5t17.5 12.5q7 -8 14.5 -8.5t15 1t15 4.5
t15.5 3q0 30 -10.5 59.5t-10.5 61.5h-218q0 -16 -6 -31l-12 -30t-8 -30t6 -30h60l12 -12t6 -8t2.5 -8t0.5 -11q-15 -8 -30 -8.5t-30 1t-30 4.5t-30 3t-33 -6t-35 -10t-31.5 -2t-21.5 18q0 14 2.5 29t17.5 29q7 -7 18 -11t22 -5.5t21.5 -2t17.5 -0.5l22 121q7 7 13.5 17.5
t10 21.5t3 21.5t-8.5 18.5q8 15 12.5 29.5t8.5 27.5t8 23.5t12 17.5q0 31 2.5 58t18.5 42q7 23 12 51.5t12.5 54.5t20 46.5t35.5 28.5q36 -8 53 -32t24.5 -56t10 -67.5t9.5 -65.5zM329 876q8 0 12 3t6 7q3 4 3 10q15 -15 39.5 -32t40.5 -47q0 -30 -15.5 -70t-44.5 -71
q-31 -15 -70 -15t-69 15t-47.5 33t-33.5 47q8 15 16 33.5t17.5 37t21 36.5t26.5 33q8 7 18.5 5t22 -5.5t21.5 -5.5t17 6zM350 835q-15 0 -26.5 6t-20.5 9.5t-16.5 1.5t-15.5 -17q-15 0 -23 -9.5t-12 -22t-4.5 -26t-0.5 -21.5q16 -14 30.5 -29t30.5 -31q14 0 28 10.5t30 10.5
q15 15 20 26.5t5 23t-2.5 23.5t-2.5 27zM310 537q-22 8 -27.5 -4t-5.5 -33t1 -44.5t-7 -39.5q-15 -23 -20.5 -48.5t-9 -53.5t-9 -57t-20.5 -59h158q15 15 10.5 30t-14 30t-17 29.5t0.5 29.5q0 7 -3 14t-5 14.5t-1 15.5t9 16q-8 15 -12.5 33t-8.5 39t-8 43t-11 45z" />
    <glyph glyph-name="AE" unicode="&#xc6;" horiz-adv-x="692" 
d="M601 648q15 -8 17.5 -19.5t0.5 -25t-4 -29t6 -31.5q0 -8 6 -22t10 -29.5t2 -30t-18 -22.5q-8 -8 -12 -8.5t-8 3.5t-9 11t-13 15q-8 16 -6 35t4 38.5t0 38.5t-18 35q-32 0 -56.5 0.5t-46 2t-42 5.5t-44.5 12q-8 -8 -8.5 -15.5t1 -15.5t4.5 -16t3 -15v-189q16 -16 31.5 -21
t29 -5t25 3t19.5 3q8 15 6.5 30.5t-3.5 31.5t0 31.5t18 31.5q0 -8 3.5 -9.5t9.5 -1.5t13.5 -1t15.5 -9q0 -63 -10.5 -126t-10.5 -126q0 -16 -2.5 -18.5t-18.5 -2.5q-16 10 -19.5 26.5t-2.5 34.5t3.5 34t-1.5 27t-18.5 13t-45.5 -8q-1 4 -3 7q-2 2 -5.5 1.5t-11.5 -8.5
q-8 -9 -9 -20t1 -23t5 -23t3 -19q7 -16 5.5 -35t-3.5 -38.5t0 -38.5t18 -35q-5 -21 -0.5 -30.5t15 -13t25.5 -3t30.5 0.5t30.5 -2.5t25 -13.5q15 8 23.5 19t12.5 22.5t4.5 23t0.5 19.5q0 15 0.5 34t4.5 38.5t12.5 38.5t24.5 35h21q8 -32 6 -63t-6 -62.5t-6 -63t6 -62.5h-356
v21q8 16 19 18t23 0t23 -3.5t19 6.5q-8 15 -9 30.5t-1 31.5t-1.5 31.5t-8.5 31.5h-148q0 -32 -10.5 -63t-10.5 -62q0 -8 13 -4t26.5 6t22.5 -5.5t1 -38.5l-21 -21h-189q-8 8 -8.5 16t1 15.5t4.5 15.5t3 16q32 31 64 0h20q16 15 15.5 30.5t-4.5 31.5t-4.5 31.5t15.5 31.5
q0 32 2.5 60.5t17.5 44.5q8 39 19 75.5t20.5 71.5t16.5 71.5t7 75.5q16 7 22 21.5t9.5 30t9.5 30t22 22.5q47 -8 87.5 -9.5t78 -1.5t74 -1t75.5 -9zM327 418q-15 32 -17.5 63t-2.5 62q-16 -39 -28 -81t-22 -83t-18 -79.5t-16 -70.5q8 0 22.5 -3t30 -5t29.5 -1t22 9
q-30 94 0 189z" />
    <glyph glyph-name="Ccedilla" unicode="&#xc7;" horiz-adv-x="833" 
d="M525 588l20 19q-8 8 -5.5 12.5t8 8t11.5 8t6 11.5q16 0 28.5 -2.5t12.5 -16.5q-8 -23 -12 -49t-5.5 -52.5t-2 -52.5t-0.5 -48q0 -15 -3.5 -20.5t-9.5 -5.5t-13.5 2.5t-14.5 2.5q-15 15 -17 30t-0.5 28t3 24t-5.5 19q-15 30 -43 58.5t-58 42.5q-23 8 -42 5.5t-36.5 -12
t-33 -24t-30.5 -30.5q-7 -23 -20.5 -42.5t-26.5 -38t-23 -38.5t-10 -42q7 -15 5.5 -30t-3.5 -28t0 -24.5t17 -18.5q0 -8 -3 -12t-6.5 -8t-6.5 -8.5t-3 -11.5q7 -15 11.5 -30t10.5 -28.5t14.5 -24.5t24.5 -18q0 -15 6.5 -27t16 -21.5t19.5 -17.5t18 -16q15 -15 33.5 -19.5
t37 -2.5t37 8.5t33.5 13.5q31 31 56 64t25 78q7 7 11.5 14.5t8.5 13.5t8.5 9.5t12.5 3.5q15 0 27.5 -2.5t12.5 -18.5q0 -23 -6.5 -42.5t-16 -38.5t-20 -38.5t-18.5 -42.5q-90 -90 -242 -60q-30 7 -53.5 28.5t-42.5 50t-34.5 61t-30.5 62.5q-8 38 -11.5 79t0.5 83t16 83
t35 79q0 7 7 18t18 24.5t25.5 28.5t29.5 30q23 0 42.5 6t38.5 11.5t38.5 7.5t42.5 -6q31 -14 48.5 -29.5t32.5 -29.5zM533 -116q0 -38 -34 -63q-36 -25 -76 -25q-38 0 -71 17q-35 16 -35 37q0 9 9 15q8 5 14 5q21 -10 32 -15q33 -15 45 -15q24 0 36 6q19 10 19 34
q0 14 -9 27q-10 11 -23 11q-9 0 -21 -5q-28 -12 -33 -12q-9 0 -17 11q-8 6 -8 12v5l6 82l49 -2l-4 -51l26 3q42 0 65 -15q30 -21 30 -62z" />
    <glyph glyph-name="Egrave" unicode="&#xc8;" horiz-adv-x="594" 
d="M540 596q0 -23 6 -45t9.5 -43t1.5 -40t-17 -34q-8 0 -12 0.5t-8 2t-8.5 5.5t-12.5 12v122h-302l-20 -161q7 -8 8.5 -16t1.5 -17.5t1 -21.5t9 -27q30 -15 73 -12.5t88 33.5q0 7 -3 18t-4.5 22.5t-1 22t8.5 17.5q15 -7 23.5 -21t12.5 -29t4.5 -29t0.5 -22q-8 -15 -6.5 -33
t3.5 -37t-0.5 -37.5t-17.5 -33.5q-15 7 -20 18.5t-5 24.5t2.5 28t2.5 30h-20q-15 0 -33.5 3t-37 4.5t-37 0.5t-33.5 -8v-263h283q15 23 20 45.5t7 43t3.5 39.5t9.5 34q0 8 3 11.5t7 5.5t10 3q15 -23 17 -49t-1.5 -52t-9.5 -52t-6 -48q-8 -15 -21.5 -17.5t-28.5 -0.5t-29 3.5
t-22 -6.5h-404q0 8 -3 9t-4.5 1t-1 1.5t8.5 9.5q0 15 13.5 17t32 0t39.5 -3.5t36 5.5q8 7 6 15t-5.5 18t-6 21.5t5.5 26.5v465q-15 7 -33 5.5t-37 -3.5t-37.5 0.5t-33.5 17.5q31 15 60.5 17.5t60.5 2.5h363q8 0 12.5 -0.5t8.5 -2t8 -6t12 -11.5zM281 838l11 10l76 -93l4 -4
q-1 -14 -14 -25.5t-20 -17.5q-20 16 -36.5 34t-32 35.5t-33.5 33.5t-41 29q4 11 16.5 24.5t27.5 29.5q7 7 10.5 7.5t5.5 -1.5t2.5 -5.5t2.5 -4.5q0 -8 4.5 -12t9 -8.5t7.5 -11t0 -20.5z" />
    <glyph glyph-name="Eacute" unicode="&#xc9;" horiz-adv-x="595" 
d="M540 596q0 -23 6 -45t9.5 -43t1.5 -40t-17 -34q-8 0 -12 0.5t-8 2t-8.5 5.5t-12.5 12v122h-302l-20 -161q7 -8 8.5 -16t1.5 -17.5t1 -21.5t9 -27q30 -15 73 -12.5t88 33.5q0 7 -3 18t-4.5 22.5t-1 22t8.5 17.5q15 -7 23.5 -21t12.5 -29t4.5 -29t0.5 -22q-8 -15 -6.5 -33
t3.5 -37t-0.5 -37.5t-17.5 -33.5q-15 7 -20 18.5t-5 24.5t2.5 28t2.5 30h-20q-15 0 -33.5 3t-37 4.5t-37 0.5t-33.5 -8v-263h283q15 23 20 45.5t7 43t3.5 39.5t9.5 34q0 8 3 11.5t7 5.5t10 3q15 -23 17 -49t-1.5 -52t-9.5 -52t-6 -48q-8 -15 -21.5 -17.5t-28.5 -0.5t-29 3.5
t-22 -6.5h-404q0 8 -3 9t-4.5 1t-1 1.5t8.5 9.5q0 15 13.5 17t32 0t39.5 -3.5t36 5.5q8 7 6 15t-5.5 18t-6 21.5t5.5 26.5v465q-15 7 -33 5.5t-37 -3.5t-37.5 0.5t-33.5 17.5q31 15 60.5 17.5t60.5 2.5h363q8 0 12.5 -0.5t8.5 -2t8 -6t12 -11.5zM273 809l-10 11l93 76l4 4
q14 -1 25.5 -14t17.5 -20q-17 -20 -34.5 -36.5t-35 -32t-33.5 -33.5t-29 -41q-11 4 -24.5 16.5t-29.5 27.5q-7 7 -8 10.5t1.5 5.5t6 2.5t4.5 2.5q8 0 12 4.5t8.5 9t11 7.5t20.5 0z" />
    <glyph glyph-name="Ecircumflex" unicode="&#xca;" horiz-adv-x="605" 
d="M540 596q0 -23 6 -45t9.5 -43t1.5 -40t-17 -34q-8 0 -12 0.5t-8 2t-8.5 5.5t-12.5 12v122h-302l-20 -161q7 -8 8.5 -16t1.5 -17.5t1 -21.5t9 -27q30 -15 73 -12.5t88 33.5q0 7 -3 18t-4.5 22.5t-1 22t8.5 17.5q15 -7 23.5 -21t12.5 -29t4.5 -29t0.5 -22q-8 -15 -6.5 -33
t3.5 -37t-0.5 -37.5t-17.5 -33.5q-15 7 -20 18.5t-5 24.5t2.5 28t2.5 30h-20q-15 0 -33.5 3t-37 4.5t-37 0.5t-33.5 -8v-263h283q15 23 20 45.5t7 43t3.5 39.5t9.5 34q0 8 3 11.5t7 5.5t10 3q15 -23 17 -49t-1.5 -52t-9.5 -52t-6 -48q-8 -15 -21.5 -17.5t-28.5 -0.5t-29 3.5
t-22 -6.5h-404q0 8 -3 9t-4.5 1t-1 1.5t8.5 9.5q0 15 13.5 17t32 0t39.5 -3.5t36 5.5q8 7 6 15t-5.5 18t-6 21.5t5.5 26.5v465q-15 7 -33 5.5t-37 -3.5t-37.5 0.5t-33.5 17.5q31 15 60.5 17.5t60.5 2.5h363q8 0 12.5 -0.5t8.5 -2t8 -6t12 -11.5zM426 797q-25 17 -33 27
q-39 13 -48 36q0 6 -18 10l-4 22l-9 -2v-10l2 -10q-4 -4 -18 -5q-4 -10 -31 -19l-2 -2l9 -12v-10q-10 0 -10 4q-15 0 -51 -28h-12l-13 -2q-13 20 -14 35l-1 12q0 15 22 19q19 23 43 40q26 13 26 24q0 16 31 23q8 21 15 27h2q9 -10 24 -10q26 -22 26 -39q0 -11 17 -11
q7 -19 11 -19l14 1q7 -17 31 -17l10 -21q9 -3 9 -21q1 -32 -16 -38z" />
    <glyph glyph-name="Edieresis" unicode="&#xcb;" horiz-adv-x="612" 
d="M540 596q0 -23 6 -45t9.5 -43t1.5 -40t-17 -34q-8 0 -12 0.5t-8 2t-8.5 5.5t-12.5 12v122h-302l-20 -161q7 -8 8.5 -16t1.5 -17.5t1 -21.5t9 -27q30 -15 73 -12.5t88 33.5q0 7 -3 18t-4.5 22.5t-1 22t8.5 17.5q15 -7 23.5 -21t12.5 -29t4.5 -29t0.5 -22q-8 -15 -6.5 -33
t3.5 -37t-0.5 -37.5t-17.5 -33.5q-15 7 -20 18.5t-5 24.5t2.5 28t2.5 30h-20q-15 0 -33.5 3t-37 4.5t-37 0.5t-33.5 -8v-263h283q15 23 20 45.5t7 43t3.5 39.5t9.5 34q0 8 3 11.5t7 5.5t10 3q15 -23 17 -49t-1.5 -52t-9.5 -52t-6 -48q-8 -15 -21.5 -17.5t-28.5 -0.5t-29 3.5
t-22 -6.5h-404q0 8 -3 9t-4.5 1t-1 1.5t8.5 9.5q0 15 13.5 17t32 0t39.5 -3.5t36 5.5q8 7 6 15t-5.5 18t-6 21.5t5.5 26.5v465q-15 7 -33 5.5t-37 -3.5t-37.5 0.5t-33.5 17.5q31 15 60.5 17.5t60.5 2.5h363q8 0 12.5 -0.5t8.5 -2t8 -6t12 -11.5zM428 753q-11 -12 -23 -12
t-33 12q-11 13 -13 32t-1 32q11 11 14 21.5t14 10.5q21 11 38.5 1t17.5 -34q10 -6 11.5 -14.5t-2.5 -17.5t-11 -17t-12 -14zM202 739q-20 0 -32.5 10t-22.5 22q0 12 -2 21t-2 16.5t3.5 13.5t14.5 12q11 12 21 19.5t21 -4.5q10 0 16 -5.5t10 -14.5t7.5 -20t8.5 -23
q-6 -6 -9.5 -12t-7.5 -12t-10 -11.5t-16 -11.5z" />
    <glyph glyph-name="Igrave" unicode="&#xcc;" horiz-adv-x="519" 
d="M438 583q13 0 17 -10q2 -4 2 -9q-14 -15 -28.5 -17t-27 0t-23.5 3t-18 -6q-28 15 -47 15t-48 -15q7 -22 8 -46.5t-1 -49.5t-4.5 -49.5t-2.5 -46.5q7 -8 8 -12t-1 -8t-4.5 -8t-2.5 -11v-270q14 -7 31.5 -8t37.5 1t41.5 4.5t43.5 2.5h19q14 -16 17 -26q2 -6 2 -12l-19 -19
h-385l-20 19q-1 10 2 19q2 7 6 13t12 6q44 0 86.5 -2.5t86.5 -16.5q7 14 5.5 31.5t-5.5 35.5t-5.5 35.5t5.5 32.5q0 51 -2.5 98.5t-4.5 94.5t-1 94.5t8 97.5h-173q0 7 -6 14.5t-11.5 12.5t-7.5 8.5t5 3.5q202 28 405 0zM206 836l11 10l76 -93l4 -4q-1 -14 -14 -25.5
t-20 -17.5q-20 16 -36.5 34t-32 35.5t-33.5 33.5t-41 29q4 11 16.5 24.5t27.5 29.5q7 7 10.5 7.5t5.5 -1.5t2.5 -5.5t2.5 -4.5q0 -8 4.5 -12t9 -8.5t7.5 -11t0 -20.5z" />
    <glyph glyph-name="Iacute" unicode="&#xcd;" horiz-adv-x="526" 
d="M438 583q13 0 17 -10q2 -4 2 -9q-14 -15 -28.5 -17t-27 0t-23.5 3t-18 -6q-28 15 -47 15t-48 -15q7 -22 8 -46.5t-1 -49.5t-4.5 -49.5t-2.5 -46.5q7 -8 8 -12t-1 -8t-4.5 -8t-2.5 -11v-270q14 -7 31.5 -8t37.5 1t41.5 4.5t43.5 2.5h19q14 -16 17 -26q2 -6 2 -12l-19 -19
h-385l-20 19q-1 10 2 19q2 7 6 13t12 6q44 0 86.5 -2.5t86.5 -16.5q7 14 5.5 31.5t-5.5 35.5t-5.5 35.5t5.5 32.5q0 51 -2.5 98.5t-4.5 94.5t-1 94.5t8 97.5h-173q0 7 -6 14.5t-11.5 12.5t-7.5 8.5t5 3.5q202 28 405 0zM193 810l-10 11l93 76l4 4q14 -1 25.5 -14t17.5 -20
q-17 -20 -34.5 -36.5t-35 -32t-33.5 -33.5t-29 -41q-11 4 -24.5 16.5t-29.5 27.5q-7 7 -8 10.5t1.5 5.5t6 2.5t4.5 2.5q8 0 12 4.5t8.5 9t11 7.5t20.5 0z" />
    <glyph glyph-name="Icircumflex" unicode="&#xce;" horiz-adv-x="516" 
d="M438 583q13 0 17 -10q2 -4 2 -9q-14 -15 -28.5 -17t-27 0t-23.5 3t-18 -6q-28 15 -47 15t-48 -15q7 -22 8 -46.5t-1 -49.5t-4.5 -49.5t-2.5 -46.5q7 -8 8 -12t-1 -8t-4.5 -8t-2.5 -11v-270q14 -7 31.5 -8t37.5 1t41.5 4.5t43.5 2.5h19q14 -16 17 -26q2 -6 2 -12l-19 -19
h-385l-20 19q-1 10 2 19q2 7 6 13t12 6q44 0 86.5 -2.5t86.5 -16.5q7 14 5.5 31.5t-5.5 35.5t-5.5 35.5t5.5 32.5q0 51 -2.5 98.5t-4.5 94.5t-1 94.5t8 97.5h-173q0 7 -6 14.5t-11.5 12.5t-7.5 8.5t5 3.5q202 28 405 0zM352 781q-25 17 -33 27q-39 13 -48 36q0 6 -18 10
l-4 22l-9 -2v-10l2 -10q-4 -4 -18 -5q-4 -10 -31 -19l-2 -2l9 -12v-10q-10 0 -10 4q-15 0 -51 -28h-12l-13 -2q-13 20 -14 35l-1 12q0 15 22 19q19 23 43 40q26 13 26 24q0 16 31 23q8 21 15 27h2q9 -10 24 -10q26 -22 26 -39q0 -11 17 -11q7 -19 11 -19l14 1q7 -17 31 -17
l10 -21q9 -3 9 -21q1 -32 -16 -38z" />
    <glyph glyph-name="Idieresis" unicode="&#xcf;" horiz-adv-x="557" 
d="M438 583q13 0 17 -10q2 -4 2 -9q-14 -15 -28.5 -17t-27 0t-23.5 3t-18 -6q-28 15 -47 15t-48 -15q7 -22 8 -46.5t-1 -49.5t-4.5 -49.5t-2.5 -46.5q7 -8 8 -12t-1 -8t-4.5 -8t-2.5 -11v-270q14 -7 31.5 -8t37.5 1t41.5 4.5t43.5 2.5h19q14 -16 17 -26q2 -6 2 -12l-19 -19
h-385l-20 19q-1 10 2 19q2 7 6 13t12 6q44 0 86.5 -2.5t86.5 -16.5q7 14 5.5 31.5t-5.5 35.5t-5.5 35.5t5.5 32.5q0 51 -2.5 98.5t-4.5 94.5t-1 94.5t8 97.5h-173q0 7 -6 14.5t-11.5 12.5t-7.5 8.5t5 3.5q202 28 405 0zM368 757q-11 -12 -23 -12t-33 12q-11 13 -13 32t-1 32
q11 11 14 21.5t14 10.5q21 11 38.5 1t17.5 -34q10 -6 11.5 -14.5t-2.5 -17.5t-11 -17t-12 -14zM142 743q-20 0 -32.5 10t-22.5 22q0 12 -2 21t-2 16.5t3.5 13.5t14.5 12q11 12 21 19.5t21 -4.5q10 0 16 -5.5t10 -14.5t7.5 -20t8.5 -23q-6 -6 -9.5 -12t-7.5 -12t-10 -11.5
t-16 -11.5z" />
    <glyph glyph-name="Eth" unicode="&#xd0;" horiz-adv-x="615" 
d="M127 342v12h37v233q-15 8 -39 0.5t-47 -13t-39.5 -1.5t-16.5 35q15 15 30.5 17.5t30.5 2.5h102q7 -8 11.5 -8.5t8.5 1t8 4.5t12 3q38 0 73 -1t65.5 -6.5t57.5 -18t50 -35.5q23 -8 35.5 -22t20 -31t12.5 -35.5t13 -33.5q15 -54 18.5 -110t-6 -109.5t-32.5 -102t-61 -86.5
q-46 -30 -99 -40.5t-108.5 -12.5t-111.5 -1.5t-110 -6.5q-8 8 -9 15t1 13q2 7 8 13q0 15 6.5 20t16.5 5t20 -2.5t18 -2.5h61q7 35 6 67.5t-4.5 64t-6.5 63.5t1 67q-31 -2 -62.5 -5t-65.5 -11q-8 9 -9 25t-1 34q0 9 3 12t7.5 3t9.5 -1.5t9 -1.5q7 -5 15.5 -4t18.5 2.5t20.5 0
t21.5 -10.5zM450 526q-30 16 -50.5 31t-51.5 30q-15 -8 -33.5 -5.5t-38 6t-38 5.5t-33.5 -6v-20q0 -52 2.5 -105.5t4.5 -107.5h105q7 -5 9.5 -11t2.5 -13t-1 -13t-1 -10q-30 -4 -58 -5t-55 -2q1 -44 -1 -84.5t-8 -76.5q7 -15 8.5 -30t1.5 -28.5t1 -25t9 -18.5q15 7 37.5 5.5
t47.5 -3t51 0.5t49 17q7 15 21 30.5t27 31t23 30.5t10 30q23 15 26 37.5t-0.5 47t-8.5 50.5t3 49q-8 23 -15.5 43t-15 39t-15 38.5t-15.5 42.5z" />
    <glyph glyph-name="Ntilde" unicode="&#xd1;" horiz-adv-x="590" 
d="M198 611q22 -30 37.5 -62.5t28.5 -65.5t25 -65.5t27 -62.5q7 -15 17.5 -30t19.5 -31.5t15.5 -35.5t6.5 -41q15 -30 29.5 -59.5t29.5 -58.5q15 44 15 78.5t-15 79.5v256q0 7 3 14.5t4.5 15t0.5 15t-8 15.5q-8 0 -18 -2.5t-21.5 -3t-22 4.5t-17.5 20q8 0 11.5 2.5t5.5 6.5
t3 10q22 -7 44.5 -5t44.5 5.5t44.5 5.5t44.5 -6q0 -13 9 -17q4 -2 10 -2q-7 -23 -17.5 -26t-21.5 -1.5t-21.5 2t-17.5 -14.5q0 -60 -2.5 -131t-17.5 -145q7 -30 11.5 -65.5t6 -72.5t2 -73t0.5 -66q-8 -7 -15.5 -8.5t-15 -1.5t-15 -1t-14.5 -8q-29 60 -49 128.5t-49 128.5
q0 22 -12.5 41.5t-27 39.5t-27 43t-12.5 53q-15 15 -23.5 33.5t-16 38.5t-16 42t-23.5 45h-20q0 -67 3 -134t4.5 -135.5t0.5 -139t-8 -144.5h79q8 0 8.5 -3.5t-1.5 -7.5q-3 -4 -7 -10q-22 -7 -44 -8.5t-44.5 -1.5t-44.5 -1t-44 -8q-8 0 -12.5 0.5t-8.5 2t-8 5.5l-11 11
l19 41q8 7 18.5 5t21.5 -5.5t21.5 -5.5t18.5 6v315q-8 30 -6 59t5.5 57t5.5 53.5t-5 48.5q-15 7 -26.5 2.5t-20.5 -8.5t-17 -1t-16 26q0 22 10 25t25 -0.5t32.5 -8t32.5 2.5q0 -7 3.5 -8.5t8.5 -1.5t12 -1t15 -8q0 13 10 17q4 2 10 2zM486 839q4 -7 -3 -22q-2 -6 -9.5 -11.5
t-9.5 -7.5l-19 -23q-11 -1 -13 -3q-1 -10 -3 -13q-9 -5 -13 -8l-22 -8q-6 -5 -12.5 -9t-13.5 -7t-16 -3q-3 0 -6 1t-7 4h-19l-32 9q-10 4 -16 7.5t-13 8.5l-24 18q-1 1 -2.5 8t-2.5 8q-11 -2 -17 3.5t-10 8.5t-14.5 7t-15.5 3q-4 0 -9.5 -4t-10 -6.5t-11.5 -5.5
q-10 -10 -20 -19q-9 -2 -13 0q-4 3 -4 9q1 6 1 9q0 5 8 17q2 3 5.5 4.5t8.5 3.5q2 6 5 12l22 16q19 4 25 8t12 9q3 1 12 3t14 2q3 0 12 -2t26 -12q5 -8 8 -12l19 -12l29 -18q14 -11 29 -21q10 -4 16 -5t17 -1q6 0 13 0.5t18 7.5q5 3 9 7l10 10l18 15l14 16q13 9 21 6
q6 -1 9 -8z" />
    <glyph glyph-name="Ograve" unicode="&#xd2;" horiz-adv-x="568" 
d="M395 579q37 -29 59.5 -71.5t35.5 -92t17.5 -103.5t4.5 -105q-15 -29 -33.5 -63.5t-42.5 -65.5t-53.5 -55t-66.5 -31q-146 -30 -234 118q0 14 -6.5 26t-14 24.5t-13.5 28.5t-6 38q-7 44 -3.5 90.5t16 92.5t34.5 89t51 80q15 0 26.5 6t22.5 13.5t22.5 13.5t26.5 6
q45 0 86 -5t71 -34zM376 540q-15 15 -36.5 22.5t-45.5 9t-48.5 -2t-46.5 -10.5q-15 -15 -32 -33t-31.5 -38t-24.5 -41.5t-10 -43.5q-14 -30 -16.5 -69t-2.5 -69q0 -22 9.5 -47t24.5 -50.5t32 -50.5t32 -47q29 -29 70.5 -31.5t85.5 11.5q37 22 63 57.5t42.5 77.5t24 88
t7.5 90q-15 30 -29.5 69t-29.5 69zM250 825l11 10l76 -93l4 -4q-1 -14 -14 -25.5t-20 -17.5q-20 16 -36.5 34t-32 35.5t-33.5 33.5t-41 29q4 11 16.5 24.5t27.5 29.5q7 7 10.5 7.5t5.5 -1.5t2.5 -5.5t2.5 -4.5q0 -8 4.5 -12t9 -8.5t7.5 -11t0 -20.5z" />
    <glyph glyph-name="Oacute" unicode="&#xd3;" horiz-adv-x="561" 
d="M395 579q37 -29 59.5 -71.5t35.5 -92t17.5 -103.5t4.5 -105q-15 -29 -33.5 -63.5t-42.5 -65.5t-53.5 -55t-66.5 -31q-146 -30 -234 118q0 14 -6.5 26t-14 24.5t-13.5 28.5t-6 38q-7 44 -3.5 90.5t16 92.5t34.5 89t51 80q15 0 26.5 6t22.5 13.5t22.5 13.5t26.5 6
q45 0 86 -5t71 -34zM376 540q-15 15 -36.5 22.5t-45.5 9t-48.5 -2t-46.5 -10.5q-15 -15 -32 -33t-31.5 -38t-24.5 -41.5t-10 -43.5q-14 -30 -16.5 -69t-2.5 -69q0 -22 9.5 -47t24.5 -50.5t32 -50.5t32 -47q29 -29 70.5 -31.5t85.5 11.5q37 22 63 57.5t42.5 77.5t24 88
t7.5 90q-15 30 -29.5 69t-29.5 69zM240 808l-10 11l93 76l4 4q14 -1 25.5 -14t17.5 -20q-17 -20 -34.5 -36.5t-35 -32t-33.5 -33.5t-29 -41q-11 4 -24.5 16.5t-29.5 27.5q-7 7 -8 10.5t1.5 5.5t6 2.5t4.5 2.5q8 0 12 4.5t8.5 9t11 7.5t20.5 0z" />
    <glyph glyph-name="Ocircumflex" unicode="&#xd4;" horiz-adv-x="548" 
d="M395 579q37 -29 59.5 -71.5t35.5 -92t17.5 -103.5t4.5 -105q-15 -29 -33.5 -63.5t-42.5 -65.5t-53.5 -55t-66.5 -31q-146 -30 -234 118q0 14 -6.5 26t-14 24.5t-13.5 28.5t-6 38q-7 44 -3.5 90.5t16 92.5t34.5 89t51 80q15 0 26.5 6t22.5 13.5t22.5 13.5t26.5 6
q45 0 86 -5t71 -34zM376 540q-15 15 -36.5 22.5t-45.5 9t-48.5 -2t-46.5 -10.5q-15 -15 -32 -33t-31.5 -38t-24.5 -41.5t-10 -43.5q-14 -30 -16.5 -69t-2.5 -69q0 -22 9.5 -47t24.5 -50.5t32 -50.5t32 -47q29 -29 70.5 -31.5t85.5 11.5q37 22 63 57.5t42.5 77.5t24 88
t7.5 90q-15 30 -29.5 69t-29.5 69zM370 777q-25 17 -33 27q-39 13 -48 36q0 6 -18 10l-4 22l-9 -2v-10l2 -10q-4 -4 -18 -5q-4 -10 -31 -19l-2 -2l9 -12v-10q-10 0 -10 4q-15 0 -51 -28h-12l-13 -2q-13 20 -14 35l-1 12q0 15 22 19q19 23 43 40q26 13 26 24q0 16 31 23
q8 21 15 27h2q9 -10 24 -10q26 -22 26 -39q0 -11 17 -11q7 -19 11 -19l14 1q7 -17 31 -17l10 -21q9 -3 9 -21q1 -32 -16 -38z" />
    <glyph glyph-name="Otilde" unicode="&#xd5;" horiz-adv-x="554" 
d="M395 579q37 -29 59.5 -71.5t35.5 -92t17.5 -103.5t4.5 -105q-15 -29 -33.5 -63.5t-42.5 -65.5t-53.5 -55t-66.5 -31q-146 -30 -234 118q0 14 -6.5 26t-14 24.5t-13.5 28.5t-6 38q-7 44 -3.5 90.5t16 92.5t34.5 89t51 80q15 0 26.5 6t22.5 13.5t22.5 13.5t26.5 6
q45 0 86 -5t71 -34zM376 540q-15 15 -36.5 22.5t-45.5 9t-48.5 -2t-46.5 -10.5q-15 -15 -32 -33t-31.5 -38t-24.5 -41.5t-10 -43.5q-14 -30 -16.5 -69t-2.5 -69q0 -22 9.5 -47t24.5 -50.5t32 -50.5t32 -47q29 -29 70.5 -31.5t85.5 11.5q37 22 63 57.5t42.5 77.5t24 88
t7.5 90q-15 30 -29.5 69t-29.5 69zM460 856q4 -7 -3 -22q-2 -6 -9.5 -11.5t-9.5 -7.5l-19 -23q-11 -1 -13 -3q-1 -10 -3 -13q-9 -5 -13 -8l-22 -8q-6 -5 -12.5 -9t-13.5 -7t-16 -3q-3 0 -6 1t-7 4h-19l-32 9q-10 4 -16 7.5t-13 8.5l-24 18q-1 1 -2.5 8t-2.5 8
q-11 -2 -17 3.5t-10 8.5t-14.5 7t-15.5 3q-4 0 -9.5 -4t-10 -6.5t-11.5 -5.5q-10 -10 -20 -19q-9 -2 -13 0q-4 3 -4 9q1 6 1 9q0 5 8 17q2 3 5.5 4.5t8.5 3.5q2 6 5 12l22 16q19 4 25 8t12 9q3 1 12 3t14 2q3 0 12 -2t26 -12q5 -8 8 -12l19 -12l29 -18q14 -11 29 -21
q10 -4 16 -5t17 -1q6 0 13 0.5t18 7.5q5 3 9 7l10 10l18 15l14 16q13 9 21 6q6 -1 9 -8z" />
    <glyph glyph-name="Odieresis" unicode="&#xd6;" horiz-adv-x="538" 
d="M395 579q37 -29 59.5 -71.5t35.5 -92t17.5 -103.5t4.5 -105q-15 -29 -33.5 -63.5t-42.5 -65.5t-53.5 -55t-66.5 -31q-146 -30 -234 118q0 14 -6.5 26t-14 24.5t-13.5 28.5t-6 38q-7 44 -3.5 90.5t16 92.5t34.5 89t51 80q15 0 26.5 6t22.5 13.5t22.5 13.5t26.5 6
q45 0 86 -5t71 -34zM376 540q-15 15 -36.5 22.5t-45.5 9t-48.5 -2t-46.5 -10.5q-15 -15 -32 -33t-31.5 -38t-24.5 -41.5t-10 -43.5q-14 -30 -16.5 -69t-2.5 -69q0 -22 9.5 -47t24.5 -50.5t32 -50.5t32 -47q29 -29 70.5 -31.5t85.5 11.5q37 22 63 57.5t42.5 77.5t24 88
t7.5 90q-15 30 -29.5 69t-29.5 69zM393 766q-11 -12 -23 -12t-33 12q-11 13 -13 32t-1 32q11 11 14 21.5t14 10.5q21 11 38.5 1t17.5 -34q10 -6 11.5 -14.5t-2.5 -17.5t-11 -17t-12 -14zM167 752q-20 0 -32.5 10t-22.5 22q0 12 -2 21t-2 16.5t3.5 13.5t14.5 12
q11 12 21 19.5t21 -4.5q10 0 16 -5.5t10 -14.5t7.5 -20t8.5 -23q-6 -6 -9.5 -12t-7.5 -12t-10 -11.5t-16 -11.5z" />
    <glyph glyph-name="multiply" unicode="&#xd7;" horiz-adv-x="356" 
d="M279 170q-24 18 -32 28q-37 15 -46 38q0 6 -17 11l-3 14q-4 4 -9 6h-1v-10l2 -10q-5 -4 -19 -3q-4 -10 -31 -18l-2 -2l8 -12l-1 -10q-10 0 -10 4q-15 0 -51 -26l-12 1l-13 -2q-13 20 -13 35v12q0 15 22 19q20 22 45 38q27 12 27 23q0 6 5 11q-4 4 -13 5q-6 19 -10 19
l-14 -1q-7 17 -31 17l-10 22q-9 3 -9 21q0 32 17 37l12 4q25 -17 33 -27q38 -14 47 -37q0 -6 18 -10l2 -15l2 1h2q2 -4 6 -6h1v10l-2 10q4 4 18 4q4 10 31 19l2 2l-8 12v10q10 0 10 -4q15 0 51 27h12l13 2q13 -20 14 -35v-12q0 -15 -22 -19q-19 -23 -43 -39q-27 -13 -27 -24
q0 -8 -7 -14q3 -5 15 -6q5 -19 9 -19l14 1q7 -17 31 -18l9 -22q9 -4 9 -22q-1 -32 -19 -36z" />
    <glyph glyph-name="Oslash" unicode="&#xd8;" horiz-adv-x="601" 
d="M537 659q8 -15 2 -27.5t-17.5 -24t-25.5 -23.5t-22 -28q39 -54 58.5 -114.5t19.5 -122t-19.5 -122t-58.5 -114.5q-15 -32 -45 -57t-77 -25q-16 -8 -34.5 -9t-38 1t-38.5 5t-34 3q-16 14 -31 27t-30 13q-8 -8 -12.5 -15.5t-8.5 -15t-8.5 -15t-12.5 -15.5q-15 0 -28 2.5
t-13 18.5q16 30 31 47.5t31 34.5q-15 7 -24 21.5t-17 32t-17 36t-24 33.5q0 8 3 12.5t4.5 8.5t0.5 8.5t-8 12.5q7 23 5.5 45.5t-3.5 44t0.5 40.5t17.5 34q0 23 6.5 43t16.5 37.5t20.5 33t18.5 30.5q46 47 105 72.5t122 10.5q15 7 27.5 2t24 -15t23.5 -19t27 -9
q7 7 12.5 20.5t13 25t20.5 17.5t37 -2zM414 536q0 23 -14 32.5t-35.5 13.5t-47 6t-48.5 10q-15 0 -30.5 -7t-29 -19t-25 -26.5t-18.5 -29.5q-15 -32 -30.5 -62.5t-31.5 -62.5q-8 -15 -5.5 -30.5t6 -31t5.5 -30.5t-6 -30q8 -16 10 -31.5t5.5 -31t13.5 -31t33 -31.5
q7 8 11.5 16t8.5 15.5t8.5 15t12.5 15.5q8 16 18.5 28.5t20.5 26t16.5 29.5t6.5 39q23 23 40 49.5t32.5 54t32.5 54t40 49.5zM496 391q-8 16 -13 31.5t-9 31t-8.5 31t-11.5 31.5q0 -16 -2.5 -29t-18.5 -13q-15 -39 -37 -74.5t-47 -70t-51.5 -70t-49.5 -73.5q-8 -16 -21 -28
t-22.5 -23.5t-11 -24t13.5 -27.5q8 0 16 -9.5t17.5 -19.5t21.5 -15.5t27 2.5q16 0 28.5 0.5t24 2t24 5.5t27.5 12q8 8 18.5 16.5t20 18t16 21.5t6.5 27q23 23 35.5 53t16.5 63t0.5 66.5t-10.5 64.5z" />
    <glyph glyph-name="Ugrave" unicode="&#xd9;" horiz-adv-x="587" 
d="M253 611v-20q-7 -15 -18 -17t-23.5 0t-27 3.5t-29.5 -5.5v-197q15 -15 15 -39.5t-15 -39.5q5 -25 6 -50.5t1.5 -50.5t2.5 -48.5t9.5 -44t21.5 -36.5t38 -26q15 -8 29.5 -8.5t29 1t29 4.5t29.5 3q15 7 23.5 15t14 17t10 20.5t12.5 26.5v236q0 22 -3 50.5t-4.5 58t-1 57.5
t8.5 51h-79q0 7 -3 11t-7 8t-7 8t-3 12q7 7 14.5 8t15 -0.5t15 -4.5t15.5 -3h176q0 -8 -0.5 -12t-2 -8t-6 -8t-11.5 -11q-7 0 -17.5 2.5t-21.5 4.5t-21.5 1t-17.5 -8v-453q-14 -45 -46.5 -84t-91.5 -54q-44 0 -78.5 12.5t-78.5 26.5q-14 29 -27 59.5t-13 59.5v353q0 7 3 18
t5 22t1 21.5t-9 18.5q-15 7 -29 2.5t-27 -10t-24 -6.5t-18 14q0 15 3.5 22.5t9 11.5t12.5 4.5t14 0.5h197zM250 836l11 10l76 -93l4 -4q-1 -14 -14 -25.5t-20 -17.5q-20 16 -36.5 34t-32 35.5t-33.5 33.5t-41 29q4 11 16.5 24.5t27.5 29.5q7 7 10.5 7.5t5.5 -1.5t2.5 -5.5
t2.5 -4.5q0 -8 4.5 -12t9 -8.5t7.5 -11t0 -20.5z" />
    <glyph glyph-name="Uacute" unicode="&#xda;" horiz-adv-x="575" 
d="M253 611v-20q-7 -15 -18 -17t-23.5 0t-27 3.5t-29.5 -5.5v-197q15 -15 15 -39.5t-15 -39.5q5 -25 6 -50.5t1.5 -50.5t2.5 -48.5t9.5 -44t21.5 -36.5t38 -26q15 -8 29.5 -8.5t29 1t29 4.5t29.5 3q15 7 23.5 15t14 17t10 20.5t12.5 26.5v236q0 22 -3 50.5t-4.5 58t-1 57.5
t8.5 51h-79q0 7 -3 11t-7 8t-7 8t-3 12q7 7 14.5 8t15 -0.5t15 -4.5t15.5 -3h176q0 -8 -0.5 -12t-2 -8t-6 -8t-11.5 -11q-7 0 -17.5 2.5t-21.5 4.5t-21.5 1t-17.5 -8v-453q-14 -45 -46.5 -84t-91.5 -54q-44 0 -78.5 12.5t-78.5 26.5q-14 29 -27 59.5t-13 59.5v353q0 7 3 18
t5 22t1 21.5t-9 18.5q-15 7 -29 2.5t-27 -10t-24 -6.5t-18 14q0 15 3.5 22.5t9 11.5t12.5 4.5t14 0.5h197zM256 802l-10 11l93 76l4 4q14 -1 25.5 -14t17.5 -20q-17 -20 -34.5 -36.5t-35 -32t-33.5 -33.5t-29 -41q-11 4 -24.5 16.5t-29.5 27.5q-7 7 -8 10.5t1.5 5.5t6 2.5
t4.5 2.5q8 0 12 4.5t8.5 9t11 7.5t20.5 0z" />
    <glyph glyph-name="Ucircumflex" unicode="&#xdb;" horiz-adv-x="571" 
d="M253 611v-20q-7 -15 -18 -17t-23.5 0t-27 3.5t-29.5 -5.5v-197q15 -15 15 -39.5t-15 -39.5q5 -25 6 -50.5t1.5 -50.5t2.5 -48.5t9.5 -44t21.5 -36.5t38 -26q15 -8 29.5 -8.5t29 1t29 4.5t29.5 3q15 7 23.5 15t14 17t10 20.5t12.5 26.5v236q0 22 -3 50.5t-4.5 58t-1 57.5
t8.5 51h-79q0 7 -3 11t-7 8t-7 8t-3 12q7 7 14.5 8t15 -0.5t15 -4.5t15.5 -3h176q0 -8 -0.5 -12t-2 -8t-6 -8t-11.5 -11q-7 0 -17.5 2.5t-21.5 4.5t-21.5 1t-17.5 -8v-453q-14 -45 -46.5 -84t-91.5 -54q-44 0 -78.5 12.5t-78.5 26.5q-14 29 -27 59.5t-13 59.5v353q0 7 3 18
t5 22t1 21.5t-9 18.5q-15 7 -29 2.5t-27 -10t-24 -6.5t-18 14q0 15 3.5 22.5t9 11.5t12.5 4.5t14 0.5h197zM381 766q-25 17 -33 27q-39 13 -48 36q0 6 -18 10l-4 22l-9 -2v-10l2 -10q-4 -4 -18 -5q-4 -10 -31 -19l-2 -2l9 -12v-10q-10 0 -10 4q-15 0 -51 -28h-12l-13 -2
q-13 20 -14 35l-1 12q0 15 22 19q19 23 43 40q26 13 26 24q0 16 31 23q8 21 15 27h2q9 -10 24 -10q26 -22 26 -39q0 -11 17 -11q7 -19 11 -19l14 1q7 -17 31 -17l10 -21q9 -3 9 -21q1 -32 -16 -38z" />
    <glyph glyph-name="Udieresis" unicode="&#xdc;" horiz-adv-x="581" 
d="M253 611v-20q-7 -15 -18 -17t-23.5 0t-27 3.5t-29.5 -5.5v-197q15 -15 15 -39.5t-15 -39.5q5 -25 6 -50.5t1.5 -50.5t2.5 -48.5t9.5 -44t21.5 -36.5t38 -26q15 -8 29.5 -8.5t29 1t29 4.5t29.5 3q15 7 23.5 15t14 17t10 20.5t12.5 26.5v236q0 22 -3 50.5t-4.5 58t-1 57.5
t8.5 51h-79q0 7 -3 11t-7 8t-7 8t-3 12q7 7 14.5 8t15 -0.5t15 -4.5t15.5 -3h176q0 -8 -0.5 -12t-2 -8t-6 -8t-11.5 -11q-7 0 -17.5 2.5t-21.5 4.5t-21.5 1t-17.5 -8v-453q-14 -45 -46.5 -84t-91.5 -54q-44 0 -78.5 12.5t-78.5 26.5q-14 29 -27 59.5t-13 59.5v353q0 7 3 18
t5 22t1 21.5t-9 18.5q-15 7 -29 2.5t-27 -10t-24 -6.5t-18 14q0 15 3.5 22.5t9 11.5t12.5 4.5t14 0.5h197zM415 761q-11 -12 -23 -12t-33 12q-11 13 -13 32t-1 32q11 11 14 21.5t14 10.5q21 11 38.5 1t17.5 -34q10 -6 11.5 -14.5t-2.5 -17.5t-11 -17t-12 -14zM189 747
q-20 0 -32.5 10t-22.5 22q0 12 -2 21t-2 16.5t3.5 13.5t14.5 12q11 12 21 19.5t21 -4.5q10 0 16 -5.5t10 -14.5t7.5 -20t8.5 -23q-6 -6 -9.5 -12t-7.5 -12t-10 -11.5t-16 -11.5z" />
    <glyph glyph-name="Yacute" unicode="&#xdd;" horiz-adv-x="558" 
d="M198 587q14 0 16.5 -11.5t2.5 -25.5h-56q7 -14 8.5 -27.5t3 -25.5t6.5 -22.5t19 -17.5q-7 -14 -5 -25.5t7.5 -23.5t11 -27t5.5 -36q7 -7 11 -14.5t7.5 -16t7.5 -19t11 -24.5q14 14 22.5 33.5t15.5 40.5t15 41t22 34q0 14 6 28t12.5 30t12.5 33.5t6 38.5q-7 7 -19 5.5
t-22.5 -3t-16 0.5t1.5 16q14 14 37.5 14t37.5 -14q14 0 31 5t34 8.5t34 2t31 -15.5q-7 -21 -20 -24t-28.5 -1.5t-32.5 1.5t-31 -14q-7 -14 -11 -27.5t-7.5 -25.5t-7.5 -22.5t-11 -17.5q-28 -56 -46.5 -111.5t-46.5 -111.5q7 -21 5.5 -42.5t-3 -44t0.5 -47.5t16 -53l111 19
q0 -7 3 -11t6.5 -7.5t6.5 -7.5t3 -11l-37 -19h-224q-8 7 -14.5 8t-11.5 -1q-6 -2 -11 -7q-28 28 0 56q14 0 30.5 -2.5t32 -4.5t29 -1t20.5 8q0 28 2 55.5t2 53.5t-4.5 50.5t-18.5 45.5q-28 70 -56 139.5t-56 139.5q-7 14 -17 16t-22.5 0.5t-26 -3t-27.5 5.5q0 7 3 11
t6.5 7.5t6.5 7.5t3 11q21 -7 42 -7.5t41.5 1t41.5 4t42 2.5zM225 806l-10 11l93 76l4 4q14 -1 25.5 -14t17.5 -20q-17 -20 -34.5 -36.5t-35 -32t-33.5 -33.5t-29 -41q-11 4 -24.5 16.5t-29.5 27.5q-7 7 -8 10.5t1.5 5.5t6 2.5t4.5 2.5q8 0 12 4.5t8.5 9t11 7.5t20.5 0z" />
    <glyph glyph-name="Thorn" unicode="&#xde;" horiz-adv-x="380" 
d="M106 216q6 12 18 23.5t27 20.5q8 4 22.5 2.5t30 -4.5t28 -5t17.5 3q7 8 13.5 13t12.5 10.5t10 13t7 19.5q1 5 2.5 16.5t3 24.5t2.5 24.5t1 16.5q1 12 -4 20t-11.5 14.5t-13 12t-9.5 13.5q-11 6 -23 14t-24 15.5t-24 12.5t-23 5q-8 2 -18.5 7t-18.5 15q0 4 -3 9t-5.5 9.5
t-3.5 9t1 8.5q0 3 0.5 6.5t0.5 7.5q17 0 29.5 1t24 0t24 -6t29.5 -17l60 -15q9 -16 20.5 -29t22 -25t18.5 -24t11 -27q3 -14 5.5 -35.5t4 -43t0.5 -40.5t-6 -29l-11 -22t-18 -29.5t-27.5 -29.5t-38.5 -21q-6 -6 -14.5 -4t-19.5 5.5t-22.5 5.5t-23.5 -4q-45 -11 -65.5 -7
t-23.5 16q2 6 3 12t2 11zM119 573q-3 -17 1 -29t12 -21q0 -3 -1 -4q9 -12 5 -22t-11 -19.5t-10.5 -19.5t6.5 -22q-5 -8 -6.5 -10.5t-7.5 -11.5q-3 -10 -4.5 -23t-3 -26.5t-3.5 -26t-6 -20.5q4 -3 4 -5t-1.5 -4.5t-2 -4.5t4.5 -5q2 3 3 2t1.5 -4.5t-0.5 -13.5q4 -3 3.5 -5
t-0.5 -5t1.5 -7t10.5 -9q-6 -10 -6.5 -20t-1.5 -21q-8 -13 -5 -23q-3 -8 -8 -16l9 -35q-6 -9 -4.5 -18.5t4 -19.5t3.5 -20t-4 -18t-3 -19t11 -17q1 -7 -2.5 -13t-9 -10t-11.5 -5t-10 2q-6 -2 -12.5 1.5t-12 8.5t-10.5 10t-9 8q4 15 4.5 32t1 33.5t3 32.5t10.5 28
q-5 20 -4 37t4 32.5t5.5 31t2.5 32.5q2 22 -1 46.5t-1 46.5q2 58 0 124.5t-10 128.5q8 12 7 25t-2.5 27t1 28t17.5 28q10 6 17.5 5t14.5 -4t13.5 -6t13.5 -1q5 -9 7 -16.5t2.5 -13.5t0.5 -11.5t2 -11.5q-6 -9 -15.5 -14.5t-6.5 -18.5q-2 -19 0.5 -40t2.5 -40h-3z" />
    <glyph glyph-name="germandbls" unicode="&#xdf;" horiz-adv-x="409" 
d="M49 550q-4 10 -3.5 24.5t6.5 28t19.5 23.5t35.5 13q41 17 86 8t78 -41q21 -18 37 -44t12 -51q1 -49 -17.5 -89.5t-55.5 -59.5q49 -14 83 -46.5t48 -69.5q6 -31 5.5 -64.5t-10 -65t-29 -59t-50.5 -46.5q-12 0 -26.5 -7.5t-40.5 -7.5q-12 -6 -24.5 -5t-25 4t-25 5t-24.5 -4
q-10 22 -5.5 33.5t18 16t34 5t42.5 2t42.5 6.5t34.5 19q38 38 42.5 86t-8.5 99q-53 24 -85.5 44t-43 40t2.5 42t51 50q18 23 21 47.5t-17 54.5q3 12 -5.5 24t-20.5 15q-17 3 -33 8t-31.5 8.5t-30 4t-27.5 -4.5v4q-2 6 -4 10q-7 -1 -7 -20h-1q-1 -3 -1 -5.5t-1 -4.5
q-2 -8 -4 -13.5t-4 -10.5q1 1 4 1q1 -3 3 -11q-2 -3 -3 -3q-3 5 -5 10q-10 -21 -20 -21q-4 4 -7.5 9t-5.5 9t-3 4.5t-1 -4.5zM92 560l-1 -1v-2q5 2 6 4q0 -1 2 -3q-2 -8 -2.5 -13t0.5 -5q0 -5 -6 3q-2 -2 -6.5 -2t-6.5 -2q-5 -7 -6 -9.5t-6 2.5q-10 0 -17 18q1 -8 0.5 -16
t-4.5 -16q5 -55 6.5 -115t0.5 -112q-2 -20 0.5 -42t0.5 -42q0 -15 -2 -29t-3.5 -28t-2 -29t2.5 -33q-6 -11 -8 -25.5t-2 -29.5t-0.5 -30.5t-3.5 -28.5q6 -5 14 -16t18 -9q6 -5 16 3t8 21q-7 5 -8.5 14.5t2.5 17.5q4 7 3 16t-3 18t-2.5 17.5t3.5 16.5l-7 32q6 11 8 20.5
t2.5 18.5t1 17t4.5 16q-6 4 -7.5 7.5t-1.5 6t0.5 5t-2.5 4.5l9 19q-6 3 -9 0q-2 -2 -3 -4q-7 5 -3.5 7.5t1.5 5.5l7 -4q3 8 0 13.5t1 13.5q-4 8 -3.5 17.5t2 18.5t3.5 17t1 14q4 8 0 10.5t0 9.5q-8 11 -5.5 20t6.5 17.5t6.5 17.5t-4.5 20q4 7 -1.5 18t-1.5 19q1 10 2.5 24
t3 29t3 29.5t1.5 24.5v1l4 24t1 12q-2 -1 -3 -2t-3 -2q-1 -6 -0.5 -13.5t-0.5 -14.5q-2 1 -5 -2zM92 560q-1 3 -1 -1z" />
    <glyph glyph-name="agrave" unicode="&#xe0;" horiz-adv-x="618" 
d="M474 419q9 -43 10 -89t-1.5 -91t-5.5 -87t-3 -76q9 -17 21 -23t24.5 -8.5t24.5 -4t21 -10.5h46q0 -8 -3.5 -16t-8.5 -15q-5 -8 -11 -15q-17 0 -34 -2.5t-34.5 -2.5t-34.5 6t-35 23q0 17 -2.5 34t-19.5 34q-35 -35 -73 -53.5t-78.5 -27t-83 -10t-85.5 -1.5
q-103 69 -68 206q23 34 52.5 51t63 24t69.5 8t71.5 2t69.5 7t62 23q0 17 -0.5 37t-5 37t-13.5 28.5t-26 11.5q-104 33 -206 0q6 -7 11 -15q5 -7 8.5 -15t3.5 -17q-9 0 -14 -3.5t-11.5 -7.5t-16.5 -7.5t-27 -3.5q-13 0 -23 3q-8 2 -15 6.5t-7 12.5q-18 0 -21 15t-3 32
q26 34 63 52t77.5 24.5t81.5 3.5t75 -12q35 0 66 -17t49 -51zM383 122q24 0 31 14t5.5 34t-7.5 43t-7 40q-2 -13 -15.5 -15t-30.5 -2q-23 -12 -50.5 -13.5t-56 -0.5t-56 2t-50 -5.5t-39 -23.5t-21.5 -51q0 -34 14 -65.5t31 -48.5q43 -8 78 -4.5t65 16.5t56.5 33.5t52.5 46.5
zM253 671l11 10l76 -93l4 -4q-1 -14 -14 -25.5t-20 -17.5q-20 16 -36.5 34t-32 35.5t-33.5 33.5t-41 29q4 11 16.5 24.5t27.5 29.5q7 7 10.5 7.5t5.5 -1.5t2.5 -5.5t2.5 -4.5q0 -8 4.5 -12t9 -8.5t7.5 -11t0 -20.5z" />
    <glyph glyph-name="aacute" unicode="&#xe1;" horiz-adv-x="617" 
d="M471 419q9 -43 10 -89t-1.5 -91t-5.5 -87t-3 -76q9 -17 21 -23t24.5 -8.5t24.5 -4t21 -10.5h46q0 -8 -3.5 -16t-8.5 -15q-5 -8 -11 -15q-17 0 -34 -2.5t-34.5 -2.5t-34.5 6t-35 23q0 17 -2.5 34t-19.5 34q-35 -35 -73 -53.5t-78.5 -27t-83 -10t-85.5 -1.5
q-103 69 -68 206q23 34 52.5 51t63 24t69.5 8t71.5 2t69.5 7t62 23q0 17 -0.5 37t-5 37t-13.5 28.5t-26 11.5q-104 33 -206 0q6 -7 11 -15q5 -7 8.5 -15t3.5 -17q-9 0 -14 -3.5t-11.5 -7.5t-16.5 -7.5t-27 -3.5q-13 0 -23 3q-8 2 -15 6.5t-7 12.5q-18 0 -21 15t-3 32
q26 34 63 52t77.5 24.5t81.5 3.5t75 -12q35 0 66 -17t49 -51zM380 122q24 0 31 14t5.5 34t-7.5 43t-7 40q-2 -13 -15.5 -15t-30.5 -2q-23 -12 -50.5 -13.5t-56 -0.5t-56 2t-50 -5.5t-39 -23.5t-21.5 -51q0 -34 14 -65.5t31 -48.5q43 -8 78 -4.5t65 16.5t56.5 33.5t52.5 46.5
zM270 703q-4 15 -1 22t8.5 11.5t10 8.5t4.5 13q1 1 2 4.5t3 6t5.5 1.5t11.5 -8q16 -17 29 -31t17 -26q-24 -13 -42.5 -30t-35.5 -35t-34 -37t-38 -36l-21 18t-15 27l5 4l79 98z" />
    <glyph glyph-name="acircumflex" unicode="&#xe2;" horiz-adv-x="623" 
d="M476 419q9 -43 10 -89t-1.5 -91t-5.5 -87t-3 -76q9 -17 21 -23t24.5 -8.5t24.5 -4t21 -10.5h46q0 -8 -3.5 -16t-8.5 -15q-5 -8 -11 -15q-17 0 -34 -2.5t-34.5 -2.5t-34.5 6t-35 23q0 17 -2.5 34t-19.5 34q-35 -35 -73 -53.5t-78.5 -27t-83 -10t-85.5 -1.5
q-103 69 -68 206q23 34 52.5 51t63 24t69.5 8t71.5 2t69.5 7t62 23q0 17 -0.5 37t-5 37t-13.5 28.5t-26 11.5q-104 33 -206 0q6 -7 11 -15q5 -7 8.5 -15t3.5 -17q-9 0 -14 -3.5t-11.5 -7.5t-16.5 -7.5t-27 -3.5q-13 0 -23 3q-8 2 -15 6.5t-7 12.5q-18 0 -21 15t-3 32
q26 34 63 52t77.5 24.5t81.5 3.5t75 -12q35 0 66 -17t49 -51zM385 122q24 0 31 14t5.5 34t-7.5 43t-7 40q-2 -13 -15.5 -15t-30.5 -2q-23 -12 -50.5 -13.5t-56 -0.5t-56 2t-50 -5.5t-38.5 -23.5t-22 -51q0 -34 14 -65.5t31 -48.5q43 -8 78 -4.5t65 16.5t56.5 33.5t52.5 46.5
zM374 562q-25 17 -33 27q-38 14 -47 37q0 6 -18 9l-5 22l-9 -2v-10l3 -10q-4 -4 -18 -4q-4 -10 -31 -19l-2 -2l8 -12v-10q-10 0 -10 4q-15 0 -51 -28h-12l-13 -2q-13 20 -14 35v12q0 15 22 19q18 23 42 40q27 13 27 24q0 16 31 23q8 20 16 26h2q8 -10 23 -9q26 -22 26 -39
q0 -11 17 -12q6 -19 10 -19l14 1q7 -17 31 -17l11 -21q9 -3 9 -21q0 -32 -17 -38z" />
    <glyph glyph-name="atilde" unicode="&#xe3;" horiz-adv-x="639" 
d="M479 419q9 -43 10 -89t-1.5 -91t-5.5 -87t-3 -76q9 -17 21 -23t24.5 -8.5t24.5 -4t21 -10.5h46q0 -8 -3.5 -16t-8.5 -15q-5 -8 -11 -15q-17 0 -34 -2.5t-34.5 -2.5t-34.5 6t-35 23q0 17 -2.5 34t-19.5 34q-35 -35 -73 -53.5t-78.5 -27t-83 -10t-85.5 -1.5
q-103 69 -68 206q23 34 52.5 51t63 24t69.5 8t71.5 2t69.5 7t62 23q0 17 -0.5 37t-5 37t-13.5 28.5t-26 11.5q-104 33 -206 0q6 -7 11 -15q5 -7 8.5 -15t3.5 -17q-9 0 -14 -3.5t-11.5 -7.5t-16.5 -7.5t-27 -3.5q-13 0 -23 3q-8 2 -15 6.5t-7 12.5q-18 0 -21 15t-3 32
q26 34 63 52t77.5 24.5t81.5 3.5t75 -12q35 0 66 -17t49 -51zM388 122q24 0 31 14t5.5 34t-7.5 43t-7 40q-2 -13 -15.5 -15t-30.5 -2q-23 -12 -50.5 -13.5t-56 -0.5t-56 2t-50 -5.5t-39 -23.5t-21.5 -51q0 -34 14 -65.5t31 -48.5q43 -8 78 -4.5t65 16.5t56.5 33.5t52.5 46.5
zM472 683q4 -7 -3 -22q-2 -6 -9.5 -11.5t-9.5 -7.5l-19 -23q-11 -1 -13 -3q-1 -10 -3 -13q-9 -5 -13 -8l-22 -8q-6 -5 -12.5 -9t-13.5 -7t-16 -3q-3 0 -6 1t-7 4h-19l-32 9q-10 4 -16 7.5t-13 8.5l-24 18q-1 1 -2.5 8t-2.5 8q-11 -2 -17 3.5t-10 8.5t-14.5 7t-15.5 3
q-4 0 -9.5 -4t-10 -6.5t-11.5 -5.5q-10 -10 -20 -19q-9 -2 -13 0q-4 3 -4 9q1 6 1 9q0 5 8 17q2 3 5.5 4.5t8.5 3.5q2 6 5 12l22 16q19 4 25 8t12 9q3 1 12 3t14 2q3 0 12 -2t26 -12q5 -8 8 -12l19 -12l29 -18q14 -11 29 -21q10 -4 16 -5t17 -1q6 0 13 0.5t18 7.5q5 3 9 7
l10 10l18 15l14 16q13 9 21 6q6 -1 9 -8z" />
    <glyph glyph-name="adieresis" unicode="&#xe4;" horiz-adv-x="627" 
d="M478 419q9 -43 10 -89t-1.5 -91t-5.5 -87t-3 -76q9 -17 21 -23t24.5 -8.5t24.5 -4t21 -10.5h46q0 -8 -3.5 -16t-8.5 -15q-5 -8 -11 -15q-17 0 -34 -2.5t-34.5 -2.5t-34.5 6t-35 23q0 17 -2.5 34t-19.5 34q-35 -35 -73 -53.5t-78.5 -27t-83 -10t-85.5 -1.5
q-103 69 -68 206q23 34 52.5 51t63 24t69.5 8t71.5 2t69.5 7t62 23q0 17 -0.5 37t-5 37t-13.5 28.5t-26 11.5q-104 33 -206 0q6 -7 11 -15q5 -7 8.5 -15t3.5 -17q-9 0 -14 -3.5t-11.5 -7.5t-16.5 -7.5t-27 -3.5q-13 0 -23 3q-8 2 -15 6.5t-7 12.5q-18 0 -21 15t-3 32
q26 34 63 52t77.5 24.5t81.5 3.5t75 -12q35 0 66 -17t49 -51zM387 122q24 0 31 14t5.5 34t-7.5 43t-7 40q-2 -13 -15.5 -15t-30.5 -2q-23 -12 -50.5 -13.5t-56 -0.5t-56 2t-50 -5.5t-39 -23.5t-21.5 -51q0 -34 14 -65.5t31 -48.5q43 -8 78 -4.5t65 16.5t56.5 33.5t52.5 46.5
zM181 570q-20 0 -32.5 10t-22.5 22q0 12 -2 21t-2 16.5t3.5 13.5t14.5 12q11 12 21 19.5t21 -4.5q10 0 16 -5.5t10 -14.5t7.5 -20t8.5 -23q-6 -6 -9.5 -12t-7.5 -12t-10 -11.5t-16 -11.5zM407 584q-11 -12 -23 -12t-33 12q-11 13 -13 32t-1 32q11 11 14 21.5t14 10.5
q21 11 38.5 1t17.5 -34q10 -6 11.5 -14.5t-2.5 -17.5t-11 -17t-12 -14z" />
    <glyph glyph-name="aring" unicode="&#xe5;" horiz-adv-x="627" 
d="M484 401q-8 -42 -9.5 -80t-1.5 -75.5t-1 -75.5t-9 -79q8 -8 20 -16t26.5 -12t30.5 -3.5t33 9.5q9 -9 16.5 -14t12 -9t3.5 -9t-9 -13q-33 -33 -66.5 -36t-66.5 14q-17 17 -33.5 36t-33.5 53q-25 -25 -57.5 -45t-70 -32.5t-78 -16t-82.5 4.5q-17 8 -33 20.5t-28.5 27
t-20 30.5t-7.5 33q0 50 19.5 86t69.5 70q22 11 47.5 14t52.5 3t55 -1t55 3t52.5 14.5t47.5 32.5q-8 16 -10 29t-4 23.5t-8 19t-22 17.5q-25 8 -50.5 15.5t-52.5 11.5t-56.5 3.5t-62.5 -9.5q0 -8 6.5 -16t13 -16.5t9 -17t-6.5 -16.5q-8 -17 -20 -22.5t-24.5 -5.5t-24 3
t-20.5 3q-17 17 -19.5 33.5t-2.5 33.5q25 33 57.5 47.5t70 18.5t78.5 2t83 -2q16 -8 36 -17t38.5 -19.5t34 -23.5t23.5 -29zM396 800q16 -16 21.5 -36t3.5 -38.5t-9.5 -34t-15.5 -23.5q-17 -34 -47.5 -51t-63.5 -17q-17 9 -36.5 14.5t-38.5 14t-34.5 22t-23.5 38.5
q-8 9 -9 21t1 27t5 31t3 32q17 17 34 32.5t35.5 26t39.5 13.5t47 -5q16 0 29 -7t23.5 -17.5t19 -22t16.5 -20.5zM329 778q-16 17 -32.5 31t-33.5 14q-17 -17 -33 -33.5t-33 -32.5q0 -17 0.5 -33t4.5 -28.5t13 -20t25 -7.5q34 -17 64.5 -14.5t47.5 35.5q8 9 5.5 21t-9 24.5
t-13 24t-6.5 19.5zM418 269q-17 0 -29.5 -3.5t-23 -8t-19 -8t-17.5 -3.5q-17 -8 -34 -9t-35.5 1t-39.5 5t-46 3q0 -17 -13.5 -19.5t-30.5 -2.5q-8 0 -13 -4t-9 -10t-9 -14t-14 -16q-17 -34 -3 -64t48 -47q41 -17 78.5 -14.5t70.5 17t62.5 38t54.5 48.5z" />
    <glyph glyph-name="ae" unicode="&#xe6;" horiz-adv-x="745" 
d="M387 439q17 0 33.5 14t33.5 31q25 8 50 9t48.5 -3.5t44 -12t37.5 -16.5q8 -25 23 -47t27.5 -45.5t19 -49.5t-2.5 -60q-25 -17 -46.5 -16t-40.5 7.5t-36 12t-34 -3.5h-135q-17 -25 -18.5 -47t5 -43t17 -42.5t19.5 -46.5q8 -9 20.5 -20t27 -19.5t31 -11.5t33.5 6
q17 5 28.5 18.5t21 29.5t17.5 30.5t17.5 23t21.5 7t29 -18.5q-9 -26 -25 -50t-37 -43t-45.5 -30.5t-49.5 -11.5q-26 -9 -47.5 -2.5t-40 19t-36 27.5t-33.5 23q-26 -8 -47.5 -19.5t-40.5 -22t-36 -18t-34 -7.5q-101 0 -134 67q-34 34 -37 67.5t14 67.5q9 25 29 42.5t47.5 28
t60 15t65.5 4.5q9 8 21 13.5t24.5 11.5t24.5 15.5t20 26.5q0 17 -11 33.5t-11 33.5q-17 17 -41 22.5t-49 3t-49 -9.5t-41 -16q6 -7 11 -14q5 -6 8.5 -14.5t3.5 -16.5q-17 -17 -36.5 -31t-53.5 -14q-17 9 -25.5 21t-11 24.5t1.5 24.5t12 20q9 25 24.5 39.5t34.5 23t39 14
t37 13.5q25 0 53.5 -1t56 -7.5t51.5 -20t41 -38.5zM611 371q-17 17 -33.5 34t-33.5 34q-17 0 -30 -3.5t-26 -8t-26 -8t-30 -3.5q0 -17 -6.5 -30l-13 -26t-9 -26t5.5 -30h225q0 8 -3.5 16.5t-8 17t-8 17t-3.5 16.5zM320 259q-17 -17 -38 -23t-44 -8t-48 -3.5t-50 -10.5
q-8 0 -13 -7.5t-9 -18t-9 -22t-14 -19.5q0 -34 14 -53.5t31 -36.5h90q8 0 19.5 4.5t22 13t18 21t7.5 29.5l23 22q8 8 9 20.5t-1 27t-5 31t-3 33.5z" />
    <glyph glyph-name="ccedilla" unicode="&#xe7;" horiz-adv-x="524" 
d="M400 -100q0 -38 -34 -63q-36 -25 -76 -25q-38 0 -71 17q-35 16 -35 37q0 9 9 15q8 5 14 5q21 -10 32 -15q33 -15 45 -15q24 0 36 6q19 10 19 34q0 14 -9 27q-10 11 -23 11q-9 0 -21 -5q-28 -12 -33 -12q-9 0 -17 11q-8 6 -8 12v5l14 43q-62 17 -105.5 50.5t-59.5 96.5
q-24 16 -33 42t-9 56t7 60.5t15 54.5q8 8 11.5 15t5.5 13q2 7 3 14q24 32 55.5 52.5t65 32.5t68.5 16.5t67 4.5q16 -16 34.5 -18.5t50.5 -2.5l64 -85q-1 -27 -8.5 -49.5t-34.5 -35.5q-16 0 -28.5 0.5t-22 4.5t-18 13t-16.5 25q-8 8 -9 18.5t1 20.5q3 11 8 24q-24 -8 -44 -6
t-38 4t-34.5 -0.5t-32.5 -18.5q-8 0 -16 -7t-15.5 -17t-15.5 -21t-16 -19q-8 -32 -11.5 -66.5t2.5 -68.5t23 -65t49 -55q16 -8 35 -9t37 3t33 11.5t23 15.5l21 -21q8 16 19 28.5t21 24.5t17 24.5t7 28.5q16 17 32 19.5t32 2.5q8 -24 5.5 -44.5t-10.5 -38.5t-19 -34.5
t-19 -32.5q-77 -50 -153 -60l-7 -15l26 3q42 0 65 -15q30 -21 30 -62zM248 454q5 0 10.5 1t10.5 3q-12 5 -21 -4z" />
    <glyph glyph-name="egrave" unicode="&#xe8;" horiz-adv-x="551" 
d="M496 330q0 -17 2.5 -33t2.5 -30t-5.5 -26t-21.5 -20q-97 33 -193 0q-24 8 -44.5 9t-38.5 -1t-35 -5t-33 -3q-16 -16 -14.5 -28.5t9.5 -24.5t17.5 -25t9.5 -29q8 -16 19.5 -25t23.5 -15t23.5 -11t19.5 -13q65 0 113 29.5t80 77.5q17 0 30 -13t13 -30q0 -16 -7.5 -29
t-19.5 -25t-27 -25t-31 -29q-24 -8 -58.5 -14.5t-71 -6.5t-71 9.5t-58.5 33.5q-16 24 -35 45.5t-35 43.5t-26.5 47t-10.5 57q0 8 3.5 16.5t7.5 19t7.5 23t3.5 28.5q8 32 23.5 63t37.5 57.5t50 45.5t60 27q48 0 92 -11.5t80.5 -33.5t64 -54t43.5 -72zM410 308q0 8 -3.5 19
t-9.5 21t-14 17t-16 7q-16 8 -35.5 18.5t-40 16.5t-40 4.5t-35.5 -17.5q-8 -17 -22.5 -26.5t-28.5 -20t-24.5 -24t-10.5 -37.5q32 0 68 0.5t72 2.5t72 6.5t68 12.5zM248 702l11 10l76 -93l4 -4q-1 -14 -14 -25.5t-20 -17.5q-20 16 -36.5 34t-32 35.5t-33.5 33.5t-41 29
q4 11 16.5 24.5t27.5 29.5q7 7 10.5 7.5t5.5 -1.5t2.5 -5.5t2.5 -4.5q0 -8 4.5 -12t9 -8.5t7.5 -11t0 -20.5z" />
    <glyph glyph-name="eacute" unicode="&#xe9;" horiz-adv-x="538" 
d="M496 330q0 -17 2.5 -33t2.5 -30t-5.5 -26t-21.5 -20q-97 33 -193 0q-24 8 -44.5 9t-38.5 -1t-35 -5t-33 -3q-16 -16 -14.5 -28.5t9.5 -24.5t17.5 -25t9.5 -29q8 -16 19.5 -25t23.5 -15t23.5 -11t19.5 -13q65 0 113 29.5t80 77.5q17 0 30 -13t13 -30q0 -16 -7.5 -29
t-19.5 -25t-27 -25t-31 -29q-24 -8 -58.5 -14.5t-71 -6.5t-71 9.5t-58.5 33.5q-16 24 -35 45.5t-35 43.5t-26.5 47t-10.5 57q0 8 3.5 16.5t7.5 19t7.5 23t3.5 28.5q8 32 23.5 63t37.5 57.5t50 45.5t60 27q48 0 92 -11.5t80.5 -33.5t64 -54t43.5 -72zM410 308q0 8 -3.5 19
t-9.5 21t-14 17t-16 7q-16 8 -35.5 18.5t-40 16.5t-40 4.5t-35.5 -17.5q-8 -17 -22.5 -26.5t-28.5 -20t-24.5 -24t-10.5 -37.5q32 0 68 0.5t72 2.5t72 6.5t68 12.5zM238 679l-10 11l93 76l4 4q14 -1 25.5 -14t17.5 -20q-17 -20 -34.5 -36.5t-35 -32t-33.5 -33.5t-29 -41
q-11 4 -24.5 16.5t-29.5 27.5q-7 7 -8 10.5t1.5 5.5t6 2.5t4.5 2.5q8 0 12 4.5t8.5 9t11 7.5t20.5 0z" />
    <glyph glyph-name="ecircumflex" unicode="&#xea;" horiz-adv-x="539" 
d="M496 330q0 -17 2.5 -33t2.5 -30t-5.5 -26t-21.5 -20q-97 33 -193 0q-24 8 -44.5 9t-38.5 -1t-35 -5t-33 -3q-16 -16 -14.5 -28.5t9.5 -24.5t17.5 -25t9.5 -29q8 -16 19.5 -25t23.5 -15t23.5 -11t19.5 -13q65 0 113 29.5t80 77.5q17 0 30 -13t13 -30q0 -16 -7.5 -29
t-19.5 -25t-27 -25t-31 -29q-24 -8 -58.5 -14.5t-71 -6.5t-71 9.5t-58.5 33.5q-16 24 -35 45.5t-35 43.5t-26.5 47t-10.5 57q0 8 3.5 16.5t7.5 19t7.5 23t3.5 28.5q8 32 23.5 63t37.5 57.5t50 45.5t60 27q48 0 92 -11.5t80.5 -33.5t64 -54t43.5 -72zM410 308q0 8 -3.5 19
t-9.5 21t-14 17t-16 7q-16 8 -35.5 18.5t-40 16.5t-40 4.5t-35.5 -17.5q-8 -17 -22.5 -26.5t-28.5 -20t-24.5 -24t-10.5 -37.5q32 0 68 0.5t72 2.5t72 6.5t68 12.5zM370 615q-25 17 -33 27q-39 13 -48 36q0 6 -18 10l-4 22l-9 -2v-10l2 -10q-4 -4 -18 -5q-4 -10 -31 -19
l-2 -2l9 -12v-10q-10 0 -10 4q-15 0 -51 -28h-12l-13 -2q-13 20 -14 35l-1 12q0 15 22 19q19 23 43 40q26 13 26 24q0 16 31 23q8 21 15 27h2q9 -10 24 -10q26 -22 26 -39q0 -11 17 -11q7 -19 11 -19l14 1q7 -17 31 -17l10 -21q9 -3 9 -21q1 -32 -16 -38z" />
    <glyph glyph-name="edieresis" unicode="&#xeb;" horiz-adv-x="530" 
d="M496 330q0 -17 2.5 -33t2.5 -30t-5.5 -26t-21.5 -20q-97 33 -193 0q-24 8 -44.5 9t-38.5 -1t-35 -5t-33 -3q-16 -16 -14.5 -28.5t9.5 -24.5t17.5 -25t9.5 -29q8 -16 19.5 -25t23.5 -15t23.5 -11t19.5 -13q65 0 113 29.5t80 77.5q17 0 30 -13t13 -30q0 -16 -7.5 -29
t-19.5 -25t-27 -25t-31 -29q-24 -8 -58.5 -14.5t-71 -6.5t-71 9.5t-58.5 33.5q-16 24 -35 45.5t-35 43.5t-26.5 47t-10.5 57q0 8 3.5 16.5t7.5 19t7.5 23t3.5 28.5q8 32 23.5 63t37.5 57.5t50 45.5t60 27q48 0 92 -11.5t80.5 -33.5t64 -54t43.5 -72zM410 308q0 8 -3.5 19
t-9.5 21t-14 17t-16 7q-16 8 -35.5 18.5t-40 16.5t-40 4.5t-35.5 -17.5q-8 -17 -22.5 -26.5t-28.5 -20t-24.5 -24t-10.5 -37.5q32 0 68 0.5t72 2.5t72 6.5t68 12.5zM399 612q-11 -12 -23 -12t-33 12q-11 13 -13 32t-1 32q11 11 14 21.5t14 10.5q21 11 38.5 1t17.5 -34
q10 -6 11.5 -14.5t-2.5 -17.5t-11 -17t-12 -14zM173 598q-20 0 -32.5 10t-22.5 22q0 12 -2 21t-2 16.5t3.5 13.5t14.5 12q11 12 21 19.5t21 -4.5q10 0 16 -5.5t10 -14.5t7.5 -20t8.5 -23q-6 -6 -9.5 -12t-7.5 -12t-10 -11.5t-16 -11.5z" />
    <glyph glyph-name="igrave" unicode="&#xec;" horiz-adv-x="509" 
d="M295 475q16 -24 18 -48t0 -50t-4 -54.5t6 -59.5q0 -48 -10 -95t-10 -95q16 -8 35 -9t38.5 1t38.5 5t36 3h42q31 -33 0 -65v-20h-381q-17 0 -32.5 10t-31.5 10q-8 8 -5.5 16t8.5 16.5t12 16.5t6 16t3.5 9t9.5 -1t14 -5t16 -3q16 -8 34.5 -9t36.5 1t32.5 5t22.5 3
q-8 39 -8.5 82t1 87t4.5 87t3 83q-32 15 -76.5 5t-92.5 -27q-16 8 -21 19.5t-3 23.5t9 23t15 19h234zM189 702l11 10l76 -93l4 -4q-1 -14 -14 -25.5t-20 -17.5q-20 16 -36.5 34t-32 35.5t-33.5 33.5t-41 29q4 11 16.5 24.5t27.5 29.5q7 7 10.5 7.5t5.5 -1.5t2.5 -5.5
t2.5 -4.5q0 -8 4.5 -12t9 -8.5t7.5 -11t0 -20.5z" />
    <glyph glyph-name="iacute" unicode="&#xed;" horiz-adv-x="510" 
d="M291 475q16 -24 18 -48t0 -50t-4 -54.5t6 -59.5q0 -48 -10 -95t-10 -95q16 -8 35 -9t38.5 1t38.5 5t36 3h42q31 -33 0 -65v-20h-381q-17 0 -32.5 10t-31.5 10q-8 8 -5.5 16t8.5 16.5t12 16.5t6 16t3.5 9t9.5 -1t14 -5t16 -3q16 -8 34.5 -9t36.5 1t32.5 5t22.5 3
q-8 39 -8.5 82t1 87t4.5 87t3 83q-32 15 -76.5 5t-92.5 -27q-16 8 -21 19.5t-3 23.5t9 23t15 19h234zM178 709l-10 11l93 76l4 4q14 -1 25.5 -14t17.5 -20q-17 -20 -34.5 -36.5t-35 -32t-33.5 -33.5t-29 -41q-11 4 -24.5 16.5t-29.5 27.5q-7 7 -8 10.5t1.5 5.5t6 2.5
t4.5 2.5q8 0 12 4.5t8.5 9t11 7.5t20.5 0z" />
    <glyph glyph-name="icircumflex" unicode="&#xee;" horiz-adv-x="514" 
d="M294 475q16 -24 18 -48t0 -50t-4 -54.5t6 -59.5q0 -48 -10 -95t-10 -95q16 -8 35 -9t38.5 1t38.5 5t36 3h42q31 -33 0 -65v-20h-381q-17 0 -32.5 10t-31.5 10q-8 8 -5.5 16t8.5 16.5t12 16.5t6 16t3.5 9t9.5 -1t14 -5t16 -3q16 -8 34.5 -9t36.5 1t32.5 5t22.5 3
q-8 39 -8.5 82t1 87t4.5 87t3 83q-32 15 -76.5 5t-92.5 -27q-16 8 -21 19.5t-3 23.5t9 23t15 19h234zM325 598q-25 17 -33 27q-39 13 -48 36q0 6 -18 10l-4 22l-9 -2v-10l2 -10q-4 -4 -18 -5q-4 -10 -31 -19l-2 -2l9 -12v-10q-10 0 -10 4q-15 0 -51 -28h-12l-13 -2
q-13 20 -14 35l-1 12q0 15 22 19q19 23 43 40q26 13 26 24q0 16 31 23q8 21 15 27h2q9 -10 24 -10q26 -22 26 -39q0 -11 17 -11q7 -19 11 -19l14 1q7 -17 31 -17l10 -21q9 -3 9 -21q1 -32 -16 -38z" />
    <glyph glyph-name="idieresis" unicode="&#xef;" horiz-adv-x="524" 
d="M302 475q16 -24 18 -48t0 -50t-4 -54.5t6 -59.5q0 -48 -10 -95t-10 -95q16 -8 35 -9t38.5 1t38.5 5t36 3h42q31 -33 0 -65v-20h-381q-17 0 -32.5 10t-31.5 10q-8 8 -5.5 16t8.5 16.5t12 16.5t6 16t3.5 9t9.5 -1t14 -5t16 -3q16 -8 34.5 -9t36.5 1t32.5 5t22.5 3
q-8 39 -8.5 82t1 87t4.5 87t3 83q-32 15 -76.5 5t-92.5 -27q-16 8 -21 19.5t-3 23.5t9 23t15 19h234zM327 613q-11 -12 -23 -12t-33 12q-11 13 -13 32t-1 32q11 11 14 21.5t14 10.5q21 11 38.5 1t17.5 -34q10 -6 11.5 -14.5t-2.5 -17.5t-11 -17t-12 -14zM101 599
q-20 0 -32.5 10t-22.5 22q0 12 -2 21t-2 16.5t3.5 13.5t14.5 12q11 12 21 19.5t21 -4.5q10 0 16 -5.5t10 -14.5t7.5 -20t8.5 -23q-6 -6 -9.5 -12t-7.5 -12t-10 -11.5t-16 -11.5z" />
    <glyph glyph-name="eth" unicode="&#xf0;" horiz-adv-x="473" 
d="M217 571l-121 -66l-14 27l114 64q-33 33 -49 46.5t-43 30.5l13 21q58 -29 121 -75l121 68l17 -27l-112 -64q93 -80 140 -177t47 -188q0 -67 -28 -124t-78.5 -89t-112.5 -32q-88 0 -149.5 65.5t-61.5 163.5q0 103 68 179q57 63 137 63q24 0 43 -7q15 -5 40 -22
q-39 80 -92 143zM222 427q-47 0 -78.5 -39.5t-31.5 -134.5q0 -66 19.5 -122t53 -83t70.5 -27q45 0 75.5 38.5t30.5 124.5q0 110 -38.5 176.5t-100.5 66.5z" />
    <glyph glyph-name="ntilde" unicode="&#xf1;" horiz-adv-x="671" 
d="M217 453q0 -8 -3 -16.5t-5 -16.5t-1 -16.5t9 -17.5q9 0 17.5 7t17 15.5t17 15.5t16.5 7q8 25 24 35.5t35 15t38.5 6.5t36.5 10q16 0 32.5 -7.5t31.5 -18t27 -22t21 -19.5q8 -50 9 -97t-1 -93t-5 -93t-3 -97h44q9 9 14 10t9 -1.5t8.5 -5.5t12.5 -3q17 0 20 -13.5t3 -30.5
q-17 -17 -37 -22.5t-41 -5.5t-41 3t-37 3q-9 8 -27 6.5t-37 -4t-33 0t-14 19.5t2.5 30.5t18.5 13.5h90q-17 50 -16.5 100t2.5 98.5t-2 94t-29 87.5q-17 8 -37 8.5t-41 -6t-41.5 -18.5t-36.5 -29q-26 -17 -42.5 -44.5t-25 -61t-8.5 -70t8 -69.5q-8 -9 -9.5 -17t-1.5 -16.5
t-1 -16.5t-9 -17q11 -11 26.5 -16t31.5 -7.5t30.5 -4.5t23.5 -8.5t9.5 -18.5t-10.5 -34h-67q-25 0 -53.5 -3t-55.5 -3t-51 5.5t-40 22.5q8 8 6 16.5t-4 16.5t0 16.5t19 17.5q9 0 21 -3t24.5 -5.5t24.5 -1.5t20 10v357q-8 8 -20.5 3t-27 -11.5t-31 -7.5t-32.5 16
q0 8 3.5 19.5t9.5 22t14 18t17 7.5q11 -11 24 -12.5t26 1t25.5 6t23.5 2t20 -10.5t14 -31zM534 695q4 -7 -3 -22q-2 -6 -9.5 -11.5t-9.5 -7.5l-19 -23q-11 -1 -13 -3q-1 -10 -3 -13q-9 -5 -13 -8l-22 -8q-6 -5 -12.5 -9t-13.5 -7t-16 -3q-3 0 -6 1t-7 4h-19l-32 9
q-10 4 -16 7.5t-13 8.5l-24 18q-1 1 -2.5 8t-2.5 8q-11 -2 -17 3.5t-10 8.5t-14.5 7t-15.5 3q-4 0 -9.5 -4t-10 -6.5t-11.5 -5.5q-10 -10 -20 -19q-9 -2 -13 0q-4 3 -4 9q1 6 1 9q0 5 8 17q2 3 5.5 4.5t8.5 3.5q2 6 5 12l22 16q19 4 25 8t12 9q3 1 12 3t14 2q3 0 12 -2
t26 -12q5 -8 8 -12l19 -12l29 -18q14 -11 29 -21q10 -4 16 -5t17 -1q6 0 13 0.5t18 7.5q5 3 9 7l10 10l18 15l14 16q13 9 21 6q6 -1 9 -8z" />
    <glyph glyph-name="ograve" unicode="&#xf2;" horiz-adv-x="578" 
d="M490 382q32 -80 29.5 -160t-50.5 -160q-16 -16 -45.5 -31.5t-61.5 -31.5q-24 -8 -44.5 -15t-40.5 -9t-40.5 3t-44.5 21h-21q-40 16 -65 42.5t-41 58.5t-25.5 66.5t-17.5 66.5q0 16 6.5 28.5t15 24.5t15 24.5t6.5 28.5q8 32 26.5 56t42.5 42t50 30.5t50 20.5q24 0 48 -0.5
t48 -4.5t48 -13t48 -25zM426 318q-16 8 -25 19t-17 21t-17 17t-25 7q-24 8 -48 14.5t-48 6.5t-48 -9.5t-48 -33.5q-16 -16 -21.5 -32t-5.5 -34t2.5 -38.5t2.5 -44.5t7.5 -47t19.5 -43t27.5 -35.5t31.5 -23.5q48 -16 93 -13t77 35q24 24 36.5 54.5t16.5 62.5t0.5 62.5
t-11.5 54.5zM278 720l11 10l76 -93l4 -4q-1 -14 -14 -25.5t-20 -17.5q-20 16 -36.5 34t-32 35.5t-33.5 33.5t-41 29q4 11 16.5 24.5t27.5 29.5q7 7 10.5 7.5t5.5 -1.5t2.5 -5.5t2.5 -4.5q0 -8 4.5 -12t9 -8.5t7.5 -11t0 -20.5z" />
    <glyph glyph-name="oacute" unicode="&#xf3;" horiz-adv-x="559" 
d="M490 382q32 -80 29.5 -160t-50.5 -160q-16 -16 -45.5 -31.5t-61.5 -31.5q-24 -8 -44.5 -15t-40.5 -9t-40.5 3t-44.5 21h-21q-40 16 -65 42.5t-41 58.5t-25.5 66.5t-17.5 66.5q0 16 6.5 28.5t15 24.5t15 24.5t6.5 28.5q8 32 26.5 56t42.5 42t50 30.5t50 20.5q24 0 48 -0.5
t48 -4.5t48 -13t48 -25zM426 318q-16 8 -25 19t-17 21t-17 17t-25 7q-24 8 -48 14.5t-48 6.5t-48 -9.5t-48 -33.5q-16 -16 -21.5 -32t-5.5 -34t2.5 -38.5t2.5 -44.5t7.5 -47t19.5 -43t27.5 -35.5t31.5 -23.5q48 -16 93 -13t77 35q24 24 36.5 54.5t16.5 62.5t0.5 62.5
t-11.5 54.5zM259 684l-10 11l93 76l4 4q14 -1 25.5 -14t17.5 -20q-17 -20 -34.5 -36.5t-35 -32t-33.5 -33.5t-29 -41q-11 4 -24.5 16.5t-29.5 27.5q-7 7 -8 10.5t1.5 5.5t6 2.5t4.5 2.5q8 0 12 4.5t8.5 9t11 7.5t20.5 0z" />
    <glyph glyph-name="ocircumflex" unicode="&#xf4;" horiz-adv-x="566" 
d="M490 382q32 -80 29.5 -160t-50.5 -160q-16 -16 -45.5 -31.5t-61.5 -31.5q-24 -8 -44.5 -15t-40.5 -9t-40.5 3t-44.5 21h-21q-40 16 -65 42.5t-41 58.5t-25.5 66.5t-17.5 66.5q0 16 6.5 28.5t15 24.5t15 24.5t6.5 28.5q8 32 26.5 56t42.5 42t50 30.5t50 20.5q24 0 48 -0.5
t48 -4.5t48 -13t48 -25zM426 318q-16 8 -25 19t-17 21t-17 17t-25 7q-24 8 -48 14.5t-48 6.5t-48 -9.5t-48 -33.5q-16 -16 -21.5 -32t-5.5 -34t2.5 -38.5t2.5 -44.5t7.5 -47t19.5 -43t27.5 -35.5t31.5 -23.5q48 -16 93 -13t77 35q24 24 36.5 54.5t16.5 62.5t0.5 62.5
t-11.5 54.5zM390 615q-25 17 -33 27q-39 13 -48 36q0 6 -18 10l-4 22l-9 -2v-10l2 -10q-4 -4 -18 -5q-4 -10 -31 -19l-2 -2l9 -12v-10q-10 0 -10 4q-15 0 -51 -28h-12l-13 -2q-13 20 -14 35l-1 12q0 15 22 19q19 23 43 40q26 13 26 24q0 16 31 23q8 21 15 27h2q9 -10 24 -10
q26 -22 26 -39q0 -11 17 -11q7 -19 11 -19l14 1q7 -17 31 -17l10 -21q9 -3 9 -21q1 -32 -16 -38z" />
    <glyph glyph-name="otilde" unicode="&#xf5;" horiz-adv-x="564" 
d="M490 382q32 -80 29.5 -160t-50.5 -160q-16 -16 -45.5 -31.5t-61.5 -31.5q-24 -8 -44.5 -15t-40.5 -9t-40.5 3t-44.5 21h-21q-40 16 -65 42.5t-41 58.5t-25.5 66.5t-17.5 66.5q0 16 6.5 28.5t15 24.5t15 24.5t6.5 28.5q8 32 26.5 56t42.5 42t50 30.5t50 20.5q24 0 48 -0.5
t48 -4.5t48 -13t48 -25zM426 318q-16 8 -25 19t-17 21t-17 17t-25 7q-24 8 -48 14.5t-48 6.5t-48 -9.5t-48 -33.5q-16 -16 -21.5 -32t-5.5 -34t2.5 -38.5t2.5 -44.5t7.5 -47t19.5 -43t27.5 -35.5t31.5 -23.5q48 -16 93 -13t77 35q24 24 36.5 54.5t16.5 62.5t0.5 62.5
t-11.5 54.5zM469 712q4 -7 -3 -22q-2 -6 -9.5 -11.5t-9.5 -7.5l-19 -23q-11 -1 -13 -3q-1 -10 -3 -13q-9 -5 -13 -8l-22 -8q-6 -5 -12.5 -9t-13.5 -7t-16 -3q-3 0 -6 1t-7 4h-19l-32 9q-10 4 -16 7.5t-13 8.5l-24 18q-1 1 -2.5 8t-2.5 8q-11 -2 -17 3.5t-10 8.5t-14.5 7
t-15.5 3q-4 0 -9.5 -4t-10 -6.5t-11.5 -5.5q-10 -10 -20 -19q-9 -2 -13 0q-4 3 -4 9q1 6 1 9q0 5 8 17q2 3 5.5 4.5t8.5 3.5q2 6 5 12l22 16q19 4 25 8t12 9q3 1 12 3t14 2q3 0 12 -2t26 -12q5 -8 8 -12l19 -12l29 -18q14 -11 29 -21q10 -4 16 -5t17 -1q6 0 13 0.5t18 7.5
q5 3 9 7l10 10l18 15l14 16q13 9 21 6q6 -1 9 -8z" />
    <glyph glyph-name="odieresis" unicode="&#xf6;" horiz-adv-x="541" 
d="M490 382q32 -80 29.5 -160t-50.5 -160q-16 -16 -45.5 -31.5t-61.5 -31.5q-24 -8 -44.5 -15t-40.5 -9t-40.5 3t-44.5 21h-21q-40 16 -65 42.5t-41 58.5t-25.5 66.5t-17.5 66.5q0 16 6.5 28.5t15 24.5t15 24.5t6.5 28.5q8 32 26.5 56t42.5 42t50 30.5t50 20.5q24 0 48 -0.5
t48 -4.5t48 -13t48 -25zM426 318q-16 8 -25 19t-17 21t-17 17t-25 7q-24 8 -48 14.5t-48 6.5t-48 -9.5t-48 -33.5q-16 -16 -21.5 -32t-5.5 -34t2.5 -38.5t2.5 -44.5t7.5 -47t19.5 -43t27.5 -35.5t31.5 -23.5q48 -16 93 -13t77 35q24 24 36.5 54.5t16.5 62.5t0.5 62.5
t-11.5 54.5zM414 611q-11 -12 -23 -12t-33 12q-11 13 -13 32t-1 32q11 11 14 21.5t14 10.5q21 11 38.5 1t17.5 -34q10 -6 11.5 -14.5t-2.5 -17.5t-11 -17t-12 -14zM188 597q-20 0 -32.5 10t-22.5 22q0 12 -2 21t-2 16.5t3.5 13.5t14.5 12q11 12 21 19.5t21 -4.5
q10 0 16 -5.5t10 -14.5t7.5 -20t8.5 -23q-6 -6 -9.5 -12t-7.5 -12t-10 -11.5t-16 -11.5z" />
    <glyph glyph-name="divide" unicode="&#xf7;" horiz-adv-x="477" 
d="M295 370q0 -24 -15 -40q-16 -17 -41 -17q-23 0 -40 16t-17 41q0 24 17 41q16 16 40 16t40 -17t16 -40zM470 202h-463v68h463v-68zM295 101q0 -24 -15 -40q-16 -17 -41 -17q-24 0 -40 16q-17 15 -17 41q0 24 17 41q16 16 40 16q25 0 41 -15q15 -16 15 -42z" />
    <glyph glyph-name="oslash" unicode="&#xf8;" horiz-adv-x="577" 
d="M489 484q0 -8 -6.5 -13t-13 -9t-9 -9t6.5 -13q25 -33 41.5 -70.5t22.5 -75t1.5 -75t-20.5 -70.5q0 -33 -11.5 -52t-28 -31.5t-36.5 -23t-36 -27.5q-25 -17 -50 -22t-50.5 -5t-50.5 3t-50 3q0 8 -3.5 12t-7.5 6q-5 3 -11 3q0 -8 -3.5 -16t-7.5 -14q-5 -7 -11 -14
q-17 -8 -26.5 -9t-16 3.5t-11.5 12t-14 16.5q0 8 7 16t15.5 16.5t15.5 17t7 16.5q-17 9 -26.5 17.5t-15.5 19t-11 23t-13 29.5q-17 33 -22 66.5t-1 67.5t15.5 67.5t28.5 66.5q34 17 68 36t69.5 31.5t73.5 14.5t80 -15q6 0 11 -3q4 -2 7.5 -6.5t3.5 -12.5q9 8 14 16.5t9 16.5
t8.5 16.5t12.5 17.5q9 0 20 -4t19.5 -10.5t11.5 -14.5t-6 -16zM378 417q-9 17 -24 22.5t-32 5.5t-32 -2.5t-24 -2.5q-25 0 -46 -11.5t-37.5 -28t-29 -36.5t-21.5 -36q-8 -8 -9.5 -13t-1.5 -9t-1.5 -9t-9.5 -14q0 -25 1 -49.5t7.5 -47.5t20 -44t38.5 -37q8 16 16.5 36.5
t19 41.5t23.5 41t30 37q0 8 6.5 13t13 9t9 9t-5.5 14q16 8 26 20t18 26.5t18 31t27 33.5zM423 372q-17 -17 -30.5 -36.5t-26 -38.5t-26 -34.5t-29.5 -24.5q0 -16 -14 -32.5t-31 -33.5q-8 -17 -16.5 -30l-17 -26l-17 -26t-16.5 -30q17 -8 37 -12.5t41 -4.5t41 4.5t37 12.5
q33 0 51.5 15t29 38t16.5 50.5t15 53.5q0 33 -3 66.5t-20 67.5z" />
    <glyph glyph-name="ugrave" unicode="&#xf9;" horiz-adv-x="645" 
d="M196 455v-358q0 -17 7.5 -26t18 -13.5t22 -5t19.5 -0.5q42 0 72.5 15.5t53.5 40.5t41 57t35 66v179q-17 17 -30 22.5t-26 5.5t-26 -3t-30 -3v45q17 9 37 10t41 1t41 1.5t37 10.5q9 -17 10 -37.5t1 -41.5t1.5 -41t10.5 -37q-17 -51 -20 -112t-3 -112q0 -8 -3 -16.5t-5 -17
t-1 -17t9 -16.5q17 -8 33.5 -3t31 9t27 0.5t20.5 -28.5q0 -17 -13.5 -31t-30.5 -14q-9 0 -24.5 -3t-34.5 -3t-39 5.5t-37 22.5v67q-25 -25 -54 -45.5t-60.5 -33t-64.5 -16t-67 5.5q-17 8 -26.5 20t-15.5 24.5t-11.5 24.5t-13.5 20v291q0 9 3 17.5t5 16.5t1 16.5t-9 16.5
q-17 9 -33.5 4t-31 -9t-27 -0.5t-20.5 28.5q17 25 37 32t41 7t41.5 -1.5t37.5 7.5zM278 725l11 10l76 -93l4 -4q-1 -14 -14 -25.5t-20 -17.5q-20 16 -36.5 34t-32 35.5t-33.5 33.5t-41 29q4 11 16.5 24.5t27.5 29.5q7 7 10.5 7.5t5.5 -1.5t2.5 -5.5t2.5 -4.5q0 -8 4.5 -12
t9 -8.5t7.5 -11t0 -20.5z" />
    <glyph glyph-name="uacute" unicode="&#xfa;" horiz-adv-x="650" 
d="M196 455v-358q0 -17 7.5 -26t18 -13.5t22 -5t19.5 -0.5q42 0 72.5 15.5t53.5 40.5t41 57t35 66v179q-17 17 -30 22.5t-26 5.5t-26 -3t-30 -3v45q17 9 37 10t41 1t41 1.5t37 10.5q9 -17 10 -37.5t1 -41.5t1.5 -41t10.5 -37q-17 -51 -20 -112t-3 -112q0 -8 -3 -16.5t-5 -17
t-1 -17t9 -16.5q17 -8 33.5 -3t31 9t27 0.5t20.5 -28.5q0 -17 -13.5 -31t-30.5 -14q-9 0 -24.5 -3t-34.5 -3t-39 5.5t-37 22.5v67q-25 -25 -54 -45.5t-60.5 -33t-64.5 -16t-67 5.5q-17 8 -26.5 20t-15.5 24.5t-11.5 24.5t-13.5 20v291q0 9 3 17.5t5 16.5t1 16.5t-9 16.5
q-17 9 -33.5 4t-31 -9t-27 -0.5t-20.5 28.5q17 25 37 32t41 7t41.5 -1.5t37.5 7.5zM244 687l-10 11l93 76l4 4q14 -1 25.5 -14t17.5 -20q-17 -20 -34.5 -36.5t-35 -32t-33.5 -33.5t-29 -41q-11 4 -24.5 16.5t-29.5 27.5q-7 7 -8 10.5t1.5 5.5t6 2.5t4.5 2.5q8 0 12 4.5
t8.5 9t11 7.5t20.5 0z" />
    <glyph glyph-name="ucircumflex" unicode="&#xfb;" horiz-adv-x="648" 
d="M196 455v-358q0 -17 7.5 -26t18 -13.5t22 -5t19.5 -0.5q42 0 72.5 15.5t53.5 40.5t41 57t35 66v179q-17 17 -30 22.5t-26 5.5t-26 -3t-30 -3v45q17 9 37 10t41 1t41 1.5t37 10.5q9 -17 10 -37.5t1 -41.5t1.5 -41t10.5 -37q-17 -51 -20 -112t-3 -112q0 -8 -3 -16.5t-5 -17
t-1 -17t9 -16.5q17 -8 33.5 -3t31 9t27 0.5t20.5 -28.5q0 -17 -13.5 -31t-30.5 -14q-9 0 -24.5 -3t-34.5 -3t-39 5.5t-37 22.5v67q-25 -25 -54 -45.5t-60.5 -33t-64.5 -16t-67 5.5q-17 8 -26.5 20t-15.5 24.5t-11.5 24.5t-13.5 20v291q0 9 3 17.5t5 16.5t1 16.5t-9 16.5
q-17 9 -33.5 4t-31 -9t-27 -0.5t-20.5 28.5q17 25 37 32t41 7t41.5 -1.5t37.5 7.5zM400 611q-25 17 -33 27q-39 13 -48 36q0 6 -18 10l-4 22l-9 -2v-10l2 -10q-4 -4 -18 -5q-4 -10 -31 -19l-2 -2l9 -12v-10q-10 0 -10 4q-15 0 -51 -28h-12l-13 -2q-13 20 -14 35l-1 12
q0 15 22 19q19 23 43 40q26 13 26 24q0 16 31 23q8 21 15 27h2q9 -10 24 -10q26 -22 26 -39q0 -11 17 -11q7 -19 11 -19l14 1q7 -17 31 -17l10 -21q9 -3 9 -21q1 -32 -16 -38z" />
    <glyph glyph-name="udieresis" unicode="&#xfc;" horiz-adv-x="642" 
d="M196 455v-358q0 -17 7.5 -26t18 -13.5t22 -5t19.5 -0.5q42 0 72.5 15.5t53.5 40.5t41 57t35 66v179q-17 17 -30 22.5t-26 5.5t-26 -3t-30 -3v45q17 9 37 10t41 1t41 1.5t37 10.5q9 -17 10 -37.5t1 -41.5t1.5 -41t10.5 -37q-17 -51 -20 -112t-3 -112q0 -8 -3 -16.5t-5 -17
t-1 -17t9 -16.5q17 -8 33.5 -3t31 9t27 0.5t20.5 -28.5q0 -17 -13.5 -31t-30.5 -14q-9 0 -24.5 -3t-34.5 -3t-39 5.5t-37 22.5v67q-25 -25 -54 -45.5t-60.5 -33t-64.5 -16t-67 5.5q-17 8 -26.5 20t-15.5 24.5t-11.5 24.5t-13.5 20v291q0 9 3 17.5t5 16.5t1 16.5t-9 16.5
q-17 9 -33.5 4t-31 -9t-27 -0.5t-20.5 28.5q17 25 37 32t41 7t41.5 -1.5t37.5 7.5zM419 636q-11 -12 -23 -12t-33 12q-11 13 -13 32t-1 32q11 11 14 21.5t14 10.5q21 11 38.5 1t17.5 -34q10 -6 11.5 -14.5t-2.5 -17.5t-11 -17t-12 -14zM193 622q-20 0 -32.5 10t-22.5 22
q0 12 -2 21t-2 16.5t3.5 13.5t14.5 12q11 12 21 19.5t21 -4.5q10 0 16 -5.5t10 -14.5t7.5 -20t8.5 -23q-6 -6 -9.5 -12t-7.5 -12t-10 -11.5t-16 -11.5z" />
    <glyph glyph-name="yacute" unicode="&#xfd;" horiz-adv-x="652" 
d="M602 432q8 -8 9 -16.5t-1 -16.5t-5 -16t-3 -16q-16 0 -28.5 3.5t-24.5 7t-25 7t-29 3.5q-8 -16 -13 -38.5t-9 -46.5t-8.5 -47t-12.5 -39q-16 -49 -35 -94.5t-35 -92t-27 -96t-11 -105.5q-8 -17 -19.5 -26.5t-23.5 -17.5t-23.5 -17t-19.5 -25q-17 8 -36 6.5t-39.5 -3.5
t-40 0t-35.5 19q-17 15 -29.5 34t-12.5 52q0 8 -3 19.5t-3 25.5t5 30t21 32q8 -8 16.5 -9.5t16.5 -1.5t16.5 -1.5t16.5 -9.5q6 -6 10 -13q4 -6 7.5 -13.5t3.5 -15.5q-8 0 -12.5 -9.5t-8.5 -19.5t-8.5 -16t-12.5 1l21 -21q32 -17 61 -14t46 36q16 48 32 85.5t32 85.5
q0 16 -7 29t-17 25.5t-21 25t-19 29.5q-17 48 -33 83t-31 66q0 33 -16.5 62.5t-48.5 45.5q-8 0 -22.5 -5.5t-28.5 -7.5t-24.5 4.5t-10.5 30.5q-8 8 -9 16t3.5 14t12 10t15.5 4h214q33 -33 0 -66h-65v-21q24 -33 38.5 -65t26.5 -64.5t26.5 -64.5t38.5 -64q8 0 12.5 7t6.5 17
t2.5 21t0.5 19q-8 8 -3 16.5t13.5 16.5t13.5 16.5t-3 16.5q17 31 30.5 63.5t13.5 64.5q-17 8 -32 13t-25 13.5t-13 22t5 38.5h173q31 0 47 -2.5t16 -19.5zM280 714l-10 11l93 76l4 4q14 -1 25.5 -14t17.5 -20q-17 -20 -34.5 -36.5t-35 -32t-33.5 -33.5t-29 -41
q-11 4 -24.5 16.5t-29.5 27.5q-7 7 -8 10.5t1.5 5.5t6 2.5t4.5 2.5q8 0 12 4.5t8.5 9t11 7.5t20.5 0z" />
    <glyph glyph-name="thorn" unicode="&#xfe;" horiz-adv-x="324" 
d="M133 573q-1 -5 -1.5 -9.5t0.5 -9.5q-2 -8 -2 -18t-4 -16q9 -12 8 -22t-4 -20t-4 -20t9 -22q-5 -8 -6.5 -10.5t-7.5 -11.5q-3 -10 -4.5 -23t-3 -26.5t-3.5 -26t-6 -20.5q4 -3 4 -5t-1.5 -4.5t-2 -4.5t4.5 -5q2 3 3 2t1.5 -4.5t-0.5 -13.5q4 -3 3.5 -5t-0.5 -5t1.5 -7
t10.5 -9q-9 -14 -7.5 -29.5t-5.5 -34.5q-4 -4 -2 -6q-2 -2 -3 -5t-3 -5l9 -35q-6 -9 -4.5 -18.5t4 -19.5t3.5 -20t-4 -18t-3 -19t11 -17q1 -7 -2.5 -13t-9 -10t-11.5 -5t-10 2q-6 -2 -12.5 1.5t-12 8.5t-10.5 10t-9 8q4 15 4.5 32t1 33.5t3 32.5t10.5 28q-5 20 -4 37t4 32.5
t5.5 31t2.5 32.5q2 22 -1 46.5t-1 46.5q2 58 0 124.5t-10 128.5q8 12 7 25t-2.5 27t1 28t17.5 28q10 6 17.5 5t14.5 -4t13.5 -6t13.5 -1q5 -9 7 -16.5t2.5 -13.5t0.5 -11.5t2 -11.5q-6 -9 -15.5 -14.5t-6.5 -18.5q-2 -19 0.5 -40t2.5 -40h-3zM115 193q5 5 17.5 13.5t27 18.5
t29.5 21t24 22q17 19 26 43t12 48.5t0.5 48.5t-8.5 43q-11 6 -17.5 14.5t-12.5 16.5t-12.5 13.5t-17.5 5.5q-14 3 -31 16t-20 37q1 2 1.5 2.5t1.5 2.5q0 3 0.5 6.5t0.5 7.5q17 0 29.5 1t24 0t24 -6t29.5 -17l47 -50q23 -63 21 -125.5t-37 -125.5q-11 -12 -32.5 -24.5
t-44.5 -24.5q-44 -11 -63 -14t-21 0q1 2 1 3t1 3z" />
    <glyph glyph-name="ydieresis" unicode="&#xff;" horiz-adv-x="632" 
d="M602 432q8 -8 9 -16.5t-1 -16.5t-5 -16t-3 -16q-16 0 -28.5 3.5t-24.5 7t-25 7t-29 3.5q-8 -16 -13 -38.5t-9 -46.5t-8.5 -47t-12.5 -39q-16 -49 -35 -94.5t-35 -92t-27 -96t-11 -105.5q-8 -17 -19.5 -26.5t-23.5 -17.5t-23.5 -17t-19.5 -25q-17 8 -36 6.5t-39.5 -3.5
t-40 0t-35.5 19q-17 15 -29.5 34t-12.5 52q0 8 -3 19.5t-3 25.5t5 30t21 32q8 -8 16.5 -9.5t16.5 -1.5t16.5 -1.5t16.5 -9.5q6 -6 10 -13q4 -6 7.5 -13.5t3.5 -15.5q-8 0 -12.5 -9.5t-8.5 -19.5t-8.5 -16t-12.5 1l21 -21q32 -17 61 -14t46 36q16 48 32 85.5t32 85.5
q0 16 -7 29t-17 25.5t-21 25t-19 29.5q-17 48 -33 83t-31 66q0 33 -16.5 62.5t-48.5 45.5q-8 0 -22.5 -5.5t-28.5 -7.5t-24.5 4.5t-10.5 30.5q-8 8 -9 16t3.5 14t12 10t15.5 4h214q33 -33 0 -66h-65v-21q24 -33 38.5 -65t26.5 -64.5t26.5 -64.5t38.5 -64q8 0 12.5 7t6.5 17
t2.5 21t0.5 19q-8 8 -3 16.5t13.5 16.5t13.5 16.5t-3 16.5q17 31 30.5 63.5t13.5 64.5q-17 8 -32 13t-25 13.5t-13 22t5 38.5h173q31 0 47 -2.5t16 -19.5zM445 629q-11 -12 -23 -12t-33 12q-11 13 -13 32t-1 32q11 11 14 21.5t14 10.5q21 11 38.5 1t17.5 -34
q10 -6 11.5 -14.5t-2.5 -17.5t-11 -17t-12 -14zM219 615q-20 0 -32.5 10t-22.5 22q0 12 -2 21t-2 16.5t3.5 13.5t14.5 12q11 12 21 19.5t21 -4.5q10 0 16 -5.5t10 -14.5t7.5 -20t8.5 -23q-6 -6 -9.5 -12t-7.5 -12t-10 -11.5t-16 -11.5z" />
    <glyph glyph-name="dotlessi" unicode="&#x131;" horiz-adv-x="640" 
d="M293 475q16 -24 18 -48t0 -50t-4 -54.5t6 -59.5q0 -44 -4 -88.5t-7 -81.5t-1 -63t14 -32l-75 5q-11 1 -16.5 0.5t-7.5 1t-1.5 5t0.5 11.5l-7 15q16 -8 18 -3.5t0 13.5l-4 18t6 9q-8 39 -8.5 82t1 87t4.5 87t3 83q-32 15 -76.5 5t-92.5 -27q-16 8 -21 19.5t-3 23.5t9 23
t15 19h234z" />
    <glyph glyph-name="Lslash" unicode="&#x141;" horiz-adv-x="556" 
d="M131 273l-9 12l201 160l11 9q12 2 19.5 -2t12.5 -10.5t8.5 -13.5t6.5 -11q-40 -40 -79.5 -73t-78.5 -66t-77 -68.5t-75 -79.5q-15 2 -29 17t-28 33q-7 9 -6 14.5t6 9.5t12 7t11 6q11 2 20 10.5t19 18t23 18t32 9.5zM303 589q0 7 3.5 8t8.5 -1t12 -4.5t14 -2.5q4 -6 7 -10
q2 -4 1.5 -7t-8.5 -3l-19 -19h-116q0 -58 3 -119.5t4.5 -127t0.5 -134t-8 -141.5q36 -7 69.5 -5t66 5.5t66 5t69.5 -5.5q7 0 5 6.5t-5.5 15.5t-5.5 19t6 17q-8 7 -8.5 11.5t1 8.5t4.5 8t3 11q7 15 3 32t-6 31.5t5 24t36 9.5q7 0 8 -6.5t-0.5 -15.5t-4.5 -19t-3 -17
q7 -22 5.5 -43.5t-5 -43.5t-5.5 -43.5t5 -43.5h-444q-7 -8 -17 -8.5t-19 3.5t-15.5 10.5t-6.5 13.5q0 22 12.5 25t28.5 -1l32 -8t24 3q7 0 14 -2.5t14.5 -4.5t14.5 -1t15 8v464q0 14 -2.5 29t-17.5 29h-116q-7 15 -5 23t7.5 13.5t11.5 10t6 11.5q29 -7 61 -8.5t64.5 -1.5
t64.5 -1t61 -8z" />
    <glyph glyph-name="lslash" unicode="&#x142;" horiz-adv-x="607" 
d="M225 298l-9 12l201 160l11 9q12 2 19.5 -2t12.5 -10.5t8.5 -13.5t6.5 -11q-40 -40 -79.5 -73t-78.5 -66t-77 -68.5t-75 -79.5q-15 2 -29 17t-28 33q-7 9 -6 14.5t6 9.5t12 7t11 6q11 2 20 10.5t19 18t23 18t32 9.5zM285 651q8 8 15.5 8.5t13 -3t9 -11t3.5 -14.5v-537
q-8 0 -8.5 -3.5t1 -9.5t4.5 -13.5t3 -15.5h187q7 0 14.5 -3.5t11 -9.5t3 -13.5t-8.5 -14.5q-8 -15 -18.5 -20.5t-22.5 -5.5t-23 2.5t-19 2.5q-39 -8 -74 -8.5t-67.5 1t-64 4.5t-62.5 3q-23 0 -39.5 -3t-30 -4.5t-26 -1t-28.5 8.5q-15 0 -20.5 4t-5.5 11.5t2.5 19.5t2.5 27
q24 16 44.5 15t41.5 -7t45.5 -11t55.5 3q0 -8 3 -9t7 1q4 3 10 8q16 17 18.5 32t2.5 30q-8 46 -6 96t5.5 100.5t5.5 100t-5 96.5v61q-10 16 -31 18t-45.5 -0.5t-50 -6t-45 0t-30 19.5t-5.5 52h227z" />
    <glyph glyph-name="OE" unicode="&#x152;" horiz-adv-x="1666" 
d="M638 582q37 -29 59.5 -71.5t35.5 -92t17.5 -103.5t4.5 -105q-15 -29 -33.5 -63.5t-42.5 -65.5t-53.5 -55t-66.5 -31q-146 -30 -234 118q0 14 -6.5 26t-14 24.5t-13.5 28.5t-6 38q-7 44 -3.5 90.5t16 92.5t34.5 89t51 80q15 0 26.5 6t22.5 13.5t22.5 13.5t26.5 6
q45 0 86 -5t71 -34zM619 543q-15 15 -36.5 22.5t-45.5 9t-48.5 -2t-46.5 -10.5q-15 -15 -32 -33t-31.5 -38t-24.5 -41.5t-10 -43.5q-14 -30 -16.5 -69t-2.5 -69q0 -22 9.5 -47t24.5 -50.5t32 -50.5t32 -47q29 -29 70.5 -31.5t85.5 11.5q37 22 63 57.5t42.5 77.5t24 88
t7.5 90q-15 30 -29.5 69t-29.5 69zM1115 599q0 -23 6 -45t9.5 -43t1.5 -40t-17 -34q-8 0 -12 0.5t-8 2t-8.5 5.5t-12.5 12v122h-302l-20 -161q7 -8 8.5 -16t1.5 -17.5t1 -21.5t9 -27q30 -15 73 -12.5t88 33.5q0 7 -3 18t-4.5 22.5t-1 22t8.5 17.5q15 -7 23.5 -21t12.5 -29
t4.5 -29t0.5 -22q-8 -15 -6.5 -33t3.5 -37t-0.5 -37.5t-17.5 -33.5q-15 7 -20 18.5t-5 24.5t2.5 28t2.5 30h-20q-15 0 -33.5 3t-37 4.5t-37 0.5t-33.5 -8v-263h283q15 23 20 45.5t7 43t3.5 39.5t9.5 34q0 8 3 11.5t7 5.5t10 3q15 -23 17 -49t-1.5 -52t-9.5 -52t-6 -48
q-8 -15 -21.5 -17.5t-28.5 -0.5t-29 3.5t-22 -6.5h-404q0 8 -3 9t-4.5 1t-1 1.5t8.5 9.5q0 15 13.5 17t32 0t39.5 -3.5t36 5.5q8 7 6 15t-5.5 18t-6 21.5t5.5 26.5v465q-15 7 -33 5.5t-37 -3.5t-37.5 0.5t-33.5 17.5q31 15 60.5 17.5t60.5 2.5h363q8 0 12.5 -0.5t8.5 -2
t8 -6t12 -11.5z" />
    <glyph glyph-name="oe" unicode="&#x153;" horiz-adv-x="1666" 
d="M771 388q32 -80 29.5 -160t-50.5 -160q-16 -16 -45.5 -31.5t-61.5 -31.5q-24 -8 -44.5 -15t-40.5 -9t-40.5 3t-44.5 21h-21q-40 16 -65 42.5t-41 58.5t-25.5 66.5t-17.5 66.5q0 16 6.5 28.5t15 24.5t15 24.5t6.5 28.5q8 32 26.5 56t42.5 42t50 30.5t50 20.5q24 0 48 -0.5
t48 -4.5t48 -13t48 -25zM707 324q-16 8 -25 19t-17 21t-17 17t-25 7q-24 8 -48 14.5t-48 6.5t-48 -9.5t-48 -33.5q-16 -16 -21.5 -32t-5.5 -34t2.5 -38.5t2.5 -44.5t7.5 -47t19.5 -43t27.5 -35.5t31.5 -23.5q48 -16 93 -13t77 35q24 24 36.5 54.5t16.5 62.5t0.5 62.5
t-11.5 54.5zM1202 330q0 -17 2.5 -33t2.5 -30t-5.5 -26t-21.5 -20q-97 33 -193 0q-24 8 -44.5 9t-38.5 -1t-35 -5t-33 -3q-16 -16 -14.5 -28.5t9.5 -24.5t17.5 -25t9.5 -29q8 -16 19.5 -25t23.5 -15t23.5 -11t19.5 -13q65 0 113 29.5t80 77.5q17 0 30 -13t13 -30
q0 -16 -7.5 -29t-19.5 -25t-27 -25t-31 -29q-24 -8 -58.5 -14.5t-71 -6.5t-71 9.5t-58.5 33.5q-16 24 -35 45.5t-35 43.5t-26.5 47t-10.5 57q0 8 3.5 16.5t7.5 19t7.5 23t3.5 28.5q8 32 23.5 63t37.5 57.5t50 45.5t60 27q48 0 92 -11.5t80.5 -33.5t64 -54t43.5 -72z
M1116 308q0 8 -3.5 19t-9.5 21t-14 17t-16 7q-16 8 -35.5 18.5t-40 16.5t-40 4.5t-35.5 -17.5q-8 -17 -22.5 -26.5t-28.5 -20t-24.5 -24t-10.5 -37.5q32 0 68 0.5t72 2.5t72 6.5t68 12.5z" />
    <glyph glyph-name="Scaron" unicode="&#x160;" horiz-adv-x="527" 
d="M412 564q7 8 11.5 19t8.5 20.5t8.5 16.5t12.5 7q15 -8 20 -16t5 -16t-2.5 -15.5t-2.5 -15.5q-15 -31 -17.5 -64t-2.5 -79h-41q-16 15 -18.5 30t-2.5 28.5t-2.5 24.5t-18.5 19q0 8 -6.5 18.5t-16.5 20.5t-20.5 16.5t-18.5 6.5q-31 15 -61 5t-61 -26q-16 -8 -24.5 -19
t-14.5 -24.5t-11 -28.5t-13 -30q0 -31 18 -61.5t65 -62.5q31 0 64.5 -1t66 -6.5t62.5 -18t54 -35.5q30 -31 43 -74t-3 -90q0 -32 -25 -60t-56 -43q-24 -15 -53.5 -23t-60.5 -8t-60 8t-52 23l-83 61q-15 -8 -21 -24.5t-10 -31.5t-10 -24.5t-21 -1.5q-15 0 -17.5 2.5
t-2.5 18.5q15 23 20.5 52.5t7.5 60.5t3.5 60.5t9.5 52.5q15 0 20.5 -10t7.5 -23.5t3.5 -27t9.5 -21.5q31 -47 62 -77.5t62 -46.5q23 0 45.5 -2.5t43.5 -2.5t40 5.5t34 20.5q63 61 63 124q-16 30 -33.5 58t-49.5 44q-39 7 -83 13t-84.5 19.5t-73 39t-47.5 72.5q0 31 4.5 61
t16.5 57t32 49.5t51 38.5q7 0 18.5 3t25 4.5t28.5 0.5t30 -8q15 -8 33.5 -10t35.5 -6t32 -13.5t23 -33.5zM162 938q25 -17 33 -27q38 -14 47 -37q0 -6 18 -10l4 -22l9 2v10l-2 10q4 4 18 4q4 10 31 19l2 2l-8 12v10q10 0 10 -4q15 0 51 27h12l13 2q13 -20 14 -35v-12
q0 -15 -22 -19q-19 -23 -43 -39q-27 -13 -27 -24q0 -16 -31 -23q-8 -20 -16 -26h-2q-8 10 -23 10q-26 22 -26 39q0 11 -17 12q-6 19 -10 19l-14 -1q-7 17 -31 17l-10 22q-9 3 -9 21q0 32 17 37z" />
    <glyph glyph-name="scaron" unicode="&#x161;" horiz-adv-x="833" 
d="M321 473q16 8 32 0t32.5 -14t32.5 -1.5t33 36.5q7 0 11.5 -3.5t8.5 -7t9 -7t13 -3.5q0 -16 3 -35t5 -37.5t1 -33.5t-9 -24q-16 -8 -25 -5t-15 11.5t-11 19t-13 18.5t-16 9t-16.5 1t-16.5 1.5t-16 9.5q-24 8 -54.5 15t-62.5 7t-63 -9.5t-55 -33.5q0 -8 -3 -12.5t-5 -8.5
t-1 -9t9 -14l43 -42q48 -8 95.5 -10.5t91.5 -10.5t84 -27t72 -59q8 -16 8.5 -32t-3.5 -32t-11.5 -32t-15.5 -32q-8 -24 -26.5 -37.5t-40.5 -19.5t-44 -7t-38 -1q-32 -8 -63.5 -11t-60 1t-52 16.5t-39.5 36.5q-16 0 -28.5 -12.5t-25 -24.5t-25 -17t-28.5 11q0 24 9.5 45
t17.5 41.5t9.5 41t-14.5 44.5q0 8 -3 15.5t-5 13.5t-1 10t9 4q7 8 15 8.5t16.5 -3.5t16 -11.5l15.5 -15.5q0 -16 1 -35t7 -37t19.5 -33t37.5 -23q24 -16 58 -21t70 -1t70.5 15.5t58.5 27.5q17 17 19.5 46t2.5 61q-20 24 -48 35.5t-60.5 16t-66.5 5t-66 2.5t-60.5 8.5
t-48.5 23t-30.5 46t-6.5 77.5q9 8 17.5 19.5t18 21.5t22 17t28.5 7q8 8 19.5 9t23.5 1t23.5 1.5t19.5 9.5q8 -16 19.5 -15.5t23.5 4.5t23 5t19 -15zM207 767q25 -17 33 -27q38 -14 47 -37q0 -6 18 -10l4 -22l9 2v10l-2 10q4 4 18 4q4 10 31 19l2 2l-8 12v10q10 0 10 -4
q15 0 51 27h12l13 2q13 -20 14 -35v-12q0 -15 -22 -19q-19 -23 -43 -39q-27 -13 -27 -24q0 -16 -31 -23q-8 -20 -16 -26h-2q-8 10 -23 10q-26 22 -26 39q0 11 -17 12q-6 19 -10 19l-14 -1q-7 17 -31 17l-10 22q-9 3 -9 21q0 32 17 37z" />
    <glyph glyph-name="Ydieresis" unicode="&#x178;" horiz-adv-x="545" 
d="M198 587q14 0 16.5 -11.5t2.5 -25.5h-56q7 -14 8.5 -27.5t3 -25.5t6.5 -22.5t19 -17.5q-7 -14 -5 -25.5t7.5 -23.5t11 -27t5.5 -36q7 -7 11 -14.5t7.5 -16t7.5 -19t11 -24.5q14 14 22.5 33.5t15.5 40.5t15 41t22 34q0 14 6 28t12.5 30t12.5 33.5t6 38.5q-7 7 -19 5.5
t-22.5 -3t-16 0.5t1.5 16q14 14 37.5 14t37.5 -14q14 0 31 5t34 8.5t34 2t31 -15.5q-7 -21 -20 -24t-28.5 -1.5t-32.5 1.5t-31 -14q-7 -14 -11 -27.5t-7.5 -25.5t-7.5 -22.5t-11 -17.5q-28 -56 -46.5 -111.5t-46.5 -111.5q7 -21 5.5 -42.5t-3 -44t0.5 -47.5t16 -53l111 19
q0 -7 3 -11t6.5 -7.5t6.5 -7.5t3 -11l-37 -19h-224q-8 7 -14.5 8t-11.5 -1q-6 -2 -11 -7q-28 28 0 56q14 0 30.5 -2.5t32 -4.5t29 -1t20.5 8q0 28 2 55.5t2 53.5t-4.5 50.5t-18.5 45.5q-28 70 -56 139.5t-56 139.5q-7 14 -17 16t-22.5 0.5t-26 -3t-27.5 5.5q0 7 3 11
t6.5 7.5t6.5 7.5t3 11q21 -7 42 -7.5t41.5 1t41.5 4t42 2.5zM386 772q-11 -12 -23 -12t-33 12q-11 13 -13 32t-1 32q11 11 14 21.5t14 10.5q21 11 38.5 1t17.5 -34q10 -6 11.5 -14.5t-2.5 -17.5t-11 -17t-12 -14zM160 758q-20 0 -32.5 10t-22.5 22q0 12 -2 21t-2 16.5
t3.5 13.5t14.5 12q11 12 21 19.5t21 -4.5q10 0 16 -5.5t10 -14.5t7.5 -20t8.5 -23q-6 -6 -9.5 -12t-7.5 -12t-10 -11.5t-16 -11.5z" />
    <glyph glyph-name="Zcaron" unicode="&#x17d;" horiz-adv-x="586" 
d="M491 601v-39q-29 -44 -58 -84.5t-56 -80t-52 -80.5t-47 -84q-8 -15 -18 -26.5t-21 -22t-21.5 -22t-17.5 -26.5q-7 -14 -17.5 -28.5l-21 -29l-21 -29t-17.5 -29.5q7 -7 17.5 -5.5t21 5.5t21 5.5t17.5 -5.5q15 0 26.5 3t22 6.5t22 6.5t26.5 3q7 -7 14.5 -2.5t14.5 10
t14.5 6.5t14.5 -14h20q29 -14 46 -4.5t31 24.5q0 15 2.5 32.5t4.5 35.5t1 35.5t-8 31.5q15 7 17 14.5t0 15t-3.5 14.5t5.5 14h58q0 -14 -0.5 -25.5t-2 -22.5t-5.5 -22.5t-11 -25.5l19 -20q-7 -7 -5.5 -17.5t3.5 -21t0 -21t-17 -17.5q0 -15 -2.5 -39t-16.5 -39h-407
q-7 0 -13.5 3.5t-10.5 9t-3.5 12.5t8.5 14q22 22 34.5 43.5t23.5 43.5t23.5 43.5t34.5 43.5q15 22 29.5 40.5t28.5 37t28.5 37t29.5 40.5q0 15 12 27t27 12q14 44 31 75.5t46 60.5q7 14 2 19t-14 7t-17.5 3.5t-8.5 8.5q-59 -14 -116.5 -16.5t-116.5 -2.5q-7 -29 -5.5 -55
t3.5 -49.5t0 -45.5t-17 -44q-15 -7 -23 -4.5t-13.5 10t-10 17t-11.5 16.5q14 7 16 14.5t0.5 14.5t-3 14.5t5.5 14.5q5 10 3 25t-6 32.5t-7 35t0 31t14 22.5t35 9q7 -7 14.5 -8t14.5 1t14.5 4.5t14.5 2.5h97q7 -7 17.5 -8t21 1t21 4.5t17.5 2.5h136zM146 914q25 -17 33 -27
q38 -14 47 -37q0 -6 18 -10l4 -22l9 2v10l-2 10q4 4 18 4q4 10 31 19l2 2l-8 12v10q10 0 10 -4q15 0 51 27h12l13 2q13 -20 14 -35v-12q0 -15 -22 -19q-19 -23 -43 -39q-27 -13 -27 -24q0 -16 -31 -23q-8 -20 -16 -26h-2q-8 10 -23 10q-26 22 -26 39q0 11 -17 12
q-6 19 -10 19l-14 -1q-7 17 -31 17l-10 22q-9 3 -9 21q0 32 17 37z" />
    <glyph glyph-name="zcaron" unicode="&#x17e;" horiz-adv-x="592" 
d="M349 490q17 9 38 10t42.5 -1t42.5 -5.5t38 -3.5q9 -17 2.5 -30.5t-17 -24t-21 -19.5t-10.5 -18q-87 -87 -170 -173t-152 -173v-23q43 0 78.5 3t68 5.5t64 1.5t66.5 -10q28 0 41.5 10.5t18 27t3.5 37.5t-0.5 41.5t6 38.5t22.5 30q17 0 32 -15t15 -32q-9 -17 -7.5 -41.5
t1.5 -50.5t-7.5 -50.5t-33.5 -41.5h-391q-9 0 -21.5 3.5t-25.5 8t-25 8t-21 3.5q0 17 7 27t16 16.5t16 12t7 14.5q35 17 66.5 48t48.5 66l232 231v23h-24q-35 0 -66 3t-61 3t-61 -6t-65 -23h-23q0 -17 3 -37.5t3 -40t-6 -35.5t-24 -25q-9 9 -14 10t-9 1t-9 1.5t-14 10.5
q11 17 14.5 37.5t3.5 41t-0.5 39.5t3.5 33.5t15 23.5t34 9h230zM182 773q25 -17 33 -27q38 -14 47 -37q0 -6 18 -10l4 -22l9 2v10l-2 10q4 4 18 4q4 10 31 19l2 2l-8 12v10q10 0 10 -4q15 0 51 27h12l13 2q13 -20 14 -35v-12q0 -15 -22 -19q-19 -23 -43 -39q-27 -13 -27 -24
q0 -16 -31 -23q-8 -20 -16 -26h-2q-8 10 -23 10q-26 22 -26 39q0 11 -17 12q-6 19 -10 19l-14 -1q-7 17 -31 17l-10 22q-9 3 -9 21q0 32 17 37z" />
    <glyph glyph-name="florin" unicode="&#x192;" horiz-adv-x="544" 
d="M509 606q0 -15 3 -27t5 -22t1 -18.5t-9 -16.5t-18.5 -12t-22.5 -5.5t-23 -2t-18 -0.5q-16 15 -18.5 31t-2.5 32q0 7 3 14.5t5 13.5t1 9.5t-9 3.5q-16 7 -31.5 8t-31.5 -0.5t-31.5 -4.5t-30.5 -3q-16 -15 -21.5 -31t-7.5 -31.5t-3.5 -31t-9.5 -30.5l21 -22q16 0 34.5 5.5
t36 7.5t32 -4t22.5 -29q8 -8 8.5 -15.5t-3.5 -13.5t-11 -9.5t-15 -3.5q-16 0 -31 6t-28.5 10t-25 2t-19.5 -18v-269q0 -8 -3 -16t-5 -16t-1 -16t9 -15h146v-63q-8 -15 -19.5 -17t-25 1.5t-29 9.5t-30.5 6q-32 0 -75.5 -2.5t-91.5 -18.5q-15 16 -30.5 16t-29 -2t-25 1.5
t-19.5 27.5q0 12 3 23q2 10 6 20t12 18q32 -15 73 -15t73 15q-8 39 -8.5 78t1 78t4.5 78t3 78q-16 8 -35 9t-38.5 -1t-38 -5t-34.5 -3q-16 16 -26 31.5t5 30.5q8 16 19 18t23 0.5t23 -3t19 6.5h83q0 15 -5.5 39.5t-5.5 50t10.5 47t41.5 29.5q48 31 94 33.5t94 -12.5
q31 -16 49 -32t33 -31z" />
    <glyph glyph-name="circumflex" unicode="&#x2c6;" horiz-adv-x="319" 
d="M271 603q-25 17 -33 27q-39 13 -48 36q0 6 -18 10l-4 22l-9 -2v-10l2 -10q-4 -4 -18 -5q-4 -10 -31 -19l-2 -2l9 -12v-10q-10 0 -10 4q-15 0 -51 -28h-12l-13 -2q-13 20 -14 35l-1 12q0 15 22 19q19 23 43 40q26 13 26 24q0 16 31 23q8 21 15 27h2q9 -10 24 -10
q26 -22 26 -39q0 -11 17 -11q7 -19 11 -19l14 1q7 -17 31 -17l10 -21q9 -3 9 -21q1 -32 -16 -38z" />
    <glyph glyph-name="caron" unicode="&#x2c7;" horiz-adv-x="317" 
d="M48 767q25 -17 33 -27q38 -14 47 -37q0 -6 18 -10l4 -22l9 2v10l-2 10q4 4 18 4q4 10 31 19l2 2l-8 12v10q10 0 10 -4q15 0 51 27h12l13 2q13 -20 14 -35v-12q0 -15 -22 -19q-19 -23 -43 -39q-27 -13 -27 -24q0 -16 -31 -23q-8 -20 -16 -26h-2q-8 10 -23 10
q-26 22 -26 39q0 11 -17 12q-6 19 -10 19l-14 -1q-7 17 -31 17l-10 22q-9 3 -9 21q0 32 17 37z" />
    <glyph glyph-name="breve" unicode="&#x2d8;" horiz-adv-x="335" 
d="M54 767q25 -17 33 -27q12 -19 47 -37q0 -6 18 -10l6 2l7 -7l4 5l-7 2q5 2 19 2q4 10 31 19l2 2l4 8l-2 7q7 -7 7 -3l44 33h12l13 2q13 -20 14 -35v-12q8 -9 -22 -19q-19 -23 -43 -39q-27 -13 -27 -24q-10 3 -14 -4q-7 3 -10 0l-2 3q-30 -7 -42 -5q-26 -2 -30 6
q0 11 -17 12q-11 10 -10 19l-15 10q-6 6 -30 6l-10 22q-9 3 -9 21q0 32 17 37z" />
    <glyph glyph-name="dotaccent" unicode="&#x2d9;" horiz-adv-x="167" 
d="M149 677q0 -26 -10.5 -40.5t-24.5 -28.5q-13 0 -22.5 -2t-17.5 -2t-15 4.5t-13 17.5q-14 13 -22.5 25.5t4.5 25.5q0 13 6 20.5t15.5 12.5t22 9t25.5 10q6 -6 12.5 -10t13.5 -9t13.5 -12.5t12.5 -20.5z" />
    <glyph glyph-name="ring" unicode="&#x2da;" horiz-adv-x="323" 
d="M199 876q8 0 12 3t6 7q3 4 3 10q15 -15 39.5 -32t40.5 -47q0 -30 -15.5 -70t-44.5 -71q-31 -15 -70 -15t-69 15t-47.5 33t-33.5 47q8 15 16 33.5t17.5 37t21 36.5t26.5 33q8 7 18.5 5t22 -5.5t21.5 -5.5t17 6zM220 835q-15 0 -26.5 6t-20.5 9.5t-16.5 1.5t-15.5 -17
q-15 0 -23 -9.5t-12 -22t-4.5 -26t-0.5 -21.5q16 -14 30.5 -29t30.5 -31q14 0 28 10.5t30 10.5q15 15 20 26.5t5 23t-2.5 23.5t-2.5 27z" />
    <glyph glyph-name="ogonek" unicode="&#x2db;" horiz-adv-x="254" 
d="M20 -100q0 41 30 62q23 15 65 15l26 -3l-4 51l49 2l6 -82v-5q0 -6 -8 -12q-8 -11 -17 -11q-5 0 -33 12q-12 5 -21 5q-13 0 -23 -11q-9 -13 -9 -27q0 -24 19 -34q12 -6 36 -6q12 0 45 15q11 5 32 15q6 0 14 -5q9 -6 9 -15q0 -21 -35 -37q-33 -17 -71 -17q-40 0 -76 25
q-34 25 -34 63z" />
    <glyph glyph-name="tilde" unicode="&#x2dc;" horiz-adv-x="420" 
d="M397 660q4 -7 -3 -22q-2 -6 -9.5 -11.5t-9.5 -7.5l-19 -23q-11 -1 -13 -3q-1 -10 -3 -13q-9 -5 -13 -8l-22 -8q-6 -5 -12.5 -9t-13.5 -7t-16 -3q-3 0 -6 1t-7 4h-19l-32 9q-10 4 -16 7.5t-13 8.5l-24 18q-1 1 -2.5 8t-2.5 8q-11 -2 -17 3.5t-10 8.5t-14.5 7t-15.5 3
q-4 0 -9.5 -4t-10 -6.5t-11.5 -5.5q-10 -10 -20 -19q-9 -2 -13 0q-4 3 -4 9q1 6 1 9q0 5 8 17q2 3 5.5 4.5t8.5 3.5q2 6 5 12l22 16q19 4 25 8t12 9q3 1 12 3t14 2q3 0 12 -2t26 -12q5 -8 8 -12l19 -12l29 -18q14 -11 29 -21q10 -4 16 -5t17 -1q6 0 13 0.5t18 7.5q5 3 9 7
l10 10l18 15l14 16q13 9 21 6q6 -1 9 -8z" />
    <glyph glyph-name="hungarumlaut" unicode="&#x2dd;" horiz-adv-x="533" 
d="M96 621l-10 11l93 76l4 4q14 -1 25.5 -14t17.5 -20q-17 -20 -34.5 -36.5t-35 -32t-33.5 -33.5t-29 -41q-11 4 -24.5 16.5t-29.5 27.5q-7 7 -8 10.5t1.5 5.5t6 2.5t4.5 2.5q8 0 12 4.5t8.5 9t11 7.5t20.5 0zM379 621l-10 11l93 76l4 4q14 -1 25.5 -14t17.5 -20
q-17 -20 -34.5 -36.5t-35 -32t-33.5 -33.5t-29 -41q-11 4 -24.5 16.5t-29.5 27.5q-7 7 -8 10.5t1.5 5.5t6 2.5t4.5 2.5q8 0 12 4.5t8.5 9t11 7.5t20.5 0z" />
    <glyph glyph-name="endash" unicode="&#x2013;" horiz-adv-x="355" 
d="M136 310v12h190q7 -5 9.5 -11t2.5 -13t-1 -13t-1 -10q-39 -5 -75.5 -5.5t-72 -2t-72 -4.5t-75.5 -12q-8 9 -9 25t-1 34q0 9 3 12t7.5 3t9.5 -1.5t9 -1.5q7 -5 15.5 -4t18.5 2.5t20.5 0t21.5 -10.5z" />
    <glyph glyph-name="emdash" unicode="&#x2014;" horiz-adv-x="486" 
d="M180 318v15h271q10 -6 13.5 -14t3.5 -16t-1.5 -15.5t-1.5 -12.5q-56 -6 -108 -7t-102.5 -2.5t-102.5 -5.5t-108 -16q-11 11 -12.5 31t-1.5 43q0 11 4.5 15t11 4t13.5 -2t12 -2q10 -6 22.5 -4.5t26.5 3t29 -0.5t31 -13z" />
    <glyph glyph-name="quoteleft" unicode="&#x2018;" horiz-adv-x="160" 
d="M30 522q-6 21 -4 44.5t8 47t15.5 47t19.5 44.5q5 5 10.5 8t9.5 5t9 2q10 -10 7 -20.5t-10.5 -21t-16 -21t-8.5 -20.5q0 -6 -1.5 -14t-2.5 -16t-0.5 -15t5.5 -12q6 5 11 6t10.5 1t10.5 1t11 6q20 -10 24 -29t4 -41q-9 -11 -19.5 -21t-21.5 -21q-11 5 -21 6.5t-19.5 3.5
t-17.5 8.5t-13 21.5z" />
    <glyph glyph-name="quoteright" unicode="&#x2019;" horiz-adv-x="160" 
d="M130 707q6 -21 4 -44.5t-8 -47t-15.5 -47t-19.5 -44.5q-6 -6 -11 -8.5l-9 -4.5t-9 -2q-11 10 -7.5 20.5t11 21t16 21t8.5 20.5q0 6 1.5 14t2.5 16t0.5 15t-5.5 12q-6 -5 -11 -6t-10.5 -1t-10.5 -1t-11 -6q-20 10 -24 29t-4 41q9 11 19.5 21t21.5 21q10 -5 20.5 -6.5
t20 -3.5t17.5 -8.5t13 -21.5z" />
    <glyph glyph-name="quotesinglbase" unicode="&#x201a;" horiz-adv-x="169" 
d="M139 76q6 -23 3.5 -48t-9.5 -50.5t-17.5 -50.5t-21.5 -48q-6 -6 -11.5 -8.5t-10.5 -4.5t-9 -2q-11 11 -7.5 22.5t12 22.5t17.5 22.5t9 22.5q0 6 2 14t3.5 16.5t0.5 16.5t-6 14q-6 -6 -12 -7t-11.5 -1t-11 -0.5t-11.5 -6.5q-11 6 -17 14t-9 18t-3.5 21t-0.5 23
q11 11 22.5 22t22.5 22q12 -6 23 -7t21 -4t18 -10t14 -23z" />
    <glyph glyph-name="quotedblleft" unicode="&#x201c;" horiz-adv-x="386" 
d="M360 673q-6 -26 -9.5 -57t-6.5 -62.5t-7 -62.5t-10 -56q0 -12 -10.5 -14t-23.5 -2v152q6 0 7 3t-0.5 7.5t-4 10.5t-2.5 12q-13 7 -20 16t-10 20.5t-3.5 24t-0.5 25.5q13 12 27.5 22.5t40.5 10.5q6 0 12 -5.5t10.5 -13t7.5 -16.5t3 -15zM141 690q-13 -32 -20 -66.5
t-12 -69.5t-9 -69.5t-11 -65.5h-16q-6 25 -7.5 50.5t-1.5 51t-1 51t-7 50.5q-13 12 -21.5 35.5t4.5 48.5q13 19 28 21t29.5 -4t26.5 -16.5t18 -16.5zM276 571v17q6 0 7 -0.5t-0.5 -2t-4 -5t-2.5 -9.5z" />
    <glyph glyph-name="quotedblright" unicode="&#x201d;" horiz-adv-x="386" 
d="M360 673q-6 -26 -9.5 -57t-6.5 -62.5t-7 -62.5t-10 -56q0 -12 -10.5 -14t-23.5 -2v152q6 0 7 3t-0.5 7.5t-4 10.5t-2.5 12q-13 7 -20 16t-10 20.5t-3.5 24t-0.5 25.5q13 12 27.5 22.5t40.5 10.5q6 0 12 -5.5t10.5 -13t7.5 -16.5t3 -15zM141 690q-13 -32 -20 -66.5
t-12 -69.5t-9 -69.5t-11 -65.5h-16q-6 25 -7.5 50.5t-1.5 51t-1 51t-7 50.5q-13 12 -21.5 35.5t4.5 48.5q13 19 28 21t29.5 -4t26.5 -16.5t18 -16.5zM276 571v17q6 0 7 -0.5t-0.5 -2t-4 -5t-2.5 -9.5z" />
    <glyph glyph-name="quotedblbase" unicode="&#x201e;" horiz-adv-x="350" 
d="M149 76q6 -23 3.5 -48t-9.5 -50.5t-17.5 -50.5t-21.5 -48q-6 -6 -11.5 -8.5t-10.5 -4.5t-9 -2q-11 11 -7.5 22.5t12 22.5t17.5 22.5t9 22.5q0 6 2 14t3.5 16.5t0.5 16.5t-6 14q-6 -6 -12 -7t-11.5 -1t-11 -0.5t-11.5 -6.5q-11 6 -17 14t-9 18t-3.5 21t-0.5 23
q11 11 22.5 22t22.5 22q12 -6 23 -7t21 -4t18 -10t14 -23zM309 77q6 -23 3.5 -48t-9.5 -50.5t-17.5 -50.5t-21.5 -48q-6 -6 -11.5 -8.5t-10.5 -4.5t-9 -2q-11 11 -7.5 22.5t12 22.5t17.5 22.5t9 22.5q0 6 2 14t3.5 16.5t0.5 16.5t-6 14q-6 -6 -12 -7t-11.5 -1t-11 -0.5
t-11.5 -6.5q-11 6 -17 14t-9 18t-3.5 21t-0.5 23q11 11 22.5 22t22.5 22q12 -6 23 -7t21 -4t18 -10t14 -23z" />
    <glyph glyph-name="dagger" unicode="&#x2020;" horiz-adv-x="433" 
d="M430 474q0 -26 -18 -37q-13 -8 -32 -8q-31 0 -71 8q-9 2 -71 16l20 -64q9 -33 9 -67l-2 -23l-37 -447q0 -20 -9 -20q-10 0 -10 20l-38 447l-2 25q0 31 15 83q5 17 15 46q-37 -9 -75 -17q-39 -8 -81 -8q-17 0 -28 12t-11 29q0 22 13 34q12 11 25 11q28 0 82 -10t75 -14
q-13 46 -18 69q-10 41 -10 71q0 23 16 39q15 15 31 15q19 0 32 -17t13 -35q0 -24 -13 -84q-4 -20 -14 -58q34 6 52 10q64 13 91 13q29 0 40 -11t11 -28z" />
    <glyph glyph-name="daggerdbl" unicode="&#x2021;" horiz-adv-x="435" 
d="M429 322q0 -24 -15 -33q-15 -10 -41 -10q-34 0 -72 9q-47 13 -71 19q10 -17 21 -34q10 -19 12 -41v-21l-31 -356q-2 -21 -13 -21t-14 21l-32 356v18q0 17 6 32q1 3 26 46q-42 -12 -63 -17q-42 -11 -75 -11q-21 0 -41 14q-21 13 -21 29q0 21 18 33q18 11 45 11l137 -32
q-8 15 -16 33t-8 35q0 23 11 47q6 13 13 26v29q-13 34 -18 52q-11 34 -11 62q0 26 10 46t32 20q23 0 32 -18q9 -19 9 -47q0 -29 -10 -61q-13 -35 -19 -54v-29q14 -25 17 -33q8 -19 8 -40q0 -20 -6 -35t-19 -33q33 10 70 21q36 10 68 10q24 0 43 -11q18 -12 18 -32zM103 523
v-49l17 -2l-2 22l18 -22l12 15l-16 14l11 7l-4 15l-9 6l-20 -2zM243 519v-53h16l-1 16l6 -8q6 -8 7 -8l10 14l-16 15l14 16l-10 11l-14 -18v18zM285 518v-49l13 -2v21l12 -22l10 12l-11 14l7 8l3 7l-2 10l-8 7l-17 -2zM326 497v-3.5t1 -6.5q0 -4 1 -10l10 -6h5q5 0 5 -2l8 8
l2 4q2 4 2 6q-1 0 -1 2v6q-1 4 -1 7v22h-14q1 -1 1.5 -6t0.5 -11v-17v-9l-5 6l-3 34h-5q-2 0 -4 -0.5t-3 -0.5v-12v-11zM57 472q1 0 3 8t4 18q3 11 5 26h17l13 -50l-14 -1l-2 16l-8 -1l-3 -17h-11q-4 0 -4 1zM151 528l1 -53l36 -6l2 18l-22 2q-1 0 -1 5.5t0.5 12t1 12.5
l0.5 6zM367 527v-53l29 -6l1 15l-14 3q0 6 1 12q1 5 1.5 10t0.5 9q0 2 1.5 4.5t0.5 2.5zM400 528v-59h27l1 20h-12q1 8 2 15q1 6 1.5 11.5t0.5 9.5q0 1 -5 1h-5zM53 508l-11 13l-11 3l-6 -2l-6 -2l-5 -17l-1 -13l4 -15l12 -6l11 2l6 4l5 5l-9 12l-8 -5h-5l-4 4l2 12l2 2l3 3
l6 -2l3 -6zM76 498h6l-1 10l-5 -1v-9zM126 515l1 -7l-9 -1l2 7zM305 509v-6l-9 -3l1 12zM326 521v-1h-1z" />
    <glyph glyph-name="bullet" unicode="&#x2022;" horiz-adv-x="188" 
d="M170 69q0 -29 -12.5 -46.5t-27.5 -32.5q-15 0 -26 -2.5t-20.5 -2.5t-17.5 5t-15 20q-15 15 -25 30t5 29q0 15 7 23.5t18 14t25 10t29 12.5q7 -8 14.5 -12.5t15 -10t15 -14t15.5 -23.5z" />
    <glyph glyph-name="ellipsis" unicode="&#x2026;" horiz-adv-x="559" 
d="M521 170q15 -15 15 -32.5t-15 -47.5q-15 -15 -39.5 -17.5t-39.5 -2.5q-15 15 -27.5 20t-12.5 20q-15 30 -2.5 54.5t42.5 24.5q7 15 17.5 16.5t22 -4t21.5 -15t18 -16.5zM353 150q0 -29 -12.5 -46.5t-27.5 -32.5q-15 0 -26 -2.5t-20.5 -2.5t-17.5 5t-15 20q-15 15 -25 30
t5 29q0 15 7 23.5t18 14t25 10t29 12.5q7 -8 14.5 -12.5t15 -10t15 -14t15.5 -23.5zM157 156q15 -15 15 -32.5t-15 -47.5q-15 -15 -39.5 -17.5t-39.5 -2.5q-15 15 -27.5 20t-12.5 20q-15 30 -2.5 54.5t42.5 24.5q7 15 17.5 16.5t22 -4t21.5 -15t18 -16.5z" />
    <glyph glyph-name="perthousand" unicode="&#x2030;" horiz-adv-x="791" 
d="M235 595q24 -35 24 -78.5t-24 -78.5q-11 -36 -42.5 -60t-67.5 -35q-18 6 -35 12t-32 15t-26 21.5t-17 29.5q6 30 12.5 59t18.5 54.5t31 45t48 31.5q24 12 55.5 10t54.5 -26zM489 705q22 -22 0 -47q-12 -6 -16.5 -14t-8 -17t-8 -17.5t-16.5 -14.5q-11 -24 -23 -45.5
t-23 -33.5q-60 -106 -117 -202.5t-104 -190.5q-12 -6 -16 -12t-5.5 -10.5t-2.5 -7t-7 -2.5q6 -12 1.5 -21.5t-12 -18.5t-14.5 -18.5t-7 -21.5q-12 -11 -24 -13t-24 -2q-6 6 -6.5 9t1 6l3.5 7t2 10q0 12 5 16t12.5 7t16 7.5t14.5 16.5h15q0 12 -2 16t-13 15q-4 -9 -8 -14
q-3 -5 -5.5 -6t-2.5 5q0 12 5 19t10.5 13t10.5 12.5t5 18.5q18 18 28.5 37.5t19.5 39t19 36.5t28 29q11 24 25.5 47t37.5 47q12 36 26 79.5t38 78.5q6 0 9 5t4.5 12.5t1.5 15.5v14q11 0 21.5 10t10.5 22q11 8 18.5 21t12.5 27t9.5 26.5t11.5 18.5t17 3.5t26 -18.5zM489 328
q12 -6 16 -15t5.5 -19.5t2.5 -22t7 -23.5q0 -48 -21.5 -83t-58.5 -59q-12 -6 -18.5 -6.5t-12.5 2.5t-13 9t-19 12q12 6 26 14t26 18.5t20 22t8 23.5q11 24 13 47.5t2 47.5q-6 6 -14 11t-17 8t-17.5 2.5t-14.5 -6.5q-24 0 -43 -19.5t-19 -43.5q-24 -24 -28 -47.5t-4 -46.5
q11 0 15 -4.5t5.5 -10t2.5 -10.5t6 -6q-6 -1 -11.5 -3t-11 -3.5t-11 -0.5t-11.5 7q-12 0 -16.5 5.5t-6 14t-2.5 19.5t-7 23q12 36 26 63.5t37 62.5q6 0 10 7t8.5 14.5t11 12t17.5 -1.5q0 11 20 13t43 2q6 0 14.5 -2.5t16 -7t13 -9.5t5.5 -11zM220 75h15v16h-15v-16zM377 91
q0 -6 -5 -7t-12 0.5t-15.5 4t-14.5 2.5h47zM157 485v-15h16v15h-16zM204 548q-12 24 -26 26.5t-29 -6.5t-29 -24.5t-26 -27.5q-12 -11 -16 -32.5t-16 -45.5q12 -12 19 -21t13 -15t12.5 -9t18.5 -3t18.5 2.5t11 7t8.5 10t10 11.5q35 24 39 58t-8 69zM753 318q24 -35 24 -78.5
t-24 -78.5q-11 -36 -42.5 -60t-67.5 -35q-18 6 -35 12t-32 15t-26 21.5t-17 29.5q6 30 12.5 59t18.5 54.5t31 45t48 31.5q24 12 55.5 10t54.5 -26zM675 208v-15h16v15h-16zM722 271q-12 24 -26 26.5t-29 -6.5t-29 -24.5t-26 -27.5q-12 -11 -16 -32.5t-16 -45.5
q12 -12 19 -21t13 -15t12.5 -9t18.5 -3t18.5 2.5t11 7t8.5 10t10 11.5q35 24 39 58t-8 69z" />
    <glyph glyph-name="guilsinglleft" unicode="&#x2039;" horiz-adv-x="235" 
d="M183 394q-17 -25 -27 -33q-13 -39 -36 -48q-6 0 -10 -18l-22 -4l2 -9h10l10 2q4 -4 5 -18q10 -4 19 -31l6 -6v-3q18 6 7 -9q7 0 35 -36l14 -22l10 -26q-18 -18 -42 -15l-27 23q-15 0 -19 22q-23 19 -40 43q-13 26 -20 30q-20 -4 -27 27q-21 8 -27 15v2q10 9 10 24
q32 14 39 26q11 0 19 14q11 10 11 14l8 6q8 15 21 26l8 23q3 9 42 36q24 0 34 -22z" />
    <glyph glyph-name="guilsinglright" unicode="&#x203a;" horiz-adv-x="227" 
d="M39 429q9 22 32 22q38 -27 41 -37l8 -23q12 -11 20 -26l8 -6q0 -4 10 -15q8 -14 19 -14q6 -12 37 -26q0 -15 10 -25v-2q-6 -7 -26 -15q-7 -31 -26 -27q-7 -4 -19 -31q-17 -24 -39 -43q-4 -23 -18 -23l-26 -23q-24 -3 -41 15l10 27l13 22q27 37 34 37q-11 15 7 9v3l6 6
q8 27 18 31q1 14 5 19l9 -2h10l2 9l-21 4q-4 18 -10 18q-22 9 -35 49q-9 8 -26 33z" />
    <glyph glyph-name="fraction" unicode="&#x2044;" 
d="M426 633q5 -19 -0.5 -32t-13.5 -24t-16 -21.5t-8 -25.5q-39 -48 -76 -102t-66 -103q-9 -20 -25 -38.5t-26 -38.5q-10 -14 -16 -28.5l-12 -29t-14 -29t-22 -28.5q0 -15 -6.5 -29.5t-14.5 -28.5t-17 -28.5t-13 -29.5q-5 0 -12 -1.5l-14 -3t-14 -1t-11 5.5q-11 0 -17 14.5
t3 24.5q11 0 18.5 8t7.5 18t6 17.5t13.5 14.5t13.5 14.5t6 17.5l26 25q0 15 4 25t8.5 18.5t8.5 16t4 17.5q10 0 13.5 2t4.5 5t2 5t6 2v25q5 0 6.5 -2.5t3.5 -4.5l2 -6q5 0 6 1.5t1 4t0.5 4.5t3.5 3h-11q0 4 2 7t5 5.5t5 5.5t2 8q9 4 14.5 13t9 18.5t6 18t7.5 13.5v26
q15 5 19.5 13.5t7 18.5t7 19t18.5 14q0 9 6.5 18.5t6.5 19.5q9 19 25 38t26 39q5 5 5.5 9.5t-0.5 9.5t-3 10t-2 10q10 9 14.5 18.5t23.5 19.5q5 -5 12 -6t14.5 -2t14 -4.5t11.5 -13.5z" />
    <glyph glyph-name="Euro" unicode="&#x20ac;" horiz-adv-x="654" 
d="M532 576q21 -8 31.5 -25.5t14 -38.5t3.5 -43t-0.5 -37t1.5 -21.5t11 3.5q0 -15 -3.5 -20.5t-9.5 -5.5t-13.5 2.5t-14.5 2.5q-15 15 -17 30t-0.5 28t3 24t-5.5 19q-15 30 -43 58.5t-58 42.5q-23 8 -42 5.5t-36.5 -12t-33 -24t-30.5 -30.5q-9 -29 -27 -52t-33 -47h214
q10 -6 13.5 -14t3.5 -16t-1.5 -15.5t-1.5 -12.5q-66 -8 -125.5 -8.5t-119.5 -2.5q4 -14 2 -28t-3.5 -26t1 -22.5t16.5 -17.5q0 -5 -2 -9h206q10 -6 13.5 -14t3.5 -16t-1.5 -15.5t-1.5 -12.5q-60 -7 -114.5 -7.5t-108.5 -2.5q7 -20 16 -36.5t31 -27.5q0 -15 6.5 -27t16 -21.5
t19.5 -17.5t18 -16q15 -15 33.5 -19.5t37 -2.5t37 8.5t33.5 13.5q31 31 56 64t25 78q7 7 11.5 14.5t8.5 13.5t8.5 9.5t12.5 3.5q15 0 27.5 -2.5t12.5 -18.5q0 -23 -6.5 -42.5t-16 -38.5t-20 -38.5t-18.5 -42.5q-90 -90 -242 -60q-30 7 -53.5 28.5t-42.5 50t-34.5 61
t-30.5 62.5v1q-35 -2 -70.5 -6t-73.5 -12q-11 11 -12.5 31t-1.5 43q0 11 4.5 15t11 4t13.5 -2t12 -2q10 -6 22 -5t26 2.5t29 0t30 -11.5q-3 28 -3.5 56.5t3.5 57.5q-30 -2 -60.5 -6t-62.5 -11q-11 11 -12.5 31t-1.5 43q0 11 4.5 15t11 4t13.5 -2t12 -2q10 -6 22 -5t26 2.5
t29 0t30 -11.5q0 4 2 8v6h1q7 20 15.5 40t20.5 40q0 7 7 18t18 24.5t25.5 28.5t29.5 30q23 0 42.5 6t38.5 11.5t38.5 7.5t42.5 -6q31 -14 48.5 -29.5t32.5 -29.5z" />
    </font>
</defs>
</svg>
